<?xml version="1.0" encoding="utf-8"?>
<!-- Generator: Adobe Illustrator 25.0.1, SVG Export Plug-In . SVG Version: 6.00 Build 0)  -->
<svg version="1.1" xmlns="http://www.w3.org/2000/svg" xmlns:xlink="http://www.w3.org/1999/xlink" x="0px" y="0px"
	 viewBox="0 0 566.9 157.8" style="enable-background:new 0 0 566.9 157.8;" xml:space="preserve">
<g id="Layer_1">
</g>
<g id="Layer_13">
</g>
<g id="Layer_12">
</g>
<g id="Layer_11">
</g>
<g id="Layer_10">
</g>
<g id="Layer_9">
</g>
<g id="Layer_8">
</g>
<g id="Layer_7">
</g>
<g id="Layer_6">
</g>
<g id="Layer_5">
</g>
<g id="Layer_4">
</g>
<g id="Layer_3">
	<g>
		<path d="M201.6,142c-0.3,0-0.5,0.3-0.6,0.4c-2.1,2.6-4.6,4.8-7.1,6.9c-1.1,1-2.5,1.4-4,0.8c-0.9-0.3-1.4-0.9-1.5-1.8
			c-0.2-1.2,0.2-2.3,0.8-3.4c1.1-1.8,2.4-3.4,3.9-4.8c1.2-1.2,2.3-2.4,3.5-3.7c-0.7-0.3-1.3-0.3-1.9-0.4c-1.3-0.1-2.5,0.1-3.8-0.2
			c-0.2,0-0.4,0.1-0.5,0.2c-2.2,1.2-4.2,2.7-6.2,4c-2.4,1.5-4.6,3.3-7,4.9c-0.6,0.4-1.3,0.7-1.9,1c-1.2,0.5-2.3,0.5-3.4-0.4
			c-1.1-1-1.1-2.2-0.8-3.5c0.2-0.6,0.5-1.2,1-1.7c1.4-1.5,3.1-2.9,4.6-4.3c1.9-1.7,3.6-3.6,5.2-5.6c0.4-0.5,1.1-0.9,1.3-1.6
			c-0.2-0.2-0.5-0.3-0.7-0.4c-1-0.4-2-0.5-3-0.8c-1-0.3-1.9,0.2-2.7,0.6c-2.3,1.1-4.6,2.3-6.9,3.4c-2.3,1.1-4.8,2.1-7.3,2.8
			c-0.5,0.2-1.1,0.3-1.7,0.3c-2,0-3.1-1.5-2.3-3.3c0.4-1,1.1-1.8,1.9-2.6c1.1-1.2,2.5-2.1,3.9-3.1c1.8-1.3,3.8-2.4,5.7-3.4
			c1.6-0.8,3.2-1.5,4.9-2c3-0.8,6.1-1.3,9.1-1.8c3.9-0.6,7.8-1.5,11.5-3.1c1-0.4,2-1,2.9-1.6c1.2-0.7,2.3-1.6,3.4-2.3
			c1.1-0.8,2.3-1.4,3.5-2.1c0.9-0.5,1.8-0.8,2.7-1.2c1.7-0.7,3.4-1.4,5.1-2c3-0.9,6.1-1.9,9.2-2.5c2-0.4,3.9-0.7,5.9-0.9
			c3.7-0.5,7.4-0.3,11.1-0.3c1,0,2.1,0.2,3.1,0.3c0.6,0.1,1.1,0,1.4-0.5c0.5-0.8,1.2-1.4,1.9-2c1.9-1.7,3.8-3.5,5.8-5.1
			c1.6-1.3,3.3-2.3,5.1-3.3c0.3-0.2,0.5-0.3,0.3-0.7c-0.1-0.4-0.3-0.9-0.2-1.4c0.1-0.7-0.2-1.2-0.6-1.6c-1.3-1.2-2.4-2.5-3.5-3.9
			c-1-1.2-1.9-2.6-2.8-3.9c-0.2-0.4-0.5-0.6-0.9-0.8c-0.4-0.2-0.8-0.5-1.2-0.7c-1.4-0.9-2.9-0.9-4.4-0.5c-2.9,0.7-5.7,1.7-8.1,3.5
			c-1.4,1-2.9,1.8-4.3,2.9c-1.2,0.9-2.5,1.8-3.8,2.7c-3.1,2.1-6.5,3.7-10,5c-3,1.1-6.2,1.9-9.3,2.7c-2.8,0.7-5.6,1.4-8.4,1.9
			c-2.8,0.6-5.7,0.9-8.5,1.3c-1.9,0.2-3.8,0.3-5.7,0.4c-5.8,0.4-11.6,0.4-17.3,0.4c-3.2,0-6.4,0-9.6-0.3c-2.9-0.2-5.9-0.5-8.8-0.8
			c-2.9-0.4-5.7-0.9-8.5-1.3c-1.6-0.3-3.2-0.6-4.8-0.9c-2.6-0.4-5.2-1-7.8-1.6c-1.5-0.3-3-0.7-4.4-1.1c-1.5-0.4-3-0.9-4.5-1.2
			c-1.4-0.3-2.7-0.8-4-1.2c-1.8-0.5-3.6-1.1-5.4-1.8c-2-0.7-4-1.3-5.9-2.1c-1.8-0.8-3.7-1.4-5.6-2.2c-2.3-0.9-4.6-2-6.9-3
			c-4.2-1.9-8.4-3.9-12.5-5.9c-3.1-1.5-6.2-3.2-9.2-4.9c-2.6-1.5-5.2-3-7.8-4.6c-1.9-1.2-3.8-2.4-5.7-3.6c-2.6-1.7-5.2-3.4-7.8-5.1
			c-1.4-0.9-2.8-1.6-4.2-2.4c-1.9-1.1-3.9-2.1-6-2.9c-1.2-0.5-2.3-1-3.5-1.5c-1.9-0.8-3.9-1.5-5.7-2.3c-2.3-1-4.7-1.8-6.8-3.1
			C21,44.7,19.8,44,19,42.7c-1-1.7-0.4-3.5,1.4-4.3c1.3-0.6,2.6-0.7,3.9-0.7c3.6-0.2,7.1-0.5,10.6-1.3c3.4-0.8,6.8-1.5,10.2-2.3
			c3.1-0.8,6.1-1.8,9.1-3.1c3.6-1.6,7.3-3.2,11-4.6c2.7-1.1,5.4-2.1,8.3-2.9c1.5-0.4,3-0.9,4.6-1.3c2.5-0.6,5-1.1,7.5-1.5
			c2.2-0.4,4.5-0.7,6.7-0.9c1.8-0.2,3.6-0.3,5.4-0.3c2.5,0,5-0.1,7.4,0.1c2.2,0.1,4.5,0.1,6.7,0.5c1.9,0.3,3.9,0.4,5.9,0.6
			c2.2,0.3,4.4,0.6,6.6,0.9c1.9,0.3,3.8,0.5,5.7,0.8c2.2,0.3,4.3,0.7,6.5,0.9c2.2,0.2,4.5,0.6,6.7,1c2.6,0.5,5.2,1.1,7.8,1.7
			c3.1,0.8,6.1,1.7,9.1,2.6c3.6,1.1,7.3,2.1,11,3c2.9,0.6,5.8,1.2,8.7,1.7c2.5,0.4,5,0.7,7.5,1c2.6,0.3,5.2,0.5,7.9,0.7
			c2.7,0.2,5.3,0.4,8,0.3c2.7-0.1,5.5-0.2,8.2-0.3c2.8-0.1,5.5-0.4,8.3-0.5c1.4,0,2.8-0.4,4.2-0.5c1.6-0.1,3.1-0.4,4.7-0.6
			c1.3-0.1,2.5-0.5,3.8-0.7c2.3-0.4,4.5-1,6.8-1.6c1.7-0.4,3.4-1,5.1-1.5c3-0.9,6-1.8,9-2.8c4.3-1.3,8.7-2.6,13.1-3.7
			c3.1-0.8,6.2-1.3,9.3-2c2.4-0.6,4.9-1,7.3-1.4c2.6-0.4,5.2-0.8,7.8-1.1c1.4-0.1,2.8-0.4,4.2-0.6c1.4-0.2,2.9-0.5,4.3-0.5
			c0.4,0,0.9-0.1,1.3-0.2c0.5-0.1,1.1-0.2,1.6,0c0.3,0.1,0.6,0.1,0.8,0c2.7-0.9,5.5-1.3,8.3-1.9c2.4-0.5,4.9-0.9,7.3-1.3
			c1.9-0.3,3.9-0.6,5.8-0.9c1.9-0.2,3.8-0.6,5.7-0.8c1.2-0.1,2.5-0.2,3.7-0.1c0.7,0,1.4,0.1,2.1,0c3.3-0.1,6.5,0.3,9.8,0.2
			c0.5,0,1.1,0,1.6-0.2c0.4-0.2,0.8-0.2,1.2-0.1c1.7,0.3,3.5,0,5.2,0.2c1.6,0.1,3.2,0.1,4.7,0.3c0.6,0.1,1.2,0,1.8,0.1
			c2.8,0.2,5.6,0.3,8.4,0.6c2.1,0.2,4.3,0.1,6.4,0.2c3.3,0.1,6.6,0.3,9.9,0.7c2.4,0.3,4.7,0.6,7.1,1c1.4,0.3,2.9,0.6,4.3,0.8
			c2.4,0.4,4.7,1,7.1,1.6c1.7,0.4,3.4,0.7,5.1,1.3c0.7,0.3,1.6,0.3,2.3,0.5c2.3,0.7,4.7,1.2,7,1.8c3.2,0.8,6.3,1.6,9.5,2.4
			c3.3,0.7,6.6,1.5,9.9,2.1c2,0.4,4,0.7,6,0.9c1.5,0.2,3,0.4,4.4,0.6c1.7,0.2,3.4,0.3,5,0.5c1.5,0.2,3,0.2,4.5,0.3
			c2.8,0.1,5.5,0.4,8.3,0.1c1.8-0.2,3.6-0.2,5.3-0.3c2-0.1,3.9-0.4,5.8-0.7c1.4-0.2,2.8-0.4,4.2-0.6c1.8-0.3,3.7-0.7,5.4-1.4
			c1.9-0.7,3.6-1.6,5.3-2.7c0.7-0.4,1.4-0.5,2.2-0.7c1.9-0.6,3.9-1,5.9-0.9c2.2,0.1,4.4,0.3,6.4,1.3c0.5,0.2,0.9,0.5,1.3,0.7
			c1.9,1.2,3.9,2.4,5.4,4.2c0.6,0.7,1.2,1.4,1.9,2c0.9,0.8,1.8,1.6,2.7,2.4c0.6,0.6,1.5,0.8,2.3,1.1c0.7,0.2,1.5,0.4,2.2,0.6
			c0.6,0.1,1.1,0.3,1.5,0.7c0.4,0.4,1,0.5,1.6,0.7c1,0.3,2.1,0.6,3.1,1c2.3,0.7,4.5,1.4,6.7,2.3c2.2,0.9,4.4,1.8,6.1,3.6
			c0.5,0.5,1,0.8,1.6,1.2c0.9,0.6,1.4,1.3,1.8,2.3c0.3,0.8,0.8,1.5,1.1,2.4c0.4,1.5,0.5,3,0.1,4.5c-0.3,1.2-0.6,2.3-0.9,3.5
			c-0.1,0.3-0.1,0.6-0.3,0.8c-1.1,1.4-2,2.9-3.5,3.9c-1.6,1.1-2.4,2.8-3.4,4.3c-0.7,1-1.3,1.9-2.1,2.8c-1,0.9-1.6,2.1-2.6,3
			c-1.4,1.3-2.8,2.3-4.5,3.2c-3,1.5-6.2,2.5-9.4,3.5c-2.8,0.8-5.7,1.5-8.5,2.3c-3,0.8-6,1.7-8.9,2.6c-1.6,0.5-3.1,1.1-4.8,1.3
			c-2.5,0.4-4.8,1.4-7.3,2.2c-1.6,0.5-3.3,0.9-5,1.3c-1.9,0.4-3.6,1.1-5.5,1.7c-1.6,0.5-3.2,1.1-4.9,1.5c-1.8,0.4-3.6,0.6-5.4,0.7
			c-3.5,0.1-6.9,0-10.3-0.7c-2-0.5-3.9-1.3-5.6-2.5c-0.4-0.3-0.8-0.5-1.1-0.7c-0.8-0.4-1.5-0.9-2-1.7c-0.4-0.6-1.2-0.6-1.9-0.8
			c-0.7-0.2-1.5-0.3-2.3-0.1c-0.7,0.2-1.5-0.1-2.2-0.1c-1.6-0.1-3.1-0.2-4.6-0.6c-0.6-0.1-1.2-0.3-1.8-0.7c-0.3-0.2-0.6-0.2-0.9-0.1
			c-1.5,0.5-3,1-4.5,1.5c-2.5,0.9-4.9,2.1-7.4,3c-0.4,0.1-0.7,0.3-1,0.6c-1.8,1.7-3.8,3-5.8,4.3c-3.1,1.9-6.6,2.7-10.1,3.4
			c-0.1,0-0.3,0-0.4,0c-2.1,0.1-2.1,0-3.7,1.1c-2.9,1.8-6,3.2-9.3,4.3c-0.1,0-0.3,0-0.4,0.2c0.5,0.7,1.3,1.1,2,1.6
			c1.2,0.9,2.4,1.9,3.6,3c1.1,1,2.3,1.7,3.3,2.8c0.2,0.2,0.4,0.2,0.6,0.3c1.5,0.4,3,0.9,4.6,1.3c1.5,0.4,3,0.9,4.4,1.4
			c1.6,0.6,3.1,1.4,4.7,2.2c2.7,1.3,4.8,3.2,6.8,5.3c1.7,1.9,3.2,3.9,3.7,6.5c0.2,1.1,0.4,2.2,0.3,3.3c-0.1,1.9,0.3,3.8,0.7,5.7
			c0.3,1.1,0.1,2.1,0.1,3.2c0,0.8-0.3,1.6-0.7,2.2c-0.5,0.9-1.1,1.9-2,2.5c-0.5,0.3-0.8,0.7-1,1.2c-0.2,0.4-0.5,0.8-0.9,1.1
			c-0.7,0.6-1.5,0.8-2.4,0.4c-0.8-0.3-1.1-1.1-1.1-1.8c-0.1-1-0.1-2,0.1-3c0-0.3,0.1-0.6,0.1-0.8c0.1-0.9-0.1-1.6-0.8-2.2
			c-0.9-0.8-1.1-1.9-1.3-2.9c-0.3-2.5-1.4-4.6-3.3-6.2c-0.8-0.7-1.6-1.6-2.5-2.2c-0.1-0.1-0.2-0.2-0.4-0.1c0.1,1.4,0.3,2.8,0.7,4.1
			c0.3,1.1,0.3,2.1,0.3,3.2c-0.1,2.1-0.2,4.2-1,6.2c-0.8,1.9-2.1,3.3-4.2,3.8c-0.3,0.1-0.6,0.1-0.8,0.1c-1.8,0.1-2.5-1.3-1.8-2.9
			c0.3-0.6,0.7-1.1,1-1.6c0.6-1,0.9-2,0.6-3.1c-0.5-1.9-0.7-3.9-1.4-5.7c0-0.1-0.1-0.2-0.1-0.3c-1.3-1.9-2.3-3.9-4-5.5
			c-0.7-0.7-1.1-1.5-1.2-2.5c-0.1-0.6-0.2-1.3-0.3-1.9c-0.1-0.4-0.3-0.6-0.7-0.5c-0.3,0.1-0.6,0.1-0.8,0c-3-0.5-6-0.9-8.9-1.5
			c-2.5-0.5-5-0.9-7.5-1.4c-3.5-0.7-6.9-1.6-10.3-2.6c-2.3-0.7-4.5-1.4-6.8-2.3c-0.2-0.1-0.5-0.2-0.7-0.2c-1.4-0.1-2.6-0.7-3.8-1.3
			c-0.3-0.2-0.7-0.4-0.7-0.7c0-0.7-0.5-1.1-1-1.4c-1.2-0.9-2.1-2-3.1-3.1c-0.3-0.4-0.6-0.5-1.1-0.4c-2.7,0.6-5.4,0.8-8.1,1.1
			c-2.5,0.3-5,0.5-7.5,0.6c-2.2,0.1-4.4,0.2-6.7,0.4c-4.2,0.3-8.4,0.2-12.7,0.4c-2.9,0.1-5.8,0-8.8,0.1c-1.9,0.1-3.9,0.1-5.8-0.1
			c-2.8-0.2-5.6-0.2-8.5-0.5c-2.8-0.3-5.6-0.5-8.3-1.1c-0.5-0.1-1,0-1.5-0.2c-0.4-0.1-0.6,0.2-0.8,0.4c-1,0.9-2.1,1.8-3.2,2.6
			c-1.4,1-2.8,1.8-4.3,2.6c-0.9,0.5-1.9,1-2.8,1.7c-0.9,0.7-1.9,1.2-2.9,1.8c-1.3,0.7-2.5,1.5-3.8,2.2c-2.3,1.3-4.7,2.4-7.1,3.5
			c-1.7,0.8-3.4,1.6-5.1,2.4c-3.1,1.4-6.3,2.7-9.7,3.6c-2.1,0.5-4.2,1-6.3,1.4c-2.1,0.4-4.2,0.6-6.3,0.6c-1.2,0-2.3,0.2-3.5,0.2
			c-0.7,0-1.4,0-2.1-0.2c-1.3-0.3-2.3,0.4-3.5,0.8c-1.6,0.6-2.9,1.6-4.1,2.8c-1.1,1.1-2.5,1.8-3.9,2.5c-0.5,0.3-1,0.5-1.4,1
			c-1.1,1.3-2,2.8-3,4.2c-1.9,2.7-4,5.2-6.9,6.9c-0.6,0.4-1.3,0.6-2.1,0.6c-1.5,0-2.4-1.1-2-2.6C201.2,142.9,201.7,142.5,201.6,142z
			 M487.2,70.7c0.6-0.4,1.1-0.9,1.7-1.3c0.5-0.4,0.9-0.7,1.5-0.9c1.1-0.3,2.1-0.6,3.2-0.9c2-0.5,4-0.9,6-1.5c2-0.6,4-0.9,6-1.2
			c1.6-0.2,3.3-0.4,4.9-0.6c3-0.4,6-0.7,9-1c1.9-0.2,3.8-0.5,5.7-0.9c1.9-0.4,3.7-0.7,5.6-1.1c1.2-0.2,2.4-0.4,3.6-1
			c0.6-0.3,1.2-0.5,1.7-0.8c0.7-0.3,1.4-0.4,2-0.9c0.9-0.7,1.7-1.6,2.5-2.4c0.7-0.8,1.3-1.7,1.7-2.6c0.4-1.1,0.5-2.2,0.1-3.3
			c-0.1-0.3-0.1-0.6-0.1-0.9c0-0.4,0.1-0.8,0-1.2c-0.1-1.7-0.5-3.2-2.1-4.2c-0.6-0.4-1.2-0.9-1.7-1.3c-0.7-0.5-1.3-1.1-2.3-1.1
			c-0.2,0-0.4-0.1-0.6-0.2c-1.5-0.5-2.8-1.2-4.3-1.7c-1.8-0.6-3.7-1.2-5.5-1.8c-2.7-0.8-5.2-1.9-7.8-2.8c-1.6-0.6-3.2-1.3-4.7-2
			c-2.1-1-4.4-1.7-6.6-2.3c-0.3-0.1-0.7-0.3-0.9-0.6c2.1-0.1,4.8,0.5,6.5,1.4c0.9,0.5,1.8,0.9,2.8,1.1c0-0.4-0.3-0.6-0.5-0.8
			c-1.3-1.4-2.8-2.4-3.9-4c-0.1-0.1-0.2-0.1-0.3-0.2c-1.4-1.3-3-2.3-4.7-3.3c-1.3-0.8-2.7-1.2-4.2-1.4c-1.1-0.1-2.2-0.4-3.2,0.3
			c-0.1,0.1-0.2,0-0.4,0c-1.6,0.1-3.1,0.5-4.6,1.2c-1.6,0.7-3.2,1.5-4.7,2.2c-0.6,0.3-1.2,0.4-1.9,0.8c1.1-0.1,2-0.2,2.9-0.4
			c1.1-0.2,2.2-0.2,3.3-0.2c1,0,2.1,0,3.1,0.2c0.2,0,0.4,0.1,0.5,0.2c0.1,0.1,0.2,0.2,0.1,0.3c0,0.1-0.1,0.1-0.2,0.2
			c-0.1,0.1-0.2,0-0.4,0c-1.4-0.3-2.8-0.1-4.2-0.1c-0.2,0-0.4,0.1-0.6,0.1c-1.4,0.3-2.8,0.6-4.3,0.6c-1.4,0-2.7,0.1-4,0.5
			c-0.5,0.1-1.1,0.2-1.6,0.3c-1.5,0.2-3.1,0.4-4.6,0.6c-1.3,0.2-2.7,0.4-4,0.6c-1,0.1-2,0.1-3,0.2c-2,0.2-3.9,0.2-5.9,0.3
			c-2.8,0.1-5.6-0.2-8.4-0.3c-1.3-0.1-2.6-0.1-3.9-0.3c-2.1-0.2-4.2-0.4-6.2-0.7c-1.7-0.3-3.4-0.5-5.1-0.7c-1.7-0.2-3.4-0.6-5-0.9
			c-2.9-0.6-5.8-1.2-8.6-1.8c-4-0.9-8-2-12-3c-2.1-0.5-4.1-1.1-6.2-1.5c-2.2-0.5-4.4-1.1-6.6-1.6c-1.8-0.4-3.6-0.9-5.5-1.2
			c-1.9-0.3-3.8-0.7-5.7-1.1c-2-0.4-4-0.6-6-0.8c-0.6-0.1-1.2-0.1-1.8-0.2c-0.9-0.2-1.7-0.4-2.6-0.4c-1.9-0.1-3.7-0.3-5.5-0.5
			c-1.5-0.1-3-0.1-4.5-0.3c-1.5-0.2-3-0.1-4.5-0.2c-1-0.1-2.1-0.2-3.1,0.2c-0.4,0.1-0.8,0.1-1.2,0.1c-1.7-0.2-3.4-0.3-5.1-0.4
			c-2.1-0.1-4.2-0.1-6.3,0.1c-0.7,0.1-1.4-0.2-2.1-0.1c-2.3,0.1-4.6-0.2-6.8,0c-0.9,0.1-1.7-0.2-2.6-0.2c-1.3,0-2.7,0.1-4,0.1
			c-1.6,0.1-3.1,0-4.7,0.2c-2,0.2-4.1,0.6-6.1,0.9c-1.8,0.3-3.6,0.5-5.4,0.9c-2.1,0.4-4.2,0.6-6.3,1.1c-1.2,0.3-2.4,0.4-3.5,0.7
			c-2.2,0.5-4.4,1-6.5,1.6c-0.7,0.2-1.4,0.4-2.1,0.2c-1-0.3-2-0.3-3-0.3c-1,0-2-0.1-2.9,0.1c-1.4,0.2-2.7,0.5-4.1,0.7
			c-2.2,0.4-4.5,0.7-6.7,1.1c-2.5,0.4-4.9,0.9-7.4,1.5c-2,0.4-4,0.8-5.9,1.3c-2.4,0.6-4.8,1.1-7.2,1.8c-1.7,0.5-3.4,0.9-5,1.4
			c-2.4,0.7-4.8,1.5-7.1,2.2c-2.8,0.9-5.7,1.7-8.5,2.6c-1.6,0.5-3.2,0.8-4.9,1.3c-1.4,0.4-2.8,0.6-4.3,1c-1.2,0.3-2.4,0.6-3.6,0.7
			c-1.6,0.2-3.2,0.5-4.8,0.7c-2.1,0.3-4.3,0.5-6.4,0.7c-2.1,0.1-4.2,0.3-6.3,0.4c-2.6,0.1-5.2,0.2-7.8,0.3c-3.1,0.1-6.2-0.1-9.3-0.3
			c-2.6-0.2-5.2-0.3-7.9-0.6c-1.3-0.2-2.5-0.2-3.8-0.4c-2.1-0.4-4.2-0.7-6.3-1.1c-2.1-0.4-4.3-0.8-6.4-1.3c-2.9-0.7-5.7-1.3-8.5-2.2
			c-1.4-0.5-2.9-0.9-4.3-1.3c-1.7-0.5-3.4-1-5.1-1.5c-2.8-0.7-5.6-1.5-8.5-2c-2.1-0.4-4.1-0.8-6.2-1.1c-1.5-0.2-3.1-0.4-4.6-0.6
			c-1.6-0.2-3.1-0.5-4.7-0.7c-1.6-0.2-3.1-0.4-4.7-0.6c-2.1-0.4-4.2-0.6-6.3-0.9c-1.4-0.2-2.8-0.2-4.3-0.4c-2.8-0.4-5.7-0.5-8.5-0.7
			c-3.5-0.1-7-0.1-10.5,0.1c-2.3,0.2-4.5,0.4-6.8,0.8c-1.3,0.2-2.6,0.4-3.9,0.6c-1.6,0.3-3.3,0.5-4.8,1c-1.5,0.4-2.9,0.8-4.4,1.3
			c-2.7,0.8-5.4,1.8-8,2.8c-1.5,0.6-2.9,1.3-4.4,1.9c-3.3,1.3-6.5,2.9-9.8,4c-1.9,0.7-3.9,1.3-5.9,1.8c-2.5,0.6-5,1.2-7.5,1.8
			c-1.8,0.4-3.6,0.8-5.4,1.1c-2.8,0.5-5.7,0.7-8.6,0.9c-1,0.1-2,0-3,0.5c-0.5,0.3-0.6,0.4-0.2,0.8c0.6,0.6,1.2,1.1,1.9,1.5
			c1.6,0.9,3.3,1.6,5,2.3c2.4,1,4.8,1.9,7.1,2.9c3.1,1.3,6.4,2.5,9.4,4.2c2.1,1.2,4.3,2.4,6.3,3.7c2.9,1.8,5.8,3.8,8.7,5.7
			c1.9,1.2,3.8,2.6,5.9,3.6c1.9,1,3.7,2.2,5.6,3.2c3.1,1.7,6.2,3.4,9.4,5c3.7,1.9,7.6,3.4,11.4,5.3c1.6,0.8,3.3,1.4,4.9,2.1
			c2.6,1.2,5.2,2.2,7.8,3.2c1.9,0.7,3.8,1.4,5.7,2c1.8,0.6,3.6,1.2,5.4,1.8c2.6,0.9,5.3,1.6,8,2.3c1.6,0.4,3.1,0.8,4.7,1.1
			c1.6,0.3,3.2,0.7,4.8,1c2,0.4,4,0.8,6,1.1c2.5,0.4,5,0.9,7.6,1.3c3.7,0.6,7.5,0.9,11.2,1.1c3.3,0.2,6.6,0.3,9.9,0.3
			c3.1,0,6.3-0.1,9.4-0.1c1.6,0,3.2-0.2,4.9-0.2c0.5,0,1.1,0,1.6,0c2.3-0.3,4.7-0.2,7-0.6c1.2-0.2,2.3-0.3,3.5-0.5
			c1.2-0.2,2.4-0.4,3.6-0.6c1-0.2,1.9-0.3,2.9-0.5c3.2-0.8,6.5-1.4,9.7-2.4c2.4-0.7,4.7-1.4,7-2.3c1.3-0.5,2.5-1.2,3.8-1.8
			c1.2-0.6,2.5-1.2,3.6-2c0.8-0.6,1.6-1.2,2.5-1.7c0.8-0.5,1.4-1.1,2.1-1.6c1.4-1,2.9-1.8,4.3-2.8c1.9-1.4,4-2.3,6.2-3
			c1.4-0.4,2.8-0.8,4.3-0.9c1.2-0.1,2.2,0.1,3.1,0.8c0.8,0.6,1.8,0.9,2.9,0.7c0.3,0,0.5-0.1,0.7,0.1c0.4,0.5,0.9,0.9,1.2,1.6
			c0.4,0.9,0.8,1.9,1.4,2.7c0.8,1,1.4,2.2,2.2,3.2c0.7,0.8,1.6,1.5,2.2,2.6c0.1-0.4,0.2-0.6,0.3-0.9c0.5-1.7,1.4-3.3,2.1-5
			c1.2-2.5,3-4.5,4.9-6.3c0.6-0.6,1.4-1.1,2.1-1.7c0.2,0.2,0.1,0.3,0,0.4c-1,1.5-2.1,2.9-3.2,4.2c-0.9,1-1.7,2.1-2.3,3.3
			c-0.5,0.9-0.8,1.8-1.2,2.6c-0.3,0.6-0.5,1.1-0.8,1.7c-0.6,1.1-0.6,2.4-1,3.5c-0.2,0.5-0.2,1-0.2,1.5c0,0.6,0.4,0.9,0.8,1.1
			c0.3,0.2,0.8,0,1.1-0.2c0.3-0.2,0.6-0.5,0.7-0.9c1.2-2,2.8-3.7,4.5-5.3c2.8-2.6,5.8-4.9,9.2-6.6c2-1,4-2,6.2-2.7
			c0.4-0.1,0.8-0.5,1.5-0.3c-1.3,0.7-2.4,1.4-3.5,1.9c-2.5,1.2-5,2.4-7.2,4c-3.2,2.2-6.1,4.8-8.6,7.7c-0.1,0.1-0.3,0.2-0.1,0.5
			c0.7-0.3,1.4-0.5,2-0.9c2.1-1.1,4.4-1.8,6.6-2.7c1.8-0.7,3.7-1,5.6-1.4c0.4-0.1,0.7,0,1.1,0c0.1,0,0.2,0.1,0.2,0.2
			c0,0.1-0.1,0.2-0.2,0.3c-0.6,0.1-1.2,0.2-1.8,0.4c-2.7,0.7-5.4,1.5-8,2.7c-1.3,0.6-2.7,1.2-4.1,1.8c-1.5,0.7-3,1.6-4.5,2.4
			c-1.3,0.7-2.6,1.4-3.9,2.2c-2.2,1.3-4.2,2.8-6,4.5c-1.4,1.3-2.8,2.7-4.2,4.2c-0.8,0.8-1.5,1.7-2,2.7c-0.9,2-0.9,1.5-2.6,2.8
			c0.3-1,0.8-2,1.4-3.1c-1.4,0.5-2,0.8-2.8,1.7c-0.3,0.3-0.5,0.6-0.8,0.8c-0.5,0.3-0.8,0.8-1.6,1c0.4-0.9,0.9-1.6,1.4-2.2
			c0.5-0.6,1.3-1,1.8-1.6c-0.6-0.3-0.6-0.3-1-0.3c-4.4-0.1-8.9-0.2-13.3,0.5c-1.9,0.3-3.8,0.5-5.6,1.1c-1.1,0.3-2.2,0.6-3.3,0.8
			c-1.6,0.4-3.2,0.9-4.7,1.4c-1.2,0.4-2.3,0.8-3.4,1.3c-2.1,0.9-4.3,1.9-6.2,3.3c-1.2,0.8-2.3,2-3.8,2.4c-0.6,0.2-1.2,0.4-1.7,0.7
			c-3.9,2-8.1,3.1-12.4,4c-2.5,0.5-5.1,0.8-7.7,1.3c-2.4,0.5-4.7,1.2-6.9,2.3c-2.4,1.2-4.7,2.5-6.8,4.2c-1.3,1-2.6,2-3.5,3.4
			c-0.2,0.3-0.5,0.6-0.3,0.9c0.2,0.3,0.5,0.1,0.8,0c1.5-0.3,3-0.9,4.4-1.4c1.3-0.5,2.7-1.1,3.9-1.8c1.7-1,3.5-1.8,5.3-2.7
			c1-0.5,2-0.9,3.1-1.2c2-0.6,4-1.1,6.1-1.2c0.8-0.1,1.2,0,1.2,0.4c0,0.3-0.4,0.6-1.1,0.6c-0.9,0-1.8,0.3-2.8,0.4
			c1.2,0.6,2.5,1,3.6,1.6c0.4,0.2,1.1,0.5,1.6,0c0.6-0.5,1.4-0.7,2-1.3c0.2-0.3,0.5-0.3,0.9-0.1c0,0.3-0.2,0.4-0.4,0.6
			c-0.8,0.8-1.7,1.4-2.6,2.1c-1.1,0.9-2.1,2.1-3.1,3.1c-1.2,1.3-2.2,2.6-3.4,3.8c-1.8,1.7-3.5,3.4-5.4,5c-0.7,0.6-1.3,1.2-1.6,2.1
			c-0.1,0.5-0.1,0.9,0.2,1.2c0.4,0.4,0.8,0.3,1.2,0.1c0.9-0.4,1.7-0.9,2.5-1.4c0.7-0.6,1.4-1.2,2.2-1.6c2.4-1.4,4.5-3.1,6.8-4.6
			c2.1-1.4,4.3-2.6,6.6-3.7c0.9-0.4,1.7-0.8,2.7-1c0.5-0.1,1.1-0.2,1.6,0c-0.2,0.4-0.5,0.6-0.8,0.7c-0.9,0.3-1.8,0.7-2.7,1
			c-0.3,0.1-0.6,0.2-0.8,0.6c0.7,0,1.3,0.1,1.8-0.2c0.7-0.5,1.4-0.5,2.2-0.4c1.1,0.2,2.2,0.3,3,1.2c0.4-0.5,0.9-0.9,1.3-1.4
			c0.2-0.3,0.5-0.5,0.8-0.7c0.2-0.1,0.4-0.1,0.5,0.1c0.1,0.1,0,0.3-0.1,0.4c-1.1,1.6-2.3,3-3.5,4.5c-1.4,1.5-2.8,3-4.3,4.5
			c-1.2,1.2-2.2,2.5-3.1,4c-0.3,0.5-0.5,1-0.6,1.5c-0.2,0.7,0.1,0.9,0.8,0.9c0.6,0,1-0.3,1.5-0.6c1.1-1,2.2-2,3.3-3
			c1.7-1.7,3.3-3.4,4.9-5.1c2.1-2.3,4.6-4,7.4-5.2c1.2-0.5,2.5-1,3.7-1.5c1.6-0.6,3.1-1.3,4.4-2.5c0.1-0.1,0.3-0.3,0.4-0.4
			c0.3-0.2,0.6-0.5,0.9-0.4c0.6,0.1,0.8-0.2,1.1-0.5c1.3-1.3,2.7-2.6,4.5-3.3c0.2-0.1,0.4-0.2,0.5-0.4c0.2-0.6,0.6-0.6,1.1-0.4
			c0.9,0.2,1.8,0.2,2.7,0.3c2.1,0.1,4.2,0.1,6.3-0.1c2.1-0.2,4.1-0.4,6.2-0.7c2.5-0.5,5-1.1,7.4-1.9c0.9-0.3,1.8-0.7,2.8-1
			c1.5-0.6,3.1-1.3,4.6-2c1.8-0.8,3.5-1.7,5.2-2.5c0.7-0.3,1.4-0.7,2-1.1c0.1-0.1,0.4-0.2,0.3-0.3c-0.1-0.6,0.3-0.6,0.7-0.7
			c0.3-0.1,0.5-0.3,0.7-0.5c0.3-0.3,0.6-0.5,0.9-0.6c1-0.3,1.9-0.8,2.8-1.2c3.3-1.4,6.5-3.1,9.7-4.8c0.7-0.4,1.3-0.8,2-1
			c1.6-0.3,2.7-1.3,3.7-2.4c0.8-0.8,1.6-1.6,2.3-2.5c1-1.2,2.1-2.3,2.9-3.7c0.7-1.1,1.2-2.3,1.4-3.6c0.3-1.2,0.3-2.5,0.3-3.8
			c0-0.2,0-0.4,0-0.7c0.1-0.3,0.2-0.6,0.5-0.6c0.4,0,0.4,0.3,0.4,0.6c0,1,0,1.9,0,2.9c-0.1,1.3-0.3,2.5-0.8,3.7
			c-0.7,1.6-1.6,3.1-2.8,4.4c-0.3,0.3-0.6,0.6-0.8,0.9c-0.2,0.2-0.5,0.5-0.3,0.8c0.2,0.4,0.6,0.2,0.9,0.2c0.2,0,0.4-0.2,0.6-0.3
			c0.2-0.1,0.4-0.2,0.7-0.3c2.9-0.4,5.4-1.8,7.7-3.7c1.4-1.2,2.4-2.7,3.4-4.2c1.2-1.9,2-4,2.2-6.2c0.2-2.8-0.1-5.6-1.3-8.3
			c-0.2-0.4-0.3-0.8-0.3-1.3c1.6,0.9,2,2.4,2.4,3.9c0.4,1.9,0.4,3.8,0.2,5.8c-0.1,0.9-0.3,1.8-0.5,2.7c-0.7,2.2-1.8,4.2-3.1,6
			c-1.2,1.6-2.6,2.9-4.3,3.9c-1.1,0.7-2.4,1.3-3.7,1.9c0.7,0.2,1.3,0.4,2,0.4c1,0,2,0.1,3,0.1c0.9,0.1,1.8,0.5,2.8,0.5
			c1.1,0,2.3,0,3.4,0.2c2.4,0.2,4.9,0.2,7.3,0.2c3.2,0,6.4,0,9.5-0.1c3.6-0.1,7.2-0.1,10.9-0.2c2.7-0.1,5.5-0.3,8.2-0.4
			c1.9-0.1,3.9-0.3,5.8-0.4c2.1-0.2,4.2-0.5,6.3-0.7c1.1-0.1,2.2-0.3,3.3-0.6c0.4-0.1,0.5-0.2,0.3-0.6c-0.6-1-1.2-1.9-1.6-3
			c-0.8-1.9-0.2-3.7,1.5-4.7c0.6-0.4,1.2-0.8,1.8-1.2c2.4-1.8,5-3.3,7.7-4.5c3.6-1.7,7.3-3.2,11-4.4c1.2-0.4,2.5-0.8,3.8-1.3
			c-0.6-0.2-0.4-0.6-0.2-0.8c0.3-0.3,0.5-0.8,0.8-1.1c1.5-1.7,3-3.5,4.5-5.1c2.4-2.5,5.1-4.6,8.1-6.5c2-1.3,4-2.4,6.1-3.3
			c2.2-0.9,4.6-1.7,6.9-2.5c0.3-0.1,0.6-0.3,0.9-0.2c0,0.2-0.1,0.2-0.2,0.3c-1.4,0.6-2.8,1.2-4.2,1.8c-3,1.2-6,2.7-8.7,4.4
			c-2.9,1.8-5.6,4-8,6.4c-1.2,1.2-2.2,2.5-3.3,3.7c-0.8,0.8-1.7,1.6-2.2,2.7c1.1-0.3,2.1-0.6,3.2-1c0.1,0,0.2-0.1,0.3-0.2
			c0.6-0.7,1.3-1.3,2-1.8c1.2-1,2.3-2,3.5-2.9c2.2-1.8,4.7-3.2,7.2-4.5c1.5-0.7,3-1.4,4.4-2.2c2.4-1.3,5-2,7.5-2.9
			c2.5-0.9,5.1-1.4,7.7-1.7c0.7-0.1,1.3-0.4,2-0.3c-0.1,0.3-0.3,0.3-0.5,0.4c-0.9,0.2-1.9,0.4-2.8,0.7c-2.5,1-5.2,1.5-7.8,2.5
			c-1.8,0.7-3.7,1.3-5.5,2.1c-1.4,0.7-2.7,1.4-4.1,2.1c-2.1,1.1-4.2,2.3-6.2,3.6c-1.2,0.8-2.2,1.8-3.3,2.7c-0.7,0.5-1.5,1-2.2,1.9
			c1.1-0.3,2-0.6,2.9-0.8c3-0.7,5.9-1.4,8.9-2c1.9-0.3,3.9-0.7,5.8-0.9c1.9-0.2,3.7-0.4,5.6-0.4c0.6,0,1.2-0.2,1.8,0.4
			c0.2,0.2,0.5,0.2,0.8,0.2c1-0.1,2,0,2.9,0.1c1,0,2.1,0.2,3.1,0.5c0.2,0.1,0.5,0.1,0.4,0.4c0,0.4-0.3,0.3-0.6,0.3
			c-0.7,0-1.3-0.1-2-0.1c-2.6,0-5.2-0.1-7.8-0.1c-0.7,0-1.4-0.2-2.2-0.2c-1.6,0.2-3.1,0.3-4.7,0.6c-2,0.4-4,0.8-6,1.1
			c-1.5,0.2-3,0.5-4.5,0.9c-1.9,0.5-3.7,0.9-5.6,1.4c-1.8,0.5-3.7,0.9-5.4,1.7c-2.5,1.1-4.9,2.2-7.5,3c-2.2,0.7-4.5,1.1-6.6,2
			c-1.2,0.5-2.4,0.9-3.4,1.6c-0.9,0.6-1.9,1.2-2.9,1.7c-1.5,0.7-2.6,1.9-3.6,3.1c-1.3,1.7-1.2,3,0.4,4.5c0.2,0.2,0.3,0.3,0.4,0.5
			c0.9,1.8,2.3,3.2,3.7,4.6c0.9,0.9,1.8,1.7,2.9,2.3c0.2,0.1,0.5,0.3,0.6,0.5c0.4,0.8,1.1,1,1.8,1.2c0.9,0.2,1.8,0.5,2.7,0.7
			c2.3,0.7,4.6,1.6,7,2.2c2.8,0.8,5.7,1.5,8.6,2.1c2.9,0.6,5.9,1.2,8.9,1.7c2.8,0.5,5.6,0.9,8.5,1.4c0-0.3-0.5-0.3-0.4-0.7
			c0.8-0.1,1.3,0.1,1.8,0.8c0.6,0.9,0.9,1.8,1,2.8c0.1,1.2,0.6,2.2,1.4,3c0.2,0.3,0.5,0.5,0.7,0.8c0.9,1.4,1.8,2.8,2.7,4.1
			c0.4,0.6,0.7,1.2,0.9,2c0.3,1.2,0.5,2.5,0.8,3.7c0.7,2.5,0.5,4.9-1.3,7c0,0,0,0.1-0.1,0.1c-0.1,0.2-0.3,0.4-0.1,0.6
			c0.2,0.2,0.4,0.1,0.6,0.1c0.8-0.2,1.6-0.6,2.1-1.4c0.4-0.6,0.8-1.2,1.1-1.9c0.4-1,0.6-1.9,0.7-3c0.1-1.4,0.4-2.7,0.1-4.1
			c-0.2-0.8-0.3-1.6-0.5-2.4c-0.5-2.1-1-4.1-0.9-6.3c0-0.5-0.2-1-0.6-1.4c-0.4-0.5-0.9-0.9-1.3-1.4c-0.5-0.6-0.9-1.2-1-2
			c0.3,0.2,0.6,0.4,0.8,0.6c0.9,0.7,1.5,1.7,2.4,2.3c0.1,0.1,0.2,0.3,0.2,0.4c-0.1,0.3,0.2,0.6,0.2,0.9c0,0.4,0.2,0.6,0.6,0.9
			c1.3,0.7,2.6,1.5,3.7,2.5c0.6,0.5,1.1,1.1,1.7,1.6c0.9,0.8,1.8,1.7,2.3,2.8c0.6,1.3,1,2.7,1.2,4.2c0.1,1,0.4,2,1.2,2.7
			c0.5,0.5,0.7,1.1,0.7,1.8c0,1-0.1,1.9-0.3,2.8c-0.1,0.5-0.2,1.1-0.1,1.6c0,0.2,0.1,0.6,0.5,0.6c0.3,0,0.5-0.2,0.6-0.4
			c0.3-0.6,0.7-1.2,0.8-1.9c0.4-1.7,0.7-3.5,0.7-5.3c0-0.7-0.2-1.3-0.2-2c0-1.4-0.2-2.8-0.4-4.2c-0.1-1.8-0.7-3.5-1.8-4.9
			c-1.4-1.8-3-3.4-4.9-4.8c-1.3-1-2.7-2-4.4-2.4c-0.2,0-0.4-0.2-0.3-0.4c0.1-0.3,0.3-0.3,0.5-0.3c0.3,0.1,0.5,0.1,0.8,0.2
			c0.9,0.4,1.8,1,2.7,1.6c1.7,1,3,2.5,4.4,3.8c2.1,1.9,3.3,4.3,3.7,7c0.5,3.4,0.6,6.8,0,10.2c0,0.2-0.1,0.5,0.1,0.7
			c0.5-0.6,1-1.2,1.4-1.9c0.6-1.2,0.5-2.5,0.3-3.7c-0.1-0.9-0.4-1.9-0.5-2.8c-0.2-1.5-0.3-3-0.4-4.5c-0.1-1.8-0.6-3.5-1.6-4.9
			c-1.3-1.8-2.7-3.6-4.4-5c-3.1-2.5-6.6-4.2-10.3-5.4c-2.8-0.9-5.6-1.7-8.4-2.5c-0.2-0.1-0.5-0.1-0.6-0.3c-0.3-0.7-1-1-1.5-1.4
			c-1.5-1.3-2.9-2.6-4.5-3.8c-1.4-1.1-3-1.9-4.2-3.2c-0.3-0.3-0.7-0.6-1.1-0.7c-1-0.1-1.8-0.5-2.7-0.9c-0.7-0.3-1.4-0.5-2.1-0.7
			c-2.7-0.7-5.5-1.4-8.3-1.4c-2.2,0-4.4-0.1-6.7,0.1c-0.6,0.1-1.3,0.2-1.9,0.2c-0.3,0-0.6,0-0.6-0.4c0-0.3,0.2-0.4,0.5-0.5
			c0.5-0.1,1-0.1,1.5-0.2c1.4-0.1,2.7-0.2,4.1-0.2c0.4,0,0.8-0.1,1.2-0.3c-0.1-0.2-0.2-0.3-0.4-0.3c-1.1-0.4-2.1-0.7-3.2-0.6
			c-0.3,0-0.6,0-0.9-0.1c-0.1,0-0.2-0.1-0.2-0.2c0-0.1,0.1-0.2,0.2-0.2c0.7,0,1.4-0.1,2.1,0c1.4,0.1,2.6,0.7,3.8,1.3
			c0.5,0.3,1,0.4,1.5,0.4c0.8,0,1.6,0,2.4,0.1c1.7,0.2,3.3,0.7,4.9,1.1c1.2,0.3,2.4,0.7,3.4,1.3c1.1,0.7,2.1,0.7,3.2,0.5
			c2.4-0.5,4.6-1.6,6.8-2.6c1.1-0.5,2.3-1.1,3.4-1.7c1.6-0.9,3.1-2,4.6-3c1-0.6,1.8-1.4,3-1.8c0.4-0.1,0.7-0.4,1-0.6
			c0.9-0.6,1.7-1.3,2.7-1.7c1-0.5,1.3-0.8,2.1-1.9c0.3-0.4,0.6-0.8,1.1-1.2c0.7-0.6,1.5-1.2,2-2.1c0.1-0.2,0.2-0.4,0.5-0.3
			c0.3,0.2,0.2,0.4,0.1,0.6c-0.3,0.5-0.6,1-1.1,1.3c-0.1,0.1-0.4,0.2-0.1,0.3c0.4,0.3,0.2,0.6,0,0.7c-0.5,0.4-0.9,0.9-1.5,1.2
			c-1,0.6-1.9,1.2-2.9,1.7c-1.6,0.8-3,2-4.5,3c-0.2,0.1-0.5,0.3-0.6,0.6c-0.3,0.3-0.1,0.6,0.3,0.7c0.5,0.1,0.9-0.1,1.3-0.2
			c1.9-0.4,3.8-1,5.6-1.8c2.1-1,4-2.1,6.1-3.1c0.3-0.2,0.6-0.3,0.9-0.6c0.8-1,1.9-1.8,2.8-2.7c0.1-0.1,0.2-0.2,0.1-0.3
			c-0.2-0.4,0.1-0.6,0.3-0.8c0.9-1,1.3-2.2,1.9-3.3c0.5-1,0.8-2,0.6-3.1c-0.1-0.4,0-0.8,0.1-1.1c0.7-2.2,1.2-4.5,2-6.7
			c0-0.1,0.1-0.2,0.3-0.2c-0.1,1.3,0,2.6-0.4,3.9c-0.2,0.6-0.3,1.2-0.4,1.7c-0.5,2.5-1.1,4.9-2.3,7.2c-0.3,0.5-0.4,1.1-0.6,1.6
			c0.3,0.1,0.4,0,0.5-0.1c1.8-0.9,3.7-1.5,5.5-2.2c1.1-0.4,2.2-0.8,3.3-1.1c0.4-0.1,0.5-0.2,0.3-0.6c-0.2-0.3-0.3-0.6-0.4-1
			c-0.6-1.7-0.4-3.4,0.3-5.1c0.7-1.8,1.6-3.3,2.7-4.3c-0.4,0.8-0.4,1.7-0.8,2.3c-0.6,0.9-1,1.9-1.3,2.9c-0.6,1.8-0.7,3.5,0.5,5.1
			c0.1,0.1,0.1,0.2,0.2,0.2c0.5,0.6,0.8,1.3,1.6,1.6c1,0.4,2,0.7,3,0.9c2.6,0.4,5.3,0.5,8,0.3c0.6,0,0.7-0.1,0.6-0.7
			c-0.1-0.9-0.1-1.7,0-2.6c0-1.6,0.5-3,1.1-4.4c-0.1,1.7-0.2,3.4-0.3,5.2c-0.1,0.8,0.1,1.6,0.5,2.3c0.2,0.4,0.4,0.8,0.5,1.2
			c0.2,0.6,0.4,1.2,1,1.6c0.7,0.5,1.4,1.1,2.3,1.3c0.1,0,0.2,0.1,0.3,0.2c1.2,0.7,2.4,1.2,3.8,1.5c1.1,0.3,2.2,0.3,3.3,0.5
			c1.5,0.3,3,0.3,4.4,0.3c1.5,0,3-0.1,4.4-0.3c1.6-0.2,3.2-0.5,4.7-1c0.8-0.3,1.7-0.6,2.5-0.8c2.1-0.6,4.2-1.2,6.2-1.9
			c2.9-1,5.8-1.8,8.7-2.3c0.7-0.1,1.4-0.2,2-0.6c1.6-1,3.4-1.2,5-1.9c1.1-0.4,2.3-0.6,3.5-0.9c3.2-0.9,6.4-1.9,9.6-2.7
			c4.7-1.1,9.3-2.5,13.7-4.5c1.6-0.7,3-1.7,4.2-2.9c1.3-1.3,2.3-2.8,3-4.5c0.3-0.8,0.7-1.5,1.2-2.1c0.2-0.2,0.8-0.5,0.5-0.9
			c-0.3-0.3-0.7,0-1,0.2c-1.2,0.8-2.5,1.1-3.8,1.6c-0.5,0.2-1,0.4-1.5,0.5c-2.8,0.6-5.7,1-8.6,1.1c-2.8,0.1-5.5,0.4-8.2,0.6
			c-1.7,0.1-3.3,0.4-5,0.6c-1.5,0.2-3,0.7-4.4,1c-2.8,0.7-5.6,1.2-8.4,1.6c-1.4,0.2-2.7,0.5-4,1.1C489.4,69.7,488.4,70.2,487.2,70.7
			z M212.5,133.9c-0.5,0.2-1.1,0.4-1.6,0.6c-1.2,0.5-2.5,0.8-3.6,1.5c-0.3,0.2-0.8,0.4-0.6,0.8c0.3,0.8-0.1,1.3-0.5,1.7
			c-0.6,0.7-1.2,1.5-1.8,2.3c-0.6,0.9-1,1.9-1.3,2.9c0.3-0.1,0.4-0.1,0.6-0.1c0.1-0.1,0.3-0.1,0.4-0.2c1.6-0.8,2.9-2,4.1-3.3
			C210,138.3,211.2,136,212.5,133.9z"/>
		<path d="M157.8,39.8c1,0.2,1.9,0.3,2.8,0.4c1.8,0.2,3.6,0.5,5.4,0.7c3.3,0.4,6.5,0.7,9.8,1.3c1.8,0.3,3.7,0.4,5.5,0.7
			c1.5,0.2,3.1,0.5,4.6,0.6c2,0.2,4,0.4,6.1,0.5c2.8,0.2,5.7,0.1,8.5,0.2c2.5,0,5.1-0.2,7.6-0.4c3.9-0.3,7.8-0.6,11.6-1.1
			c1.9-0.3,3.8-0.6,5.7-0.8c3-0.3,6-0.9,9-1.4c3.6-0.6,7.1-1.5,10.6-2.6c3.3-1.1,6.5-2.4,9.8-3.7c1.9-0.8,3.9-1.6,5.9-2.2
			c1.3-0.4,2.5-1,3.8-1.5c0.6-0.2,1.2-0.5,1.8-0.7c3.2-1.2,6.4-2.4,9.6-3.5c3.9-1.3,7.8-2.3,11.8-3.1c1.4-0.3,2.8-0.2,4.2-0.4
			c0.4,0,0.7-0.1,1.1-0.1c0,0.2,0,0.3-0.1,0.3c-1.6,0.3-3.1,0.9-4.7,1.2c-2.3,0.4-4.5,0.9-6.8,1.5c-3.3,0.9-6.5,2-9.7,3.2
			c-1.9,0.7-3.8,1.4-5.6,2c-1.4,0.5-2.8,1-4.2,1.6c-2.2,0.8-4.3,1.6-6.5,2.4c-1.9,0.7-3.7,1.6-5.5,2.2c-2.2,0.8-4.4,1.7-6.7,2.4
			c-2.7,0.9-5.4,1.5-8.2,2c-0.6,0.1-1.3,0.1-1.9,0.2c-2.1,0.2-4.1,0.6-6.2,0.8c-1.9,0.2-3.6,0.7-5.5,1c-1.5,0.3-3,0.4-4.5,0.5
			c-1.8,0.2-3.7,0.4-5.5,0.5c-0.9,0.1-1.8,0.2-2.7,0.2c-2,0.1-4,0.3-6.1,0.4c-3.2,0.1-6.4,0.1-9.6,0c-2.8-0.1-5.6-0.4-8.4-0.7
			c-2.3-0.3-4.5-0.6-6.7-1c-1.5-0.3-3.1-0.5-4.6-0.7c-2.5-0.3-5.1-0.7-7.6-1c-1.8-0.2-3.5-0.8-5.2-1.4c-0.6-0.2-1.2-0.2-1.8-0.4
			C158.2,40.1,158,40,157.8,39.8z"/>
		<path d="M489.2,51.8c-1.8,0.1-3.7-0.3-5.5-0.9c-1.4-0.4-2.6-1.3-3.5-2.4c-0.5-0.6-0.8-1.4-0.5-2.2c0.4-1.1,0.8-2.3,1.5-3.3
			c0.5-0.6,0.6-1.4,1.1-2c0.4-0.6,0.8-1.1,1.4-1.5c0.4-0.2,0.8-0.6,1.2-0.8c3.1-2,6.3-2.6,9.9-1.5c1.8,0.5,3.3,1.3,4.7,2.5
			c1,0.8,1.5,1.9,1.7,3.1c0.2,0.7,0,1.5-0.3,2.1c-0.4,0.8-0.9,1.7-1.6,2.4c-1,1-2,2.1-3.2,2.8C494,51.3,491.7,51.9,489.2,51.8z
			 M493.6,42.7c0.2,0,0.3,0,0.3,0c1.6-0.3,3.1-0.8,4.5-1.4c0.9-0.4,0.9-0.5,0.1-1.1c0,0-0.1-0.1-0.1-0.1c-2.3-1.5-4.8-2.6-7.6-2.3
			c-2.3,0.2-4.4,0.9-6.2,2.4c-0.2,0.2-0.4,0.3-0.4,0.6c0,0.5-0.2,0.8-0.6,1c-0.5,0.4-0.8,0.9-1.2,1.4c-0.3,0.4-0.2,0.6,0.3,0.7
			c0.1,0,0.3,0,0.4,0c1.2-0.2,2.4-0.4,3.6-0.6c0.1,0,0.3-0.1,0.3-0.2c0.2-0.4,0.7-0.5,1-0.7c1.5-1,3.6-1,5,0.1
			C493.2,42.6,493.4,42.8,493.6,42.7z M482.7,49.1c0.3,0.3,0.6,0.5,0.9,0.7c1.3,0.5,2.6,0.8,3.9,1c1.2,0.2,2.3,0.1,3.5,0
			c0.9-0.1,1.8-0.2,2.6-0.5c2.2-0.7,3.8-2.1,5.3-3.8c0.1-0.1,0.3-0.3,0.2-0.7c-0.7,0-1.5,0-2.2,0c-1.7-0.1-3.3,0-4.8,0.8
			c-1.3,0.6-2.6,1-4,0.6c-0.1,0-0.3-0.1-0.5-0.1C485.9,47.5,484.2,48,482.7,49.1z M493.4,45.4c1-0.2,1.9-0.2,2.8-0.2c1,0,2,0,3,0.1
			c0.4,0,0.7-0.2,0.9-0.6c0.4-0.9,0.3-1.7,0-2.6c-0.2-0.6-0.3-0.7-1-0.4c-1.2,0.6-2.4,1-3.6,1.3c-0.5,0.2-1.2,0.1-1.6,0.4
			C493.3,43.9,493.7,44.7,493.4,45.4z M486.3,44c-0.2-0.2-0.3,0-0.4,0c-1.2,0.2-2.5,0.5-3.8,0.3c-0.3-0.1-0.4,0.1-0.5,0.3
			c-0.2,0.6-0.5,1.2-0.7,1.7c-0.3,0.8-0.2,1.4,0.5,2c0.3,0.3,0.6,0.4,1,0.1c1-0.7,2.1-1.2,3.2-1.5c0.2-0.1,0.5-0.1,0.7-0.3
			C485.5,45.7,486,44.8,486.3,44z"/>
		<path d="M520.4,38.4c-1.5,0-3.1-0.3-4.6-0.5c-1.6-0.2-3-0.6-4.5-1.1c-1.2-0.5-2.3-1-3.5-1.4c-1.6-0.5-3.1-1.2-4.7-1.7
			c-1.2-0.4-2.4-1.1-3.6-1.4c-1.1-0.3-2.2-0.4-3.2-1.1c-1.2-0.7-2.7-0.8-4-1c-4.7-0.5-9.4,0.2-13.9,1.6c-1.8,0.5-3.4,1.5-4.6,2.9
			c-1.3,1.4-2.7,2.8-4,4.2c-1.3,1.3-2.8,2.4-4.4,3.3c-0.9,0.4-1.7,0.9-2.6,1.3c-0.4,0.2-0.8,0.3-1.2,0.4c-0.2,0.1-0.4,0-0.5-0.2
			c-0.1-0.2,0.1-0.3,0.3-0.4c1.2-0.8,2.5-1.6,3.7-2.3c1.7-0.9,3.1-2.2,4.6-3.4c0.1-0.1,0.2-0.2,0.3-0.3c0.9-1.5,2.2-2.5,3.5-3.6
			c1.2-1.1,2.5-1.9,4-2.4c1.4-0.5,2.8-0.8,4.2-1.2c2.2-0.5,4.4-0.9,6.7-0.8c0.9,0,1.9,0,2.8,0c2.4-0.1,4.8,0.4,7.1,1
			c2.2,0.6,4.3,1.3,6.4,2.2c1.7,0.8,3.3,1.5,4.9,2.5c1.4,0.8,2.9,1.4,4.5,1.7c2.4,0.5,4.9,0.9,7.3,1c0.1,0,0.3,0,0.4,0.1
			c0.2,0.1,0.3,0.2,0.3,0.3c0,0.2-0.1,0.4-0.3,0.4C521.3,38.4,520.8,38.4,520.4,38.4z"/>
		<path d="M73.9,39.6c2-0.8,4-0.9,6-1.2c3.8-0.6,7.6-1.1,11.4-1.5c2.7-0.3,5.3-0.6,8-0.7c2.1-0.1,4.2-0.2,6.3-0.4
			c1.2-0.1,2.4-0.1,3.6-0.1c2.9,0,5.7,0,8.6,0c2.9,0,5.8,0.1,8.7,0.3c0.6,0,1.3,0.1,1.9,0.2c-0.3,0.2-0.7,0.1-1,0.1
			c-1.6,0.1-3.1,0.2-4.7,0.2c-0.8,0-1.6,0.2-2.4,0.3c-0.5,0-1,0.1-1.4,0.1c-3.3-0.3-6.6-0.1-9.9-0.1c-1.2,0-2.4,0-3.6,0.1
			c-1.7,0.1-3.5,0.3-5.2,0.3c-2,0.1-3.9,0.2-5.9,0.5c-2.3,0.3-4.5,0.5-6.8,0.8c-2.2,0.3-4.3,0.5-6.5,0.9
			C78.7,39.7,76.4,39.6,73.9,39.6z"/>
		<path d="M181.1,80.6c-3.5,0.6-7.1,0.6-10.7,0.7c-2,0.1-4,0.1-6,0.1c-2.6,0-5.3-0.1-7.9-0.2c-2.2-0.1-4.5-0.2-6.7-0.4
			c-2.2-0.2-4.5-0.5-6.7-0.7c-1.6-0.2-3.3-0.4-4.9-0.6c-1.8-0.3-3.6-0.6-5.4-0.8c-1.6-0.2-3.2-0.6-4.8-0.9c-1.5-0.3-3-0.6-4.5-0.9
			c-1-0.2-1.9-0.4-3.1-0.7c0.9-0.2,1.5,0.1,2.2,0.2c1.7,0.2,3.4,0.7,5.1,0.8c2.1,0.2,4.1,0.6,6.1,0.8c2.1,0.3,4.2,0.7,6.3,1.1
			c1.5,0.2,3,0.4,4.5,0.5c1.1,0,2.1,0.2,3.2,0.3c0.8,0,1.5,0,2.3,0c1.4,0,2.7,0,4.1,0.1c2.8,0.1,5.7,0.1,8.5,0.2
			c2.5,0.1,5,0.1,7.6,0.1c1.9,0,3.7-0.1,5.6,0.1c1,0.1,2,0,3,0.1C179.6,80.6,180.4,80.3,181.1,80.6z"/>
		<path d="M219.8,74.3c0.3-0.3,0.6-0.3,0.9-0.4c0.9-0.1,1.7-0.6,2.6-0.6c0.3,0,0.6-0.1,0.9-0.3c0.7-0.5,1.5-0.6,2.3-0.7
			c4.5-0.4,8.9-0.6,13.4-0.4c2.7,0.2,5.5,0.4,8.2,0.8c1.7,0.3,3.3,0.7,4.9,1.4c0.2,0.1,0.4,0.2,0.6,0.3c0.3,0.1,0.5,0.4,0.3,0.7
			c-0.2,0.4-0.5,0.4-0.8,0.2c-0.3-0.1-0.7-0.3-1-0.5c-1.6-0.6-3.2-1-4.9-1.2c-2.2-0.2-4.5-0.5-6.7-0.6c-2-0.1-4-0.1-6-0.1
			c-2.3,0-4.6,0.1-6.8,0.4c-2.5,0.3-5,0.4-7.5,0.9C220.1,74.4,219.9,74.4,219.8,74.3z"/>
		<path d="M117.1,75.4c-2.2-0.6-4.5-1-6.7-1.7c-2.2-0.7-4.3-1.3-6.5-2.1c-1.4-0.5-2.8-1-4.1-1.6c-2.2-0.9-4.3-1.8-6.5-2.7
			c-1-0.4-1.9-0.9-2.9-1.2c-0.1,0-0.2-0.1-0.4-0.3c0.8-0.1,1.3,0.1,1.9,0.3c1.3,0.5,2.7,0.8,4,1.1c1.5,0.3,3,0.6,4.4,1.3
			c1.5,0.7,3.2,1.2,4.8,1.9c1.1,0.5,2.2,1,3.3,1.6c1.5,0.7,3.1,1.4,4.6,2c0.3,0.1,0.6,0.2,0.9,0.2c0.2,0,0.4,0,0.6,0.1
			C115.4,74.7,116.2,75.1,117.1,75.4z"/>
		<path d="M71.5,57.1c-2.8-1.3-5.5-3-8.3-4.2c-2.9-1.2-5.8-2.4-8.6-3.7c0.2,0,0.4,0,0.6,0c3.1,0.3,6.1,0.9,8.9,2.3
			c1.5,0.8,3.1,1.5,4.6,2.2c0.5,0.3,1,0.6,1.5,0.9c0.1,0.1,0.2,0.2,0.3,0.4C70.5,56,70.9,56.5,71.5,57.1z"/>
		<path d="M539,47c0,0.7-0.3,0.9-0.9,0.7c-0.3-0.1-0.6-0.3-0.9-0.4c-0.3-0.1-0.5-0.2-0.5-0.7c0-0.5,0.1-0.8,0.6-1
			c0.4-0.2,0.7-0.2,1,0.2C538.5,46.2,539.1,46.4,539,47z"/>
		<path d="M289.1,86.3c-0.2,0-0.2-0.1-0.3-0.2c-0.7-1.1-1.3-2.2-2-3.4c-0.1-0.1-0.2-0.3-0.2-0.4c-0.1-0.2-0.2-0.5,0.1-0.7
			c0.3-0.2,0.5,0.1,0.6,0.3c0.8,1.3,1.6,2.6,1.9,4.1C289.2,86.1,289.2,86.2,289.1,86.3z"/>
		<path d="M204.2,121.1c-0.5,0.6-1,0.7-1.5,0.9c-1.2,0.5-2.3,0.9-3.5,1.4c-0.2,0.1-0.4,0.3-0.6,0c-0.1-0.2,0.1-0.3,0.3-0.4
			C200.5,122,202.1,121.3,204.2,121.1z"/>
		<path d="M53.6,44.2c1.8-0.4,3.6,0,5.3-0.3C57.2,44.7,55.5,44.7,53.6,44.2z"/>
		<path d="M535.1,45.3c0.3,0.1,0.3,0.3,0.2,0.4c-0.2,0.4-0.5,0.8-0.4,1.3c0,0.2-0.3,0.4-0.5,0.2c-0.4-0.3-0.2-0.7-0.1-1.1
			C534.5,45.7,534.8,45.4,535.1,45.3z"/>
		<path d="M119.4,76c-0.3-0.1-0.7,0-1.1-0.3C118.8,75.5,119.1,75.7,119.4,76z"/>
	</g>
</g>
</svg>
