<?xml version="1.0" encoding="utf-8"?>
<!-- Generator: Adobe Illustrator 25.0.1, SVG Export Plug-In . SVG Version: 6.00 Build 0)  -->
<svg version="1.1" xmlns="http://www.w3.org/2000/svg" xmlns:xlink="http://www.w3.org/1999/xlink" x="0px" y="0px"
	 viewBox="0 0 566.9 283.5" style="enable-background:new 0 0 566.9 283.5;" xml:space="preserve">
<g id="Layer_1">
</g>
<g id="Layer_13">
</g>
<g id="Layer_12">
</g>
<g id="Layer_11">
	<g>
		<path d="M374.3,244.7c-4.6,0-9.1,0.1-13.7,0c-3.4-0.1-6.8,0-10.2-0.2c-5.8-0.3-11.6-1-17.2-2.4c-5.1-1.2-10.1-2.4-15.1-3.9
			c-5.2-1.6-10.2-3.5-15.1-5.7c-3.9-1.8-7.5-3.9-11.3-5.8c-3.3-1.7-6.6-3.3-10.3-4.2c-1-0.2-1.9-0.4-2.9-0.5c-3,0-6-0.1-9,0.1
			c-4.8,0.3-9.5,0.7-14.2,1.4c-4.5,0.7-8.3,2.5-11.7,5.5c-3.8,3.4-6.7,7.4-9.3,11.6c-2.7,4.3-4.7,8.9-6.3,13.8
			c-1.2,3.5-2.5,7-4.5,10.1c-1,1.7-2.2,3.2-3.6,4.6c-1.8,2-3.5,3.9-5.6,5.6c-3.9,3.1-7.9,6.1-12.7,7.8c-2.2,0.8-4.5,1.1-6.9,0.9
			c-1.8-0.2-3.6-0.3-5.3-0.7c-2.9-0.7-5.7-1.8-8.4-3.1c-1.5-0.7-3-1.5-4.4-2.3c-0.6-0.3-1.2-0.7-1.7-1.3c-0.2-0.3-0.6-0.5-1-0.7
			c-0.4-0.2-0.9-0.4-1.2-0.8c-1.4-1.5-3.1-2.7-4.7-4c-1.6-1.3-3.1-2.7-4.5-4.2c-0.6-0.6-1-1.4-1.5-2.2c-1-1.4-2.4-2.7-2.5-4.7
			c-1.3-2.9-1-6-1.2-9c-0.1-1.4,0.2-2.8-0.1-4.3c-0.1-0.3,0-0.6,0.1-0.8c0.1-0.7,0.4-1.3,0.2-2c-0.1-0.4,0.1-0.7,0.3-1
			c0.6-1.4,1.2-2.7,1.8-4c2.1-5,3.7-10.2,4.7-15.5c0.2-1.2,0.3-2.5,0.3-3.8c0-3.9,0-7.8,0-11.6c0-1.9-0.1-3.8-0.8-5.7
			c-0.7-1.8-2.3-3.2-4.4-3.3c-3.9-0.1-7.7,0.4-11.4,1.7c-4.1,1.5-7.9,3.5-11.8,5.5c-3.3,1.8-6.7,3.4-10,5.1
			c-4.4,2.2-8.9,4.5-13.5,6.4c-3.3,1.3-6.6,2.2-10.2,2.1c-2.1-0.1-4.1-0.1-6.2-0.4c-3-0.4-5.7-1.8-8.2-3.5c-1.4-1-2.6-2.1-3.7-3.4
			c-1.2-1.5-1.6-3.1-1.7-5c-0.2-3.9,0.8-7.5,2.4-11c2.5-5.4,5.4-10.6,9-15.4c3.2-4.3,6.5-8.4,10.1-12.3c5.3-5.7,11.3-10.4,17.9-14.6
			c2.9-1.8,5.8-3.6,8.5-5.8c0.7-0.6,1.3-1.2,1.8-1.9c0.6-0.9,0.8-1.8,0.7-2.9c-0.2-2.5-1.4-4.3-3.2-5.8c-2.2-1.9-4.8-2.9-7.6-3.5
			c-3.3-0.7-6.3-1.8-9.2-3.6c-1.8-1.1-3.4-2.5-4.7-4c-1.3-1.5-1.2-3.3-0.5-5.1c0.4-1,1.1-1.8,1.7-2.6c1.4-1.9,2.8-3.8,4.3-5.6
			c1.9-2.1,4.2-3.6,6.7-5c5.5-3,11.3-4.9,17.3-6.5c3.7-1,7.4-1.8,10.8-3.4c2.5-1.2,4.9-2.6,6.8-4.7c0.6-0.6,0.9-1.3,0.8-2.2
			c-0.1-1.3,0-2.5-0.2-3.8c-0.2-1.4-0.8-2.7-1.5-3.9c-1.3-2-2.8-3.6-4.7-5.1c-1.9-1.5-3.9-2.9-6-4.2c-1.4-1-2.8-2-4-3.2
			c-1-1-1.8-2.2-1.8-3.7c0-1.8,0.1-3.7,0.8-5.4c0.2-0.6,0.5-1.2,0.8-1.9c0.5-1.5,1.6-2.4,3.1-2.9c2-0.6,4.1-1.1,6.2-1.5
			c4.9-0.9,9.8-0.8,14.7-0.7c0.3,0,0.6,0,1,0c3-0.1,6,0.1,9,0.3c3,0.1,6,0.3,9,0.5c3.6,0.2,7.2,0.4,10.8,0.7
			c3.1,0.3,6.3,0.5,9.4,0.7c3.6,0.3,7.1,0.2,10.7,0.1c2.3-0.1,4.5,0,6.8-0.4c4.1-0.7,8-1.8,11.6-3.9c1.9-1.1,3.4-2.7,3.9-4.9
			c0.4-1.9,0.4-3.9-0.2-5.8c-0.3-0.9-1-1.5-1.7-2.1c-0.9-0.7-1.8-1.3-2.7-1.9c-0.8-0.5-1.5-1.2-2.2-1.8c-0.9-0.8-1.2-1.7-1.1-2.9
			c0.3-2.3,1.1-4.5,2.2-6.5c0.9-1.5,1.8-3,3.1-4.3c1.4-1.4,3-2.4,4.8-3.1c3-1.1,6.1-2.1,9.3-2.6c2.5-0.4,5.1-0.8,7.7-0.4
			c1.3,0.2,2.6,0,4,0.1c3.6,0.2,7.1,0.9,10.6,1.7c3.6,0.9,7.2,2,10.7,3.4c3.4,1.4,6.3,3.4,8.6,6.3c1.4,1.8,3,3.4,4.3,5.3
			c0.2,0.3,0.4,0.6,0.4,1c0,0.7,0.3,1.3,0.5,2c0.3,0.8,0.5,1.6,1.6,1.6c0.5,0,0.6,0.5,0.8,0.8c0.9,1.8,1.8,3.7,2.7,5.5
			c0.4,0.7,0.9,1.4,1.2,2.2c0.3,0.8,0.9,0.8,1.5,0.8c2-0.2,4-0.8,5.8-1.7c2.5-1.2,5-2.5,7.3-4c2.1-1.3,4-2.9,5.7-4.5
			c4.1-3.9,8.7-6.6,14-8.5c3.4-1.2,6.7-2.5,10.2-3.4c2-0.5,4.1-0.9,6.3-0.9c4.5,0,9,0,13.4,0c4,0,8,0.3,12,0.9
			c2.3,0.3,4.5,0.8,6.7,1.7c3.2,1.2,5.8,3.2,8.3,5.6c1.6,1.5,1.7,3.4,1.4,5.4c-0.3,1.9-0.8,3.7-1.7,5.5c-1.4,2.8-2.5,5.8-3.7,8.7
			c-1.6,4-4.2,7.3-7,10.5c-1.8,2.1-3.7,4.1-5.2,6.4c-0.9,1.4-1.3,3-1.1,4.6c0.1,0.4,0,0.8,0,1.2c0.1,2.2,1.1,3.9,2.7,5.4
			c3.5,3,7.3,5.5,11.6,7.4c2.5,1.1,5.1,1.6,7.8,1.6c5.1,0,10.2,0.1,15.4-0.1c4.5-0.1,9-0.7,13.4-1.7c5.2-1.2,10.2-2.9,15.3-4.3
			c3.7-1,7.4-1.9,11.2-2.2c1.5-0.1,2.9-0.1,4.4,0.1c1.3,0.2,2.7,0.1,4.1,0.3c5.9,0.6,11,3,15.3,7.2c1.5,1.5,3,3.1,4.3,4.8
			c2,2.6,3,5.4,2.5,8.7c-0.1,0.8,0,1.7-0.1,2.5c-0.1,3.2-1.2,6.1-2.6,8.9c-2.6,5.4-6.2,10.1-10.6,14.2c-1.2,1.1-2.5,2-3.8,2.9
			c-5.5,4-11.4,7.3-17.4,10.5c-10.5,5.5-21.3,10.5-32.3,15.1c-3.3,1.4-6.6,2.9-9.6,4.8c-3.6,2.2-6.9,4.8-9.5,8.3
			c-2,2.7-3,5.8-2.4,9.2c0.1,0.4,0.1,0.9,0.1,1.3c0.1,2.5,1.3,4.6,2.8,6.5c1.7,2.1,3.6,4.1,5.5,6c3,3,6.3,5.6,10,7.7
			c3.2,1.9,6.6,3.4,9.7,5.4c2.6,1.7,5.3,3.2,7.7,5.3c1.4,1.2,2.7,2.5,3.6,4.1c0.2,0.4,0.4,0.7,0.4,1.1c0.2,2.1,0.3,4.1,0,6.2
			c-0.3,2.1-1.5,3.8-2.9,5.3c-2.3,2.5-5.2,4.3-8.1,5.8c-5.4,2.8-11.1,4.9-16.9,7c-3,1.1-5.9,2.2-9,3c-4,1-8.1,1.9-12.2,1.8
			C381.8,244.7,378.1,244.7,374.3,244.7C374.3,244.7,374.3,244.7,374.3,244.7z M418.3,151.3c1-0.1,1.7-0.9,2.5-1.3
			c1.1-0.6,2.2-1.2,3.3-1.8c1.8-1,3.5-2.2,5.3-3.2c1.9-1.1,3.7-2.4,5.7-3.5c1.2-0.6,2.3-1.3,3.5-1.9c2-1,3.9-2.2,5.8-3.3
			c1.1-0.6,2.1-1.5,3.2-2c1.7-0.8,3.3-1.9,4.7-3.2c1.1-1,2.4-1.8,3.6-2.5c1.7-1,3.2-2.2,4.8-3.3c1.5-1.1,2.7-2.5,4.1-3.7
			c0.7-0.6,1.5-1.2,2.1-1.9c0.8-0.9,1.9-1.6,2.5-2.7c0.3-0.5,1-0.7,1.4-1.3c0.7-1.1,1.6-2,2.5-2.9c1.5-1.5,2.7-3.2,3.9-4.9
			c0.4-0.5,0.6-1.1,0.7-1.8c0.1-0.7,0.2-1.5,0.6-2.2c0.7-1.3,0.6-2.7,0.8-4.1c0.1-0.5-0.2-0.7-0.6-0.9c-1.6-0.8-1.8-1.7-0.6-3
			c0.2-0.3,0.3-0.5,0.1-0.7c-0.9-0.7-1.6-1.8-2.8-2.2c-1.1,1.6-2.2,1.9-3.3,1.1c-1.1-0.8-1.1-2-0.1-3.4c-2.6-1.5-4.4-4.3-7.5-5.2
			c-0.8,1.2-1.4,1.5-2.2,1.2c-0.4-0.1-0.7-0.4-0.9-0.8c-0.4-0.5-0.2-1.1-0.1-1.7c-1.6-0.5-3.2-0.7-4.9-0.8c-2-0.1-4,0.3-6.1,0.5
			c-0.6,0.1-1.3,0.2-1.9,0.4c-1.7,0.7-3.5,1.1-5.1,1.9c-0.8,0.4-1.6,0.7-2.4,1c-1,0.3-1.9,0.9-2.9,1.1c-1.2,0.3-2.4,0.8-3.6,1.2
			c-1.5,0.5-3,0.8-4.5,1.2c-0.6,0.2-1.3,0.5-1.9,0.5c-1.3,0-2.5,0.4-3.7,0.8c-1.5,0.4-3.1,0.4-4.6,0.6c-0.9,0.1-1.9,0.4-2.8,0.3
			c-1.5-0.1-2.9,0.1-4.4,0.3c-0.2,0-0.4,0.1-0.6,0.1c-1.4,0.1-2.8,0.3-4.2,0.2c-1.4,0-2.8,0.4-4.3,0.1c-1-0.2-2,0-3.1,0
			c-0.6,0-1.2,0.1-1.8,0.1c-1.6,0.1-3.3-0.1-4.9-0.2c-0.8-0.1-1.6-0.3-2.3-0.6c-0.9-0.4-1.8-0.8-2.8-1c-1.7-0.5-3.2-1.4-4.8-2.1
			c-0.2-0.1-0.4-0.3-0.6-0.4c-1.2-1.2-2.8-2.1-3.4-3.8c0-0.1-0.1-0.2-0.2-0.3c-0.8-0.6-1.1-1.5-1.5-2.4c-0.6-1.4-1.1-2.9-2.5-3.9
			c-0.4-0.3-0.6-0.6-0.8-1c-0.7-1.3-1-2.7-1.5-4.1c-0.4-1.3-0.1-2.6-0.1-3.9c0-1.1,0.5-2.2,1.3-3.1c1-1.2,1.9-2.4,3-3.6
			c1.1-1.2,2.1-2.5,3.5-3.4c1.5-1,2.6-2.2,3.4-3.7c0.2-0.4,0.5-0.8,0.8-1.2c2.4-2.1,2.9-4.9,3-7.9c0.1-1,0.9-4.9,1.4-5.7
			c0.5-0.8,0.8-1.6,1.1-2.5c0.5-1.3,0.1-1.9-1.2-2.5c-0.9-0.4-1.9-0.7-2.9-1.1c-1.1-0.5-2.3-0.8-3.5-1c-1.2-0.3-2.4-0.4-3.5-0.7
			c-2-0.6-4.1-0.7-6.2-1.2c-1.2-0.3-2.5-0.2-3.7-0.6c-2.7-0.7-5.3-1.4-8.1-1.8c-1-0.1-2-0.3-3-0.3c-1.3-0.1-2.6-0.1-3.9-0.3
			c-0.7-0.1-1.4,0.1-2.1,0c-1.2-0.3-2.5,0.1-3.7-0.3c-1.3,0.6-2.7,0-4,0c-1.2,0.1-2.4,0.2-3.6,0.3c-2.2,0.2-4.5,0.8-6.7,1.3
			c-1.3,0.3-2.5,0.8-3.7,1.4c-1.3,0.7-2.7,1.4-4,2c-1.1,0.5-1.9,1.2-2,2.6c-0.2,2-1.2,3.6-3.2,4.4c-1.1,0.5-2.3,0.7-3.5,1
			c-1.3,0.3-2.8,0.4-3.5,1.8c-0.1,0.2-0.4,0.4-0.6,0.6c-0.7,0.6-1.5,1.3-2.1,2c-1.6,2-3.7,3-6,4c-0.8,0.3-1.6,0.8-2.4,1
			c-1.1,0.3-2.2,0.7-3.2,1.1c-2,0.8-4.2,0.5-5.6-1c-0.3-0.4-0.6-0.7-1-1c-0.8-0.5-1.3-1.3-1.8-2.2c-0.7-1.4-1.6-2.6-2.8-3.6
			c-1.1-0.9-2.1-2.1-2.8-3.4c-0.2-0.3-0.2-0.7-0.7-0.5c-0.4,0.1-0.8-0.1-1.1-0.6c-0.3-0.5-0.1-0.9,0.2-1.2c0.2-0.2,0.5-0.3,0.4-0.7
			c-0.1-0.5,0-1-0.3-1.5c-0.4-0.7-0.5-1.5-0.5-2.3c0-0.9,0-0.9-1-1.1c-0.8-0.1-1.3-0.7-1.4-1.4c0-0.7,0.5-1.3,1.3-1.5
			c0.3-0.1,0.6,0.2,1,0c0-0.1,0.1-0.3,0.1-0.4c0.1-1.8-0.1-2-1.7-2.6c-0.1,0-0.2-0.1-0.3-0.1c-2.1-0.8-4.1-1.9-6.2-2.6
			c-2.6-0.8-5.2-1.4-7.8-2c-3.3-0.7-6.6-0.9-9.9-1c-0.9,0-1.8,0-2.6-0.1c-1.1-0.1-2.3-0.1-3.4,0c-1.3,0.1-2.6,0-3.9,0
			c-1.9,0.1-3.9,0.1-5.8,0.6c-2.6,0.7-5.4,1.1-7.9,2.1c-0.9,0.3-1.7,0.6-2.5,1.1c-1,0.6-1,1.2-0.1,1.9c0.2,0.2,0.4,0.3,0.6,0.4
			c1.3,1,2.7,1.7,3.9,2.7c1.3,1.1,2.3,2.5,3.2,3.8c0.1,0.1,0.1,0.3,0.2,0.4c0.7,1.6,1.5,3.1,1.5,4.9c0,0.1,0,0.2,0.1,0.2
			c0.2,0.7,0.2,1.5,0.1,2.2c-0.1,0.4-0.1,0.9-0.1,1.3c0,1.1-0.1,2.2-0.8,3.1c-0.1,0.2-0.2,0.4-0.2,0.5c-0.3,1.6-1.3,2.7-2.6,3.6
			c-0.7,0.4-1.2,1-1.6,1.8c-0.4,0.8-0.9,1.5-1.7,2c-0.3,0.2-0.5,0.4-0.7,0.7c-0.6,0.8-1.4,1.2-2.2,1.6c-1.3,0.5-2.6,1.1-4,1.5
			c-1.5,0.5-3,1.2-4.6,1.5c-1.3,0.2-2.5,0.9-3.8,1c-1.2,0.1-2.3,0.5-3.5,0.7c-1.5,0.3-3,0.8-4.6,0.8c-0.4,0-0.8,0.1-1.2,0.1
			c-1.2,0.1-2.5,0.3-3.7,0.2c-1.3-0.1-2.5,0.3-3.8,0c-0.1,0-0.2,0.1-0.3,0.1c-0.5,0.1-1,0.1-1.5,0c-0.4-0.1-0.7-0.2-1.1-0.1
			c-0.8,0.2-1.5,0-2.2-0.1c-0.2,0-0.5-0.1-0.7-0.1c-1.2,0-2.5,0.1-3.7-0.1c-1.3-0.2-2.5-0.2-3.8-0.2c-1.4,0-2.7-0.3-4-0.4
			c-1.3-0.1-2.6-0.6-4-0.8c-1.4-0.1-2.8-0.6-4.2-0.9c-1.3-0.2-2.7-0.1-4-0.4c-1-0.2-2.1-0.3-3.2-0.4c-1.1-0.1-2.2,0-3.3-0.2
			c-1.9-0.4-3.9-0.2-5.8-0.4c-0.2,0-0.4,0-0.6,0c-1.2,0.3-2.4,0-3.5,0.1c-1.3,0-2.5,0.1-3.8,0.3c-2.3,0.2-4.5,1.2-6.9,1.4
			c-0.3,0-0.6,0.2-0.9,0.2c-0.5,0.1-0.8,0.4-0.6,1c0.2,0.7,0.3,1.4,0,2.1c-0.1,0.3,0,0.6,0.2,0.8c0.8,1.1,1.7,2.2,2.8,3
			c0.9,0.7,1.9,1.4,2.7,2.1c0.5,0.5,1,1.1,1.4,1.6c0.9,1,2,1.8,3,2.8c0.8,0.8,1.5,1.6,2.4,2.3c0.6,0.5,1.1,1,1.4,1.6
			c0.3,0.6,0.7,1,1.2,1.5c0.9,1.1,1.5,2.4,2.1,3.7c0.2,0.3,0.3,0.7,0.2,1c-0.1,1.6,0.5,3.2,0.1,4.9c1.6,0.3,2.2,1,1.9,2
			c-0.1,0.4-0.3,0.7-0.7,0.9c-0.7,0.5-1.3,0-2.1-0.2c-0.2,1-0.9,1.6-1.2,2.4c-0.8,2.1-2.4,3.4-3.9,4.9c-0.4,0.4-0.9,0.6-1.3,1
			c-1.1,0.9-2.3,1.5-3.4,2.5c-0.2,0.2-0.6,0.4-1,0.5c-1.8,0.6-3.6,1.1-5.3,1.8c-0.3,0.1-0.7,0.2-1,0.2c-1.9,0.3-3.8,0.9-5.6,1.5
			c-1.5,0.5-3.1,0.8-4.6,1.3c-1.1,0.4-2.2,0.6-3.3,1.1c-1.1,0.5-2.2,0.9-3.3,1.3c-2.4,0.9-4.7,2-6.9,3.1c-0.9,0.5-1.8,1.1-2.4,2
			c-0.9,1.5-2,2.9-1.5,4.9c0,0.2,0,0.4-0.1,0.6c-0.1,0.5-0.1,1,0,1.4c0.1,0.4,0.2,0.7,0,1.1c-0.2,0.6,0.1,0.9,0.6,1
			c1.9,0.4,3.7,1,5.5,1.3c0.8,0.1,1.4,0.7,2.1,0.8c1.5,0.3,2.8,1.2,4.1,1.8c1.9,0.8,3.6,2,5.4,3c0.9,0.5,4.2,4,4.4,4.9
			c0.5,1.7,1.8,3.1,1.6,4.9c0.7,1.4,0.4,3,0.5,4.5c0.1,1.3-0.1,2.5-0.8,3.5c-0.2,0.3-0.3,0.5-0.4,0.9c-0.2,0.9-0.8,1.7-1.5,2.3
			c-1,0.9-2.1,1.7-3.3,2.3c-1.3,0.6-2.4,1.5-3.7,2.1c-1.5,0.7-3,1.4-4.6,2c-1.2,0.5-2.4,0.9-3.5,1.5c-0.6,0.3-1.2,0.5-1.8,0.7
			c-0.8,0.2-1.5,0.5-2.1,1c-1,0.7-2,1.4-3,2.2c-0.7,0.6-1.4,1.2-1.9,2c-0.7,1-1.4,2.1-2.3,3c-0.9,0.9-1.7,1.9-2.6,2.8
			c-0.7,0.6-1.3,1.3-1.9,2c-1.1,1.1-2.2,2.2-3.2,3.3c-0.1,0.1-0.2,0.2-0.4,0.3c-1.3,0.9-2.6,1.8-3.8,2.9c-1.6,1.5-2.9,3.2-3.6,5.4
			c-0.2,0.8-0.4,1.7-0.7,2.5c-0.9,2.6-1,5.4-1.1,8.1c-0.1,1.8-0.5,3.5-1.1,5.1c-0.6,1.7-0.7,3.4-0.7,5.1c0,1.2,0.1,2.5,0,3.7
			c0,1.2,0.1,1.4,1.3,1.8c2.2,0.7,4.5,1,6.8,1.2c1,0.1,1.9-0.1,2.9,0.1c1.2,0.2,2.4,0.2,3.5,0.1c1.2-0.1,2.5,0,3.7,0
			c2,0,3.7-0.4,5.6-1c1.1-0.4,2-1,3.1-1.2c1.1-0.3,2-0.8,2.9-1.3c1.9-1,4-1.8,5.9-2.7c0.4-0.2,0.9-0.4,1.2-0.7
			c0.3-0.3,0.8-0.6,1.2-0.8c2.4-1.2,4.6-2.8,6.8-4.4c1.4-1,2.8-2.1,4.2-3.1c0.9-0.6,1.9-1.1,2.8-1.8c1.3-1,2.9-1.6,4.5-1.9
			c1.6-0.4,3.3-1,5-0.5c0.1,0,0.3,0,0.5,0c1.2-0.2,2.5-0.1,3.7,0c1.9,0,3.6,1.2,5.3,1.9c0.4,0.1,0.7,0.5,0.9,0.8
			c0.9,1.2,1.9,2.1,3.1,2.9c0.9,0.6,1.5,1.5,1.8,2.5c0.4,1.4,1,2.8,1.3,4.3c0.3,1.6,0.2,3.2,0.5,4.9c0.1,0.5-0.1,1-0.1,1.5
			c0,2.4,1,4.6,1.3,6.9c0.2,1.6,0.5,3.2,0.5,4.9c0,1.3,0.4,2.5,0.1,3.8c0.5,1.5-0.2,2.9-0.2,4.3c0,1.2-0.8,2.1-1.2,3.2
			c-0.9,2.4-2.2,4.6-2.8,7.1c-0.4,1.6-0.5,3.1-0.5,4.7c0,1.4,0.1,2.9,0,4.3c-0.1,0.9,0,1.8,0.1,2.7c0.1,1.1,0.4,2.2,1.4,2.9
			c0.1,0.1,0.2,0.2,0.3,0.4c0.6,1.5,2,2.3,3,3.5c1-1.1,1.4-1.2,2.1-0.7c0.7,0.6,0.7,1.1-0.2,2.3c0.5,0.5,1.2,0.7,1.7,1.3
			c1.1,1.3,2.5,2.4,4.1,3.3c0.3,0.2,0.5,0.4,0.7,0.6c0.9,0.9,1.7,2,2.4,3.1c0.4,0.6,0.9,1.1,1.6,1.3c0.5,0.2,0.9,0.3,1.4,0.4
			c1.9,0.5,3.8,0.6,5.7,0.9c1.3,0.2,2.6,0.1,3.9,0.4c1,0.2,2,0.2,3,0.3c0.6,0,1.1-0.1,1.7,0c0.9,0.2,1.8,0.1,2.7-0.2
			c1.5-0.5,3-1.3,4.4-2.1c2-1,3.7-2.4,5.6-3.6c1.3-0.8,2.3-1.9,3.4-2.8c1.1-0.9,2-2,2.7-3.3c1-1.9,1.8-4,2.9-5.8
			c0.1-0.2,0.2-0.4,0.2-0.6c0.1-1.5,0.4-2.9,0.7-4.3c0.4-2,0.8-4,1.5-5.9c0.4-1.1,0.9-2.2,1.5-3.2c1.1-1.8,2.2-3.5,3.5-5.1
			c0.5-0.6,1-1.2,1.5-1.9c0.5-0.7,1.1-1.4,1.7-2c1.5-1.6,3.2-3,5-4.2c0.7-0.5,1.3-1.1,2-1.5c1.7-1.1,3.4-2.3,5.2-3.3
			c0.8-0.5,1.6-1.1,2.4-1.5c1.7-0.7,3.4-1.5,5.2-2.1c0.9-0.3,1.7-0.6,2.6-0.9c1.9-0.7,3.8-1.3,5.8-1.8c1.7-0.4,3.5-0.8,5.2-1.2
			c2.5-0.6,5.1-1,7.6-1c1.1,0,2.2,0,3.3,0c2.2,0,4.3,0.2,6.5,0.5c0.9,0.2,1.9,0.1,2.8,0.5c1,0.4,2.2,0.6,3.2,0.8
			c1.2,0.2,2.3,0.7,3.4,1c1.6,0.5,3.2,0.9,4.8,1.3c4.2,0.9,8.3,1.7,12.1,3.7c2,1,4.1,1.5,6.1,2.7c0.5,0.3,1.2,0.6,1.8,0.8
			c1.3,0.4,2.5,1,3.7,1.7c0.9,0.5,1.7,1,2.6,1.4c1,0.6,2.2,0.9,3.3,1.4c1.2,0.7,2.6,1.1,4,1.4c1.7,0.3,3,1.2,3.7,2.7
			c0.4,0.8,0.9,1,1.7,1c1.5,0,2.9,0,4.4,0.1c1.7,0.1,3.5,0.3,5.2,0.5c0.9,0.1,1.9,0,2.8,0.2c1.3,0.3,2.7,0.4,4,0.6
			c1.6,0.2,3.3,0.1,5,0.3c1,0.1,2,0,2.9,0.2c1.1,0.1,2.3,0.3,3.4,0.3c0.8,0,1.7,0.2,2.5,0.1c1.3-0.3,2.5,0.1,3.8,0.1
			c1.6-0.1,3.1,0.2,4.7,0.1c0.3,0,0.6,0,0.8,0.1c0.5,0.1,1.1,0.1,1.6,0.1c1,0,2-0.1,2.9,0c1.9,0.3,3.8-0.2,5.7-0.3
			c1.2-0.1,2.4-0.3,3.6-0.5c0.9-0.2,1.8-0.5,2.8-0.5c1.6-0.1,3.2-0.2,4.9-0.2c0.6,0,1.1-0.3,1.6-0.3c1.4,0,2.8-0.5,4.2-0.6
			c2.2-0.2,4.2-1.2,6.3-1.6c0.8-0.1,1.7-0.3,2.4-0.6c1.1-0.4,2.2-0.7,3.3-1c2.5-0.8,4.6-2.1,6.5-3.8c1.9-1.7,4.1-3.2,5.9-5
			c1-1,2-1.9,2.8-3c0.7-1.1,0.7-1.4-0.2-2.4c-0.2-0.2-0.4-0.3-0.5-0.5c-0.8-0.6-1.8-1-2.7-1.5c-1.2-0.6-2.5-1-3.5-1.7
			c-1.2-0.8-2.4-1.4-3.7-1.9c-1-0.4-2.1-0.6-3-1.2c-0.7-0.5-1.4-0.8-2.1-1.2c-2.4-1.3-4.9-2.7-7.1-4.3c-2.4-1.8-5.2-3.3-7.4-5.4
			c-0.5-0.5-0.9-1-1.5-1.3c-1.7-1-2.6-2.7-3.8-4.2c-0.6-0.9-1.2-1.8-1.9-2.6c-1.2-1.3-2.2-2.8-3.5-4.1c-0.4-0.4-0.6-0.9-0.8-1.4
			c-1-2.1-1.5-4.3-2.1-6.4c-0.6-2-0.3-4.1,0.3-6.1c0.4-1.1,0.9-2.3,1.6-3.3c0.2-0.3,0.3-0.5,0.1-0.9c-0.4-0.7-0.2-1.3,0.5-1.5
			c0.9-0.2,1.4-0.8,1.8-1.6c1-1.6,2.4-2.9,3.9-3.9c2.3-1.4,4.6-2.6,7-3.9c0.2-0.1,0.4-0.3,0.5-0.6c-1.4,0.1-2.4-0.6-2.4-1.7
			c0-0.9,0.9-1.8,1.8-1.7c0.5,0,0.9,0.3,1.2,0.7c0.7,0.7,0.4,1.4,0.1,2.4c1.2-0.6,2.1-1.3,3-1.9c1.8-1.3,3.8-2.2,5.6-3.4
			C415.2,153.3,416.8,152.5,418.3,151.3L418.3,151.3z"/>
		<path d="M250.7,160.2c0.8-0.7,1.5-1.3,2.3-1.9c2.2-1.7,4.8-2.6,7.6-3c3.3-0.4,6.1,0.5,8.4,3c0.6,0.7,0.6,0.7,1.5,0.4
			c2.2-0.8,4.5-1.1,6.8-1.2c2.2-0.1,4.2,0.6,6.1,1.8c0.7,0.4,0.7,0.5,1.2-0.2c0.8-1.3,2-2.1,3.2-3c0.5-0.3,1-0.4,1.6-0.6
			c2.1-0.6,4.1-0.7,6.3-0.3c2,0.4,4,0.7,5.9,1.4c2,0.8,3.9,1.7,5.6,3.1c1.8,1.5,3.3,3.1,5,4.7c1.9,1.7,4,3.2,5.8,5
			c1.1,1.1,1.9,2.4,2.4,3.8c0.5,1.4,0.6,3,0.6,4.5c0,3.1-2.5,4.9-5.4,4.3c-1.1-0.3-2.2-0.5-3.3-0.8c-0.6-0.1-1-0.5-1.5-0.8
			c-1.3-0.9-2.5-2-3.8-3c-0.2-0.2-0.4-0.4-0.8-0.4c0,0.7,0,1.3,0,2c0,2.3-0.4,4.6-1.2,6.7c-1,2.6-2.9,4.3-5.6,5.1
			c-2.1,0.6-4,0.6-6.1,0c-2.5-0.7-5.1-1.4-7.4-2.7c-1.3-0.8-2.5-1.9-3.7-2.9c-0.1-0.1-0.2-0.2-0.4-0.3c-2.4,2.7-5.1,4.7-8.8,4.9
			c-3.6,0.2-6.8-0.7-9.6-3.1c-0.6,0.8-1.2,1.5-1.9,2.1c-2.4,2.1-5.3,2.7-8.3,2.2c-3.2-0.6-5.7-2.3-7.9-4.6c-2-2.1-3.4-4.4-4.5-7
			c-0.1-0.2-0.2-0.5-0.5-0.6c-0.4,0.3-0.4,0.8-0.7,1.2c-1.7,2.5-3.9,4-7.1,3.9c-3-0.1-5.7-0.9-8.2-2.6c-2.1-1.6-3.6-3.6-4.3-6.1
			c-0.4-1.5-0.7-2.9-0.7-4.5c0-0.8-0.1-1.6-0.1-2.4c0-0.4-0.3-0.5-0.6-0.4c-0.3,0-0.5,0.2-0.4,0.4c0.1,0.9-0.1,1.8-0.2,2.7
			c-0.2,3.8-0.9,7.6-2.4,11.2c-0.8,1.9-2,3.3-3.6,4.5c-3.5,2.7-7.4,2.8-11.3,1.3c-1.9-0.7-3.5-2.1-4.8-3.9c-2.6-3.6-3.6-7.6-3.1-12
			c0.3-2.2,0.7-4.4,1.4-6.5c0.7-1.9,1.6-3.6,2.7-5.2c0.1-0.2,0.2-0.4,0.4-0.6c-0.3-0.5-0.8-0.5-1.3-0.6c-0.4,0-0.9,0-1.3,0
			c-1.8,0.3-1.8,0.3-1.5,2.1c0.4,2.2-1,5-3.5,5.5c-2.2,0.4-5.1-0.6-6.3-2.5c-1-1.5-1.7-3.2-1.8-4.9c-0.1-2.1,0.4-4.1,1.4-6
			c1.4-2.6,3.7-4,6.4-4.8c2.3-0.7,4.7-1.1,7.1-0.9c4.5,0.4,8.4,2,11,6.1c0.7,1,0.9,2.2,1.3,3.3c0.2,0.6,0.3,1.2,0.4,1.7
			c0.1,0.1,0.3,0,0.4,0c1.5-1.7,3.5-2.4,5.7-2.7c2.6-0.5,5.2-0.4,7.8,0.4c1.4,0.4,2.6,1.1,3.7,2c0.4,0.3,0.6,0.4,1,0
			c2.5-2.7,5.9-3.5,9.3-4.1c0.4-0.1,0.9-0.1,1.3-0.2c2.3-0.3,4.7-0.1,6.8,0.8c2.2,0.8,3.8,2.4,5,4.5
			C250.3,159.6,250.4,160,250.7,160.2z M267.8,166.6c-0.2-1-0.4-2-0.7-3c-0.4-1.8-2-3.9-4.6-4.2c-0.7-0.1-1.3,0-2,0.1
			c-2.2,0.3-4.1,1.2-5.8,2.6c-2.1,1.8-2.9,4.4-1.9,7c0.8,2,1.8,3.8,3,5.6c1.5,2.3,0.9,4.6,0.2,6.9c-0.2,0.8-0.5,0.8-1.4,0.8
			c-0.7,0-1.3-0.3-1.9-0.7c-1.5-1-2.6-2.3-3.5-3.8c-0.8-1.3-1.5-2.7-1.6-4.2c-0.1-1.2-0.2-2.4-0.2-3.5c0-2.2-0.1-4.3-0.5-6.5
			c-0.5-3-3.1-5.3-6.2-5.3c-1.2,0-2.4,0.1-3.6,0.2c-1.8,0.2-3.5,0.6-5,1.5c-1.4,0.8-2.4,1.9-2.8,3.6c-0.5,1.9,0.3,3.7,0.9,5.3
			c0.6,1.4,1.1,2.9,1.7,4.3c0.3,0.5,0.3,1.1,0.3,1.7c0,0.6-0.3,0.9-0.9,0.8c-2.6-0.1-4.6-1.7-4.8-4.5c-0.1-0.9-0.2-1.9-0.1-2.8
			c0.1-1.6-0.3-3.1-0.9-4.6c-0.1-0.3-0.2-0.6-0.3-0.7c-1.1-1-2.2-2.1-3.7-2.6c-2.5-0.8-4.9-0.6-7.4,0c-1,0.3-1.8,0.9-2.3,1.7
			c-0.4,0.6-0.6,1.2-0.9,1.8c-0.9,2-0.7,4.2-0.8,6.3c-0.2,2.7-0.5,5.5-1.5,8.1c-0.2,0.5-0.4,1.1-0.8,1.6c-0.8,1-2,1-3.1,1.2
			c-0.9,0.1-1.8-0.3-2.4-0.9c-1.4-1.4-2.3-3.1-2.4-5.1c-0.2-2.1,0.2-4.1,0.7-6.1c0.4-1.9,1.4-3.5,2.5-5.1c0.8-1.1,1.4-2.4,1.5-3.7
			c0.2-2.9-0.9-5.3-3.6-6.9c-1.8-1-3.6-1.5-5.7-1.5c-1.5,0-2.9,0.3-4.4,0.6c-1.2,0.3-2.4,0.8-3.3,1.6c-2,1.7-2.5,4.6-1.5,7
			c0.4,0.9,1,1.3,1.8,1.6c0.5,0.2,1-0.2,0.9-0.7c0-0.2-0.2-0.4-0.2-0.5c-0.8-1.7-0.2-3.3,0.7-4.7c0.1-0.2,0.4-0.3,0.6-0.4
			c1.5-1,3.2-1.2,4.9-1.3c2-0.2,3.9,0.3,5.4,1.7c1.2,1.1,1.7,2.8,1.1,4.3c-0.3,0.9-0.9,1.6-1.4,2.4c-1.7,2.7-2.7,5.6-3,8.8
			c-0.3,2.5-0.1,4.9,0.9,7.2c1.4,3,3.3,5.1,6.9,5.2c3.1,0.2,5.4-1.1,6.8-4c1.2-2.4,1.6-5.1,1.9-7.7c0.2-1.5,0.2-3,0.2-4.5
			c0-1.2,0.3-2.4,0.8-3.5c0.4-0.8,1-1.1,1.8-1.2c1-0.1,2.1-0.2,3.1-0.1c2.1,0.1,3.3,1.3,3.7,3.3c0.3,1.5,0.3,3,0.3,4.5
			c0.2,3.1,1.5,5.5,4.3,7.1c1.5,0.9,3.2,1.1,4.9,1.2c1.5,0.1,2.4-0.7,3-1.8c0.8-1.4,1-3.1,0.6-4.7c-0.4-1.6-1.1-3-1.7-4.4
			c-0.4-1-0.9-1.9-1.1-3c-0.3-1.1-0.1-1.6,0.9-2.2c0.3-0.2,0.5-0.3,0.8-0.4c1.9-0.6,3.8-0.8,5.8-0.8c1,0,1.8,0.7,2,1.6
			c0.1,0.7,0.3,1.3,0.3,2c0.2,1.8,0.2,3.7,0.2,5.6c0,1.8,0,3.7,0.7,5.4c1.3,3.3,3.1,6.3,6.2,8.4c1.5,1,3.1,1.7,4.9,1.6
			c2-0.1,3.5-1,4.5-2.7c0.8-1.4,1.1-3,1.2-4.7c0-0.7,0.3-1.4,0.2-2.1c-0.2-1.9-0.8-3.6-1.9-5.2c-0.9-1.3-1.7-2.7-2.3-4.2
			c-0.4-0.9-0.2-1.5,0.5-2.1c1.1-1,2.5-1.5,4-1.8c0.8-0.2,1,0,1.3,0.7c0.2,0.7,0.4,1.4,0.5,2.1c0.1,2.1,0.2,4.3,0.2,6.5
			c0.1,2-0.1,4,0.4,5.9c0.4,1.7,1.1,3.2,2.3,4.4c1.4,1.3,3.3,1.9,5.2,2c2.3,0.2,4.2-0.6,5.8-2.2c2.3-2.1,2.9-5.2,0.9-7.7
			c-1.1-1.3-2.3-2.5-3.5-3.8c-0.8-0.8-1.5-1.6-2-2.6c-0.6-1.1-0.5-1.5,0.6-2.1c1.4-0.8,3-0.8,4.5-0.7c0.8,0,1.4,0.7,1.5,1.3
			c0.1,0.8,0.3,1.5,0.4,2.2c0.4,3.7,1.6,7.1,3.7,10.2c1.2,1.7,2.7,3.1,4.5,4.2c2.1,1.2,4.5,1.9,6.8,2.5c1,0.3,2,0.3,2.9,0
			c1.8-0.6,3.1-1.6,3.6-3.6c0.5-2,0.6-3.9,0.6-5.9c0-2.3-1-4.4-2.5-6.1c-1.6-1.8-3.4-3.3-5-5c-0.7-0.7-1.5-1.4-1.9-2.5
			c1.2,0.2,2.2,0.3,3.2,0.5c2.9,0.6,5.4,1.8,7.4,3.9c1.1,1.1,2.1,2.1,3.2,3.2c1.3,1.3,2.8,2.2,4.1,3.4c0.8,0.7,1.6,1.4,2.5,2
			c0.7,0.4,1.4,0.7,2.1,0.6c0.5-0.1,1,0,1.3,0.4c0.2-0.5-0.3-0.8-0.1-1.2c0.5-1.5-0.2-2.8-1.1-3.7c-1.3-1.4-2.7-2.6-4.2-3.7
			c-0.8-0.5-1.4-1.1-2.1-1.8c-1.5-1.5-3-3.1-4.7-4.4c-1.3-1.1-2.9-1.8-4.5-2.5c-1.7-0.7-3.4-0.9-5.2-1.2c-1.3-0.2-2.5-0.3-3.8,0.1
			c-1.5,0.4-2.6,1.3-3,2.8c-0.5,1.9,0.1,3.7,1.4,5.2c2,2.3,4.2,4.3,6.3,6.4c0.6,0.6,1.1,1.3,1.4,2.1c0.7,2,0.5,4,0,6
			c-0.2,0.7-0.6,0.6-1.1,0.5c-1.6-0.3-3.1-0.8-4.5-1.4c-0.7-0.3-1.3-0.6-1.9-1.1c-2.2-1.7-3.5-4-4.3-6.6c-0.6-1.9-0.9-3.9-1.1-5.9
			c-0.5-3.3-2.6-5.2-5.9-5.6c-1.9-0.3-3.8,0.1-5.6,0.7C270.3,163.2,268.7,164.4,267.8,166.6z M206.2,167.9c-0.1,0-0.2-0.1-0.3-0.1
			c-0.1,0.1-0.1,0.2-0.2,0.3c-1.2,2.1-1.4,4.4-1.4,6.8c0,0.5,0.2,1,0.8,1.4C206,173.5,206.1,170.7,206.2,167.9z M239.3,168
			c0-0.5-0.1-0.8-0.1-1.1c0-0.3-0.1-0.5-0.4-0.4c-0.3,0.1-0.2,0.3-0.1,0.5C238.8,167.3,238.9,167.6,239.3,168z"/>
		<path d="M356.7,121.1c-1.5,0.9-3.2,1.2-5,1.5c-2.8,0.5-5.4-0.2-7.7-1.9c-1.5-1.1-2-2.8-2.2-4.5c-0.1-1-0.1-1.1-1.1-0.8
			c-2.1,0.6-4,0.4-5.9-0.5c-3-1.3-4.7-3.7-5-6.9c-0.1-0.9,0.1-1.7,0.2-2.6c0-0.2,0-0.3,0-0.5c-0.3-0.1-0.5,0.1-0.6,0.3
			c-1.4,1.5-3.1,2.3-5,2.5c-1.5,0.2-2.9-0.2-4.3-0.9c-1.9-1-3.4-2.4-4.8-4.1c-1.2-1.4-2.2-2.8-2.9-4.5c-0.6-1.5-0.9-2.9-0.4-4.5
			c0.4-1.2,0.5-2.5,1.1-3.9c-0.9,0.2-1.7,0.5-2.4,1c-0.2,0.1-0.3,0.4-0.3,0.6c0,0.6,0,1.2,0,1.8c0,1.4-0.2,2.8-0.6,4.1
			c-0.4,1.3-1.3,2.2-2.5,2.7c-2.6,1.1-5.3,0.2-6.6-2c-0.6-0.9-0.7-2-0.8-3c-0.1-1.1-0.3-2.2-0.4-3.3c-0.2-2.6,0.3-4.9,1.9-7.1
			c1.8-2.5,4.3-3.9,7.1-4.9c2.8-1,5.8-1.5,8.8-1.5c2.5,0,4.7,0.8,6.6,2.4c1.3,1.1,2.1,2.6,2.3,4.3c0,0.3,0,0.6,0.2,1
			c0.5-0.3,0.9-0.6,1.4-0.8c3.4-1.7,6.8-2,10.4-0.8c2.6,0.8,4.5,2.3,6,4.5c0.6,0.8,0.9,1.7,1.2,2.7c2.5-1.3,5.1-1.9,7.8-2
			c3.1-0.2,6.1,0.2,8.7,2.1c1.7,1.2,2.8,2.8,3.4,4.9c0.5,1.8,0.5,3.6-0.1,5.4c-0.1,0.3-0.1,0.5-0.2,0.8c-0.1,0.4,0,0.7,0.5,0.7
			c0.5,0,1,0,1.4-0.1c2.2-0.4,4.3-0.4,6.3,0.4c1.2,0.4,2.1,1.1,2.9,2.1c1.5,1.9,2.1,4.2,2.6,6.5c0.3,1.5,0,2.9-0.3,4.3
			c-0.2,0.6-0.1,0.9,0.6,1.1c1.1,0.3,2,0.8,3.2,1.1c2.2,0.4,3.3,2.7,3,4.7c-0.2,1.7-1.1,2.9-2.7,3.6c-0.6,0.3-1.1,0.7-1.7,1.1
			c-0.5,0.4-1.1,0.7-1.7,0.8c-2.6,0.7-5.3,1.1-8,0.7c-1.3-0.2-2.7,0-4.1-0.3c-1.8-0.3-3.6-0.4-5.4-1.2c-2.3-1-3.6-2.7-4.3-5.1
			C357.1,122.4,357.1,121.8,356.7,121.1z M368.9,120.4c1.5-1,2.8-1.8,3.9-2.9c1.5-1.4,2.1-3.1,1.7-5.1c-0.2-1.1-0.6-2.2-1.2-3.2
			c-0.9-1.5-2.3-2.2-4-1.9c-0.4,0.1-0.8,0.1-1.2,0.1c-1,0.1-2,0.1-3,0.3c-2.3,0.6-4.4,1.5-6.5,2.6c-1.9,1-3.7,2.1-5.7,3
			c-0.5,0.2-1.1,0.8-1.9,0.5c1.4-1.5,2.8-2.9,4.4-4.1c0.8-0.6,1.5-1.4,2.3-2.1c2-2.1,2.9-4.7,3.7-7.4c0.6-2.3-0.5-4.7-2.8-5.7
			c-0.9-0.4-1.7-0.5-2.6-0.6c-2.4-0.4-4.7,0-6.9,0.8c-1,0.3-1.8,0.9-2.5,1.7c-1,1.1-1.4,2.5-2,3.8c-0.9,1.9-1.7,3.8-2.9,5.6
			c-0.7,1.1-1.7,1.7-2.8,2c-0.6,0.2-0.8,0-0.9-0.7c-0.1-0.6,0.1-1.3,0.2-1.9c0.2-1.4,0.6-2.7,1.1-4c0.6-1.3,1.3-2.5,2-3.8
			c1-1.9,0.8-3.8-0.1-5.6c-1-2.2-3-3.1-5.1-3.6c-1.2-0.3-2.4-0.2-3.7,0c-2,0.4-3.6,1.3-4.6,3.2c-0.6,1.1-0.8,2.3-1.1,3.5
			c-0.4,1.8-1.1,3.5-2.2,5c-0.5,0.7-0.6,0.8-1.3,0.3c-1.4-1-2.6-2.3-3.7-3.7c-0.5-0.7-0.6-1.5-0.4-2.4c0.2-0.8,0.6-1.6,1-2.3
			c0.6-1.3,1.4-2.5,1.8-3.9c0.7-2.2,0.3-3.3-1.4-4.4c-0.8-0.5-1.8-0.8-2.8-0.8c-1.2,0-2.5,0.1-3.7,0.3c-2.8,0.3-5.5,1.2-7.7,3
			c-1.3,1-2.2,2.4-2.3,4.1c-0.1,1.7,0.4,3.4,0.5,5.1c0,0.8,0.4,1.2,0.9,1.2c0.5,0,0.9-0.4,1-1.3c0,0,0-0.1,0-0.1
			c0.1-1.3,0.1-2.5,0-3.8c-0.1-1,0.2-1.9,0.8-2.7c0.7-0.9,1.7-1.4,2.7-1.9c1.9-0.9,3.9-1.2,5.9-1.4c1.1-0.1,2.2-0.2,3.3,0.3
			c0.7,0.3,0.8,0.6,0.6,1.3c-0.2,0.7-0.5,1.4-0.9,2.1c-0.9,1.9-2.1,3.7-2.4,6c-0.1,0.5,0,0.9,0.1,1.4c0.6,1.8,1.8,3.2,3,4.5
			c0.8,0.9,1.7,1.7,2.8,2.3c1.6,0.9,2.9,0.6,4-0.5c1.9-1.9,3.1-4.2,3.7-6.8c0.2-0.8,0.4-1.5,0.6-2.3c0.3-0.9,0.9-1.5,1.8-1.8
			c0.9-0.2,1.8-0.4,2.7-0.2c0.8,0.2,1.7,0.3,2.3,0.8c1,0.8,1.5,2.7,0.8,3.9c-0.9,1.3-1.5,2.7-2.1,4.1c-0.9,2.3-1.6,4.7-1.6,7.3
			c0,0.9,0.3,1.8,0.9,2.4c1.5,1.7,4.6,2.1,6.6,0.9c1.5-0.9,2.6-2.1,3.6-3.6c1.4-2.4,2.4-5,3.6-7.5c0.4-0.7,0.8-1.2,1.5-1.4
			c2-0.7,4-0.9,6.1-0.4c1,0.2,1.4,0.9,1.1,1.9c-0.5,1.4-1.2,2.8-1.8,4.2c-0.2,0.4-0.5,0.8-0.9,1.1c-1.1,1-2.2,1.9-3.2,2.8
			c-1.6,1.5-3.4,2.9-4.5,4.9c-0.6,1-0.9,2-0.9,3.1c0,0.8,0.4,1.5,1.1,1.9c2,1.1,4.1,1,6.1,0.2c3.1-1.2,5.9-2.8,8.8-4.3
			c2.1-1.1,4.4-1.7,6.7-1.9c0.6-0.1,0.9,0.2,1.1,0.8c0.3,0.9,0,1.6-0.7,2.1c-1.1,0.8-2.2,1.5-3.4,2.1c-1.5,0.7-2.9,1.6-4,2.9
			c-0.4,0.5-0.6,1-0.5,1.5c0.2,1.3,0.7,2.3,2,2.9c1.3,0.6,2.6,0.6,4,0.8c2.3,0.3,4.6,0.4,6.9,0.5c1.6,0,3.1-0.2,4.5-1.1
			c0.8-0.5,1.5-1.3,2.5-1.6c-0.8,0.1-1.5,0-2-0.4c-1.1-0.9-2.4-1.1-3.7-1.2C373.2,120.8,371.2,120.4,368.9,120.4z"/>
		<path d="M210.4,124.3c-1.2,0.3-1.5,0-1.5-1.1c0-0.7,0.3-1.3,0.5-2c0.6-3,1.4-6,2.7-8.8c0.5-1,0.9-2.1,1.4-3.1
			c0.6-1.1,0.7-2.3,1.1-3.5c0.2-0.6,0.2-1.2,0.9-1.4c0.2,0,0.3-0.2,0.4-0.4c1.1-2,2.2-4,3.4-5.9c0.7-1.1,1.7-2.2,2.7-3.1
			c1.9-1.8,3.9-3.6,6-5.1c1.6-1.1,3.3-2.2,5-3.3c2.4-1.5,5.1-2.6,7.7-3.8c1.4-0.7,3-1.1,4.4-1.7c0.5-0.2,1.1-0.4,1.4-0.8
			c0.5-0.6,1.2-0.9,2-1c2.4-0.2,4.7-0.7,7.1-0.5c2,0.2,4,0.1,5.9,0.6c1.6,0.4,3.2,0.8,4.6,1.7c0.6,0.4,1.2,0.7,1.9,1
			c2,1,3.8,2.3,5.8,3.3c0.2,0.1,0.4,0.2,0.5,0.3c0.8,1,1.8,1.7,2.9,2.3c1.5,0.9,2.7,2.1,3.9,3.3c0.9,0.9,1.6,2,2.5,2.8
			c2,1.9,3.6,4.1,5.4,6.2c1.2,1.4,2.1,3,2.5,4.9c0.4,1.7,0.2,3.4,0.3,5.1c0.1,1.6,0.1,3.1,0,4.7c-0.2,2.5,0,5-0.5,7.5
			c-0.5,2.1-1,4.2-2.1,6.2c-1.1,1.8-2.1,3.6-3.4,5.3c-1.4,1.7-3,3.2-4.8,4.4c-1.9,1.4-3.7,2.9-5.5,4.4c-1.6,1.3-3.3,2.3-5.2,3.1
			c-4.2,1.9-8.5,3.3-12.8,4.8c-1.5,0.5-3,0.9-4.5,1.1c-1.2,0.1-2.4,0.1-3.6,0c-1.5-0.1-3.1-0.3-4.6-0.4c-1.4-0.1-2.6-0.5-4-0.6
			c-3.3-0.3-6.4-1.5-9.4-3c-1-0.5-2.2-0.8-3.4-1.1c-2.1-0.6-4.2-1.5-6.1-2.6c-0.3-0.2-0.7-0.4-1.1-0.6c-1.3-0.5-2.4-1.3-3.3-2.2
			c-0.8-0.8-1.7-1.5-2.5-2.2c-0.9-0.8-1.6-1.7-2-2.9c-0.2-0.4-0.4-0.9-0.7-1.3c-1.2-1.5-1.5-3.3-1.4-5.1
			C211,128,210.7,126.2,210.4,124.3z M212.4,118.5c-0.1,1.9,0.5,3.8,0.9,5.6c0.4,1.8,0.8,3.5,0.8,5.3c0,1.6,0.5,3,1.8,4.1
			c1,0.8,1.9,1.5,3,2.1c0.6,0.4,1.4,0.6,1.8,1.2c0.7,0.9,1.6,1.3,2.4,1.8c2.1,1.3,4.3,2.5,6.8,3.2c1.4,0.4,2.8,0.7,4.2,1.1
			c0.9,0.2,1.9,0.6,2.8,0.5c1.7-0.2,3.3-0.2,5-0.4c2.3-0.2,4.7-0.4,7-0.7c2.3-0.3,4.6-0.7,6.9-1.1c2.5-0.5,4.9-1.2,7.4-1.8
			c2.5-0.7,4.9-1.6,7.3-2.6c3.9-1.8,7.4-4.3,10.1-7.7c1.2-1.5,2.3-3.1,3-5c0.6-1.6,0.8-3.3,1.1-5c0.2-1.4,0.3-2.8-0.1-4.1
			c-0.6-2.5-1.1-5-2.1-7.3c-1-2.3-2.3-4.3-3.5-6.5c-1.3-2.4-3.1-4.4-4.8-6.5c-1.6-1.9-3.6-3.2-5.7-4.3c-1.9-1-3.5-2.3-5.6-2.9
			c-0.7-0.2-1.3-0.9-2.1-0.7c-0.6,0.1-1.3,0.1-1.9,0.1c-1.5,0-3-0.4-4.5,0.1C254,87,253.5,87,253,87c-2.9-0.2-5.9-0.3-8.8,0
			c-1.5,0.2-2.9,0.4-4.3,0.8c-1.9,0.5-3.7,1.2-5.5,1.9c-1.5,0.6-2.8,1.4-4.1,2.3c-1.4,1-2.7,2-4.1,3.1c-1.5,1.2-2.8,2.6-4.3,3.8
			c-1.4,1.2-2.5,2.8-3.7,4.2c-0.9,1.1-1.6,2.4-2.2,3.7c-0.5,1.2-0.7,2.5-1.2,3.7c-0.5,1.5-1.3,2.9-1.7,4.4
			C212.8,116.1,212.5,117.3,212.4,118.5z"/>
		<path d="M332.9,170.4c-4-0.2-7.9-1.3-11.4-3.6c-2.2-1.5-4.3-3.1-6.3-5c-1.2-1.2-2.2-2.7-3-4.1c-0.7-1.3-0.6-2.7-0.5-4.1
			c0.1-1.5,0.3-2.9,0.7-4.3c0.6-2.3,1.7-4.5,3.2-6.3c1.3-1.5,2.5-3.1,3.9-4.4c2.3-2.2,4.9-3.9,8.1-4.6c1.8-0.4,3.5-0.3,5.3-0.1
			c2.4,0.2,4.7,0.7,6.9,1.8c2.7,1.5,5,3.5,6.6,6.1c0.7,1.1,0.9,2.4,0.1,3.6c-0.2,0.3,0,0.4,0.1,0.6c0.5,0.7,1,1.3,1.4,2.1
			c0.4,1,0.6,2,0.6,3c0,1.9,0.1,3.8,0,5.8c-0.1,1.5-0.1,3.1-0.7,4.6c-0.8,1.9-2.2,3.3-3.7,4.6c-2.5,2.3-5.6,3.5-8.9,4.3
			C334.6,170.4,333.8,170.3,332.9,170.4z M340.1,140.1c-0.6-0.5-1.3-0.9-2.1-1.3c-2.5-1.2-5.2-1.4-7.9-1.4c-0.8,0-1.7,0.1-2.5,0.4
			c-1.9,0.8-3.8,1.7-5.2,3.3c-0.3,0.4-0.7,0.6-1,1c-1.4,1.5-2.8,3.1-3.8,4.9c-1.2,1.9-1.5,4.1-1.9,6.3c-0.3,1.7,0.2,3,1.2,4.3
			c0.2,0.3,0.4,0.5,0.7,0.7c1.2,1.2,2.4,2.3,3.8,3.3c2.7,2,5.6,3.7,9,4.2c2.3,0.4,4.6,0.4,6.7-0.8c0.2-0.1,0.4-0.2,0.6-0.2
			c2.1-0.6,3.7-2,5.1-3.6c0.7-0.8,1.2-1.8,1.3-3c0.2-2.4,0-4.8,0.1-7.2c0-0.9-0.2-1.6-0.8-2.2c-0.4-0.4-0.8-0.8-1-1.3
			c-0.5-1.2-1.5-2.3-1.7-3.7c-0.1-0.3-0.3-0.5-0.5-0.7c-0.8-1-0.8-1.5-0.2-2.6C339.9,140.5,340.1,140.4,340.1,140.1z"/>
		<path d="M470,110.8c-1.3,0-2.1-0.6-2.2-1.6c-0.1-0.9,0.4-1.7,1.5-2c0.8-0.2,1.5-0.4,2.3-0.5c0.8-0.1,1.6,0.3,1.8,1
			c0.3,0.7,0.1,1.7-0.5,2.1C471.9,110.2,471,110.9,470,110.8z"/>
		<path d="M186.8,271.7c-1,0-2.2-1.1-2.2-2.1c0-1,1-2.1,2.1-2.1c1,0,2.1,0.9,2.2,2C188.9,270.5,187.8,271.7,186.8,271.7z"/>
		<path d="M464.7,108.7c1,0,2.1,1,2.1,2.1c0,1.1-1.1,2.2-2.1,2.1c-1,0-2-1.1-2-2.1C462.6,109.7,463.6,108.7,464.7,108.7z"/>
		<path d="M111.4,207.3c-0.7,0.2-1.4-0.2-2.1-0.3c-0.4,0-0.6-0.3-0.7-0.7c-0.3-1.1,0.7-2.3,1.8-2.2c0.8,0.1,1.6,0.3,2.4,0.6
			c0.6,0.3,0.9,0.8,0.8,1.5c-0.1,0.7-0.5,1-1.2,1C112,207.3,111.8,207.3,111.4,207.3z"/>
		<path d="M175.3,239.9c0.9,0,1.4,0.3,1.5,0.9c0.2,0.6-0.1,1-0.8,1.4c-0.7,0.4-1.4,0.7-2.1,1.1c-0.7,0.3-1.3,0.3-1.9,0
			c-0.5-0.3-0.7-0.7-0.4-1.2c0.2-0.3,0.3-0.7,0.6-0.9C173.1,240.5,174.2,240,175.3,239.9z"/>
		<path d="M378.4,233.7c1.1,0.1,1.9,0.8,1.9,2c0,1-1,2-2,1.9c-1.1,0-2-1-1.9-2.1C376.3,234.5,377.3,233.7,378.4,233.7z"/>
		<path d="M428.8,136.9c0-1,1-2,2-2c1,0,1.9,1,1.9,2c0,1.1-0.9,2-2,1.9C429.6,138.9,428.7,137.9,428.8,136.9z"/>
		<path d="M102.9,204.4c0,0.7-0.6,1.4-1.4,1.4c-0.8,0-1.5-0.2-2.2-0.5c-0.7-0.2-1-1-0.8-1.7c0.2-0.8,0.8-1.3,1.6-1.1
			c0.7,0.1,1.4,0.3,2,0.6C102.6,203.3,103,203.7,102.9,204.4z"/>
		<path d="M319.8,220.6c0.5,0,1.8,1.1,2,1.9c0.1,0.7-0.4,1.4-1.1,1.6c-0.7,0.2-2.2-0.3-2.5-0.9c-0.3-0.5-0.5-1.1-0.2-1.7
			C318.3,220.9,318.8,220.5,319.8,220.6z"/>
		<path d="M383.7,229c0,1-0.9,1.9-1.9,1.9c-0.9,0-1.8-0.9-1.9-1.8c0-1,0.8-1.8,1.8-1.9C382.7,227.2,383.6,228,383.7,229z"/>
		<path d="M323.4,47.8c-0.5-0.1-0.7-0.1-1-0.1c-0.9-0.3-1.2-1.2-0.6-2c0.8-1.1,1.9-1.4,3-0.8c0.5,0.3,1,0.7,0.9,1.4
			c0,0.6-0.6,1.2-1.2,1.4C324.1,47.8,323.6,47.7,323.4,47.8z"/>
		<path d="M372.1,229.9c0.9,0,1.9,0.9,1.9,1.8c0,0.8-1,1.9-1.8,1.9c-0.8,0-1.9-1-1.9-1.8C370.3,230.9,371.3,229.9,372.1,229.9z"/>
		<path d="M170.1,249.9c0-0.3,0-0.6,0.3-0.8c0.5-0.6,1-1.2,1.7-1.7c0.6-0.4,1.3-0.3,1.7,0.2c0.4,0.5,0.4,1.1,0,1.6
			c-0.6,0.8-1.3,1.3-2.2,1.7C170.6,251.3,170.1,250.8,170.1,249.9z"/>
		<path d="M377,182.1c-1,0-1.9-0.9-1.9-1.8c0-0.9,1-1.8,1.9-1.7c0.9,0,1.8,0.9,1.8,1.7C378.9,181.2,377.9,182.1,377,182.1z"/>
		<path d="M201.5,69.7c-0.9,0-1.6-0.6-1.7-1.3c-0.1-0.9,0.5-1.6,1.3-1.7c0.4,0,0.8-0.1,1.2-0.1c0.6-0.1,1.2,0.3,1.4,0.9
			c0.2,0.5,0.1,1.1-0.4,1.5C202.7,69.4,202,69.6,201.5,69.7z"/>
		<path d="M447.2,126.3c0-1,0.7-1.7,1.7-1.8c1,0,1.7,0.7,1.8,1.7c0,1-0.8,1.9-1.7,1.9C448,128,447.2,127.2,447.2,126.3z"/>
		<path d="M469.1,96.8c0,1-0.9,1.7-1.8,1.7c-1,0-1.8-0.8-1.7-1.8c0-1,0.8-1.7,1.8-1.7C468.3,95,469.1,95.8,469.1,96.8z"/>
		<path d="M437.9,102.2c1,0,1.7,0.7,1.8,1.7c0,1-0.7,1.8-1.7,1.8c-0.9,0-1.7-0.8-1.8-1.7C436.2,103,436.9,102.2,437.9,102.2z"/>
		<path d="M454.3,122.4c0.9,0,1.8,0.8,1.8,1.7c0,0.8-1,1.8-1.8,1.8c-0.8,0-1.7-0.9-1.7-1.7C452.6,123.2,453.4,122.3,454.3,122.4z"/>
		<path d="M362.9,36.2c-0.9,0-1.8-1-1.7-1.8c0-0.8,1-1.7,1.8-1.7c0.8,0,1.7,0.9,1.7,1.7C364.7,35.3,363.8,36.2,362.9,36.2z"/>
		<path d="M131.4,167.9c-1,0-1.6-1-1.2-1.9c0.4-0.9,1.2-1.4,2.1-1.5c0.7-0.1,1.4,0.6,1.4,1.3C133.7,166.5,132.1,167.9,131.4,167.9z"
			/>
		<path d="M383.3,169.1c-0.9,0-1.7-0.8-1.7-1.7c0-0.9,0.9-1.7,1.8-1.6c0.9,0,1.7,0.8,1.6,1.7C385,168.1,384.4,169.1,383.3,169.1z"/>
		<path d="M117.2,182c-0.6,0.1-0.9-0.1-1.2-0.2c-1-0.4-1.1-1.2-0.3-2c0.6-0.6,1.3-0.6,2-0.7c0.5-0.1,1.1,0.5,1.3,1
			c0.2,0.6-0.1,1-0.5,1.4C118.1,181.9,117.5,181.9,117.2,182z"/>
		<path d="M389.5,187.7c0,0.9-0.7,1.7-1.6,1.7c-0.9,0-1.6-0.8-1.6-1.7c0-0.9,0.7-1.6,1.6-1.7C388.7,186,389.5,186.8,389.5,187.7z"/>
		<path d="M238.8,228.4c-0.9,0-1.7-0.8-1.7-1.6c0-0.8,0.8-1.6,1.6-1.6c0.9,0,1.7,0.8,1.7,1.7C240.4,227.6,239.7,228.4,238.8,228.4z"
			/>
		<path d="M243.6,221c-0.8,0-1.6-0.8-1.6-1.6c0-0.8,0.8-1.6,1.6-1.7c0.8,0,1.7,0.8,1.7,1.7C245.2,220.2,244.4,221,243.6,221z"/>
		<path d="M429.5,141.5c0,0.8-0.8,1.6-1.6,1.7c-0.8,0-1.7-0.8-1.7-1.7c0-0.8,0.8-1.6,1.7-1.6C428.7,139.9,429.5,140.7,429.5,141.5z"
			/>
		<path d="M418.2,225.8c-0.9,0-1.6-0.7-1.7-1.5c0-0.9,0.7-1.7,1.6-1.7c0.8,0,1.6,0.8,1.6,1.6C419.7,225,419,225.7,418.2,225.8z"/>
		<path d="M413.7,232c0,0.8-0.8,1.6-1.6,1.6c-0.8,0-1.6-0.9-1.6-1.7c0.1-0.8,0.8-1.6,1.7-1.5C413,230.4,413.8,231.1,413.7,232z"/>
		<path d="M399.9,232.7c-0.9,0-1.6-0.8-1.6-1.6c0-0.8,0.8-1.6,1.6-1.6c0.8,0,1.6,0.8,1.6,1.7C401.5,232,400.7,232.7,399.9,232.7z"/>
		<path d="M293.4,56.3c0-0.9,0.7-1.6,1.6-1.6c0.9,0,1.6,0.7,1.6,1.6c0,0.9-0.7,1.6-1.6,1.6C294.2,57.9,293.5,57.2,293.4,56.3z"/>
		<path d="M465.2,116.7c0.8,0,1.6,0.8,1.5,1.7c0,0.9-0.8,1.6-1.6,1.5c-0.9,0-1.6-0.8-1.5-1.7C463.6,117.4,464.4,116.7,465.2,116.7z"
			/>
		<path d="M136.7,197.2c-0.8,0-1.8-0.9-1.8-1.7c0-0.7,0.6-1.3,1.4-1.3c1.1,0,1.9,0.6,1.9,1.5C138.2,196.4,137.4,197.2,136.7,197.2z"
			/>
		<path d="M267.6,216.6c-0.8,0-1.6-0.7-1.7-1.6c0-0.8,0.8-1.6,1.6-1.6c0.8,0,1.6,0.8,1.6,1.6C269.2,215.8,268.4,216.6,267.6,216.6z"
			/>
		<path d="M288.7,214.2c0,0.9-0.7,1.5-1.6,1.5c-0.9,0-1.5-0.6-1.5-1.5c0-0.9,0.7-1.6,1.6-1.6C288,212.6,288.7,213.4,288.7,214.2z"/>
		<path d="M337.7,230.5c-0.7-0.1-1.1-0.4-1.4-0.9c-0.3-0.5-0.1-0.9,0.2-1.3c0.3-0.5,0.8-0.6,1.4-0.5c0.4,0.1,0.8,0.3,1.2,0.5
			c0.4,0.2,0.6,0.6,0.6,1.1c-0.1,0.5-0.4,0.9-0.9,1C338.5,230.4,338,230.2,337.7,230.5z"/>
		<path d="M258,26.8c0-0.9,0.7-1.4,1.8-1.4c0.7,0,1.4,0.7,1.5,1.3c0,0.7-0.8,1.5-1.5,1.5C258.6,28.2,258,27.7,258,26.8z"/>
		<path d="M424.2,96c0.9,0,1.5,0.6,1.5,1.5c0,0.9-0.7,1.6-1.5,1.6c-0.8,0-1.5-0.7-1.5-1.6C422.7,96.6,423.4,96,424.2,96z"/>
		<path d="M391.9,233.8c0,0.8-0.7,1.5-1.5,1.5c-0.8,0-1.5-0.7-1.5-1.6c0-0.8,0.7-1.5,1.5-1.4C391.3,232.3,391.9,232.9,391.9,233.8z"
			/>
		<path d="M383.4,194.8c0.8,0,1.5,0.8,1.5,1.5c0,0.8-0.8,1.5-1.6,1.5c-0.8,0-1.5-0.8-1.5-1.6C381.8,195.5,382.6,194.8,383.4,194.8z"
			/>
		<path d="M285.9,47.2c0,0.7-0.7,1.2-1.6,1.2c-0.8,0-1.5-0.7-1.6-1.5c0-0.7,0.8-1.5,1.5-1.5C285.1,45.4,285.9,46.4,285.9,47.2z"/>
		<path d="M365.3,229.6c0.8,0,1.5,0.7,1.5,1.5c0,0.7-0.7,1.5-1.5,1.5c-0.8,0-1.6-0.7-1.6-1.5C363.8,230.3,364.5,229.6,365.3,229.6z"
			/>
		<path d="M126.1,174.7c0.9-0.2,1.6-0.5,2.4-0.9c0.1,0,0.1-0.1,0.2-0.1c0.8-0.2,1.4,0,1.7,0.5c0.3,0.5,0.2,0.9-0.2,1.3
			c-0.4,0.5-1.3,0.7-1.8,0.4C127.6,175.7,127,175,126.1,174.7z"/>
		<path d="M386.9,97.9c-0.8,0-1.6-0.8-1.5-1.5c0-0.7,0.8-1.4,1.5-1.5c0.8,0,1.6,0.8,1.6,1.5C388.5,97.2,387.7,97.9,386.9,97.9z"/>
		<path d="M411.5,98.8c-0.8,0-1.6-0.6-1.6-1.5c0-0.8,0.8-1.6,1.5-1.6c0.7,0,1.5,0.7,1.5,1.4C413,98,412.3,98.8,411.5,98.8z"/>
		<path d="M221.1,234.4c0.8,0,1.5,0.8,1.5,1.5c0,0.7-0.9,1.5-1.6,1.5c-0.7,0-1.5-0.8-1.5-1.5C219.6,235.2,220.4,234.4,221.1,234.4z"
			/>
		<path d="M232.1,229.6c0,0.8-0.7,1.5-1.5,1.5c-0.8,0-1.5-0.7-1.5-1.6c0-0.8,0.6-1.4,1.4-1.5C231.4,228.1,232.1,228.8,232.1,229.6z"
			/>
		<path d="M162.7,97.4c0.8,0,1.5,0.7,1.5,1.5c0,0.8-0.7,1.5-1.5,1.5c-0.8,0-1.4-0.7-1.4-1.5C161.2,98.1,161.9,97.4,162.7,97.4z"/>
		<path d="M448.9,96.2c-0.8-0.1-1.5-0.8-1.4-1.6c0.1-0.8,0.8-1.4,1.5-1.4c0.8,0,1.5,0.8,1.5,1.6C450.4,95.6,449.7,96.2,448.9,96.2z"
			/>
		<path d="M155.3,189.5c0,0.8-0.7,1.5-1.6,1.5c-0.8,0-1.4-0.7-1.4-1.5c0-0.8,0.7-1.5,1.5-1.5C154.6,188,155.3,188.7,155.3,189.5z"/>
		<path d="M178.9,229.8c-0.9,0-1.2-0.4-1.2-1.4c0-0.8,0.7-1.6,1.5-1.6c0.7,0,1.6,0.8,1.5,1.5C180.6,229.1,179.8,229.8,178.9,229.8z"
			/>
		<path d="M418.9,217.2c0-0.8,0.6-1.5,1.4-1.5c0.8-0.1,1.6,0.6,1.6,1.5c0,0.8-0.6,1.5-1.4,1.5C419.7,218.7,419,218,418.9,217.2z"/>
		<path d="M394.3,102.2c0,0.7-0.7,1.5-1.4,1.5c-0.8,0-1.5-0.7-1.5-1.5c0-0.7,0.7-1.4,1.5-1.4C393.6,100.8,394.3,101.5,394.3,102.2z"
			/>
		<path d="M142.7,114.2c-0.8,0-1.5-0.6-1.5-1.4c0-0.7,0.8-1.4,1.5-1.4c0.7,0,1.5,0.7,1.5,1.4C144.2,113.5,143.5,114.2,142.7,114.2z"
			/>
		<path d="M410.8,151.7c0,0.8-0.6,1.4-1.5,1.4c-0.8,0-1.4-0.6-1.4-1.3c0-0.8,0.6-1.5,1.4-1.5C410.1,150.2,410.8,150.9,410.8,151.7z"
			/>
		<path d="M217.7,66.2c0,0.7-0.7,1.4-1.4,1.4c-0.8,0-1.6-0.6-1.6-1.3c0-0.7,1-1.6,1.7-1.5C217.1,64.8,217.7,65.5,217.7,66.2z"/>
		<path d="M132.8,119.7c0,0.7-0.6,1.4-1.3,1.4c-0.7,0-1.4-0.6-1.4-1.3c0-0.8,0.6-1.5,1.4-1.5C132.1,118.4,132.8,119,132.8,119.7z"/>
		<path d="M339.1,40.8c0,0.8-0.6,1.4-1.3,1.4c-0.8,0-1.4-0.6-1.4-1.3c0-0.7,0.6-1.4,1.3-1.4C338.4,39.4,339.1,40.1,339.1,40.8z"/>
		<path d="M364.4,69.8c-0.7,0-1.4-0.8-1.4-1.4c0-0.6,0.8-1.4,1.5-1.4c0.6,0,1.4,0.8,1.4,1.5C365.9,69.1,365.1,69.8,364.4,69.8z"/>
		<path d="M383,174.5c0.6,0,1.4,0.8,1.4,1.4c0,0.7-0.8,1.3-1.5,1.3c-0.7,0-1.4-0.8-1.4-1.4C381.6,175.2,382.4,174.5,383,174.5z"/>
		<path d="M381.7,44.6c0,0.6-0.8,1.4-1.4,1.4c-0.6,0-1.4-0.8-1.4-1.5c0-0.7,0.8-1.4,1.4-1.3C381.1,43.2,381.8,43.9,381.7,44.6z"/>
		<path d="M363.4,82.8c0.7,0,1.4,0.7,1.4,1.4c0,0.7-0.7,1.4-1.4,1.4c-0.6,0-1.3-0.7-1.3-1.3C362,83.5,362.7,82.8,363.4,82.8z"/>
		<path d="M246.2,29c0,0.7-0.6,1.4-1.3,1.4c-0.7,0-1.4-0.7-1.4-1.4c0-0.7,0.6-1.3,1.3-1.3C245.5,27.7,246.2,28.3,246.2,29z"/>
		<path d="M349.1,38.6c0,0.6-0.8,1.4-1.4,1.4c-0.6,0-1.4-0.8-1.4-1.4c0-0.7,0.7-1.4,1.4-1.4C348.4,37.2,349.1,37.9,349.1,38.6z"/>
		<path d="M376.4,195.7c0,0.6-0.7,1.4-1.4,1.4c-0.6,0-1.4-0.8-1.4-1.4c0-0.7,0.7-1.4,1.4-1.4C375.7,194.3,376.4,195,376.4,195.7z"/>
		<path d="M177.3,193.4c0,0.7-0.8,1.4-1.5,1.3c-0.6-0.1-1.3-0.8-1.3-1.4c0-0.7,0.8-1.4,1.4-1.4C176.6,192,177.3,192.7,177.3,193.4z"
			/>
		<path d="M361.8,40.7c-0.7,0-1.4-0.7-1.4-1.4c0-0.7,0.7-1.4,1.4-1.4c0.6,0,1.3,0.7,1.3,1.3C363.1,40,362.5,40.7,361.8,40.7z"/>
		<path d="M442,129.8c0-0.7,0.6-1.4,1.3-1.4c0.7,0,1.3,0.6,1.3,1.3c0,0.7-0.6,1.4-1.3,1.4C442.6,131.1,442,130.5,442,129.8z"/>
		<path d="M160,76c-0.7,0-1.4-0.7-1.4-1.4c0-0.7,0.7-1.4,1.4-1.3c0.6,0,1.3,0.7,1.3,1.3C161.3,75.3,160.7,76,160,76z"/>
		<path d="M167.8,93c0.7,0,1.4,0.8,1.3,1.4c-0.1,0.6-0.7,1.3-1.4,1.3c-0.7,0-1.4-0.7-1.4-1.4C166.4,93.7,167.1,93,167.8,93z"/>
		<path d="M275.9,209.4c0.8,0,1.3,0.6,1.3,1.4c0,0.7-0.6,1.3-1.3,1.3c-0.7,0-1.3-0.6-1.3-1.3C274.5,210,275.1,209.4,275.9,209.4z"/>
		<path d="M221,243.6c0,0.7-0.6,1.4-1.4,1.3c-0.7,0-1.3-0.6-1.3-1.3c0-0.7,0.5-1.3,1.2-1.3C220.4,242.3,221,242.8,221,243.6z"/>
		<path d="M393.8,205.2c0.6,0,1.4,0.8,1.4,1.4c0,0.6-0.9,1.3-1.5,1.3c-0.6,0-1.3-0.8-1.3-1.3C392.4,206,393.2,205.2,393.8,205.2z"/>
		<path d="M248.7,51.8c0,0.7-0.5,1.3-1.2,1.4c-0.7,0.1-1.4-0.6-1.4-1.3c0-0.7,0.6-1.3,1.2-1.4C248,50.5,248.7,51.1,248.7,51.8z"/>
		<path d="M243.3,40c-0.8,0-1.3-0.5-1.3-1.3c0-0.9,0.4-1.3,1.3-1.3c0.8,0,1.2,0.4,1.2,1.3C244.6,39.5,244.1,40,243.3,40z"/>
		<path d="M304.5,57.3c0.8,0,1.5,0.5,1.5,1.3c0,0.6-0.6,1.2-1.2,1.3c-0.7,0.1-1.4-0.7-1.4-1.5C303.3,57.8,303.7,57.3,304.5,57.3z"/>
		<path d="M382.6,49.9c0.8,0,1.6,0.8,1.6,1.5c0,0.7-0.6,1.4-1.3,1.3c-0.7-0.1-1.2-0.5-1.2-1.5C381.7,50.3,382,49.9,382.6,49.9z"/>
		<path d="M328.5,38c0-0.8,0.5-1.3,1.2-1.3c0.8,0,1.3,0.5,1.3,1.2c0,0.7-0.5,1.3-1.2,1.3C329,39.3,328.5,38.7,328.5,38z"/>
		<path d="M319.4,215c0,0.6-0.7,1.3-1.3,1.3c-0.6,0-1.2-0.6-1.3-1.2c-0.1-0.7,0.6-1.3,1.2-1.3C318.7,213.7,319.3,214.3,319.4,215z"
			/>
		<path d="M243.3,55c0,0.6-0.7,1.3-1.3,1.3c-0.6,0-1.2-0.6-1.3-1.2c-0.1-0.7,0.6-1.3,1.2-1.3C242.6,53.7,243.3,54.3,243.3,55z"/>
		<path d="M395.7,162.8c-0.7,0-1.4-0.5-1.4-1.2c0-0.6,0.6-1.2,1.4-1.2c0.8,0,1.3,0.4,1.3,1.1C397,162.3,396.5,162.8,395.7,162.8z"/>
		<path d="M281.2,38.9c0,0.6-0.7,1.3-1.3,1.3c-0.6,0-1.2-0.6-1.3-1.2c-0.1-0.7,0.6-1.3,1.2-1.3C280.5,37.6,281.2,38.2,281.2,38.9z"
			/>
		<path d="M441,135.8c-0.7,0-1.2-0.5-1.3-1.2c0-0.7,0.6-1.3,1.2-1.3c0.7,0,1.3,0.6,1.3,1.3C442.3,135.3,441.7,135.8,441,135.8z"/>
		<path d="M373.7,88.5c0,0.7-0.5,1.2-1.2,1.2c-0.7,0-1.3-0.6-1.3-1.3c0-0.6,0.6-1.2,1.2-1.2C373.1,87.2,373.7,87.8,373.7,88.5z"/>
		<path d="M243.6,34c0,0.7-0.5,1.2-1.2,1.2c-0.7,0-1.3-0.6-1.3-1.3c0-0.6,0.6-1.2,1.2-1.2C243,32.7,243.6,33.3,243.6,34z"/>
		<path d="M178.8,221.4c0,0.8-0.5,1.2-1.3,1.2c-0.8,0-1.2-0.5-1.2-1.3c0-0.7,0.6-1.3,1.3-1.3C178.3,220.1,178.9,220.7,178.8,221.4z"
			/>
		<path d="M443.6,94.3c-0.7,0-1.2-0.6-1.2-1.2c0-0.7,0.6-1.3,1.3-1.3c0.7,0,1.3,0.7,1.2,1.4C444.9,93.8,444.3,94.3,443.6,94.3z"/>
		<path d="M454.9,117.4c0.7,0,1.3,0.7,1.3,1.3c0,0.7-0.6,1.2-1.4,1.2c-0.7,0-1.2-0.6-1.2-1.2C453.5,118,454.2,117.4,454.9,117.4z"/>
		<path d="M356.1,229.3c-0.7,0-1.3-0.7-1.2-1.4c0-0.7,0.6-1.2,1.3-1.2c0.7,0,1.3,0.6,1.2,1.3C357.3,228.7,356.7,229.3,356.1,229.3z"
			/>
		<path d="M407,226.7c0.7,0,1.2,0.5,1.3,1.2c0,0.7-0.6,1.3-1.2,1.4c-0.7,0-1.3-0.7-1.3-1.3C405.7,227.3,406.3,226.7,407,226.7z"/>
		<path d="M273.3,28.4c-0.7,0-1.3-0.7-1.2-1.4c0-0.7,0.6-1.2,1.3-1.2c0.7,0,1.3,0.6,1.2,1.3C274.5,27.9,273.9,28.5,273.3,28.4z"/>
		<path d="M300.7,216.8c0,0.6-0.5,1.2-1.1,1.3c-0.7,0.1-1.3-0.5-1.3-1.2c0-0.7,0.6-1.3,1.2-1.3C300.1,215.6,300.7,216.1,300.7,216.8
			z"/>
		<path d="M205.9,270.6c0,0.6-0.7,1.2-1.3,1.2c-0.6,0-1.2-0.7-1.2-1.3c0-0.6,0.7-1.2,1.3-1.2C205.4,269.4,206,270,205.9,270.6z"/>
		<path d="M169.9,190.9c0,0.6-0.6,1.3-1.2,1.3c-0.6,0-1.2-0.6-1.3-1.2c0-0.6,0.6-1.2,1.2-1.3C169.3,189.7,169.9,190.3,169.9,190.9z"
			/>
		<path d="M446.6,89.4c0,0.6-0.6,1.3-1.2,1.3c-0.6,0-1.2-0.6-1.3-1.2c0-0.6,0.6-1.2,1.2-1.3C445.9,88.2,446.6,88.8,446.6,89.4z"/>
		<path d="M197.3,268.5c0,0.6-0.7,1.2-1.3,1.2c-0.6,0-1.2-0.7-1.2-1.3c0-0.6,0.7-1.2,1.3-1.2C196.7,267.2,197.3,267.8,197.3,268.5z"
			/>
		<path d="M330.8,225.2c0.6,0,1.2,0.7,1.2,1.3c0,0.6-0.6,1.2-1.2,1.2c-0.6,0-1.2-0.6-1.2-1.3C329.6,225.8,330.2,225.2,330.8,225.2z"
			/>
		<path d="M311.5,214.9c0.6,0,1.2,0.7,1.2,1.3c0,0.6-0.7,1.2-1.3,1.2c-0.5,0-1.1-0.7-1.2-1.2C310.2,215.6,310.9,214.9,311.5,214.9z"
			/>
		<path d="M141.5,162.1c0,0.6-0.9,1.5-1.5,1.5c-0.5,0-1-0.4-1-0.8c0-0.6,0.8-1.4,1.5-1.4C141,161.3,141.5,161.6,141.5,162.1z"/>
		<path d="M141.2,191c-0.7,0-1.2-0.4-1.2-1c0-0.6,0.6-1.1,1.2-1.1c0.6,0,1.4,0.7,1.5,1.2C142.6,190.6,142.1,191,141.2,191z"/>
		<path d="M343.4,34.6c0,0.6-0.5,1.1-1.1,1.1c-0.6,0-1.2-0.4-1.2-1.1c0-0.6,0.6-1.2,1.2-1.2C342.8,33.4,343.3,34,343.4,34.6z"/>
		<path d="M182.7,69.1c-0.6,0-1.2-0.5-1.2-1.1c0-0.6,0.6-1.2,1.2-1.2c0.6,0,1.1,0.6,1.1,1.2C183.8,68.6,183.3,69.1,182.7,69.1z"/>
		<path d="M374.6,62.9c0,0.6-0.5,1.1-1.2,1.1c-0.6,0-1.2-0.5-1.2-1.1c0-0.6,0.6-1.2,1.2-1.2C374,61.8,374.6,62.4,374.6,62.9z"/>
		<path d="M359.4,234.2c0,0.6-0.5,1.1-1.1,1.1c-0.6,0-1.2-0.5-1.2-1.1c0-0.6,0.6-1.2,1.2-1.2C358.9,233.1,359.4,233.6,359.4,234.2z"
			/>
		<path d="M176.6,253.1c-0.6,0-1.1-0.5-1.1-1.2c0-0.6,0.6-1.1,1.2-1.1c0.6,0,1.2,0.6,1.2,1.3C177.7,252.7,177.2,253.1,176.6,253.1z"
			/>
		<path d="M229.4,223.4c0,0.6-0.5,1.2-1.1,1.1c-0.5,0-1.3-0.7-1.3-1.2c0-0.5,0.6-1,1.2-1C228.8,222.3,229.4,222.8,229.4,223.4z"/>
		<path d="M161.8,80.3c0-0.6,0.5-1.1,1.1-1.1c0.6,0,1.2,0.5,1.2,1.1c0,0.6-0.6,1.2-1.2,1.2C162.3,81.4,161.8,80.9,161.8,80.3z"/>
		<path d="M373.7,53c0,0.7-0.4,1.1-1,1.2c-0.7,0-1.2-0.4-1.2-1c-0.1-0.7,0.4-1.3,1.1-1.3C373.1,51.9,373.6,52.4,373.7,53z"/>
		<path d="M374.1,42.8c-0.6,0-1.2-0.5-1.2-1.1c0-0.6,0.4-1.1,1.1-1.2c0.7,0,1.3,0.5,1.2,1.1C375.3,42.3,374.7,42.8,374.1,42.8z"/>
		<path d="M153.9,142.6c0,0.7-0.4,1.1-1.1,1.1c-0.7,0-1.1-0.4-1.2-1.1c0-0.7,0.5-1.2,1.2-1.2C153.4,141.4,153.9,141.9,153.9,142.6z"
			/>
		<path d="M418.3,151.3c-0.3,0.1-0.6,0.1-0.9,0c-0.6-0.1-0.9-0.7-0.8-1.4c0.1-0.6,0.6-0.9,1.2-0.9c0.7,0.1,1,0.6,1,1.2
			C418.8,150.8,418.5,151,418.3,151.3C418.3,151.3,418.3,151.3,418.3,151.3z"/>
		<path d="M100.1,197.2c0.5,0,1.2,0.6,1.2,1.1c0,0.5-0.6,1.1-1.1,1.1c-0.5,0-1.1-0.5-1.2-1C98.9,197.9,99.5,197.3,100.1,197.2z"/>
		<path d="M148.4,65.9c-0.6,0-1.1-0.5-1.1-1.1c0-0.5,0.6-1.2,1.2-1.1c0.6,0,1.1,0.7,1.1,1.2C149.5,65.5,149,65.9,148.4,65.9z"/>
		<path d="M475.9,103.9c0,0.6-0.5,1.2-1.1,1.2c-0.5,0-1.1-0.5-1.1-1.1c0-0.5,0.6-1.2,1.1-1.2C475.3,102.8,475.8,103.4,475.9,103.9z"
			/>
		<path d="M111.1,184.1c0,0.5-0.6,1.1-1.2,1.2c-0.6,0-1.1-0.4-1.1-1c-0.1-0.5,0.5-1.2,1-1.3C110.3,183,111,183.6,111.1,184.1z"/>
		<path d="M116,199.5c0,0.6-0.6,1.2-1.1,1.2c-0.5,0-1.1-0.5-1.1-1.1c0-0.6,0.5-1.2,1.1-1.2C115.4,198.4,115.9,198.9,116,199.5z"/>
		<path d="M121.1,173.5c0.6,0,1.1,0.4,1.1,1c0,0.6-0.5,1.1-1.1,1.1c-0.6,0-1.1-0.5-1.1-1.1C120,173.8,120.5,173.5,121.1,173.5z"/>
		<path d="M126.6,196.5c0.6,0,1.1,0.4,1.1,1c0,0.6-0.5,1.1-1.1,1.1c-0.6,0-1.1-0.5-1.1-1.1C125.5,196.9,126,196.5,126.6,196.5z"/>
		<path d="M275.2,32.1c-0.6,0-1.1-0.5-1.1-1c0-0.5,0.7-1.1,1.2-1.1c0.5,0,1.2,0.7,1.1,1.2C276.3,31.7,275.8,32.1,275.2,32.1z"/>
		<path d="M156.4,67.9c0,0.5-0.6,1.2-1.2,1.2c-0.5,0-1.1-0.6-1.1-1.1c0-0.5,0.6-1.2,1.2-1.2C155.8,66.8,156.4,67.4,156.4,67.9z"/>
		<path d="M194.7,264.9c-0.5,0-1.2-0.6-1.2-1.1c0-0.5,0.5-1.1,1.1-1.1c0.6,0,1.2,0.5,1.2,1C195.8,264.2,195.2,264.8,194.7,264.9z"/>
		<path d="M180,215c0,0.6-0.5,1.1-1.1,1.1c-0.6,0-1.1-0.4-1.1-1c0-0.6,0.4-1,1.1-1C179.5,214,180,214.4,180,215z"/>
		<path d="M386.7,206.3c-0.6,0-1.1-0.5-1.1-1c0-0.5,0.6-1,1.1-1c0.5,0,1.1,0.6,1.1,1.1C387.8,205.9,387.3,206.3,386.7,206.3z"/>
		<path d="M193.8,67.6c-0.6,0-1.1-0.4-1.2-0.9c-0.1-0.6,0.5-1.1,1.1-1.1c0.5,0,1.1,0.5,1.1,1C194.9,67.1,194.4,67.6,193.8,67.6z"/>
		<path d="M130.7,117.7c-0.6,0-1.1-0.5-1.1-1.1c0-0.6,0.4-1,1.1-1c0.6,0,1.1,0.4,1.1,1C131.8,117.2,131.2,117.7,130.7,117.7z"/>
		<path d="M106.2,199.9c0.6,0,1.1,0.4,1.2,1c0,0.5-0.5,1.1-1,1.1c-0.5,0-1.1-0.5-1.2-1C105.1,200.4,105.6,199.9,106.2,199.9z"/>
		<path d="M258.2,217c0,0.5-0.6,1-1.2,1c-0.5,0-1.1-0.6-1.1-1.1c0-0.6,0.5-1,1.1-1C257.8,215.9,258.3,216.4,258.2,217z"/>
		<path d="M176.7,206.8c0.5,0,1.1,0.6,1.1,1c0,0.5-0.6,1.1-1.1,1.1c-0.5,0-1.2-0.6-1.2-1.1C175.5,207.3,176.1,206.8,176.7,206.8z"/>
		<path d="M368.2,75.1c0.5,0,1,0.5,1,1c0,0.5-0.5,1.1-1,1.1c-0.5,0-1.1-0.6-1-1.1C367.2,75.5,367.7,75.1,368.2,75.1z"/>
		<path d="M141.6,118.8c0,0.5-0.6,1.1-1.1,1c-0.5,0-1-0.6-1.1-1.1c0-0.4,0.5-0.9,1-0.9C141,117.8,141.6,118.3,141.6,118.8z"/>
		<path d="M178,258.6c0,0.5-0.6,1-1.1,1c-0.5,0-1-0.6-1-1c0-0.4,0.6-1,1-1C177.4,257.5,178,258.1,178,258.6z"/>
		<path d="M242.3,59.4c0,0.5-0.5,1-1,1c-0.6,0-1.1-0.5-1.1-1c0-0.5,0.5-1,1-1C241.8,58.4,242.3,58.9,242.3,59.4z"/>
		<path d="M149.2,133.2c0.6,0,1.1,0.5,1.1,1c0,0.5-0.5,1-1,1c-0.5,0-1-0.5-1-1.1C148.2,133.5,148.6,133.2,149.2,133.2z"/>
		<path d="M178.1,64.7c0,0.5-0.4,1-1,1c-0.5,0-1-0.4-1.1-0.9c0-0.5,0.5-1.1,1-1.1C177.6,63.7,178.1,64.2,178.1,64.7z"/>
		<path d="M162,61.8c0,0.5-0.5,1-1,1c-0.5,0-1-0.4-1-0.9c0-0.5,0.5-1.1,1-1.1C161.5,60.8,162,61.3,162,61.8z"/>
		<path d="M105.5,204.3c0.4,0,0.8,0.5,0.8,1c0,0.6-0.5,1.1-1,1.1c-0.5,0-0.9-0.4-0.9-0.9C104.5,205,105.1,204.3,105.5,204.3z"/>
		<path d="M376.4,98.5c-0.6,0-1-0.6-1-1.2c0.1-0.5,0.5-0.9,1.1-0.9c0.6,0,1,0.5,0.9,1.1C377.4,98.1,377,98.5,376.4,98.5z"/>
		<path d="M295.6,209.9c0,0.5-0.4,0.9-0.9,0.9c-0.5,0-1-0.6-1-1.2c0-0.5,0.4-0.9,0.9-0.9C295.1,208.7,295.5,209.2,295.6,209.9z"/>
		<path d="M183.6,264.5c0,0.5-0.4,0.9-0.9,0.8c-0.5,0-0.9-0.4-0.9-1c0-0.5,0.4-1,0.8-1C183,263.3,183.6,264,183.6,264.5z"/>
		<path d="M169,65.3c0.4,0,1,0.5,1.1,0.9c0,0.4-0.5,0.9-0.9,0.9c-0.5,0-1.1-0.4-1.1-0.8C168,66,168.6,65.3,169,65.3z"/>
		<path d="M408.9,219.6c0,0.4-0.5,0.9-0.9,0.9c-0.5,0-1-0.5-1-0.9c0-0.4,0.5-0.9,0.9-0.9C408.4,218.6,408.9,219.1,408.9,219.6z"/>
		<path d="M207.5,261.8c0,0.4-0.6,0.9-1.1,0.9c-0.4,0-0.9-0.5-1-0.9c0-0.4,0.6-1,1-0.9C206.9,260.9,207.5,261.5,207.5,261.8z"/>
		<path d="M214.1,267.4c0,0.4-0.5,0.9-0.9,1c-0.5,0-1-0.4-1.1-0.9c0-0.4,0.4-0.9,0.9-0.9C213.5,266.5,214.1,267,214.1,267.4z"/>
		<path d="M162.5,184.9c0,0.5-0.4,0.9-0.9,0.9c-0.5,0-1.1-0.7-1-1.2c0.1-0.4,0.4-0.7,0.8-0.7C162,183.9,162.5,184.4,162.5,184.9z"/>
		<path d="M155.8,104.1c0,0.4-0.6,0.8-1,0.8c-0.5,0-0.9-0.5-0.9-0.9c0-0.5,0.5-0.9,1-0.8C155.3,103.2,155.8,103.7,155.8,104.1z"/>
		<path d="M218.1,251.5c0.4,0,0.9,0.5,0.9,0.9c0,0.4-0.4,0.9-0.9,0.9c-0.5,0-1-0.4-1-0.9C217.2,251.9,217.7,251.5,218.1,251.5z"/>
		<path d="M246.6,44.3c0,0.4-0.5,0.9-0.9,1c-0.4,0-0.9-0.5-1-0.9c0-0.4,0.4-0.9,0.9-0.9C246.1,43.4,246.6,43.8,246.6,44.3z"/>
		<path d="M136.6,123.4c0,0.5-0.4,0.9-0.9,0.9c-0.5,0-0.9-0.4-0.9-0.9c0-0.5,0.4-0.9,0.9-0.9C136.2,122.5,136.6,122.9,136.6,123.4z"
			/>
		<path d="M452.2,89.8c0.4,0,0.8,0.4,0.9,0.8c0,0.5-0.4,0.9-0.9,0.9c-0.5,0-0.8-0.4-0.9-0.8C451.3,90.3,451.7,89.8,452.2,89.8z"/>
		<path d="M150.7,107.2c0.4,0,0.9,0.3,0.9,0.7c0,0.4-0.4,0.8-0.8,0.9c-0.4,0-0.9-0.4-0.9-0.8C149.8,107.7,150.2,107.3,150.7,107.2z"
			/>
		<path d="M431.3,91.6c0.5,0,0.8,0.3,0.8,0.8c0,0.4-0.4,0.8-0.8,0.8c-0.4,0-0.8-0.4-0.8-0.8C430.5,92,430.8,91.6,431.3,91.6z"/>
		<path d="M146.8,155.9c-0.4,0-0.7-0.1-0.7-0.6c0-0.4,0.7-1,1.1-1c0.4,0,0.6,0.3,0.6,0.7C147.8,155.6,147.5,155.9,146.8,155.9z"/>
		<path d="M309.9,54.8c-0.3,0-0.8-0.5-0.8-0.8c0-0.3,0.4-0.8,0.8-0.8c0.3,0,0.8,0.4,0.8,0.8C310.7,54.3,310.2,54.8,309.9,54.8z"/>
		<path d="M210.3,68.9c0.3,0,0.8,0.4,0.8,0.7c0,0.3-0.5,0.8-0.8,0.8c-0.3,0-0.8-0.5-0.8-0.8C209.5,69.3,210,68.9,210.3,68.9z"/>
		<path d="M230.2,61.8c0.4,0,0.7,0.5,0.7,0.8c-0.1,0.4-0.5,0.7-0.9,0.6c-0.4-0.1-0.6-0.3-0.6-0.8C229.4,62.1,229.8,61.8,230.2,61.8z
			"/>
		<path d="M109.9,189.3c0.5,0,0.8,0.4,0.8,0.8c-0.1,0.4-0.3,0.7-0.8,0.7c-0.4,0-0.8-0.4-0.7-0.8
			C109.2,189.6,109.5,189.4,109.9,189.3z"/>
		<path d="M199.6,264.2c-0.4,0-0.7-0.5-0.7-0.8c0-0.4,0.5-0.8,0.8-0.7c0.4,0.1,0.6,0.3,0.6,0.8C200.4,263.9,200,264.3,199.6,264.2z"
			/>
		<path d="M213.1,261.5c0,0.4-0.4,0.8-0.8,0.7c-0.4,0-0.8-0.5-0.7-0.8c0.1-0.4,0.3-0.6,0.7-0.7C212.7,260.7,213.1,261.1,213.1,261.5
			z"/>
		<path d="M348.5,233.3c-0.4-0.1-0.6-0.4-0.6-0.8c0-0.4,0.2-0.6,0.6-0.6c0.4,0,0.7,0.2,0.7,0.7C349.2,233.1,348.9,233.3,348.5,233.3
			z"/>
		<path d="M290.7,50.7c0.3,0.1,0.6,0.2,0.6,0.6c0,0.4-0.2,0.7-0.7,0.7c-0.4,0-0.6-0.3-0.6-0.7C290.1,50.9,290.4,50.8,290.7,50.7z"/>
		<path d="M104.4,195.2c0,0.4-0.2,0.5-0.6,0.5c-0.4,0-0.6-0.1-0.6-0.5c0-0.4,0.2-0.6,0.6-0.6C104.1,194.7,104.4,194.8,104.4,195.2z"
			/>
		<path d="M145,127.6c-0.2,0-0.5-0.1-0.4-0.5c0-0.4,0.3-0.6,0.6-0.6c0.3,0,0.7,0.1,0.7,0.5C145.9,127.5,145.5,127.6,145,127.6z"/>
		<path d="M400.2,205.1c0,0.3-0.2,0.5-0.6,0.5c-0.3,0-0.5-0.2-0.5-0.5c0-0.3,0.3-0.5,0.5-0.5C399.9,204.6,400.2,204.7,400.2,205.1z"
			/>
		<path d="M152,149.5c0,0.3-0.2,0.5-0.5,0.6c-0.3,0.1-0.8-0.4-0.8-0.6c0.1-0.3,0.4-0.4,0.6-0.5C151.7,149,151.9,149.2,152,149.5z"/>
		<path d="M396.2,200c0.3,0.1,0.5,0.2,0.5,0.5c0,0.3-0.2,0.5-0.6,0.5c-0.3,0-0.5-0.2-0.4-0.5C395.7,200.2,395.9,200,396.2,200z"/>
		<path d="M233.3,58.5c0.3,0,0.4,0.2,0.4,0.5c0,0.3-0.2,0.4-0.4,0.4c-0.3,0-0.5-0.1-0.5-0.4C232.8,58.7,232.9,58.6,233.3,58.5z"/>
		<path d="M177.6,233.7c0,0.3-0.1,0.5-0.4,0.5c-0.2,0-0.3-0.1-0.3-0.4c0-0.3,0.1-0.4,0.4-0.5C177.6,233.4,177.6,233.5,177.6,233.7z"
			/>
		<path d="M176.4,199.7c0,0.2-0.1,0.4-0.3,0.3c-0.2,0-0.3,0-0.3-0.3c0-0.2,0.2-0.4,0.4-0.4C176.3,199.4,176.4,199.5,176.4,199.7z"/>
		<path d="M123,204.1c-0.2,0-0.3-0.1-0.3-0.3c0-0.2,0.1-0.3,0.3-0.3c0.2,0,0.3,0,0.3,0.2C123.3,204,123.2,204.1,123,204.1z"/>
		<path d="M267.8,170.1c0.3,0.2,0.4,0.2,0.4,0.2c0.9,2.4,2.7,4.1,4.5,5.9c0.7,0.7,1.3,1.4,1.9,2.1c0.4,0.5,0.3,0.8,0,1.3
			c-0.6,0.9-2.1,1.5-3.1,1.3c0,0-0.1,0-0.1,0c-2.3-0.5-3-1.2-3.3-3.5c0-0.1,0-0.2,0-0.2C267.9,174.9,268.1,172.6,267.8,170.1z"/>
		<path d="M227,133.4c0,1-1.5,2.4-2.4,2.2c-1.1-0.1-1.5-0.8-1.3-1.8c0.1-0.7,0.2-1.3,0.8-1.8c0.6-0.4,1.1-0.4,1.7-0.2
			C226.6,132.3,227,132.8,227,133.4z"/>
		<path d="M273.3,130.4c0,0.6-0.5,1.2-1.1,1.4c-0.6,0.2-1.1,0.1-1.5-0.4c-0.5-0.5-0.8-1.1-1.3-1.6c-0.4-0.3-0.2-0.9,0.1-1.3
			c0.4-0.4,0.8-0.6,1.3-0.2c0.4,0.3,0.8,0.5,1.4,0.6C272.8,128.9,273.3,129.7,273.3,130.4z"/>
		<path d="M246.5,125.5c0.7,0.3,1.6,0.5,2.4,1.1c0.7,0.6,0.5,1.6-0.2,2c-0.4,0.2-0.9,0.4-1.4,0.1c-0.6-0.3-1.3-0.6-1.8-1.1
			c-0.4-0.3-0.5-0.9-0.3-1.4C245.4,125.7,245.8,125.5,246.5,125.5z"/>
		<path d="M272.2,111.6c-0.1,0.9-0.5,1.9-1.5,1.8c-0.8,0-1.7-1-1.7-1.9c0-0.8,0.8-1.6,1.6-1.6C271.4,110,272.2,110.8,272.2,111.6z"
			/>
		<path d="M264.3,125.7c-0.6,0.1-0.8-0.3-1-0.8c-0.3-0.8,0.3-2.1,1.1-2.5c0.9-0.4,1.9,0.1,2,1.2
			C266.5,124.7,265.5,125.7,264.3,125.7z"/>
		<path d="M275.3,113c-0.8,0-1.5-0.8-1.5-1.5c0-0.8,0.8-1.5,1.6-1.5c0.7,0,1.6,1,1.6,1.7C277,112.3,276.1,113,275.3,113z"/>
		<path d="M257,114.6c0.3,0,0.6,0,0.8,0.1c0.6,0.2,0.8,0.6,0.8,1.2c0,0.5-0.3,0.9-0.8,1.1c-0.6,0.3-1.2,0.2-1.9,0
			c-0.5-0.2-0.7-0.6-0.7-1.1c0-0.5,0.3-0.9,0.8-1.1C256.4,114.7,256.7,114.7,257,114.6z"/>
		<path d="M231.3,136.9c0.1-1,0.7-1.4,1.6-1.5c0.8,0,1.5,0.8,1.4,1.6c-0.1,0.8-0.7,1.4-1.5,1.4C231.9,138.4,231.3,137.7,231.3,136.9
			z"/>
		<path d="M268.5,97.9c0-0.8,0.7-1.4,1.5-1.4c0.8,0,1.4,0.7,1.4,1.5c0,0.7-0.8,1.5-1.5,1.4C269.2,99.4,268.5,98.6,268.5,97.9z"/>
		<path d="M278.1,116.9c-1-0.1-1.7-0.7-1.7-1.4c0-0.6,0.7-1.2,1.4-1.1c1,0.1,1.6,0.6,1.6,1.4C279.4,116.4,278.8,116.9,278.1,116.9z"
			/>
		<path d="M275.2,102.4c0,0.8-0.5,1.3-1.4,1.2c-0.8,0-1.2-0.5-1.2-1.3c0-0.8,0.5-1.3,1.3-1.2C274.7,101.1,275.2,101.6,275.2,102.4z"
			/>
		<path d="M258.5,127.7c0.7,0,1.3,0.7,1.2,1.4c0,0.7-0.6,1.2-1.3,1.2c-0.7,0-1.3-0.6-1.2-1.3C257.2,128.3,257.9,127.7,258.5,127.7z"
			/>
		<path d="M252.2,134c0.6,0,1.2,0.5,1.3,1.2c0.1,0.7-0.5,1.3-1.2,1.4c-0.7,0-1.2-0.5-1.3-1.1C250.9,134.7,251.5,134,252.2,134z"/>
		<path d="M269.7,121.1c0-0.8,0.5-1.5,1.1-1.5c0.6,0,1.1,0.7,1.1,1.5c0,0.7-0.5,1.2-1.2,1.2C270.1,122.2,269.7,121.7,269.7,121.1z"
			/>
		<path d="M278.8,121.2c0.6,0,1.2,0.6,1.2,1.1c0,0.6-0.6,1.2-1.2,1.2c-0.6,0-1.2-0.7-1.2-1.3C277.6,121.6,278.2,121.1,278.8,121.2z"
			/>
		<path d="M246.5,135.5c-0.6,0-1.2-0.5-1.2-1c0-0.6,0.5-1.2,1.2-1.3c0.6,0,1.2,0.6,1.2,1.2C247.6,135,247.1,135.5,246.5,135.5z"/>
		<path d="M241.4,124c0.5,0,1.2,0.6,1.2,1.2c0,0.5-0.6,1.1-1.1,1.1c-0.5,0-1.2-0.6-1.2-1.1C240.3,124.7,240.9,124.1,241.4,124z"/>
		<path d="M241.6,134.5c0,0.5-0.6,1-1.1,1c-0.5-0.1-1-0.6-0.9-1.1c0-0.6,0.6-1,1.1-1C241.2,133.5,241.6,134,241.6,134.5z"/>
		<path d="M236.6,128.9c0,0.5-0.6,1.1-1.1,1.1c-0.4,0-1-0.6-1-1c0-0.5,0.6-1.1,1.1-1C236,127.9,236.6,128.4,236.6,128.9z"/>
		<path d="M242.3,138.5c0,0.5-0.6,1.1-1.1,1.1c-0.4,0-1-0.6-1-1c0-0.5,0.6-1.1,1.1-1C241.8,137.5,242.3,138,242.3,138.5z"/>
		<path d="M261.7,134c-0.5,0-1.1-0.6-1.1-1.1c0-0.5,0.5-1,1-1c0.5,0,1,0.5,1.1,0.9C262.8,133.4,262.2,134,261.7,134z"/>
		<path d="M260.4,119.4c0,0.5-0.5,1-1,1c-0.5,0-1-0.4-1-0.9c0-0.5,0.5-1.1,1-1.1C259.9,118.4,260.4,118.9,260.4,119.4z"/>
		<path d="M252.5,120.5c-0.1,0.6-0.4,1-1,0.9c-0.5,0-0.8-0.5-0.8-1.1c0-0.6,0.5-1,1-0.9C252.2,119.4,252.5,119.9,252.5,120.5z"/>
		<path d="M251.7,129.4c0,0.5-0.4,0.9-0.9,0.9c-0.5,0-0.9-0.5-0.9-1c0-0.5,0.5-1,0.9-1C251.2,128.2,251.7,128.8,251.7,129.4z"/>
		<path d="M255.1,134.9c0.4,0,0.8,0.4,0.7,0.8c0,0.4-0.5,0.8-0.8,0.7c-0.4-0.1-0.6-0.3-0.7-0.7C254.3,135.2,254.7,134.8,255.1,134.9
			z"/>
		<path d="M262.7,114c0.6-0.1,0.8,0.2,1.1,0.4c0.3,0.2,0.3,0.5,0.1,0.7c-0.2,0.3-0.5,0.2-0.7-0.1C263,114.8,262.9,114.4,262.7,114z"
			/>
		<path d="M266.4,110.3c-0.2,0-0.5-0.1-0.4-0.3c0-0.2,0.3-0.4,0.5-0.4c0.3,0,0.4,0.1,0.4,0.4C266.9,110.4,266.6,110.3,266.4,110.3z"
			/>
		<path d="M323,159c0,0.7-0.5,1.1-1.1,1.2c-0.7,0-1.2-0.5-1.2-1.2c0-0.7,0.5-1.1,1.1-1.1C322.6,157.9,323,158.3,323,159z"/>
		<path d="M333.7,161.2c-0.6,0-1.1-0.5-1.1-1c0-0.5,0.6-1,1.1-1c0.5,0,1.1,0.6,1.1,1.1C334.8,160.8,334.3,161.2,333.7,161.2z"/>
		<path d="M319.4,155.2c-0.6,0-1.1-0.4-1.1-1c0-0.6,0.5-1.1,1-1.1c0.6,0,1.1,0.5,1.1,1C320.5,154.8,320.1,155.2,319.4,155.2z"/>
		<path d="M329.8,161.2c0,0.6-0.5,1.2-1,1.2c-0.5,0-0.9-0.7-0.9-1.2c0-0.5,0.5-0.9,1-0.9C329.4,160.3,329.8,160.7,329.8,161.2z"/>
		<path d="M337.8,154c0.4,0.1,0.5,0.3,0.5,0.7c0,0.4-0.3,0.5-0.6,0.5c-0.4,0-0.6-0.2-0.5-0.6C337.2,154.3,337.4,154.1,337.8,154z"/>
		<path d="M334.1,156.5c0,0.3-0.1,0.5-0.5,0.5c-0.4,0-0.8-0.3-0.7-0.6c0.1-0.3,0.4-0.5,0.7-0.5C334,156,334.1,156.2,334.1,156.5z"/>
		<path d="M337.9,161.7c0,0.3-0.2,0.5-0.5,0.5c-0.4,0-0.6-0.1-0.7-0.5c0-0.3,0.3-0.6,0.6-0.6C337.7,161.1,338,161.3,337.9,161.7z"/>
		<path d="M327.1,154.4c0,0.2-0.1,0.4-0.3,0.3c-0.2,0-0.3,0-0.3-0.3c0-0.2,0.2-0.4,0.4-0.4C327,154,327.1,154.2,327.1,154.4z"/>
	</g>
</g>
<g id="Layer_10">
</g>
<g id="Layer_9">
</g>
<g id="Layer_8">
</g>
<g id="Layer_7">
</g>
<g id="Layer_6">
</g>
<g id="Layer_5">
</g>
<g id="Layer_4">
</g>
<g id="Layer_3">
</g>
</svg>
