<?xml version="1.0" encoding="utf-8"?>
<!-- Generator: Adobe Illustrator 25.0.1, SVG Export Plug-In . SVG Version: 6.00 Build 0)  -->
<svg version="1.1" xmlns="http://www.w3.org/2000/svg" xmlns:xlink="http://www.w3.org/1999/xlink" x="0px" y="0px"
	 viewBox="0 0 566.9 228.3" style="enable-background:new 0 0 566.9 228.3;" xml:space="preserve">
<g id="Layer_1">
</g>
<g id="Layer_13">
</g>
<g id="Layer_12">
	<g>
		<path d="M420.6,76.1c2.9,0.2,6.1-0.1,9.2-0.3c3-0.2,6.1-0.2,9.1-0.1c3.9,0.1,7.8,0.7,11.6,1.5c1.2,0.2,2.3,0.5,3.5,0.8
			c3.2,0.7,5.9,2.4,8,4.9c1.1,1.4,2.4,2.6,3.7,3.8c1.2,1.1,2,2.6,2.1,4.3c0.2,2.4,0.2,4.9,0.2,7.3c0,1.6-0.8,2.9-1.9,4
			c-1.8,1.9-3.9,3.3-6,4.8c-3.2,2.3-6.8,3.5-10.6,4.2c-4.6,0.9-9.1,2-13.6,3c-3.7,0.8-7.3,1.5-11,2.3c-5.2,1.1-10.4,2-15.5,3.5
			c-3.1,0.9-6.3,1.9-9.2,3.3c-2.1,1-3.8,2.6-5.3,4.4c-1.7,1.9-3.3,3.8-4.6,5.9c-1.6,2.5-2.7,5.2-2.8,8.2c-0.1,1.5,0.5,2.7,1.2,3.9
			c0.9,1.4,2.2,2.6,3.3,3.9c0.8,0.9,1.5,1.7,2.1,2.7c0.4,0.8,1.1,1.5,1.8,2.1c2.2,2.1,4.1,4.6,5.8,7.1c2.3,3.2,5.3,5.4,9,6.9
			c2.4,0.9,4.8,1.7,7.2,2.6c2.8,0.9,5.5,2,8,3.5c1.1,0.6,2,1.4,2.8,2.4c0.4,0.6,0.6,1.3,0.8,2c0.6,2.6-0.4,4.7-2.1,6.7
			c-2.6,2.9-5.7,5.3-9.1,7.3c-3,1.8-6.1,3.5-9.2,5.1c-3.7,1.9-7.7,3-11.8,3.7c-5.6,1-11.3,1-16.9,0.9c-3.3-0.1-6.4-1-9.3-2.8
			c-3.4-2.2-6.8-4.3-10.6-5.7c-2.6-1-5.3-1.5-8.1-1.8c-4.2-0.4-8.4-0.4-12.6-0.5c-2.4-0.1-4.6,0.6-6.6,1.8c-2.7,1.6-5.4,3.4-8.1,5.1
			c-1.6,1-2.8,2.4-3.2,4.3c-0.1,0.6-0.4,1.2-0.6,1.8c-1,3-2.8,5.6-5,7.8c-2.4,2.3-4.9,4.5-7.5,6.5c-3.2,2.6-6.9,4.2-10.9,5.4
			c-4,1.3-8.2,2-12.4,2.5c-3.7,0.5-7.4,0.9-11.2,1c-1.3,0-2.5,0.1-3.8,0.1c-1.8,0.1-3-0.8-3.8-2.4c-1.4-2.8-2.1-5.8-2-8.9
			c0-2.7,0.2-5.4,0.4-8.1c0.2-2.4,0.4-4.9-0.8-7.3c-0.4-0.7-0.7-1.3-1.1-2c-1.9-2.9-3.9-5.6-6.4-8c-1.6-1.6-3.6-2.5-5.8-2.8
			c-5.6-0.9-11.3-1-16.9-0.7c-2.7,0.1-5.4,0.8-8.1,1.4c-2.9,0.7-5.7,1.3-8.6,2.1c-3.5,1-6.6,2.9-9.3,5.3c-2.3,2.1-4.5,4.2-7,6
			c-2.1,1.5-4.4,2.7-6.9,3.6c-3.9,1.4-7.9,2.4-11.8,3.3c-5.8,1.3-11.6,2.7-17.5,4c-4.1,0.9-8.3,1.7-12.5,1.6c-0.7,0-1.3,0.2-2,0.2
			c-2.9,0-5.7-0.5-8.5-1.1c-4.2-0.9-8.3-2-12.2-3.6c-2.8-1.2-5.4-2.7-7.4-4.9c-2-2.2-3.3-4.8-3.3-7.9c0-1,0.3-1.9,0.8-2.7
			c1-1.6,2.2-3,3.5-4.4c3.5-3.7,7.4-6.9,11.6-9.8c3.1-2.2,6-4.6,8.7-7.3c1.4-1.4,3-2.6,4.7-3.7c0.9-0.6,1.8-1.3,2.6-2.1
			c0.6-0.7,1.1-1.4,1.2-2.3c0.2-1.1,0.2-2.2,0-3.3c-0.2-1.3-1-2.3-2.1-3.1c-2.2-1.6-4.8-2.5-7.4-3.4c-7.5-2.7-15.1-5.3-22.6-8
			c-4.6-1.7-8.9-4-12.9-7c-1.5-1.1-3-2.2-4.7-3.1c-0.6-0.3-1-0.8-1.6-1.1c-1.2-0.7-1.5-1.8-1.7-3c-0.1-0.8,0.3-1.4,0.7-2
			c2.1-2.6,4.4-5,7.1-6.9c0.3-0.2,0.6-0.3,0.7-0.6c0.5-1.2,1.7-1.7,2.6-2.4c0.7-0.5,1.5-0.7,2.3-0.9c0.9-0.3,1.8-0.5,2.8-0.8
			c0.7-0.2,1.3-0.4,1.9-0.9c0.9-0.7,2-0.6,3.1-0.8c0.4-0.1,0.9-0.1,1.3-0.2c1.5-0.3,3-0.2,4.5-0.3c2.5-0.2,4.9-0.3,7.3-0.7
			c1.1-0.2,2.3-0.1,3.5-0.2c2.1-0.3,4.2-0.2,6.3-0.6c2.1-0.4,4.4-0.2,6.5-1.1c0.2-0.1,0.5-0.1,0.7-0.1c2.1,0.2,3.9-0.7,5.7-1.6
			c0.8-0.4,1.6-0.8,2.4-1.3c1.6-1,2.9-2.2,4.2-3.5c1.8-1.7,3.7-3.4,5.5-5.1c1-0.9,1.6-2.1,2.5-3.1c0.3-0.4,0.5-0.8,0.9-1.1
			c0.8-0.8,1-1.8,0.8-2.8c-0.4-2.6-0.9-5.2-1.6-7.7c-0.2-0.7-0.6-1.4-0.8-2.1c-0.9-3.5-2.7-6.5-4.3-9.7c-0.1-0.2-0.2-0.5-0.5-0.6
			c-0.6-0.1-0.9-0.5-1.2-1c-2-3.1-3.7-6.2-5-9.7c-0.6-1.6-0.8-3.3-0.8-5c-0.1-2,0.1-4,0-6c-0.1-2.9,0.6-5.5,1.9-8.1
			c1-2.1,2-4.3,3-6.4c1.1-2.2,2.6-4.1,4.7-5.5c4.1-2.8,8.4-5.1,13.1-6.5c1.7-0.5,3.5-0.8,5.3-0.9c3.5-0.2,7,0,10.4,1.1
			c2.3,0.7,4.4,1.8,6.1,3.6c1.4,1.4,3.1,2.4,4.8,3.3c1.8,1,3.4,2.2,4.8,3.7c2.2,2.4,5,3.5,8.2,3.8c1.4,0.1,2.9,0.2,4.3,0.2
			c3.7,0.2,7.2-0.4,10.7-1.4c5.7-1.7,11.5-3,17.2-4.8c3.3-1,6.4-2.3,9.7-3.5c7.8-2.9,15.5-5.9,23.3-8.7c5.6-1.9,11.2-3.6,17.1-4.3
			c2.4-0.3,4.9-0.5,7.4-0.8c3.2-0.3,6.4-0.6,9.7-0.5c1,0,1.9,0.2,2.8,0.5c1.5,0.6,2.2,1.8,2.4,3.4c0.4,3.1-0.8,5.5-2.8,7.7
			c-1.6,1.7-3.2,3.3-4.9,4.9c-1.4,1.4-2.5,3-3.2,4.9c-0.7,2.1-1.7,4.1-2.5,6.1c-0.7,1.7-0.9,3.5-1.1,5.2c-0.1,0.6,0.2,1.1,0.8,1.5
			c0.6,0.4,1.2,0.6,1.9,0.6c2.6,0.1,5.1,0.2,7.7,0c4.6-0.3,9.1-1.3,13.2-3.5c2.6-1.5,5.4-2.7,8.3-3.7c3.9-1.3,7.8-2.1,11.9-2.4
			c2.4-0.2,4.9-0.2,7.3-0.2c2.8,0,5.5-0.3,8.2-0.6c2.5-0.3,4.9-0.5,7.4-0.6c1.8-0.1,3.5-0.1,5.3-0.1c0.8,0,1.5,0.1,2.3,0.2
			c2.3,0.5,3.6,2.1,4.7,4c0.6,1.1,0.3,2.2-0.4,3.2c-0.7,0.9-1.5,1.8-2.4,2.5c-2.3,2-4.4,4.1-6.2,6.5c-1.6,2.2-2.7,4.5-3.6,7
			c-0.2,0.7-0.2,1.4-0.3,2.1c-0.1,1.1,0.7,1.8,1.5,2.4c1.2,0.9,2.6,1.3,4.1,1.6c3.2,0.7,6.5,1,9.7,1.1c3.5,0.1,7,0.3,10.5,0.5
			c2.8,0.2,5.6,0.7,8.4,1.2C413.7,75.9,417.1,76.2,420.6,76.1z M128.2,191.5c-0.1,0.1-0.1,0.1-0.2,0.2c-0.3,0-0.4,0.2-0.5,0.4
			c-0.8,1.3-1.3,2.6-1.9,4c-0.2,0.5-0.7,0.9-0.6,1.5c0.2,1.5,0,3.1,0.1,4.6c0,0.3,0.1,0.4,0.3,0.6c1.2,0.7,2.6,1.3,3.9,1.8
			c1.6,0.6,2.8,1.4,3.6,2.7c0.2,0.3,0.4,0.5,0.7,0.7c1,0.6,1,0.8,0.6,1.8c-0.1,0.1-0.1,0.3,0.1,0.5c1.7-0.1,3.4,0.1,5.2-0.1
			c0-0.1-0.1-0.2-0.1-0.4c-0.1-0.5-0.1-1,0.4-1.3c0.5-0.3,0.9-0.2,1.3,0c0.5,0.3,0.9,0.6,0.9,1.2c0,0.6,0.3,0.6,0.8,0.6
			c0.5,0,1-0.1,1.4-0.1c1.7,0.1,3.4,0,5.1,0c1.1,0,2.2-0.3,3.3-0.3c1.3,0,2.7-0.2,4-0.2c1.1,0,2.1-0.5,3.2-0.5
			c1.4,0,2.8-0.3,4.3-0.5c2.3-0.3,4.6-1,6.9-1.3c1.5-0.2,3.1-0.5,4.6-0.7c1.4-0.2,2.8-0.4,4.2-0.8c2.9-0.9,5.6-2.3,8.4-3.7
			c1-0.5,2-1.2,3-1.6c1.1-0.5,2.1-1.2,3.2-1.7c0.6-0.3,1.2-0.6,1.7-1.1c1.1-1.1,2.5-1.7,3.8-2.5c1.6-0.9,3.3-1.7,5-2.5
			c1.8-1,3.7-1.7,5.5-2.5c1.1-0.5,2.3-0.9,3.4-1.4c1-0.5,2-0.8,3.1-0.9c0.8-0.1,1.5-0.3,2.1-0.7c1.5-1,3.4-1.2,5-2c0,0,0.1,0,0.1,0
			c1.7-0.1,3.4-0.9,5.2-0.5c0.2,0,0.4,0,0.6,0c0.5-0.2,1-0.1,1.5,0c0.5,0.1,0.9,0.1,1.4,0.1c0.6-0.1,1.2,0,1.8,0.1
			c1.2,0.3,2.5,0.4,3.8,0.5c2.2,0.2,4.3,0.5,6.5,0.5c0.4,0,0.9,0.2,1.3,0.3c0.3,0.1,0.6,0.2,0.9,0.2c1.3,0.1,2.6,0.6,3.9,0.6
			c0.3,0,0.7,0.2,1,0.4c1.2,0.5,2.4,0.9,3.7,1.4c1.3,0.5,2.6,1.1,3.9,1.7c0.4,0.2,0.6,0.3,1,0c0.4-0.3,0.8-0.3,1.2,0
			c0.4,0.3,0.5,0.8,0.3,1.2c-0.3,0.5,0,0.8,0.3,1.1c0.8,0.7,1.4,1.5,1.7,2.6c0.1,0.3,0.3,0.6,0.5,0.8c0.4,0.6,0.7,1.2,0.8,1.8
			c0.5,2.1,1.4,4,1.8,6.1c0.3,1.4,1,2.6,1.2,4c0.1,0.9,0.4,1.8,0.8,2.6c1,1.8,0.8,3.8,1.3,5.7c0,0.1,0,0.3,0,0.5
			c-0.2,0.7-0.1,1.3,0,2c0.1,1,0.5,1.9,0.7,2.9c0.1,0.4,0.2,1,0.7,1.2c0.8,0.4,1.5,0.8,2.1,1.5c0.2,0.2,0.4,0.2,0.7,0.2
			c0.4,0,0.7,0.1,1.1,0.1c1.2,0,2.4,0,3.7-0.1c1.5-0.1,2.8-0.8,4.2-1.2c2.9-0.8,5.6-2.1,8.5-3.2c2.9-1.1,5.2-3.1,7.5-5
			c0.9-0.7,1.7-1.5,2.7-2.2c1.1-0.8,2-1.9,3.1-2.8c0.7-0.5,1.4-1.1,2-1.7c1-1,1.9-2.1,3-2.9c1.4-0.9,2.1-2.4,3.1-3.6
			c0.8-1,1.6-2.2,2.4-3.3c0.7-1,1.6-1.9,2.3-2.8c0.2-0.3,0.6-0.5,0.9-0.8c0.3-0.2,0.5-0.4,0.7-0.6c1.2-1.4,2.8-2.1,4.3-3
			c0.4-0.2,0.7-0.4,1-0.6c0.6-0.6,1.3-1,2.2-1.2c1.4-0.3,2.7-0.8,3.9-1.3c1.9-0.7,3.8-0.4,5.6-0.7c0.2,0,0.5,0.1,0.7,0.1
			c0.3,0.1,0.6,0.1,0.9,0.1c1.3,0,2.6,0,3.9,0.1c1.9,0.2,3.9,0.4,5.8,0.3c1.4,0,2.8,0.1,4.3,0.1c2,0.1,3.6,0.8,4.7,2.7
			c0.2,0.3,0.3,0.4,0.6,0.5c0.9,0.2,1.7,0.7,2.6,0.9c1.2,0.3,2.4,0.6,3.6,0.9c1.1,0.3,2.2,0.6,3.2,1c1.5,0.6,2.8,1.4,4.2,2.2
			c0.8,0.5,1.8,0.6,2.7,0.6c1.3,0.1,2.5,0,3.8,0.2c1.3,0.3,2.5,0.3,3.8,0.2c0.5,0,1,0,1.4,0c1.1,0,2.2,0,3.3,0.1
			c1.1,0,2.2-0.2,3.3-0.4c1-0.1,2-0.3,3-0.6c1.3-0.4,2.6-1,4-1.1c0.8-0.1,1.7-0.3,2.5-0.5c1.5-0.5,3-0.6,4.4-0.7
			c1.7-0.2,3.4-0.2,5.1-0.3c0.7-0.1,1.6,0,2.2-0.4c0.8-0.6,1.8-1.1,2.6-1.6c0.9-0.6,1.8-1.3,2.8-1.7c1.3-0.6,2.2-1.5,3-2.8
			c0.7-1.1,1.3-2.3,2.6-2.9c0.1-0.1,0.2-0.2,0.3-0.3c0.8-0.8,1.2-1.9,1.7-2.9c0.3-0.6,0.5-1.4,0.4-2.1c0-0.3,0-0.5-0.2-0.8
			c-0.6-0.7-1.2-1.4-2-1.8c-2.5-1.3-5.2-2.1-8-2.7c-1.5-0.3-3.1-0.8-4.6-1.1c-1.8-0.4-3.5-0.9-5.1-1.5c-1.6-0.5-3.2-1-4.7-1.6
			c-1.3-0.5-2.7-1-3.9-1.8c-1.2-0.8-2.6-1.4-3.6-2.5c-0.8-0.7-1.5-1.5-2.3-2.2c-1.2-1-1.9-2.3-3-3.2c-0.2-0.2-0.4-0.5-0.5-0.8
			c-0.2-0.4-0.4-0.7-0.7-1c-0.7-0.5-1.1-1.3-1.4-2.1c-0.1-0.3-0.2-0.6-0.5-0.8c-0.6-0.5-0.8-1.3-1.1-2c-0.5-1.5-1.1-3-1.6-4.6
			c-0.5-1.8-0.3-3.5-0.8-5.3c0-0.1,0-0.2,0-0.4c0.3-1,0.4-2,0.4-2.9c0.1-0.7,0.3-1.3,0.6-1.9c0.1-0.3,0.3-0.5,0.3-0.8
			c0.3-1.8,1.5-3.2,2.3-4.7c0.4-0.8,0.8-1.7,1.5-2.3c1.1-1,1.9-2.4,3-3.4c0.7-0.6,1.5-1.2,2.1-1.9c1.1-1.4,2.7-2.1,4.1-3.1
			c1.8-1.2,3.8-2.1,5.7-3.1c0.6-0.3,1.2-0.4,1.8-0.7c1.5-0.9,3.3-1.1,5-1.6c1.5-0.5,3-0.8,4.5-1.1c1.3-0.3,2.6-0.6,3.9-0.9
			c1.3-0.3,2.6-0.5,4-0.8c1.3-0.4,2.5-0.6,3.8-0.8c1.3-0.2,2.5-0.6,3.7-0.9c1.3-0.3,2.7-0.7,4-1.1c1.3-0.4,2.6-0.8,3.9-1.2
			c1.3-0.4,2.6-0.7,3.9-1.2c1.2-0.4,2.4-0.9,3.6-1.3c1.4-0.4,2.7-1.1,4.1-1.5c0.8-0.2,1.6-0.7,2.5-0.9c2.3-0.5,4.6-1.4,6.7-2.5
			c1.1-0.6,2.1-1.4,2.8-2.5c0.5-0.8,1-1.5,1.5-2.3c0.9-1.2,1.2-2.6,1.4-4c0.1-0.4,0.1-0.9-0.2-1.3c-0.5-0.7-0.9-1.5-1.5-2.2
			c-1.1-1.2-2.4-2.2-3.6-3.3c-0.6-0.6-1.3-1.1-2.1-1.4c-1.5-0.5-3.1-0.8-4.7-1c-1.7-0.3-3.4-0.6-5-0.8c-1.3-0.2-2.5-0.5-3.7-0.6
			c-1.4-0.2-2.8-0.4-4.1-0.5c-1.4-0.2-2.7-0.5-4.1-0.6c-1.3-0.1-2.5-0.3-3.8-0.5c-1.1-0.2-2.3-0.3-3.4-0.4c-1.6-0.1-3.1-0.4-4.7-0.5
			c-0.4,0-0.8-0.2-1.3-0.2c-1.2,0-2.4-0.2-3.6-0.4c-1.4-0.2-2.9-0.3-4.3-0.7c-1.7-0.4-3.4-0.5-5.2-0.7c-1-0.1-2-0.3-3.1-0.4
			c-1.2,0-2.4-0.2-3.6-0.3c-1.4-0.2-2.9,0.1-4.2-0.5c-0.1,0-0.2,0-0.2,0c-0.9,0.3-1.6-0.2-2.5-0.2c-0.9,0-1.7,0.1-2.6-0.2
			c-0.3-0.1-0.5-0.1-0.8-0.1c-1.7-0.1-3.5-0.5-5.2-0.9c-1.4-0.3-2.7-0.8-4.1-1.3c-1.7-0.6-3.2-1.6-4.8-2.4c-0.7-0.4-1.3-1-1.7-1.8
			c-0.2-0.5-0.6-1-1-1.3c-0.8-0.7-1.3-1.7-1.5-2.8c-0.3-1.6-0.2-3.3,0.2-4.9c0.4-1.8,1.3-3.5,2.5-4.9c0.2-0.2,0.5-0.5,0.6-0.7
			c0.7-1.3,1.7-2.3,2.7-3.2c1.2-1.1,1.7-2.6,3.1-3.4c-0.7-0.8-1.5-0.6-2.2-0.7c-1.1-0.3-2.3-0.5-3.4-0.5c-1.3,0-2.7-0.1-4-0.2
			c-1.6-0.1-3.2-0.4-4.8-0.2c-0.2,0-0.3,0-0.5-0.1c-0.6-0.1-1.2-0.1-1.8-0.1c-1.1,0-2.1,0.1-3.2,0.1c-1.2,0-2.4,0.2-3.6,0.4
			c-2.4,0.4-4.8,1-7.2,1.6c-0.8,0.2-1.7,0.3-2.4,0.6c-1.4,0.6-2.8,0.8-4.2,1.2c-2.2,0.7-4.4,1.4-6.7,2.1c-1.1,0.3-2.1,0.9-3.3,1.1
			c-1.3,0.3-2.4,0.7-3.6,1.1c-1.7,0.6-3.4,0.7-5.1,1.3c-0.8,0.2-1.6,0.1-2.3,0.3c-1.5,0.3-3,0.3-4.5,0c-0.8-0.1-1.6-0.5-2.4-0.6
			c-0.9-0.1-1.7-0.5-2.4-0.9c-0.3-0.2-0.7-0.4-1.1-0.6c-1.8-0.7-2.9-2-3.4-3.9c-0.1-0.4-0.2-0.8-0.4-1.1c-0.9-1.5-1-3.1-0.4-4.7
			c0.2-0.4,0.3-0.8,0.3-1.3c0-0.7,0.3-1.3,0.6-1.9c0.8-1.3,1.3-2.6,1.8-4c0.3-0.9,0.7-1.9,1.1-2.8c1-1.9,2.2-3.8,3.2-5.7
			c0.6-1.1,1.1-2.3,1.6-3.5c0.4-0.9-0.1-1.5-1.1-1.6c-1.1-0.1-2.2,0.1-3.2-0.2c-0.2-0.1-0.5-0.1-0.7,0c-1,0.4-2.2,0.5-3.2,0.8
			c-0.8,0.3-1.6,0.2-2.3,0.5c-1.2,0.6-2.7,0.5-3.9,1.2c-0.1,0.1-0.2,0-0.4,0.1c-1.3,0.1-2.5,0.7-3.8,1c-1.3,0.3-2.5,0.8-3.7,1.1
			c-1.4,0.4-2.7,0.8-4.1,1.2c-1.2,0.4-2.4,0.7-3.6,1.1c-1.4,0.4-2.7,0.9-4.1,1.2c-1.1,0.3-2.1,0.6-3.2,1c-1.4,0.5-2.9,0.9-4.3,1.3
			c-1.2,0.3-2.4,0.8-3.6,1.2c-2.3,0.6-4.5,1.3-6.7,2c-1,0.3-2,0.7-3,1.1c-1.6,0.5-3.2,1-4.8,1.4c-0.9,0.2-1.7,0.8-2.5,1
			c-1.7,0.5-3.3,1-4.9,1.8c-0.3,0.1-0.5,0.2-0.8,0.2c-1.3,0.2-2.4,0.7-3.6,1.2c-1.6,0.6-3.2,0.9-4.9,1.2c-1.4,0.2-2.8,0.5-4.2,0.7
			c-1.4,0.2-2.8,0-4.2,0.4c-0.2,0-0.4,0-0.6,0c-1.2-0.3-2.4-0.2-3.6-0.2c-2.1,0-3.9-0.7-5.8-1.4c-0.9-0.3-1.9-0.5-2.7-1
			c-1.2-0.8-2.7-1.3-3.9-2.2c-0.6-0.5-1.2-1-1.9-1.4c-1.4-0.7-2.4-1.8-3.6-2.8c-1-0.8-2-1.5-2.9-2.2c-1.6-1.2-3.4-2-5.3-2.7
			c-0.9-0.3-1.8-0.7-2.7-0.9c-1.3-0.3-2.6-0.4-3.9-0.5c-0.8-0.1-1.6-0.2-2.4-0.1c-2.8,0.3-5.5,0.5-8.3,1c-0.7,0.1-1.4,0.4-2.2,0.5
			c-2.1,0.3-3.9,1.1-5.7,2.2c-0.7,0.5-1.4,1-2.1,1.5c-2,1.5-3.6,3.2-4.8,5.4c-0.4,0.7-0.5,1.5-0.8,2.2c-0.7,1.6-1.1,3.3-1.3,4.9
			c-0.3,3.1,0.2,6.3,0.8,9.3c0.3,1.6,0.8,3.1,1.3,4.6c0.8,2.5,1.5,5,2.3,7.5c0.7,2.1,1.7,3.9,2.5,5.9c0.2,0.6,0.3,1.3,0.6,1.8
			c0.8,1.2,1,2.6,1.6,3.9c0.3,0.7,0.6,1.5,0.8,2.2c0.4,1.6,0.9,3.2,1.2,4.8c0.3,1.8,0.2,3.5,0.1,5.2c0,0.5-0.2,1-0.5,1.5
			c-0.2,0.3-0.3,0.6-0.4,0.9c-0.2,0.9-0.6,1.7-1.2,2.3c-0.9,0.8-1.6,1.7-2.4,2.5c-0.2,0.2-0.4,0.3-0.6,0.4c-1.5,0.6-2.8,1.5-3.8,2.9
			c-0.4,0.6-1.1,1.1-1.4,1.8c-0.8,1.8-2.5,2.5-3.8,3.6c-0.5,0.4-1.1,0.5-1.7,0.8c-1.2,0.6-2.2,1.5-3.5,1.8c-0.6,0.1-1.1,0.4-1.7,0.6
			c-0.8,0.3-1.6,0.8-2.3,1.3c-1,0.7-2.1,1.3-3.2,1.7c-1.7,0.7-3.4,1.5-5.3,1.8c1.1,0.8,1.4,1.4,0.9,2.2c-0.4,0.6-1.2,0.8-1.8,0.5
			c-0.3-0.2-0.5-0.5-0.6-0.8c-0.2-0.6,0.1-1,0.4-1.6c-2.5,0.4-4.7,1.2-7.1,1.3c-1.2,0.1-2.5,0.4-3.7,0.4c-1.9,0.1-3.8,0.5-5.6,0.7
			c-1.5,0.2-3,0.4-4.6,0.5c-0.6,0-1.4,0.1-1.9,0.6c-1.2,1.2-2.8,1.6-4.2,2.1c-1.8,0.6-3.5,1.3-5.3,2.1c-1.9,0.8-3.7,1.8-5.4,3
			c-0.9,0.7-2,1.2-2.8,2.1c0.5,0.4,0.9,0.7,1.3,1c1.4,0.8,3.1,1,4.4,2.1c1.6,0.2,2.6,1.5,4,2c1.2,0.4,2.3,1,3.5,1.4
			c0.9,0.3,1.9,0.1,2.8,0.5c1.1,0.4,2.3,0.7,3.4,0.9c2.2,0.5,4.3,1.3,6.5,2c0.9,0.3,2,0.5,2.8,1c1,0.7,2.1,1,3.2,1.3
			c1.2,0.4,2.2,1,3.5,1.2c0.2,0,0.4,0.1,0.5,0.3c1.2,0.9,2.6,1.2,3.9,2.1c1.2,0.8,2.4,1.6,3.6,2.3c0.5,0.2,0.8,0.7,1.1,1.1
			c0.2,0.3,0.4,0.5,0.6,0.7c1.6,1.1,2.4,2.8,3.3,4.3c0.4,0.7,0.9,1.4,1,2.3c0.2,1.8,1.2,3.5,0.6,5.4c0,0.1,0,0.2,0,0.4
			c0.3,1.2-0.1,2.3-0.7,3.3c-0.6,1-1.3,1.9-2,2.8c-1.2,1.4-2.6,2.7-4,3.9c-0.6,0.5-1,1.2-1.7,1.7c-1.6,1.1-3.1,2.3-4.4,3.8
			c-0.8,0.9-1.7,1.7-2.6,2.4c-1.2,0.9-2.4,1.9-3.6,2.7c-0.8,0.6-1.3,1.5-2.1,1.9c-1.6,0.8-2.5,2.3-3.7,3.5
			C128.4,190.8,128.2,191.1,128.2,191.5z"/>
		<path d="M128.2,191.5c0.3-0.2,0.6-0.4,1-0.2c0.5,0.2,0.8,0.7,0.7,1.2c-0.1,0.6-0.7,0.9-1.3,0.8c-0.5-0.1-0.9-0.6-0.8-1.1
			c0-0.2,0.1-0.4,0.2-0.6C128.1,191.6,128.1,191.5,128.2,191.5z"/>
		<path d="M360.5,115.1c0.9-0.1,1.9,0.1,2.9,0.4c2.4,0.5,4,3.3,3.5,5.6c-0.4,2.4-1.1,4.7-2.2,6.9c-1.3,2.7-2.8,5.1-4.3,7.7
			c-0.9,1.6-2.3,2.8-3.6,4c-0.6,0.5-1.2,1.1-1.8,1.7c-0.9,1.1-2.3,1.8-3.8,1.7c-1.6-0.1-3.2-0.2-4.7-0.8c-2.3-1-3.8-2.7-4.6-5
			c-0.7-2-0.3-3.9,0.3-5.8c1.5-4.5,4.2-8.4,7.1-12c0.8-1,1.9-1.6,2.9-2.2C354.7,116,357.8,115,360.5,115.1z M345,135.3
			c-0.2,1,0.3,2,1.4,2.8c0.7,0.5,1.5,0.5,2.3,0.7c2,0.3,3.7-0.2,5.4-1.3c1.1-0.8,1.9-1.8,2.7-2.8c1.5-2,3-4,4.2-6.2
			c0.2-0.4,0.5-0.9-0.3-1.1c-0.2-0.1-0.3-0.4-0.2-0.6c0.1-0.2,0.3-0.4,0.5-0.3c0.9,0.4,1.2-0.3,1.5-0.9c0.7-1.6,1-3.3,1.3-4.9
			c0.1-0.5-0.1-0.8-0.5-1.1c-1.1-0.8-2.4-0.8-3.7-0.6c-2.4,0.5-4.5,1.8-6.6,3c-2,1.1-3.4,2.9-5,4.4c-0.3,0.3-0.5,0.7-0.7,1.1
			c-0.3,0.8-0.7,1.5-1.1,2.3C345.3,131.3,345,133.1,345,135.3z"/>
		<path d="M213.9,168.2c-1.6-0.2-3.2-0.3-4.8-0.6c-1-0.2-1.9-0.4-2.9-0.5c-1.5-0.1-2.9-0.6-4-1.5c-2.3-2-4.7-3.9-6.3-6.5
			c-1.4-2.2-1.2-4.6,0.5-6.6c1-1.2,2.2-1.8,3.7-2.3c3.6-1.2,7.1-0.7,10.4,1c3.2,1.7,5.5,4.3,6.8,7.7c0.5,1.1,0.6,2.3,0.5,3.5
			c-0.1,1-0.1,2.1-0.4,3.1C216.8,167.4,215.9,168.3,213.9,168.2z M208.3,164.7c-0.2-0.8,0-1.2,0.5-1.5c0.3-0.2,0.7-0.1,1,0.1
			c0.7,0.5,0.2,1.1,0.1,1.6c0.6,0.3,1.2,0.2,1.7,0.4c0.6,0.3,1,0.1,1.4-0.4c0.4-0.5,0.7-0.9,0.7-1.6c0-0.9,0.1-1.7,0.1-2.6
			c0-1.3-0.5-2.4-1.6-3.1c-0.7-0.5-1.3-0.9-2-1.4c-2.4-1.8-5-2.9-8-3.1c-0.7-0.1-1.4,0-2.1,0.3c-1.1,0.5-1.6,1.5-1.2,2.6
			c0.2,0.5,0.5,1,0.7,1.5c0.7,1.5,2.1,2.4,3,3.7C204,163.3,206,163.9,208.3,164.7z"/>
		<path d="M250.1,92.9c0-1.6,0.5-2.4,1.8-2.9c0.8-0.3,1.7-0.5,2.5-0.7c0.7-0.2,1.5,0.2,2.2,0.3c2.1,0.3,4,1.2,6,1.9c0,0,0.1,0,0.1,0
			c2,1.3,3.9,2.7,5,5c0.4,0.9,0.5,1.9-0.6,2.9c-1.5,1.3-3.2,2-5.1,2.6c-0.5,0.1-0.9,0.2-1.4,0.3c-0.8,0.2-1.6,0.5-2.2-0.4
			c-0.1-0.1-0.3-0.2-0.4-0.2c-1.8-0.6-3.4-1.6-4.8-2.8c-1.2-1-2-2.4-2.6-3.8C250.4,94.3,250,93.6,250.1,92.9z M261.3,99.5
			c0.6,0.1,1-0.1,1.4-0.3c1.4-0.7,1.6-1.5,0.7-2.8c-0.6-1-1.4-1.9-2.4-2.5c-1.3-0.8-2.8-1.6-4.3-1.9c-1.1-0.2-2.1-0.5-3.3-0.1
			c-0.9,0.3-1.2,0.7-0.9,1.6c1.1,3.5,3.8,5.4,7.3,6.7c-0.6-0.7-0.8-1.2-0.3-1.8c0.3-0.4,0.7-0.5,1.2-0.3
			C261.4,98.3,261.4,98.9,261.3,99.5z"/>
		<path d="M367.4,187.1c-0.7,0-1.1,0-1.4-0.3c-0.4-0.3-0.5-0.8-0.2-1.2c0.8-1.1,3.1-1.4,4.2-0.6c0.5,0.3,0.4,0.6,0.2,1
			c-0.2,0.3-0.5,0.7-0.9,0.8C368.6,186.9,367.8,187,367.4,187.1z"/>
		<path d="M216.5,52.8c0-0.6,0.3-1.2,0.9-1.4c0.6-0.2,1.9,0.2,2.4,0.7c0.4,0.4,0.4,0.9,0.2,1.5c0,0,0,0.1-0.1,0.1
			c-0.4,0.7-1,0.8-2.2,0.5C217,54,216.5,53.5,216.5,52.8z"/>
		<path d="M174.1,111c-0.6,0-1.1,0.1-1.3-0.6c-0.2-0.6,0.1-1,0.5-1.3c0.6-0.5,1.3-0.7,2-0.8c0.6-0.1,1.3,0.3,1.5,0.7
			c0.2,0.5-0.1,1.1-0.7,1.5C175.5,110.8,174.9,111.1,174.1,111z"/>
		<path d="M400.8,188.4c-0.2,0.6-0.2,1.3-1,1.7c-0.7,0.4-1.4,0.3-1.9-0.4c-0.5-0.6-0.5-1.4,0.1-2c0.4-0.4,0.9-0.7,1.5-0.8
			C400.1,186.9,400.8,187.5,400.8,188.4z"/>
		<path d="M412.8,109.6c0.9,0,1.6,0.7,1.6,1.4c0,0.7-0.8,1.5-1.5,1.6c-0.7,0-1.5-0.8-1.5-1.5C411.3,110.2,412,109.6,412.8,109.6z"/>
		<path d="M426,109.8c-0.4-0.1-0.8-0.1-1.1-0.3c-0.5-0.2-0.8-0.6-0.8-1.2c0.1-0.5,0.6-1,1.2-1c0.5,0,1.1,0.1,1.6,0.3
			c0.5,0.2,0.8,0.6,0.7,1.1c0,0.5-0.3,0.9-0.8,1.1C426.6,109.8,426.3,109.8,426,109.8z"/>
		<path d="M359.9,69.1c-0.6,0-1.2-0.2-1.8-0.3c-0.6-0.1-0.9-0.8-0.8-1.4c0.1-0.6,0.7-1.1,1.2-0.9c0.8,0.3,1.6,0.5,2.2,1.1
			c0.3,0.3,0.6,0.7,0.4,1C360.9,69.1,360.4,69,359.9,69.1z"/>
		<path d="M156.2,167.5c0.8,0,1.6,0.7,1.6,1.5c0,0.8-0.7,1.5-1.5,1.6c-0.7,0-1.6-0.7-1.6-1.5C154.7,168.4,155.2,167.5,156.2,167.5z"
			/>
		<path d="M134.8,128.6c0.9,0,1.5,0.5,1.6,1.3c0,0.7-0.9,1.5-1.7,1.5c-0.7,0-1.4-0.7-1.4-1.4C133.2,129.3,134,128.6,134.8,128.6z"/>
		<path d="M128.7,199.8c-0.1,0-0.4,0-0.7-0.2c-0.5-0.2-0.8-0.6-0.8-1.2c0-0.7,0.8-1.3,1.7-1.2c0.7,0,1.3,0.5,1.4,1.2
			C130.4,199.3,129.9,199.8,128.7,199.8z"/>
		<path d="M184.6,101c0,0.9-0.7,1.4-1.8,1.4c-0.7,0-1.2-0.4-1.2-1c0-0.7,1-1.7,1.7-1.8C184,99.6,184.6,100.2,184.6,101z"/>
		<path d="M404.8,178.9c0,0.7-0.7,1.5-1.4,1.5c-0.7,0-1.4-0.7-1.4-1.3c0-0.7,0.6-1.4,1.3-1.5C404,177.5,404.8,178.2,404.8,178.9z"/>
		<path d="M343.4,181c-0.3,0-0.6,0-0.8,0c-0.6-0.1-0.9-0.6-0.9-1.2c0-0.6,0.6-1.1,1.1-1c0.8,0.2,1.6,0.3,2.2,1
			c0.3,0.3,0.4,0.4,0,0.8C344.5,181,344,181,343.4,181z"/>
		<path d="M151.2,127.8c-1,0-1.6-0.4-1.6-1.1c0-0.7,0.9-1.5,1.7-1.5c0.7,0,1.3,0.6,1.3,1.3C152.5,127.1,151.9,127.8,151.2,127.8z"/>
		<path d="M324,187c0,0.7-0.8,1.4-1.6,1.4c-0.7,0-1.2-0.5-1.3-1.2c0-0.7,0.9-1.5,1.7-1.5C323.4,185.8,324,186.4,324,187z"/>
		<path d="M143.8,188.3c0,0.7-0.7,1.4-1.4,1.4c-0.7,0-1.4-0.7-1.4-1.5c0-0.7,0.7-1.4,1.4-1.3C143,187,143.8,187.7,143.8,188.3z"/>
		<path d="M161.3,121.9c0,0.7-0.7,1.4-1.4,1.4c-0.7,0-1.4-0.6-1.4-1.2c0-0.7,0.6-1.4,1.4-1.3C160.9,120.8,161.4,121.3,161.3,121.9z"
			/>
		<path d="M154.6,149.4c-0.8,0-1.4-0.7-1.3-1.4c0.1-0.6,0.8-1.3,1.4-1.3c0.7,0,1.4,0.8,1.4,1.5C156,148.9,155.3,149.5,154.6,149.4z"
			/>
		<path d="M215,181.9c0,0.8-0.6,1.3-1.4,1.3c-0.7,0-1.3-0.7-1.3-1.5c0-0.7,0.7-1.3,1.4-1.2C214.5,180.5,215.1,181.2,215,181.9z"/>
		<path d="M386.9,119.9c0,0.8-0.5,1.4-1.3,1.4c-0.7,0-1.4-0.6-1.4-1.3c0-0.6,0.7-1.4,1.4-1.4C386.3,118.6,386.9,119.2,386.9,119.9z"
			/>
		<path d="M388.3,173.9c0.6,0.3,1.5,0.5,2.2,1.1c0.4,0.3,0.2,0.7-0.2,0.7c-0.7,0.1-1.4,0-2.1,0.2c-0.4,0.1-1.1-0.6-1.2-1
			C386.8,174.3,387.3,173.9,388.3,173.9z"/>
		<path d="M149.1,203.8c0,0.7-0.5,1.3-1.3,1.3c-0.7,0-1.3-0.6-1.4-1.3c0-0.6,0.7-1.3,1.3-1.4C148.5,202.4,149.1,203.1,149.1,203.8z"
			/>
		<path d="M153.7,201.3c-0.7,0-1.3-0.6-1.3-1.3c0-0.7,0.6-1.3,1.4-1.3c0.7,0,1.3,0.6,1.2,1.3C155,200.7,154.4,201.3,153.7,201.3z"/>
		<path d="M274.6,217.6c0.7,0,1.4,0.5,1.4,1.2c0,0.7-0.7,1.4-1.4,1.4c-0.6,0-1.2-0.7-1.2-1.4C273.4,218.1,273.9,217.6,274.6,217.6z"
			/>
		<path d="M377,167.4c-1.1,0-1.7-0.9-1.4-1.9c0.3-0.8,1.1-1,1.7-0.4c0.2,0.2,0.3,0.5,0.5,0.7c0.2,0.3,0.6,0.6,0.3,1.1
			C377.8,167.3,377.4,167.5,377,167.4z"/>
		<path d="M293,46.2c-0.7,0-1.2-0.6-1.2-1.2c0-0.6,0.6-1.2,1.2-1.2c0.8,0,1.5,0.6,1.5,1.2C294.5,45.6,293.8,46.2,293,46.2z"/>
		<path d="M380.4,127.5c-0.6,0-1.4-0.6-1.4-1c0-0.5,0.9-1.4,1.4-1.4c0.7,0,1.2,0.6,1.2,1.2C381.6,127,381,127.5,380.4,127.5z"/>
		<path d="M161.8,159.4c-0.5,0.1-1-0.1-1.3-0.6c-0.2-0.4-0.2-0.8,0-1.2c0.3-0.4,0.6-0.6,1.1-0.6c0.4,0.1,0.8,0.2,1,0.7
			c0.1,0.2,0.1,0.5,0.1,0.7C162.8,159.3,162.8,159.4,161.8,159.4z"/>
		<path d="M243.3,180.1c0-0.6,0.6-1.3,1.2-1.3c0.7,0,1.3,0.7,1.3,1.4c0,0.6-0.6,1.1-1.3,1.1C243.8,181.2,243.3,180.8,243.3,180.1z"
			/>
		<path d="M366.9,145.3c0-0.7,0.6-1.3,1.3-1.3c0.6,0,1.2,0.6,1.2,1.3c0,0.7-0.7,1.3-1.3,1.3C367.4,146.5,366.9,145.9,366.9,145.3z"
			/>
		<path d="M323.2,61c0-0.7,0.7-1.3,1.3-1.2c0.6,0,1.2,0.7,1.2,1.3c0,0.6-0.6,1.2-1.2,1.2C323.8,62.3,323.2,61.7,323.2,61z"/>
		<path d="M384,182.9c0.7,0,1.2,0.5,1.2,1.2c0,0.7-0.4,1.2-1.1,1.2c-0.7,0-1.6-0.8-1.6-1.4C382.6,183.5,383.3,183,384,182.9z"/>
		<path d="M159.6,175.3c-0.7,0-1.2-0.5-1.2-1.2c0-0.7,0.6-1.2,1.3-1.2c0.8,0,1.3,0.5,1.2,1.2C160.9,174.9,160.3,175.4,159.6,175.3z"
			/>
		<path d="M415.4,91.6c-0.7,0-1.2-0.4-1.3-1.1c0-0.7,0.5-1.2,1.2-1.3c0.7,0,1.2,0.5,1.3,1.2C416.6,91.1,416.1,91.6,415.4,91.6z"/>
		<path d="M411.1,181.5c0,0.6-0.5,1.2-1.1,1.2c-0.6,0-1.2-0.5-1.3-1.1c0-0.6,0.5-1.3,1.1-1.3C410.4,180.3,411.1,180.9,411.1,181.5z"
			/>
		<path d="M166.3,198.6c0,0.6-0.5,1.2-1.1,1.2c-0.6,0-1.2-0.5-1.3-1.2c0-0.6,0.6-1.3,1.2-1.3C165.7,197.3,166.3,197.9,166.3,198.6z"
			/>
		<path d="M371.9,151.7c0.6,0,1.2,0.6,1.2,1.2c0,0.6-0.6,1.2-1.2,1.2c-0.6,0-1.1-0.5-1.2-1.1C370.7,152.4,371.3,151.7,371.9,151.7z"
			/>
		<path d="M275.7,210.6c0,0.6-0.6,1.2-1.2,1.2c-0.6,0-1.2-0.6-1.2-1.3c0-0.6,0.7-1.2,1.3-1.2C275.2,209.3,275.8,209.9,275.7,210.6z"
			/>
		<path d="M229.4,50.5c0.6,0,1.2,0.6,1.3,1.2c0,0.6-0.5,1.2-1.1,1.3c-0.6,0-1.2-0.6-1.3-1.2C228.2,51.1,228.8,50.5,229.4,50.5z"/>
		<path d="M157.2,126.5c0.6,0,1.2,0.5,1.2,1.2c0,0.6-0.5,1.2-1.2,1.3c-0.7,0-1.2-0.5-1.2-1.2C156,127.2,156.6,126.5,157.2,126.5z"/>
		<path d="M362.6,65.4c-0.6,0-1.2-0.6-1.2-1.3c0-0.6,0.6-1.2,1.2-1.2c0.7,0,1.3,0.7,1.2,1.3C363.8,64.9,363.2,65.4,362.6,65.4z"/>
		<path d="M443.4,88.6c0.6,0,1.2,0.6,1.3,1.2c0,0.6-0.5,1.2-1.1,1.3c-0.6,0-1.2-0.5-1.3-1.2C442.2,89.3,442.8,88.6,443.4,88.6z"/>
		<path d="M396.4,116c0.6,0,1.2,0.6,1.2,1.2c0,0.6-0.6,1.2-1.2,1.2c-0.6,0-1.2-0.6-1.2-1.2C395.2,116.5,395.8,115.9,396.4,116z"/>
		<path d="M386.9,169.3c-0.7,0-1.2-0.5-1.3-1.1c0-0.6,0.6-1.2,1.2-1.2c0.6,0,1.2,0.5,1.2,1.2C388.1,168.8,387.6,169.3,386.9,169.3z"
			/>
		<path d="M372.4,131.1c0.6,0,1.2,0.6,1.2,1.2c0,0.6-0.5,1.2-1.2,1.2c-0.7,0-1.2-0.5-1.2-1.2C371.2,131.7,371.8,131.1,372.4,131.1z"
			/>
		<path d="M178.3,196.7c-0.9,0-1.3-0.4-1.3-1c0-0.6,0.7-1.1,1.5-1.1c0.7,0,1.2,0.5,1.1,1.1C179.5,196.3,179,196.7,178.3,196.7z"/>
		<path d="M160.2,204.6c-0.8,0-1.1-0.4-1.3-1.1c-0.1-0.6,0.6-1.2,1.2-1.3c0.7,0,1.2,0.5,1.2,1.2C161.4,204.2,161,204.6,160.2,204.6z
			"/>
		<path d="M202.7,186.2c0,0.7-0.5,1.2-1.2,1.1c-0.7,0-1.2-0.6-1.2-1.2c0-0.6,0.7-1.2,1.3-1.2C202.2,185,202.7,185.5,202.7,186.2z"/>
		<path d="M183.4,94.5c0.7,0,1.2,0.5,1.2,1.2c0,0.5-0.6,1.1-1.2,1.1c-0.6,0-1.2-0.6-1.2-1.2C182.2,94.9,182.7,94.5,183.4,94.5z"/>
		<path d="M385.9,83.1c0.7,0,1.5,0.8,1.5,1.5c0,0.5-0.4,0.9-1,0.9c-0.6,0-1.3-0.7-1.3-1.5C385.1,83.5,385.4,83.1,385.9,83.1z"/>
		<path d="M283.3,208.8c0,0.7-0.5,1.1-1.1,1.1c-0.7,0-1.2-0.4-1.1-1.2c0-0.7,0.5-1.1,1.1-1.1C282.7,207.5,283.3,208.1,283.3,208.8z"
			/>
		<path d="M180,41c0-0.7,0.5-1.1,1.1-1.1c0.7,0,1.1,0.5,1.1,1.1c0,0.7-0.5,1.2-1.2,1.2C180.4,42.2,180,41.7,180,41z"/>
		<path d="M228,56.4c0.7,0,1.3,0.4,1.3,1.1c0,0.6-0.4,1.1-1,1.1c-0.6,0-1.4-0.7-1.4-1.2C226.9,57,227.4,56.4,228,56.4z"/>
		<path d="M374.7,158.6c-0.8,0-1.1-0.4-1.1-1.1c0-0.6,0.5-1,1.1-1c0.7,0,1.3,0.6,1.3,1.4C376,158.2,375.4,158.6,374.7,158.6z"/>
		<path d="M286.8,214.1c0,0.5-0.6,1.2-1.1,1.2c-0.6,0-1.2-0.5-1.2-1.1c0-0.7,0.5-1.2,1.2-1.2C286.2,213,286.7,213.5,286.8,214.1z"/>
		<path d="M361.9,180.7c0,0.7-0.5,1.1-1.2,1c-0.6,0-1-0.5-1-1.1c0-0.6,0.5-1.1,1.1-1.1C361.5,179.5,361.9,180,361.9,180.7z"/>
		<path d="M312.7,188.1c0,0.7-0.4,1.1-1.1,1.1c-0.7,0-1-0.4-1-1.1c0-0.7,0.5-1.2,1.1-1.2C312.3,187,312.7,187.4,312.7,188.1z"/>
		<path d="M344.1,59.6c0-0.7,0.5-1.1,1.2-1.1c0.7,0,1.1,0.5,1.1,1.2c0,0.6-0.6,1.1-1.2,1.1C344.5,60.8,344.1,60.2,344.1,59.6z"/>
		<path d="M308.9,56c0,0.7-0.3,1-1,1c-0.7,0-1.4-0.5-1.4-1.1c0-0.5,0.7-1.1,1.3-1.1C308.5,54.9,308.9,55.4,308.9,56z"/>
		<path d="M333.3,184.3c-0.6,0-1.1-0.5-1.1-1.1c0-0.6,0.5-1.1,1.2-1.1c0.7,0,1.1,0.4,1.1,1.1C334.4,183.8,334,184.3,333.3,184.3z"/>
		<path d="M168.9,193.2c0.6,0,1.1,0.6,1.1,1.2c0,0.6-0.5,1-1.1,1c-0.6,0-1.1-0.6-1.1-1.2C167.8,193.7,168.4,193.2,168.9,193.2z"/>
		<path d="M170.9,119.3c0,0.7-0.3,1.1-1.1,1.1c-0.7,0-1.1-0.4-1.1-1c0-0.6,0.4-1.1,1.1-1.2C170.5,118.2,170.9,118.6,170.9,119.3z"/>
		<path d="M309.3,197.4c0,0.6-0.7,1.2-1.3,1.2c-0.4,0-1-0.6-1.1-1c-0.1-0.5,0.5-1.1,1.1-1.1C308.9,196.5,309.3,196.8,309.3,197.4z"
			/>
		<path d="M183.9,198.6c-0.7,0-1.1-0.5-1.1-1.2c0-0.6,0.5-1,1.1-1c0.6,0,1.1,0.6,1,1.2C185,198.3,184.6,198.6,183.9,198.6z"/>
		<path d="M208.6,183.4c0.6,0,1.1,0.5,1.1,1.1c0,0.5-0.5,1-1,1.1c-0.6,0-1.1-0.5-1.1-1.1C207.6,184,208.1,183.4,208.6,183.4z"/>
		<path d="M329.6,65c-0.6,0-0.9-0.4-0.9-1c0.1-0.5,0.8-1.2,1.3-1.1c0.6,0,0.9,0.4,0.9,1C331,64.5,330.4,65,329.6,65z"/>
		<path d="M181.5,108.2c-0.7,0-1.1-0.5-1.1-1.2c0-0.6,0.5-1,1.1-1c0.6,0,1.1,0.6,1.1,1.2C182.6,107.8,182.2,108.2,181.5,108.2z"/>
		<path d="M388.8,193.3c-0.6,0-1.1-0.5-1.1-1.1c0-0.5,0.5-1.1,1.1-1.1c0.6,0,1.1,0.5,1.1,1C390,192.9,389.5,193.3,388.8,193.3z"/>
		<path d="M222.8,181.9c0,0.6-0.4,1-1,1c-0.6,0-1.2-0.6-1.1-1.2c0-0.5,0.6-1.1,1.1-1.1C222.3,180.7,222.8,181.3,222.8,181.9z"/>
		<path d="M303.8,201.5c-0.6,0-1.1-0.5-1.1-1c0-0.6,0.5-1.1,1.2-1.1c0.6,0,1.1,0.5,1,1.2C304.8,201.2,304.5,201.5,303.8,201.5z"/>
		<path d="M289.9,204.3c0.6,0,1,0.5,1,1.1c0,0.6-0.5,1.1-1.1,1.1c-0.6,0-1.1-0.7-1.1-1.2C288.8,204.8,289.5,204.2,289.9,204.3z"/>
		<path d="M192.1,192.2c0,0.6-0.4,1-1,1c-0.6,0-1.2-0.6-1.1-1.2c0-0.5,0.6-1.1,1.1-1.1C191.6,191.1,192.1,191.6,192.1,192.2z"/>
		<path d="M239,178.7c0,0.6-0.5,1-1.1,1c-0.6,0-1.1-0.4-1.1-1c0-0.6,0.6-1.1,1.2-1.1C238.6,177.6,239,178.1,239,178.7z"/>
		<path d="M156.9,203.7c0.5,0,1,0.6,1,1.1c0,0.6-0.5,1.1-1.2,1c-0.6,0-1-0.5-1-1.1C155.8,204.2,156.4,203.6,156.9,203.7z"/>
		<path d="M241.9,56.7c0,0.6-0.4,1-1,1.1c-0.6,0-1.1-0.4-1.1-1c0-0.6,0.5-1.2,1.1-1.2C241.4,55.6,241.9,56.1,241.9,56.7z"/>
		<path d="M413.2,87.5c0,0.6-0.5,1-1.1,1c-0.6,0-1.1-0.5-1.1-1.1c0-0.5,0.6-1.1,1.1-1.1C412.6,86.4,413.2,87,413.2,87.5z"/>
		<path d="M296.5,207.5c0,0.6-0.5,1-1.1,1c-0.6,0-1.1-0.5-1.1-1.1c0-0.5,0.7-1.1,1.2-1.1C296,206.4,296.5,206.9,296.5,207.5z"/>
		<path d="M143.1,141.6c0,0.6-0.4,1-1,1.1c-0.6,0-1.2-0.5-1.2-1.1c0-0.5,0.7-1.1,1.1-1.1C142.6,140.6,143.1,141.1,143.1,141.6z"/>
		<path d="M354,54.6c0,0.5-0.5,1-1,1c-0.6,0-1.1-0.5-1.1-1c0-0.5,0.5-1.1,1.1-1.1C353.5,53.6,354,54.1,354,54.6z"/>
		<path d="M178.7,54.3c0,0.7-0.4,1.1-1.1,1.1c-0.5,0-1-0.4-1-0.9c0-0.5,0.6-1.2,1.1-1.2C178.2,53.2,178.6,53.7,178.7,54.3z"/>
		<path d="M113.6,131.4c-0.6,0-1.1-0.5-1-1.1c0-0.5,0.5-1,1-1c0.6,0,1.2,0.6,1.1,1.2C114.7,131,114.2,131.5,113.6,131.4z"/>
		<path d="M337.6,58c0.5,0,1,0.4,1,0.9c0,0.5-0.5,1.1-1.1,1.1c-0.5,0-1.1-0.5-1.1-1.1C336.5,58.4,337,58,337.6,58z"/>
		<path d="M110.2,134.1c-0.5,0-1.1-0.5-1.1-1c0-0.5,0.6-1,1.1-1c0.6,0,1,0.4,1,1C111.2,133.6,110.8,134.1,110.2,134.1z"/>
		<path d="M142.2,200c0,0.7-0.3,1-0.9,1c-0.6,0-1-0.4-1-0.9c0-0.5,0.5-1.1,1.1-1.1C141.9,199,142.2,199.3,142.2,200z"/>
		<path d="M150.9,185.2c-0.7,0-1.2-0.5-1.1-1c0.1-0.5,0.7-0.9,1.2-0.9c0.6,0.1,0.9,0.5,0.9,1C151.9,184.9,151.5,185.2,150.9,185.2z"
			/>
		<path d="M162.5,152.7c0,0.5-0.5,1-1,1c-0.5,0-1-0.4-0.9-1c0-0.5,0.5-1,1-1C162.1,151.8,162.5,152.2,162.5,152.7z"/>
		<path d="M241,52.4c0,0.6-0.4,1-1,1c-0.5,0-1-0.4-1-1c0-0.5,0.5-1,1-1C240.6,51.4,241,51.9,241,52.4z"/>
		<path d="M367.7,52.6c0,0.7-0.2,1-0.9,1c-0.6,0-1.1-0.4-1.1-1c0-0.5,0.5-1,1-1C367.3,51.7,367.7,52.1,367.7,52.6z"/>
		<path d="M392.6,183.9c0,0.6-0.3,1-0.9,1c-0.6,0-1-0.4-1-1.1c0-0.5,0.4-0.9,0.9-0.9C392.1,182.9,392.6,183.3,392.6,183.9z"/>
		<path d="M151.1,144c0,0.7-0.2,1-0.9,1c-0.6,0-1.1-0.4-1.1-1c0-0.5,0.5-1,1-1C150.7,143.1,151,143.4,151.1,144z"/>
		<path d="M308.1,60.9c0,0.5-0.4,0.9-0.9,0.9c-0.5,0-1-0.4-1-1c0-0.5,0.5-1,1-1C307.7,59.8,308.2,60.3,308.1,60.9z"/>
		<path d="M139.5,183.9c0,0.5-0.5,1-1,1c-0.5,0-0.9-0.5-0.9-0.9c0-0.5,0.4-1,0.9-1C139,182.9,139.5,183.4,139.5,183.9z"/>
		<path d="M157.3,190.9c0,0.7-0.3,1-0.9,1c-0.6,0-1-0.4-1-1c0-0.5,0.5-1,1-1C156.9,189.9,157.3,190.3,157.3,190.9z"/>
		<path d="M135.4,186.3c0.5,0,1,0.4,1,1c0,0.5-0.4,0.9-0.9,1c-0.5,0-1-0.4-1.1-0.9C134.4,186.8,134.9,186.3,135.4,186.3z"/>
		<path d="M179,47.4c0,0.3-0.1,0.5-0.4,0.6c-0.4,0.2-1.6-0.3-1.7-0.7c-0.1-0.4-0.1-0.7,0.2-1c0.3-0.3,0.7-0.3,1.1-0.1
			C178.7,46.5,178.9,46.9,179,47.4z"/>
		<path d="M398.5,85.9c-0.8,0-1.2-0.3-1.2-0.9c0-0.6,0.3-0.9,1-0.9c0.7,0,1.1,0.4,1.1,0.9C399.5,85.6,399.1,85.9,398.5,85.9z"/>
		<path d="M303.9,43.1c0,0.7-0.2,1-0.9,1c-0.7,0-1.1-0.3-1.1-0.9c0-0.5,0.4-1,1-1C303.6,42.2,303.9,42.5,303.9,43.1z"/>
		<path d="M179.9,65.1c-0.5,0-1-0.4-1-0.9c0-0.5,0.5-1,1-1c0.5,0,1,0.4,1,1C180.8,64.8,180.5,65.1,179.9,65.1z"/>
		<path d="M372.3,190.2c-0.5,0-0.9-0.4-0.9-0.9c0-0.5,0.5-1,1-1c0.6,0,1,0.5,0.9,1C373.4,189.9,373,190.3,372.3,190.2z"/>
		<path d="M290,38.9c0,0.6-0.4,1-0.9,1c-0.5,0-1-0.4-1-0.9c0-0.4,0.5-1,0.9-1.1C289.5,37.9,290,38.4,290,38.9z"/>
		<path d="M382,195.3c0,0.6-0.4,0.9-1,0.9c-0.6,0-1-0.4-0.9-1c0-0.5,0.5-0.9,1-0.9C381.6,194.3,382.1,194.8,382,195.3z"/>
		<path d="M183.6,82.9c0,0.6-0.3,1-0.9,1c-0.6,0-1-0.3-1-0.9c0-0.5,0.4-0.9,0.9-1C183.1,82,183.6,82.4,183.6,82.9z"/>
		<path d="M274.4,43.4c-0.6,0-1-0.4-1-0.9c0-0.5,0.4-1,1-1c0.6,0,1,0.3,1,0.9C275.4,43,275.1,43.4,274.4,43.4z"/>
		<path d="M174.3,120.2c-0.5,0-0.9-0.4-1-0.9c0-0.5,0.6-1.1,1.1-1c0.5,0,0.9,0.4,0.8,1C175.3,119.8,174.9,120.2,174.3,120.2z"/>
		<path d="M301.7,196.5c0,0.6-0.3,1-0.9,1c-0.6,0-1-0.4-1-1c0-0.5,0.6-1,1.1-0.9C301.4,195.5,301.7,195.9,301.7,196.5z"/>
		<path d="M249.2,54.2c-0.5,0-1-0.5-0.9-1c0.1-0.4,0.6-0.9,1-0.9c0.6,0,1,0.4,0.9,1C250.1,53.9,249.8,54.2,249.2,54.2z"/>
		<path d="M187.9,90.5c0.5,0,0.9,0.5,0.9,1c0,0.5-0.4,0.9-0.9,0.9c-0.5,0-1-0.5-0.9-1C186.9,90.9,187.4,90.5,187.9,90.5z"/>
		<path d="M402.2,89.4c0,0.5-0.5,1-1,1c-0.4,0-0.9-0.5-0.9-0.9c0-0.5,0.4-0.9,1-0.9C401.8,88.5,402.2,88.8,402.2,89.4z"/>
		<path d="M147.9,197.8c0,0.5-0.5,0.9-1,0.8c-0.5,0-1-0.5-0.9-1c0.1-0.5,0.5-0.8,1-0.8C147.5,196.8,147.9,197.3,147.9,197.8z"/>
		<path d="M352.5,64c0,0.5-0.3,0.7-0.9,0.7c-0.6,0-0.9-0.4-0.8-0.9c0-0.5,0.4-0.8,0.9-0.8C352.3,63,352.6,63.4,352.5,64z"/>
		<path d="M146.4,132.6c-0.5,0.1-0.8-0.2-0.9-0.7c-0.1-0.5,0.4-0.9,0.8-1c0.5,0,1,0.4,1,0.8C147.4,132.3,147,132.6,146.4,132.6z"/>
		<path d="M200.7,51.7c-0.5,0-0.8-0.3-0.8-0.8c0-0.5,0.4-0.9,0.9-0.9c0.5,0,0.8,0.4,0.8,0.8C201.6,51.4,201.3,51.7,200.7,51.7z"/>
		<path d="M131.8,204.3c0-0.5,0.4-0.9,0.9-0.8c0.6,0,0.8,0.4,0.8,0.9c0,0.6-0.4,0.7-0.8,0.8C132.1,205.2,131.8,204.8,131.8,204.3z"
			/>
		<path d="M373.1,149.4c-0.1,0-0.2,0-0.3,0c-0.5,0-1-0.1-0.9-0.6c0-0.5,0.6-0.6,1-0.6c0.1,0,0.3,0,0.5,0.1c0.4,0.1,0.8,0.3,0.7,0.8
			C374,149.5,373.5,149.4,373.1,149.4z"/>
		<path d="M186.7,192.4c-0.7,0-0.9-0.3-0.9-0.8c0-0.5,0.2-0.8,0.8-0.8c0.6,0,0.9,0.3,0.9,0.9C187.5,192.2,187.2,192.4,186.7,192.4z"
			/>
		<path d="M137.4,123.4c0,0.5-0.4,0.8-0.9,0.7c-0.5,0-0.8-0.4-0.8-0.8c0-0.5,0.5-0.9,0.9-0.9C137.2,122.5,137.4,122.8,137.4,123.4z"
			/>
		<path d="M128.3,133.5c-0.5,0-0.8-0.3-0.9-0.8c0-0.5,0.4-1,0.8-1c0.5,0,0.8,0.3,0.9,0.8C129.2,133.2,128.9,133.5,128.3,133.5z"/>
		<path d="M149.6,140.8c-0.6,0-1-0.3-1-0.8c0-0.5,0.3-0.8,0.8-0.8c0.5-0.1,0.9,0.3,0.9,0.9C150.3,140.5,150.1,140.8,149.6,140.8z"/>
		<path d="M196.9,190c-0.6,0-0.8-0.2-0.8-0.8c0-0.5,0.3-0.9,0.9-0.9c0.5,0,0.8,0.3,0.8,0.8C197.8,189.7,197.5,190,196.9,190z"/>
		<path d="M273,191.7c0,0.6-0.2,0.7-0.8,0.7c-0.5,0-0.8-0.3-0.9-0.8c0-0.5,0.4-0.9,0.9-0.9C272.7,190.7,273,191,273,191.7z"/>
		<path d="M190.2,40.7c0,0.6-0.2,0.8-0.8,0.8c-0.6,0-0.9-0.3-0.9-0.8c0-0.5,0.4-0.8,0.8-0.8C189.9,39.8,190.2,40.1,190.2,40.7z"/>
		<path d="M183.9,77c-0.5,0-0.8-0.3-0.8-0.8c0-0.5,0.4-0.9,0.9-0.9c0.5,0,0.8,0.3,0.8,0.8C184.8,76.8,184.6,77,183.9,77z"/>
		<path d="M122.7,125.2c-0.6,0-1-0.3-0.9-0.8c0-0.4,0.4-0.8,0.9-0.8c0.5,0,0.8,0.3,0.8,0.9C123.5,125,123.2,125.2,122.7,125.2z"/>
		<path d="M126.5,128.1c0,0.5-0.3,0.9-0.8,0.9c-0.4,0-0.9-0.3-0.9-0.8c-0.1-0.5,0.4-1,0.8-1C126.1,127.2,126.5,127.6,126.5,128.1z"
			/>
		<path d="M402.6,111.2c-0.4,0-0.9-0.3-0.9-0.8c-0.1-0.4,0.3-0.9,0.7-1c0.4-0.1,0.9,0.4,1,0.8C403.4,110.8,403.1,111.2,402.6,111.2z
			"/>
		<path d="M368.2,75c0,0.3-0.6,0.7-1,0.7c-0.4,0-0.9-0.5-0.9-0.8c0-0.4,0.5-0.8,0.9-0.7C367.7,74.1,368.2,74.6,368.2,75z"/>
		<path d="M299.5,36.9c0,0.5-0.4,0.7-0.9,0.7c-0.5,0-0.8-0.3-0.8-0.8c0-0.5,0.4-0.8,0.9-0.8C299.1,36,299.5,36.5,299.5,36.9z"/>
		<path d="M121.4,135.1c0,0.5-0.4,0.9-0.9,0.9c-0.6,0-0.8-0.4-0.8-0.8c-0.1-0.4,0.4-0.9,0.9-0.8C121,134.3,121.4,134.7,121.4,135.1z
			"/>
		<path d="M274.1,202.7c0.5,0,0.9,0.2,0.9,0.7c0,0.4-0.3,0.8-0.8,0.9c-0.4,0-0.9-0.4-0.9-0.8C273.3,203.1,273.7,202.7,274.1,202.7z"
			/>
		<path d="M137.8,202.7c0,0.5-0.3,0.8-0.8,0.8c-0.5,0-0.9-0.4-0.8-0.8c0-0.4,0.5-0.8,0.9-0.8C137.4,201.8,137.8,202.2,137.8,202.7z"
			/>
		<path d="M348.7,184.8c-0.1,0.4-0.3,0.6-0.8,0.6c-0.5,0-0.8-0.2-0.9-0.7c0-0.5,0.3-0.9,0.8-0.8
			C348.2,183.9,348.7,184.3,348.7,184.8z"/>
		<path d="M298.2,48c0.4,0,0.9,0.4,0.8,0.9c-0.1,0.4-0.3,0.7-0.8,0.7c-0.5,0-0.9-0.4-0.9-0.8C297.4,48.4,297.8,48,298.2,48z"/>
		<path d="M310.1,28.8c0.4,0,0.7,0.2,0.7,0.7c0,0.5-0.3,0.8-0.8,0.9c-0.4,0-0.9-0.4-0.9-0.8C309.2,29.3,309.7,28.8,310.1,28.8z"/>
		<path d="M337.8,66.2c-0.5-0.1-0.7-0.3-0.7-0.8c0-0.5,0.3-0.7,0.8-0.7c0.4,0,0.8,0.4,0.7,0.9C338.6,65.9,338.3,66.1,337.8,66.2z"/>
		<path d="M338.9,184.2c-0.4,0.1-0.7-0.1-0.7-0.6c0-0.4,0.2-0.8,0.7-0.8c0.5,0,0.8,0.3,0.8,0.8C339.7,184,339.5,184.2,338.9,184.2z"
			/>
		<path d="M194.7,42.6c0,0.5-0.2,0.8-0.7,0.8c-0.4,0-0.8-0.2-0.8-0.7c0-0.5,0.2-0.8,0.7-0.8C194.3,41.8,194.6,42.1,194.7,42.6z"/>
		<path d="M182.7,60.8c-0.4,0-0.7-0.3-0.7-0.7c0-0.4,0.3-0.8,0.7-0.8c0.4,0,0.7,0.2,0.8,0.7C183.4,60.5,183.1,60.8,182.7,60.8z"/>
		<path d="M251.5,47.6c0,0.4-0.2,0.7-0.6,0.7c-0.5,0-0.8-0.2-0.8-0.7c0-0.4,0.3-0.8,0.7-0.8C251.2,46.9,251.5,47.2,251.5,47.6z"/>
		<path d="M135.7,138.3c0.4,0.1,0.7,0.2,0.8,0.7c0.1,0.4-0.2,0.8-0.6,0.8c-0.5,0-0.7-0.2-0.8-0.7
			C134.9,138.8,135.3,138.3,135.7,138.3z"/>
		<path d="M431.7,90c-0.5,0-0.8-0.3-0.8-0.7c0-0.4,0.2-0.7,0.7-0.7c0.5,0,0.7,0.3,0.7,0.7C432.4,89.7,432,89.9,431.7,90z"/>
		<path d="M314.6,60c0.4,0,0.7,0.2,0.7,0.7c0,0.4-0.1,0.7-0.6,0.7c-0.5,0-0.8-0.1-0.8-0.6C313.8,60.3,314.2,60,314.6,60z"/>
		<path d="M178.4,58c0,0.5-0.3,0.7-0.7,0.7c-0.5,0-0.7-0.3-0.7-0.8c0-0.4,0.4-0.8,0.8-0.7C178.2,57.3,178.5,57.6,178.4,58z"/>
		<path d="M439.7,93.8c0.3,0,0.6,0.2,0.7,0.6c0.1,0.4-0.2,0.8-0.7,0.8c-0.4,0-0.7-0.2-0.8-0.6C438.8,94.2,439.2,93.8,439.7,93.8z"/>
		<path d="M118.9,129.5c0,0.6-0.3,0.7-0.7,0.7c-0.5,0-0.7-0.3-0.7-0.6c0-0.4,0.2-0.8,0.7-0.8C118.7,128.8,119,129,118.9,129.5z"/>
		<path d="M142.7,137c-0.5,0-0.7-0.3-0.7-0.7c0-0.4,0.4-0.7,0.8-0.7c0.5,0.1,0.7,0.4,0.6,0.8C143.4,136.8,143.1,137,142.7,137z"/>
		<path d="M318.2,63.8c0,0.4-0.3,0.6-0.7,0.7c-0.4,0-0.8-0.3-0.7-0.7c0-0.4,0.3-0.6,0.7-0.6C318,63.2,318.1,63.4,318.2,63.8z"/>
		<path d="M277.5,45.6c0.4,0,0.6,0.3,0.7,0.7c0,0.4-0.4,0.7-0.8,0.6c-0.4-0.1-0.6-0.4-0.6-0.7C276.8,45.8,277.1,45.6,277.5,45.6z"/>
		<path d="M186.1,87.9c0,0.4-0.3,0.8-0.7,0.8c-0.4,0-0.7-0.3-0.7-0.7c0-0.4,0.2-0.6,0.6-0.7C185.8,87.3,186.1,87.4,186.1,87.9z"/>
		<path d="M233.5,182.6c-0.1,0.4-0.3,0.6-0.7,0.6c-0.4,0-0.6-0.3-0.6-0.7c0-0.4,0.3-0.7,0.7-0.6C233.2,182,233.5,182.2,233.5,182.6z
			"/>
		<path d="M202.1,44.8c0,0.5-0.2,0.7-0.6,0.7c-0.4,0-0.6-0.2-0.6-0.6c0-0.4,0.3-0.6,0.6-0.6C201.8,44.2,202.1,44.4,202.1,44.8z"/>
		<path d="M368,54.1c0.4,0.1,0.7,0.2,0.7,0.7c0,0.4-0.2,0.6-0.6,0.6c-0.4,0-0.7-0.2-0.7-0.7C367.4,54.3,367.6,54.1,368,54.1z"/>
		<path d="M228,178.9c-0.3-0.1-0.5-0.2-0.5-0.6c0-0.4,0.3-0.6,0.7-0.6c0.4,0,0.5,0.3,0.5,0.7C228.7,178.7,228.5,178.9,228,178.9z"/>
		<path d="M292.4,197.9c-0.1,0.5-0.4,0.5-0.8,0.5c-0.4,0-0.6-0.2-0.6-0.6c0-0.4,0.3-0.7,0.7-0.6C292,197.3,292.3,197.4,292.4,197.9z
			"/>
		<path d="M269.9,45.4c-0.1,0.4-0.2,0.7-0.6,0.7c-0.4,0-0.6-0.2-0.6-0.5c0-0.4,0.4-0.7,0.8-0.7C269.7,44.9,269.9,45.1,269.9,45.4z"
			/>
		<path d="M256,183.1c-0.1,0.3-0.2,0.6-0.6,0.6c-0.4,0-0.6-0.2-0.6-0.6c-0.1-0.3,0.3-0.7,0.7-0.7C255.8,182.5,255.9,182.8,256,183.1
			z"/>
		<path d="M136.8,197.6c0,0.4-0.3,0.5-0.6,0.5c-0.3,0-0.6-0.2-0.6-0.6c0-0.4,0.3-0.7,0.7-0.6C136.7,197,136.8,197.3,136.8,197.6z"/>
		<path d="M353.7,59.8c0,0.4-0.2,0.6-0.6,0.6c-0.4,0-0.6-0.1-0.6-0.5c0-0.4,0.2-0.6,0.6-0.6C353.5,59.2,353.7,59.4,353.7,59.8z"/>
		<path d="M376.1,138.9c0,0.4-0.2,0.6-0.6,0.6c-0.4,0-0.6-0.2-0.6-0.6c0-0.4,0.3-0.6,0.7-0.6C376,138.4,376.1,138.6,376.1,138.9z"/>
		<path d="M191.5,187.4c-0.1,0.3-0.3,0.5-0.6,0.4c-0.3,0-0.6-0.2-0.6-0.6c0.1-0.4,0.3-0.5,0.7-0.5
			C191.4,186.8,191.5,187,191.5,187.4z"/>
		<path d="M173.1,201.1c0,0.2-0.2,0.4-0.5,0.4c-0.3,0-0.6-0.2-0.6-0.5c0-0.3,0.3-0.6,0.7-0.5C172.9,200.5,173.1,200.7,173.1,201.1z"
			/>
		<path d="M372.4,82c0.3,0.1,0.5,0.2,0.5,0.6c0,0.3-0.3,0.5-0.6,0.5c-0.3,0-0.5-0.2-0.5-0.6C371.9,82.2,372.1,82,372.4,82z"/>
		<path d="M184.6,57.1c-0.1,0.3-0.3,0.6-0.6,0.5c-0.3,0-0.5-0.2-0.5-0.5c0-0.3,0.2-0.5,0.6-0.5C184.3,56.6,184.5,56.9,184.6,57.1z"
			/>
		<path d="M187.3,65.1c0,0.3-0.3,0.5-0.6,0.4c-0.3,0-0.5-0.2-0.4-0.6c0-0.3,0.2-0.5,0.5-0.4C187.1,64.6,187.3,64.8,187.3,65.1z"/>
		<path d="M152.2,178.5c0,0.3-0.3,0.5-0.5,0.5c-0.3,0-0.5-0.2-0.5-0.5c0-0.3,0.2-0.5,0.5-0.5C151.9,178,152.1,178.2,152.2,178.5z"/>
		<path d="M187.9,82.4c0.3,0.1,0.5,0.2,0.5,0.6c0,0.3-0.2,0.5-0.6,0.5c-0.3,0-0.5-0.2-0.5-0.5C187.3,82.6,187.6,82.5,187.9,82.4z"/>
		<path d="M288.4,210.3c0.3,0.1,0.5,0.2,0.6,0.5c0,0.3-0.2,0.5-0.5,0.5c-0.3,0-0.5-0.2-0.5-0.5C287.8,210.5,288.1,210.4,288.4,210.3
			z"/>
		<path d="M303.3,53.1c0-0.3,0.3-0.5,0.6-0.4c0.2,0,0.4,0.2,0.4,0.5c0,0.3-0.2,0.5-0.5,0.5C303.5,53.7,303.4,53.4,303.3,53.1z"/>
		<path d="M213.8,48.7c0.3,0,0.4,0.2,0.4,0.4c0,0.2-0.1,0.4-0.3,0.4c-0.3,0-0.6-0.1-0.6-0.5C213.2,48.8,213.5,48.7,213.8,48.7z"/>
		<path d="M208.1,45.8c0.3,0,0.4,0.2,0.4,0.3c0,0.3-0.2,0.5-0.5,0.5c-0.2,0-0.3-0.1-0.3-0.3C207.6,46.1,207.8,45.9,208.1,45.8z"/>
		<path d="M189.1,72.8c0.1,0,0.1-0.1,0.2-0.1c0.3,0,0.7-0.1,0.8,0.4c0,0.1-0.1,0.2-0.2,0.3C189.6,73.4,189.3,73.3,189.1,72.8z"/>
		<path d="M261.6,46.6c0,0.2-0.2,0.3-0.4,0.3c-0.2,0-0.4-0.1-0.4-0.4c0-0.2,0.2-0.4,0.4-0.4C261.5,46.2,261.6,46.3,261.6,46.6z"/>
		<path d="M299,40.1c0,0.1-0.2,0.2-0.4,0.2c-0.2,0-0.4-0.1-0.3-0.4c0-0.2,0.2-0.4,0.4-0.4C298.9,39.6,299,39.7,299,40.1z"/>
		<path d="M136.4,192.5c0,0.2-0.2,0.4-0.4,0.3c-0.2,0-0.4-0.2-0.3-0.4c0-0.2,0.2-0.4,0.4-0.3C136.2,192.1,136.4,192.2,136.4,192.5z"
			/>
		<path d="M190.1,47.2c-0.2,0-0.4-0.1-0.4-0.3c-0.1-0.2,0.1-0.4,0.3-0.4c0.2-0.1,0.4,0.1,0.4,0.3C190.5,47,190.3,47.1,190.1,47.2z"
			/>
		<path d="M185.3,78.1c0,0.3-0.1,0.4-0.3,0.4c-0.2,0-0.3-0.1-0.3-0.3c0-0.2,0.1-0.3,0.3-0.3C185.1,78,185.3,78,185.3,78.1z"/>
		<path d="M379.4,82.3c0.2,0,0.3,0.1,0.3,0.3c0,0.2-0.1,0.4-0.4,0.3c-0.2,0-0.3-0.1-0.3-0.3C379,82.3,379.2,82.3,379.4,82.3z"/>
		<path d="M248.7,185.6c0,0.1-0.1,0.2-0.3,0.2c-0.2,0-0.3,0-0.4-0.2c-0.1-0.3,0.1-0.3,0.3-0.4C248.5,185.3,248.7,185.4,248.7,185.6z
			"/>
		<path d="M304.8,48.9c0,0.2-0.2,0.2-0.3,0.2c-0.2,0-0.3,0-0.3-0.2c0-0.2,0.2-0.3,0.4-0.3C304.7,48.6,304.8,48.7,304.8,48.9z"/>
		<path d="M350.1,136.3c0,0.6-0.8,1.3-1.5,1.3c-0.7,0-1.3-0.5-1.3-1.1c0-0.6,0.8-1.4,1.5-1.4C349.6,135.1,350.1,135.6,350.1,136.3z"
			/>
		<path d="M352.7,131.8c-0.4,0-0.9-0.5-0.8-0.9c0-0.4,0.5-0.7,0.9-0.7c0.5,0,0.7,0.3,0.7,0.8C353.5,131.5,353.1,131.9,352.7,131.8z"
			/>
		<path d="M347.8,133.4c0,0.2,0,0.5,0,0.7c-0.1,0.5-0.4,0.8-0.9,0.7c-0.5-0.1-0.7-0.4-0.7-0.8c-0.1-0.3,0.5-0.8,0.9-0.7
			C347.3,133.2,347.6,133.4,347.8,133.4L347.8,133.4z"/>
		<path d="M355.3,131.7c0.4,0,0.6,0.3,0.6,0.7c0,0.4-0.1,0.7-0.6,0.7c-0.5,0-0.8-0.2-0.8-0.6C354.5,132.2,354.9,131.7,355.3,131.7z"
			/>
		<path d="M347.9,133.4c-0.1-0.1-0.2-0.3-0.3-0.4c-0.1-0.4,0.1-0.7,0.5-0.8c0.4-0.1,0.7,0.2,0.8,0.5c0.1,0.4-0.2,0.6-0.5,0.7
			C348.2,133.5,348,133.4,347.9,133.4C347.8,133.4,347.9,133.4,347.9,133.4z"/>
		<path d="M352.6,136.7c0,0.2-0.1,0.4-0.4,0.4c-0.3,0-0.5-0.1-0.5-0.4c0-0.3,0.3-0.4,0.6-0.4C352.5,136.3,352.6,136.4,352.6,136.7z"
			/>
		<path d="M208.4,161c0,0.7-0.4,1.2-1.2,1.2c-0.7,0-1.3-0.5-1.3-1.1c0-0.6,0.7-1.3,1.3-1.3C207.9,159.8,208.4,160.3,208.4,161z"/>
		<path d="M212.4,163c0,0.7-0.3,0.9-1,0.9c-0.7,0-1-0.4-1-1c0-0.5,0.4-0.9,0.9-0.9C212,161.9,212.4,162.3,212.4,163z"/>
		<path d="M211.3,159.8c0,0.6-0.4,0.9-1,0.9c-0.5,0-0.9-0.4-0.9-0.9c0-0.5,0.5-1,1-1C210.9,158.8,211.3,159.2,211.3,159.8z"/>
		<path d="M260.2,96c0,0.4-0.3,0.4-0.6,0.4c-0.4-0.1-0.7-0.3-0.7-0.8c0-0.4,0.3-0.5,0.7-0.5C260.1,95.2,260.2,95.6,260.2,96z"/>
	</g>
</g>
<g id="Layer_11">
</g>
<g id="Layer_10">
</g>
<g id="Layer_9">
</g>
<g id="Layer_8">
</g>
<g id="Layer_7">
</g>
<g id="Layer_6">
</g>
<g id="Layer_5">
</g>
<g id="Layer_4">
</g>
<g id="Layer_3">
</g>
</svg>
