<?xml version="1.0" encoding="utf-8"?>
<!-- Generator: Adobe Illustrator 25.0.1, SVG Export Plug-In . SVG Version: 6.00 Build 0)  -->
<svg version="1.1" xmlns="http://www.w3.org/2000/svg" xmlns:xlink="http://www.w3.org/1999/xlink" x="0px" y="0px"
	 viewBox="0 0 566.9 243.6" style="enable-background:new 0 0 566.9 243.6;" xml:space="preserve">
<g id="Layer_1">
</g>
<g id="Layer_13">
</g>
<g id="Layer_12">
</g>
<g id="Layer_11">
</g>
<g id="Layer_10">
</g>
<g id="Layer_9">
</g>
<g id="Layer_8">
</g>
<g id="Layer_7">
</g>
<g id="Layer_6">
</g>
<g id="Layer_5">
</g>
<g id="Layer_4">
</g>
<g id="Layer_3">
	<g>
		<path d="M142.6,86.3c-2.1-0.9-3.9-1.8-5.8-2.4c-1.6-0.5-3.3-1.1-4.9-1.6c-3.1-0.9-6.3-1.6-9.6-1.9c-0.4,0-0.7-0.1-1-0.4
			c-0.5-0.4-0.9-0.8-1.4-1.1c-0.8-0.5-1.3-1.2-1.4-2.1c-0.1-1.3-0.8-2.3-1.5-3.4c-0.5-0.7-0.9-1.4-0.7-2.3c0.1-0.3-0.2-0.5-0.4-0.7
			c-1.1-1-1.3-2.2-0.9-3.5c0.3-1.2,0.2-2.4,0-3.6c-0.1-0.5-0.2-1-0.1-1.4c0.3-1-0.1-1.9-0.5-2.8c-0.2-0.5-0.3-0.9-0.3-1.4
			c0.1-1.3,0.2-2.7,0.3-4c0.1-0.8,0.7-1.3,1.2-1.8c0.7-0.6,1.1-1.2,0.9-2.1c-0.2-0.9,0.2-1.6,0.8-2.2c0.6-0.6,1.2-1,1.9-1.4
			c1.1-0.7,2.1-1.4,2.7-2.7c0.3-0.8,1-1.3,1.7-1.8c0.6-0.4,0.6-0.8,0.4-1.4c-0.1-0.3-0.2-0.6-0.3-0.9c-0.3-1,0-1.8,0.8-2.4
			c0.5-0.5,1.2-0.8,1.9-1c0.9-0.3,1.7-0.7,2.4-1.1c0.5-0.3,1.1-0.5,1.7-0.6c0.3-0.1,0.7-0.1,0.8-0.4c1-1.7,2.8-2.1,4.5-2.4
			c1.7-0.3,3.4-0.8,5.2-1.1c0.6-0.1,1.1-0.5,1.4-1c0.6-0.9,1.5-1.4,2.5-1.6c0.4-0.1,0.8-0.3,1.2-0.4c0.6-0.2,1-0.6,1.2-1.2
			c0.2-0.8,0.8-1.2,1.6-1.5c1.8-0.6,3.7-0.5,5.6-0.6c0.8,0,1.6-0.2,2.3-0.3c0.5-0.1,1-0.3,1.4-0.7c1.2-1.1,2.6-1.9,4.1-2.5
			c1.9-0.7,3.8-1.4,5.6-2.3c1.7-0.9,3.5-0.6,5.3-0.4c0.5,0.1,1.1,0.2,1.6,0.3c0.9,0.1,1.7,0.1,2.5-0.3c1.8-1,3.6-0.7,5.5-0.5
			c2.8,0.4,5.6,0.9,8.5,1.3c1.6,0.2,3.2,0.3,4.8,0.5c2,0.3,4,0.8,5.8,1.8c0.9,0.5,1.8,0.7,2.8,0.8c1.2,0.1,2.5,0.3,3.5,1.1
			c0.7,0.5,1.1,1.2,1.6,1.8c0.6,0.8,1.1,1.6,2.1,1.9c0.2,0,0.2,0.3,0.4,0.4c0.6,0.6,1.4,1,2.3,1.2c0.2,0,0.4,0.2,0.5-0.1
			c0.2-0.5,0.4-0.2,0.6,0c0.5,0.4,1.1,0.8,1.5,1.3c0.8,0.9,1.7,1.3,2.8,1.5c1.5,0.3,2.9,0.8,4.5,1c0.4,0.1,0.7,0.2,1.1,0
			c-0.1-0.5-0.7-0.6-1-0.9c-1.1-1-1.5-2.5-2.5-3.5c-0.6-0.6-1.2-1.2-1.7-1.9c0.3-0.4,0.6-0.1,0.7,0.1c0.4,0.5,0.9,0.9,1.4,1.3
			c0.1,0.1,0.1,0.1,0.2,0.2c1.6,0.6,2.5,2.1,3.8,3.1c0.8,0.6,1.7,1.1,2.7,1.3c2.4,0.6,4.8,0.8,7.3,0.8c1.7,0,3.3-0.6,5.2-1.1
			c-3.9-3-6.9-6.5-10-10c0.3-0.2,0.4,0,0.5,0.1c1.2,1.3,2.7,2,4.4,2.6c2.2,0.8,4.4,1.6,6.7,2.1c1.9,0.4,3.9,0.5,5.9,0.4
			c0.4,0,0.8-0.1,1.2-0.4c-1.7-2.1-3.8-3.7-5.7-5.6c-1.8-1.9-3.4-4-5.4-5.7c0.3-0.3,0.5-0.1,0.7,0c0.8,0.7,1.9,1.2,2.7,1.9
			c0.5,0.4,1,0.7,1.6,0.9c2.7,0.8,5.3,1.9,8,2.6c1.1,0.3,2.2,0.8,3.3,1.2c2,0.9,4.2,1,6.3,1.1c1.1,0,2.3,0,3.4-0.1
			c1-0.1,1.9-0.5,2.9-1.1c-2.8-4-6.3-7.2-8.4-11.5c0.7,0.3,1.2,0.8,1.8,1.2c1.1,1,2.1,1.9,3,3c1,1.2,2.3,1.9,3.9,2.3
			c1.6,0.3,3.1,0.9,4.7,1.1c2.5,0.4,5,0.4,7.6-0.3c-0.4-0.7-0.8-1.2-1.5-1.5c-0.4-0.2-0.7-0.4-0.8-0.9c-0.1-0.6-0.8-0.9-1-1.6
			c0.8,0.6,1.9,0.7,2.8,1.1c2.5,1.1,5.2,1.6,7.9,2.1c2.4,0.4,4.8,0.6,7.2,0.7c1.2,0.1,2.4-0.1,3.5-0.3c1.1-0.2,1.6-0.8,1.6-1.9
			c0-1.8-0.8-3.4-2.1-4.7c-0.2-0.2-0.5-0.3-0.5-0.6c0.2-0.3,0.4,0,0.6,0.1c1,0.6,2,1.1,3.1,1.4c1.8,0.5,3.5,1.3,5.2,2.1
			c2.3,1.1,4.6,2.4,7,3.4c1.2,0.5,2.4,0.6,3.7,0.8c2.1,0.3,4.2,0.5,6.3,0.5c0.5,0,1-0.1,1.5-0.3c-0.2-0.5-0.4-0.9-0.7-1.3
			c-1.6-1.9-3.1-3.8-4.7-5.7c-0.2-0.2-0.4-0.4-0.4-0.7c-0.1-1.1-0.8-2-1.2-3c1.1,0.4,2.1,0.7,3.2,1.1c2.8,0.9,5.5,1.9,8.4,2.7
			c1.5,0.4,2.8,1.1,4.3,1.6c2.1,0.8,4.2,1.6,6.3,2.5c1.1,0.5,2.4,0.8,3.9,0.8c-3-5.1-6.1-9.9-9.8-14.3c0.2-0.1,0.3-0.1,0.4,0
			c1.4,1.3,3.3,1.9,4.8,2.9c1.2,0.8,2.7,1.1,4,1.7c2.7,1.4,5.2,2.9,7.6,4.7c0.9,0.8,1.9,1.6,3,2.1c0.5,0.2,1,0.5,1.5,0.6
			c0.5,0.2,1.7-0.3,2-0.7c0.2-0.3,0.1-0.5,0-0.7c-0.6-0.9-1.3-1.8-1.7-2.8c-0.7-1.6-1.6-3-2.6-4.4c0.2-0.4,0.5-0.2,0.6,0
			c0.7,1.1,1.8,1.8,2.8,2.7c0.6,0.6,1.1,1.2,1.6,1.9c0.7,1.1,1.5,2.2,2.3,3.2c0.7,1,1,2.4,1.5,3.6c0.8,1.6,1.4,3.3,2,5
			c0.2,0.5,0.4,1,0.4,1.6c0,0.4,0.2,0.8,0.4,1.1c2,2.7,4.2,5.3,6.7,7.5c1.2,1.1,2.7,1,4.1,1c0.7,0,1.3-0.8,1.7-1.4
			c0.4-0.5,0.2-1,0-1.6c-0.7-1.5-1-3.2-1.8-4.7c-0.2-0.4-0.2-0.8-0.4-1.3c0.8,0.2,1.1,0.7,1.4,1.1c1.4,1.7,2.2,3.7,3.1,5.7
			c0.8,1.8,1.2,3.7,1.6,5.6c0.2,1.1,0.2,2.3,0.4,3.4c0.3,2,0.3,4,0,6c-0.1,0.6,0,0.8,0.7,0.9c2.3,0.2,4.7,0.5,7,0.9
			c3.4,0.6,6.8,1.2,10.2,1.9c1.8,0.4,3.6,1,5.4,1.5c1.5,0.4,3,0.8,4.5,1.2c1.1,0.3,2.1,0.7,3.1,1c2.6,1,5.4,1.7,8,2.6
			c1.3,0.4,2.6,0.9,3.9,1.3c1.9,0.6,3.8,1,5.6,1.6c1.7,0.5,3.4,0.9,5.1,1.4c1.4,0.5,2.9,0.8,4.4,1.2c3.7,0.9,7.3,1.9,10.9,2.9
			c2,0.6,3.9,1.3,5.9,2c2.2,0.7,4.3,1.6,6.5,2.5c3.2,1.3,6.4,2.7,9.3,4.5c1.7,1,3.6,1.9,5.4,2.9c1.3,0.7,2.7,1.5,4.1,2.1
			c1.6,0.7,3.2,1.4,4.9,2.1c0.5,0.2,0.9,0.4,1.4,0.6c0.7,0.4,1.4,0.7,2.2,0.6c0.5-0.1,1.1,0,1.3,0.4c0.8,0.9,1.8,0.8,2.8,1
			c1.6,0.3,3.2,0.9,4.4,2c1.4,1.3,2.7,2.6,3.2,4.5c0.1,0.5,0.5,0.7,0.9,1c3.6,2.2,7.3,4,11.2,5.3c3.4,1.1,6.7,2.3,10.2,3.3
			c4.2,1.3,8.1,3.1,11.5,6c0.8,0.6,1.2,1.5,2,2.2c0.3,0.3,0.6,0.5,0.9,0.5c1.3,0,2.4,0.5,3.4,1.1c1.7,1,2.6,2.6,2.2,4.6
			c-0.3,1.8-1.6,3-3.3,3.7c-2.4,0.8-4.5,2.2-6.3,3.9c-1.6,1.5-2.7,3.5-4.1,5.2c-1.6,2-3,4.2-4.8,6c-0.9,1-1.8,2.1-2.7,3.1
			c0,0,0,0.1,0,0.3c0.5-0.1,1-0.2,1.5-0.4c4.6-1.6,9.1-3.3,13.7-4.9c2-0.7,4-1.7,5.9-2.6c0.7-0.3,1.2-0.8,1.4-1.6
			c0.3-0.9,0.7-1.7,1.4-2.4c0.8-0.9,1.9-1.7,3.2-1.4c1.4,0.3,2.3,1.1,2.8,2.5c0.9,2.3,1.1,4.6,0.6,7c-0.1,0.4-0.3,0.8-0.5,1.2
			c-1.3,2.6-3.2,4.6-5.4,6.4c-1.5,1.2-2.5,2.7-3.6,4.2c-1,1.5-2.1,2.9-3.5,4.1c-1.6,1.4-2.9,3.1-4.5,4.4c-1.9,1.6-4,3-6.2,4.3
			c-2.7,1.5-5.4,2.9-8.2,4.2c-2.2,1-4.4,2-6.7,2.7c-1.2,0.4-2.4,0.9-3.6,1.4c-2,0.9-4.1,1.5-6.2,2.2c-3.3,1.2-6.6,2.3-9.9,3.4
			c-3.5,1.2-7,2.2-10.5,3.4c-1.6,0.5-3.1,1.1-4.6,1.7c-2.6,1-5.3,2-7.9,2.9c-2.4,0.8-4.7,1.7-7.2,2.2c-1.8,0.4-3.5,0.8-5.3,1.1
			c-1.7,0.3-3.5,0.4-5.2,0.6c-1.6,0.2-3.2,0.3-4.8,0.3c-1.1,0-2.1-0.1-3.1-0.2c-0.3,0-0.5,0-0.8,0.1c-2.1,0.5-4.1,0.9-6.2,1.3
			c-0.7,0.1-1.3,0.6-1.9,0.8c-2.3,0.8-4.6,1.7-6.9,2.6c-2.8,1.1-5.6,2-8.4,2.9c-4.4,1.5-9,2.1-13.5,2.9c-1.9,0.3-3.8,0.8-5.7,0.8
			c-0.5,0-0.8,0.3-1.1,0.7c-0.5,0.9-1.1,1.7-1.8,2.5c-1.9,2-3.2,4.5-4.8,6.7c-1.3,1.8-2.4,3.8-3.5,5.7c-1,1.6-1.8,3.2-2.7,4.8
			c-1.2,2.2-2.5,4.5-3.8,6.6c-0.9,1.6-1.8,3.2-2.7,4.8c-1.1,1.8-2,3.7-3.7,5.1c-0.6,0.5-0.7,1.3-1,2c-0.4,1-0.7,2.1-1.3,3.1
			c-0.8,1.3-1.7,2.4-2.7,3.5c-1,1.1-2.2,1-3.6,0.6c-1.6-0.5-3-1.4-4.5-2c-0.5-0.2-1-0.3-1.5-0.4c-1.1-0.1-2.1-0.7-2.7-1.7
			c-0.4-0.6-0.8-1.2-1.2-1.8c-0.5,0.5-0.8,1.1-1.1,1.6c-0.6,1.2-1.2,2.3-1.8,3.5c-0.3,0.6-0.7,1.1-0.4,1.8c0.1,0.2,0,0.5-0.1,0.7
			c-0.5,1.3-2.8,2.6-4.1,2.4c-2.4-0.4-4.3-1.4-5.9-3.3c-1.4-1.7-2.6-3.4-3.5-5.4c-0.6-1.3-1.6-2.3-2.4-3.3c-1-1.3-1.7-2.7-1.7-4.4
			c0-0.7,0-1.5,0-2.2c0-1-0.1-2-0.8-2.8c-0.9-1.1-0.8-2.3-0.4-3.5c0.7-2,1.5-4,2.4-6c0.9-2.1,2.3-4,3.8-5.8c0.7-0.8,1.3-1.6,1.9-2.4
			c0.3-0.4,0.8-0.8,1.3-0.7c0.5,0,0.8-0.2,1.1-0.5c3.7-3.1,7.5-5.9,11.4-8.7c0.2-0.1,0.5-0.2,0.5-0.6c-0.7,0.1-1.5,0.1-2.2,0.2
			c-2.7,0.4-5.4,0.6-8.1,0.7c-3.3,0.1-6.6,0.2-9.9,0.5c-6.4,0.5-12.8,0.5-19.2,0.5c-2.2,0-4.4,0-6.6-0.1c-3.2-0.1-6.4-0.2-9.6-0.5
			c-3-0.3-6-0.3-9-0.7c-2.8-0.4-5.7-0.5-8.5-1c-1.5-0.3-3-0.3-4.5-0.5c-1.9-0.2-3.9-0.6-5.8-0.9c-2.2-0.3-4.4-0.7-6.6-1.1
			c-1-0.1-1.9-0.4-2.9-0.6c-2.1-0.5-4.2-1-6.3-1.5c-2.7-0.8-5.4-1.5-8-2.4c-3.4-1.2-6.8-2-10.2-3.2c-3.6-1.3-7.3-2.4-10.8-4
			c-0.8-0.4-1.6-0.3-2.5,0c-2.4,0.9-4.7,2-7,2.9c-2,0.8-3.9,1.8-5.9,2.6c-2,0.9-4.1,1.8-6.1,2.7c-2.1,0.9-4.2,2-6.3,2.8
			c-1.4,0.5-2.8,1.2-4.3,1.7c-2.4,0.8-4.9,1.7-7.4,2.3c-1.5,0.4-3,0.9-4.5,0.8c-1-0.1-2,0-2.9-0.2c-1.5-0.3-2.9-0.1-4.3,0.1
			c-1.4,0.2-2.8,0.1-4.2,0.3c-2.7,0.4-5.5,0.7-8.2,1.3c-2,0.4-4.1,0.8-6.1,1.2c-2.2,0.4-4.4,1-6.6,1.6c-3,0.8-6,2-9.2,1.7
			c-1-0.1-2-0.2-2.8-0.7c-0.4-0.2-0.7-0.4-1.2-0.2c-0.4,0.1-0.8,0.1-1-0.4c-0.1-0.4,0.1-0.7,0.5-0.8c0.4-0.2,0.4-0.5,0.4-0.9
			c0-0.3,0.1-0.6,0.1-0.9c0.2-1,0-1.4-1-1.7c-1-0.3-2.1-0.5-3.1-0.6c-1.1-0.2-2.2-0.7-3.2-1.2c-0.5-0.2-0.9-0.5-1.2-1
			c-0.5-0.9-1.3-1.4-2-2c-1.5-1.3-2.1-2.9-1.8-4.8c0.1-0.4,0.1-0.7-0.4-0.8c-0.5-0.2-0.5-0.6,0-0.9c0.2-0.1,0.5-0.1,0.7-0.5
			c-0.4-0.6-1.1-0.9-1.7-1.3c-1.2-0.9-1.6-2-1.2-3.4c0.6-1.8,0.7-3.8,1-5.7c0.2-1,0.4-1.9,0.7-2.8c0.3-0.8,0.3-1.5-0.1-2.3
			c-0.3-0.5-0.5-1-0.9-1.5c-0.8-1.1-0.8-2.3-0.2-3.5c0.2-0.3,0.4-0.7,0.6-1c0.4-0.9,0.4-1.8-0.2-2.6c-0.1-0.2-0.2-0.4-0.4-0.6
			c-1.5-1.6-1.2-3.7,0.4-5.4c0.7-0.7,1.3-1.5,2-2.2c0.7-0.7,0.9-1.6,1-2.6c0-0.4-0.1-0.9,0-1.3c0.5-1.9,0.9-2.4,3.2-2.9
			c0.2-0.1,0.5-0.1,0.7-0.1c-0.3-0.3-0.6-0.2-0.8-0.2c-1.9,0-3.8,0-5.7,0c-3.1,0-6.3,0.1-9.4,0.5c-2.9,0.4-5.8,0.7-8.7,1
			c-2.9,0.4-5.8,0.8-8.6,1.3c-2.6,0.5-5.3,1.1-7.9,1.8c-2.6,0.8-5.3,1.5-7.9,2.4c-3,1-6.1,2-9.1,3.2c-2.5,1-5.1,1.7-7.5,2.8
			c-2.6,1.2-5.3,2.1-7.9,3.2c-3.4,1.5-7,2.7-10.5,4.2c-2.5,1.1-5,2-7.5,3c-2.8,1.1-5.5,2.1-8.4,3c-2,0.6-4.1,1-6.2,1.1
			c-2.5,0.1-4.4-1.8-4.3-4.3c0-2,0.3-4.1,0.4-6.1c0.1-1.8,0.5-3.5,0.2-5.3c-0.1-0.8-0.3-1.6-0.7-2.3c-1.5-2.3-2.2-4.9-3.1-7.5
			c0-0.1-0.1-0.3-0.2-0.4c-0.9-1.6-1.8-3.1-1.7-5.1c-0.3,0-0.5,0.1-0.7,0.1c-0.3,0-0.6-0.1-0.7-0.5c-0.1-0.4,0.2-0.6,0.5-0.6
			c0.7-0.1,0.6-0.5,0.3-0.9c-0.1-0.2-0.2-0.4-0.3-0.5c-1.3-1.2-1.7-2.8-2.1-4.4c-0.2-0.9-0.5-1.8-0.9-2.7c-0.7-1.8-0.6-3.7-0.1-5.6
			c0.6-2,1.3-4,2.1-6c0.5-1.2,1-2.4,1-3.7c0-1.1-0.3-2.1-0.8-3c-0.6-1.1-1.4-2.2-1.6-3.5c-0.1-0.6-0.1-1.2-0.1-1.8
			c0-0.7,0-1.5-0.2-2.2c-0.1-0.4-0.2-0.8-0.7-0.7c-0.3,0-0.5-0.1-0.3-0.5c0.2-0.5-0.1-0.8-0.3-1.1c-1.3-1.7-1.4-3.6-1.3-5.6
			c0-0.3,0-0.6,0.1-0.9c0-0.4-0.1-0.7-0.6-0.7c-0.4,0-1,0-1-0.6c0-0.6,0.6-0.5,1-0.6c1.2-0.3,1.3-0.4,1.3-1.6c0-1.7-0.2-3.3-1-4.9
			c-0.4-0.9-0.7-1.8-0.9-2.8c-0.4-2,0.4-3.6,1.9-4.9c1-0.9,2-1.6,3-2.4c0.9-0.7,1.3-1.5,0.8-2.7c-0.2-0.5-0.3-1.1-0.5-1.7
			c-0.8-1.9-0.7-3.7,0-5.6c0.6-1.6,1.4-3,2.5-4.2c0.5-0.6,0.8-1.1,0.7-2c-0.2-1.2,0.1-2.3,0.8-3.2c0.3-0.5,0.4-1,0.4-1.5
			c0.1-2.2,0.9-3.1,3.1-3.2c1.8-0.1,3.6,0.3,5.3,0.9c4.5,1.6,8.9,3.4,13.2,5.3c1.7,0.7,3.3,1.6,5,2.3c1.8,0.8,3.5,1.5,5.2,2.4
			c2.7,1.5,5.5,2.8,8.2,4.3c2.9,1.6,5.8,3.3,8.7,4.8c1.6,0.9,3.2,1.8,4.8,2.7c1.6,0.9,3.3,1.6,4.9,2.4c3.3,1.7,6.6,3.3,10,4.9
			c1.8,0.8,3.7,1.5,5.5,2.4c2.9,1.4,5.9,2.4,9,3.2c2.4,0.6,4.9,0.6,7.4,0.6c2.7-0.1,5.5-0.2,8.2-0.7c4-0.7,8-1.1,11.9-2
			c2.6-0.6,5.2-0.9,7.7-1.5C141.7,86.6,142,86.5,142.6,86.3z M487,82.4c-0.5-0.5-1-0.7-1.6-0.9c-3.9-1.5-7.6-3.4-11.3-5.4
			c-2.8-1.5-5.5-3.1-8.3-4.3c-3.1-1.4-6.3-2.7-9.6-3.8c-3-1-6-1.9-9.1-2.8c-3-0.9-6-1.6-9-2.4c-2.1-0.6-4.3-1.2-6.4-1.8
			c-2.9-0.8-5.9-1.6-8.8-2.5c-1.5-0.5-3-0.9-4.5-1.4c-2.3-0.8-4.7-1.4-7-2.3c-2.2-0.9-4.6-1.3-6.9-1.9c-2-0.5-3.9-1.1-5.9-1.5
			c-2.9-0.7-5.8-1.2-8.8-1.7c-2.3-0.4-4.6-0.7-7-1c-1.6-0.2-3.2-0.3-4.8-0.5c-2.1-0.3-4.1-0.3-6.2-0.4c-4.5-0.1-9.1,0-13.6-0.2
			c-3.1-0.2-6.1-0.1-9.2-0.2c-3.5-0.2-7.1-0.1-10.6-0.2c-2.8-0.1-5.6-0.1-8.4,0c-5.6,0.1-11.1-0.1-16.7,0.2
			c-2.5,0.1-4.9,0.2-7.4,0.3c-2.3,0.1-4.6,0.3-6.9,0.4c-2.1,0.1-4.2,0.3-6.3,0.5c-2.5,0.2-5,0.5-7.5,0.8c-2.4,0.2-4.7,0.4-7.1,0.8
			c-2.8,0.5-5.7,0.8-8.5,1.3c-2.2,0.4-4.4,0.7-6.6,1.2c-1.7,0.4-3.4,0.7-5.1,1.1c-2.1,0.5-4.3,1-6.4,1.6c-1.9,0.5-3.8,1.1-5.7,1.7
			c-1.7,0.5-3.4,1-5,1.5c-1.5,0.5-3,0.9-4.5,1.4c-2.8,0.9-5.7,1.8-8.4,2.9c-2.2,0.8-4.4,1.5-6.6,2.3c-2,0.7-3.9,1.5-5.9,2
			c-1.9,0.5-3.7,1.4-5.7,2c-3,0.9-5.9,2.1-8.9,3c-2.9,0.9-5.8,2-8.7,2.9c-2.5,0.8-4.9,1.6-7.4,2.4c-3.2,1.1-6.5,2.2-9.7,3.3
			c-2.1,0.7-4.2,1.4-6.3,2.1c-1.7,0.6-3.4,1-5.1,1.7c-1.7,0.6-3.4,1.1-5.1,1.6c-2.4,0.7-4.8,1.6-7.2,2.1c-2.4,0.5-4.8,1.3-7.2,1.7
			c-1.5,0.3-2.9,0.8-4.3,1c-2.2,0.4-4.4,0.8-6.6,1.2c-1.9,0.4-3.8,0.8-5.7,1c-3,0.3-6,1-9,1.2c-2.3,0.2-4.7,0.4-7,0.3
			c-2.5-0.1-4.9-0.2-7.3-0.9c-1.4-0.4-2.8-1-4.2-1.4c-2.6-0.8-5-2.1-7.4-3.2c-2.5-1.2-4.9-2.4-7.4-3.6c-2.5-1.2-4.9-2.6-7.4-3.7
			c-1.4-0.6-2.7-1.6-4.1-2.3c-2.6-1.3-5.1-3-7.6-4.4c-2.6-1.4-5.1-2.8-7.7-4.3c-1.5-0.9-3.1-1.5-4.6-2.3c-2.4-1.3-4.9-2.4-7.4-3.6
			c-3.1-1.4-6.2-2.8-9.4-4.1c-2-0.8-4-1.6-6-2.4c-1.5-0.6-3-0.9-4.5-1.2c-0.6-0.1-0.7,0.1-0.8,0.8c-0.1,0.8-0.1,1.6-0.6,2.2
			c-0.6,0.7-0.6,1.5-0.5,2.3c0.1,0.6,0.1,1.2-0.2,1.8c3.6,0.9,7.3,0.9,10.8,2.6c-1.1,0-2,0.1-2.8,0c-1.7-0.3-3.4-0.3-5.1-0.8
			c-0.8-0.2-1.7-0.3-2.5-0.5c-0.7-0.1-1.4,0-1.9,0.6c-1,1.3-1.7,2.6-2,4.2c-0.1,0.8-0.3,1.5,0.1,2.3c0.6,1.6,1.3,3.1,1.1,4.9
			c0,0.3,0.1,0.5,0.5,0.5c0.7,0.1,1.5,0.1,2.2,0.2c2.1,0.3,4.3,0.6,6.4,0.9c0.7,0.1,1.4,0.4,2.2,1.1c-1.4,0.1-2.5,0.2-3.7,0
			c-2.6-0.3-5.3-0.7-7.9-1.1c-0.4-0.1-0.6,0.1-0.8,0.3c-1,1.1-2.3,2-3.5,3c-1.4,1.1-1.6,2-0.9,3.7c0.4-0.1,0.8-0.2,1.2-0.1
			c2.6,0.5,5.2,0.9,7.8,1.5c3.3,0.7,6.6,1.5,9.9,2.3c3,0.7,6.1,1.4,9,2.7c0.2,0.1,0.6,0.1,0.5,0.6c-9.2-1.8-18.1-4.5-27.3-6.1
			c-0.4-0.1-0.7-0.2-1.1-0.4c0.4,1.3,1.1,2.5,1.3,3.8c0.2,1.4,0,2.8,0,4.2c3.7,0.4,7.3,0.7,10.9,1.1c3.6,0.4,7.2,1.1,10.8,1.9
			c-0.1,0.3-0.2,0.3-0.4,0.3c-1.7-0.2-3.3,0.1-5-0.1c-1.9-0.2-3.9-0.1-5.9-0.3c-3.3-0.4-6.5-0.7-9.8-1c-1.4-0.1-1.3-0.2-1.5,1.2
			c-0.3,2.2,0.2,4,1.7,5.6c0.2,0.2,0.3,0.6,0.7,0.5c0.8-0.1,1.6,0.1,2.3,0c1.7-0.4,3.4-0.2,5-0.3c2.5-0.1,4.9-0.2,7.4-0.3
			c0.9-0.1,1.9,0,2.8-0.1c1.7-0.2,3.5-0.2,5.2-0.2c1.6,0,3.2,0.2,4.8,0.2c0.1,0,0.2,0.1,0.2,0.3c-2.1,0.5-4.2,0.8-6.4,0.9
			c-3.2,0.2-6.3,0.3-9.5,0.5c-2.8,0.1-5.7,0.3-8.5,0.3c-0.9,0-1.7,0-2.6,0c-0.5,0-0.7,0.2-0.6,0.7c0.2,0.8,0.2,1.7,0.2,2.6
			c0,1,0.1,1.9,0.8,2.7c0.3,0.3,0.4,0.7,0.6,1.1c0.7,1.5,1.2,3,1,4.7c-0.1,0.8-0.4,1.5-0.5,2.3c1.5,0,2.8-0.4,4.1-0.7
			c1.3-0.3,2.6-0.5,3.9-0.6c1.3-0.1,2.6-0.4,3.9-0.3c-1.5,0.4-2.9,1-4.3,1.4c-0.5,0.2-1,0.3-1.5,0.4c-1.9,0.4-3.8,0.8-5.6,1.1
			c-1,0.1-1.5,0.7-1.8,1.5c-0.6,1.8-1.3,3.5-1.6,5.4c-0.2,1-0.2,1.9,0.1,2.8c0.5,1.4,0.8,2.8,1.4,4.1c0.6-0.1,1-0.5,1.5-0.7
			c2.5-1,5.1-1.8,7.7-2.8c2.9-1.1,5.9-2.1,8.9-3c0.9-0.3,1.9-0.4,2.8-0.7c1.7-0.5,3.4-0.3,5.1-0.9c0,0,0.1,0.1,0.1,0.2
			c-0.1,0.3-0.4,0.4-0.6,0.5c-2.2,1-4.4,1.9-6.7,2.6c-3.9,1.2-7.8,2.4-11.7,3.5c-2.1,0.6-4.1,1.5-6.3,1.8c-0.2,0-0.4,0.2-0.6,0.3
			c0,0.5,0.1,1.1,0.5,1.5c0.5,0.5,0.9,1.1,1.2,1.7c0.3,0.7,0.8,0.8,1.4,0.7c3.5-0.8,6.9-1.6,10.4-2.4c2.9-0.7,5.7-1.6,8.7-2.1
			c0.8-0.1,2.2-0.2,2.8,0c-0.7,0.2-1.2,0.6-1.8,0.8c-2,0.6-4,1.2-6.1,1.8c-2.8,0.7-5.7,1.4-8.6,2c-2.1,0.4-4.1,1-6.1,1.5
			c0.1,1.3,0.4,2.6,1.1,3.7c0.4,0.6,0.7,1.3,0.9,2c0.1,0.5,0.3,0.6,0.7,0.4c1.2-0.4,2.4-0.8,3.5-1.3c1-0.5,2.1-0.8,3.2-1.2
			c2.1-0.8,4.2-1.6,6.4-2.4c2-0.7,3.8-1.8,6-1.9c0.4,0,0.8-0.4,1.3-0.2c0,0.3-0.2,0.3-0.3,0.4c-2.1,1.1-4.2,2.1-6.4,2.9
			c-2.6,1-5.2,2-7.8,2.8c-1.7,0.5-3.3,1.2-4.9,1.8c-0.3,0.1-0.7-0.1-0.8,0.3c-0.1,0.3,0.1,0.6,0.1,0.9c0.3,1.5,1.3,2.8,1.9,4.2
			c0.2,0.6,0.6,0.7,1.2,0.5c1.3-0.5,2.7-0.9,4-1.2c2.1-0.4,4.1-1.1,6.1-1.7c2.4-0.6,4.7-1.3,7.2-1.9c0.7-0.2,1.4-0.2,2.2,0
			c-0.8,0.5-1.6,1-2.5,1.3c-3.3,0.9-6.7,1.8-10,2.7c-2.2,0.6-4.4,1.2-6.5,1.9c-0.7,0.2-0.8,0.3-0.7,1.1c0.1,0.7,0.2,1.4,0.2,2.1
			c0,0.8,0,1.6,0,2.5c3.4-1.5,7-2.1,10.6-2.8c0,0.3-0.1,0.4-0.3,0.4c-0.9,0.2-1.7,0.7-2.6,1.1c-1.2,0.5-2.4,1.2-3.7,1.5
			c-1.3,0.3-2.5,0.8-3.8,1.2c-0.3,0.1-0.5,0.1-0.5,0.5c-0.1,0.9-0.3,1.8-0.1,2.8c2.1-0.8,4.1-1.5,6.1-2.3c0.7-0.3,1.4-0.3,2.2-0.2
			c-0.7,0.9-1.4,1.4-2.2,1.7c-1.8,0.7-3.7,1.4-5.5,2c-0.6,0.2-0.8,0.5-0.8,1c-0.1,1.3,0.9,2.2,2.2,2.1c1.1-0.1,2.1-0.2,3.1-0.5
			c3.3-0.8,6.5-2,9.7-3.2c2.7-1,5.4-2,8.1-3.2c3.9-1.7,7.8-3.2,11.7-4.8c3.8-1.5,7.6-3.2,11.4-4.6c2.7-1,5.4-2.1,8.1-3.1
			c2.5-0.9,5.1-1.8,7.7-2.5c1.9-0.5,3.8-1.1,5.7-1.6c2.9-0.8,5.8-1.4,8.7-2c3-0.6,6.1-1,9.2-1.4c2.6-0.3,5.1-0.6,7.7-0.8
			c2.5-0.2,4.9-0.4,7.4-0.5c3.4-0.1,6.7-0.1,10.1,0.1c3.2,0.1,6.4,0.2,9.6,0.5c2.4,0.2,4.9,0.4,7.3,0.7c2,0.3,4,0.5,5.9,0.9
			c1.4,0.3,3,0.1,4.2,1.3c0.1,0.1,0.3,0.1,0.4,0.2c3,1.2,6.2,2,9.4,2.6c1.5,0.3,3,0.4,4.4,0.9c3.8,1.2,7.3,3,10.7,5
			c1.5,0.9,3,1.8,4.6,2.6c3.7,2,7.3,4.1,10.8,6.4c2.1,1.4,4.2,2.9,6.4,4.2c2.9,1.8,5.9,3.5,9,4.8c2.5,1.1,4.9,2.4,7.5,3.3
			c1.5,0.6,3,1.1,4.5,1.7c4.2,1.8,8.5,3.2,12.8,4.6c2.4,0.8,4.8,1.4,7.2,2.2c3.1,1.1,6.2,1.9,9.3,2.7c1.2,0.3,2.4,0.6,3.5,1
			c1.5,0.5,3.1,0.9,4.6,1.2c3.6,0.6,7.1,1.3,10.7,1.8c2.8,0.4,5.6,0.7,8.4,1.1c3.5,0.4,7.1,0.8,10.6,1c4.6,0.3,9.1,0.6,13.7,0.8
			c2.4,0.1,4.9,0.1,7.3,0.1c6.3,0.1,12.5,0,18.8-0.4c3.3-0.2,6.6-0.3,10-0.5c3.3-0.2,6.6-0.5,9.9-0.9c1.2-0.1,2.6-0.6,3.7,0.4
			c0.2,0.2,0.5,0.1,0.7-0.1c3.4-2.3,6.9-4.5,10.2-6.9c0.7-0.5,1.4-0.9,2.2-1.4c0.2-0.1,0.6-0.2,0.7,0.1c0.1,0.3,0.1,0.5-0.1,0.8
			c-0.1,0.1-0.2,0.1-0.3,0.2c-2.4,2-5.1,3.7-7.7,5.4c-2.8,1.8-5.5,3.7-8.3,5.6c-2.8,2-5.6,4-8.4,6.1c-2.2,1.7-4.5,3.4-6.3,5.7
			c-1.1,1.4-2.3,2.8-3.3,4.3c-1.6,2.4-2.5,5.2-3.5,7.9c-0.3,0.8-0.5,1.6,0.2,2.3c0.2,0.2,0.2,0.5,0.3,0.8c0.6,1.4,0.5,2.9,0.5,4.4
			c-0.1,1.6,0.5,2.8,1.5,3.9c1,1.2,2.1,2.3,2.7,3.7c0.8,1.9,2.1,3.5,3.5,5.1c0.7,0.8,1.5,1.2,2.3,1.7c1,0.5,1,0.5,1.8-0.3
			c0.2-0.2,0.5-0.4,0.8-0.5c0.5-0.3,0.9-0.6,1.1-1.2c0.5-1.2,1-2.3,1.6-3.4c1.6-2.9,3.2-5.7,4.8-8.6c1.8-3.3,4-6.3,5.3-9.8
			c0.6-1.5,1.6-2.8,2.4-4.1c1-1.7,2.2-3.3,3.1-5c1.1-2.1,2.3-4.1,3.6-6.1c1.5-2.3,3.4-4.3,5.2-6.3c1.7-1.9,3.8-2.8,5.9-4
			c0,0,0.1,0,0.1,0c0.2,0,0.5,0,0.6,0.2c0.1,0.2,0,0.4-0.1,0.5c-0.2,0.3-0.7,0.5-0.7,1.1c0.9-0.1,1.8-0.1,2.7-0.3
			c3.3-0.5,6.6-1.4,9.9-2c1.5-0.3,3-0.7,4.5-0.9c2.7-0.4,5.3-1.1,7.9-1.6c2.1-0.4,4.2-1,6.3-1.4c3.2-0.7,6.3-1.4,9.4-2.5
			c2.4-0.8,4.8-1.7,7-2.9c0.9-0.5,1.9-1.1,2.7-1.9c-0.3-0.2-0.5-0.3-0.7-0.4c-1.5-0.4-3-1.2-4.4-1.8c-1.5-0.6-3-1.5-4.5-2.3
			c-1-0.5-1.9-1-2.9-1.5c-1.4-0.7-2.7-1.4-4.1-2.1c-1.6-0.9-3.2-1.9-4.8-2.6c-3.1-1.4-6.1-3-9.1-4.6c-2.7-1.4-4.7-3.5-5.9-6.3
			c-1.6-3.6-2.3-7.3-2.3-11.2c0-3.1,0-6.3-0.3-9.4c-0.1-1.2-0.3-2.4-0.4-3.6c-0.3-2.5-0.7-4.9-1.8-7.3c-1.3-3-3-5.8-5-8.3
			c-2.5-3.1-5.4-5.9-8.6-8.4c-2.4-1.8-4.9-3.4-7.4-5c-3.3-2-6.4-4.3-9.4-6.7c-1-0.8-1.9-1.7-2.6-2.7c-1.1-1.6-1.1-3.4,0.4-4.8
			c1.9-1.9,3.9-3.7,6.2-5.2c2.3-1.4,4.4-3,6.9-4.1c1.3-0.5,2.6-1.2,3.9-1.6c1.9-0.6,3.8-1.1,5.7-1.9c0.2-0.1,0.4-0.3,0.6,0
			c0,0.2-0.1,0.3-0.3,0.4c-1.4,0.6-2.7,1.3-4,2.2c-1,0.7-2,1.4-3.1,2c-2.8,1.5-5.5,3-8.1,4.8c-2.1,1.4-4,2.9-5.7,4.7
			c-0.8,0.9-0.9,1.6-0.1,2.6c0.8,0.9,1.6,1.6,2.5,2.3c3.5,2.9,7.5,5.3,11.3,7.8c4,2.5,7.6,5.4,10.8,8.8c3,3.1,5.6,6.6,7.5,10.5
			c0.9,1.9,1.8,3.8,2.2,5.9c0.4,1.8,0.5,3.7,0.8,5.6c0.2,1,0.3,2.1,0.4,3.1c0.1,2.5,0,5.1,0.1,7.6c0.1,3.7,0.6,7.4,2.1,10.9
			c0.7,1.6,1.6,3,3,4c2.7,1.8,5.6,3.2,8.6,4.6c1.3,0.6,2.6,1.2,3.9,1.9c3.1,1.8,6.3,3.3,9.4,5c1.9,1,3.8,2,5.8,2.9
			c2,0.9,4,1.7,6,2.3c2.3,0.7,4.7,1,7.2,1.2c4,0.3,8,0,11.9-0.5c2.9-0.4,5.8-1.1,8.6-1.9c3-0.9,5.9-2.1,8.8-3.2
			c2.6-0.9,5.2-1.9,7.9-2.7c3.6-1.2,7.3-2.2,11-3.4c2.5-0.8,4.9-1.7,7.4-2.5c4-1.2,7.9-2.5,11.8-3.8c2.3-0.8,4.5-1.7,6.6-2.7
			c2.2-1,4.3-2.1,6.4-3.2c2-1,3.8-2.2,5.6-3.5c2.7-2,5.1-4.5,7.5-6.8c0.5-0.5,1-1,1.4-1.7c-0.3-0.1-0.5,0-0.6,0.1
			c-2,1.5-4.2,2.6-6.3,3.9c-1.6,0.9-3.4,1.5-4.7,2.8c-0.1,0.1-0.3,0.1-0.4,0.1c-1,0.1-1.9,0.5-2.8,0.9c-1,0.4-2,0.8-3,1.1
			c-0.1-0.4,0.1-0.5,0.3-0.6c0.5-0.2,0.8-0.5,1.2-0.8c2.2-1.8,4.6-3.3,7.1-4.6c1.7-0.9,3.5-1.8,5.1-2.9c1.8-1.1,3.5-2.3,5.2-3.5
			c2.4-1.8,4.8-3.5,6.5-6c1-1.5,1.9-3,1.9-4.8c0-1.6-0.2-3-0.9-4.5c-0.3-0.7-0.9-0.9-1.4-0.6c-0.8,0.6-1.4,1.4-1.5,2.4
			c0,0.6-0.2,1-0.7,1.4c-1.9,1.5-4.2,2.3-6.3,3.3c-1.7,0.8-3.6,1.4-5.4,2c-1.9,0.6-3.7,1.4-5.7,1.8c-1.4,0.3-2.8,0.8-4.1,1.4
			c-1.6,0.7-3.4,1-5,1.6c-0.5,0.2-0.8,0.3-1.1,0.7c-0.8,1.2-1.8,2.2-2.8,3.1c-1.9,1.8-3.9,3.5-5.7,5.4c-1.7,1.7-3.3,3.4-4.6,5.4
			c-2.3,3.6-5,6.9-8.5,9.5c-0.3,0.2-0.6,0.4-1,0.4c-0.4,0-0.8,0-1-0.5c-0.2-0.4-0.1-0.8,0.2-1.1c0.3-0.3,0.6-0.6,1-0.9
			c2.5-1.7,4.3-4,6-6.4c1.4-1.8,2.5-3.9,4-5.6c1.9-2.1,3.8-4,5.9-5.9c1.7-1.5,3.3-3,4.7-4.7c1.4-1.6,2.7-3.1,4.1-4.7
			c1.7-1.9,3.4-3.8,4.9-5.8c1.6-2.1,3.1-4.3,4.8-6.4c1.1-1.5,2.4-2.8,3.9-3.9c1.5-1,2.8-2.2,4.1-3.4c0.7-0.6,1.3-1.1,2.3-0.8
			c0.1-0.4,0.1-0.6,0-0.9c-0.5-1.2-1.5-1.8-2.6-2c-2.1-0.3-4.1-0.1-5.9,1.1c-1.7,1.1-3.3,2.3-4.7,3.9c-0.5,0.5-0.9,1.1-1.4,1.6
			c-2.4,2.3-4.2,5-5.8,7.9c-0.8,1.4-1.5,2.8-2.6,4c-1.8,2.1-3.9,3.8-6.1,5.3c-1.8,1.2-3.7,2.3-5.5,3.6c-2.1,1.4-4.1,2.9-5.8,4.7
			c-1.6,1.7-3.1,3.4-3.9,5.6c-0.8,2.2-1.8,4.4-3.1,6.3c-0.6,0.9-1.3,1.9-1.9,2.8c-0.8,1.2-2.2,1.5-3.3,2.3c0.6-0.9,0.6-2,1.2-2.9
			c0,0,0.1-0.1,0.1-0.1c0.7-1,1.3-1.9,2-2.9c1.1-1.7,2.2-3.3,2.8-5.3c0.7-2.2,1.9-4,3.2-5.8c1.1-1.6,2.6-2.9,4.2-4.1
			c2.6-2.1,5.5-3.8,8.3-5.7c1.6-1,3.1-2.2,4.5-3.5c1.6-1.5,2.9-3.3,3.9-5.2c0.9-1.8,1.9-3.5,3.2-5.1c2.1-2.5,3.9-5.2,6.5-7.2
			c1.7-1.3,3.3-2.6,5.4-3.4c0.3-0.1,0.6-0.1,0.8-0.4c-0.4-0.7-0.9-1.3-1.6-1.7c-2.1-1.5-4.4-2.8-6.9-3.8c-3.2-1.3-6.5-2.1-9.7-3.2
			c-4.2-1.4-8.5-2.8-12.4-5.1c-0.3-0.2-0.7-0.3-1.2-0.3c0.1,0.6,0.2,1.2,0.4,1.7c0.1,0.7,0.4,1.5,0.3,2c-0.2,1.1-0.4,2.1-0.7,3.2
			c-1.1,4.6-3.9,6.8-8.6,8.1c-0.9,0.2-1.8,0.3-2.7,0.4c-3.6,0.4-7,0-9.8-2.7c-2.6-2.5-4.6-5.3-5.4-8.9c-0.7-3-0.3-5.8,0.9-8.5
			c0.3-0.6,0.5-1.3,1.1-1.8c1.5-1.6,3.3-2.7,5.3-3.5C485.2,82.8,486.1,82.7,487,82.4z M193,70.7c-1.5-1.3-2.5-2.7-3.6-4
			c-3.5-4.3-7.3-8.3-11.2-12.3c-2-2-4.1-3.8-6.1-5.7c-2.5-2.5-5.2-4.6-7.9-6.9c-3.8-3.1-7.7-6-11.9-8.5c-0.9-0.5-1.7-1.2-2.6-1.7
			c-0.2-0.1-0.4-0.3-0.5-0.5c-0.1-0.1-0.2-0.3-0.1-0.4c0.1-0.1,0.2-0.1,0.3-0.1c0.4,0.1,0.7,0.3,1.1,0.5c0.6,0.4,1.3,0.8,1.9,1.1
			c1.8,1,3.7,2,5.3,3.3c2.6,2,5.3,3.9,7.9,5.9c4.1,3.1,7.8,6.7,11.6,10.2c3.7,3.5,7.1,7.2,10.5,11c2,2.3,4.1,4.7,5.5,7.4
			c0.2,0.4,0.5,0.4,0.9,0.3c1.1-0.4,2.2-0.7,3.2-1.1c2.4-0.8,4.7-1.6,7.1-2.4c1.7-0.6,3.5-1.1,5.2-1.8c2.8-1.1,5.7-1.9,8.5-3
			c2.3-0.9,4.8-1.5,7.1-2.4c2.8-1,5.5-1.9,8.3-2.9c0.8-0.3,0.8-0.3,0.4-1c-0.7-1.2-1.6-2.4-2.3-3.7c-1-1.8-2.5-3.2-3-5.2
			c-0.2-0.6-0.5-1.2-0.9-1.8c-1.6-2.2-3.2-4.4-4.9-6.5c-1.7-2.1-3.4-4.2-5-6.4c-0.2-0.2-0.2-0.5-0.5-0.6c-0.5-0.1-0.7-0.6-0.7-1.1
			c-1,0.4-1.9,0.6-2.9-0.2c-0.8-0.7-1.8-1.3-2.7-1.9c-1.1-0.7-2-1.5-2.7-2.6c-0.6-1.1-1.7-1.5-3-1.8c1.3,1.5,2.5,2.8,3.7,4.2
			c1.3,1.6,2.7,3.2,4,4.9c2.1,2.9,4.2,5.7,6.2,8.8c0.6,0.9,1.1,1.9,1.7,2.8c0.1,0.2,0.2,0.6,0.5,0.6c0.5,0,0.8,0.4,1,0.7
			c0.8,0.9,1.6,1.7,2.4,2.6c1.2,1.4,2.5,2.8,3.5,4.4c0.1,0.2,0.3,0.4,0,0.8c-2.2-1.9-3.7-4.5-6-6.5c0.4,0.9,0.7,1.7,0.8,2.7
			c-1.1-1.1-1.8-2.3-2.5-3.6c-1.6-2.8-3.4-5.5-5.2-8.1c-1.5-2.1-3.1-4.3-4.8-6.3c-1.7-2.1-3.5-4.2-5.3-6.3c-1-1.2-2-2.3-3.6-2.6
			c-0.6-0.1-1.1-0.5-1.7-0.8c-0.4-0.2-0.8-0.3-1.2-0.5c-2.4-0.7-4.9-0.9-7.3-1.1c-2.2-0.2-4.4-0.6-6.6-0.9c-1.5-0.2-3-0.5-4.5-0.5
			c-0.6,0-1.2-0.1-1.7,0.5c0.3,0.4,0.7,0.7,1.2,1c2.9,1.8,5.4,4.2,7.8,6.6c2.6,2.6,4.8,5.5,6.9,8.5c2.7,4,5.2,8.1,7.5,12.3
			c1.6,3,3.1,6,4.5,9c0.3,0.7,0.8,1.3,0.9,2c0.2,1,0.6,1.9,0.8,2.8c0.1,0.2,0.2,0.4-0.1,0.5c-0.1,0-0.2,0-0.2-0.1
			c-1.5-2.4-2.6-5.1-3.8-7.6c-1.2-2.6-2.5-5.2-4-7.7c-0.7-1.2-1.5-2.4-2.2-3.6c-1.6-2.8-3.5-5.5-5.3-8.2c-2.3-3.2-4.9-6.2-7.8-8.9
			c-2.1-2-4.4-3.7-6.7-5.3c-0.6-0.4-1.2-0.9-2-0.5c-0.2,0.1-0.5,0-0.7,0c-1.2-0.2-2.3-0.4-3.5-0.6c-0.9-0.1-1.9-0.2-2.8,0.2
			c-2.3,1.3-4.7,2-7.1,3c-0.5,0.2-1,0.5-1.3,0.9c-0.5,0.7-1.2,1.1-1.9,1.5c-0.2,0.1-0.5,0.1-0.6,0.5c2.7,1.4,5.6,2.5,8,4.3
			c-0.2,0.3-0.3,0.2-0.5,0.1c-2.9-1.3-5.9-2.6-8.8-3.9c-0.5-0.2-1-0.4-1.6-0.3c-1.1,0-2.1,0.3-3.1,0.4c-1.5,0.1-2.7,0.8-3.7,1.8
			c-0.8,0.8-1.6,1.2-2.6,1.5c-0.7,0.2-1.2,0.5-1.7,1c-0.7,0.7-1.5,1.5-2.5,1.6c-0.8,0.2-1.6,0.4-2.4,0.5c-1.6,0.4-3.3,0.6-4.9,1.2
			c-0.4,0.1-0.7,0.3-1,0.6c-0.2,0.3-0.3,0.5,0.1,0.7c0.2,0.1,0.4,0.2,0.5,0.2c3.1,1.1,6.1,2.4,9.2,3.7c3.5,1.5,6.8,3.2,10.1,5.1
			c0.2,0.1,0.5,0.1,0.4,0.5c-0.2,0.1-0.3,0-0.5-0.1c-1.6-0.8-3.2-1.5-4.8-2.2c-4.9-2.4-10-4.5-15.1-6.4c-0.4-0.2-0.8-0.2-1.3-0.1
			c-0.9,0.2-1.8,0.5-2.6,1c-0.9,0.5-1.9,0.9-2.9,1.3c-0.4,0.2-0.6,0.4-0.4,0.8c0.4,0.9,0.4,1.8,0.6,2.7c0.2,1-0.2,1.5-0.9,2
			c-0.9,0.7-1.8,1.2-2.6,2c-0.9,0.9-2,1.7-3,2.5c-0.4,0.3-0.7,0.6-1.1,0.9c-0.2,0.2-0.3,0.4-0.3,0.7c0.4,1.4-0.3,2.5-1.3,3.3
			c-0.7,0.6-0.8,1.2-0.7,2c0,0.5,0.2,0.7,0.7,0.9c1.7,0.7,3.4,1.3,5,2.1c1.1,0.6,2.2,1.1,3.4,1.7c2.2,1.1,4.5,2.2,6.8,3.3
			c1.1,0.6,2.2,1.2,3.3,1.8c2.8,1.5,5.6,3.1,8.4,4.6c2,1,3.8,2.3,5.8,3.4c2.8,1.7,5.6,3.4,8.3,5.4c1,0.7,1.8,1.6,2.9,2.2
			c0.4,0.2,0.8,0.3,1.3,0.2c1.4-0.3,2.8-0.9,4.1-1.3c2.2-0.7,4.5-1.4,6.7-2.2c1.8-0.6,3.6-1.2,5.4-1.9c1.6-0.6,3.3-1,4.9-1.8
			c-0.7-0.4-1.4-0.8-1.9-1.4c-1.2-1.6-2.6-3-4.1-4.4c-0.3-0.3-0.6-0.6-0.9-0.9c-2.1-2.4-4.3-4.7-6.6-6.8c-1.5-1.4-3-2.6-4.5-4
			c-1.6-1.4-3.3-2.8-5-4.1c-1.6-1.3-3.4-2.4-5.1-3.5c-0.3-0.2-0.7-0.4-0.5-0.8c0.2-0.4,0.6,0,0.9,0.1c0,0,0.1,0,0.1,0
			c2.8,1.8,5.5,3.7,8.1,5.6c1.8,1.3,3.5,2.6,5.1,4.1c0.9,0.9,2,1.7,2.9,2.6c2.5,2.7,5.1,5.3,7.7,7.9c1.1,1.1,2.2,2.4,3.2,3.6
			c0.3,0.3,0.5,0.7,0.6,1.1c0.1,0.6,0.3,0.8,1,0.6C187.4,72.5,190.1,71.7,193,70.7z M154.8,169.3c0.2-0.5,0.5-0.5,0.7-0.6
			c1-0.4,1.9-0.8,2.8-1.3c1.2-0.7,2.5-1.3,3.9-1.7c5.4-1.6,10.8-3.5,16.2-5.2c1.4-0.4,2.9-0.8,4.3-1.3c1.6-0.5,3.2-1.2,4.8-1.7
			c0.8-0.2,1.5-0.5,2.2-1c-0.1-0.3-0.3-0.3-0.5-0.5c-1.5-0.8-3-1.7-4.6-2.4c-0.6-0.3-1.1-0.3-1.7-0.1c-2.8,0.9-5.7,1.8-8.5,2.6
			c-3,0.9-6.2,1.3-9.3,2.1c-0.1,0-0.3,0.1-0.3-0.2c0.5-0.2,1-0.5,1.5-0.7c1.8-0.9,3.7-1.7,5.6-2.3c2.4-0.8,4.8-1.4,7.2-2.1
			c0.6-0.2,1.3-0.3,1.9-0.8c-2.3-0.8-4.3-1.6-6.4-2.4c-0.3-0.1-0.5-0.1-0.7,0c-1.3,0.5-2.7,0.7-4,1.1c-3.6,1.3-7.3,2.1-10.9,3.2
			c-2.6,0.8-5.3,1.4-8,2c-1.7,0.4-3.3,1-5.1,1c-1.2,0-2.3,0.2-3.5,0.2c-0.2,0-0.5,0.2-0.6-0.3c1.4-0.1,2.6-1,3.9-1.5
			c0.9-0.3,1.7-0.7,2.7-0.9c2.7-0.6,5.3-1.4,8-2c2.6-0.6,5-1.5,7.6-2.1c2.2-0.5,4.3-1.2,6.6-1.9c-1.3-0.5-2.5-0.6-3.6-1
			c-2.5-0.8-5.1-1-7.7-1.5c-3.4-0.6-6.9-1.1-10.4-1.2c-0.2,0-0.5,0-0.7-0.1c-1-0.2-2-0.2-3-0.2c-0.8,0-1.5-0.2-2.3,0
			c-1.3,0.3-2.6,0.6-3.9,0.9c-1.1,0.2-2.2,0.5-3.3,0.9c-1.1,0.4-1.6,1.1-1.5,2.2c0.1,1.7-0.6,3.1-1.7,4.4c-0.6,0.7-1.3,1.4-1.9,2.1
			c-0.9,1-0.9,1.6-0.3,2.6c0.2,0.3,0.3,0.6,0.5,0.9c1.2,1.8,1,3.6,0,5.3c-0.4,0.7-0.4,1.2,0,1.7c0.4,0.6,0.7,1.2,1,1.8
			c0.6,0.9,0.6,1.8,0.3,2.8c-0.4,1.6-0.9,3.2-1.1,4.9c-0.2,1.4-0.4,2.9-0.6,4.3c-0.1,0.4,0,0.7,0.3,0.9c0.2,0.2,0.4,0.5,0.7,0.7
			c0.7,0.6,1.4,1,1.9,1.7c0.8-0.2,1.7-0.5,2.5-0.7c1-0.2,1.9-0.4,2.9-0.6c-1.4,1-2.8,1.9-4.4,2.3c-0.3,0.1-0.8,0.2-0.8,0.5
			c-0.1,0.9-0.4,1.8-0.3,2.7c0.1,0.9,0.6,1.6,1.3,2.1c0.7,0.5,1.4,0.6,2.2,0.4c2.1-0.7,4.3-1,6.6-1.3c0.2,0,0.4-0.3,0.6,0.1
			c-2,0.9-4.1,1.6-6.3,2.1c0.6,0.4,1.2,0.7,1.4,1.2c0.1,0.2,0.3,0.3,0.6,0.4c1.3,0.2,2.5,0.7,3.7,1.1c0.3,0.1,0.5,0.1,0.8,0
			c2-1.1,4.3-1,6.4-1.4c-1.7,1.2-3.6,1.9-5.7,2.5c0.8,0.8,1,1.8,1,3c1.5-0.7,2.9-1.4,4.3-2.1c1.4-0.7,2.9-0.8,4.4-1.1
			c-2,1.9-4.3,3.3-6.8,4.5c1.2,0.3,2.4,0.3,3.5,0.1c1.7-0.3,3.4-0.8,5-1.4c2-0.7,4.2-1.2,6.3-1.5c3.4-0.6,6.9-1.2,10.3-1.8
			c3.6-0.7,7.3-0.9,11-1c1.1,0,2.1,0,3.1,0.5c0.5,0.2,0.9,0.2,1.4,0.1c1.5-0.3,3-0.6,4.4-1.1c2.6-0.9,5.2-1.7,7.7-2.7
			c3-1.2,6.1-2.3,9-3.8c3.2-1.6,6.5-2.9,9.7-4.4c3-1.3,6-2.6,9.1-3.7c-0.1-0.1-0.2-0.2-0.3-0.2c-2.2-0.8-4.4-1.8-6.5-2.9
			c-0.6-0.3-1.1-0.6-1.7-0.8c-0.5-0.2-0.9-0.2-1.4,0.2c-0.7,0.6-1.4,1.1-2.1,1.6c-1.9,1.3-3.6,2.6-5.8,3.4c-0.4,0.2-0.8,0.4-1.3,0.1
			c0.4-0.4,0.9-0.7,1.1-1c0.7-1.2,1.7-1.9,2.8-2.6c1.3-0.9,2.6-1.8,4-2.7c-0.7-0.6-1.5-1-2.3-1.4c-0.3-0.2-0.6-0.1-0.8,0.1
			c-1.4,1.5-3.1,2.4-4.8,3.5c-3.6,2.2-7.3,4.2-11.1,6.2c-1.3,0.7-2.8,0.9-4.4,1.5c0.3-0.8,0.9-0.9,1.3-1.2c1-0.8,2-1.7,3.2-2.3
			c2.1-1.1,4.2-2.3,6.3-3.5c2-1.1,3.9-2.3,5.9-3.5c0.9-0.6,1.8-1.2,2.8-1.8c-1.8-0.9-3.3-2.1-4.9-3.1c-0.5-0.3-0.9-0.4-1.4-0.1
			c-0.8,0.6-1.7,1-2.6,1.4c-3.1,1.6-6.3,3-9.5,4.4c-2.8,1.3-5.7,2.4-8.5,3.7c-1.6,0.8-3.4,1.3-5,2c-2.1,0.9-4.3,1.3-6.5,1.7
			c0-0.1,0-0.3,0-0.3c1.4-0.6,2.5-1.6,3.9-2.2c0.8-0.3,1.5-0.6,2.3-0.9c2.7-1.1,5.5-2.3,8.2-3.4c2.5-1.1,5.1-2.1,7.6-3.2
			c2.7-1.2,5.3-2.4,8-3.7c0.5-0.2,1.1-0.4,1.5-0.9c-2.7-1.8-5.3-3.5-8-5c-0.3-0.1-0.4,0-0.6,0.1c-1.3,0.7-2.5,1.4-3.8,2
			c-2.8,1.3-5.8,2.3-8.8,3.3c-0.1,0-0.3,0.1-0.3-0.3c0.9-0.5,1.9-0.8,2.8-1.4c2-1.3,4.1-2.3,6.3-3.2c1-0.4,2-0.9,3.2-1.4
			c-1.7-0.9-3.3-1.8-4.9-2.6c-0.3-0.1-0.5-0.1-0.8,0.1c-2.6,1.7-5.6,2.6-8.5,3.6c-3.1,1-6.2,2.1-9.3,3.1c-3.7,1.1-7.4,2.4-11.1,3.5
			C159.7,168.8,157.3,168.8,154.8,169.3z M387.8,195.9c-0.2-0.2-0.5-0.1-0.7-0.1c-0.7,0-1.3,0.3-2.1,0.1c-0.3-0.1-0.8,0.1-1.2,0.4
			c-1.8,1.6-3.4,3.4-5,5.3c-0.9,1.2-1.6,2.4-2.3,3.8c-1.1,2.1-2.3,4.1-3.4,6.1c-1.3,2.3-2.6,4.7-4.3,6.8c-0.6,0.8-1.2,1.6-1.6,2.5
			c-0.7,1.3-1.4,2.7-2.2,4c-1.3,2.1-2.3,4.4-3.7,6.4c-0.2,0.3-0.1,0.5,0.1,0.8c0.5,0.6,1,1.2,1.4,1.9c0.8,1.3,1.8,2.1,3.3,2.5
			c0.7,0.2,1.3,0.5,1.9,0.9c0.8,0.5,1.6,0.8,2.5,1c1.1,0.2,2,0,2.7-0.9c0.7-0.9,1.4-1.8,1.9-2.8c1.3-2.6,2.3-5.3,3.7-7.9
			c0.4-0.7,0.7-1.5,1.5-1.9c0.3-0.1,0.4-0.5,0.6-0.7c0.9-1.5,1.9-3.1,2.8-4.6c0.8-1.4,1.6-2.7,2.4-4.1c1.1-1.9,2-3.8,3.1-5.7
			c1.5-2.5,2.9-5,4.6-7.4c1.9-2.7,3.5-5.5,5.9-7.8c0.2-0.2,0.4-0.3,0.3-0.8c-0.5,0.3-1.1,0.3-1.6,0.3c-1.5,0.1-2.9,0.3-4.3,0.5
			c-0.2,0-0.4,0-0.5,0.2c-0.5,1.1-1.4,1.9-2,3c-0.5,1-1.1,2-1.7,2.9c-0.8,1.4-1.6,2.8-2.4,4.1c-0.5,0.8-0.9,1.7-1.8,2.6
			c0.3-1.9,1.2-3.1,1.8-4.6c0.6-1.5,1.6-2.8,2.4-4.2c0.7-1.4,2-2.5,2.9-3.8c-0.7,0.2-1.4,0.1-2.1,0.3c-0.3,0.1-0.7,0.2-0.9,0.5
			c-2.6,3.2-4.5,6.8-6.6,10.3c-0.6,1.1-1.4,2.1-2.3,3c-0.1-0.2-0.2-0.2-0.1-0.3c0.2-0.5,0.3-1.1,0.5-1.7c1.2-2.9,3-5.5,4.7-8.2
			C386.2,197.7,387.2,196.9,387.8,195.9z M161,81.3c-0.4-0.4-0.9-0.6-1.3-0.9c-1.2-0.6-2.4-1.2-3.6-1.9c-3.9-2.4-7.6-5.1-11.6-7.4
			c-2.1-1.2-4.2-2.5-6.3-3.6c-3.5-1.9-6.9-3.7-10.4-5.4c-3.4-1.6-6.7-3.4-10.2-4.8c-0.3-0.1-0.7-0.4-1-0.2c-0.3,0.3-0.2,0.7-0.1,1.1
			c0,0.2,0.2,0.4,0.2,0.5c0.4,1,0.8,2.1,0.5,3.2c0,0.1,0,0.2,0,0.2c0.3,1.8,0.2,3.7-0.2,5.5c-0.1,0.6,0,1,0.4,1.5c0.4,0.5,1,1,1,1.8
			c0,0.6,0.3,0.7,0.8,0.8c1.4,0.3,2.6,1,4,1.4c0.1,0,0.2,0.1,0.1,0.4c-0.7-0.2-1.3-0.4-2-0.5c-0.7-0.1-1.5-0.2-2.4-0.4
			c1.1,1.1,1.5,2.2,1.6,3.6c0,0.8,0.6,1.3,1.3,1.5c0.6,0.2,1.1,0.4,1.7,0.4c3.4,0.4,6.8,1.2,10,2.4c4.1,1.4,8.1,2.8,12,4.7
			c0.3,0.2,0.7,0.3,1,0.2c1.6-0.4,3.2-0.8,4.8-1.2c0.1,0,0.1-0.1,0.1-0.2c-0.4-0.6-1.3-0.7-1.7-1.3c0.2-0.3,0.4-0.2,0.6-0.1
			c0.7,0.3,1.5,0.5,2.2,0.9c0.3,0.1,0.6,0.2,1,0.1c2.5-0.6,4.9-1.6,7.4-2.2C160.9,81.5,161,81.4,161,81.3z M281.9,16.6
			c0.3,0.6,0.6,0.8,0.9,1.1c1.9,1.7,3.7,3.4,5.2,5.4c1.1,1.4,2.1,2.7,3.2,4.1c1.4,1.7,2.7,3.5,3.9,5.3c1,1.5,1.9,2.9,2.9,4.4
			c1.5,2.2,3.1,4.4,4.2,6.8c0.3,0.6,0.6,0.7,1.2,0.6c2.1-0.2,4.1-0.3,6.2-0.4c2.9-0.1,5.7-0.1,8.6-0.2c0.5,0,0.7-0.1,0.6-0.6
			c-0.2-1.5-0.6-2.9-1.2-4.3c-1.4-3.4-3.1-6.7-4.8-9.9c-2-3.7-4.2-7.3-6.9-10.6c-0.8-1-1.6-2-2.7-2.8c-0.1,0.1-0.2,0.2-0.2,0.3
			c-0.7,1.5-1.7,2.5-3.3,3c-0.3,0.1-0.5,0.2-0.7,0.4c-0.9,0.5-1.9,0.7-2.9,0.7c-2.5,0-5-0.7-7.3-1.5
			C286.6,17.8,284.3,17.4,281.9,16.6z M355.9,44.3c0-1.5-0.7-2.8-1.1-4.1c-0.9-2.8-1.8-5.5-3-8.2c-1.1-2.6-2.2-5.2-3.3-7.8
			c-0.9-2-1.9-3.9-2.8-5.8c-0.1-0.3-0.3-0.6-0.7-0.6c-1.1,0.1-2.2-0.4-3.4-0.3c-1,0.1-1.9-0.3-2.9-0.5c-2.8-0.8-5.3-2.3-7.9-3.5
			c-1.6-0.8-3.2-1.6-4.9-2.1c-1.3-0.4-2.5-1.1-4-1.3c1,1.2,1.9,2.3,2.8,3.4c1,1.4,2,2.8,3,4.2c0.9,1.2,1.7,2.5,2.4,3.8
			c1.3,2.4,2.5,4.8,3.9,7.1c1.3,2.2,2.4,4.4,3.2,6.8c0.8,2.5,1.7,5.1,2.2,7.7c0.2,1.1,0.2,1.1,1.4,1.1c2.7,0,5.5,0,8.2,0.1
			c0.4,0,0.7,0.1,1,0.1C351.8,44.3,353.8,44.3,355.9,44.3z M306.8,15.8c0,0.4,0.3,0.7,0.5,0.9c1.6,1.8,2.8,3.8,4.2,5.7
			c1.9,2.7,3.4,5.6,4.8,8.6c1.2,2.5,2.4,4.9,3.3,7.5c0.5,1.3,1.1,2.7,1.1,4.2c0,1,0.2,1,1.3,1c1.8,0,3.6,0,5.4,0c3,0,6,0.3,8.9,0.2
			c0.7,0,0.8-0.1,0.6-0.8c-0.2-0.9-0.4-1.7-0.6-2.6c-0.7-3.2-1.7-6.3-3.3-9.2c-0.7-1.3-1.5-2.5-2.2-3.8c-1.3-2.4-2.6-4.8-4-7.2
			c-0.3-0.5-0.5-0.6-1.1-0.5c-1.3,0.3-2.7,0.6-4.1,0.4c-1.9-0.2-3.8-0.6-5.7-1c-0.4-0.1-0.8-0.1-1.1-0.2c-2.5-0.9-5-1.7-7.3-3.1
			C307.4,15.8,307.2,15.7,306.8,15.8z M268.4,18.5c0.9,1.4,2,2.7,3,4c2.3,2.9,4.7,5.6,6.7,8.8c1.1,1.8,2.3,3.5,3.2,5.3
			c1.3,2.8,2.6,5.5,2.8,8.7c0,0.5,0.3,0.6,0.7,0.5c1.7-0.3,3.5-0.4,5.2-0.6c1.8-0.2,3.6-0.4,5.4-0.5c1.6-0.1,3.3-0.3,5-0.5
			c-0.3-0.6-0.5-1-0.8-1.5c-1.1-1.8-2.2-3.6-3.3-5.3c-0.8-1.2-1.5-2.4-2.2-3.6c-0.9-1.7-2.3-3.1-3.3-4.7c-1.3-2.1-2.7-4-4.4-5.8
			c-1.3-1.4-2.6-3-4-4.4c-0.8,0.7-1.7,1.3-2.8,1.4c-2.2,0.2-4.3,0-6.5-0.6C271.5,19.5,270,18.9,268.4,18.5z M341.1,6.7
			c0.1,0.7,0.5,1.1,0.8,1.5c0.7,1,1.4,2,2,3c1.2,1.9,2.3,3.8,3.4,5.8c0.7,1.3,1.4,2.5,2,3.9c1.1,2.5,2.2,4.9,3.2,7.4
			c0.6,1.5,1.3,3,1.9,4.6c0.7,1.8,1.4,3.7,1.9,5.5c0.4,1.6,1.1,3.2,1.2,4.9c0,1.1,0.1,1,1.2,1.2c0.6,0.1,1.2,0.1,1.8,0.1
			c1.9,0,3.8,0.1,5.7,0.1c1,0,1.1,0.1,0.9-0.8c-0.2-1.7-0.5-3.3-0.6-5c-0.2-2.9-1.2-5.6-1.8-8.4c-0.4-1.8-0.9-3.6-1.4-5.4
			c-0.8-3-2-5.8-3.3-8.7c-0.2-0.4-0.3-0.6-0.9-0.5c-2.7,0.3-5.2-0.4-7.4-2c-2-1.5-4-2.9-6-4.3C344.3,8.6,342.8,7.5,341.1,6.7z
			 M271.9,47.4c3.2-0.4,6.3-0.9,9.4-1.3c0.8-0.1,0.9-0.2,0.8-1c-0.2-1.6-0.6-3.1-1.2-4.5c-1.6-3.9-3.8-7.5-6.3-11
			c-0.5-0.7-1.1-1.2-1.5-1.9c-0.9-1.4-2.1-2.6-3-3.9c-0.3-0.4-0.6-0.4-1.1-0.2c-1.5,0.7-3,1.2-4.7,1.2c-1.6,0-3.3-0.1-4.9-0.2
			c-1.7-0.1-3.4-0.4-5-1c-1.6-0.5-3.1-1.3-4.7-1.9c-0.4-0.1-0.7-0.4-1.4-0.2c0.4,0.3,0.6,0.4,0.8,0.5c2.3,2,4.4,4.2,6.6,6.2
			c1,1,2,2,3,2.9c2.2,2.1,4.3,4.3,6.4,6.4c1.4,1.5,2.6,3.1,3.9,4.6C270.1,43.7,271.4,45.2,271.9,47.4z M270,47.6
			c-0.1-1.1-0.7-1.9-1.2-2.6c-2.6-3.3-5.4-6.4-8.3-9.4c-2.3-2.2-4.6-4.4-6.8-6.7c-0.5-0.5-0.9-0.7-1.5-0.4c-0.3,0.2-0.7,0.1-1,0.1
			c-1.2,0-2.3-0.1-3.5-0.2c-2-0.1-3.9-0.6-5.9-1.1c-0.7-0.2-1.4-0.5-2.1-0.5c0.1,0.4,0.4,0.6,0.6,0.8c1.6,1.3,3.2,2.7,4.7,4
			c1.6,1.4,3,2.9,4.4,4.4c0.9,0.9,1.6,1.9,2.4,2.9c1.2,1.8,2.4,3.7,3.8,5.4c1,1.3,1.7,2.8,2.2,4.4c0.4,1,0.3,1,1.4,0.8
			c2.3-0.5,4.5-0.9,6.8-1.3C267.2,48.1,268.5,48,270,47.6z M478.7,93.9c0,1.8,0.5,3.6,1.2,5.3c1,2.4,2.8,4.3,4.7,5.9
			c1.7,1.4,3.8,1.6,5.9,1.7c2.6,0.1,5.1-0.3,7.4-1.5c1.3-0.6,2.4-1.5,3-2.9c0.6-1.3,0.9-2.7,1.3-4c0.1-0.2,0.1-0.4,0-0.6
			c-0.5-0.6-0.3-1.3-0.3-1.9c0-0.8-0.1-1.6-0.6-2.2c-0.9-1.2-1.4-2.6-2.1-3.9c-0.8-1.4-1.8-2.7-3-3.7c-1.6-1.3-3.5-1.8-5.4-2
			c-3.7-0.3-6.9,0.9-9.7,3.3c-0.3,0.3-0.6,0.6-0.8,1C479.3,90,478.7,91.9,478.7,93.9z M230,33.4c0.8,0.9,1.6,1.9,2.5,2.7
			c2.4,2.2,4.5,4.6,6.5,7.1c2.3,2.9,4.6,5.9,6,9.5c0.2,0.4,0.4,0.5,0.8,0.3c2.7-0.8,5.4-1.5,8.2-2.2c0.8-0.2,1.6-0.2,2.3-0.7
			c-0.7-1.6-1.4-3.1-2.4-4.5c-1.2-1.7-2.5-3.3-3.6-5.1c-1.7-2.8-4-5-6.3-7.3c-0.2-0.2-0.4-0.3-0.6-0.2c-0.9,0.3-1.9,0.3-2.9,0.5
			c-3.1,0.6-6.2,0.5-9.3-0.1C230.7,33.4,230.4,33.1,230,33.4z M243.7,53.4c-0.7-1.5-1.6-3-2.5-4.4c-2.3-3.6-5.2-6.7-8.1-9.7
			c-1.5-1.5-3-3-4.5-4.5c-0.7-0.7-1.2-1.6-2.4-1.1c-1.5-0.4-3-0.3-4.5-0.8c-0.6-0.2-1.2-0.4-2-0.4c0.4,0.5,0.7,1,1.1,1.5
			c2.2,2.7,4.5,5.3,6.6,8.1c1.5,1.9,2.7,4.1,3.9,6.2c1.3,2.3,2.5,4.6,4.1,6.7c0.7,0.9,1,1,2.1,0.7c1.8-0.5,3.6-1.1,5.4-1.7
			C243.1,53.8,243.5,53.8,243.7,53.4z M365.9,29.5c0.1,0.7,0.3,1.4,0.4,2.1c0.5,2,1.2,3.9,1.4,5.9c0.2,2.2,0.9,4.4,1,6.6
			c0,0.6,0.3,0.8,0.9,0.8c3.2,0.1,6.4,0,9.5,0.4c0.3,0,0.5,0,0.5-0.4c-0.1-2.4,0.1-4.9-0.4-7.3c-0.1-0.6,0-1.2-0.2-1.7
			c-0.1-0.3-0.2-0.6-0.7-0.5c-1.6,0.5-3.2,0.1-4.7-0.4c-2.7-0.9-5.2-2.2-6.9-4.6C366.5,30.1,366.4,29.7,365.9,29.5z"/>
		<path d="M375.1,164.4c0.3,0,0.4-0.4,0.8-0.2c-0.5,0.9-1.3,1.6-2,2.3c-1.5,1.4-3,2.8-4.7,4c-1.3,0.9-2.4,1.9-3.5,3
			c-1.7,1.5-3.6,2.8-5.5,4.1c-0.7,0.5-1.3,1.1-2.1,1.5c-3.7,2.5-7.6,4.8-11.7,6.6c-3,1.4-6.2,2.4-9.5,3c-1.6,0.3-3.3,0.5-4.9,0.4
			c-2,0-3.9-0.2-5.5-1.6c-0.7-0.6-1.6-0.7-2.3-1.1c-1.4-0.6-2.8-1.3-4.1-2.1c-1.7-1-3.6-1.6-5.5-1.8c-1-0.1-2-0.4-3-0.7
			c-0.9-0.3-1.7-0.8-2.3-1.5c-1-1.1-1.3-2.3-0.7-3.8c0.2-0.6,0.5-1.1,0.3-1.8c-0.2-0.6-0.3-1.2-0.9-1.6c-0.5-0.4-0.9-1-1.1-1.6
			c-0.2-0.6-0.5-1.2-1.1-1.5c-0.7-0.5-1.1-1.1-1.4-1.9c-0.2-0.4-0.4-0.6-0.8-0.7c-0.9-0.3-1.3-1-1-1.9c0.1-0.6,0.1-0.9-0.2-1.4
			c-0.6-0.8-0.8-1.8-0.7-2.8c0.1-0.6,0.1-1.2,0.2-1.9c0.1-1,0-1.9-0.9-2.6c-0.1-0.1-0.3-0.3-0.3-0.5c-0.1-1.7-1.2-3-2-4.5
			c0-0.1-0.1-0.1-0.1-0.2c-0.2-1.7-1.3-2.9-2.1-4.3c-0.5-1-0.6-1.9-0.1-2.9c0.4-0.9,0.8-1.8,1.3-2.8c0.3-0.7,0.4-1.5,0.2-2.3
			c-0.2-0.6-0.3-1.2-0.4-1.8c-0.1-0.5-0.1-1.1,0.1-1.6c0.2-0.5,0.3-1,0.5-1.5c0.5-1.2,0.2-2.2-0.6-3.1c-0.8-0.9-1-2.2,0.2-3.2
			c0.2-0.1,0.4-0.3,0.5-0.4c0.8-0.7,1.8-1.3,2.7-1.9c0.6-0.4,0.9-0.7,0.7-1.5c-0.2-0.8,0.1-1.6,0.3-2.4c0.4-1.2,0.4-2.4-0.2-3.5
			c-0.6-1-0.4-1.9,0.3-2.7c1.1-1.2,2.3-2.4,3.8-3.1c0.7-0.3,1.3-0.4,2.1-0.4c2.4,0.1,4.7,0.4,7,0.8c1.2,0.2,2.4,0.6,3.7,0.8
			c3.4,0.8,6.6,1.8,9.8,3c2.8,1.1,5.6,2.3,8.3,3.5c3.6,1.7,7.3,3.3,10.8,5.2c2.7,1.4,5.4,2.5,8.1,3.8c2.3,1.1,4.6,1.9,7,2.7
			c4,1.4,8,2.6,12.2,3.6c2.7,0.6,5.3,1.3,8,1.9c0.8,0.2,1.5,0.4,2.3,1.1c-1.2,0-2.2,0.1-3.2,0c-1.1-0.2-2.2-0.2-3.3-0.3
			c-1.6-0.1-3.2-0.4-4.7-0.8c-2.8-0.8-5.7-1.3-8.5-2.1c-3.2-1-6.4-2-9.5-3.4c-2.2-1-4.5-2-6.8-3c-1.8-0.8-3.5-1.7-5.3-2.6
			c-4.6-2.2-9.2-4.4-13.9-6.4c-2.7-1.1-5.4-2.1-8.2-2.9c-2.3-0.7-4.7-1.3-7-1.8c-2.7-0.5-5.4-1-8.2-0.8c-0.5,0-0.8,0.2-1.2,0.5
			c-0.5,0.4-1,0.8-1.5,1.3c-0.6,0.6-0.7,0.9-0.3,1.7c0.7,1.4,0.7,2.9,0.2,4.4c-0.2,0.7-0.4,1.5-0.2,2.2c0.3,1.1-0.1,1.9-1,2.5
			c-0.9,0.6-1.9,1.3-2.8,1.9c-1.1,0.7-1.2,1-0.6,2.2c0.4,0.7,0.6,1.3,0.7,2.1c0,0.6-0.1,1.1-0.3,1.6c-0.6,1.4-0.5,2.8-0.1,4.2
			c0.4,1.4,0.2,2.8-0.5,4.1c-0.1,0.2-0.2,0.3-0.3,0.5c-0.6,1.7-1.3,1.6,0,3.9c0.5,1,0.9,2,1.2,3c0.2,0.5,0.4,0.8,1,0.8
			c1.2-0.1,2,0.7,3.2,0.9c-1.1,0.6-2.2,0.7-3.3,0.8c0.3,0.9,0.9,1.6,1.4,2.3c0.2,0.4,0.6,0.2,1,0.3c0.8,0.2,0.9,0.4,0.3,1
			c-0.2,0.2-0.3,0.2-0.2,0.5c0.4,1.3,0.2,2.7,0.1,4c-0.1,0.9,0.1,1.8,0.3,2.6c0.2,0.2,0.3,0,0.4,0c1.1-0.2,1.4,0,1.2,1.1
			c0,0.2-0.1,0.5-0.2,0.7c0,0.2-0.1,0.3,0.1,0.4c1,0.9,1.3,2.4,2.6,3.1c0.5,0.3,0.9,0.8,1.1,1.4c0.4,1,1.1,1.6,1.9,2.1
			c0.5,0.3,0.7,0.6,0.7,1.1c-0.1,1-0.1,2-0.4,3c-0.6,1.6,0,2.7,1.7,3.2c1.1,0.3,2.3,0.5,3.4,0.7c1.4,0.2,2.8,0.6,4.2,1.1
			c0.4,0.1,0.7,0.3,1.1,0.5c1.3,0.9,2.8,1.6,4.3,2.2c0.7,0.3,1.4,0.6,2,0.9c1.4,0.7,2.9,1.1,4.4,1.2c1.1,0,2.3-0.1,3.4-0.2
			c2.9-0.2,5.5-1.3,8.1-2.6c2.1-1,4.2-2,6.2-3c0.9-0.4,1.6-1.1,2.5-1.5c1.1-0.6,2.3-1.1,3.4-1.7c2.2-1.1,4.3-2.4,6.4-3.8
			c1.6-1.1,3.3-2.3,5-3.3c2-1.2,3.9-2.6,5.8-4c0.4-0.3,0.8-0.5,1.2-0.7C374.2,165.3,374.8,164.9,375.1,164.4L375.1,164.4z"/>
		<path d="M437.9,100.9c0,0.4-0.3,0.6-0.6,0.8c-1.5,1.5-3,3.1-4.5,4.6c-1.5,1.6-2.9,3.3-3.3,5.6c-0.3,1.3-0.4,2.6-0.6,4
			c-0.5,4.6-1.5,9-3.5,13.2c-0.5,1-0.7,2.2-1.1,3.2c-1,2.3-1.9,4.7-2.4,7.2c-1,4.7-1,9.3,0.6,13.9c0.9,2.5,2,4.9,3.8,7
			c1,1.1,2.1,2,3.3,2.9c3.6,2.6,7.7,3.9,11.9,4.9c3,0.7,6.1,1.2,9.2,1.8c1.4,0.3,2.9,0.3,4.3,0.5c1,0.1,2,0.3,3,0.5
			c0.2,0,0.5,0,0.7,0.2c0.2,0.2,0.5,0.3,0.4,0.6c-0.1,0.3-0.4,0.3-0.7,0.3c-2,0.1-3.9-0.2-5.9-0.4c-1.2-0.1-2.3-0.2-3.5-0.4
			c-1.3-0.2-2.6-0.3-3.8-0.6c-1.9-0.4-3.8-0.9-5.7-1.3c-1.8-0.4-3.4-1-5.1-1.7c-2.7-1-5.2-2.4-7.4-4.3c-1.5-1.3-2.9-2.8-3.9-4.6
			c-1.9-3-2.8-6.3-3.4-9.7c-0.5-2.8-0.3-5.6,0.3-8.4c0.7-3.3,2-6.4,3.1-9.6c0.6-1.7,1.4-3.2,2-4.9c1.3-3.7,2.1-7.5,2.4-11.5
			c0.2-2.7,1.3-5.1,2.8-7.3c1.4-2.1,3.2-3.9,5.4-5.2c0.5-0.3,1-0.7,1.4-1.2C437.2,101.1,437.4,100.8,437.9,100.9z"/>
		<path d="M486,165.4c-1.6,0.8-3.1,0.5-4.3-0.4c-1.6-1.1-2.6-2.7-3.1-4.6c-0.7-2.7-0.7-5.5,0-8.3c0.4-1.5,0.7-3,1.2-4.5
			c-0.1,0-0.1-0.1-0.2-0.1c-0.6,0.8-1.3,1.6-1.8,2.4c-1.2,1.7-2.2,3.5-2.3,5.7c-0.1,0.8-0.3,1.7-1.1,2.3c-0.9-0.7-1-1.5-0.9-2.5
			c0.3-2.7,1.5-5,3.3-7c0.7-0.8,1.4-1.7,2.1-2.6c1.2-1.5,2.7-2.8,4.2-3.9c3.6-2.6,7.4-4.8,11.4-6.8c3.3-1.6,6.8-3.1,10.1-4.8
			c2.5-1.3,4.9-2.9,7.3-4.5c2.2-1.5,3.9-3.4,5.9-5c0.3-0.3,0.6-0.6,0.9-0.9c0.5-0.5,1-0.6,1.3-0.3c0.4,0.3,0.3,0.8-0.1,1.3
			c-0.8,1.1-2,1.8-3,2.8c-3.8,3.4-8.1,6.1-12.6,8.4c-3.2,1.7-6.6,3.2-9.8,4.8c-3.6,1.8-7,3.8-10.3,6.1c-0.6,0.4-1.1,0.8-1.1,1.6
			c-0.1,0.5-0.6,0.9-0.9,1.5c-1.1,2.3-1.6,4.7-2.1,7.2c-0.5,2.3-0.4,4.5,0.3,6.7c0.6,1.7,1.6,3.1,3.3,3.7
			C484.5,164.1,485.3,164.5,486,165.4z"/>
		<path d="M375.9,148.9c-1.3-0.1-2.5-0.4-3.6-0.6c-3.3-0.6-6.5-1.4-9.8-1.9c-2.8-0.4-5.6-1-8.5-1.3c-2.7-0.2-5.4-0.7-8.2-0.9
			c-2.2-0.2-4.4-0.2-6.6-0.3c-5.2-0.1-10.4-0.2-15.6-0.2c-3.5,0-7,0-10.5-0.1c-1.2,0-2.3-0.2-3.5-0.2c0.6-0.5,1.4-0.4,2.2-0.5
			c1.6-0.2,3.2-0.6,4.8-0.7c0.4,0,0.9-0.1,1.3-0.1c2.4,0,4.8-0.2,7.2-0.4c0.3,0,0.6-0.1,0.9-0.1c5.2-0.1,10.3,0.1,15.4,0.3
			c3.2,0.1,6.3,0.4,9.5,0.8c1.7,0.2,3.3,0.4,5,0.6c0.2,0,0.4,0,0.6,0.1c1.7,0.9,3.6,0.5,5.4,0.8c0.8,0.1,1.7,0.2,2.4,0.5
			c1.6,0.7,3.4,0.9,5.1,1.1c1.1,0.1,2.1,0.5,3.1,0.9c1,0.4,2,0.8,2.9,1.5C375.7,148.5,375.9,148.6,375.9,148.9z"/>
		<path d="M355.5,158.3c0.1-0.4,0.3-0.5,0.4-0.5c2.2-0.4,4.2-1.2,6.3-1.9c1.9-0.6,3.7-1.3,5.7-1.5c0.4,0,0.8-0.2,1.3-0.3
			c-0.5-0.3-0.9-0.3-1.2-0.3c-2.9,0.3-5.8,0.2-8.7,0.4c-4.1,0.3-8.2,0.5-12.3,1c-2.7,0.3-5.4,0.6-8.1,0.9c-2,0.2-4,0.5-6,0.9
			c-1.6,0.3-3.2,0.4-4.8,0.7c-2.6,0.5-5.2,0.7-7.8,0.8c-1.3,0-2.6,0.1-3.9,0.2c0.1-0.4,0.3-0.4,0.6-0.4c1.8-0.2,3.3-1.1,5.1-1.5
			c2.6-0.6,5.3-1.1,8-1.3c1.3-0.1,2.6-0.4,3.9-0.5c2.2-0.3,4.4-0.5,6.5-0.7c2.4-0.3,4.8-0.5,7.1-0.8c2.3-0.3,4.5-0.3,6.8-0.6
			c1.9-0.2,3.8-0.1,5.6-0.3c1-0.1,1.9,0.1,2.9,0.1c1,0,2-0.2,3-0.1c1.7,0.3,3.3,0.7,5,0.9c0.7,0.1,1.4,0.1,2.1,0
			c0.2,0,0.4-0.1,0.6-0.1c0.3,0,0.7,0,0.8,0.3c0.1,0.4-0.2,0.6-0.5,0.8c-1.1,0.5-2.2,0.8-3.3,1.1c-1.6,0.5-3.1,0.9-4.7,1.3
			c-1,0.2-2,0.5-3,0.6C360.4,157.6,358,157.9,355.5,158.3z"/>
		<path d="M429.2,177.1c-0.8,0.3-1.3,0-1.9,0c-2.2-0.1-4.2-0.6-6.3-1.2c-2.6-0.8-5.2-1.6-7.7-2.6c-3.4-1.4-6.8-2.8-9.9-4.9
			c-3.7-2.6-6.9-5.8-9.2-9.6c-1.2-2-1.8-4.2-2.2-6.5c-0.3-1.8-0.7-3.5-1-5.3c-0.4-2-0.7-4.1-0.8-6.2c-0.1-3.1-0.1-6.1-0.5-9.2
			c-0.4-3.1-0.7-6.1-1.6-9.1c-0.7-2-1.6-3.9-3.7-5c-0.2-0.1-0.4-0.3-0.3-0.6c0.1-0.2,0.3-0.2,0.5-0.2c0.9,0,1.6,0.5,2.2,1.2
			c1.4,1.6,2.3,3.5,2.8,5.6c0.7,3.1,1.3,6.3,1.6,9.5c0.2,2.2,0.2,4.4,0.3,6.6c0.1,3.1,0.5,6.2,1.2,9.2c0.2,1,0.4,2.1,0.6,3.1
			c0.6,4.6,3,8.3,6.2,11.5c3.1,3,6.6,5.4,10.6,7.1c1.5,0.7,3.1,1.3,4.7,1.8c1.1,0.3,2.1,0.7,3.2,1.1c2.3,0.7,4.7,1.4,7,2.2
			C426.5,175.9,427.7,176.5,429.2,177.1z"/>
		<path d="M371.3,159.8c-0.7,0.3-1.4,0.6-2.1,0.7c-2.6,0.5-5,1.6-7.5,2.2c-1.9,0.5-3.8,1-5.7,1.5c-1.8,0.5-3.6,1-5.5,1.3
			c-3,0.6-5.9,1.4-8.9,1.9c-3.1,0.6-6.2,1.1-9.2,1.6c-2.4,0.4-4.8,0.8-7.2,1.1c-2.2,0.3-4.3,0.3-6.4,0.1c-0.4,0-0.9,0.2-1.4,0.1
			c-0.1-0.3,0.1-0.4,0.3-0.4c0.8-0.1,1.6-0.4,2.4-0.6c1.8-0.7,3.7-1.1,5.7-1.3c1.6-0.1,3.1-0.5,4.6-0.7c2.6-0.4,5.2-0.8,7.8-1.3
			c1.5-0.3,3-0.5,4.5-0.9c5.2-1.1,10.3-2.3,15.4-3.6c1.6-0.4,3.3-0.5,5-0.8c2.1-0.4,4.1-1,6.1-1.6c0.5-0.2,1-0.4,1.6-0.5
			c0.3-0.1,0.6-0.4,0.8,0.1c0.1,0.3-0.2,0.4-0.4,0.6C370.8,159.5,370.9,159.6,371.3,159.8z"/>
		<path d="M371.3,140.9c-2.3-0.1-4.5,0.2-6.8-0.4c-3.6-0.8-7.2-1.4-10.9-1.9c-2-0.3-3.9-0.7-5.9-1c-3.4-0.5-6.7-1.1-10.1-1.6
			c-2.9-0.4-5.8-0.9-8.7-1.3c-3.3-0.5-6.7-1-10-1.3c-2.3-0.2-4.7-0.6-7-0.7c-0.7,0-0.9-0.3-0.9-0.8c0-0.5,0.3-0.7,1-0.8
			c1.5-0.1,3,0.2,4.5,0.3c2.3,0.3,4.5,0.5,6.8,0.8c3,0.4,5.9,0.8,8.8,1.3c2.6,0.4,5.1,0.7,7.7,1.1c1.4,0.2,2.8,0.5,4.2,0.7
			c2.4,0.4,4.9,0.8,7.3,1.2c3.4,0.6,6.7,1.1,10.1,1.7c2.7,0.5,5.5,1.1,8.1,1.8C370.1,140.2,370.7,140.5,371.3,140.9z"/>
		<path d="M340,175.7c0.1-0.3,0.1-0.4,0.2-0.4c1.7-0.5,3.3-1.5,4.9-2.2c1.7-0.8,3.5-1.5,5.3-2.1c2.4-0.8,4.9-1.7,7.3-2.5
			c2.7-1,5.5-1.8,8.1-3c1.4-0.6,2.8-1.1,4.3-1.6c0.2-0.1,0.4-0.1,0.6,0c-0.7,0.7-1.6,1.1-2.4,1.6c-1.7,1.1-3.4,2.2-5.1,3.3
			c-0.2,0.1-0.4,0.3-0.6,0.3c-2.6,0.7-5.1,1.8-7.7,2.7c-2.2,0.8-4.5,1.4-6.7,2.1c-1.5,0.5-3.1,0.8-4.7,1
			C342.4,175.3,341.3,175.5,340,175.7z"/>
		<path d="M34.7,85.2c2.6-0.1,5.2,0.1,7.8,0.6c4.5,0.9,9,1.7,13.5,2.7c4,0.9,8,1.7,12,2.8c2.1,0.5,4.1,1.2,6.2,1.8
			c0.6,0.2,1.1,0.4,1.6,0.6c0.2,0.1,0.4,0.3,0.3,0.6c-0.1,0.2-0.3,0.2-0.5,0.2c-0.6,0.1-1.2-0.1-1.7-0.3c-3.2-0.9-6.4-1.6-9.7-2.4
			c-2.5-0.6-5-1.1-7.5-1.7c-2.5-0.6-5-1-7.5-1.5c-1.8-0.4-3.6-0.7-5.4-1c-1.5-0.3-2.9-0.6-4.4-0.7c-0.7,0-1.3-0.2-1.9-0.4
			c-0.9-0.3-1.8-0.6-2.8-0.9C34.7,85.4,34.7,85.3,34.7,85.2z"/>
		<path d="M53.6,150.5c0-0.1,0-0.2,0.1-0.2c1.5-0.8,2.8-1.6,4.3-2.4c1.9-1,3.9-1.8,5.9-2.7c2.5-1.1,5-2.1,7.5-3.1
			c3.8-1.6,7.8-2.8,11.7-4.2c1.2-0.5,2.6-0.7,3.9-0.9c0.3-0.1,0.7,0,0.8,0.4c0.1,0.4-0.1,0.6-0.4,0.8c-1,0.6-2.1,0.8-3.2,1.2
			c-2.7,1-5.5,1.8-8.2,2.8c-1.5,0.6-3.1,1.1-4.6,1.7c-1.4,0.6-2.9,1.2-4.3,1.8c-2.5,1-4.9,1.9-7.4,3c-1.9,0.8-3.8,1.4-5.8,2
			C53.7,150.6,53.6,150.5,53.6,150.5z"/>
		<path d="M54.5,133.3c2-0.7,3.7-1.8,5.6-2.5c2.2-0.9,4.4-1.5,6.7-2.2c3.8-1.2,7.6-2.3,11.3-3.4c2.8-0.8,5.6-1.3,8.4-2.3
			c0.4-0.1,0.8-0.2,1.3-0.2c0.4,0,0.6,0.3,0.7,0.6c0.1,0.4-0.3,0.4-0.5,0.5c-0.6,0.3-1.3,0.5-2,0.6c-3,0.7-5.8,1.9-8.7,2.8
			c-2.5,0.8-5,1.4-7.4,2.2c-2.1,0.7-4.2,1.3-6.4,1.9c-2.4,0.6-4.8,1.2-7.3,1.8C55.7,133.2,55.1,133.6,54.5,133.3z"/>
		<path d="M35.2,107.3c1.9-0.8,3.9-1,6-1c3.1-0.1,6.1-0.2,9.2-0.4c1-0.1,2,0,2.9,0c2.1,0,4.2-0.2,6.2-0.3c5-0.2,10,0.1,15,0.1
			c1.1,0,2.2,0.2,3.3,0.2c0.4,0,0.7,0.2,1,0.6c-0.2,0.5-0.6,0.3-0.9,0.3c-2.9,0.2-5.7-0.1-8.6-0.1c-3.8,0.1-7.6,0-11.3,0.1
			c-2.2,0.1-4.3,0-6.5,0.3c-2.5,0.3-5,0.2-7.5,0.4c-2,0.2-4.1,0.2-6.1,0.2C36.9,107.6,36.1,107.3,35.2,107.3z"/>
		<path d="M41.3,130.5c0.1-0.3,0.2-0.4,0.2-0.4c2.6-0.8,5-1.9,7.7-2.6c4.4-1.1,8.8-2.4,13.2-3.5c3.6-1,7.3-1.9,10.9-2.8
			c3.3-0.8,6.6-1.6,9.9-2.3c0.6-0.1,1.1-0.2,1.7-0.1c0.3,0,0.5,0.2,0.5,0.4c0,0.2-0.2,0.4-0.3,0.4c-0.2,0.1-0.4,0.2-0.7,0.2
			c-3.9,0.7-7.8,1.8-11.7,2.7c-5.3,1.2-10.6,2.7-15.8,4c-3.7,0.9-7.4,2.1-11.1,3.1C44.4,130.1,42.9,130,41.3,130.5z"/>
		<path d="M45.7,143.8c0.1-0.3,0.1-0.4,0.1-0.4c2-0.9,3.8-2.1,6-2.7c2.3-0.7,4.5-1.4,6.8-2.2c3.9-1.3,7.9-2.5,11.9-3.7
			c2.3-0.7,4.7-1.3,7-1.9c0.4-0.1,0.8-0.1,1.1-0.2c0.1,0.7-0.5,0.8-0.9,0.9c-1.1,0.2-2,0.7-3,1.1c-3.9,1.4-7.7,2.9-11.6,4.1
			c-2.5,0.8-5,1.6-7.5,2.3c-1.8,0.5-3.6,1.3-5.4,1.9C48.8,143.4,47.3,143.6,45.7,143.8z"/>
		<path d="M34.9,115.7c0-0.2,0.2-0.3,0.3-0.3c1.7-0.2,3.5-0.7,5.2-1.1c0.8-0.2,1.6-0.2,2.4-0.3c2.9-0.3,5.8-0.7,8.6-0.9
			c1.8-0.2,3.6-0.2,5.4-0.4c3.2-0.4,6.5-0.5,9.7-0.8c3-0.3,6.1-0.5,9.1-0.3c0.2,0,0.3,0,0.4,0.3c-0.6,0.1-1.3,0.2-1.9,0.3
			c-2.4,0.1-4.8,0.4-7.1,0.6c-2.4,0.2-4.8,0.4-7.2,0.8c-1.7,0.3-3.5,0.3-5.3,0.5c-2.1,0.2-4.1,0.5-6.2,0.7c-1.9,0.1-3.7,0.4-5.6,0.6
			c-1.5,0.2-3,0.3-4.4,0.3c-1.1,0-2.2-0.2-3.2,0.1C35.1,115.9,35,115.9,34.9,115.7z"/>
		<path d="M51,120.7c-1,0.8-2,1.1-3,1.3c-1.8,0.3-3.5,0.8-5.3,1.1c-2.7,0.5-5.4,1.2-8.1,1.7c-3.3,0.6-6.6,1.3-9.8,2.3
			c-0.8,0.2-1.6,0.1-2.3,0.4c-0.1,0.1-0.3,0-0.4-0.1c-0.1-0.2,0-0.3,0.1-0.4c0.1-0.1,0.2-0.2,0.4-0.3c2.8-0.9,5.6-1.9,8.5-2.4
			c1.2-0.2,2.4-0.5,3.6-0.8c3.5-0.9,7-1.5,10.6-2.3c0.8-0.2,1.6-0.4,2.4-0.5C48.7,120.5,49.8,120.6,51,120.7z"/>
		<path d="M54.9,99.2c1.3,0,2.6,0,3.9,0c3.5,0,7,0.4,10.5,0.9c2.9,0.4,5.8,0.8,8.7,1.2c1.3,0.2,2.6,0.5,3.9,0.7
			c0.4,0.1,0.8,0.2,1.1,0.4c0.2,0.2,0.3,0.4,0.2,0.6c-0.1,0.2-0.2,0.3-0.5,0.3c-0.3,0-0.6,0-0.9,0c-1.2-0.2-2.4-0.5-3.6-0.7
			c-1.6-0.3-3.2-0.5-4.8-0.7c-2.2-0.3-4.3-0.7-6.5-0.9c-1.1-0.1-2.2-0.3-3.3-0.4c-2.1-0.2-4.2-0.6-6.3-0.9c-0.9-0.1-1.8-0.3-2.6-0.4
			C54.9,99.4,54.9,99.3,54.9,99.2z"/>
		<path d="M342.5,221.3c0.7-2.1,1.9-3.5,3.1-4.9c2-2.3,4-4.6,6.2-6.8c1.5-1.5,3.1-3.1,4.9-4.4c0.8-0.6,1.5-1.4,2.4-1.9
			c0.3-0.2,0.6-0.3,1-0.5c0.3-0.1,0.6-0.1,0.7,0.2c0.2,0.3,0.1,0.6-0.2,0.8c-0.1,0.1-0.3,0.3-0.5,0.4c-1.6,1.1-3,2.5-4.5,3.7
			c-2.2,1.8-4,3.8-5.9,5.9c-1.8,2-3.6,4.1-5.4,6.1C343.9,220.5,343.3,220.8,342.5,221.3z"/>
		<path d="M61.2,153c0.3-0.6,0.9-0.8,1.4-1c2-1.1,4.1-2,6.3-2.9c3.6-1.5,7.3-2.9,10.8-4.5c2.8-1.2,5.7-2.2,8.6-3.1
			c0.7-0.2,1.4-0.5,2.1-0.8c0.4-0.2,0.8-0.3,1.2-0.1c0,0.5-0.4,0.6-0.7,0.7c-2.4,0.8-4.6,2-7,2.8c-3.5,1.2-6.9,2.8-10.3,4.2
			c-2.8,1.1-5.6,2.5-8.4,3.5C63.8,152.3,62.6,152.9,61.2,153z"/>
		<path d="M487.2,110c-1.1,0-2.1,0.1-3.1-0.1c-2.2-0.3-4.3-0.7-6.3-1.7c-1.6-0.8-3.2-1.7-4.5-3c-0.6-0.5-0.7-1.3-1.1-1.9
			c-0.1-0.2,0-0.4,0.2-0.6c0.2-0.2,0.4-0.1,0.6,0c0.1,0.1,0.3,0.2,0.4,0.3c2.3,2.8,5.5,4.1,8.8,5c0.6,0.2,1.1,0.4,1.6,0.7
			C484.9,109.2,486,109.7,487.2,110z"/>
		<path d="M54.3,81.6c2.6,0.3,5.3,0.6,7.8,1.4c1.5,0.5,3,0.8,4.5,1.3c2,0.7,4,1.4,6,2.1c0.8,0.3,1.6,0.6,2.4,0.8
			c0.3,0.1,0.6,0.3,0.8,0.4c0.1,0.1,0.2,0.2,0.1,0.3c0,0.1-0.2,0.2-0.3,0.2c-0.4-0.1-0.8-0.1-1.1-0.2c-0.7-0.4-1.4-0.5-2.1-0.6
			c-1.8-0.3-3.4-1-5.2-1.6c-1.9-0.6-3.9-1.2-5.8-1.8c-1.9-0.6-3.9-0.9-5.7-1.8C55.3,82,54.7,82.1,54.3,81.6z"/>
		<path d="M350.3,228.8c0.1-2,1-3.4,2-4.7c1.3-1.9,2.7-3.8,4.2-5.6c0.4-0.5,0.9-1,1.3-1.5c0.6-0.7,1.3-1.5,1.6-2.4
			c0.3-0.8,0.8-1.5,1.3-2.2c0.3-0.5,0.6-0.6,1.1-0.4c0.5,0.3,0.4,0.7,0.1,1.1c-0.6,0.9-1.3,1.7-2,2.5c-0.4,0.5-0.9,1-1.2,1.6
			c-1.2,2.1-2.8,3.9-4.1,5.9c-0.8,1.2-1.5,2.4-2.3,3.6C351.8,227.4,351.1,228,350.3,228.8z"/>
		<path d="M375.1,164.3c-0.5-0.1-0.7,0.3-1,0.5c-0.2,0.1-0.4,0.3-0.7,0c1.7-1.7,3.4-3.6,5.2-5.2c1.8-1.6,3.4-3.5,4.7-5.6
			c0.5-0.8,1.1-1.6,1.5-2.4c0.4-0.7,0.8-1.5-0.2-2.2c-0.2-0.1-0.2-0.3-0.1-0.5c0.2-0.3,0.4-0.5,0.8-0.4c0.5,0.1,0.9,0.4,1.1,1
			c0.3,0.8,0.2,1.6-0.2,2.4c-0.6,1.2-1.5,2.3-2.4,3.3c-2,2.1-3.8,4.5-5.9,6.5c-0.7,0.7-1.5,1.2-2.3,1.8
			C375.4,163.9,375,163.9,375.1,164.3C375.1,164.4,375.1,164.3,375.1,164.3z"/>
		<path d="M367.2,203.3c0.2-0.8,0.5-1.5,1-2.2c0.5-0.6,1.1-1.1,1.2-2c0-0.3,0.3-0.4,0.6-0.5c0.4,0,0.7-0.3,1-0.6
			c1.5-1.8,3.3-3.2,5.1-4.7c0.6-0.5,1.2-0.9,1.7-1.4c0.2-0.2,0.4-0.4,0.7-0.4c0.2,0,0.4-0.1,0.5,0.1c0.2,0.2,0.2,0.5,0,0.6
			c-0.4,0.4-0.7,0.8-1.2,1.2c-1.8,1.3-3.4,3-5.1,4.5c-1.1,1-2.1,2.2-3.1,3.3C368.9,202,367.9,202.5,367.2,203.3z"/>
		<path d="M82.7,101.4c1.7-0.2,3.4-0.4,5.1-0.1c2.1,0.4,4.3,0.8,6.4,1.4c0.2,0.1,0.4,0.1,0.6,0.1c0.3,0.1,0.4,0.3,0.3,0.7
			c-0.1,0.3-0.3,0.3-0.6,0.3c-3.2-0.5-6.4-0.9-9.6-1.6C84.2,102,83.5,101.7,82.7,101.4z"/>
		<path d="M35.9,111.8c-1.1,0.8-2.2,0.9-3.3,1c-2.6,0.3-5.2,0.5-7.8,0.7c-0.1,0-0.2,0-0.2,0c-0.4,0-0.9,0.2-1-0.4
			c-0.1-0.5,0.4-0.6,0.8-0.8c0.2-0.1,0.5-0.1,0.8-0.1c2.8,0,5.5-0.4,8.3-0.7C34.2,111.4,34.9,111.6,35.9,111.8z"/>
		<path d="M338,129.8c-1.6-0.2-3-0.3-4.5-0.6c-1.4-0.2-2.7-0.5-4-0.8c-1.1-0.3-2.3-0.6-3.4-0.7c-0.3,0-0.5-0.2-0.5-0.5
			c0-0.2,0.3-0.3,0.5-0.4c0.2-0.1,0.4-0.1,0.7-0.1c3.8,0.4,7.5,1.5,11.1,2.9C337.9,129.5,337.9,129.6,338,129.8z"/>
		<path d="M37.8,75.9c-0.9,0.1-1.4-0.2-2-0.3c-1.8-0.4-3.4-1.2-5.1-1.7c-1.2-0.4-2.4-0.7-3.6-1c-1-0.3-2.2-0.4-3.1-1.4
			c1.3-0.3,2.4,0.3,3.6,0.4c1.2,0.1,2.4,0.4,3.5,0.9c1.1,0.5,2.3,0.7,3.4,1.2C35.5,74.5,36.5,75.2,37.8,75.9z"/>
		<path d="M364,198.1c1.5-1.5,3.1-2.8,4.8-4c1.6-1.1,3.2-2.2,4.9-3c0.1,0,0.1-0.1,0.2-0.1c0.2-0.1,0.4-0.1,0.5,0.1
			c0.2,0.3,0,0.4-0.2,0.6c-0.9,0.6-1.7,1.5-2.8,2c-1.1,0.6-2.1,1.3-3,2.1c-1.1,0.9-2.4,1.6-3.7,2.3
			C364.6,198.1,364.4,198.4,364,198.1z"/>
		<path d="M32.1,69.7c0.2-0.4,0.5-0.3,0.8-0.3c1.7,0.3,3.4,0.7,5,1.3c1.4,0.5,2.8,0.8,4.2,1.5c0.8,0.4,1.6,0.9,2.6,1.1
			c0.1,0,0.2,0.1,0.1,0.3C43.4,73.6,32.9,70.4,32.1,69.7z"/>
		<path d="M498.5,108.4c1-0.7,1.8-1.4,2.7-1.9c1.5-0.8,2.8-1.8,4-3.1c0.4-0.4,0.8-0.8,1.2-1.2c0.3-0.3,0.6-0.5,1-0.1
			c0.3,0.3,0.1,0.6-0.2,0.9c-2.1,2.5-4.6,4.5-7.9,5.3C499.1,108.4,499,108.7,498.5,108.4z"/>
		<path d="M69,117.2c1.9-1,11.6-2.6,13.3-2.2c-0.6,0.5-1.3,0.6-1.9,0.6c-1.7,0.1-3.3,0.6-5,0.8c-1.9,0.3-3.8,0.8-5.7,0.8
			C69.5,117.3,69.3,117.4,69,117.2z"/>
		<path d="M350.4,222.2c0.6-2.5,2.1-4,3.9-5.2c0.3-0.2,0.6-0.3,1,0c0.2,0.2,0.2,0.4,0.1,0.6C354.2,219.5,352.8,221.2,350.4,222.2z"
			/>
		<path d="M84.3,130.8c0.9-1,1.9-1.7,3.1-2c0.8-0.2,1.5-0.3,2.3-0.5c0.4-0.1,0.8-0.1,1.1,0.2c0.4,0.4,0.4,0.9-0.2,1.1
			c-1.7,0.5-3.4,0.9-5.1,1.2C85.1,130.9,84.7,130.8,84.3,130.8z"/>
		<path d="M93.4,95.5c1.3-0.1,2.2-0.5,3.4-0.2c1.3,0.3,2.7,0.4,4,0.8c0.2,0.1,0.5,0.1,0.5,0.4c0,0.4-0.3,0.4-0.6,0.4
			c-1.6,0.1-3.2,0-4.7-0.4C95.2,96.3,94.2,96.4,93.4,95.5z"/>
		<path d="M86.7,133.9c0.8-0.6,1.4-1,2.1-1.2c1.3-0.4,2.5-0.9,3.8-1.3c0.4-0.1,0.8-0.2,1.2-0.2c0.2,0,0.4,0.1,0.4,0.3
			c0,0.2-0.1,0.3-0.2,0.4c-0.5,0.2-0.9,0.4-1.4,0.6c-1.3,0.5-2.7,0.9-4,1.4C88,134.1,87.5,134.1,86.7,133.9z"/>
		<path d="M93.6,123.5c-2.4,1.4-5,1.6-7.5,2.1c1.6-1.1,3.4-1.9,5.4-2.3C92,123.2,92.7,122.8,93.6,123.5z"/>
		<path d="M93.1,119.4c0.6-0.7,1.3-0.8,2.1-1c1.1-0.3,2.2-0.5,3.3-0.7c0.2-0.1,0.5-0.1,0.7,0.1c0.3,0.2,0.4,0.5,0,0.6
			c-0.3,0.2-0.6,0.3-1,0.3c-1.1,0.3-2.1,0.5-3.2,0.7C94.4,119.7,93.8,119.4,93.1,119.4z"/>
		<path d="M91.6,100.2c1.5,0,3,0.2,4.5,0.6c0.5,0.1,1.2,0.3,1.1,0.8c-0.1,0.7-0.9,0.4-1.3,0.3c-1.4-0.3-2.8-0.5-4.1-1.4
			C91.7,100.5,91.6,100.4,91.6,100.2z"/>
		<path d="M98.2,135.1c-0.9,0.7-1.9,0.7-2.8,1.1c-0.9,0.4-1.8,0.5-2.7,0.8c-0.2-0.3,0-0.4,0.2-0.5c1.4-0.8,2.9-1.3,4.4-1.7
			C97.6,134.8,97.9,134.7,98.2,135.1z"/>
		<path d="M83.6,109.4c0.1-0.3,0.4-0.3,0.5-0.3c1.3-0.1,2.6,0,3.8-0.2c0.3,0,0.5,0,0.8,0.1c0.1,0,0.2,0.2,0.2,0.2
			c0,0.2-0.1,0.3-0.3,0.3C87.1,109.7,85.4,110.1,83.6,109.4z"/>
		<path d="M97.9,139.3c-0.1,0.6-1.2,1.1-1.7,0.8c-0.2-0.1-0.2-0.2-0.1-0.4c0.2-0.5,1-1,1.5-0.8C97.8,138.9,97.9,139.1,97.9,139.3z"
			/>
		<path d="M83.6,115.9c0,0.2,0,0.4-0.2,0.4c-0.6,0.1-1.2,0.2-1.8,0.3c-0.1,0-0.3,0-0.4-0.2c0-0.2,0.1-0.3,0.2-0.4
			c0.6-0.3,1.2-0.3,1.8-0.4C83.5,115.5,83.5,115.7,83.6,115.9z"/>
		<path d="M373.4,138.7c-0.5,0.1-0.8,0.1-1.1-0.1C372.9,138.4,372.9,138.4,373.4,138.7z"/>
		<path d="M179.2,75c-1.4-0.5-2.3-1.4-3.1-2.3c-2.4-2.5-5-4.8-7.6-7.2c-2.2-2-4.6-3.8-6.8-5.9c-1.1-1-2.2-1.9-3.4-2.7
			c-3-2.1-6.1-4.2-9.2-6.1c-2.3-1.4-4.7-2.8-7.2-4c-2.4-1.2-4.8-2.4-7.3-3.6c-1.6-0.7-3.2-1.3-4.8-2c-0.2-0.1-0.4-0.1-0.5-0.2
			c-0.2-0.1-0.4-0.3-0.3-0.5c0.1-0.2,0.3-0.3,0.6-0.2c1,0.4,2,0.8,3,1.2c4.1,1.7,8,3.7,12,5.8c2.8,1.5,5.6,3.2,8.3,5
			c3.3,2.1,6.5,4.5,9.7,6.9c3.5,2.6,6.9,5.4,10,8.3c1.8,1.7,3.5,3.4,5.2,5.1C178.3,73.2,178.9,73.9,179.2,75z"/>
		<path d="M222.5,60.2c-1.2-0.8-2.2-1.5-3-2.5c-1.6-2.1-3.3-4.1-4.9-6.1c-1.9-2.4-3.6-4.8-5.5-7.2c-1.6-2-3-4.1-4.6-6.1
			c-0.7-0.9-1.1-1.9-1.8-2.7c-1.2-1.5-2.3-3.1-3.4-4.6c-0.2-0.2-0.5-0.5-0.2-0.8c0.3-0.3,0.6,0,0.8,0.2c0.9,1.1,2.1,2.1,3,3.3
			c2.4,3.2,4.7,6.6,7.2,9.7c2.5,3.2,4.9,6.5,7.5,9.7c1.1,1.3,2.2,2.7,3.3,4C221.6,57.9,222.1,58.9,222.5,60.2z"/>
		<path d="M169.3,73.8c0,0.2-0.2,0.3-0.4,0.2c-0.6-0.4-1.4-0.6-1.9-1.1c-1.6-1.4-3.1-2.7-4.8-4c-1.7-1.3-3.5-2.6-5.4-3.9
			c-2.7-1.9-5.4-3.7-8.1-5.5c-2.4-1.6-4.9-2.9-7.4-4.2c-1.6-0.8-3.2-1.5-4.8-2.2c-0.3-0.1-0.6-0.3-0.9-0.5c-0.2-0.1-0.4-0.3-0.3-0.6
			c0.1-0.3,0.4-0.4,0.7-0.3c0.2,0,0.3,0.1,0.4,0.2c4.1,1.8,8.2,3.8,12,6.2c1.9,1.2,3.8,2.5,5.7,3.8c2.6,1.8,5.2,3.6,7.8,5.5
			c2.1,1.6,4.2,3.3,6.2,5C168.6,72.8,169.1,73.2,169.3,73.8z"/>
		<path d="M196,68.2c-0.8-0.5-1.3-1-1.7-1.6c-1.7-2.5-3.4-5-5.2-7.4c-2-2.8-4.4-5.2-6.7-7.7c-1.6-1.7-3.5-3.1-5.3-4.6
			c-0.3-0.3-0.6-0.5-0.9-0.8c-0.1-0.1-0.3-0.3-0.1-0.5c0.2-0.2,0.4-0.1,0.5,0c1.4,0.8,2.6,1.9,3.8,3c2.3,1.9,4.4,4,6.5,6.1
			c1.5,1.5,2.8,3.1,4.1,4.8c1.6,2,2.9,4.2,4.4,6.2C195.9,66.5,195.9,67.2,196,68.2z"/>
		<path d="M201,60.8c-1.1-1.3-2.1-2.6-3-4c-1.3-2.2-2.9-4.1-4.6-5.9c-1.8-1.9-3.6-3.7-5.5-5.4c-2.4-2.1-4.7-4.4-7.7-5.8
			c-0.1-0.1-0.3-0.1-0.4-0.2c-0.1-0.1-0.1-0.2-0.1-0.3c0-0.2,0.1-0.3,0.3-0.3c0.6,0,1,0.3,1.4,0.5c1.7,1,3.3,2.2,4.8,3.5
			c2.2,1.9,4.2,4,6.4,5.9c3.1,2.6,5.4,5.9,7.5,9.4c0.5,0.8,0.7,1.7,1,2.6C201.2,60.7,201.1,60.7,201,60.8z"/>
		<path d="M179.4,34.4c-0.7,0.2-1.1-0.2-1.6-0.4c-3.1-1.6-6.3-3-9.2-5c-1.3-0.9-2.8-1.5-4.3-2.1c-0.2-0.1-0.3-0.1-0.3-0.3
			c0-0.2,0.2-0.4,0.4-0.3c0.6,0.2,1.3,0.2,1.9,0.5c2.9,1.6,5.9,3,8.8,4.7C176.7,32.3,178.1,33.4,179.4,34.4z"/>
		<path d="M212,42.7c0.6-0.1,0.9,0.1,1.2,0.4c2.6,2.5,5.4,4.9,7.9,7.6c1,1.1,2.2,2.2,3.2,3.2c0.3,0.3,0.7,0.6,0.7,1.2
			c-0.2,0.3-0.4,0.1-0.6-0.1c-0.4-0.3-0.8-0.5-1.1-0.9c-2.2-2.2-4.5-4.2-6.5-6.5c-1-1.1-2.2-2.1-3.4-3.1
			C212.9,44.1,212.5,43.5,212,42.7z"/>
		<path d="M135,59.2c-0.2,0.2-0.4,0.1-0.5,0c-1.3-0.6-2.6-1.2-3.9-1.8c-3.5-1.7-7-3.5-10.8-4.7c-0.2-0.1-0.5-0.1-0.5-0.4
			c0-0.4,0.4-0.4,0.6-0.4c0.3,0,0.6,0,0.8,0.1c4.9,1.8,9.7,4.1,14.1,6.9C134.9,59,135,59.1,135,59.2z"/>
		<path d="M208.7,52.1c-0.1,0.1-0.2,0.2-0.4,0.1c-0.4-0.5-0.8-1-1.2-1.4c-1.5-1.7-3.1-3.4-4.8-5c-0.3-0.3-0.5-0.6-0.7-0.9
			c-0.1-0.1,0-0.3,0.1-0.4c0.1-0.1,0.3-0.1,0.4,0c0.2,0.2,0.4,0.5,0.7,0.7c1.6,1.4,2.9,2.9,4,4.7c0.5,0.7,1.1,1.3,1.6,2
			C208.6,51.8,208.7,51.9,208.7,52.1z"/>
		<path d="M203,57c1,0.7,3,3.9,3.8,6C205.8,62.8,203.4,59.1,203,57z"/>
		<path d="M156.4,41.5c-2.3-0.5-4.2-1.9-6.3-2.8c0.1-0.4,0.3-0.5,0.5-0.4C152.8,39,154.8,39.9,156.4,41.5z"/>
		<path d="M160.7,174.2c0,0.3-0.1,0.4-0.2,0.4c-1.3,0.6-2.5,1.2-3.8,1.8c-1.6,0.8-3.3,1.5-4.9,2.2c-2.5,1.1-5,2.1-7.6,3.2
			c-0.7,0.3-1.3,0-1.6-0.6c-0.2-0.6,0-1.1,0.7-1.4c2-0.9,4-1.6,6-2.4c2.9-1,5.8-1.8,8.7-2.8C158.9,174.5,159.8,174.4,160.7,174.2z"
			/>
		<path d="M152.7,183.1c2.1-0.7,3.8-2.1,5.8-3c2.9-1.4,5.8-2.8,8.9-4c0.4-0.1,0.7-0.3,1.1-0.4c0.3-0.1,0.6-0.1,0.7,0.1
			c0.2,0.3,0,0.6-0.3,0.8c-0.6,0.4-1.2,0.8-1.8,1.1c-1.7,0.8-3.5,1.5-5.3,2.2c-1.7,0.8-3.5,1.5-5.3,2.1c-1,0.4-2,0.8-3.1,1.1
			C153.3,183.3,153.1,183.4,152.7,183.1z"/>
		<path d="M142.4,150.9c1.4-0.8,2.7-1.8,4.3-2.2c1.4-0.3,2.6-1,4-1.2c0.4-0.1,0.8-0.2,1.3-0.2c0.3,0,0.6,0,0.7,0.3
			c0.1,0.3-0.2,0.4-0.5,0.5c-2,0.8-3.9,1.7-6,2.2C144.9,150.5,143.7,150.9,142.4,150.9z"/>
		<path d="M171.5,186.9c0-0.3,0.2-0.4,0.4-0.5c2.8-1.1,5.6-2.3,8.3-3.5c0.3-0.1,0.6-0.2,0.9-0.2c0.3-0.1,0.7-0.2,0.8,0.2
			c0.1,0.4-0.2,0.7-0.5,0.8c-0.8,0.3-1.5,0.7-2.3,0.9c-0.8,0.3-1.7,0.4-2.5,0.8c-1.6,0.7-3.2,0.9-4.8,1.5
			C171.8,187,171.7,187,171.5,186.9z"/>
		<path d="M184.5,188.9c0.2-0.7,0.9-1.4,1.4-1.4c0.2,0,0.4,0.1,0.5,0.3c0.1,0.2,0,0.4-0.2,0.5C185.9,188.6,185.4,188.8,184.5,188.9z
			"/>
		<path d="M132.9,174.8c0.5-0.6,1-0.6,1.8-0.5C134.1,174.8,133.6,175.1,132.9,174.8z"/>
		<path d="M369.8,228.8c0.1-1.1,0.4-2,0.8-2.7c0.6-1.1,1.1-2.2,1.8-3.3c0.9-1.4,1.7-3,2.8-4.3c0.6-0.8,1.2-1.7,1.7-2.5
			c0.1-0.1,0.2-0.2,0.3-0.3c0.2-0.2,0.4-0.5,0.8-0.3c0.4,0.3,0.3,0.6,0.1,0.9c-0.3,0.5-0.6,1.1-1,1.6c-1.2,1.6-2.3,3.3-3.4,5.1
			c-0.9,1.5-1.7,3-2.6,4.5C370.9,227.9,370.6,228.4,369.8,228.8z"/>
		<path d="M372.5,218.3c-0.2-0.6,0-1.2,0.3-1.8c0.9-1.9,2-3.7,3.3-5.4c0.1-0.2,0.2-0.3,0.5-0.3c0.3,0.1,0.2,0.4,0.1,0.6
			c-0.2,0.6-0.4,1.2-0.8,1.7c-1.1,1.6-1.7,3.4-3,4.9C372.8,218.2,372.8,218.4,372.5,218.3z"/>
		<path d="M144.6,75.7c-0.6,0.2-1-0.2-1.4-0.3c-3.7-1-7.1-2.7-10.7-3.8c-2.7-0.9-5.4-1.7-8-2.6c-0.6-0.2-1.1-0.5-1.7-0.5
			c-0.3,0-0.5-0.2-0.4-0.5c0.1-0.3,0.3-0.4,0.5-0.3c0.3,0,0.5,0.1,0.8,0.2c2.5,0.7,4.9,1.6,7.4,2.4c2.1,0.8,4.2,1.5,6.3,2.3
			c2.4,0.9,4.8,1.8,7.1,2.9C144.4,75.4,144.4,75.5,144.6,75.7z"/>
		<path d="M144.3,81.4c-0.2,0.3-0.4,0.2-0.6,0.1c-1.4-0.6-2.8-1.1-4.1-1.7c-2.1-1.1-4.3-1.8-6.6-2.5c-0.7-0.2-1.4-0.5-2.1-0.7
			c-0.2-0.1-0.4-0.2-0.4-0.4c0-0.3,0.3-0.3,0.5-0.3c0.3,0,0.6,0.1,0.9,0.2c3.3,0.9,6.4,2,9.4,3.5C142.5,80.2,143.4,80.8,144.3,81.4z
			"/>
		<path d="M499.3,95c0.1,2-1,3.4-2.3,4.6c-2.4,2.3-6.9,2.1-9.2-0.3c-1.6-1.6-2.3-3.5-1.8-5.8c0.4-1.8,1-3.5,2.5-4.6
			c1.8-1.5,4.9-2.2,7.3-0.5C498.1,90.1,499.3,92.3,499.3,95z"/>
		<path d="M488.3,102.4c-1.5,0-2.5-0.5-3.5-1.5c-1.8-2-2.9-4.2-2.9-6.9c0-1.9,0.6-3.7,1.8-5.2c0.5-0.7,1.3-1,2-1.4
			c1.7-1,3.6-1.6,5.6-1.9c0.1,0,0.2-0.1,0.3-0.1c0.4,0,0.7,0.2,0.6,0.7c0,0.4-0.3,0.5-0.7,0.5c-2.6-0.4-4.7,0.8-6.7,2.2
			c-1.1,0.7-1.5,2-1.8,3.2c-0.8,3.3,0.3,6,2.4,8.4c0.4,0.4,0.9,0.8,1.4,1C487.4,101.6,487.9,101.8,488.3,102.4z"/>
		<path d="M490.6,104.2c0.4-0.5,0.9-0.6,1.4-0.7c0.8-0.1,1.5-0.3,2.3-0.4c1-0.1,2-0.2,2.9-0.7c0.2-0.1,0.5-0.1,0.6,0.1
			c0.1,0.3,0,0.5-0.2,0.6c-0.4,0.2-0.9,0.5-1.3,0.7c-1.6,0.6-3.3,0.9-5,0.7C491,104.5,490.8,104.4,490.6,104.2z"/>
	</g>
</g>
</svg>
