<?xml version="1.0" encoding="utf-8"?>
<!-- Generator: Adobe Illustrator 25.0.1, SVG Export Plug-In . SVG Version: 6.00 Build 0)  -->
<svg version="1.1" xmlns="http://www.w3.org/2000/svg" xmlns:xlink="http://www.w3.org/1999/xlink" x="0px" y="0px"
	 viewBox="0 0 566.9 136.4" style="enable-background:new 0 0 566.9 136.4;" xml:space="preserve">
<g id="Layer_1">
</g>
<g id="Layer_13">
</g>
<g id="Layer_12">
</g>
<g id="Layer_11">
</g>
<g id="Layer_10">
</g>
<g id="Layer_9">
	<g>
		<path d="M423.8,111.3c-0.4,0-0.6,0-0.7,0c-2.8,0.3-5.3-0.9-7.6-2.2c-2.3-1.3-2.9-3.7-2.1-6.2c0.5-1.4,1.3-2.7,2.1-4
			c1.1-1.8,2.1-3.6,2.8-5.6c0.5-1.4,0.2-2.7-0.6-3.7c-0.8-1.1-1.9-2-3.4-2.4c-2.2-0.5-4.3-0.6-6.5-0.5c-2.6,0.1-5.2,0.7-7.7,1
			c-2.6,0.4-5.1,1.2-7.7,1.8c-2.7,0.6-5.3,1.7-7.9,2.5c-1.5,0.4-3,0.6-4.4,0c-0.4-0.2-0.7,0-1,0.2c-3,1.4-6.2,2.5-9.3,3.5
			c-1,0.3-2,0.6-3,1c-1,0.4-2.2,0.7-3.2,1c-3,0.8-5.9,1.6-8.9,2.3c-2,0.5-3.9,1.1-5.8,1.6c-0.3,0.1-0.5,0.2-0.8,0.2
			c-2.3-0.4-4.5,0.7-6.7,0.9c-2.4,0.3-4.7,0.7-7.1,1c-3,0.4-6,0.7-9,1.1c-2.3,0.3-4.7,0.4-7,0.7c-1.8,0.2-3.6,0.2-5.4,0.4
			c-0.8,0.1-1.6,0.1-2.4,0.1c-3.6,0.1-7.2,0.2-10.8,0.1c-2.7,0-5.4-0.1-8-0.3c-2.6-0.2-5.2-0.5-7.7-0.9c-4.4-0.7-8.7-1.6-13.1-2.4
			c-2.3-0.4-4.6-1.2-6.9-1.7c-2.9-0.6-5.6-1.6-8.4-2.4c-3.2-0.9-6.3-1.7-9.5-2.6c-4.7-1.3-9.5-2.3-14.3-3c-2.3-0.3-4.7-0.6-7-0.9
			c-4.3-0.5-8.5-0.8-12.8-1.2c-2.8-0.3-5.5-0.5-8.3-0.6c-2.8-0.1-5.7-0.3-8.5-0.3c-1.5,0-3-0.2-4.5-0.1c-2.5,0.1-5.1,0.1-7.6,0.3
			c-2.8,0.2-5.6,0.5-8.4,0.9c-2.5,0.4-5,1-7.6,1.2c-0.3,0-0.6,0.1-0.8,0.1c-2.7,0.9-5.6,1.3-8.4,2.1c-2.6,0.8-5.2,1.5-7.7,2.4
			c-1.8,0.6-3.6,1.1-5.4,1.7c-2,0.7-4,1.4-5.9,2.2c-1.1,0.5-2.3,0.7-3.4,1.2c-2,0.9-4.1,1.8-6.1,2.8c-3.2,1.5-6.4,3.2-9.5,4.9
			c-2.9,1.5-5.6,3.3-8.4,4.8c-3,1.6-5.8,3.5-8.7,5.3c-3,1.8-6,3.6-9.1,5.3c-2.8,1.5-5.7,3.1-8.7,4.4c-3.4,1.5-6.9,2.7-10.5,3.7
			c-3,0.8-6.1,1.7-9.2,2c-1.3,0.1-2.5,0.3-3.8,0.4c-1,0-1.9,0.2-2.9,0.3c-4.2,0.5-8.5,0.6-12.8,0.4c-3-0.1-6-0.3-8.7-1.6
			c-3.5-1.8-5.8-4.3-5.7-8.9c0-2.1,0.4-4.2,0.9-6.2c0.2-0.8,0.5-1.7,0.9-2.4c1.3-2.6,2.6-5.3,3.9-7.9c0.2-0.4,0.3-0.8,0.3-1.3
			c-0.1-0.8,0.3-1.6,0.7-2.3c0.7-1.2,1.5-2.4,2.5-3.5c2-2.3,3.8-4.7,5.3-7.3c1.3-2.1,2.8-4.2,4.4-6.1c3.1-3.7,6.5-7.1,10-10.5
			c2.2-2.1,4.6-4.1,6.7-6.3c2-2.1,4.2-4.1,6.2-6.2c2.8-2.7,5.6-5.5,8.7-7.8c2.8-2.1,5.6-4.2,8.5-6.1c3.2-2,6.4-3.9,9.6-5.9
			c2.1-1.3,4.3-2.4,6.4-3.7c3.3-2,6.6-3.8,10-5.8c2.4-1.4,4.7-3.1,7.6-3.3c0.2,0,0.4-0.1,0.5-0.2c3.6-2.4,7.9-3.1,11.9-4.3
			c2.4-0.7,4.7-1.4,7.2-2c2.4-0.6,4.8-1.4,7.3-2c4.2-0.9,8.4-1.9,12.6-2.7c4.2-0.8,8.4-1.6,12.7-2.3c3.6-0.6,7.2-1.1,10.8-1.5
			c2.4-0.3,4.8-0.4,7.2-0.6c4.4-0.3,8.7-0.5,13.1-0.7c3.3-0.2,6.7-0.1,10,0c3,0.1,6.1-0.1,9.2,0.3c1.9,0.3,3.8,0.2,5.7,0.3
			c4.8,0.4,9.6,0.9,14.4,1.5c5.2,0.7,10.5,1.5,15.6,2.6c3.4,0.8,6.9,1.2,10.3,2c3.4,0.8,6.8,1.5,10.2,2.3c6.4,1.5,12.8,2.9,19.2,4.3
			c3.3,0.7,6.6,1.5,9.9,2.2c3.8,0.7,7.6,1.4,11.4,2.1c2.4,0.4,4.8,0.8,7.2,1.1c1.5,0.2,3,0.6,4.6,0.9c0.9,0.1,1.7,0.2,2.6,0.4
			c2.1,0.4,4.3,0.6,6.4,0.9c1.8,0.2,3.5,0.6,5.3,0.7c1.6,0.1,3.3,0.4,4.9,0.5c1.8,0.1,3.7,0.2,5.5,0.5c1.6,0.3,3.2,0.2,4.8,0.2
			c4.1,0.2,8.2,0,12.2-0.5c4.3-0.6,8.6-1.6,12.9-2.6c3.1-0.8,6.2-1.6,9.2-2.7c3.8-1.4,7.6-2.7,11.4-4c1.6-0.5,3.3-0.8,4.9-1.3
			c2.7-0.9,5.5-1.1,8.2-1.7c1.6-0.3,3.3-0.5,5-0.7c3.4-0.4,6.8-0.5,10.3-0.7c2.2-0.2,4.5-0.1,6.7-0.1c1.6,0,3.1,0,4.7,0
			c5.3,0.1,10.2-1.2,14.8-3.9c1.5-0.9,2.8-2.1,3.4-3.8c0.2-0.6,0.2-1.2,0.2-1.8c0-0.8,0-1.6-0.1-2.5c-0.1-2.5,1.1-4.2,3.2-5.3
			c2.8-1.6,5.9-1.9,9-1.7c2.3,0.2,4.5,0.7,6.7,1.3c1.5,0.4,3,0.9,4.5,1.3c0.9,0.2,1.8,0.7,2.7,1.1c4,1.5,7.8,3.4,11.4,5.5
			c2,1.2,4.1,2.2,6,3.6c2.7,1.9,5.1,4.2,7.4,6.6c3.5,3.6,6.5,7.7,9.3,11.9c1.4,2.1,2.2,4.4,3.5,6.5c1.5,2.5,2.2,5.3,3.1,8
			c1.1,3.4,1.2,6.7-0.2,10.1c-0.5,1.1-1.2,2.1-1.9,3c-1.7,2.1-3.8,3.9-6.1,5.4c-2.6,1.7-5.4,3.3-8.2,4.8c-2.1,1.1-4.3,2.1-6.4,3.2
			c-3.1,1.7-6.3,3.1-9.4,4.9c-2.5,1.4-5.3,2.5-7.9,3.8c-4.9,2.5-9.9,4.6-15,6.7c-5.2,2.1-10.4,4.1-15.5,6.2
			c-2.3,0.9-4.6,1.8-6.9,2.7c-2.1,0.8-4.2,1.7-6.4,2.4c-2.5,0.8-5,1.6-7.6,2.4c-2.8,0.9-5.7,1.4-8.5,2.2c-2.1,0.6-4.3,1-6.4,1.3
			C426.8,111.2,425.2,111.6,423.8,111.3z M124.6,36.6c-0.8,0.2-1.4,0.5-2.1,0.6c-1.6,0.3-3,1-4.4,1.8c-0.6,0.4-1.3,0.7-1.5,1.5
			c-0.1,0.3-0.3,0.5-0.6,0.4c-1.1-0.2-1.9,0.5-2.7,1.1c-1.5,1.2-3.3,2-4.9,3.1c-2.2,1.4-4.5,2.7-6.7,4c-3.1,1.9-6.3,3.8-9.3,5.8
			c-3,2-5.8,4.4-8.4,6.8c-2,1.8-3.9,3.8-5.9,5.7c-3.4,3.3-6.4,6.8-9.9,9.9c-1.5,1.3-2.8,2.8-4.2,4.2c-2.5,2.4-4.9,4.8-7.2,7.4
			c-1.5,1.7-2.9,3.5-4.1,5.4c-2.9,4.5-5.6,9.3-8.3,13.9c-1.8,3.1-3.3,6.5-5,9.7c-1.3,2.4-1.7,5-1.9,7.7c0,0.5-0.1,1,0.5,1.3
			c0.3,0.1,0.4,0.4,0.3,0.7c-0.1,0.5,0.2,0.6,0.5,0.9c0.5,0.5,1.2,0.7,1.8,0.9c2,0.4,4.1,0.7,6.1,0.7c5,0.1,10-0.1,14.9-0.9
			c1.3-0.2,2.5-0.2,3.8-0.4c2.3-0.4,4.4-1,6.7-1.5c3.3-0.8,6.5-2.1,9.7-3.3c2.1-0.8,4-1.9,5.9-2.9c2.7-1.3,5.3-2.9,7.9-4.3
			c2.6-1.5,5.1-3.1,7.6-4.6c1.3-0.8,2.6-1.7,4-2.4c0.3-0.2,0.8-0.3,0.5-0.9c-0.2-0.4,0.3-0.7,0.6-0.4c0.3,0.4,0.5,0.3,0.8,0.1
			c3.2-1.8,6.4-3.7,9.7-5.4c1.1-0.6,2.2-1.3,3.4-1.9c1.5-0.8,3.1-1.5,4.7-2.2c1.8-0.8,3.6-1.6,5.4-2.4c1.8-0.8,3.6-1.3,5.4-2
			c2.5-1.1,5-1.9,7.6-2.7c3.1-1,6.3-2,9.4-2.9c1.4-0.4,2.7-0.9,4.1-1.2c1.8-0.4,3.6-0.8,5.3-1.2c0.6-0.1,1.1-0.4,1.7-0.5
			c2.7-0.1,5.3-0.8,8-1.2c2.8-0.4,5.6-0.7,8.4-1c2.3-0.2,4.7-0.1,7.1-0.3c3.2-0.1,6.4,0.1,9.5,0.2c1.8,0.1,3.6,0,5.3,0.2
			c2.9,0.3,5.8,0.3,8.7,0.7c2.2,0.2,4.5,0.4,6.7,0.6c2.3,0.2,4.6,0.5,6.9,0.8c2.4,0.3,4.8,0.6,7.2,1c2.2,0.4,4.4,0.7,6.5,1.3
			c2.1,0.6,4.2,1.1,6.3,1.6c1.5,0.3,2.9,0.9,4.3,1.2c2.1,0.5,4.2,1.1,6.3,1.7c2.6,0.7,5,1.6,7.6,2.2c1.4,0.3,2.8,0.8,4.2,1.1
			c2.4,0.5,4.9,1.1,7.4,1.6c3.3,0.6,6.6,1.3,10,1.8c3.6,0.5,7.2,0.6,10.8,0.8c4,0.1,8.1,0.1,12.1-0.1c3.4-0.2,6.8-0.5,10.1-0.7
			c2.2-0.2,4.5-0.5,6.7-0.7c2.7-0.2,5.4-0.6,8-0.9c1.9-0.2,3.7-0.4,5.6-0.7c3.5-0.7,7-1.4,10.5-2.2c2.4-0.5,4.8-1.2,7.2-1.6
			c0.5-0.1,1,0,1.4-0.2c4.2-1.9,8.7-3.3,12.9-5.1c2.6-1.1,5.3-1.9,8-2.8c0.5-0.2,0.7-0.3,0.8-0.9c0.3-1.2,1.3-1.5,2.3-0.6
			c0.3,0.3,0.5,0.4,0.9,0.3c1-0.3,1.9-0.5,2.9-0.8c0.9-0.3,1.7-0.3,2.4,0.6c0.5,0.7,1.3,0.9,2.1,0.6c2.6-0.9,5.2-1.4,7.9-1.8
			c2.5-0.3,5-0.9,7.6-1c2.3-0.2,4.5,0,6.8,0.2c0.5,0,0.9,0.4,1.6,0.1c-0.3-0.8-0.2-1.6,0.7-2c0.6-0.3,1.2,0,1.6,0.5
			c0.8,1-0.2,1.6-0.7,2.3c0.8,0.4,1.6,0.6,2.2,1c1.8,1.3,3.5,2.8,4.1,5.2c0.6,2.2,1,4.4-0.1,6.6c-0.6,1.3-1,2.6-1.8,3.8
			c-0.1,0.2-0.2,0.3,0,0.5c0.7,0.5,0.2,0.9,0,1.4c-0.7,1.5-0.4,2.2,1.1,2.9c0.7,0.3,1.4,0.5,2.1,0.7c1.5,0.3,3,0.2,4.5,0.4
			c1.3,0.1,2.6-0.1,3.9-0.4c3.1-0.8,6.2-1.6,9.3-2.5c2.5-0.7,5-1.5,7.4-2.3c1.8-0.6,3.6-1.4,5.4-2.1c3.3-1.2,6.5-2.6,9.7-3.7
			c2.2-0.8,4.3-1.6,6.4-2.4c1.9-0.7,3.8-1.4,5.6-2.2c3.2-1.5,6.4-2.8,9.6-4.2c3.2-1.4,6.4-2.8,9.5-4.3c4.6-2.3,9.3-4.6,13.9-6.8
			c4.2-2,8.3-4,12.3-6.4c2.4-1.5,4.9-3,6.8-5.3c1.9-2.1,2.6-4.6,2-7.3c-0.7-3-1.4-6.1-2.8-8.9c-0.9-1.8-1.6-3.6-2.6-5.3
			c-1.1-1.9-2.4-3.7-3.7-5.5c-1.8-2.6-3.8-5.1-6.1-7.3c-0.3-0.3-0.6-0.6-1.2-0.4c-0.7,0.2-1-0.2-0.7-0.9c0.2-0.4,0.1-0.6-0.2-0.8
			c-1.7-1.5-3.3-3-5.2-4.2c-1.4-0.9-2.8-1.6-4.3-2.5c-3.6-2.1-7.3-4.1-11.3-5.6c-1-0.4-2-0.9-3.1-1.2c-0.5-0.1-0.8-0.1-1,0.5
			c-0.2,0.6-0.6,0.7-1.2,0.6c-0.5-0.1-0.8-0.5-0.7-1c0.2-0.8-0.2-0.9-0.8-1.1c-2.1-0.7-4.3-1-6.5-1.1c-1.8-0.1-3.5,0.1-5.2,0.7
			c-1.3,0.5-1.8,1.1-1.8,2.6c0,1.6,0.3,3.1,0.2,4.7c-0.1,1.1-0.4,2-1,2.8c-1.4,2.2-3.3,3.9-5.7,5c-0.4,0.2-0.8,0.3-0.5,1
			c0.2,0.5-0.5,0.7-0.7,0.4c-0.5-0.6-1-0.3-1.4-0.1c-4,1.9-8.2,2.5-12.5,2.6c-4.5,0.1-9,0-13.5,0.3c-3.6,0.2-7.1,0.4-10.6,0.9
			c-3.3,0.5-6.6,1.1-9.8,1.8c-4.2,1-8.3,2.5-12.4,3.9c-0.9,0.3-1.6,0.8-2.5,1c-3.3,0.9-6.6,2-10,2.9c-2.4,0.6-4.8,1.1-7.2,1.6
			c-0.4,0.1-0.8,0.1-0.9,0.6c-0.1,0.4-0.6,0.5-0.9,0.3c-0.6-0.5-1.2-0.2-1.8-0.1c-2.5,0.4-4.9,0.9-7.5,1c-1.3,0.1-2.8-0.2-4,0.7
			c-0.3,0.2-0.8,0.1-1.2-0.1c-0.6-0.4-1.2-0.3-1.9-0.4c-1.7,0-3.5,0-5.2-0.1c-1,0-2.1-0.4-3.1-0.1c-1.1-0.7-2.4-0.6-3.6-0.6
			c-3.2-0.1-6.4-0.7-9.6-1c-0.7,0-1.4,0.1-2-0.1c-1.4-0.6-2.9-0.7-4.3-0.8c-3.4-0.4-6.7-1.1-10.1-1.6c-2.3-0.3-4.7-0.7-7-1.1
			c-2.5-0.4-4.9-0.9-7.4-1.3c-3.5-0.7-7-1.2-10.4-2.2c-1.1-0.3-2.2-0.4-3.4-0.7c-0.3-0.1-0.8-0.2-0.8,0.4c0,0.6-0.4,0.9-0.9,0.6
			c-0.6-0.3-0.4-0.7-0.1-1.1c0-0.1,0-0.2,0-0.3c-2.3-0.5-4.6-1-6.9-1.5c-7.8-1.7-15.6-3.5-23.4-5.2c-2.7-0.6-5.5-0.9-8.2-1.7
			c-1.8-0.5-3.7-0.8-5.5-1c-3-0.4-6-1.1-9.1-1.3c-2-0.1-3.9-0.4-5.8-0.7c-2.2-0.4-4.4-0.2-6.5-0.5c-0.8-0.1-1.5-0.2-2.3-0.3
			c-1.8-0.1-3.5-0.1-5.3-0.3c-2.2-0.2-4.4-0.2-6.6-0.4c-2.8-0.2-5.6-0.3-8.5-0.3c-4,0.1-8-0.1-12.1,0.3c-2.6,0.3-5.3,0.3-7.9,0.6
			c-2.6,0.2-5.3,0.6-7.9,0.9c-2.1,0.2-4.3,0.6-6.4,1c-3.1,0.5-6.3,1-9.4,1.7c-2.9,0.7-5.8,1.1-8.7,1.8c-1.5,0.3-3,0.7-4.5,1.1
			c-1.1,0.3-2.1,0.4-3.2,0.7c-1.7,0.4-3.4,1-5.2,1.3c-1.5,0.3-3.1,0.7-4.5,1.4c0.2,0.1,0.3,0.2,0.4,0.3c0.5,0.3,0.9,0.7,0.8,1.3
			c-0.2,0.7-0.6,1.2-1.3,1.3c-0.4,0.1-0.8,0.1-1.2,0.3c-0.5,0.2-0.9,0-1.2-0.4c-0.3-0.4-0.2-0.9,0.1-1.3c0.3-0.3,0.6-0.5,0.7-1.1
			c-3.8,1.1-7.6,2-11.3,3.4c0.4,1.2,0.3,1.8-0.4,2.2C126.3,38.4,125.4,37.9,124.6,36.6z"/>
		<path d="M227.8,41.3c-2.4-0.3-4.6,0.2-6.9,0.3c-3.4,0.2-6.8,0.3-10.1,0.7c-3.2,0.4-6.4,0.7-9.5,1c-3.6,0.3-7.3,0.8-10.9,1.5
			c-2.4,0.4-4.9,0.8-7.3,1.2c-2.3,0.3-4.4,1.1-6.7,1.6c-3,0.8-6,1.7-8.9,2.7c-0.1,0-0.2,0.1-0.3,0.1c-0.7,0.2-1.1-0.1-1.3-0.6
			c-0.2-0.5,0-1,0.7-1.3c1.5-0.5,3-1.2,4.6-1.5c1.7-0.4,3.2-1,4.9-1.4c3.8-0.9,7.5-1.9,11.3-2.8c2.8-0.6,5.7-1.1,8.5-1.5
			c1.7-0.3,3.4-0.4,5-0.6c3.1-0.3,6.3-0.7,9.4-0.8c2.5-0.1,4.9-0.1,7.4,0.1c1.6,0.2,3.2,0,4.8,0.3c1.6,0.3,3.1,0.6,4.8,0.6
			C227.4,40.8,227.6,40.8,227.8,41.3z"/>
		<path d="M303,56.7c-2.6,0.4-5.2,0.7-7.9,0.4c-4-0.4-7.8-1.3-11.8-1.9c-3.8-0.6-7.6-1.2-11.3-2.1c-1.9-0.5-3.9-1-5.8-1.5
			c-2.7-0.7-5.4-1.2-8.2-1.7c-0.7-0.1-1.2-0.6-1.1-1.1c0.1-0.6,0.6-0.9,1.1-1c0.5-0.1,0.9,0,1.4,0c3,0.4,5.9,1.2,8.8,1.9
			c3.2,0.8,6.5,1.7,9.7,2.3c5.1,1,10.2,2,15.4,2.8c3.1,0.4,6.2,1,9.3,1.8C302.7,56.6,302.8,56.6,303,56.7z"/>
		<path d="M444.6,76.4c0.7-1,1.6-1.8,2.8-2.1c1.5-0.4,2.8-1.1,4.1-1.9c1.3-0.9,1.5-3-0.2-3.7c-1.4,2.2-3.4,2.5-5.8,2.2
			c-0.8-0.1-1.5-0.1-2.3-0.3c-0.8-0.2-1.5-0.5-2.1-1c-1.2-0.9-1.2-2.6,0.1-3.4c0.6-0.3,1.2-0.6,1.9-0.7c1.6-0.1,3.2-0.5,4.9-0.2
			c1.3,0.2,2.6,0.2,3.9,0.6c2.7,0.9,4.6,4.4,2.5,7.4c-0.8,1.1-1.8,2-3.1,2.5c-1.2,0.4-2.2,1-3.5,1.2
			C446.7,77.1,445.7,77.2,444.6,76.4z"/>
		<path d="M445.9,39.4c-1.6,1.1-3.2,2-4.9,2.4c-2.2,0.5-4.4,0.9-6.5,1.4c-2.2,0.5-4.3,1.1-6.5,1.7c-1.4,0.4-2.8,0.6-4.1,1
			c-2,0.6-4,1-5.9,1.6c-0.4,0.1-0.8,0.2-1.2,0.2c-0.9,0.1-1.6-0.4-1.8-1.2c-0.2-0.7,0.2-1.4,1-1.8c0.5-0.2,1.1-0.4,1.7-0.6
			c2.6-0.5,5-1.4,7.6-1.9c3.4-0.8,6.7-1.6,10.2-2.2c2-0.3,4-0.9,6-1.1C442.8,38.8,444.2,38.8,445.9,39.4z"/>
		<path d="M478.3,39c2-0.7,4-1.4,5.1-3.5c-0.3-0.6-1-0.7-1.3-1.4c-0.4-0.9,0-1.6,1-1.6c0.8,0,2.5,1.2,2.8,2c0.1,0.4,0.2,0.8,0,1.1
			c-0.5,1.2-1.1,2.3-2.1,3.2c-2.3,2-5.1,2.6-8,2.7c-1.8,0.1-3.6,0-5.4-0.1c-1.3,0-1.5-0.3-1.2-1.6c0.1-0.3-0.1-0.6-0.1-0.9
			c0-1.1,0.4-1.7,1.6-1.8c0.8-0.1,1.6-0.4,2.3-0.8C475.4,35,478,36.4,478.3,39z"/>
		<path d="M126.9,64.4c-0.9,0.8-1.8,1.3-2.7,1.9c-2.9,2.1-5.9,4.1-9.1,5.9c-2.2,1.2-4.3,2.6-6.5,3.7c-3.9,2.1-7.7,4.4-11.5,6.7
			c-0.5,0.3-0.9,0.4-1.4,0.2c-0.8-0.5-0.9-1.4-0.2-2.1c0.8-0.7,1.7-1.2,2.7-1.6c2.7-1.2,5.2-2.6,7.8-4c2.4-1.3,4.8-2.8,7.2-4.2
			c3.4-2,6.8-3.9,10.5-5.3c0.8-0.3,1.5-0.7,2.2-1.1C126.2,64.3,126.4,64.1,126.9,64.4z"/>
		<path d="M335.9,58.1c-1.4,0.4-2.8,0.6-4.3,0.8c-3.6,0.5-7.1,0.3-10.7,0.3c-1.9,0-3.7-0.1-5.6-0.1c-1.4,0-2.8-0.2-4.2-0.5
			c-0.8-0.2-1.4-1-1.3-1.7c0.1-0.8,0.8-1.5,1.8-1.4c2,0.2,4,0.4,6,0.6c2.6,0.3,5.2,0.3,7.8,0.4c2.7,0.1,5.4,0.4,8,1.1
			C334.3,57.8,335.1,57.8,335.9,58.1z"/>
		<path d="M356.7,61.8c1.5-0.6,2.8-1.2,4-1.6c2.3-0.9,4.7-1.6,7.2-2.3c2.1-0.6,4.2-1.1,6.3-1.9c1.2-0.5,2.6-0.7,3.9-0.9
			c1.2-0.2,2.3-0.5,3.4-1c0.5-0.2,1.2-0.6,1.5,0c0.3,0.7-0.5,0.8-1,1c-3.5,1.1-6.6,3.1-10.1,4.3c-2.7,0.9-5.5,1.7-8.3,2.3
			c-1.3,0.3-2.8,0.5-4.2,0.2C358.6,61.5,357.9,62.1,356.7,61.8z"/>
		<path d="M77,94.7c-1,1.2-1.9,2.5-3.1,3.6c-2.1,1.9-4.2,3.7-6.3,5.5c-0.3,0.3-0.7,0.4-1,0.7c-0.4,0.3-0.8,0.3-1.1-0.1
			c-0.4-0.4-0.2-0.9,0.1-1.2c0.5-0.4,0.9-0.9,1.5-1.3c1.4-1,2.6-2.3,3.9-3.4c1.3-1.2,2.8-1.9,4.1-2.9c0.5-0.4,1.1-0.7,1.7-1.1
			C76.8,94.5,76.9,94.6,77,94.7z"/>
		<path d="M245.6,44.2c-3.2,1-6.4,0.3-9.5-0.1c-0.3,0-0.6-0.2-0.9-0.3c-0.4-0.1-0.8-0.2-0.7-0.7c0.1-0.4,0.4-0.6,0.8-0.7
			c0.5-0.1,0.9-0.1,1.4,0c2.8,0.1,5.7,0.4,8.4,1.3C245.2,43.8,245.5,43.8,245.6,44.2z"/>
		<path d="M133.8,62.7c0-0.1,0-0.2,0-0.3c2.1-1.8,4-3.8,6.7-4.9c1.1-0.4,2.2-0.9,3.3-1.4c0.4-0.2,0.7-0.3,1,0.1c0.3,0.5,0,0.8-0.4,1
			c-0.3,0.2-0.7,0.4-1.1,0.6c-2.2,1.1-4.2,2.6-6.5,3.6c-0.9,0.4-1.9,0.7-2.7,1.3C134,62.8,133.9,62.8,133.8,62.7z"/>
		<path d="M396.3,51.7c-0.8,1.5-2.1,2.1-3.6,2.4c-0.7,0.1-1.3,0.3-2,0.5c-0.5,0.1-1,0-1.4-0.4c-0.7-0.6-0.4-1.5,0.5-2
			C391.7,51.4,394,51.2,396.3,51.7z"/>
		<path d="M51.3,119.1c0.6-2.4,4-6,5.9-6.2c-0.5,1.5-1.6,2.5-2.5,3.6C53.9,117.6,52.7,118.3,51.3,119.1z"/>
		<path d="M82.3,90c0.5-1.9,2-2.6,3.4-3.3c0.4-0.2,0.7,0,1,0.3c0.3,0.3,0.2,0.7-0.1,1C85.5,89.1,84.2,90.1,82.3,90z"/>
		<path d="M324.4,94.6c0,0.4-0.2,0.6-0.4,0.8c-0.7,0.6-1.9,0.6-2.6-0.1c-0.3-0.3-0.4-0.7-0.3-1.1c0.2-0.7,0.8-1,1.6-0.9
			C323.7,93.4,324.4,94,324.4,94.6z"/>
		<path d="M520,56.8c0.8,0,1.5,0.8,1.4,1.6c-0.1,0.8-0.7,1.4-1.5,1.3c-0.8,0-1.5-0.7-1.4-1.5C518.6,57.5,519.3,56.8,520,56.8z"/>
		<path d="M301.1,98.3c-0.8,0-1.5-0.6-1.5-1.3c0-0.7,1-1.4,1.8-1.4c0.7,0,1.3,0.6,1.3,1.3C302.6,97.7,301.9,98.3,301.1,98.3z"/>
		<path d="M187.8,75.6c1.2,0,1.4,0.3,1.1,1.4c-0.1,0.3,0,0.5-0.1,0.8c-0.2,0.5-0.5,0.9-1.1,1c-0.5,0.1-0.9-0.2-1.1-0.6
			c-0.3-0.5-0.2-0.9,0.1-1.3c0.1-0.2,0.4-0.4,0.4-0.5C186.9,75.5,187.4,75.5,187.8,75.6z"/>
		<path d="M289.5,97.6c-0.3,0-0.6,0-0.9-0.1c-0.4-0.2-0.6-0.5-0.6-1c0-0.5,0.2-0.9,0.7-1.1c0.8-0.3,1.5-0.2,2.2,0.2
			c0.5,0.2,0.5,0.9,0.2,1.3C290.7,97.3,290.1,97.5,289.5,97.6z"/>
		<path d="M242.4,87.6c-0.9,0-1.9-0.7-1.9-1.4c0-0.6,0.6-1.2,1.2-1.2c0.8,0,1.9,0.8,1.9,1.5C243.6,87,243,87.6,242.4,87.6z"/>
		<path d="M409.9,79.2c-0.6,0-1.4-0.8-1.4-1.4c0-0.8,0.7-1.5,1.5-1.5c0.8,0,1.5,0.7,1.4,1.5C411.3,78.5,410.5,79.3,409.9,79.2z"/>
		<path d="M69.1,118.9c0,0.6-0.9,1.4-1.5,1.4c-0.7,0-1.5-0.9-1.4-1.6c0.1-0.7,0.8-1.3,1.5-1.3C68.4,117.5,69.1,118.3,69.1,118.9z"/>
		<path d="M406.8,48.6c1-0.9,2-1.5,3.1-1.7c0.6-0.1,1,0.1,1.2,0.6c0.2,0.6-0.1,1-0.7,1.2c-0.4,0.2-0.9,0.4-1.3,0.2
			C408.4,48.8,407.7,48.7,406.8,48.6z"/>
		<path d="M97.8,114.4c-0.7,0-1.3-0.6-1.3-1.3c0-0.7,0.7-1.3,1.3-1.3c0.7,0,1.4,0.7,1.4,1.4C99.2,113.9,98.6,114.4,97.8,114.4z"/>
		<path d="M130.4,95.1c0,0.7-0.6,1.3-1.3,1.3c-0.7,0-1.4-0.5-1.4-1.2c0-0.7,0.7-1.4,1.4-1.4C129.7,93.8,130.4,94.5,130.4,95.1z"/>
		<path d="M348.5,60.6c-0.6,0.4-1.4,0.3-2,0.4c-1.5,0.1-3,0.1-4.5,0.1c-0.3,0-0.7,0.1-0.7-0.4c0-0.4,0.4-0.5,0.7-0.4
			c1.6,0.2,3.3,0,4.9,0c0.5,0,1.1,0,1.6,0C348.5,60.4,348.5,60.5,348.5,60.6z"/>
		<path d="M89.3,108.9c0.7,0,1.2,0.4,1.3,1.1c0,0.7-0.6,1.3-1.4,1.3c-0.6,0-1.4-0.6-1.4-1.1C87.7,109.7,88.6,108.9,89.3,108.9z"/>
		<path d="M514.6,35.1c-0.6,0-1.3-0.7-1.3-1.4c0-0.7,0.7-1.3,1.3-1.2c0.6,0,1.2,0.6,1.2,1.2C515.9,34.3,515.2,35.1,514.6,35.1z"/>
		<path d="M133.7,90.3c0.6,0,1.4,0.7,1.4,1.3c0,0.5-0.7,1.2-1.3,1.3c-0.6,0-1.4-0.7-1.3-1.3C132.4,91,133.1,90.3,133.7,90.3z"/>
		<path d="M478.1,84.6c-0.6,0-1.4-0.7-1.4-1.3c0-0.6,0.7-1.2,1.3-1.2c0.6,0,1.4,0.7,1.4,1.3C479.4,83.8,478.7,84.5,478.1,84.6z"/>
		<path d="M166.2,81.6c0.7,0,1.3,0.4,1.4,1.1c0.1,0.6-0.6,1.3-1.3,1.3c-0.6,0-1.3-0.6-1.3-1.2C164.9,82.2,165.6,81.6,166.2,81.6z"/>
		<path d="M191.6,80.2c0,0.6-0.7,1.4-1.3,1.4c-0.6,0-1.3-0.6-1.3-1.2c-0.1-0.6,0.6-1.3,1.2-1.3C190.8,78.9,191.6,79.5,191.6,80.2z"
			/>
		<path d="M73.5,79.7c0,0.6-0.7,1.3-1.3,1.3c-0.6,0-1.3-0.7-1.3-1.3c0-0.6,0.7-1.2,1.3-1.2C72.8,78.4,73.5,79,73.5,79.7z"/>
		<path d="M51.9,124.3c-0.7,0-1.3-0.4-1.3-1.1c0-0.7,0.6-1.3,1.3-1.3c0.7,0,1.2,0.6,1.2,1.2C53.2,123.8,52.7,124.3,51.9,124.3z"/>
		<path d="M137.7,86c0.7,0,1.2,0.6,1.1,1.3c-0.1,0.6-0.7,1.2-1.3,1.2c-0.7,0-1.3-0.7-1.2-1.4C136.4,86.3,136.9,85.9,137.7,86z"/>
		<path d="M454.1,95c-0.7,0-1.4-0.7-1.4-1.3c0-0.6,0.9-1.1,1.5-1.1c0.6,0,1.1,0.6,1.1,1.2C455.4,94.4,454.7,95,454.1,95z"/>
		<path d="M43.5,119.8c-0.9,0-1.7-0.5-1.7-1.2c0-0.6,0.5-1,1-1c0.7,0,1.7,0.8,1.7,1.3C44.5,119.3,44,119.8,43.5,119.8z"/>
		<path d="M455.7,80.7c0,0.6-0.7,1.1-1.3,1.1c-0.7,0-1.3-0.5-1.3-1.1c0-0.6,0.5-1,1.3-1C455.1,79.6,455.7,80.1,455.7,80.7z"/>
		<path d="M349.3,92c-0.7,0-1.2-0.6-1.2-1.2c0-0.6,0.7-1.2,1.3-1.1c0.6,0,1.2,0.6,1.2,1.1C350.6,91.5,350,92,349.3,92z"/>
		<path d="M330.2,40.8c0.6,0,1.3,0.7,1.2,1.2c0,0.6-0.6,1.1-1.2,1.1c-0.6,0-1.3-0.5-1.3-1C328.8,41.7,329.6,40.8,330.2,40.8z"/>
		<path d="M211.6,78.1c0,0.4-1.2,1.7-1.5,1.8c-0.2,0-0.4,0-0.6-0.2c-0.2-0.3-0.1-1.8,0.1-2.1c0.3-0.5,0.8-0.4,1.2-0.3
			C211.3,77.4,211.5,77.7,211.6,78.1z"/>
		<path d="M494.6,18.1c0,0.6-0.7,1.2-1.3,1.1c-0.6-0.1-1.1-0.7-1.1-1.2c0-0.5,0.7-1.1,1.2-1.2C493.9,16.8,494.6,17.5,494.6,18.1z"/>
		<path d="M337.8,93.4c-0.6,0-1.2-0.5-1.2-1.1c0-0.6,0.6-1.3,1.2-1.3c0.6,0,1.2,0.6,1.2,1.2C338.9,92.9,338.4,93.4,337.8,93.4z"/>
		<path d="M148.6,89.8c-0.7,0-1.1-0.4-1.1-0.9c0-0.6,0.7-1.3,1.4-1.3c0.6,0,1.1,0.5,1.1,1.2C149.9,89.4,149.4,89.8,148.6,89.8z"/>
		<path d="M54.7,99.4c0.5,0,1.2,0.6,1.2,1.1c0,0.5-0.6,1.1-1.1,1.2c-0.6,0-1.3-0.6-1.3-1.2C53.5,99.9,54.1,99.4,54.7,99.4z"/>
		<path d="M48.8,110.6c0,0.7-0.6,1.2-1.3,1.2c-0.6-0.1-1.1-0.6-1.1-1.2c0-0.7,0.6-1.2,1.3-1.1C48.3,109.5,48.8,110,48.8,110.6z"/>
		<path d="M59.2,97.1c-0.6,0-1.1-0.5-1.2-1.1c0-0.6,0.6-1.2,1.2-1.2c0.6,0,1.1,0.6,1.1,1.2C60.4,96.6,59.8,97.1,59.2,97.1z"/>
		<path d="M513.8,65.7c-0.6,0-1.2-0.6-1.2-1.2c0-0.5,0.6-1.1,1.2-1.2c0.6,0,1.3,0.6,1.2,1.2C515,65.1,514.3,65.7,513.8,65.7z"/>
		<path d="M481.2,70.2c0,0.7-1.5,1.8-2.1,1.6c-0.3-0.1-0.5-0.4-0.5-0.7c0-0.8,1.2-1.8,2-1.5C480.9,69.7,481.2,69.8,481.2,70.2z"/>
		<path d="M279.9,93.7c0.5,0,1.1,0.6,1.1,1c0,0.4-0.7,1.1-1.2,1.1c-0.5,0-1.2-0.7-1.2-1.1C278.7,94.2,279.3,93.7,279.9,93.7z"/>
		<path d="M175.1,76.3c0.3-0.1,0.7,0.2,1.1,0.6c0.3,0.3,0.4,0.7,0.1,1.1c-0.3,0.4-0.7,0.5-1.2,0.2c-0.3-0.2-0.5-0.4-0.7-0.6
			c-0.2-0.3-0.7-0.6-0.5-1C174,76.2,174.5,76.3,175.1,76.3z"/>
		<path d="M401.7,78c0.5,0,1.1,0.5,1.1,1c0,0.5-0.6,1.1-1.2,1.1c-0.5,0-1.1-0.6-1.1-1C400.5,78.5,401.1,78,401.7,78z"/>
		<path d="M312.4,97c-0.6,0-1.2-0.4-1.2-0.9c0-0.5,0.7-1.1,1.3-1.1c0.6,0,1.2,0.5,1.2,1.1C313.7,96.6,313.1,97,312.4,97z"/>
		<path d="M429,94.1c0,0.5-0.7,1-1.2,1c-0.5-0.1-1-0.6-1-1.1c0-0.5,0.7-1.1,1.2-1C428.5,93,429,93.6,429,94.1z"/>
		<path d="M157.4,79.3c-0.3,0-0.6-0.1-0.9-0.2c-0.3-0.1-0.3-0.3-0.2-0.6c0.2-0.5,1.1-1.1,1.6-1.1c0.4,0,0.7,0.2,0.8,0.6
			c0.1,0.3,0,0.6-0.2,0.9C158.3,79.1,157.9,79.3,157.4,79.3z"/>
		<path d="M105.9,103.6c-0.7-0.1-1.2-0.6-1.1-1.1c0.1-0.5,0.7-1,1.2-0.9c0.5,0.1,1.1,0.7,1,1.3C107,103.4,106.6,103.7,105.9,103.6z"
			/>
		<path d="M94,59.9c0,0.5-0.6,1.1-1,1.1c-0.5,0-1.1-0.5-1.1-1c0-0.5,0.5-1.1,1-1.1C93.4,58.9,93.9,59.4,94,59.9z"/>
		<path d="M424,100.8c0,0.5-0.5,1-1,1.1c-0.5,0-1.1-0.5-1.1-1c0-0.5,0.5-1,1-1C423.4,99.8,423.9,100.2,424,100.8z"/>
		<path d="M79.4,70.8c-0.7-0.1-1-0.3-0.9-0.9c0.1-0.6,0.6-1.1,1.2-1.1c0.6,0,1,0.6,1,1.1C80.6,70.4,80.1,70.8,79.4,70.8z"/>
		<path d="M467.4,76.9c-0.8,0-1.5-0.4-1.4-0.8c0.1-0.4,0.8-0.8,1.4-0.8c0.6,0,1,0.2,1.1,0.8C468.7,76.4,468.1,76.9,467.4,76.9z"/>
		<path d="M469.9,89c-0.5,0-0.9-0.4-1-0.9c0-0.6,0.5-1,1.1-1c0.5,0,0.9,0.4,1,0.9C471,88.6,470.5,89,469.9,89z"/>
		<path d="M102.5,54.1c0,0.4-0.5,1-0.9,1c-0.5,0.1-1.1-0.5-1.1-1c0-0.5,0.5-1,0.9-1.1C101.8,53.1,102.5,53.6,102.5,54.1z"/>
		<path d="M473.8,17.1c-0.6,0-1-0.5-1-1.1c0-0.6,0.5-1,1.1-0.9c0.6,0.1,0.9,0.4,0.9,1C474.8,16.7,474.3,17.1,473.8,17.1z"/>
		<path d="M69.2,86c0,0.6-0.5,1-1.1,0.9c-0.5-0.1-0.9-0.4-0.9-1c0-0.6,0.4-1,1-1C68.8,84.9,69.2,85.4,69.2,86z"/>
		<path d="M256.5,90.2c-0.8,0.3-1.5,0.5-2.1-0.2c-0.3-0.3-0.5-0.6-0.3-1c0.2-0.3,0.5-0.3,0.8-0.3C255.9,88.7,256.1,89.5,256.5,90.2z
			"/>
		<path d="M220.3,80.1c0.4,0,1.1,0.5,1.1,1c0.1,0.5-0.3,1-0.9,1c-0.6,0-1-0.3-1.1-0.9C219.4,80.6,219.8,80.1,220.3,80.1z"/>
		<path d="M369,87.4c0,0.4-0.5,1.1-1,1.1c-0.5,0-1.1-0.6-1.1-1c0-0.4,0.5-0.9,1-0.9C368.5,86.5,369,86.9,369,87.4z"/>
		<path d="M224.8,75.1c0.5,0,1,0.5,1,0.9c0,0.4-0.6,0.9-1,0.9c-0.5,0-1.1-0.5-1-1C223.8,75.5,224.3,75.1,224.8,75.1z"/>
		<path d="M487.3,82.3c-0.5,0-1-0.5-1-1c0-0.5,0.5-0.9,1-0.9c0.5,0,1,0.4,1,0.9C488.3,81.8,487.8,82.3,487.3,82.3z"/>
		<path d="M117.8,97.3c-0.6,0-1-0.5-0.9-0.9c0-0.5,0.6-0.9,1-0.9c0.5,0,1,0.5,0.9,1C118.8,96.9,118.4,97.3,117.8,97.3z"/>
		<path d="M61.5,89.6c0,0.5-0.5,0.9-1.1,0.8c-0.6,0-1-0.5-0.9-1c0.1-0.5,0.6-0.9,1.1-0.9C61,88.6,61.5,89.1,61.5,89.6z"/>
		<path d="M190,24.3c0,0.5-0.5,0.9-1,0.9c-0.5,0-1-0.5-1-1c0-0.5,0.5-0.9,1-0.9C189.6,23.4,190.1,23.8,190,24.3z"/>
		<path d="M267.9,30.9c0,0.4-0.4,0.9-0.8,0.9c-0.5,0-1.1-0.5-1.1-0.9c0-0.5,0.3-0.9,0.8-0.9C267.2,29.9,267.8,30.5,267.9,30.9z"/>
		<path d="M472.4,58.4c0.5,0,1.1,0.4,1.2,0.8c0.1,0.4-0.4,0.9-1,0.9c-0.5,0.1-1.1-0.4-1.1-0.8C471.5,58.9,472,58.4,472.4,58.4z"/>
		<path d="M230.9,80.3c0.3,0,0.6,0.1,0.7,0.4c0.2,0.4,0.3,0.8,0.7,1c0.2,0.1,0.2,0.4,0,0.6c-0.2,0.2-0.4,0.3-0.6,0.1
			c-0.4-0.4-0.9-0.6-1.3-0.9c-0.3-0.2-0.2-0.6-0.1-0.9C230.5,80.4,230.7,80.5,230.9,80.3z"/>
		<path d="M459,91.2c-0.6,0-0.8-0.3-0.9-0.8c0-0.6,0.3-1,0.9-1c0.5,0,0.9,0.4,0.9,1C459.9,90.9,459.6,91.2,459,91.2z"/>
		<path d="M428,37c-0.4-0.1-0.8-0.2-0.7-0.7c0.1-0.6,0.5-0.8,1-0.9c0.4,0,0.8,0.2,0.9,0.7C429.2,36.5,428.6,37,428,37z"/>
		<path d="M444.7,32.6c0.2,0,0.3,0.1,0.5,0.2c0.1,0.2,0,0.3-0.1,0.5c-0.4,0.5-1,0.7-1.6,0.8c-0.2,0.1-0.5,0-0.6-0.2
			c-0.1-0.2,0-0.4,0.2-0.6C443.4,32.7,444.1,32.7,444.7,32.6z"/>
		<path d="M481.2,15.7c-0.1,0.5-0.4,0.8-0.9,0.9c-0.4,0.1-0.9-0.5-0.9-0.9c0-0.4,0.4-0.9,0.8-0.9C480.7,14.8,481.1,15.2,481.2,15.7z
			"/>
		<path d="M42.2,126.3c0.6,0,0.8,0.4,0.9,0.9c0.1,0.4-0.4,0.9-0.8,0.9c-0.5,0-1-0.4-1-0.9C41.3,126.5,41.8,126.5,42.2,126.3z"/>
		<path d="M374.9,81.5c0,0.5-0.4,0.9-0.9,0.9c-0.4,0-0.9-0.5-0.9-0.9c0-0.4,0.5-0.9,0.9-0.9C374.6,80.7,374.9,81,374.9,81.5z"/>
		<path d="M428.4,86.9c0,0.4-0.6,0.9-1,0.8c-0.4,0-0.9-0.6-0.9-0.9c0-0.4,0.6-0.8,1-0.8C427.9,86,428.4,86.5,428.4,86.9z"/>
		<path d="M176.6,80.7c0.4,0,0.9,0.5,0.9,0.9c0,0.4-0.5,0.9-0.9,0.9c-0.3,0-0.9-0.5-0.9-0.9C175.7,81.3,176.2,80.8,176.6,80.7z"/>
		<path d="M216.4,23.2c0,0.4-0.5,0.9-0.9,0.9c-0.4,0-0.9-0.5-0.9-0.8c0-0.4,0.5-0.9,0.9-0.9C215.9,22.4,216.4,22.9,216.4,23.2z"/>
		<path d="M510.6,71.2c0,0.3-0.6,0.9-0.9,0.8c-0.4,0-0.9-0.6-0.8-0.9c0-0.4,0.5-0.9,0.9-0.8C510.1,70.3,510.6,70.8,510.6,71.2z"/>
		<path d="M118.3,44.1c-0.4,0-0.9-0.5-0.8-0.9c0.1-0.5,0.4-0.8,0.9-0.8c0.4,0,0.8,0.2,0.8,0.7C119.2,43.6,118.7,44.1,118.3,44.1z"/>
		<path d="M180,25.8c0,0.4-0.5,0.9-0.8,0.9c-0.5,0-0.8-0.3-0.9-0.8c-0.1-0.4,0.4-0.9,0.8-0.9C179.4,25,180,25.4,180,25.8z"/>
		<path d="M202,78.9c0.3,0,0.9,0.5,0.9,0.9c0,0.4-0.5,0.9-0.9,0.9c-0.4,0-0.9-0.5-0.9-0.9C201.1,79.5,201.6,79,202,78.9z"/>
		<path d="M109.3,51.5c0.4,0,0.9,0.5,0.9,0.9c0,0.3-0.6,0.9-0.9,0.9c-0.4,0-0.9-0.6-0.9-0.9C108.4,52,108.9,51.5,109.3,51.5z"/>
		<path d="M52,106.7c0,0.3-0.6,0.9-0.9,0.9c-0.3,0-0.9-0.6-0.9-0.9c0-0.4,0.5-0.9,0.9-0.9C51.5,105.9,52,106.4,52,106.7z"/>
		<path d="M50.2,101.3c0.3,0,0.9,0.5,0.9,0.9c0,0.4-0.5,0.9-0.9,0.9c-0.4,0-0.9-0.4-0.9-0.8C49.3,101.9,49.9,101.3,50.2,101.3z"/>
		<path d="M154.7,30c0,0.4-0.4,0.9-0.8,0.9c-0.4,0-0.9-0.5-0.9-0.9c0-0.5,0.3-0.8,0.8-0.8C154.2,29.1,154.7,29.5,154.7,30z"/>
		<path d="M485,60.3c0,0.5-0.4,0.9-0.8,0.9c-0.4,0-0.9-0.5-0.9-0.9c0-0.5,0.3-0.7,0.8-0.8C484.5,59.4,484.9,59.9,485,60.3z"/>
		<path d="M75.2,119.2c-0.4,0-0.8-0.5-0.8-1c0.1-0.5,0.6-0.9,1-0.8c0.4,0.1,0.7,0.4,0.7,0.9C76.1,118.8,75.6,119.2,75.2,119.2z"/>
		<path d="M54.2,128.3c0-0.4,0.5-0.9,1-0.8c0.4,0.1,0.7,0.4,0.8,0.8c0,0.4-0.4,0.9-0.9,0.9C54.6,129.2,54.2,128.8,54.2,128.3z"/>
		<path d="M420.8,81.9c0,0.4-0.4,1-0.8,0.9c-0.4-0.1-0.8-0.4-0.9-0.8c-0.1-0.4,0.4-0.9,0.8-1C420.3,81,420.8,81.4,420.8,81.9z"/>
		<path d="M426.5,78c0,0.4-0.4,0.9-0.8,0.9c-0.4,0-0.9-0.5-0.9-0.9c0-0.5,0.3-0.8,0.8-0.8C426,77.1,426.5,77.5,426.5,78z"/>
		<path d="M79.1,111.1c0,0.5-0.5,0.9-0.9,0.8c-0.4,0-0.9-0.6-0.8-1c0.1-0.4,0.4-0.7,0.9-0.7C78.7,110.1,79.1,110.6,79.1,111.1z"/>
		<path d="M43.3,122.6c-0.5,0-0.8-0.3-0.8-0.7c0-0.5,0.2-0.8,0.7-0.8c0.5-0.1,0.9,0.3,0.9,0.8C44,122.3,43.7,122.5,43.3,122.6z"/>
		<path d="M469.8,71.6c0,0.5-0.3,0.7-0.7,0.8c-0.5,0-0.9-0.4-0.8-0.8c0-0.5,0.3-0.7,0.8-0.7C469.5,70.8,469.7,71.1,469.8,71.6z"/>
		<path d="M273.6,94c0,0.4-0.2,0.7-0.7,0.7c-0.5,0-0.8-0.3-0.8-0.7c0-0.4,0.1-0.8,0.7-0.8C273.2,93.1,273.6,93.4,273.6,94z"/>
		<path d="M284.1,32.4c-0.1,0.5-0.3,0.8-0.8,0.7c-0.5,0-0.7-0.4-0.7-0.8c0-0.5,0.3-0.7,0.8-0.7C283.8,31.7,284,32,284.1,32.4z"/>
		<path d="M116.6,101c-0.1,0.5-0.3,0.7-0.8,0.7c-0.5,0-0.8-0.3-0.8-0.8c0-0.5,0.4-0.8,0.8-0.8C116.3,100.2,116.6,100.5,116.6,101z"
			/>
		<path d="M486.6,66.3c-0.5-0.1-0.8-0.4-0.8-0.8c0-0.4,0.3-0.7,0.7-0.7c0.5,0,0.8,0.2,0.9,0.7C487.4,65.9,487.1,66.2,486.6,66.3z"/>
		<path d="M389.6,80.2c-0.6,0-0.8-0.3-0.7-0.8c0-0.5,0.3-0.8,0.8-0.7c0.5,0.1,0.7,0.3,0.7,0.8C390.4,80,390.1,80.2,389.6,80.2z"/>
		<path d="M443.5,99.7c-0.5-0.1-0.8-0.4-0.7-0.9c0.1-0.5,0.4-0.7,0.9-0.6c0.4,0.1,0.7,0.3,0.6,0.8C444.3,99.4,444,99.6,443.5,99.7z"
			/>
		<path d="M263.9,90.8c0.5,0,0.9,0.5,0.9,0.9c-0.1,0.4-0.3,0.6-0.7,0.6c-0.4,0-0.9-0.5-0.8-0.9C263.3,91,263.5,90.9,263.9,90.8z"/>
		<path d="M495.8,77.7c-0.1,0.4-0.4,0.7-0.8,0.7c-0.4-0.1-0.6-0.4-0.6-0.8c0-0.5,0.3-0.8,0.8-0.7C495.6,77,495.8,77.3,495.8,77.7z"
			/>
		<path d="M473.4,65.2c-0.5,0-0.8-0.3-0.8-0.8c0-0.5,0.2-0.8,0.7-0.8c0.4,0,0.7,0.2,0.7,0.6C474,64.8,473.8,65.1,473.4,65.2z"/>
		<path d="M400.8,40.4c-0.5-0.1-0.7-0.4-0.7-0.9c0-0.4,0.4-0.6,0.7-0.6c0.4,0,0.8,0.3,0.8,0.8C401.6,40.2,401.2,40.4,400.8,40.4z"/>
		<path d="M163,28c0.5,0.1,0.8,0.4,0.7,0.9c-0.1,0.4-0.4,0.7-0.9,0.7c-0.4-0.1-0.7-0.4-0.6-0.8C162.3,28.3,162.6,28.1,163,28z"/>
		<path d="M442.2,92.8c-0.1,0.5-0.4,0.8-0.8,0.8c-0.5,0-0.8-0.4-0.7-0.8c0-0.4,0.3-0.7,0.7-0.7C441.8,92.1,442.1,92.4,442.2,92.8z"
			/>
		<path d="M433.2,99.9c0,0.4-0.2,0.7-0.6,0.7c-0.5,0-0.9-0.3-0.8-0.8c0-0.4,0.3-0.7,0.7-0.7C432.8,99.1,433.2,99.3,433.2,99.9z"/>
		<path d="M518.5,38.7c0.4,0.1,0.8,0.2,0.8,0.7c0,0.4-0.2,0.7-0.7,0.7c-0.5,0-0.7-0.3-0.8-0.7C517.7,38.9,518,38.8,518.5,38.7z"/>
		<path d="M432,82.9c0,0.6-0.4,0.6-0.8,0.6c-0.4,0-0.6-0.2-0.6-0.6c0-0.5,0.3-0.8,0.8-0.7C431.8,82.2,432,82.5,432,82.9z"/>
		<path d="M245.2,78.2c0,0.5-0.3,0.6-0.7,0.6c-0.4,0-0.7-0.2-0.7-0.6c0-0.4,0.3-0.6,0.7-0.6C244.9,77.5,245.2,77.7,245.2,78.2z"/>
		<path d="M208.6,81.9c0,0.4-0.1,0.7-0.6,0.7c-0.5,0-0.7-0.3-0.7-0.7c0-0.4,0.3-0.6,0.7-0.6C208.4,81.3,208.5,81.5,208.6,81.9z"/>
		<path d="M321.6,40.7c0,0.5-0.2,0.6-0.7,0.6c-0.4,0-0.6-0.1-0.7-0.5c0-0.4,0.3-0.7,0.6-0.7C321.3,40,321.6,40.2,321.6,40.7z"/>
		<path d="M465.2,81.8c-0.5,0-0.8-0.2-0.8-0.6c0-0.4,0.4-0.6,0.8-0.6c0.4,0,0.6,0.3,0.6,0.7C465.7,81.7,465.5,81.9,465.2,81.8z"/>
		<path d="M256.4,83.1c0.5,0.1,0.6,0.3,0.6,0.8c0,0.4-0.3,0.5-0.7,0.5c-0.4,0-0.7-0.2-0.7-0.6C255.7,83.2,256.1,83.1,256.4,83.1z"/>
		<path d="M307.4,37.5c0.2,0.2,0.7,0.1,0.6,0.6c0,0.4-0.2,0.7-0.7,0.7c-0.4,0-0.6-0.2-0.6-0.5C306.8,37.8,307,37.6,307.4,37.5z"/>
		<path d="M45.7,115c-0.1,0.3-0.3,0.5-0.8,0.5c-0.4,0-0.6-0.3-0.5-0.7c0-0.4,0.4-0.5,0.7-0.5C45.4,114.3,45.7,114.5,45.7,115z"/>
		<path d="M81.8,117.7c-0.5-0.1-0.5-0.5-0.5-0.8c0-0.4,0.2-0.8,0.7-0.8c0.3,0,0.5,0.4,0.4,0.6C82.2,117.1,82.2,117.5,81.8,117.7z"/>
		<path d="M474.7,79.4c-0.1,0.4-0.3,0.7-0.6,0.6c-0.3,0-0.6-0.2-0.6-0.6c0-0.4,0.2-0.6,0.6-0.6C474.5,78.8,474.6,79.1,474.7,79.4z"
			/>
		<path d="M445.7,83.7c-0.4-0.1-0.5-0.3-0.5-0.7c0-0.4,0.2-0.6,0.6-0.6c0.4,0,0.6,0.2,0.6,0.6C446.4,83.4,446.1,83.6,445.7,83.7z"/>
		<path d="M63.1,123.4c0,0.4-0.1,0.9-0.7,0.9c-0.4,0-0.5-0.2-0.5-0.5c0-0.5,0.3-0.9,0.8-0.9C63,122.9,63.1,123.1,63.1,123.4z"/>
		<path d="M82.6,65c0,0.3-0.3,0.5-0.6,0.5c-0.3,0-0.5-0.2-0.5-0.5c0-0.3,0.3-0.4,0.6-0.4C82.5,64.5,82.6,64.6,82.6,65z"/>
		<path d="M233.8,86c-0.1,0.3-0.3,0.5-0.6,0.4c-0.3,0-0.5-0.3-0.4-0.6c0-0.2,0.2-0.4,0.5-0.4C233.7,85.5,233.8,85.7,233.8,86z"/>
		<path d="M158.8,84.8c0,0.3-0.2,0.5-0.5,0.5c-0.3,0-0.5-0.2-0.5-0.5c0-0.2,0.2-0.4,0.4-0.4C158.6,84.3,158.8,84.5,158.8,84.8z"/>
		<path d="M392.9,41.6c0.3,0.1,0.5,0.2,0.5,0.6c0,0.2-0.2,0.4-0.5,0.4c-0.3,0-0.5-0.3-0.5-0.5C392.4,41.8,392.6,41.6,392.9,41.6z"/>
		<path d="M503.5,66.9c-0.1,0.4-0.2,0.5-0.6,0.5c-0.3,0-0.4-0.2-0.4-0.5c0-0.3,0.2-0.5,0.6-0.4C503.4,66.4,503.5,66.7,503.5,66.9z"
			/>
		<path d="M475.4,16.6c0-0.3,0.2-0.4,0.4-0.5c0.3,0,0.5,0.1,0.6,0.4c0,0.3-0.1,0.4-0.4,0.5C475.7,17,475.5,16.9,475.4,16.6z"/>
		<path d="M470.8,68.5c0,0.2-0.2,0.4-0.4,0.4c-0.3,0-0.5-0.2-0.5-0.5c0-0.3,0.3-0.5,0.6-0.4C470.7,68,470.9,68.1,470.8,68.5z"/>
		<path d="M356.9,91c0,0.3-0.2,0.4-0.5,0.3c-0.2,0-0.3-0.2-0.3-0.4c0-0.3,0.2-0.4,0.4-0.4C356.7,90.6,356.9,90.7,356.9,91z"/>
		<path d="M434.6,32.3c0.2,0,0.4,0.1,0.4,0.4c0,0.2-0.1,0.4-0.3,0.4c-0.3,0.1-0.5-0.1-0.5-0.3C434.1,32.6,434.3,32.4,434.6,32.3z"/>
		<path d="M239.2,25.4c0.2,0,0.4,0.1,0.5,0.4c0.1,0.2,0,0.4-0.3,0.5c-0.3,0.1-0.5-0.1-0.5-0.4C238.8,25.7,239,25.5,239.2,25.4z"/>
		<path d="M200.5,24c-0.2-0.1-0.4-0.2-0.3-0.5c0.1-0.2,0.2-0.4,0.5-0.3c0.2,0,0.3,0.2,0.3,0.4C201,23.9,200.8,24.1,200.5,24z"/>
		<path d="M69.1,123.2c0,0.3-0.1,0.5-0.4,0.5c-0.2,0-0.4-0.1-0.4-0.3c-0.1-0.3,0.1-0.4,0.3-0.5C68.9,122.8,69,123,69.1,123.2z"/>
		<path d="M460.3,71.3c0,0.3,0,0.4-0.2,0.5c-0.2,0.1-0.4,0-0.5-0.3c-0.1-0.2,0-0.3,0.2-0.4C460.1,71.1,460.3,71.1,460.3,71.3z"/>
		<path d="M412.1,39.8c0,0.3-0.1,0.4-0.3,0.5c-0.3,0.1-0.5-0.1-0.5-0.3c0-0.2,0.2-0.3,0.4-0.3C411.9,39.6,412,39.6,412.1,39.8z"/>
		<path d="M227.5,24.7c-0.1,0.3-0.3,0.3-0.5,0.2c-0.2,0-0.3-0.2-0.2-0.4c0.1-0.2,0.2-0.4,0.5-0.3C227.5,24.3,227.5,24.5,227.5,24.7z
			"/>
		<path d="M254.3,27.6c0,0.3-0.1,0.4-0.4,0.4c-0.2,0-0.4,0-0.4-0.3c0-0.3,0.2-0.4,0.4-0.5C254.2,27.2,254.3,27.4,254.3,27.6z"/>
		<path d="M94,113.8c0,0.3-0.2,0.3-0.4,0.3c-0.2,0-0.4-0.1-0.3-0.3c0-0.2,0.2-0.4,0.5-0.4C94,113.4,94,113.6,94,113.8z"/>
		<path d="M52.2,97.2c0.2,0,0.3,0.1,0.4,0.3c0,0.2-0.1,0.3-0.2,0.3c-0.2,0-0.4,0-0.4-0.2C51.8,97.3,52,97.2,52.2,97.2z"/>
		<path d="M116,47.1c-0.1,0.2-0.3,0.2-0.5,0.2c-0.2,0-0.3-0.2-0.2-0.4c0.1-0.2,0.3-0.3,0.5-0.3C115.9,46.7,116,46.9,116,47.1z"/>
		<path d="M417.2,36.2c0.2,0,0.4,0.2,0.4,0.4c0,0.3-0.2,0.2-0.4,0.2c-0.2,0-0.4,0-0.4-0.3C416.8,36.3,417,36.2,417.2,36.2z"/>
		<path d="M61,92.2c-0.2,0.1-0.3,0.2-0.4,0.1c-0.2,0-0.3-0.1-0.2-0.4c0.1-0.1,0.2-0.2,0.3-0.1C60.9,91.9,60.9,92,61,92.2z"/>
		<path d="M98,77.6c-0.1,0.2-0.2,0.3-0.4,0.3c-0.1,0-0.3-0.2-0.2-0.3c0.1-0.1,0.2-0.2,0.3-0.2C97.9,77.3,98,77.4,98,77.6z"/>
	</g>
</g>
<g id="Layer_8">
</g>
<g id="Layer_7">
</g>
<g id="Layer_6">
</g>
<g id="Layer_5">
</g>
<g id="Layer_4">
</g>
<g id="Layer_3">
</g>
</svg>
