<?xml version="1.0" encoding="utf-8"?>
<!-- Generator: Adobe Illustrator 25.0.1, SVG Export Plug-In . SVG Version: 6.00 Build 0)  -->
<svg version="1.1" xmlns="http://www.w3.org/2000/svg" xmlns:xlink="http://www.w3.org/1999/xlink" x="0px" y="0px"
	 viewBox="0 0 566.9 127.2" style="enable-background:new 0 0 566.9 127.2;" xml:space="preserve">
<g id="Layer_1">
</g>
<g id="Layer_13">
</g>
<g id="Layer_12">
</g>
<g id="Layer_11">
</g>
<g id="Layer_10">
</g>
<g id="Layer_9">
</g>
<g id="Layer_8">
	<g>
		<path d="M479.3,107.2c-0.6,0.4-1.1,0.4-1.6,0.3c-0.5-0.1-1-0.1-1.5-0.1c-3.9,0-7.9-0.1-11.8,0.1c-1.6,0.1-3.1,0.3-4.7,0.4
			c-1.9,0.1-3.8,0.5-5.7,0.6c-0.4,0-0.8,0.1-1.2,0.2c-3.2,0.5-6.5,1-9.7,1.7c-1.4,0.3-2.8,0.4-4.1,0.7c-1.7,0.3-3.4,0.6-5.1,0.9
			c-1.7,0.2-3.4,0.6-5.1,0.7c-1.2,0.1-2.3,0.4-3.5,0.5c-1.8,0.3-3.7,0.5-5.5,0.8c-1.1,0.2-2.2,0.6-3.2,0.9c-4,1.3-8.2,2.3-12.3,3.3
			c-1.3,0.3-2.7,0.6-4,0.9c-2.2,0.5-4.5,0.7-6.7,1c-2.7,0.3-5.5,0.2-8.2-0.2c-2.6-0.4-5.1-0.9-7.6-1.5c-1.1-0.3-2.2-0.7-3.3-0.9
			c-1.3-0.2-2.6-0.6-3.9-1c-1.2-0.4-2.5-0.6-3.7-1c-1.3-0.4-2.6-0.8-3.9-1.1c-1.5-0.4-2.9-0.7-4.4-1.1c-2.7-0.7-5.4-1.3-8.2-1.7
			c-2.5-0.3-4.9-0.6-7.4-0.8c-1.7-0.2-3.4-0.1-5.1,0c-1.3,0-2.7-0.1-4-0.2c-1.2-0.1-2.3-0.2-3.5-0.3c-2-0.1-4-0.2-6-0.4
			c-2.1-0.3-4.3-0.5-6.4-1.3c-1-0.4-2.1-0.4-3.2-0.4c-3.2,0-6.3-0.1-9.4-0.3c-2.4-0.1-4.7-0.3-7.1-0.6c-1.5-0.2-3.1-0.3-4.6-0.6
			c-1.3-0.2-2.6-0.5-3.8-0.8c-2.2-0.6-4.4-1.2-6.7-1.7c-1.4-0.3-2.9-0.5-4.4-0.7c-1.2-0.1-2.4-0.1-3.6-0.2c-1,0-2-0.1-2.9-0.5
			c-1-0.4-2.1-0.3-3.1-0.2c-1,0.1-2,0.1-3,0.3c-1.8,0.3-3.6,0.4-5.5,0.6c-1.8,0.2-3.6,0.4-5.4,0.7c-2.4,0.3-4.9,0.5-7.3,0.6
			c-1.7,0.1-3.4,0.2-5.1,0.3c-1.3,0.1-2.6,0.3-4,0.5c-2,0.4-4,0.7-6,1c-0.8,0.1-1.5,0.3-2.3,0.4c-2.3,0.4-4.6,0.9-6.9,1.3
			c-1.3,0.3-2.7,0.6-4,0.8c-2.7,0.4-5.4,1.1-8.1,1.5c-2,0.3-3.9,0.7-5.9,1c-1.7,0.3-3.4,0.5-5.1,0.8c-1.5,0.3-3,0.4-4.4,0.6
			c-1.3,0.3-2.6,0.3-4,0.5c-1,0.1-2.1,0.3-3.1,0.4c-1.6,0.1-3.1,0.4-4.7,0.5c-2,0.1-4,0.3-6,0.5c-2.1,0.2-4.3,0.1-6.4,0.3
			c-2.1,0.2-4.2,0.1-6.3,0.3c-1.8,0.1-3.7,0-5.5,0c-1.1,0-2.2,0-3.3,0c-1.5-0.1-3,0-4.4-0.2c-1.1-0.1-2.2-0.1-3.2-0.2
			c-2.1-0.3-4.2-0.6-6.3-0.9c-0.8-0.1-1.6-0.1-2.3-0.4c-0.2-0.1-0.4,0-0.5,0c-1.4,0.2-2.8,0.5-4.2,0.9c-0.6,0.2-1.2,0.1-1.8,0.2
			c-1.7,0.3-3.4,0.3-5.1,0c-1.6-0.3-3.1-0.4-4.7-0.6c-1.7-0.2-3.2,0.3-4.7,0.8c-2.3,0.7-4.5,1.4-6.8,1.9c-3,0.6-6,0.7-8.9-0.3
			c-2.1-0.7-4.1-1.7-6.1-2.8c-1-0.6-2.2-1.1-3.3-1.5c-2.3-0.9-4.6-1.8-6.9-2.5c-1.4-0.5-2.9-0.9-4.4-1.1c-0.9-0.1-1.8-0.4-2.7-0.6
			c-0.8-0.1-1.6-0.3-2.4-0.3c-1.1,0-2.3-0.2-3.4-0.1c-2.2,0.1-4.5,0.1-6.7,0.6c-2.3,0.5-4.6,0.8-6.9,1.2c-2.2,0.4-4.3,0.4-6.5-0.1
			c-2.5-0.6-4.9-1.6-7.1-2.9c-2.3-1.3-4.8-2.6-7.4-3.1c-1.6-0.3-3.3-0.6-5-0.8c-2.3-0.2-4.7-0.2-7-0.2c-1.5,0-2.9-0.5-4.1-1.3
			c-0.9-0.6-1.8-1-2.9-1.2c-1.2-0.2-2.2-0.8-2.9-1.8c-0.6-0.9-1.4-1.2-2.4-0.8c-1.1,0.4-2.2,0.5-3.4,0.5c-0.5,0-1-0.2-1.3-0.6
			c-0.2-0.3-0.4-0.4-0.7-0.5c-0.3-0.1-0.5-0.2-0.6-0.4C9.1,96,9,95.5,9.3,94.9c0.3-0.6,0.7-1,1.2-1.4c1.3-1,2.7-2.1,4-3.1
			c0.7-0.6,1.3-1.3,1.9-1.9c0.9-1,1.9-2,2.7-3.1c1.1-1.5,2-3,2.9-4.6c1-1.8,2-3.6,3.4-5.1c1.5-1.6,3.2-2.9,4.9-4.3
			c2.2-1.8,4.7-3.3,6.8-5.2c1-0.9,2-2,2.9-3c1.5-1.7,3.2-3.3,5-4.7c1.5-1.1,3-2.3,4.7-3.1c2.2-1.1,4.5-1.9,6.9-2.6
			c2.4-0.6,4.7-1.4,7.1-2c2.3-0.6,4.5-1.2,6.7-2c2.8-0.9,5.5-2.2,8-3.7c1.5-0.9,2.9-2.1,4.3-3.2c1.7-1.4,3.5-2.7,5.5-3.6
			c1.3-0.6,2.7-1,4.1-1.2c0.8-0.1,1.6,0,2.3,0.2c2.7,0.6,5.2,1.7,7.6,3c1.2,0.7,2.5,1.4,3.7,2.2c1.6,1.1,3.2,2.3,4.6,3.7
			c1,1,2,1.9,3,2.9c0.7,0.7,1.3,1.5,2,2.2c1.5,1.8,3.1,3.5,5,5c1.5,1.2,3,2.2,4.8,3c1.5,0.7,3.2,0.9,4.8,1.2c2.2,0.4,4,1.5,5.5,3.1
			c0.9,0.9,1.9,1.2,3.1,1.1c1.5,0,2.8-0.5,4.1-1.1c2-0.9,3.9-1.9,5.7-3.2c1-0.7,2.3-1,3.4-1.5c0.5-0.2,1-0.4,1.5-0.6
			c0.3-0.1,0.4-0.3,0.5-0.5c0.7-1.1,1.3-2.4,2.1-3.4c1.3-1.7,2.4-3.5,4.1-4.9c0.9-0.8,1.6-1.7,2.4-2.4c1.3-1.3,2.8-2.4,4.3-3.5
			c1.1-0.8,2.2-1.7,3.2-2.6c1.3-1.2,2.3-2.7,3.3-4.2c1.3-2,2.8-4,4.4-5.8c1.4-1.5,2.8-3.1,4.4-4.4c1.9-1.5,3.9-2.8,6-3.9
			c1.5-0.8,2.9-1.6,4.5-2.2c1.7-0.7,3.4-1.2,5.2-1.7c2.3-0.6,4.6-1.2,7-1.6c2.1-0.3,4.3-0.8,6.4-1.3c1.2-0.3,2.5-0.5,3.7-0.8
			c1.7-0.4,3.4-0.8,5.1-1.1c2.4-0.4,4.9-1,7.3-1.4c1.6-0.3,3.3-0.5,5-0.7c3.4-0.5,6.8-0.5,10.2-0.4c2.3,0,4.6,0.2,6.9,0.6
			c2.5,0.4,5,0.8,7.5,1.1c2.7,0.3,5.5,0.8,8.2,1.4c1.7,0.4,3.4,0.8,5,1.3c2.6,0.7,5.1,1.5,7.6,2.4c2.3,0.8,4.6,1.7,6.9,2.5
			c2.5,0.8,4.9,1.8,7.4,2.6c1.8,0.6,3.6,1,5.4,1.5c2.1,0.5,4.2,0.9,6.3,1.1c1.8,0.2,3.6,0.5,5.5,0.6c1.7,0.1,3.3,0.3,5,0.5
			c2.8,0.3,5.6,0.8,8.3,1.7c2,0.7,3.9,1.4,5.8,2.4c1.3,0.7,2.6,1.5,3.8,2.3c1.5,1,3.1,1.9,4.5,3c1.3,0.9,2.4,1.9,3.7,2.9
			c0.5,0.4,0.9,0.8,1.4,1.2c1.4,0.9,2.6,2,3.9,3c1.3,0.9,2.7,1.3,4.2,1.5c2,0.3,4.1,0.5,6.1,0.9c1,0.2,2,0.4,3,0.7
			c0.7,0.2,1.4,0.1,2.1,0.1c1.6,0.2,3.1,0.4,4.7,0.5c0.2,0,0.5,0,0.7,0c2.1-0.7,4.3-0.2,6.4,0c3.5,0.3,6.9,1.1,10.3,1.4
			c1.6,0.1,3.3,0.5,4.9,0.7c1.3,0.2,2.5,0.3,3.8,0.4c1.9,0.1,3.8,0.1,5.7,0.2c2.4,0.1,4.8,0.1,7.3,0.2c1.8,0.1,3.6,0.3,5.4,0.3
			c1.5,0.1,3,0.1,4.5,0.3c2.4,0.2,4.9,0.3,7.3,0.4c1.8,0.1,3.7,0.2,5.5,0.3c1.8,0.1,3.5,0.1,5.3,0.3c1.5,0.1,2.9,0.2,4.4,0.3
			c2,0.1,4.1,0.4,6.1,0.5c4.8,0.4,9.5,0.5,14.3,0.4c2.4-0.1,4.8-0.3,7.2-0.4c2.2-0.1,4.4-0.3,6.6-0.4c2.7-0.2,5.3-0.3,8-0.5
			c1.4-0.1,2.9-0.1,4.3-0.2c2.6-0.1,5.2-0.2,7.8-0.3c3.2-0.2,6.5-0.3,9.7-0.1c2.8,0.1,5.6,0.1,8.4,0.4c2,0.2,4.1,0.2,6.1,0.5
			c2.8,0.5,5.6,0.9,8.3,1.8c4,1.3,7.9,3,11.5,5.1c1.7,1,3.4,2,5,3.2c1.6,1.1,3.1,2.4,4.5,3.8c1.5,1.4,2.6,3.1,3.9,4.6
			c0.9,1,1.9,2.1,2.7,3.2c0.9,1.1,1.7,2.3,2.5,3.5c1.1,1.8,1.9,3.7,2.9,5.5c1,2,1.3,4.1,1.2,6.2c-0.1,1.1-0.7,2.1-1.5,2.9
			c-1.3,1.3-2.9,2.2-4.5,3.1c-1.1,0.6-2.1,1.3-3.2,1.9c-1.5,1-3,1.8-4.6,2.7c-1.6,1-3.3,1.9-4.9,2.8c-0.5,0.3-1.1,0.6-1.6,0.8
			c-1,0.4-2,0.9-3,1.5c-2.4,1.5-4.8,3-7.3,4.2c-2.1,1-4.2,2.1-6.3,2.9c-2.7,1.1-5.4,1.9-8.1,3c-3.3,1.3-6.5,2.7-9.6,4.3
			c-2.2,1.2-4.3,2.5-6.4,3.7c-2.2,1.3-4.6,2.3-7.1,3c-2.1,0.6-4.3,1.1-6.4,1.4c-1.6,0.3-3.3,0.3-4.9-0.1c-1.1-0.3-2.3-0.6-3.4-1
			c-1-0.4-1.9-1-2.5-1.9c-0.4-0.5-0.5-1.1-0.3-1.8c0.2-0.8,0.2-1.7,0.2-2.5c0.1-0.9,0-1.8-0.2-2.7c-0.2-0.9,0.2-1.7,0.9-2.3
			c0.9-0.9,2-1.4,3-2c0.8-0.4,1.7-0.8,2.5-1.2c0.4-0.2,0.7-0.3,0.4-1c-0.2-0.4-0.1-0.9,0-1.4C479,108.7,478.9,108,479.3,107.2z
			 M326,38.6c0.7-0.1,1,0.2,1.4,0.4c1.1,0.3,2.2,0.8,3.3,1.4c0.6,0.3,1.2,0.8,1.8,0.9c2.5,0.4,4.9,1.2,7.4,1.7
			c0.8,0.2,1.6,0.4,2.6,0.6c-0.4-0.4-0.7-0.7-1-0.9c-0.5-0.4-1.1-0.7-1.6-1.2c-1.4-1.1-2.7-2.3-4.1-3.3c-2.5-1.8-5-3.5-7.7-5
			c-2.2-1.3-4.6-2.3-7.1-3c-1-0.3-1.9-0.7-2.9-0.8c-2.2-0.4-4.5-0.7-6.7-0.8c-0.9-0.1-1.8-0.1-2.7-0.2c-1.8-0.2-3.7-0.4-5.5-0.6
			c-1.5-0.2-3-0.5-4.6-0.7c-1.3-0.2-2.5-0.6-3.7-0.9c-1.4-0.3-2.7-0.8-4.1-1.2c-2.4-0.7-4.7-1.6-7-2.4c-0.5-0.2-1-0.3-1.5-0.5
			c-1.7-0.7-3.4-1.3-5.1-1.8c-3.2-1-6.4-2-9.6-2.9c-2.9-0.8-5.9-1.4-8.9-1.8c-1.8-0.3-3.7-0.5-5.5-0.8c-1.7-0.3-3.4-0.6-5-0.8
			c-3.1-0.3-6.1-0.5-9.2-0.5c-1.5,0-2.9,0-4.4,0.1c-1.6,0.1-3.2,0.5-4.8,0.7c-2,0.2-4,0.6-6,1c-3.3,0.7-6.6,1.3-9.8,2.1
			c-1.7,0.4-3.3,0.7-5,1.1c-2.4,0.6-4.9,0.9-7.4,1.5c-1.6,0.4-3.2,0.7-4.8,1.2c-1.5,0.5-3.1,1-4.6,1.6c-1.2,0.5-2.3,1.2-3.5,1.8
			c-2.2,1.2-4.4,2.5-6.3,4.2c-1.7,1.5-3,3.2-4.5,4.8c-1.5,1.6-2.6,3.5-3.8,5.3c-0.6,0.8-1,1.7-1.6,2.4c-1.2,1.3-2.5,2.6-4,3.6
			c-2.2,1.6-4.3,3.3-6.3,5.3c-1.8,1.8-3.4,3.6-4.8,5.7c-0.4,0.6-0.7,1.3-1.4,1.8c-0.4,0.3-0.2,0.5,0,0.9c-0.8-0.3-1.3,0-1.9,0.3
			c-0.7,0.4-1.5,0.7-2.2,1c-1.4,0.7-2.9,1.4-4.1,2.4c-1.6,1.5-3.4,2.8-5.4,3.6c-1.3,0.5-2.5,1.1-3.9,1.1c-1.6,0-3-0.2-4.2-1.4
			c-0.7-0.7-1.6-1.2-2.4-1.8c-0.3-0.2-0.6-0.3-0.9-0.4c-0.9-0.3-1.7-0.4-2.6-0.6c-1.7-0.4-3.4-0.4-5-0.9c-1.2-0.4-2.3-0.9-3.3-1.6
			c-0.7-0.5-1.2-1.3-2-1.8c-0.3-0.2-0.6-0.5-0.8-0.7c-1.5-1.7-2.7-3.5-3.6-5.5c-0.3-0.6-0.7-1-1.1-1.5c-1-1-2.1-2-3.2-3
			c-1.1-1-2.2-2-3.4-2.8c-1.5-1-3-2-4.6-2.9c-2.1-1.2-4.2-2.3-6.6-2.8c-0.9-0.2-1.8-0.3-2.7-0.2c-2.2,0.3-4.1,1.3-5.9,2.5
			c-2.1,1.4-4,3.1-6.1,4.6c-1.4,1-2.9,1.8-4.4,2.5c-1.3,0.6-2.5,1.1-3.8,1.6c-1.3,0.5-2.7,1-4.1,1.4c-2.4,0.6-4.7,1.3-7.1,2
			c-1.5,0.4-3,0.8-4.5,1.2c-1.3,0.4-2.6,0.9-3.8,1.4c-1.1,0.4-2.3,0.9-3.3,1.6c-1,0.7-2.1,1.4-3,2.2c-1.5,1.2-2.9,2.4-4,3.9
			c-1.9,2.4-4.1,4.5-6.6,6.2c-2.4,1.7-4.8,3.5-7.1,5.4c-0.7,0.5-1.3,1.1-1.9,1.8c-0.7,1-1.5,2-2.1,3.1c-0.8,1.4-1.5,2.8-2.4,4.1
			c-1.3,2.1-2.9,4-4.6,5.7c-1.3,1.4-2.8,2.5-4.2,3.7c-0.6,0.5-1.3,1.1-1.9,1.6c0.4,0.3,0.7,0.3,1.1,0.3c0.1,0,0.4,0,0.4,0.2
			c-0.1,0.4,0.2,0.3,0.4,0.3c0.9-0.1,1.8-0.3,2.7-0.5c1.5-0.3,2.7,0.1,3.6,1.4c0.2,0.2,0.4,0.5,0.6,0.7c0.4,0.5,0.9,0.8,1.6,0.5
			c0.6-0.2,1.1-0.1,1.5,0.4c0.1,0.1,0.2,0.2,0.3,0.3c1.5,1.4,3.2,2.1,5.3,2.1c3.1,0,6.2,0.1,9.2,0.5c1.7,0.3,3.4,0.7,5,1.3
			c2.2,0.8,4.3,1.9,6.4,3.1c1.8,1,3.7,1.7,5.6,2.1c2,0.5,4.1,0.3,6.2,0c1.8-0.3,3.6-0.7,5.4-0.8c1.3-0.1,2.6-0.3,4-0.5
			c1.5-0.1,3-0.2,4.6-0.2c1,0,2,0.1,3,0.1c0.7,0,1.5,0.2,2.2,0.3c0.9,0.2,1.8,0.5,2.7,0.6c1.7,0.2,3.3,0.8,4.9,1.2
			c1.2,0.4,2.4,0.8,3.6,1.2c0.9,0.3,1.9,0.6,2.8,1c2.7,1.1,5.3,2.5,8,3.5c1.3,0.5,2.7,1.1,4.1,1.2c2.6,0.2,5.2,0,7.7-0.7
			c2.2-0.6,4.4-1.3,6.6-1.9c1-0.3,2.1-0.5,3.1-0.4c1.5,0.1,3,0.3,4.5,0.4c1,0.1,1.9,0.2,2.9,0.3c0.7,0.1,2.3-0.2,2.8-0.4
			c-1.3-0.4-2.6-0.8-3.9-1.1c-1.8-0.5-3.7-0.8-5.5-1.4c-2.8-0.8-5.5-1.8-8.2-2.7c-0.6-0.2-1.1-0.2-1.7-0.1c-1.1,0.3-2.2,0.6-3.3,0.7
			c-2.5,0.4-4.9,0.9-7.3,1.6c-0.4,0.1-0.8,0.2-1.2,0.2c-0.8,0-1.7,0-2.5,0c0,0,0-0.1-0.1-0.2c0.6-0.4,1.3-0.7,1.8-1.2
			c0.2-0.2,0.6-0.4,0.9-0.4c0.9-0.1,1.7-0.4,2.6-0.6c1.5-0.4,3-0.6,4.5-0.9c0.7-0.1,1.5,0,2.3-0.4c-2.3-0.9-4.6-1.8-6.9-2.6
			c-0.8-0.3-1.5-0.7-2.4-0.7c-1,0-2.1,0-3.1,0c-1.5,0.1-3,0.3-4.5,0.6c-2.1,0.3-4.1,0.6-6.2,0.9c-1.1,0.2-2.2,0.5-3.3,0.6
			c-0.8,0-1.6,0-2.4,0.2c-0.1,0-0.3,0-0.2-0.2c0.6-0.2,1.1-0.4,1.7-0.7c0.5-0.3,1-0.4,1.6-0.6c1.7-0.4,3.4-0.6,5.1-0.9
			c1.3-0.2,2.6-0.4,4-0.6c1.3-0.1,2.6-0.4,4-0.6c-2-1-12.8-4.7-14.5-4.8c-0.1,0.8-0.3,1-0.9,0.8c-1.3-0.3-2.5-0.1-3.8,0.1
			c-2.5,0.4-4.9,1-7.4,1.6c-2.8,0.7-5.6,1.3-8.4,1.9c-1.6,0.3-3.1,0.2-4.6,0.2c1-0.3,1.9-0.9,2.9-1c1.2-0.2,2.4-0.4,3.6-0.6
			c3-0.6,5.9-1.4,8.9-2c2.5-0.5,4.9-1.2,7.4-1.2c0.3,0,0.2-0.4,0.6-0.3c1.3,0.3,2.7,0.6,4,0.9c2.6,0.6,5.1,1.5,7.6,2.1
			c1,0.3,2,0.6,3,0.8c2,0.5,4,1.2,6,1.7c0.1,0,0.2,0.1,0.3,0.2c0.3,0.2,0.7,0.3,1.1,0.4c1.5,0.4,3,0.8,4.4,1.4
			c1.6,0.6,3.2,1,4.8,1.4c0.2,0,0.4,0.1,0.5,0.2c0.8,0.5,1.7,0.6,2.5,0.9c1,0.3,2,0.7,3,1c1.1,0.3,2.2,0.7,3.3,0.9
			c0.6,0.1,1.1,0.4,1.7,0.4c1.4,0.1,2.8,0.6,4.1,1.1c1.1,0.4,2.2,0.7,3.3,1c1,0.3,2,0.4,3,0.6c1.1,0.2,2.2,0,3.3,0.3
			c0.4,0.1,0.8-0.2,1.2-0.1c0.9,0.2,1.8,0,2.8,0.1c1,0.1,2.1,0.1,3.1,0.1c0.4,0,0.8,0.3,1.2,0.4c1,0.1,2.1,0.4,3.1,0.4
			c2,0.1,3.9,0.3,5.9,0.3c4.8,0,9.7,0.1,14.5-0.3c2.7-0.2,5.5-0.2,8.2-0.5c2.2-0.2,4.3-0.3,6.5-0.5c0.5,0,1-0.2,1.5-0.2
			c1.7,0,3.4-0.4,5.2-0.6c1.4-0.1,2.7-0.4,4.1-0.6c1.8-0.3,3.7-0.5,5.5-0.8c1.3-0.2,2.5-0.5,3.8-0.6c2.5-0.3,5-0.8,7.4-1.3
			c2.6-0.5,5.2-0.9,7.8-1.5c2.3-0.5,4.6-0.8,7-1c3-0.3,5.9-0.7,8.9-1c3.2-0.3,6.4-0.7,9.7-0.8c0.2,0,0.4,0,0.6,0
			c1.1-0.2,2.2-0.2,3.3-0.3c0.9-0.1,1.9-0.2,2.9-0.3c2-0.2,4.1-0.4,6.1-0.7c1.8-0.3,3.6-0.4,5.4-0.6c1.5-0.2,2.9-0.4,4.4-0.4
			c1.7-0.1,3.5-0.2,5.2-0.1c1.8,0.1,3.5,0.3,5.3,0.5c1.7,0.2,3.4,0.6,5.1,0.8c1.5,0.1,3,0.5,4.6,0.6c1.3,0.1,2.5,0.5,3.7,0.6
			c1.1,0.1,2.1,0.5,3.2,0.5c0.8,0,1.5,0.3,2.3,0.3c2.1,0.2,4.1,0.5,6.2,0.7c0.8,0.1,1.7,0.1,2.5,0.3c0.8,0.2,1.6,0.3,2.5,0.4
			c0.7,0,1.5,0.1,2.2,0.2c1.3,0.1,2.6,0.4,3.9,0.4c1.5,0.1,3,0.2,4.5,0.5c2.3,0.4,4.5,1.1,6.9,1.3c2.3,0.2,4.5,0.6,6.8,0.5
			c1.1-0.1,2.3,0,3.4,0c1.1,0,2.2-0.1,3.2-0.2c1.5-0.2,3.1-0.4,4.6-0.1c0.9,0.2,1.8,0.6,2.7,0.7c0.5,0.1,1.1,0,1.6,0.1
			c1.6,0.4,3.2,0.5,4.8,0.8c1.8,0.4,3.7,0.7,5.5,0.9c0.8,0.1,1.7,0,2.5,0.3c4.2,1.3,8.6,2.2,12.7,3.9c0.2,0.1,0.5,0.2,0.7,0.2
			c1.1,0.2,2.2,0.5,3.3,0.7c1.2,0.2,2.5,0.6,3.8,0.6c1.9,0.1,3.9,0.5,5.8,0.2c0.1,0,0.2,0,0.3,0c0.8,0.2,1.6-0.2,2.4,0.1
			c1.4-0.4,2.8-0.1,4.3-0.2c1.5-0.1,3-0.3,4.5-0.4c1.2-0.1,2.4-0.3,3.6-0.5c1.4-0.2,2.8-0.4,4.1-0.7c3.9-0.9,7.8-2.2,11.7-3.3
			c3.6-1,7.2-1.8,10.8-2.5c3.1-0.7,6.1-1.2,9.2-1.7c2-0.3,4-0.5,6-0.8c2.2-0.3,4.4-0.3,6.6-0.6c2-0.2,4.1-0.3,6.2-0.3
			c2,0,3.9-0.2,5.9-0.2c3.8,0.1,7.5-0.1,11.3,0.2c1.4,0.1,2.9,0.1,4.2,0.6c0.4,0.1,0.6-0.1,0.8-0.3c1-0.9,2-1.8,3.1-2.7
			c0.9-0.8,1.9-1,3.1-1.1c-0.1,0.3-0.3,0.5-0.4,0.7c-1.1,0.9-2.2,1.9-3.2,2.8c-0.9,0.8-1.8,1.5-2.2,2.6c-0.2,0.4-0.4,0.9-0.2,1.5
			c1-0.6,1.9-1.2,2.8-1.7c1.7-1,3.4-1.9,5.1-2.9c1.3-0.7,2.6-1.4,3.9-2c1.6-0.8,3.2-1.4,4.8-2.2c1.1-0.5,2.3-1,3.5-1.2
			c0.8-0.1,1.6-0.2,2.3-0.5c0.2-0.1,0.4-0.2,0.8,0.1c-1.3,0.4-2.2,1.2-3.2,1.8c-0.4,0.2-0.8,0.5-1.2,0.7c-1.5,0.8-3.1,1.2-4.6,1.9
			c-1.8,0.8-3.7,1.6-5.5,2.6c-1.9,1-3.7,2.1-5.6,3.1c-0.1,0.1-0.2,0.1-0.3,0.2c-0.1,0.1-0.3,0.1-0.2,0.4c2.9-1.3,5.8-2.9,9.1-3.1
			c-0.8,0.3-1.3,0.9-2,1.3c-0.4,0.2-0.8,0.5-1.2,0.7c-1.2,0.6-2.4,1.1-3.7,1.6c-3,1.1-5.8,2.6-8.7,4.1c-0.9,0.5-1.8,1-2.5,1.9
			c-0.6,0.6-0.8,1.4-0.7,2.3c0.3-0.3,0.6-0.3,0.9-0.3c0.6-0.1,0.9,0.2,0.8,0.8c-0.1,0.3-0.2,0.6-0.4,0.9c-0.3,0.4-0.7,0.8-0.9,1.3
			c-0.4,1.3-0.1,2.5,1.4,3.1c0.6,0.2,1.3,0.4,1.9,0.6c1.7,0.6,3.5,0.6,5.2,0.5c2.2-0.2,4.3-0.7,6.4-1.3c2-0.5,4-1.3,5.8-2.2
			c2.5-1.4,5-2.8,7.6-4.2c2.2-1.2,4.5-2.3,6.9-3.3c2.2-0.9,4.4-1.7,6.6-2.5c3.5-1.2,6.9-2.7,10.3-4.3c1.4-0.7,2.8-1.4,4.1-2.3
			c1.2-0.8,2.5-1.5,3.7-2.3c1-0.6,2.3-0.9,2.9-2c0.1-0.2,0.4-0.2,0.5-0.3c2.5-1.4,5-2.8,7.4-4.3c1.1-0.7,2.1-1.4,3.2-2
			c1.3-0.8,2.6-1.4,3.9-2.2c0.9-0.5,1.8-1,2.5-1.8c0.3-0.4,0.8-0.8,0.8-1.4c0.1-1.5-0.2-2.9-0.6-4.3c-0.5-1.3-1.2-2.4-1.8-3.7
			c-0.8-1.7-1.8-3.3-2.9-4.8c-1.1-1.5-2.3-2.9-3.5-4.3c-0.8-1-1.6-2-2.4-3c-1.9-2.1-4-3.8-6.4-5.4c-1.1-0.8-2.3-1.5-3.5-2.2
			c-1.9-1.1-3.9-2.1-6-3c-1.5-0.7-3.1-1.3-4.7-1.8c-1.8-0.6-3.7-1.2-5.7-1.5c-2.1-0.3-4.2-0.7-6.4-0.8c-1.4-0.1-2.9-0.1-4.3-0.3
			c-2.6-0.3-5.1-0.4-7.7-0.4c-2.2-0.1-4.5-0.1-6.7,0.1c-1.7,0.2-3.4,0.1-5,0.2c-2.5,0.1-5,0.3-7.5,0.4c-2.3,0.1-4.7,0.2-7,0.4
			c-2.5,0.2-5,0.3-7.5,0.5c-2.4,0.2-4.8,0.3-7.2,0.4c-3.8,0.1-7.7,0.2-11.5-0.1c-2.6-0.2-5.3-0.3-7.9-0.6c-2.5-0.2-5-0.4-7.5-0.6
			c-2.7-0.1-5.4-0.3-8.1-0.4c-1.7-0.1-3.5-0.2-5.2-0.3c-2.5-0.1-5-0.4-7.4-0.5c-1.5-0.1-3-0.1-4.5-0.2c-2-0.1-4.1-0.3-6.1-0.4
			c-2.1-0.1-4.2-0.2-6.3-0.2c-0.6,0-1.2,0.1-1.8,0c-2.2-0.3-4.5-0.3-6.7-1.1c-1.1-0.4-2.4-0.5-3.6-0.7c-1-0.2-2.1-0.2-3.1-0.4
			c-2.7-0.6-5.4-0.7-8-0.8c-2.1-0.1-4.2-0.3-6.2-0.5c-2.7-0.3-5.4-0.5-8.2-0.8c-2.3-0.3-4.6-0.5-6.8-1.3c-2.3-0.8-4.7-0.9-7-1.4
			c-1.7-0.4-3.5-0.5-5.2-0.9c-2.3-0.5-4.7-0.9-7-1.2c-1.4-0.2-2.7-0.6-4-1.1c-1.1-0.4-2.3-0.7-3.5-1c-0.4-0.1-0.8-0.2-1.2-0.4
			c2.2-0.5,4.3,0.1,6.4,0C327.7,39.5,326.8,39.2,326,38.6z"/>
		<path d="M194.2,49c1.8-0.9,3.7-0.9,5.6-1.5c-3-0.7-5.8-1.6-8.6-2.9c-0.8-0.4-1.7-0.7-2.4-1.3c-0.6-0.6-1.3-1.2-2-1.8
			c0.7-0.1,1.6,0.1,2.4,0.5c2,0.9,4,1.8,6,2.7c1.8,0.8,3.6,1.5,5.5,2c0.3,0.1,0.6,0.1,0.8,0.4c0,0.1,0.1,0.1,0.2,0.1
			c1.2-0.2,2.4-0.4,3.6-0.8c-1-0.2-1.9-0.4-2.7-1c0-0.1,0-0.1,0.1-0.2c0.9,0.2,1.7,0.5,2.6,0.6c1.2,0.2,2.3,0.4,3.5,0.1
			c1.3-0.3,2.6-0.3,3.9-0.5c2.2-0.4,4.5-0.4,6.7-0.7c0.4-0.1,0.9-0.1,1.3-0.1c0.3,0,0.6-0.1,0.9-0.2c0-0.2-0.2-0.2-0.3-0.3
			c-1.6-0.6-3-1.6-4.3-2.7c-1.9-1.5-3.7-3-5.7-4.4c-1.4-1-3-1.8-4.5-2.6c-1.1-0.6-2.1-1.1-3.3-1.4c0,0-0.1-0.1-0.1-0.2
			c0.3-0.1,0.6,0,0.9,0.1c0.9,0.3,1.8,0.4,2.7,0.5c1.2,0.2,2.3,0.6,3.3,1.1c1.7,0.9,3.2,2.2,4.7,3.4c1.7,1.4,3.3,2.9,5.2,4.1
			c1.3,0.8,2.6,1.6,4.1,2.1c0.3,0.1,0.5,0.1,0.8,0.1c2.2-0.2,4.5-0.3,6.7-0.6c0.8-0.1,1.5-0.1,2.3-0.2c0-0.3-0.2-0.3-0.4-0.3
			c-2.3-0.6-4.4-1.5-6.4-2.7c-1.8-1-3.4-2.3-5.2-3.3c-0.8-0.4-1.6-0.8-2.4-1.2c-0.2-0.1-0.5-0.1-0.4-0.4c0.1-0.2,0.3-0.3,0.6-0.2
			c0.3,0,0.6,0,0.9,0.2c1.3,0.7,2.6,1.3,3.8,2.1c2.9,2.1,6,3.7,9.4,4.5c1.2,0.3,2.3,0.6,3.5,0.8c0.7,0.2,1.3-0.1,1.9-0.2
			c1.4-0.1,2.8-0.4,4.1-0.6c0.2,0,0.4-0.1,0.5-0.2c0-0.2-0.1-0.3-0.3-0.3c-1.8-0.9-3.3-2.3-4.9-3.6c-1.4-1.1-3-2.1-4.6-3
			c-1.7-1-3.5-1.9-5.3-2.6c-2-0.7-3.9-1.7-5.8-2.6c-0.6-0.3-1.3-0.5-1.9-0.7c-0.2,0-0.4,0-0.5-0.3c0.1-0.3,0.3-0.1,0.5-0.1
			c1.4,0.5,3,0.6,4.5,0.9c1.6,0.3,3.2,0.8,4.7,1.5c1.5,0.7,2.9,1.5,4.4,2.2c3.1,1.6,5.7,3.7,8.2,5.9c0.8,0.7,1.6,1.4,2.4,2.1
			c0.2,0.2,0.4,0.2,0.7,0.2c1-0.2,2-0.4,3.1-0.6c-4.3-2.6-5.2-3.3-5.4-4.8c0.7,0.1,1.2,0.4,1.7,0.9c1.4,1.4,3.1,2.4,4.7,3.5
			c0.3,0.2,0.7,0.1,1,0c1.7-0.5,3.5-0.7,5.3-1.1c-0.4-0.4-1-0.5-1.5-0.7c-1.7-0.8-3.2-1.9-4.7-3c-1-0.7-2-1.4-2.8-2.3
			c-0.9-0.9-1.7-1.8-2.5-2.8c-1-1.2-1.3-2.6-1.5-4.2c0.4,0.4,0.8,0.9,1.2,1.3c0.4,0.5,0.7,1.1,1.1,1.6c2.4,3.3,5.3,6,8.9,7.9
			c1.3,0.7,2.7,1.2,4,1.7c0.3,0.1,0.7,0,1,0c1.5-0.3,3-0.5,4.5-0.5c1.8,0,3.7-0.1,5.5-0.3c0.5-0.1,1.1,0,1.6,0c0.5,0,0.9,0,1.4-0.1
			c-0.1-0.2-0.2-0.3-0.4-0.3c-1.5-0.2-2.9-0.9-4.3-1.3c-1.5-0.5-3-1.4-4.4-2.2c-0.4-0.2-0.7-0.5-1.1-0.6c-1.7-0.7-3.2-1.9-4.9-2.7
			c-0.1-0.1-0.2-0.1-0.2-0.3c1.6,0.2,3.3,0.3,4.8,1c1.7,0.9,3.4,1.9,5.1,2.7c2,1,4,2,6.1,3c0.2,0.1,0.5,0.1,0.5,0.3
			c0,0.7,0.5,0.6,0.9,0.5c3.8-0.2,7.6-0.2,11.4-0.2c1,0,2,0.1,3,0c0-0.3-0.3-0.3-0.4-0.4c-1.2-0.9-2.5-1.9-3.7-2.8
			c-1.3-0.9-2.7-1.7-4.1-2.3c-1.8-0.8-3.7-1.5-5.6-2.1c-1.9-0.6-3.7-1.1-5.5-2c-0.6-0.3-1.3-0.4-2-0.5c-0.3-0.1-0.6-0.2-0.9-0.3
			c0.1-0.3,0.3-0.2,0.5-0.2c1.7,0.5,3.5,0.7,5.3,1c0.9,0.1,1.9,0.4,2.8,0.7c2.1,0.6,4.1,1.4,6.1,2.3c1.8,0.8,3.6,1.7,5.1,3.1
			c1.4,1.3,2.9,2.3,4.5,3.3c0.4,0.2,0.8,0.4,1.2,0.4c1.5,0,3,0.1,4.6,0.3c0.1,0,0.1,0,0.2-0.1c-0.1-0.3-0.4-0.4-0.6-0.5
			c-0.9-0.4-1.8-0.7-2.8-1c-0.9-0.3-1.5-0.9-2.2-1.4c1.1-0.2,2,0.2,3,0.5c2,0.8,4.1,1.6,6.1,2.4c0.6,0.2,1.2,0.4,1.7,0.6
			c0.2,0.1,0.4,0.1,0.3,0.4c0,0.2-0.2,0.3-0.4,0.3c-1.7,0-3.4,0.3-5.1,0.2c-1.3-0.1-2.7,0-4-0.1c-1.2-0.1-2.4-0.1-3.6-0.3
			c-1-0.2-2.1-0.1-3.2-0.1c-3.2,0-6.4-0.1-9.5,0.1c-2.4,0.1-4.8,0.1-7.2,0.2c-1.3,0-2.7,0.2-4,0.2c-0.9,0-1.7,0.2-2.6,0.4
			c-1.9,0.3-3.7,0.6-5.6,0.9c-1.6,0.3-3.3,0.6-4.9,1c-3.1,0.7-6.2,1.4-9.4,1.8c-3.1,0.5-6.3,0.9-9.4,1.2c-1.7,0.2-3.4,0.3-5.1,0.5
			c-2.6,0.2-5.3,0.4-7.9,0.7c-1.8,0.2-3.5,0.4-5.3,0.5c-1.2,0-2.4,0.3-3.6,0.4c-1.3,0.1-2.6,0.3-3.9,0.5c-1.9,0.2-3.9,0.5-5.8,0.8
			c-1.6,0.3-3.2,0.6-4.9,0.9c-0.1,0-0.1,0-0.2,0C196.1,48.9,195.2,48.6,194.2,49z"/>
		<path d="M128.7,73c-0.7-0.1-1.3-0.2-1.9-0.3c-2.9-0.5-5.4-1.7-8.1-2.8c-2.7-1.2-5.3-2.8-8.1-4c-2.2-1-4.4-1.9-6.7-2.7
			c-2-0.6-4-1.2-6.1-1.7c-0.5-0.1-1-0.3-1.4-0.6c0.9,0.1,1.7,0,2.6,0.1c1.6,0.2,3.2,0.3,4.8,0.7c0.8,0.2,1.6,0.4,2.4,0.7
			c2.5,1,5.1,2,7.5,3.3c1.2,0.6,2.3,1.3,3.4,1.9c0.9,0.5,1.9,1,2.8,1.4c1.6,0.7,3.3,1.4,4.9,2c1.6,0.6,3.2,0.9,4.9,0.9
			c1,0,1.9-0.1,2.9,0.1c0.3,0.1,0.5,0,0.7-0.2c0.8-0.4,1.7-0.7,2.5-0.7c1,0,1.9-0.3,2.8-0.6c0.9-0.3,1.7-0.6,2.5-0.9
			c0.4-0.1,0.4-0.7,1-0.8c0.4,0,0.9-0.2,1.3-0.4c0.4-0.2,0.8-0.2,1.2-0.4c0.4-0.2,0.8-0.4,1.2-0.6c0.4-0.3,0.8-0.4,1.2-0.6
			c2.3-1.1,4.7-2.1,6.9-3.4c0.3-0.2,0.7-0.3,1.2-0.4c-0.4,0.5-1.3,1.1-1.8,1.3c-1.8,0.8-3.7,1.7-5.5,2.6c-0.1,0.1-0.3,0.1-0.4,0.2
			c-0.7,1-1.8,1.3-2.8,1.8c-1.3,0.6-2.5,1.3-3.8,1.8c-2.4,0.9-4.7,1.8-7.1,2.8c-1.5,0.6-3.1,1-4.6,1.6c-1.3,0.5-2.6,1.1-4.1,1.3
			c-1.1,0.2-2.2,0.3-3.4,0.5c-1.3,0.2-2.5,0.5-3.8,0.5c-1.6,0-3.2,0.3-4.8,0.3c-0.9,0-1.8,0.2-2.7,0.1c-1-0.1-2,0.1-2.9,0
			c-0.6-0.1-1.3-0.1-2-0.1c-1,0.1-2.1,0-3-0.1c-1.8-0.2-3.5,0.1-5.3-0.2c-0.6-0.1-1.3,0-1.9,0c-1,0-1.9-0.1-2.9-0.2
			c-0.9-0.1-1.7-0.2-2.6-0.3c-1.1-0.2-2.2-0.3-3.3-0.4c-1-0.1-2.1-0.3-3.1-0.4c-1.1-0.1-2.2-0.1-3.2-0.2c-0.1,0-0.2,0-0.3,0
			c-2.1-0.4-4.2-0.2-6.4-0.3c-1.7,0-3.4,0-5.1,0c-1,0-2,0.1-2.9,0.1c-1.1,0-2.2,0.2-3.2,0.2c-0.4,0-0.7,0-1.1,0.1
			c-0.9,0.2-1.8,0.3-2.8,0.3c-0.2,0-0.4,0-0.6,0.1c-1.6,0.4-3.2,0.8-4.8,1.1c-1.8,0.3-3.5,0.9-5.2,1.2c-1,0.1-1.9,0.4-2.9,0.7
			c-0.2,0.1-0.4,0.1-0.7,0c4.3-1.3,8.5-2.6,12.9-3.5c-1.5-0.5-2.9-1-4.4-1.3c-2.2-0.4-4.5-0.6-6.7-0.7c-1.2-0.1-2.3-0.4-3.5-0.4
			c-0.5,0-1,0-1.4,0c-0.1-0.2,0-0.3,0.1-0.3c1.6-0.1,3.3-0.3,4.9-0.5c0.9-0.1,1.8,0.1,2.7,0.2c1.7,0.1,3.5,0.4,5.2,0.8
			c1.5,0.4,2.9,0.8,4.3,1.4c1,0.4,2,0.4,3,0.3c2.4-0.4,4.8-0.8,7.2-1c1.8-0.2,3.6-0.3,5.5-0.3c1.2,0,2.4-0.2,3.7-0.2
			c-0.9-0.6-1.8-1.1-2.7-1.6c-0.7-0.4-1.3-0.7-2-1.1c-2.8-1.5-5.7-2.7-8.7-3.6c-0.9-0.3-1.8-0.5-2.8-0.8c-0.4-0.1-0.8-0.3-1.2-0.5
			c-0.4-0.2-0.8-0.1-1.2-0.4c0.3-0.3,0.5,0,0.8,0c2.6,0,5.1,0.7,7.6,1.7c2.8,1.2,5.5,2.5,8.1,4c1.1,0.7,2.2,1.2,3.3,1.9
			c0.7,0.4,1.5,0.6,2.4,0.6c1.3,0,2.5,0.1,3.8,0.2c0.6,0.1,1.3,0.1,2,0.1c1.6,0.1,3.2,0.4,4.8,0.5c2.5,0.2,4.9,0.6,7.4,0.8
			c1.4,0.1,2.8,0.3,4.2,0.4c0.4,0,0.9,0.1,1.4-0.1c-0.3-0.4-0.7-0.4-1-0.6c-2.4-1.3-4.4-3.1-6.4-4.8c-2.7-2.3-5.6-4.2-8.7-5.8
			c-2-1-4.2-1.8-6.3-2.4c-0.9-0.3-1.7-0.9-2.6-1.2c-0.5-0.1-1-0.3-1.5-0.5c0-0.3,0.2-0.2,0.3-0.2c2.2,0.6,4.6,0.7,6.8,1.5
			c3.7,1.5,7.2,3.2,10.4,5.7c1.8,1.4,3.4,2.9,5.2,4.3c2.2,1.8,4.6,3.2,7.4,3.8c2.3,0.5,4.6,0.4,6.8,0.2c1.4-0.2,2.9-0.4,4.3-0.6
			c2.7-0.4,5.4-0.9,8-1.7C127.8,73.4,128.3,73.5,128.7,73z"/>
		<path d="M36.5,91.6c-0.9-0.1-1.8,0.2-2.7,0.3c-3.1,0.7-6.2,1.4-9.1,2.6c-0.4,0.1-0.8,0.2-1.2,0.3c-0.2,0.1-0.4,0-0.5-0.3
			c-0.1-0.2,0-0.4,0.2-0.5c0.5-0.3,1-0.6,1.6-0.8c2.9-1.1,5.9-1.8,8.9-2.4c2.8-0.6,5.6-1,8.4-1.3c2.4-0.3,4.9-0.3,7.4-0.1
			c1,0.1,2,0.1,3.1,0.2c2.5,0.2,4.9,0.5,7.4,0.9c2.2,0.4,4.4,0.7,6.6,1.2c1.5,0.3,3.1,0.8,4.6,1.3c0,0,0.1,0.1,0.2,0.2
			c-0.3,0.2-0.7,0-1,0c-2-0.4-4-0.8-6-1c-0.7-0.1-1.4-0.4-2.1-0.4c-1.2,0-2.4-0.3-3.7-0.3c-0.2,0-0.5-0.1-0.5,0
			c-0.4,0.7-1.1,0.5-1.7,0.6c-2.5,0.7-4.8,1.6-7.2,2.5c-2.6,1-5.2,1.9-7.9,2.7c-0.8,0.2-1.5,0.5-2.3,0.7c-0.9,0.2-1.8,0.2-2.8,0.2
			c-0.1-0.2,0-0.3,0.2-0.3c0.1,0,0.3,0,0.4-0.1c1.5-0.9,3.2-1.3,4.9-1.8c2.8-0.8,5.6-1.8,8.3-2.9c1.8-0.7,3.6-1.4,5.6-2
			C54.8,91,54.2,91,53.7,91c-3.1-0.3-6.3-0.5-9.4-0.4c-1.8,0.1-3.6,0.1-5.4,0.5c-0.3,0.1-0.5,0-0.5,0.4c0,0.2-0.3,0.3-0.6,0.4
			c-1.2,0.4-2.4,0.8-3.6,1.4c-1.5,0.7-3,1.2-4.6,1.6c-0.1,0-0.2,0-0.4,0c1.1-0.9,2.3-1.5,3.5-1.9C34,92.4,35.2,92,36.5,91.6z"/>
		<path d="M454.3,87.6c-1.9,0.1-3.6-0.3-5.2-1.1c-1.5-0.7-2.6-2.3-1.9-4.2c0.8-2.1,2.1-3.7,4-4.8c1-0.6,2.1-1,3.1-1.5
			c0.6-0.3,1.5-0.3,2.1-0.6c2.3-1,4.4-0.2,6.3,0.8c1.2,0.5,1.8,1.8,2,3.1c0.2,1.6-0.3,3-1.4,4.3c-1.6,1.9-3.6,3.1-6,3.7
			C456.3,87.4,455.2,87.7,454.3,87.6z M453.9,85.7c0.8-0.1,1.8-0.2,2.7-0.4c2.2-0.5,3.8-1.7,5-3.6c0.7-1.2,0.6-3-1.3-3.5
			c-0.8-0.2-1.5-0.4-2.3-0.4c-0.7,0-1.2-0.2-1.5-0.8c-0.1-0.2-0.2-0.3-0.5-0.2c-1.4,0.5-2.8,0.9-4,1.7c-1.4,1-2.6,2.1-3.3,3.7
			c-0.6,1.5,0.1,2.4,1.3,2.8C451.2,85.4,452.5,85.6,453.9,85.7z"/>
		<path d="M514,100.1c-0.3,0.3-0.5,0.7-0.8,1c-0.8,0.9-1.7,1.5-2.8,2c-1.7,0.7-3.4,1.5-5,2.4c-2.2,1.1-4.3,2.3-6.6,3.2
			c-2.2,0.9-4.3,1.9-6.5,2.9c-2.1,1-4.2,2.1-6.2,3.1c-1.4,0.7-2.8,1.4-4.2,2c-0.2,0.1-0.4,0.1-0.5,0.2c-0.9,0.8-2,1.1-3,1.6
			c-0.2,0.1-0.4,0.2-0.6,0.2c-0.4,0-0.7-0.2-0.8-0.6c-0.1-0.4,0-0.7,0.3-1c0.4-0.3,0.8-0.5,1.2-0.7c2.5-0.7,4.7-2,7-3.2
			c3.4-1.7,6.7-3.6,10.2-5.1c1.3-0.6,2.6-1.3,3.9-2c3.1-1.6,6.1-3.1,9.2-4.7c0.8-0.4,1.6-0.7,2.4-1.1c0.5-0.2,1-0.1,1.5-0.2
			C513,100.2,513.5,100.1,514,100.1z"/>
		<path d="M182.3,50.5c-4-1.5-8.2-2-12.1-3.5c0-0.1,0.1-0.1,0.2-0.2c2.3-0.1,4.5,0.1,6.7,0.7c1.3,0.4,2.7,0.8,4,1.2
			c0.9,0.3,1.8,0.6,2.6,1c0.5,0.2,1.1,0.2,1.5,0.2c0.9-0.1,1.7,0,2.6-0.1c0.2,0,0.4-0.2,0.6-0.1c-0.1,0.4-0.5,0.3-0.8,0.4
			c-3.2,0.9-6.4,1.7-9.6,2.6c-0.8,0.2-1.6,0.6-2.4,0.8c-0.4,0.1-1,0.1-1.1,0.8c0,0.2-0.3,0.2-0.5,0.2c-1-0.2-1.8,0.3-2.6,0.7
			c-2.1,0.9-4.2,2.1-6.1,3.3c-0.7,0.4-1.4,0.7-2.1,1.1c-0.1,0.1-0.4,0.1-0.4,0.2c-0.1,0.8-0.6,0.6-1.1,0.5c-0.6-0.2-1,0.2-1.4,0.4
			c-1.3,0.9-2.9,1.4-4.4,2.1c0.9-1.6,2.6-1.9,4.1-2.6c-0.8-0.3-1.6-0.4-2.3-1c0.5-0.3,1-0.3,1.6-0.3c0.6,0,1.2,0.1,1.7,0.2
			c0.5,0.1,0.8,0,1.2-0.2c1.6-0.8,3.1-1.6,4.5-2.5c1-0.6,2-1,3-1.6c0.2-0.1,0.5-0.2,0.8-0.5c-3-0.5-6,0-9-1c0.7-0.2,1.3-0.3,2-0.4
			c0.7-0.1,1.3-0.2,2-0.2c2.4,0,4.7,0.2,7,0.6c0.8,0.1,1.4-0.3,2.1-0.5c1.9-0.6,3.7-1.3,5.7-1.7C181.2,50.8,181.7,50.5,182.3,50.5z"
			/>
		<path d="M518.8,101.2c0.8-0.9,1.6-1.7,2.8-2.1c2.2-0.9,4.4-1.8,6.6-2.6c2.7-1,5.3-2.2,8-3.3c1.3-0.5,2.6-1,3.9-1.5
			c0.7-0.2,1.3-0.5,2-0.8c0.7-0.3,1.1-0.2,1.3,0.2c0.2,0.4,0,0.7-0.7,1.1c-0.2,0.1-0.4,0.2-0.7,0.3c-3.7,1.3-7.3,2.9-10.9,4.3
			c-2,0.8-4,1.8-6.1,2.6c-1.4,0.6-2.8,1.3-4.2,1.6C520.1,101.1,519.4,100.9,518.8,101.2z"/>
		<path d="M466.7,80.6c0.6,0.5,0.5,1.1,0.5,1.6c-0.1,0.7-0.2,1.4-0.7,1.9c-1.3,1.4-2.4,2.9-4,4c-1,0.8-2.1,1.3-3.3,1.7
			c-2.2,0.8-4.6,1.2-6.9,1.4c-1.6,0.2-3.2,0.1-4.8,0.1c-1,0-2-0.3-2.9-0.9c-0.3-0.2-0.6-0.4-0.7-0.7c-0.2-0.3-0.5-0.7-0.2-0.9
			c0.3-0.3,0.6,0.1,0.8,0.3c1.3,1,2.8,1.2,4.3,1.3c1.4,0,2.9,0.1,4.3-0.1c3-0.4,6-1,8.7-2.6c0.8-0.4,1.5-1,2.1-1.7
			c0.7-0.8,1.4-1.6,2.1-2.4C466.5,82.9,466.9,81.9,466.7,80.6z"/>
		<path d="M298.2,32.8c1.4,0.4,2.9,0.1,4.4,0.4c1.6,0.4,3.2,0.9,4.8,1.3c0.8,0.2,1.5,0.6,2.2,0.9c1.2,0.5,2.3,1.1,3.5,1.6
			c0.8,0.3,1.4,0.9,2.1,1.3c0.1,0.1,0.2,0.2,0.3,0.3c0.1,0.2,0.2,0.4,0.1,0.6c-0.1,0.2-0.4,0.2-0.6,0.1c-0.2-0.1-0.5-0.2-0.7-0.4
			c-1.8-1-3.7-1.8-5.7-2.6c-2.5-0.9-5-1.5-7.5-2.3c-1-0.3-1.9-0.6-2.9-1C298.2,33.1,298.2,33,298.2,32.8z"/>
		<path d="M400.5,94c0.2,0,0.3,0,0.5,0c0.6,0.1,0.9,0.5,0.6,1.1c-0.1,0.2-0.2,0.4,0,0.7c0.7,1.4,0.1,2.3-1,2.9
			c-1,0.5-2.1,0.7-3.2,0.1c-0.7-0.4-1.1-1.1-0.9-1.8c0.2-0.8,0.5-1.5,1.3-1.9c0.7-0.3,1.3-0.8,2-0.9C400.1,94,400.3,94,400.5,94z"/>
		<path d="M364.2,98.2c-0.9,0.2-1.5-0.5-2-1.1c-0.2-0.3-0.2-0.6-0.1-1c0.2-0.9,0.8-1.4,1.6-1.7c0.8-0.4,1.7-0.7,2.7-0.8
			c0.7-0.1,1.1,0.2,1,0.9c0,0.3,0,0.4,0.2,0.6c0.6,0.7,0.4,2-0.5,2.4C366.1,98,365.2,98.2,364.2,98.2z"/>
		<path d="M421.8,95.4c-0.5-0.2-1.1-0.2-1.5-0.6c-0.5-0.4-0.7-0.9-0.5-1.6c0-0.1,0.1-0.2,0.1-0.4c0.1-1,0.4-1.6,1.5-1.8
			c0.1,0,0.2-0.1,0.3-0.2c1.3-0.7,3.3,0.2,3.5,1.7c0.1,0.9-0.5,1.5-1.1,2C423.4,95.1,422.6,95.2,421.8,95.4z"/>
		<path d="M380,99.4c-0.9,0-1.4-0.4-1.7-1.2c-0.3-0.7-0.3-1.3,0.3-1.9c1.3-1.3,2.8-1.7,4.6-1.5c0.6,0.1,0.8,0.5,0.5,1
			c-0.1,0.2-0.1,0.4-0.1,0.6c0.1,0.7-0.2,1.3-0.7,1.7C382,98.8,381.1,99.3,380,99.4z"/>
		<path d="M322.5,91.2c-1.1,0.1-1.7-0.8-1.6-1.9c0-0.2,0-0.3,0.1-0.4c0.9-0.9,1.7-2.1,3.3-2c1.3,0,2.1,1.6,1.4,2.7
			C325,90.4,324.1,91.1,322.5,91.2z"/>
		<path d="M306.7,84.1c0.8,0.1,1.3,0.4,1.8,0.9c0.3,0.3,0.3,0.8,0.1,1.1c-1,1.8-3.1,2.1-4.7,1.4c-1-0.5-1-1.4-0.1-2
			c0.7-0.4,1.2-1,2-1.2C306.1,84.2,306.5,84.2,306.7,84.1z"/>
		<path d="M496,58.1c-0.8,0.1-1.4,0.6-2.1,0.7c-0.9,0.2-1.7,0.6-2.5,0.9c-0.4,0.2-0.8,0.4-1.2,0c-0.1-0.1-0.3-0.1-0.4,0
			c-0.2,0.1-0.5,0.1-0.7,0.1c-0.6-0.1-1.1-0.5-1.2-1c0-0.6,0.4-1,1.1-1.1c1.9-0.3,3.9-0.3,5.9-0.3C495.3,57.4,495.8,57.5,496,58.1z"
			/>
		<path d="M345,90.8c0.3,0,0.6-0.1,0.9,0.1c0.4,0.2,1,0,1.2,0.6c0.2,0.9-0.1,1.7-0.8,2.1c-0.8,0.5-1.6,0.7-2.5,0.7
			c-0.8,0-1.3-0.4-1.7-1c-0.4-0.6-0.1-1.4,0.6-1.9C343.3,91.1,344.2,90.8,345,90.8z"/>
		<path d="M31.7,85.9c4-2.3,7.8-4.4,12.2-5c0,0.1,0,0.2,0,0.2c-1.4,0.6-2.6,1.6-4.2,2.1c-1,0.3-1.9,0.5-2.8,0.9
			c-0.8,0.3-1.5,0.6-2.4,0.8c-0.6,0.1-1.1,0.6-1.7,0.8C32.5,85.7,32.3,85.9,31.7,85.9z"/>
		<path d="M465.7,86.4c0.7-0.6,1.3-1.3,2-1.9c0.2-0.2,0.4-0.2,0.6,0c0.1,0.1,0.1,0.4,0,0.5c-0.2,0.4-0.5,0.5-0.8,0.8
			C467,86.2,466.4,86.4,465.7,86.4z"/>
		<path d="M204.2,44.5c0,0.2-0.1,0.2-0.2,0.2c-0.3,0-0.5-0.1-0.5-0.4c0-0.1,0.1-0.2,0.3-0.1C204,44.2,204.2,44.2,204.2,44.5z"/>
		<path d="M454.7,82.9c-0.3,0-0.7,0-1,0c-0.8,0-1.5-0.4-2.1-0.9c-0.4-0.4-0.6-1.1-0.2-1.6c0.7-1,1.6-1.7,2.8-2
			c1.3-0.3,2.4-0.1,3.5,0.6c1.1,0.8,1.2,2.3,0.1,3c-0.7,0.5-1.5,0.8-2.3,0.8C455.2,82.9,455,82.9,454.7,82.9
			C454.7,82.9,454.7,82.9,454.7,82.9z"/>
	</g>
</g>
<g id="Layer_7">
</g>
<g id="Layer_6">
</g>
<g id="Layer_5">
</g>
<g id="Layer_4">
</g>
<g id="Layer_3">
</g>
</svg>
