<?xml version="1.0" encoding="utf-8"?>
<!-- Generator: Adobe Illustrator 25.0.1, SVG Export Plug-In . SVG Version: 6.00 Build 0)  -->
<svg version="1.1" xmlns="http://www.w3.org/2000/svg" xmlns:xlink="http://www.w3.org/1999/xlink" x="0px" y="0px"
	 viewBox="0 0 566.9 124.1" style="enable-background:new 0 0 566.9 124.1;" xml:space="preserve">
<g id="Layer_1">
</g>
<g id="Layer_13">
</g>
<g id="Layer_12">
</g>
<g id="Layer_11">
</g>
<g id="Layer_10">
</g>
<g id="Layer_9">
</g>
<g id="Layer_8">
</g>
<g id="Layer_7">
</g>
<g id="Layer_6">
	<g>
		<path d="M54.7,58.8c0-0.3-0.3-0.3-0.4-0.4c-1.6-0.8-3.2-1.6-4.9-2.3c-0.9-0.4-1.8-0.9-2.8-0.9c-0.2,0-0.5-0.1-0.5-0.4
			c0-0.5-0.4-0.6-0.7-0.7c-1.8-0.5-3.3-1.6-5-2.4c-1.5-0.8-2.8-1.9-4.1-2.9c-1.3-1-2.7-1.8-4.1-2.6c-0.7-0.4-1.4-0.7-2.1-1
			c-0.3-0.2-0.6-0.4-1-0.3c-0.4,0-0.7-0.1-0.9-0.4c-0.3-0.3-0.8-0.4-1.2-0.6c-1.5-0.4-3-0.9-4.6-1.3c-2.5-0.6-5-1.2-7.6-1.5
			c-1.3-0.2-2.7-0.3-4-0.5c-0.6-0.1-1.3-0.1-1.9-0.3c-0.5-0.1-0.6-0.5-0.3-0.9c0.4-0.4,0.9-0.7,1.4-0.9c1.4-0.6,2.5-1.6,3.9-2.2
			c-0.1-0.1-0.1-0.2-0.2-0.3c-0.2-0.4-0.2-0.6,0.2-0.7c0.4-0.1,0.8-0.2,1.2-0.2c0.7-0.1,1.4-0.3,2-0.6c2.8-1.6,5.8-2.6,8.8-3.8
			c1.9-0.7,3.7-1.4,5.5-2.2c2.6-1.1,5.4-1.9,8.1-2.7c2.5-0.7,4.9-1.5,7.4-2.3c1.9-0.6,3.9-1.2,5.8-1.9c1.4-0.5,2.9-1.1,4.3-1.7
			c2.4-1.1,4.8-2,7.4-2.7c2-0.5,4.1-0.8,6.1-1c3-0.3,6-0.3,9.1-0.3c2.6,0,5.1-0.2,7.7-0.8c1.1-0.3,2.2-0.7,3.3-1.1
			c1.4-0.5,2.8-1,4.2-1.5c0.4-0.1,0.8-0.2,1.2-0.3c4.2-0.4,8.3,0.1,12,2.3c1.2,0.8,2.3,1.7,3.5,2.6c0.5,0.4,0.9,0.7,1.4,1.1
			c1.9,1.6,4.1,3,6.3,4.3c1.7,1,3.3,2,5.1,2.8c4.3,2,8.7,3.8,13.3,4.8c2.9,0.7,5.8,1.3,8.8,1.5c0.6,0,1.2,0,1.7,0.3
			c0.3,0.1,0.5,0.1,0.8,0.1c1.1-0.1,2.3-0.1,3.4-0.3c2.6-0.3,5.1-0.7,7.7-1c1.4-0.2,2.8-0.3,4.2-0.3c0.8,0,1.6-0.2,2.4-0.3
			c2.6-0.4,5.2-0.9,7.9-1.4c2.6-0.5,5.2-0.9,7.9-1.4c4.1-0.7,8.3-1.3,12.5-1.6c0.7-0.1,1.4-0.1,2.1-0.1c2.2-0.1,4.3-0.2,6.5-0.3
			c2.4-0.1,4.9-0.3,7.3-0.4c1.7-0.1,3.4-0.1,5.2-0.1c3.3-0.1,6.6-0.1,9.9,0.1c0.4,0,0.7,0,1.1-0.1c1.2-0.3,2.4-0.2,3.6,0
			c4,0.5,7.9,1.2,12,1.5c1.9,0.2,3.8,0.2,5.7,0.3c1.4,0.1,2.8-0.1,4.2-0.1c2-0.1,4.1-0.2,6.1-0.3c1.9-0.2,3.9-0.4,5.8-0.6
			c1.7-0.2,3.4-0.4,5.1-0.7c2-0.3,3.9-0.6,5.9-1c3.8-0.7,7.5-1.6,11.2-2.4c3.2-0.8,6.3-1.6,9.4-2.4c2.6-0.6,5.1-1.4,7.8-1.8
			c0.8-0.1,1.7-0.3,2.5-0.5c3.5-0.8,7-1.4,10.5-2c3.2-0.6,6.5-1,9.8-1.5c4.2-0.6,8.4-1.2,12.6-1.7c3-0.4,6-0.7,9-1
			c1.2-0.1,2.3-0.2,3.5-0.4c1.2-0.2,2.3-0.1,3.5-0.3c2-0.2,4.1-0.3,6.1-0.4c2.5-0.2,5-0.4,7.6-0.6c1.4-0.1,2.9-0.3,4.3-0.4
			c2.9-0.2,5.9-0.4,8.8-0.4c3.3,0,6.5-0.1,9.8,0c0.5,0,1-0.1,1.4,0.4c0.1,0.2,0.5,0.1,0.8,0.2c2,0.3,3.9,0.5,5.9,0.8
			c1.8,0.3,3.6,0.7,5.5,1c4.2,0.6,8.4,1.7,12.6,2.5c2.7,0.5,5.4,0.9,8.2,1.2c0.3,0,0.6,0,0.8,0.1c0.6,0.5,1.4,0.4,2.1,0.4
			c4.1-0.1,8.2-0.2,12.3-0.4c1.3,0,2.5-0.3,3.7-0.7c2.3-0.9,4.7-1.3,7.1-1.4c0.5,0,1.1,0,1.6-0.2c0.3-0.1,0.7-0.1,1.1-0.1
			c0.1,0,0.2,0,0.3,0c1.6,0.1,3.2-0.1,4.9,0.1c0.5,0.1,0.9-0.1,1.3-0.3c1.9-1.1,4-1.3,6.2-1c1.4,0.3,2.6,0.9,3.8,1.7
			c0.5,0.3,0.8,0.7,1.4,0.7c0.2,0,0.5,0.2,0.6,0.3c0.5,0.6,1.1,0.5,1.7,0.2c0.6-0.3,1.3-0.5,1.9-0.6c1.3-0.3,2.6-0.1,3.8,0.4
			c1.2,0.6,2.3,1.2,3,2.5c0.3,0.5,0.8,0.7,1.3,0.8c2.9,0.5,5.7,0.9,8.6,1.2c2.8,0.3,5.5,0.8,8.3,1.2c3,0.4,5.9,0.8,8.9,1.2
			c1.4,0.2,2.9,0.4,4.3,0.6c2.2,0.3,4.3,0.5,6.5,0.7c3.7,0.4,7.4,1,11.1,1.7c3,0.6,5.9,1.5,8.8,2.3c1.8,0.5,3.7,1,5.5,1.3
			c1.2,0.2,2.3,0.3,3.5,0.4c0.7,0.1,1.4,0.2,2,0.4c2.2,0.8,3.8,2.2,4.7,4.4c0.3,0.8,0.7,1.5,1,2.2c0.3,0.6,0.5,1.2,0.4,1.8
			c0,0.3,0.1,0.6,0.1,0.9c0,0.4,0.1,0.7,0.1,1.1c0.1,1.3-0.4,2.4-1.7,2.9c-0.5,0.2-0.5,0.3-0.4,0.9c0.2,0.6,0.1,1.2,0,1.7
			c-0.1,0.8-0.4,1.6-0.3,2.4c0,0.2-0.2,0.5-0.3,0.7c-0.8,1.3-1.9,2.1-3.1,3c-1.5,1-3.1,1.6-4.8,2.1c-3.4,1-6.8,1.9-10.1,3
			c-2.4,0.8-4.8,1.6-7.2,2.5c-3,1.1-6.1,2.3-9.1,3.6c-2.5,1.1-4.9,2.3-7.4,3.4c-2.9,1.4-5.8,2.7-8.7,4.1c-3.8,1.8-7.6,3.7-11.3,5.5
			c-3.4,1.7-6.7,3.3-10.2,4.8c-3.1,1.4-6.3,2.5-9.5,3.5c-1.6,0.5-3.1,0.9-4.7,1.3c-1.9,0.5-3.8,0.7-5.7,1.1c-3.5,0.6-7,0.6-10.5,0.5
			c-1,0-2-0.1-3-0.3c-1.1-0.2-2,0.1-2.9,0.6c-1.3,0.8-2.7,1.2-4.1,1.6c-3,0.9-6.2,1.4-9.3,1.8c-0.8,0.1-1.5,0.2-2.3,0.2
			c-0.9,0-1.8,0.3-2.6,0.6c-1.7,0.6-3.5,0.9-5.3,1.1c-1.1,0.1-2.2,0.2-3.4,0.3c-0.6,0-1.1,0.2-1.5,0.5c-3.4,1.7-6.9,3.1-10.4,4.5
			c-3.3,1.3-6.5,2.8-9.8,4.4c-0.8,0.4-1.5,0.9-2.1,1.4c-0.9,0.8-1.7,1.6-2.1,2.8c-0.6,1.8-1.5,3.4-2.4,5c-0.6,1.1-1.5,1.9-2.7,2.4
			c-0.9,0.4-1.9,0.8-2.9,1.2c-1.2,0.5-2.4,1.1-3.5,1.8c-1.4,0.9-2.9,1.7-4.4,2.3c-1.4,0.5-2.8,0.8-4.2,1c-1.9,0.3-3.8,0.5-5.6,0.8
			c-2.7,0.4-5.4,1.2-7.9,2.2c-0.8,0.3-1.7,0.7-2.5,1c-3.2,1.3-6.4,1.7-9.8,1.1c-2.5-0.4-4.9-1.1-7.4-1.8c-2.8-0.8-5.6-1.7-8.4-2.5
			c-1-0.3-2-0.7-2.9-1c-1.1-0.4-2.1-1.1-3-1.8c-1.6-1.4-3.2-2.7-4.7-4.3c-0.6-0.7-1.4-1.2-2.1-1.7c-0.7-0.5-1.2-1.2-1.8-1.8
			c-0.2-0.2-0.3-0.3-0.4-0.5c-0.5-0.9-0.3-1.7,0.6-2.1c0.6-0.3,1.3-0.5,1.9-0.6c1.1-0.2,2.2-0.4,3.3-0.5c1.4-0.1,2.7-0.2,4-0.5
			c1.8-0.5,3-1.7,3.6-3.3c0.7-1.9,1.9-3,3.7-3.6c1.6-0.6,3.3-1.1,4.8-1.7c1.1-0.5,2.2-1.1,3.2-1.7c1.2-0.7,2.4-1.6,3.6-2.4
			c2.8-1.9,5.8-3.5,9-4.6c0.6-0.2,1.2-0.4,1.8-0.6c0,0,0-0.1,0.1-0.1c-0.1-0.2-0.3-0.2-0.4-0.2c-2.2,0.1-4.4-0.2-6.6-0.3
			c-1.4,0-2.9-0.2-4.3-0.4c-0.3,0-0.6-0.1-0.9-0.1c-3.6,0.3-7.2,0.5-10.8,0.9c-3.1,0.4-6.3,0.6-9.4,0.9c-3.1,0.3-6.1,0.5-9.2,0.8
			c-4.5,0.5-9.1,0.7-13.6,1.1c-3.9,0.3-7.8,0.4-11.8,0.6c-2.5,0.1-5.1,0.1-7.6,0.2c-3.7,0.1-7.4-0.1-11.1-0.3
			c-2.8-0.1-5.7-0.2-8.5-0.3c-3.3-0.2-6.7-0.3-10-0.7c-2.1-0.2-4.1-0.4-6.2-0.6c-0.1,0-0.2,0-0.3,0c-0.4-0.2-1,0-1-0.7
			c-0.5-0.3-1-0.5-1.6-0.7c-1.1-0.3-2.2-0.4-3.3-0.5c-0.3,0-0.5,0-0.8,0.1c-0.8,0.4-1.6,0.4-2.4,0.4c-1.7,0.1-3.3,0-5-0.4
			c-0.2,0-0.5-0.1-0.6-0.2c-0.5-0.5-1.2-0.5-1.9-0.5c-2.1,0-4.2-0.4-6.3-0.9c-0.8-0.2-1.4,0-2,0.6c-0.3,0.3-0.5,0.7-0.7,1.2
			c-0.3,0.7-0.6,1.4-0.8,2.2c-0.3,1-0.8,1.9-1.4,2.8c-1.5,2-3.2,3.7-5,5.3c-1.8,1.7-4,2.6-6.4,3.2c-2.3,0.6-4.7,1-7.1,1.3
			c-3.9,0.5-7.6,1.4-11.4,2.3c-3.1,0.7-6.2,0.8-9.3,0.6c-2.4-0.2-4.8-0.5-7.1-1c-1-0.2-2-0.4-3.1-0.6c-2.1-0.5-4.3-0.8-6.4-0.9
			c-1.8-0.2-3.6-0.2-5.4-0.3c-1,0-1.9-0.2-2.8-0.4c-0.2,0-0.3-0.1-0.5-0.2c-0.3-0.2-0.4-0.5-0.3-0.8c0.1-0.3,0.3-0.5,0.6-0.7
			c0.7-0.6,1.5-1.2,2.2-1.8c1.9-1.5,3.5-3.3,4.6-5.4c0.9-1.7,1.8-3.4,2.7-5.2c1.1-2.3,2.5-4.4,4.2-6.3c1.5-1.7,3.4-2.8,5.6-3.4
			c0.9-0.3,1.8-0.5,2.8-0.7c1.1-0.3,2.2-0.5,3.2-1c1.6-0.7,3.3-1.5,4.9-2.2c0.1,0,0.1-0.1,0.1-0.2c0-0.1,0-0.2-0.2-0.2
			c-0.8-0.1-1.6-0.2-2.4-0.3c-2.3-0.2-4.5-0.3-6.8-0.4c-4.6-0.2-9.2-0.2-13.8-0.6c-2.5-0.2-5-0.5-7.5-0.8c-1.8-0.2-3.6-0.4-5.4-0.6
			c-1.1-0.2-2.2-0.3-3.4-0.3c-1.3-0.1-2.4,0.2-3.5,0.7c-0.4,0.2-0.7,0.3-1.1,0.5c-1.2,0.6-2.5,1-3.9,1.2c-3.8,0.6-7.6,1.4-11.4,2.4
			c-2.8,0.8-5.6,1.2-8.4,1.1c-1.9-0.1-3.7-0.2-5.5-0.6c-3.8-0.8-7.7-1.5-11.6-2c-3.2-0.4-6.3-0.9-9.6-0.9c-1.9,0-3.8,0-5.7,0.2
			c-1.5,0.2-3.1,0.3-4.6,0.3c-1.6,0.1-3.1,0.4-4.7,0.3c-0.3,0-0.6,0-0.9,0c-0.9,0-1.7-0.4-2.3-1c-0.3-0.4-0.7-0.7-1-1.1
			c-0.8-1.3-1.9-2.3-3.1-3.2c-2.4-2-4.9-3.9-7.5-5.6c-1.6-1-3.3-1.9-4.9-2.9c-0.4-0.2-0.7-0.3-1.2-0.2c-0.6,0.1-1.2,0.2-1.9,0.3
			c-0.2,0-0.4,0-0.5,0c-0.1,0-0.1-0.1-0.2-0.2c0-0.1,0-0.2,0.1-0.2c0.4-0.1,0.8-0.2,1.2-0.3C54.3,59,54.6,59.1,54.7,58.8z
			 M462.7,17.3c-0.1-0.3-0.3-0.3-0.5-0.3c0-0.3-0.2-0.4-0.4-0.5c-0.6-0.5-1.2-1-1.8-1.5c-0.5-0.4-0.7-0.9-0.4-1.6
			c0.1-0.2,0.2-0.4,0-0.6c-1.2-0.1-2.2,0.6-3.3,1.1c0-0.3,0-0.4,0.1-0.6c-1.2-0.1-2.3-0.2-3.5-0.3c-1.7-0.1-3.4,0.2-5.1,0.5
			c-2.4,0.5-4.7,1.4-6.7,2.7c-2.4,1.6-4.6,3.5-6.4,5.8c-1.2,1.5-2.1,3.2-3.1,4.9c-0.1,0.2-0.1,0.4-0.4,0.4c0.6-2.9,2.2-5.2,4.2-7.3
			c1.4-1.5,2.9-2.8,4.6-4c0.2-0.1,0.5-0.2,0.4-0.6c-0.2-0.2-0.4-0.1-0.6-0.1c-3.4,0.1-6.8,0.1-10.2,0.3c-2.9,0.2-5.7,0-8.5-0.3
			c-0.5,0-1.1-0.2-1.5-0.5c-0.1-0.7-0.6-0.6-1.1-0.6c-0.9-0.1-1.7-0.3-2.6-0.3c-0.7,0-1.3-0.2-2-0.4c-0.9-0.3-1.7-0.6-2.6-0.8
			c-4-0.9-8.1-1.4-12.2-1.9c-2.2-0.3-4.5-0.6-6.7-0.9c-2.5-0.4-4.9-0.6-7.4-0.7c-2.8-0.1-5.6,0-8.4,0.2c-2,0.1-4.1,0.2-6.1,0.4
			c-3.6,0.3-7.1,0.6-10.7,1c-3.5,0.3-6.9,0.6-10.4,0.9c-2,0.2-4,0.4-5.9,0.6c-2,0.2-3.9,0.5-5.9,0.7c-1.8,0.2-3.7,0.5-5.5,0.7
			c-2.7,0.4-5.4,0.8-8,1.1c-3.6,0.5-7.1,1.1-10.7,1.7c-2.5,0.5-5,0.9-7.4,1.5c-3.2,0.7-6.4,1.5-9.6,2.2c-2.3,0.6-4.5,1.2-6.8,1.8
			c-3.4,0.9-6.9,1.7-10.4,2.4c-2.1,0.4-4.2,0.9-6.4,1.2c-4,0.7-8.1,1.1-12.1,1.6c-1,0.1-2.1,0.2-3.1,0.3c-2.4,0.2-4.8,0.3-7.2,0.3
			c-4,0.1-8-0.2-12-0.7c-2.1-0.3-4.2-0.6-6.3-0.9c-0.2,0-0.5,0-0.6,0.2c-0.2,0.3-0.5,0.2-0.8,0.2c-1.2-0.3-2.4-0.6-3.6-0.7
			c-1.6-0.1-3.2-0.2-4.9-0.2c-2.3,0-4.5,0.1-6.8,0.2c-1.9,0.1-3.7,0.2-5.5,0.3c-2.4,0.1-4.8,0.2-7.2,0.4c-3.2,0.2-6.3,0.5-9.5,0.7
			c-2.1,0.2-4.1,0.5-6.2,0.8c-2.2,0.3-4.5,0.7-6.7,1.1c-3.8,0.6-7.7,1.3-11.5,1.9c-2.4,0.4-4.7,0.9-7.1,1.3
			c-4.1,0.7-8.1,1.1-12.3,1.4c-2.6,0.2-5.2,0.3-7.9,0.4c-1.3,0.1-2.6,0.1-3.9,0.1c-0.9,0-1.9-0.1-2.8-0.1c-1.7-0.1-3.4-0.1-5.1-0.2
			c-2.6-0.2-5.1-0.4-7.7-0.7c-3-0.3-5.9-0.6-8.9-1c-3.7-0.4-7.4-0.9-11.1-1c-0.4,0-0.7,0-1.1-0.1C98.5,31,96,31,93.5,31
			c-3,0.1-6,0.1-8.9,0.2c-2.4,0.1-4.9,0.2-7.3,0.5c-3.1,0.3-6.2,0.8-9.3,1.2c-0.2,0-0.5,0.2-0.8-0.1c1.2-0.5,2.3-1,3.6-1.2
			c3.6-0.5,7.2-0.8,10.8-1.1c3.2-0.3,6.4-0.5,9.6-0.5c2.6,0,5.3-0.1,7.9,0.1c2.6,0.2,5.2,0.1,7.8,0.4c1.7,0.2,3.3,0.4,5,0.6
			c1.2,0.2,2.3,0.4,3.5,0.2c0.4-0.1,0.8,0,1.2,0c1.9,0.3,3.9,0.5,5.8,0.6c2.7,0.2,5.3,0.5,8,0.7c2.2,0.1,4.3,0.1,6.5,0.2
			c2.4,0.1,4.8-0.1,7.2-0.2c0.1,0,0.2,0,0.3-0.2c0-0.2-0.2-0.2-0.3-0.2c-0.9-0.2-1.9-0.3-2.8-0.5c-2.4-0.4-4.9-0.9-7.2-1.7
			c-2-0.7-3.9-1.4-5.8-2.1c-1.8-0.7-3.5-1.5-5.2-2.4c-1.4-0.7-2.7-1.6-4.1-2.4c-2.4-1.5-4.8-3-7-4.8c-1.6-1.3-3.3-2.6-5.2-3.7
			c-3.3-1.8-9-2.6-13.1-0.9c-0.7,0.3-1.4,0.5-2,0.8c-2.3,0.9-4.6,1.6-7,1.8c-1.9,0.2-3.9,0.3-5.8,0.3c-1.2,0-2.4,0-3.7,0
			c-3.1,0.2-6.1,0.4-9.2,1c-1.7,0.3-3.3,0.8-4.9,1.5c0.4,0.4,0.9,0.3,1.3,0.4c1.3,0.1,2.6,0.4,3.8,0.8c0.2,0.1,0.5,0.1,0.6,0.5
			c-0.4,0-0.8-0.1-1.1-0.1c-2-0.2-3.9-0.5-5.9-0.7c-0.5-0.1-1,0-1.4,0.2c-1.7,0.7-3.5,1.3-5.2,1.9c-0.4,0.2-0.8,0.3-1.3,0.5
			c0.6,0.6,1.6,0.7,2.1,1.5c-1-0.2-1.8-0.4-2.6-0.8c-0.4-0.2-0.8-0.3-1.3-0.1c-1.7,0.6-3.4,1-5,1.6c-0.3,0.1-0.6,0.1-0.8,0.5
			c1.9,0.4,3.8,0.4,5.6,1.3c-0.2,0.1-0.3,0.1-0.5,0.1c-0.6,0-1.3-0.1-1.9-0.2c-1.5-0.2-3-0.4-4.6-0.5c-1.1-0.1-2.1,0.1-3.2,0.4
			c-0.2,0.1-0.4,0.1-0.3,0.5c0.9-0.1,1.8,0.2,2.7,0.3c0.3,0,0.6,0.1,0.9,0.4c-1.9,0.3-3.6-0.2-5.4-0.2c-0.6,0-1.1,0-1.7,0.2
			c-2.2,0.7-4.2,1.6-6.3,2.4c-0.1,0.1-0.4,0.1-0.3,0.4c0.3,0.2,0.7,0.1,1,0.1c1.4-0.1,2.9-0.2,4.3-0.2c1,0,2,0.1,3,0.1
			c1.4,0.1,2.9,0.1,4.3,0.2c3.2,0.2,6.3,0.5,9.5,0.7c0.6,0,1.1,0.2,1.7,0.4c0,0,0.1,0.1,0.1,0.1c0,0.1-0.1,0.2-0.1,0.2
			c-0.4,0-0.9,0.1-1.3,0.1c-1.5-0.1-3.1-0.2-4.6-0.3c-2.4-0.2-4.8-0.4-7.2-0.5c-1.8-0.1-3.5-0.2-5.3-0.2c-2.9,0.1-5.8,0.3-8.7,0.5
			c-0.2,0-0.4,0-0.5,0.1c-2,0.8-4.1,1.5-6,2.5c-0.1,0.1-0.3,0.1-0.2,0.3c0.2,0.2,0.4,0.1,0.6,0.1c1.7-0.1,3.3-0.2,5-0.3
			c0.4,0,0.8,0,1.2-0.1c1.4-0.2,2.9-0.1,4.3-0.1c0.2,0,0.4,0,0.5,0.4c-0.3,0-0.6,0.1-0.9,0.1c-2.2,0.2-4.3,0.3-6.5,0.5
			c-0.7,0-1.4,0.1-2.1,0.3c-0.2,0.1-0.5,0.2-0.6,0.1c-1-0.4-2-0.1-3.1-0.1c-0.6,0-1.1,0.2-1.5,0.5c-1.5,0.9-3,1.8-4.5,2.7
			c-0.2,0.1-0.3,0.2-0.3,0.4c0.1,0,0.2,0,0.3,0c2.2-0.2,4.5-0.5,6.7-0.7c3.6-0.3,7.1-0.5,10.7-0.8c0.9-0.1,1.7,0,2.5,0.3
			c-0.9,0.4-1.8,0.4-2.8,0.5c-1.7,0.1-3.3,0.2-5,0.3c-2.9,0.2-5.8,0.5-8.8,0.8c-0.5,0-0.9,0.2-1.6,0.4c2.2,0.2,4.1,0.5,6,1
			c3.4,0.8,6.9,1.4,10.2,2.7c0.5,0.2,1,0.2,1.6,0.1c0.5-0.1,1.1-0.2,1.6-0.3c0.4-0.1,0.9-0.1,1.4,0.3c-0.6,0.4-1.1,0.5-1.7,0.6
			c-0.2,0-0.5,0-0.6,0.3c0.2,0.3,0.6,0.4,0.9,0.6c1.8,0.8,3.6,1.8,5.1,3.1c1.9,1.7,4.2,2.8,6.4,4c0.4,0.2,0.7,0.4,1.1,0.5
			c0.8,0.3,1.6,0.6,2.4,1c0.4,0.3,0.8,0.2,1.3,0.2c1.5-0.3,2.9-0.5,4.4-0.7c0.5-0.1,1-0.1,1.5-0.1c0.5,0,0.9-0.1,1.4,0.1
			c-0.2,0.3-0.5,0.4-0.8,0.4c-1.5,0.3-3,0.6-4.5,0.8c-0.4,0.1-0.7,0.2-1,0.2c-0.1,0-0.1,0.1-0.1,0.2c0,0,0.1,0.1,0.2,0.2
			c0.2,0,0.4,0,0.5,0c0.5-0.1,1-0.2,1.5-0.2c1.7-0.3,3.5-0.5,5.2-0.8c1.7-0.3,3.5-0.5,5.2-0.7c0.3,0,0.5,0,0.8,0.1l0,0
			c-0.3,0.4-0.9,0.4-1.3,0.5c-1.2,0.2-2.4,0.4-3.6,0.6c-2.1,0.3-4.3,0.6-6.4,0.9c-0.1,0-0.3,0-0.4,0.1c-0.1,0.1-0.4,0-0.3,0.3
			c1.7,0.8,3.3,1.6,5,2.5c0.7,0.4,1.3,0.5,2.1,0.3c2.6-0.5,5.1-1,7.7-1.5c1.4-0.3,2.8-0.6,4.3-0.3l0,0c-0.7,0.4-1.4,0.5-2.2,0.7
			c-3.1,0.6-6.1,1.1-9.2,1.7c-0.1,0-0.4,0-0.4,0.3c0.5,0.6,1.3,0.8,2,1.3c1.4,0.9,1.4,0.9,3.1,0.6c0.4-0.1,0.7-0.2,1.1,0
			c-0.1,0.3-0.3,0.3-0.5,0.4c-0.2,0.1-0.4,0.1-0.6,0.2c-0.2,0.1-0.5,0-0.5,0.3c0.1,0.3,0.5,0.4,0.7,0.6c0.6,0.4,1.3,0.7,1.8,1.2
			c0.8,0.7,1.5,0.8,2.6,0.5c2.1-0.6,4.2-1,6.3-1.5c1.1-0.2,2.1-0.5,3.2-0.7c0.4-0.1,0.4-0.1,1.1,0.2c-0.5,0.5-1,0.6-1.6,0.7
			c-3,0.7-6,1.4-9,2.1c-0.2,0-0.5,0.2-0.4,0.2c1.8,1.7,3.9,3,5.5,4.9c0.2,0.2,0.4,0.2,0.6,0.2c0.3,0,0.5-0.1,0.8-0.2
			c1.4-0.3,2.7-0.6,4.1-0.6c-0.1,0.3-0.3,0.3-0.4,0.3c-1,0.4-2.1,0.7-3.2,1c-0.3,0.1-0.5,0.1-0.8,0.2c-0.1,0-0.2,0.2-0.1,0.3
			c0,0.1,0.1,0.2,0.2,0.2c0.6,0.6,1.4,0.8,2.2,0.7c3.2-0.2,6.3-0.4,9.5-0.7c0.2,0,0.4-0.1,0.5-0.1c1.8-0.5,3.7-0.8,5.6-1.1
			c1.3-0.2,2.6-0.4,4.1-0.2c-1.3,0.6-2.6,0.7-4.1,1.1c1.4,0.1,2.5,0.2,3.5,0.3c3,0.3,5.9,0.7,8.9,1c3.1,0.4,6.1,1.1,9.2,1.6
			c4,0.6,7.9,0.6,11.8-0.4c4-1,8.1-2,12.2-2.7c0.9-0.1,1.9-0.3,2.8-0.7c0.2-0.1,0.4-0.1,0.4-0.5c-1.2,0.6-2.3,0.3-3.5-0.2
			c1.1-0.5,2.2-0.8,3.4-1.1c-0.1-0.1-0.2-0.2-0.3-0.2c-1.8-0.5-3.7-1-5.5-1.5c-0.4-0.1-0.7,0-1.1,0.1c-1.5,0.5-3.1,0.9-4.7,1.2
			c-1.7,0.3-3.4,0.6-5.1,0.9c-3.6,0.7-7.2,1.3-10.8,1.6c-0.7,0.1-1.3,0.2-2.2,0.1c1-0.2,1.9-0.5,2.7-0.7c4-0.8,8-1.4,12-2
			c2.2-0.3,4.5-0.7,6.6-1.3c0.2,0,0.3-0.1,0.5-0.2c0,0,0.1-0.2,0-0.2c-0.1-0.1-0.2-0.1-0.4-0.2c-2.4-0.9-4.8-1.5-7.2-2.4
			c-0.4-0.2-0.7,0-1,0.1c-0.9,0.2-1.7,0.5-2.6,0.7c-1.6,0.4-3.2,0.9-4.9,1.1c-0.4,0.1-0.8,0.2-1.4,0c1.5-0.5,2.7-1,4.1-1.3
			c1.3-0.3,2.7-0.7,4.3-1.1c-1.2-0.5-2.2-1-3.2-1.4c-0.3-0.1-0.5-0.1-0.8,0c-5.1,0.9-10.1,2-15.1,3.1c-3.2,0.7-6.4,1.3-9.6,1.7
			c-1,0.1-2.1,0.2-3.4,0.3c0.4-0.2,0.6-0.3,0.8-0.4c1.4-0.3,2.7-0.7,4.1-1c1.8-0.3,3.7-0.6,5.5-1c5.4-1.1,10.8-2.2,16.2-3.3
			c0.1,0,0.4,0,0.4-0.2c-0.2-0.3-0.5-0.4-0.8-0.5c-2.3-1.2-4.7-2.4-7-3.5c-0.9-0.5-1.9-0.9-2.8-1.3c-0.3-0.1-0.6-0.2-0.9,0
			c-1,0.4-1.9,0.8-2.9,1.1c-4.9,2-10,3.5-15.2,4.9c-2.8,0.7-5.6,1.5-8.4,2.1c-1.3,0.3-2.5,0.7-3.9,0.6l0,0c0.4-0.4,1-0.4,1.5-0.5
			c3.3-1.2,6.8-2,10.1-2.9c2.6-0.8,5.2-1.5,7.8-2.2c3.2-0.9,6.2-2.1,9.3-3.3c0.3-0.1,0.5-0.2,0.7-0.3c0.1-0.1,0.1-0.2,0-0.3
			c-0.1-0.1-0.1-0.1-0.2-0.2c-2.8-1.5-5.6-2.9-8.4-4.4c-0.3-0.2-0.6-0.2-0.9,0c-1.2,0.8-2.5,1.3-3.7,1.9c-2.5,1-5.1,2-7.6,2.8
			c-2.3,0.7-4.6,1.4-6.9,2c-1.5,0.4-2.9,0.8-4.4,1.2c-1.9,0.5-3.9,0.8-5.8,1.3c-0.6,0.1-1.2,0.2-1.7,0.1c1-0.4,1.9-0.7,2.9-1
			c3-0.7,5.9-1.6,8.9-2.4c2.1-0.5,4.2-1.3,6.4-1.9c3.6-1.1,7.1-2.4,10.5-3.9c0.4-0.2,0.8-0.3,1.1-0.7c-0.1-0.1-0.1-0.2-0.2-0.2
			c-1.8-0.9-3.7-1.8-5.5-2.5c-0.3-0.1-0.6-0.1-0.9,0c-3.4,1.3-6.9,2.4-10.4,3.4c-2.5,0.8-5,1.5-7.6,2c-0.4,0.1-0.7,0.2-1.2,0
			c1.5-0.8,3.1-1,4.7-1.5c1.6-0.5,3.1-0.9,4.7-1.4c1.6-0.5,3.1-0.9,4.7-1.4c1.5-0.5,3.1-1,4.6-1.7c-0.2-0.2-0.4-0.3-0.5-0.3
			c-1-0.4-2.1-0.9-3.1-1.3c-0.5-0.2-1.1-0.2-1.6-0.1c-2.8,0.5-5.5,1-8.3,1.5c-3.8,0.6-7.6,1.2-11.4,1.8c-2.3,0.3-4.7,0.6-7,0.9
			c-1.8,0.2-3.6,0.4-5.4,0.5c-1.7,0.1-3.4,0.2-5.1,0.4c-1,0.1-2,0-2.9,0.4c-0.2,0.1-0.5,0-0.8,0c-0.1,0-0.2-0.1-0.2-0.2
			c0-0.1,0.1-0.2,0.1-0.2c0.1-0.1,0.2-0.1,0.4-0.1c0.7-0.2,1.4-0.2,2.1-0.4c1.6-0.3,3.1-0.4,4.7-0.5c2.4-0.1,4.7-0.3,7-0.6
			c3.2-0.4,6.5-0.8,9.7-1.3c2.7-0.4,5.4-0.8,8.2-1.3c1.8-0.3,3.6-0.6,5.3-1c0.9-0.2,1.8-0.2,2.7-0.6c-0.3-0.4-0.7-0.5-1-0.6
			c-2-0.8-3.9-1.6-5.9-2.3c-1.7-0.6-3.4-1.3-4.9-2.2c-0.8-0.5-1.7-0.9-2.5-1.3c-0.4-0.2-0.9-0.3-0.9-0.9l0,0
			c0.2,0.1,0.3,0.2,0.5,0.2c2.5,0.8,4.9,1.7,7.4,2.7c1.9,0.7,3.8,1.4,5.7,2.2c0.3,0.1,0.6,0.2,0.8-0.1c0.1-0.1,0.3-0.1,0.3,0.1
			c0,0.6,0.5,0.7,0.9,0.9c3.2,1.2,6.3,2.5,9.4,3.9c2,0.9,3.9,1.9,5.9,2.8c1.3,0.6,2.6,1.3,3.9,2c2.4,1.2,4.7,2.4,7.1,3.6
			c2.4,1.2,4.8,2.4,7.3,3.6c3,1.5,5.9,2.9,9,4.1c1.8,0.6,3.6,1.2,5.4,1.8c3.6,1.2,7.3,2.1,10.9,3.1c0.3,0.1,0.5,0.1,0.8-0.3
			c0.3-0.4,0.6-0.4,0.7,0.1c0.1,0.3,0.1,0.5,0.5,0.5c1.4,0.3,2.8,0.6,4.3,0.5c0.4,0,0.7,0,1.1,0c0.3,0,0.6,0.1,0.9,0.3
			c0.5,0.5,1.1,0.5,1.8,0.6c0.6,0.1,1.3,0.1,1.9,0.2c1.2,0.1,2.4,0.3,3.6,0.4c0.4,0,0.7,0.1,0.9-0.3c0.1-0.2,0.3-0.2,0.4,0
			c0.2,0.5,0.6,0.5,1,0.5c2.1,0.2,4.2,0.4,6.3,0.5c3.3,0.2,6.6,0.3,9.9,0.3c3.8,0.1,7.7,0.4,11.5,1c1.3,0.2,2.6,0.3,3.9-0.1
			c1.8-0.5,3.6-0.6,5.5-0.6c2,0.1,4,0.4,6,0.7c0.6,0.1,1.2,0.2,1.7,0.2l0,0c0.2,0.1,0.3,0.2,0.5,0.2c0.4,0.1,0.7,0.1,1.1,0.1
			c2.1,0.2,4.1,1.1,6.2,1.1c0,0,0.1,0.1,0.1,0.1c0.8,0.4,1.7,0.4,2.5,0.4c1.7,0,3.3,0,5,0c0.9,0,1.9,0,2.8,0c0.3,0,0.6,0,0.9-0.3
			c0.3-0.3,0.6-0.3,0.9,0c0.2,0.2,0.4,0.3,0.6,0.3c1,0,1.9-0.1,2.8-0.8c1.3-1.1,2.9-1.7,4.5-2c0.4-0.1,0.9-0.1,1.3-0.1
			c0.2,0,0.4-0.1,0.6,0.1c-0.1,0.2-0.2,0.3-0.4,0.3c-0.6,0.2-1.2,0.3-1.8,0.5c-1.1,0.3-2.2,0.6-3.1,1.4c0.1,0,0.1,0,0,0
			c0,0,0-0.1,0-0.1c0.5,0.1,0.9,0,1.3-0.1c0.9-0.2,1.8-0.4,2.7-0.5c0.9-0.2,1.4-0.2,2.4,0.1c-0.7,0.6-1.5,1-2.4,1.2
			c-2.3,0.6-4.6,1.1-6.9,1.2c-3.3,0.1-6.5,0.1-9.8,0.1c-0.4,0-0.7-0.1-1.1-0.2c-0.3-0.1-0.6-0.1-0.9-0.1c-1.6,0.2-3.2,0.4-4.8,0.6
			c-1.3,0.2-2.6,0.5-3.9,0.5c-0.6,0-1.2,0.1-1.9,0.2c-2.2,0.4-4.2,1.3-6.3,2c-3.7,1.2-6.9,3.3-10.2,5.3c-1.5,0.9-2.8,1.9-4.3,2.8
			c-1.6,0.9-3.3,1.7-4.3,3.4c-0.7,0.5-1.2,1.2-1.6,2.1c-0.2-0.7,0-1.3,0.3-1.8c0.4-0.7,0.8-1.3,1.4-1.8c1.7-1.4,3.3-2.9,5.2-4.1
			c0.6-0.4,1.2-0.8,1.8-1.3c0.2-0.1,0.2-0.3,0.1-0.5c0,0,0,0.1,0,0.1c0,0,0,0,0.1,0c0,0-0.1-0.1-0.1-0.1c-0.1,0-0.3,0.1-0.4,0.1
			c-2.2,0.3-4.4,0.5-6.6,0.8c-2.1,0.3-4.3,0.6-6.4,0.8c-0.3,0-0.6,0-1.1,0c1.5-0.7,2.9-0.8,4.3-1c3.7-0.5,7.4-0.9,11.2-1.4
			c0.6-0.1,1.1-0.2,1.7-0.5c1.1-0.7,2.2-1.3,3.3-1.9c0.1-0.1,0.1-0.1,0-0.3c-0.1,0-0.2-0.1-0.3-0.1c-1.9,0-3.8,0.2-5.7,0.4
			c-1.9,0.2-3.8,0.6-5.8,0.8c-0.8,0.1-1.7,0.3-2.5,0.1c0.1-0.4,0.4-0.4,0.6-0.5c0.8-0.3,1.7-0.3,2.5-0.4c2-0.2,3.9-0.5,5.9-0.7
			c1.8-0.2,3.7-0.2,5.5-0.4c0.8-0.1,1.5,0,2.3-0.4c1.3-0.7,2.6-0.9,4-1.2c1.2-0.2,2.4-0.5,3.6-0.8c0.2,0,0.4-0.1,0.3-0.4
			c0-0.1-0.2-0.1-0.3-0.1c-2.3-0.1-4.6-0.3-6.9-0.2c-0.5,0-1.1,0-1.8-0.3c1.2-0.2,2.2-0.3,3.2-0.3c2.2,0,4.4,0.2,6.6,0.3
			c0.7,0,1.3,0,2-0.2c1.5-0.3,3-0.6,4.5-0.7c0.1,0,0.4,0.1,0.4-0.2c-0.1-0.1-0.2-0.2-0.3-0.2c-1.7-0.3-3.3-0.7-5.1-0.9
			c-0.8-0.1-1.5-0.2-2.3-0.4c-1.3-0.4-2.6-0.8-4-0.6c-0.5,0.1-1,0-1.5,0c-1.5-0.1-3.1-0.1-4.6,0.3c-2.2,0.6-4.5,1.1-6.6,2
			c-1,0.5-2,0.9-2.9,1.4c-1.7,0.9-3.5,1.5-5.4,1.9c-0.8,0.2-1.7,0.4-2.5,0.6c-2.2,0.6-4,1.8-5.5,3.5c-1.5,1.8-2.8,3.7-3.8,5.8
			c-0.8,1.7-1.7,3.4-2.6,5c-1.4,2.5-3.2,4.6-5.5,6.3c-0.4,0.3-0.9,0.7-1.3,1c-0.2,0.1-0.4,0.3-0.3,0.5c0.9,0.2,1.9,0.3,2.8,0.4
			c1.8,0.1,3.6,0.1,5.4,0.3c1.9,0.2,3.9,0.4,5.8,0.8c3.6,0.8,7.3,1.4,11,1.7c2.1,0.2,4.2-0.1,6.4-0.2c0.6,0,1.3-0.1,1.9-0.3
			c2.7-0.7,5.4-1.4,8.2-1.9c1.3-0.2,2.7-0.5,4-0.7c2.3-0.3,4.6-0.7,6.9-1.4c2.2-0.6,4.1-1.6,5.8-3.1c1.6-1.5,3.2-3.1,4.5-4.9
			c0.5-0.7,1-1.5,1.2-2.4c0.3-0.8,0.6-1.6,0.9-2.4c0.1-0.2,0.3-0.4,0-0.6c-1.1,0.2-2.2,0.4-3.2,0.8c-1.2,0.5-2.3,1-3.5,1.4
			c-2.2,0.9-4.3,1.9-6.6,2.5c-1.1,0.4-2.1,0.9-3.1,1.6c-1.2,0.9-2.4,1.8-3.8,2.3c-0.2,0.1-0.4,0.3-0.7,0.1c0.5-0.5,1.1-0.9,1.6-1.3
			c0.5-0.4,1.2-0.7,1.7-1.4c-0.4,0.1-0.6,0.1-0.8,0.2c-1.8,0.5-3.7,0.8-5.6,1.1c-0.6,0.1-1.2,0.2-1.5,0.9c-0.1,0.4-0.6,0.6-1,0.9
			c-1,0.7-2.1,1.4-3.1,2.1c-1.3,0.8-2.6,1.6-4,2.2c-0.2,0.1-0.4,0.3-0.7,0c0.8-0.7,1.7-1.3,2.6-1.8c1.8-1,3.6-2.1,5.2-3.4
			c0.2-0.1,0.4-0.3,0.3-0.6c-1.3,0.1-2.6,0.2-3.9,0.4c-0.3,0-0.6,0.2-0.8,0.5c-0.7,0.7-1.5,1.1-2.4,1.5c-0.2,0.1-0.4,0.2-0.6,0
			c0.4-0.6,1-0.9,1.6-1.2c0.2-0.1,0.4-0.2,0.4-0.4c-1.9,0-3.7-0.1-5.6,0c-1.2,0.1-2.4-0.1-3.6-0.1c-0.4,0-0.8-0.2-1.2-0.3
			c-0.2-0.1-0.4-0.2-0.5-0.4c0.4-0.1,0.7-0.4,1.1-0.3c1.6,0.6,3.3,0.5,4.9,0.3c1.3-0.1,2.5-0.4,3.8-0.2c0.2,0,0.4,0,0.5,0
			c3-0.3,6-0.5,9-0.9c2-0.3,3.9-0.7,5.8-1.3c2-0.7,4-1.4,6-2.2c2.4-0.9,4.8-2,7.1-2.9c0.5-0.2,1.1-0.5,1.7-0.6c3-0.6,6-1.1,9.1-1.6
			c2-0.3,4-0.6,6-1.2c2-0.6,3.9-1.4,5.4-3c0.1-0.1,0.1-0.1,0.2-0.2c0.1-0.1,0.3-0.3,0.5-0.1c0,0.5-0.3,0.8-0.6,1.2
			c-0.7,0.8-1.5,1.4-2.5,1.8c-0.5,0.2-0.9,0.3-1.3,0.7c-0.2,0.2-0.5,0.2-0.8,0.2c-1.6,0.4-3.2,0.8-4.9,1c-0.4,0.1-0.8,0.2-1.1,0.4
			c-0.1,0.1-0.2,0.2-0.2,0.3c0,0.1,0.2,0.2,0.3,0.2c0.2,0.1,0.3,0.1,0.5,0.1c1.8,0.1,3.7,0.4,5.5,0c1.6-0.3,3.1-0.6,4.5-1.3l0,0
			c0.1,0.2,0.1,0.4-0.2,0.6c-0.5,0.2-1,0.5-1.6,0.7l0,0c-0.5,0.1-0.9,0.3-1.4,0.4c-0.2,0.1-0.4,0.1-0.4,0.4c0.7,0.1,1.3,0.2,2,0.2
			c1.1,0.1,2.2,0,3.3-0.4l0,0c0.5,0,1-0.1,1.5-0.2c0.5-0.2,1.2-0.1,1.2-1c0-0.2,0.3-0.2,0.4-0.3c1-0.4,2-0.9,2.9-1.4
			c1.2-0.6,2.2-1.5,3-2.7c0.3-0.4,0.5-0.9,0.7-1.3c0.2-0.4,0.5-0.8,1-1.1c0,0.2,0,0.4,0,0.5c-0.6,1.7-1.4,3.1-2.8,4.2
			c-0.4,0.3-0.7,0.6-1.1,0.8c-1.2,0.9-2.2,1.8-3.6,2.3c0,0,0,0.1-0.1,0.2c1.6,0,3,0.6,4.5,1.1c0.8,0.3,1.6,0.5,2.4,0.6
			c2.5,0.2,5,0.4,7.4,0.6c1.9,0.2,3.8,0.2,5.7,0.3c2.8,0.1,5.7,0.3,8.5,0.4c4.3,0.2,8.6,0.1,12.9,0.1c2.8,0,5.5-0.1,8.3-0.2
			c3.6-0.2,7.2-0.3,10.8-0.6c3.6-0.2,7.1-0.5,10.7-0.8c3.4-0.3,6.7-0.6,10.1-0.9c1.1-0.1,2.2-0.2,3.4-0.3c3.1-0.3,6.3-0.7,9.4-1
			c0.7-0.1,1.3-0.1,2-0.2c0.6-0.1,1.3-0.1,1.9-0.2c0.5-0.8,1.2,0.2,1.8-0.1c0.2-0.1,0.4,0,0.5-0.1c0.7-0.3,1.4-0.3,2.1-0.3
			c1,0,2.1,0,3.1,0c1.2,0,2.4,0.1,3.5,0c2.3-0.2,4.5-0.2,6.8-0.1c1.4,0.1,2.8,0.2,4.2,0.2c1.5,0,2.9,0.2,4.3,0.4
			c1.2,0.2,2.4,0.4,3.6,0.3c1.3-0.1,2.6-0.1,3.9-0.2c0.4,0,0.7,0,1.1-0.1c0.9-0.2,1.8-0.6,2.4-1.4c0.4-0.6,0.7-1.2,1.5-1.4
			c0.2,0,0.4-0.3,0.6-0.5c1.5-1.6,3.2-2.8,4.9-4c0.8-0.6,1.6-1.3,2.5-1.8c0.9-0.6,1.8-1.2,2.8-1.7c0.7-0.3,1.3-0.8,2-1.2
			c0.2-0.1,0.3-0.3,0.3-0.6c0-0.2-0.1-0.4-0.1-0.7c-0.1-0.8-0.3-1.6-0.2-2.4c0.4-2.1,1-4.2,2-6.1c1-2,2.4-3.8,4-5.5
			c1.3-1.4,2.6-2.8,3.9-4.1c0.1-0.1,0.2-0.4,0.6-0.3c0,0.9-0.3,1.6-0.9,2.3c-1.1,1.2-2.2,2.4-3.3,3.6c-2.5,2.7-4,5.9-4.9,9.5
			c-0.2,1-0.2,2-0.1,3c0,0.2,0.1,0.4,0.3,0.4c0.2,0,0.5-0.1,0.5-0.4c0.1-0.8,0.7-1.2,1.3-1.6c0.5-0.3,1-0.7,1.5-1
			c0.3-0.2,0.6-0.3,0.7-0.6c0.3-0.6,0.7-0.9,1.4-0.7c0.2,0.1,0.4-0.1,0.6-0.2c0.4-0.2,0.7-0.4,1.1-0.5c2-0.9,4.1-1.7,6.2-2.3
			c1.7-0.5,3.5-0.9,5.3-1.2c1.6-0.3,3.2-0.4,4.8-0.5c0.3,0,0.6,0,0.9,0.2c0.1,0,0.1,0.1,0.1,0.2c0,0.1-0.1,0.2-0.1,0.2
			c-0.7,0.1-1.4,0.2-2.1,0.3c-1.9,0.1-3.7,0.4-5.5,0.8c-3,0.6-5.9,1.7-8.7,3c-2.2,1-4.2,2.2-5.8,4.1c-0.1,0.2-0.3,0.3-0.5,0.4
			c-1,0.9-2,1.6-3.1,2.3c-2.2,1.4-4.4,2.8-6.5,4.3c-1.1,0.7-2.2,1.5-3.1,2.4c-0.8,0.8-1.5,1.5-2.2,2.3c-0.2,0.2-0.3,0.5-0.6,0.6
			c-0.5,0.1-0.7,0.5-1.1,0.8c-0.2,0.2-0.4,0.5-0.7,0.7c-0.3,0.2-0.2,0.7-0.6,0.9c-0.6,0.3-1,0.9-1.5,1.4c-1.7,1.7-3.5,3.3-5.4,4.7
			c-1.2,0.8-2.4,1.4-3.8,1.6c-1.1,0.1-2.1,0.3-3.2,0.6c-1.6,0.5-2.9,1.3-3.9,2.7c-1.1,1.6-2.7,2.3-4.6,2.6c0-0.4,0.3-0.6,0.5-0.8
			c1.1-1,2.2-2,3.3-3c0.2-0.1,0.4-0.2,0.2-0.6c-0.6,0-1.1,0-1.7-0.1c-1.3-0.2-2.6-0.1-3.9,0c-0.5,0-1.1,0-1.6,0
			c-0.1,0-0.2-0.2-0.3-0.3c-0.1-0.1,0-0.3,0.2-0.3c0.2-0.1,0.3-0.1,0.5-0.1c2.1-0.2,4.2-0.2,6.4-0.1c0.2,0,0.5,0,0.7,0.1
			c0.6,0.5,1.1,0.3,1.7-0.1c0.4-0.3,0.9-0.5,1.3-0.8c1.2-0.7,2.4-1.3,3.8-1.4c0.5,0,1-0.1,1.5-0.2c0.6-0.1,1.1-0.3,1.5-1
			c-2.2,0.2-4.3,0.2-6.4,0.2c-0.5,0-1.1,0-1.6-0.1c-0.2,0-0.3-0.2-0.3-0.4c0-0.1,0.1-0.3,0.2-0.3c0.4-0.1,0.7-0.1,1.1-0.1
			c1.5,0,3,0,4.5-0.1c1.3-0.1,2.5-0.2,3.8-0.1c0.2,0,0.5,0,0.6-0.2c0.4-0.3,0.8-0.6,1.2-1.2c-1.8,0-3.5,0.5-5.3,0.1
			c0.8-0.4,1.6-0.6,2.3-0.6c1.2-0.1,2.4-0.2,3.6-0.3c0.3,0,0.5,0,0.8-0.2c0.4-0.3,0.8-0.8,0.6-0.9c-0.3-0.3-0.7-0.2-1-0.2
			c-0.1,0-0.3,0-0.4,0.1c-0.9,0.3-1.8,0.3-2.7,0.3c-2.3,0-4.5,0-6.8,0.2c-2.6,0.2-5.2,0.6-7.7,1.5c-2.6,1-5.1,2.3-7.5,3.8
			c-1.5,1-2.9,1.9-4.4,2.9c-0.5,0.3-0.9,0.6-1.4,0.9c-2,1.4-4.1,2.6-6.4,3.4c-0.7,0.3-1.4,0.6-2.1,0.9c-0.7,0.3-1.2,0.8-1.3,1.6
			c-0.1,0.4-0.2,0.8-0.3,1.2c-0.2,0.6-0.6,1.1-1.2,1.4c-0.8,0.5-1.6,0.9-2.6,1.1c-1.8,0.4-3.6,0.6-5.4,0.7c-1,0-1.9,0.2-2.8,0.4
			c-0.4,0.1-1.1,0.1-1.2,0.5c-0.1,0.5,0.5,0.8,0.8,1.1c1.2,1.1,2.6,2.1,3.7,3.3c1.4,1.4,2.9,2.6,4.3,3.9c0.8,0.7,1.7,1.4,2.7,1.8
			c0.8,0.3,1.5,0.5,2.3,0.8c2.4,0.7,4.8,1.4,7.1,2.1c2.8,0.9,5.5,1.6,8.4,2.1c2.6,0.4,5.2,0.4,7.7-0.6c1.8-0.7,3.5-1.4,5.3-2
			c2.9-1.1,6-1.8,9.1-2.1c0.5-0.1,1.1-0.2,1.6-0.3c0.3-0.1-0.3-0.4,0.1-0.5c0.2-0.1,0.4-0.1,0.6-0.2c0.5-0.1,1-0.3,1.4-0.4
			c2.7-1,5.4-1.8,8-2.9c1.8-0.7,3.5-1.4,5.1-2.4c0.9-0.6,1.7-1.2,2.3-2.1c0.8-1.1,1.5-2.3,2-3.5c0.3-0.8,0.5-1.7,1-2.5l0,0
			c0,0,0,0.1,0,0.1c-0.1,0-0.3-0.2-0.4-0.1c-0.9,0.3-1.7,0.4-2.5,0.9c-1.3,0.7-2.7,1.5-4.1,2.1c-0.4,0.2-0.6,0.5-0.9,0.8
			c-1.3,1.2-2.5,2.4-3.8,3.6c-0.4,0.3-0.7,0.6-1.3,0.7c0.1-0.6,0.5-0.9,0.8-1.3c0.7-0.7,1.5-1.4,2.3-2.1c0.2-0.2,0.4-0.3,0.3-0.5
			c-0.2-0.5,0.1-0.6,0.4-0.8c0.9-0.5,1.8-1.1,2.3-2c0-0.1,0.1-0.1,0.2-0.2c0.2-0.1,0.4-0.2,0.4,0.1c0.1,0.3,0.2,0.4,0.5,0.3
			c0.4-0.2,0.7-0.3,1.1-0.5c3.7-2.1,7.5-4.2,11.2-6.3c0.5-0.3,1-0.5,1.5-0.6c1.1-0.4,2.2-0.7,3.3-1.2c1.9-0.9,3.9-1.6,5.9-2.4
			c3.3-1.3,6.5-2.7,9.6-4.3c2.2-1.1,4.3-2.2,6.7-2.7c0.6-0.1,1.1-0.4,1.6-0.7c0.5-0.3,0.9-0.7,1.5-1c1.2-0.6,2.1-1.5,3-2.5
			c0.1-0.1,0.2-0.3,0.5-0.1c-0.2,0.9-0.7,1.7-1.4,2.4c-0.5,0.5-0.5,1.3-1.2,1.7c0,0,0.1,0.2,0,0.3c0,0.4-0.1,0.5-0.5,0.3
			c-0.2-0.1-0.4-0.1-0.6,0c-0.6,0.4-1.1,0.7-1.8,0.8c-0.4,0.1-0.8,0.4-1.2,0.6c-0.5,0.4-1,0.6-1.5,0.8c-0.5,0.2-1.1,0.5-1.6,0.7
			c-0.1,0.1-0.4,0.1-0.3,0.4c0.2,0,0.3,0,0.5,0c2.6-0.2,5.2-0.9,7.6-1.9c0.9-0.4,1.7-0.8,2.4-1.4c1.3-1.1,2.6-2.1,3.6-3.4
			c0.1-0.2,0.3-0.4,0.6-0.2c0.2,0.2,0.2,0.4,0.1,0.6c-0.1,0.3-0.4,0.6-0.6,0.9c-0.7,0.8-1.5,1.6-2.3,2.3c-0.2,0.1-0.4,0.2-0.3,0.5
			c0.6,0,1.2,0,1.7-0.1c0.8-0.2,1.6,0,2.3-0.7c0.1-0.1,0.3-0.1,0.5-0.1c0.2,0.1,0.4,0.2,0.7,0.1c2.1-0.5,4.1-1,6.1-1.8
			c0.1-0.1,0.3-0.1,0.2-0.3c-0.1-0.1-0.2-0.2-0.3-0.2c-1.1-0.3-2.2-0.5-3.3-0.8c-0.4-0.1-0.8-0.2-1.1,0.2c-0.1,0.1-0.4,0-0.3-0.2
			c0-0.3-0.1-0.5-0.4-0.6c-0.3-0.1-0.7-0.3-1-0.4c-0.4-0.1-0.8-0.3-1.2-0.6c-0.6-0.5-1.2-0.9-2-1.1c-0.3-0.1-0.5-0.3-0.8-0.5
			c-2.7-1.9-5.1-4.3-7.4-6.8c-1.2-1.3-2.1-2.7-2.8-4.3c-0.5-1.2-0.8-2.4-0.8-3.7c0-0.6,0.1-1.2,0.5-1.6c0.1-0.1,0.2-0.1,0.4-0.1
			c0.2,0,0.2,0.1,0.2,0.3c0,0.2,0,0.4,0,0.5c-0.3,0.8-0.2,1.6,0,2.4c0.4,1.8,1.3,3.4,2.4,4.8c2.1,2.6,4.5,4.8,7.1,6.9
			c1.8,1.4,3.7,2.6,5.9,3.3c3.7,1.3,7.5,2,11.4,2.3c3.4,0.2,6.8,0.1,10.3-0.4c5.4-0.7,10.5-2.2,15.6-4c2.8-1,5.5-2.2,8.1-3.5
			c2.1-1,4.2-2.1,6.3-3.1c5-2.5,10.1-4.9,15.1-7.4c2.7-1.3,5.4-2.6,8.1-3.8c2.2-1,4.4-2.1,6.7-3c3.4-1.4,6.9-2.7,10.4-3.9
			c2.8-1,5.6-1.9,8.4-2.7c2.7-0.8,5.5-1.5,8.2-2.5c1.7-0.6,3.1-1.7,4.3-3c0.3-0.3,0.5-0.6,0.5-0.9c0.1-0.5,0.2-1,0.3-1.5
			c0.1-0.6,0-1.2-0.3-1.7c-0.2-0.3-0.3-0.5-0.4-0.8c-0.1-0.3-0.4-0.4-0.6-0.4c-2.2,0-4.3,0-6.5,0.5c-2.4,0.5-4.7,1.3-7,2.2
			c-4.9,2-10,3.4-15.2,4.5c-2.5,0.5-5.1,0.9-7.6,1.4c-4.4,0.8-8.9,1.7-13.3,2.4c-1.7,0.3-3.3,0.8-4.9,1.6c-0.2,0.1-0.5,0.2-0.8,0.2
			c-1.2,0.2-2.4,0.3-3.6,0.6c-0.2,0.1-0.4,0.1-0.7,0.1c-1.1,0-2.2,0.1-3.2,0.3c-1.2,0.2-2.4,0.4-3.6,0.6c-2.4,0.4-4.9,0.9-7.3,1.5
			c-3.7,1.1-7.5,1.6-11.4,1.6c-2.7,0-5.3,0.2-8,0.5c-0.3,0-0.6,0-0.9,0.2c-0.7,0.5-1.4,0.6-2.2,0.7c-2.1,0.3-4.2,0.5-6.3,0.8
			c-1.2,0.2-2.4,0.4-3.6,0.5c-1.9,0.2-3.8,0.3-5.7,0.5c-0.8,0.1-1.6,0.1-2.4,0.1c-0.6,0-1.3-0.1-1.9-0.3c-0.2,0-0.5-0.2-0.4-0.4
			c0.1-0.2,0.3-0.3,0.6-0.3c0.3,0,0.5,0.1,0.8,0.1c1,0.1,2.1,0.2,3-0.4c0.2-0.2,0.5-0.1,0.8-0.1c0.8,0,1.5,0,2.3,0c1,0.1,2,0,3-0.1
			c2.7-0.3,5.3-0.9,8-1.6c3.3-0.8,6.6-1.1,9.9-1.3c2.7-0.1,5.4,0,8.1-0.8c1-0.3,1.9-0.4,2.9-0.6c1.6-0.3,3.1-0.7,4.7-0.8
			c0.3,0,0.6-0.1,0.9-0.2c1.3-0.4,2.7-0.9,4.1-0.5c0.2,0.1,0.5,0,0.8-0.1c1.1-0.3,2.2-0.3,3.3-0.5c0.7-0.1,1.4-0.2,2.1-0.3
			c2.2-0.5,4.3-0.9,6.5-1.4c0.2,0,0.4-0.1,0.6-0.2c1.3-0.7,2.7-0.8,4-1.1c1.9-0.4,3.8-0.7,5.7-1.1c4.2-0.8,8.4-1.6,12.6-2.4
			c5.2-1,10.4-2.2,15.4-4.1c1.4-0.6,3-0.9,4.2-2c0,0,0.1,0,0.1-0.1c0.8-0.5,1.7-0.8,2.7-1c2-0.4,3.9-0.5,5.9-0.7
			c1.3-0.1,2.5,0.4,3.8,0c0.1,0,0.3,0.1,0.4,0.1c0.3,0,0.5,0.1,0.8,0.1c1.3,0,2.2-1.1,2-2.3c-0.2-1.5-0.5-2.9-1.4-4.2
			c-0.2-0.2-0.3-0.5-0.4-0.7c-0.4-0.9-1-1.7-1.6-2.5c-0.6-0.8-1.2-1.5-2.2-1.6c-0.1,0-0.2-0.1-0.4-0.2c-0.6-0.4-1.3-0.6-2.1-0.6
			c-1,0-1.9-0.3-2.8-0.4c-1.9-0.3-3.7-1.1-5.6-1.4c0,0-0.1,0-0.1,0c-1.5-0.4-3-0.8-4.6-1.2c-0.9-0.2-1.7-0.5-2.6-0.7
			c-1.6-0.3-3.2-0.6-4.8-0.9c-3-0.6-6.1-0.9-9.1-1.3c-1.9-0.2-3.9-0.4-5.8-0.6c-3.1-0.4-6.3-0.8-9.4-1.3c-2.1-0.3-4.2-0.7-6.3-1
			c-1.8-0.3-3.6-0.5-5.4-0.7c-2-0.2-4-0.4-5.9-0.9c-0.4-0.1-0.9-0.2-1.3-0.2c-1.3-0.1-2.6-0.3-3.8-0.9c-1-0.5-2.2-0.9-3.3-1.2
			c-1.1-0.3-2.2-0.3-3.3-0.5c-0.3,0-0.5,0.2-0.4,0.5c0.1,0.3,0.3,0.7,0.1,1c-0.3,0.7-0.8,1.1-1.5,1.3c-0.1,0-0.3,0-0.4-0.1
			c0-0.1,0-0.3,0.1-0.3c0.3-0.3,0.7-0.6,1-0.9c0.1-0.1,0.2-0.3,0-0.5c-0.5-0.6-0.9-1.2-1.4-1.8c-1.4,1.4-2.9,2.4-4.7,3
			c-1.2,0.4-2.5,0.5-3.7,0.2c-0.3-0.1-0.6-0.2-0.9-0.1C463.2,17.2,463,17.2,462.7,17.3z M464.6,11.5c-0.8-0.1-1.5,0.1-2.3,0.3
			c-0.9,0.3-1.5,0.9-1.8,1.8c-0.1,0.3-0.1,0.6,0.2,0.8c0.7,0.7,1.5,1.3,2.4,1.8c1.1,0.5,2.2,0.8,3.4,0.6c1.9-0.4,3.5-1.4,5.1-2.5
			c0.2-0.1,0.2-0.3,0-0.5c-0.5-0.6-1.2-1-1.9-1.3C468.1,11.9,466.4,11.6,464.6,11.5z M475.7,14.2c0.8,0.1,1.4,0.2,2.1,0.3
			c1.2,0.3,2.4,0.4,3.4,1.2c0.2,0.2,0.5,0.2,0.7,0.4c0.1,0.1,0.3,0.1,0.3-0.1c0-0.1,0-0.3-0.1-0.4c-0.1-0.1-0.2-0.2-0.3-0.3
			c-1.1-0.9-2.4-1.6-3.9-1.7C477.3,13.6,476.5,13.7,475.7,14.2z"/>
		<path d="M375,108.2c-0.6,0.6-1.4,0.7-2.1,0.9c-1.7,0.4-3.3,0.9-5,1c-0.5,0-1.1,0.2-1.5,0.5c-3.2,2-6.5,3.7-10,5.2
			c-0.9,0.4-1.9,0.9-2.8,1.3c-1.1,0.6-2.3,0.9-3.4,1.3c-0.1-0.3,0.1-0.4,0.3-0.5c0.7-0.5,1.5-0.8,2.3-1.2c3.1-1.4,6.1-2.9,9.2-4.4
			c0.9-0.5,1.8-1,2.7-1.5c0.1-0.1,0.2-0.1,0.3-0.1c0-0.4-0.2-0.4-0.4-0.3c-0.8,0-1.5,0.1-2.3,0.2c-0.3,0-0.6,0.2-0.9,0.3
			c-3.3,1.4-6.6,2.7-10,3.9c-1.3,0.5-2.5,0.9-3.9,1.2c-0.1,0-0.2,0-0.3,0c0-0.4,0.3-0.4,0.5-0.5c1.1-0.6,2.3-1,3.5-1.4
			c2.8-1.1,5.7-2.1,8.5-3.2c0.1,0,0.2-0.1,0.4-0.3c-1.4-0.5-2.5-1.3-3.5-2.2c-0.3-0.2-0.5-0.4-0.6-0.7c-0.1-0.3,0-0.6,0.2-0.7
			c0.3-0.1,0.4,0,0.6,0.2c0.1,0.2,0.2,0.5,0.4,0.7c0.3,0.4,0.6,0.7,1.1,0.6c0.3-0.1,0.5,0.1,0.6,0.4c0,0.3,0.2,0.4,0.4,0.4
			c0.4,0.1,0.7,0.2,1.1,0.2c2,0.1,4.1,0.2,6.1,0c3.1-0.3,6-1.1,9-1.7c0.5-0.1,1,0.1,1.4-0.2c0.9,0.5,1.5-0.2,2.2-0.5
			c0.2-0.1,0.5-0.3,0.7-0.4c0.2-0.1,0.4,0,0.5,0.1c0.1,0,0.1,0.1,0.2,0.2c0,0.1,0,0.2-0.1,0.2c-0.8,0.3-1.6,0.7-2.4,0.9
			c-1,0.3-1.8,0.7-2.6,1.3c-1.4,1.1-3,2-4.6,2.9c-2.2,1.2-4.5,2.3-6.8,3.3c-1.3,0.6-2.1,0.7-2,0.5c0.4-0.6,1.1-0.9,1.7-1.2
			c2.1-1,4.2-2,6.2-3c1.6-0.8,3.1-1.7,4.5-2.7C374.7,108.9,375,108.7,375,108.2C375.1,108.2,375.1,108.3,375,108.2
			C375,108.3,375,108.3,375,108.2z"/>
		<path d="M493.3,25.2c1.8-0.2,3.6-0.2,5.3,0c1.7,0.1,3.3,0.3,5,0.5c1.7,0.2,3.3,0.5,5,0.7c1.9,0.3,3.8,0.5,5.6,0.9
			c1.6,0.3,3.2,0.7,4.8,1.1c2.3,0.6,4.7,1,7.1,1c1.5,0,3.1-0.2,4.6-0.3c0.8-0.1,1.6-0.3,2.4-0.4c0.4-0.1,0.7-0.1,1.1-0.1
			c0.1,0,0.3,0.1,0.2,0.3c0,0.1-0.1,0.2-0.1,0.2c-0.1,0.1-0.2,0.1-0.2,0.1c-1.5,0.4-3.1,0.7-4.7,0.8c-3.7,0.3-7.3,0-10.9-0.9
			c-3.2-0.8-6.3-1.4-9.6-1.8c-2-0.2-3.9-0.7-5.9-0.8c-2-0.2-4-0.3-5.9-0.5c-0.9-0.1-1.8-0.1-2.7-0.2
			C493.9,25.6,493.6,25.6,493.3,25.2z"/>
		<path d="M456.4,49.7c1.6-0.2,3.2-0.5,4.8-0.7c3.6-0.5,7.2-0.3,10.8-0.3c2.3,0.1,4.7,0.3,7,0.4c1.1,0.1,2.3,0.1,3.4,0.1
			c2.6,0,5.1,0,7.7-0.1c1.6,0,3.2-0.1,4.9-0.2c0.4,0,0.9-0.1,1.3,0.4c-0.6,0.3-1.2,0.4-1.8,0.4c-1.2,0-2.4,0.1-3.7,0.1
			c-2.2,0-4.4,0.1-6.6,0.1c-3.3,0-6.7-0.1-10-0.4c-1.5-0.1-3.1-0.1-4.6-0.2c-3.3,0-6.5,0-9.8,0.1c-0.9,0-1.7,0.1-2.6,0.2
			C457,49.8,456.7,49.7,456.4,49.7L456.4,49.7z"/>
		<path d="M65.9,41.6c-1.6,0.6-3.2,0.7-4.9,0.8c-2.7,0.1-5.3,0.3-8,0.5c-0.5,0-0.9,0-1.4,0c-4.3,0.2-8.7,0.4-13,0.4
			c-0.5,0-1.1,0.1-1.6,0.1c-0.3,0-0.5,0-0.8-0.1c-0.2,0-0.4-0.1-0.3-0.4c0-0.1,0.2-0.2,0.3-0.2c0.3,0,0.5,0,0.8,0
			c3.5-0.1,7-0.2,10.6-0.4c3.7-0.2,7.3-0.3,11-0.6c1.2-0.1,2.4-0.2,3.6-0.2C63.5,41.6,64.7,41.6,65.9,41.6z"/>
		<path d="M329.9,111.3c0.9-0.5,1.9-0.6,2.9-0.7c2.8-0.4,5.6-0.7,8.5-1.1c3.4-0.5,6.7-1.2,10-1.9c1-0.2,2-0.4,2.9-0.5
			c0.1,0,0.3,0,0.4,0c0.1,0,0.3,0.1,0.2,0.3c0,0.1-0.1,0.2-0.2,0.3c-0.3,0.1-0.6,0.2-0.9,0.2c-2.7,0.6-5.5,1.1-8.2,1.7
			c-2.4,0.5-4.9,0.9-7.3,1.2c-1.7,0.2-3.5,0.4-5.3,0.6C331.9,111.4,330.9,111.4,329.9,111.3z"/>
		<path d="M388.4,84.5c-0.1-0.2,0-0.3,0.1-0.5c0.4-0.7,0.9-1.4,1.5-1.9c1-0.9,1.9-1.8,2.9-2.6c1.1-0.8,2.2-1.7,3.3-2.6
			c1.3-1.1,2.8-2,4.3-2.8c2.4-1.3,4.8-2.5,7.2-3.8c0.5-0.2,0.9-0.6,1.6-0.3c-0.3,0.6-0.8,0.7-1.3,1c-1.9,1-3.7,2-5.6,2.9
			c-3.1,1.6-5.9,3.7-8.5,6c-1.4,1.2-2.7,2.5-4.1,3.7C389.3,84,389,84.4,388.4,84.5L388.4,84.5z"/>
		<path d="M93,28.8c-1-0.1-1.9-0.4-2.8-0.8c-3-1.3-6.1-2.6-9.2-3.6c-2.5-0.8-5-1.7-7.5-2.4c-1-0.3-1.9-0.5-2.9-0.7
			c-0.2,0-0.3-0.2-0.4-0.3c0,0,0-0.2,0.1-0.2c0.3-0.1,0.6-0.1,0.9,0c2,0.4,4,0.8,5.9,1.5c2.1,0.7,4.2,1.4,6.3,2.1
			c2.1,0.8,4.2,1.7,6.3,2.5c1,0.4,1.9,0.8,2.8,1.3C92.7,28.3,92.9,28.4,93,28.8z"/>
		<path d="M78.3,29.9c-1.3-0.2-2.4-0.4-3.6-0.9c-2.5-0.9-5-1.5-7.5-2.2c-3.4-1-6.8-1.7-10.2-2.6c-0.2,0-0.3-0.1-0.5-0.2
			c-0.1,0-0.1-0.1-0.1-0.2c0-0.1,0-0.2,0.1-0.2c0.5-0.1,1.1,0,1.6,0.1c2.4,0.5,4.8,1.1,7.1,1.7c1.9,0.5,3.9,0.9,5.8,1.5
			c2,0.5,4,1.1,5.9,1.9C77.4,29.2,78,29.3,78.3,29.9z"/>
		<path d="M94.7,18.2c0.3,0.1,0.6,0.1,0.9,0.2c2.2,0.8,4.3,1.7,6.3,2.8c1.3,0.7,2.7,1.4,4.1,2.1c2.2,1.1,4.3,2.3,6.4,3.6
			c1.3,0.8,2.6,1.6,3.9,2.4c0.3,0.2,0.7,0.4,0.9,0.8c0,0.1,0,0.2,0,0.2c0,0.1-0.2,0.1-0.2,0.1c-0.6-0.2-1-0.5-1.5-0.9
			c-2.9-1.9-5.9-3.7-8.9-5.3c-0.6-0.3-1.3-0.6-2-0.9c-2.6-1.2-5-2.6-7.6-3.7c-0.7-0.3-1.5-0.7-2.2-1c-0.1,0-0.1-0.2-0.1-0.2
			C94.5,18.3,94.6,18.3,94.7,18.2z"/>
		<path d="M353,103.4c-0.5,0.4-0.9,0.4-1.4,0.3c-0.4,0-0.9-0.2-1.3-0.1c0,0.3,0.2,0.4,0.4,0.5c0.3,0.2,0.7,0.2,1,0.3
			c0.5,0.2,1.1,0.2,1.6,0.7c-0.6,0.4-1.2,0.4-1.8,0c-0.7-0.5-1.6-0.7-2.1-1.4c-0.2-0.2-0.4-0.2-0.6-0.2c-4-0.3-8-0.4-12-0.2
			c-0.5,0-1,0.1-1.5,0c-0.1,0-0.1-0.1-0.2-0.2c0-0.1,0-0.2,0.1-0.2c0.2-0.1,0.3-0.1,0.5-0.1c2.3-0.3,4.6-0.3,6.9-0.3
			c2.9,0,5.9,0.3,8.8,0.5C351.9,103,352.4,103.1,353,103.4z"/>
		<path d="M238.2,83.8c1.2-0.2,2.1-0.9,3.1-1.5c0.4-0.2,0.7-0.5,1-0.7c0.1-0.1,0.3-0.3,0.5-0.3c0.9,0,1.4-0.6,1.9-1.1
			c0.2-0.2,0.4-0.4,0.6-0.6c1.8-1.6,2.3-3.7,2-6c-0.1-1-0.7-1.8-1.4-2.4c-0.2-0.2-0.3-0.3-0.5-0.5c0,0,0-0.2,0-0.2
			c0,0,0.1-0.1,0.1,0c0.2,0.1,0.3,0.1,0.5,0.2c1.5,1.2,2.2,2.7,2,4.6c-0.1,0.6-0.4,1.3-0.3,1.9c0.1,0.7-0.2,1-0.5,1.4
			c-1.2,1.4-2.3,2.8-3.9,3.7c-0.8,0.5-1.6,1-2.6,1.1c-0.6,0-1.1,0.4-1.6,0.6C238.8,84,238.4,84,238.2,83.8
			C238.2,83.8,238.2,83.8,238.2,83.8z"/>
		<path d="M414.5,58.1c0.1,0,0.2,0,0.2,0.1c0.1,0.1,0.2,0.2,0.2,0.3c0,0-0.1,0.2-0.1,0.2c-0.5,0.2-0.9,0.3-1.4,0.5
			c-1.6,0.4-3.2,0.9-4.8,1.5c-2.4,1-4.6,2.3-6.6,3.9c-0.5,0.4-1,0.9-1.5,1.4c-0.2,0.3-0.5,0.5-0.8,0.7c0,0-0.2,0-0.2,0
			c-0.1-0.1-0.1-0.2-0.1-0.2c0.1-0.2,0.1-0.4,0.3-0.6c0.3-0.5,0.8-1,1.3-1.4c2-1.8,4.2-3.2,6.7-4.3c1.8-0.8,3.6-1.4,5.5-1.8
			C413.7,58.2,414.1,58.1,414.5,58.1z"/>
		<path d="M381.1,90.5c0.2-0.7,0.8-1.1,1.4-1.4c1.3-0.8,2.7-1.7,4.1-2.4c3.1-1.6,6-3.5,8.6-5.8c0.1-0.1,0.3-0.2,0.5-0.2
			c0.1,0,0.2,0,0.2,0.1c0,0,0.1,0.2,0,0.2c-0.3,0.5-0.7,0.8-1.1,1.1c-2.5,2.1-5.2,3.8-8.1,5.3c-1.4,0.7-2.7,1.6-4.1,2.4
			C382.1,90.1,381.7,90.5,381.1,90.5L381.1,90.5z"/>
		<path d="M411.3,17.9c4.4-0.7,8.6,0.3,12.7,1.9c0.8,0.3,1.5,0.6,2.2,1c0.3,0.2,0.6,0.4,0.9,0.6c0,0,0,0.2,0,0.2
			c0,0-0.1,0.1-0.1,0.1c-0.3-0.1-0.5-0.1-0.8-0.2c-1.2-0.4-2.4-0.9-3.5-1.4c-2.6-1-5.3-1.5-8-1.8C413.5,18.2,412.4,18,411.3,17.9z"
			/>
		<path d="M38.6,37c0.4-0.2,0.5-0.3,0.6-0.4c2.4-0.3,4.8-0.6,7.3-0.7c2.6,0,5.2-0.3,7.8-0.3c1.5,0,3.1,0.1,4.6,0.1
			c0.4,0,0.8,0.1,1.2,0.3c-1.1,0.3-2.3,0.1-3.4,0.1c-1.2,0-2.4,0-3.6,0.1c-1.2,0-2.3,0.1-3.5,0.1c-1.2,0-2.3,0.1-3.5,0.2
			c-1.2,0.1-2.4,0.1-3.6,0.2C41.1,36.8,40,36.7,38.6,37z"/>
		<path d="M544,31.6c-0.7,0-1.5-0.1-2.4-0.3c-0.2,0-0.4-0.2-0.6-0.3c-0.2-0.1-0.2-0.5-0.1-0.6c0.1-0.1,0.2-0.2,0.3-0.3
			c0.2-0.1,0.4-0.2,0.6-0.2c1.6-0.2,3.1-0.4,4.7-0.5c0.5,0,0.6,0.2,0.6,0.6c0,0.5-0.3,0.8-0.7,1.1C545.8,31.7,545,31.6,544,31.6z"/>
		<path d="M124.1,30.4c-0.9-0.2-1.8-0.3-2.6-0.7c-1.9-0.9-3.8-1.9-5.4-3.3c-1.1-0.9-2.3-1.6-3.5-2.3c-0.6-0.3-1.2-0.7-1.7-1.1
			c-0.1-0.1-0.1-0.2-0.1-0.2c0-0.1,0.1-0.1,0.2-0.1c0.2,0,0.4,0.1,0.6,0.2c1.6,0.9,3.3,1.8,4.7,2.9c1.4,1.2,3,2.1,4.7,3
			C122.2,29.2,123.2,29.7,124.1,30.4z"/>
		<path d="M428,49.8c-0.8,0.8-1.9,1.2-2.8,1.8c-1,0.6-1.9,1.3-2.6,2.3c-0.6,0.9-0.7,1.8-0.3,2.8c0.5,1.2,1.3,2.3,2.5,2.9
			c0.2,0.1,0.3,0.3,0.2,0.4c-0.1,0.2-0.3,0.3-0.5,0.2c-0.8-0.3-1.4-0.8-1.9-1.5c-0.3-0.5-0.6-1-0.9-1.5c-0.6-1.1-0.5-2.2,0-3.2
			c0.5-1.1,1.3-1.9,2.3-2.6c1-0.7,2.1-1.2,3.3-1.6C427.6,49.8,427.8,49.8,428,49.8L428,49.8z"/>
		<path d="M406.8,33.3c0.3-1,0.9-1.6,1.4-2.1c1.2-1,2.4-2.1,3.7-3c0.6-0.4,1.3-0.8,2-1.1c0.2-0.1,0.4-0.1,0.7-0.1
			c0.3,0,0.4,0.2,0.5,0.4c0.1,0.2,0,0.5-0.3,0.6c-2,0.6-3.4,1.9-5,3.1c-0.6,0.4-1.1,0.9-1.7,1.4C407.8,32.7,407.4,33,406.8,33.3z"/>
		<path d="M79.6,17.8c0.1-0.4,0.4-0.4,0.6-0.4c0.8-0.1,1.5,0,2.3,0.2c2.8,0.8,5.6,1.5,8.4,2.6c0.6,0.2,1.2,0.5,1.7,0.9
			c-1.1-0.1-2.1-0.5-3.1-0.8c-2.1-0.7-4.1-1.3-6.2-1.9C82.1,18.1,80.8,17.8,79.6,17.8z"/>
		<path d="M386.6,35c0.8-0.7,1.3-1.5,2.1-2.2c1.6-1.4,3.4-2.7,5.2-3.8c0.5-0.3,1-0.4,1.5-0.6c0.1,0,0.3,0,0.4,0.1
			c0.1,0.2,0,0.3-0.2,0.4c-0.2,0.1-0.3,0.2-0.5,0.3c-2.3,1.3-4.5,2.8-6.5,4.6c-0.5,0.4-1,0.8-1.5,1.2
			C387.1,35.2,386.8,35.1,386.6,35L386.6,35z"/>
		<path d="M251.4,39.5c1-1.2,2-2,3.2-2.6c1.1-0.6,2.2-1,3.3-1.6c0.1,0,0.2-0.1,0.3-0.1c0.6-0.1,1.1-0.1,1.1,0.2
			c0,0.5-0.5,0.5-0.8,0.6c-1.8,0.8-3.6,1.7-5.3,2.7C252.6,39,252.1,39.3,251.4,39.5z"/>
		<path d="M334.9,33.6c0.5-0.6,1.1-1.1,1.7-1.5c1.6-1.1,3.2-1.9,5-2.6c0.2-0.1,0.4-0.1,0.7,0c0.1,0,0.1,0.1,0.2,0.2
			c0,0.1,0,0.2,0,0.2c-0.1,0.1-0.2,0.2-0.3,0.3c-2.2,1.1-4.3,2.3-6.5,3.3C335.4,33.5,335.2,33.7,334.9,33.6z"/>
		<path d="M314.2,35.6c0.4-0.8,1-1.2,1.7-1.7c1.5-1,3-1.9,4.7-2.6c0.1-0.1,0.2-0.1,0.4-0.2c0.2-0.1,0.4-0.1,0.6,0
			c0.1,0.1,0,0.4-0.3,0.6c-1.4,0.8-2.8,1.6-4.2,2.5c-0.8,0.5-1.6,0.9-2.3,1.3C314.6,35.6,314.4,35.7,314.2,35.6z"/>
		<path d="M304.3,36.3c-0.1-0.2,0-0.3,0.1-0.5c0.4-0.4,0.8-0.8,1.3-1.2c1.7-1.3,3.6-2.3,5.6-3.2c0.2-0.1,0.5-0.2,0.8-0.2
			c0.1,0,0.2,0.1,0.2,0.1c0,0.1,0,0.2,0,0.3c-0.1,0.1-0.2,0.3-0.4,0.3c-1.4,0.8-2.9,1.5-4.3,2.3c-0.9,0.5-1.8,1.1-2.6,1.6
			C304.8,36.1,304.6,36.3,304.3,36.3L304.3,36.3z"/>
		<path d="M90.5,24.9c1.3,0.3,2.8,0.5,4.1,1.1c1.3,0.6,2.6,1.2,3.9,1.8c0.2,0.1,0.3,0.2,0.4,0.3c0.1,0,0.1,0.2,0.1,0.2
			c0,0.1-0.1,0.2-0.2,0.1c-0.4-0.1-0.7-0.1-1-0.2c-2.4-1.2-4.9-2.1-7.4-2.9c-0.1,0-0.2-0.1-0.2-0.1c-0.1-0.1-0.1-0.1-0.1-0.2
			c0-0.1,0.1-0.1,0.1-0.2C90.3,24.9,90.4,24.9,90.5,24.9z"/>
		<path d="M172.5,99.1c0.8-0.7,1.7-1,2.7-1.4c1.8-0.6,3.7-1.2,5.5-1.9c0.8-0.3,1.5-0.6,2.2-1c0.1,0,0.2,0,0.2,0.1c0,0,0,0.2-0.1,0.2
			c-0.4,0.4-1,0.7-1.5,0.9c-2.7,1.2-5.5,2.2-8.4,3C172.9,99.1,172.7,99.1,172.5,99.1z"/>
		<path d="M383.7,29.5c0,0.2-0.2,0.3-0.3,0.4c-0.8,0.5-1.5,1.1-2.2,1.7c-0.7,0.6-1.4,1.3-2.1,1.9c-0.3,0.3-0.6,0.6-1,0.9
			c-0.3,0.2-0.5,0.6-0.9,0.4c0-0.4,0.2-0.7,0.4-0.9c1.5-1.6,2.9-3.2,4.8-4.3c0.3-0.2,0.6-0.4,1-0.4
			C383.5,29.2,383.6,29.3,383.7,29.5z"/>
		<path d="M457,26.1c0.6-0.9,1.5-1.4,2.4-1.8c2.5-1.2,5.2-1.9,7.9-2.2c0.4,0,0.7,0,1.1,0c0.1,0,0.2,0.1,0.1,0.2
			c0,0.1-0.1,0.2-0.1,0.2c-0.2,0.1-0.3,0.1-0.5,0.1c-1.9,0.1-3.7,0.5-5.4,1.1c-1.2,0.4-2.4,0.8-3.5,1.4
			C458.3,25.5,457.7,25.8,457,26.1z"/>
		<path d="M91.6,55c0.8-0.7,1.7-1.1,2.7-1.5c1.2-0.5,2.4-0.9,3.6-1.4c0.4-0.1,0.7-0.3,1.2-0.2c0.1,0,0.2,0.1,0.2,0.1
			c0,0.1,0,0.3-0.1,0.3c-0.5,0.2-1,0.5-1.5,0.7C95.8,53.9,93.8,54.6,91.6,55z"/>
		<path d="M366,35.6c0.2-0.1,0.4-0.3,0.5-0.5c1.1-1.7,2.6-3.1,4.1-4.5c0.3-0.2,0.6-0.4,0.9-0.6c0.5-0.3,1.1-0.4,1.1-0.2
			c0,0.4-0.4,0.6-0.7,0.8c-1.3,1-2.5,2.1-3.5,3.3c-0.5,0.6-1.1,1.1-1.7,1.6C366.4,35.6,366.2,35.7,366,35.6L366,35.6z"/>
		<path d="M345.9,34c-0.1-0.2-0.1-0.3,0-0.5c0.3-0.3,0.5-0.6,0.9-0.8c1.5-1,3.1-1.8,4.8-2.6c0.2-0.1,0.3-0.1,0.5-0.2
			c0.2-0.1,0.4,0,0.4,0.2c0.1,0.2-0.1,0.3-0.2,0.4c-0.1,0.1-0.1,0.1-0.2,0.2c-1.5,0.8-2.9,1.6-4.4,2.4
			C347.2,33.4,346.4,33.4,345.9,34L345.9,34z"/>
		<path d="M239.4,39.1c0.4-0.6,0.8-1,1.3-1.2c1.2-0.7,2.4-1.3,3.6-1.9c0.2-0.1,0.4-0.2,0.6-0.3c0.3-0.1,0.5-0.2,0.8,0
			c0.1,0.1-0.1,0.5-0.4,0.7c-1.3,0.8-2.6,1.5-3.9,2.1C240.7,38.8,240.2,39.1,239.4,39.1z"/>
		<path d="M165.3,96.4c0.9-0.5,1.6-0.7,2.4-0.9c2.3-0.7,4.5-1.4,6.8-2.3c0.3-0.1,0.6-0.3,0.9-0.3c0.1,0,0.2,0.1,0.2,0.1
			c0,0.1,0,0.2-0.1,0.2c-0.2,0.1-0.4,0.2-0.6,0.3c-2.6,1-5.2,1.9-7.9,2.7C166.5,96.4,166,96.5,165.3,96.4z"/>
		<path d="M343.5,112.6c0,0.2-0.1,0.3-0.3,0.4c-0.9,0.2-1.8,0.5-2.8,0.6c-1.7,0.3-3.4,0.5-5.1,0.7c-0.1,0-0.3,0-0.4,0
			c-0.1,0-0.2-0.2-0.2-0.3c0,0,0.1-0.2,0.1-0.2c0.3-0.1,0.5-0.1,0.8-0.2c2.5-0.3,4.9-0.6,7.4-0.8
			C343.2,112.7,343.4,112.6,343.5,112.6L343.5,112.6z"/>
		<path d="M262,38.8c1-1.4,2.2-2,3.5-2.7c0.6-0.3,1.3-0.6,2-0.8c0.2-0.1,0.3-0.1,0.5-0.1c0.1,0,0.3,0,0.3,0.2c0,0.1,0,0.2-0.1,0.2
			c-0.2,0.2-0.4,0.3-0.7,0.5c-1.6,0.8-3.2,1.7-4.8,2.5C262.5,38.6,262.4,38.6,262,38.8z"/>
		<path d="M284.1,37.7c1.5-1.7,3.4-2.7,5.4-3.5c0.2-0.1,0.4-0.1,0.6-0.2c0.2,0,0.4,0.1,0.4,0.3c0,0.1-0.1,0.2-0.2,0.3
			c0,0.1-0.1,0.1-0.2,0.1c-1.9,0.6-3.4,1.7-5.2,2.5C284.7,37.5,284.4,37.6,284.1,37.7z"/>
		<path d="M85.7,66.2c-0.1-0.3,0.1-0.4,0.3-0.5c1.2-0.6,2.5-1,3.8-1.4c0.8-0.3,1.5-0.5,2.3-0.7c0.2-0.1,0.3-0.1,0.5-0.1
			c0.1,0,0.2,0.1,0.3,0.2c0.1,0.1,0,0.3-0.1,0.3c-0.1,0.1-0.3,0.2-0.5,0.2c-1.4,0.5-2.8,1-4.2,1.3C87.3,65.7,86.5,66,85.7,66.2
			L85.7,66.2z"/>
		<path d="M399.8,33.5c0-0.6,0.4-1,0.7-1.4c1.2-1.5,2.7-2.8,4.4-3.7c0.2-0.1,0.4-0.1,0.6-0.1c0.1,0,0.1,0.1,0.2,0.2
			c0,0.1,0,0.2,0,0.3c0,0-0.1,0.1-0.1,0.1c-2,1-3.6,2.6-5.2,4.3C400.3,33.3,400.1,33.5,399.8,33.5L399.8,33.5z"/>
		<path d="M353.2,99.1c-0.5,0.3-1,0.3-1.6,0.3c-1.5-0.2-3-0.2-4.5-0.2c-0.5,0-0.8-0.2-0.7-0.4c0.1-0.3,0.4-0.3,0.7-0.4
			c1.8-0.1,3.5,0.1,5.3,0.3C352.6,98.7,352.9,98.8,353.2,99.1z"/>
		<path d="M36.5,40.1c-1,0.5-1.8,0.5-2.6,0.6c-1.4,0.2-2.9,0.2-4.3,0.3c-0.1,0-0.4,0.1-0.4-0.2c0-0.2,0.2-0.3,0.4-0.3
			c0.8-0.2,1.7-0.4,2.5-0.5C33.5,40,34.9,39.9,36.5,40.1z"/>
		<path d="M292.1,36.5c0.5-0.4,0.8-0.8,1.2-1c1.2-0.9,2.5-1.7,3.9-2.4c0.1-0.1,0.3-0.1,0.4-0.1c0.1,0,0.3,0,0.3,0.2
			c0,0.1,0,0.2-0.1,0.2c0,0.1-0.1,0.1-0.2,0.2c-1.6,1-3.1,1.9-4.7,2.9C292.8,36.6,292.6,36.8,292.1,36.5z"/>
		<path d="M101.9,25c-0.4,0.1-0.7,0-1-0.1c-1.6-0.5-3.2-1-4.8-1.4c-0.4-0.1-0.9-0.2-1.3-0.3c-0.2-0.1-0.5-0.1-0.4-0.4
			c0.1-0.3,0.4-0.2,0.6-0.2c0.6,0.1,1.2,0.3,1.8,0.4c1.6,0.5,3.3,1,4.8,1.8C101.7,24.9,101.8,25,101.9,25L101.9,25z"/>
		<path d="M322.5,35.2c-0.1,0-0.1,0-0.1-0.1c0-0.1-0.1-0.2,0-0.2c0.2-0.4,0.6-0.8,1-1.1c0.9-0.6,1.8-1.1,2.8-1.6
			c0.1-0.1,0.3-0.1,0.5-0.1c0.1,0,0.2,0.1,0.2,0.1c0,0.1,0,0.3,0,0.4c-0.1,0.1-0.2,0.2-0.3,0.3c-1.2,0.7-2.4,1.5-3.6,2.2
			C322.8,35.2,322.7,35.2,322.5,35.2z"/>
		<path d="M273.7,37.4c0.2-0.5,0.6-0.9,1-1.1c0.9-0.5,1.9-1,2.9-1.5c0.2-0.1,0.4-0.1,0.7-0.1c0.2,0,0.2,0.2,0.1,0.3
			c0,0.1-0.1,0.2-0.3,0.3c-1.3,0.8-2.6,1.5-4.1,2.1C274,37.5,273.9,37.6,273.7,37.4z"/>
		<path d="M171.9,88.8c-0.8,0.2-1.7,0.3-2.5,0.5c-1.3,0.2-2.6,0.4-3.9,0.7c-0.1,0-0.3,0-0.4-0.1c0,0,0-0.2,0-0.2
			c0-0.1,0.1-0.1,0.2-0.2C167.5,88.8,169.7,88.4,171.9,88.8z"/>
		<path d="M211,39.3c1-1.4,2.3-1.7,3.5-2.3c0.2-0.1,0.3-0.1,0.5-0.2c0.5-0.2,0.9-0.1,0.9,0.2c0,0.4-0.4,0.4-0.7,0.5
			c-0.7,0.3-1.3,0.6-2,0.9C212.6,38.8,211.9,39,211,39.3z"/>
		<path d="M93.9,15c0.4-0.5,0.7-0.4,1-0.4c2.1,0.3,4.1,0.9,6.1,1.6c-0.1,0.3-0.3,0.2-0.4,0.2c-0.1,0-0.3,0-0.4,0
			c-1.2-0.3-2.4-0.5-3.5-0.8C95.8,15.3,95,15,93.9,15z"/>
		<path d="M175.4,39.9c0.5-0.6,0.7-1,1.1-1.2c0.7-0.4,1.4-0.8,2.2-1.1c0.2-0.1,0.4-0.2,0.6-0.1c0.2,0.1,0.3,0.2,0.3,0.4
			c0,0.1-0.1,0.3-0.2,0.3C178.2,38.7,177.1,39.5,175.4,39.9z"/>
		<path d="M231.3,38.5c0.2-0.4,0.6-0.7,1-0.9c1-0.5,2-0.9,3.1-1.3c0.2-0.1,0.5-0.1,0.8,0c0.1,0,0.1,0.1,0.2,0.2c0,0.1,0,0.2-0.1,0.2
			c0,0.1-0.1,0.1-0.2,0.2c-1.4,0.6-2.9,1.2-4.3,1.8C231.6,38.6,231.5,38.7,231.3,38.5z"/>
		<path d="M388.4,71.9c-0.6-0.2-0.8-0.6-1-1c-0.5-1.4-0.5-2.8-0.1-4.2c0-0.1,0.1-0.1,0.2-0.2c0,0,0.1,0,0.1,0c0.1,0,0.2,0,0.2,0.1
			c0,0.4,0.1,0.7,0,1.1c-0.3,1.2,0,2.3,0.4,3.4C388.2,71.3,388.3,71.5,388.4,71.9z"/>
		<path d="M471.2,22.4c0.5-0.5,1-0.7,1.4-0.9c0.6-0.3,1.2-0.6,1.8-0.9c0.8-0.5,1.5-1.1,1.4-2.3c0-0.1,0.1-0.2,0.1-0.2
			c0.1,0.1,0.3,0.1,0.3,0.2c0.1,0.3,0.1,0.6,0,0.9c-0.1,0.3-0.3,0.7-0.5,0.9C474.9,21.1,472.8,22.1,471.2,22.4z"/>
		<path d="M223.3,37.1c0,0.1-0.1,0.2-0.1,0.2c-1.1,0.6-2.2,1.2-3.4,1.6c-0.1,0-0.2,0-0.3,0c-0.1,0-0.1-0.1-0.2-0.1c0,0,0-0.1,0-0.1
			c0.1-0.2,0.3-0.4,0.4-0.5c0.9-0.6,1.9-1,2.9-1.4c0.2-0.1,0.4,0,0.5,0.1C223.2,37,223.3,37.1,223.3,37.1z"/>
		<path d="M207.2,94c0-0.4,0.3-0.6,0.5-0.7c0.6-0.4,1.2-0.8,1.8-1.2c0.8-0.5,1.5-1.1,2.2-1.8c0.4-0.4,0.8-0.8,1.4-1
			c0.2,0.1,0.1,0.3,0,0.3c-1.5,1.3-3,2.7-4.7,3.8C208,93.7,207.7,94.1,207.2,94L207.2,94z"/>
		<path d="M202.5,84.4c0.1,0,0.1-0.1,0.2-0.1c0.2,0,0.4,0,0.5,0c2.1,0.6,4.4,0.4,6.5,0.9c-1,0.2-2,0.2-3,0.1
			c-1.4-0.2-2.8-0.2-4.1-0.7C202.6,84.6,202.5,84.4,202.5,84.4z"/>
		<path d="M202.9,38.9c1.2-1.1,2.4-1.6,3.7-1.8c0.1,0,0.2,0,0.3,0.1c0.1,0,0.1,0.1,0.2,0.2c0,0.1,0,0.2-0.1,0.2
			C205.6,38,204.6,38.9,202.9,38.9z"/>
		<path d="M193.5,37.7c0,0.1-0.1,0.2-0.1,0.2c-1.1,0.4-2.1,0.9-3.2,1.3c-0.1,0.1-0.3,0-0.3-0.1c0-0.1,0-0.2,0.1-0.2
			c0.9-0.8,1.9-1.3,3.1-1.5C193.1,37.3,193.5,37.6,193.5,37.7z"/>
		<path d="M455.8,23.2c-2-0.1-3.7-0.4-5.3-1.1c-0.2-0.1-0.4-0.2-0.5-0.4c0,0,0-0.1,0-0.1c0,0,0.1-0.1,0.1-0.1c0.1,0,0.3,0,0.4,0.1
			c1.2,0.6,2.5,0.9,3.9,1.1C454.8,22.8,455.2,22.8,455.8,23.2z"/>
		<path d="M360.7,32.7c0,0.1-0.1,0.3-0.1,0.3c-0.7,0.8-1.4,1.5-2.1,2.3c-0.1,0.1-0.3,0.2-0.3,0.1c-0.2-0.1-0.1-0.3-0.1-0.5
			c0,0,0-0.1,0.1-0.1c0.6-0.9,1.4-1.6,2.2-2.3c0.1,0,0.2-0.1,0.3,0C360.6,32.5,360.6,32.6,360.7,32.7z"/>
		<path d="M76.3,24.9c-0.8,0.2-1.5-0.1-2.2-0.2c-1-0.2-2-0.5-3-0.7c-0.1,0-0.3-0.1-0.3-0.2c0-0.2,0.2-0.2,0.3-0.1
			c1.5,0.3,2.9,0.6,4.3,1C75.8,24.6,76.1,24.8,76.3,24.9z"/>
		<path d="M463.6,18.1c0.1,0,0.2,0,0.3,0c1.5,0.7,3,0.5,4.4-0.3c0.3,0.2,0.1,0.3-0.1,0.4c-1.3,0.9-2.7,1-4.1,0.6
			C463.7,18.6,463.5,18.4,463.6,18.1C463.6,18,463.6,18.1,463.6,18.1z"/>
		<path d="M61.6,32c0.5-0.4,1-0.4,1.4-0.4c0.4,0,0.9,0,1.3,0.3c0.1,0,0.1,0.1,0.1,0.2c0,0.2-0.1,0.3-0.2,0.3
			C63.4,32.5,62.6,32.3,61.6,32z"/>
		<path d="M180.7,40c-0.1-0.1-0.2-0.1-0.2-0.1c0,0,0-0.1,0-0.1c0.1-0.1,0.1-0.2,0.2-0.3c0.5-0.4,1.1-0.7,1.7-1c0.1,0,0.3,0,0.4,0.1
			c0.1,0.2,0,0.3-0.1,0.4C182.1,39.4,181.4,39.8,180.7,40z"/>
		<path d="M72.4,68.2c-0.2,0-0.2,0-0.3,0c-0.2,0-0.6,0.3-0.7-0.1c-0.1-0.3,0.3-0.3,0.5-0.4c0.7-0.3,1.4-0.4,2.1-0.3
			c0.1,0,0.2,0.1,0.2,0.1c0,0.1-0.1,0.2-0.1,0.2C73.6,68.1,73,68.2,72.4,68.2z"/>
		<path d="M462.8,17.2c0.1,0.3,0.3,0.3,0.5,0.3c-0.1,0.3,0.3,0.3,0.3,0.6c0,0,0,0,0,0c-0.1,0-0.2,0.1-0.3,0c-1.2-0.5-2.4-1.2-3.5-2
			c-0.1-0.1-0.2-0.2-0.1-0.3c0.1-0.1,0.2,0,0.4,0c0.5,0.3,1,0.7,1.6,1c0.1,0.1,0.3,0.1,0.5,0.2C462.3,17.3,462.5,17.2,462.8,17.2z"
			/>
		<path d="M454.5,20c0,0,0.1,0,0.1,0c0.7,0.6,1.6,0.9,2.5,1.3c0.1,0,0.2,0.1,0.2,0.2c0,0.1,0.1,0.1,0.1,0.2c0,0-0.1,0.1-0.1,0
			c-1.1-0.2-2.1-0.5-2.8-1.4C454.4,20.3,454.4,20.1,454.5,20z"/>
		<path d="M460.2,21.2c-0.5,0.2-0.9-0.1-1.1-0.2c-0.7-0.3-1.3-0.8-1.9-1.2c-0.1,0-0.1-0.2-0.1-0.2c0-0.1,0.1-0.1,0.2-0.1
			c0.2,0,0.4,0,0.5,0.1C458.5,20.1,459.3,20.6,460.2,21.2z"/>
		<path d="M360.4,30.2c0,0.1,0,0.2-0.1,0.2c-0.5,0.4-1,0.7-1.6,0.9c-0.1,0-0.2,0-0.2-0.1c0,0,0-0.2,0-0.2c0.4-0.6,0.9-0.9,1.5-1
			C360.1,29.9,360.3,30,360.4,30.2z"/>
		<path d="M455.4,17.8c-0.5-0.4-0.5-0.8-0.7-1.2c-0.2-0.5,0-0.9,0.3-1.2c0.1-0.1,0.4-0.3,0.4-0.2c0.3,0.2,0.1,0.4-0.1,0.5
			c-0.3,0.3-0.3,0.7-0.2,1C455.3,17,455.3,17.3,455.4,17.8z"/>
		<path d="M55.5,57.2c0.9-0.5,1.8-0.5,2.8-0.7C57.7,57.1,57,57.3,55.5,57.2z"/>
		<path d="M109.5,71.4c-0.5,0.4-1,0.7-1.6,0.5c-0.1,0-0.2-0.1-0.3-0.2c-0.1-0.2,0.1-0.4,0.2-0.4C108.4,71.2,109,71.2,109.5,71.4z"/>
		<path d="M206.9,70.2c0-0.8,0.1-0.9,0.7-0.8c0.1,0,0.3,0.1,0.3,0.2c0.1,0.2,0,0.3-0.1,0.5c-0.1,0.1-0.2,0.2-0.3,0.3
			c-0.1,0.1-0.2,0.3-0.4,0.2C206.9,70.4,206.9,70.2,206.9,70.2z"/>
		<path d="M475.3,18.4c0,0.1-0.1,0.2-0.1,0.2c-0.3,0.3-0.8,0.4-1.2,0.6c-0.1,0-0.3,0.1-0.4,0c-0.1-0.2,0.1-0.3,0.2-0.4
			c0.4-0.2,0.8-0.4,1.2-0.5C475.1,18.3,475.2,18.4,475.3,18.4z"/>
		<path d="M179.2,69.5c0,0.1-0.1,0.3-0.4,0.4c-0.3,0.1-0.6-0.2-0.6-0.4c0-0.2,0.3-0.5,0.5-0.5C179,69,179.2,69.1,179.2,69.5z"/>
		<path d="M148.5,67.1c-0.2-0.1-0.4-0.2-0.4-0.4c0-0.3,0.3-0.5,0.6-0.4c0.2,0,0.4,0.3,0.3,0.5C149,66.9,148.7,67.1,148.5,67.1z"/>
		<path d="M191.7,77.7c-0.2,0-0.3,0-0.5-0.1c0,0-0.1-0.1-0.1-0.1c0,0,0-0.1,0-0.1c0.4-0.3,1.1-0.3,1.4,0c0,0,0,0.1,0,0.1
			c0,0,0,0.1-0.1,0.1C192.3,77.7,192,77.7,191.7,77.7z"/>
		<path d="M136.4,64.5c0.3,0,0.5,0.1,0.5,0.4c0.1,0.3-0.2,0.5-0.4,0.6c-0.3,0-0.5-0.2-0.5-0.5C136,64.6,136.2,64.5,136.4,64.5z"/>
		<path d="M381,71.1c-0.1,0.2-0.2,0.4-0.4,0.4c-0.3,0-0.5-0.2-0.5-0.5c0.1-0.2,0.2-0.4,0.5-0.3C380.8,70.7,381,70.9,381,71.1z"/>
		<path d="M379.4,69c0.2,0.1,0.4,0.2,0.3,0.5c0,0.3-0.2,0.4-0.4,0.4c-0.3,0-0.5-0.3-0.4-0.5C379,69.1,379.2,68.9,379.4,69z"/>
		<path d="M264.1,81.2c0,0.2-0.1,0.3-0.4,0.4c-0.2,0.1-0.5-0.2-0.5-0.5c0-0.3,0.2-0.4,0.4-0.4C263.9,80.7,264.1,80.9,264.1,81.2z"/>
		<path d="M389.1,62.6c0,0.2-0.3,0.4-0.5,0.3c-0.2-0.1-0.3-0.2-0.3-0.4c0-0.2,0.2-0.4,0.5-0.3C389,62.3,389.1,62.4,389.1,62.6z"/>
		<path d="M207.9,71.7c0,0.2-0.1,0.3-0.3,0.4c-0.3,0-0.5-0.1-0.4-0.4c0-0.2,0.1-0.3,0.3-0.4C207.7,71.3,207.9,71.5,207.9,71.7z"/>
		<path d="M340.1,80.8c0.2,0,0.4,0.3,0.3,0.5c-0.1,0.2-0.2,0.3-0.4,0.2c-0.2,0-0.3-0.2-0.3-0.4C339.6,80.9,339.9,80.7,340.1,80.8z"
			/>
		<path d="M304.9,81.9c0,0.2-0.3,0.4-0.5,0.3c-0.2,0-0.3-0.1-0.3-0.3c0-0.2,0.2-0.4,0.4-0.4C304.7,81.4,304.9,81.6,304.9,81.9z"/>
		<path d="M429.3,88c0,0.1-0.2,0.3-0.4,0.2c-0.3-0.1-0.3-0.2-0.3-0.5c0-0.2,0.2-0.3,0.4-0.3C429.2,87.5,429.4,87.6,429.3,88z"/>
		<path d="M171.6,69.3c0,0.3-0.2,0.4-0.4,0.4c-0.2,0-0.5-0.3-0.4-0.5c0.1-0.2,0.2-0.4,0.5-0.3C171.5,69,171.6,69.1,171.6,69.3z"/>
		<path d="M225,72.3c0.2,0,0.4,0.2,0.4,0.4c0,0.2-0.1,0.3-0.3,0.3c-0.2,0-0.5-0.2-0.5-0.4C224.6,72.5,224.7,72.4,225,72.3z"/>
		<path d="M440.2,85.1c0,0.3-0.1,0.5-0.4,0.5c-0.2,0-0.3-0.1-0.4-0.3c0-0.2,0.1-0.5,0.4-0.4C440.1,84.8,440.2,84.9,440.2,85.1z"/>
		<path d="M110.1,29.9c0,0,0,0.1-0.1,0.1c-0.2,0.1-0.9-0.1-1-0.3c-0.1-0.1,0-0.2,0.1-0.2c0.4-0.1,0.7,0,0.9,0.3
			C110.1,29.8,110.1,29.9,110.1,29.9z"/>
		<path d="M175.4,70.3c-0.2-0.1-0.3-0.2-0.3-0.5c0-0.3,0.2-0.4,0.4-0.4c0.2,0,0.5,0.3,0.4,0.5C175.9,70.2,175.7,70.3,175.4,70.3z"/>
		<path d="M250.5,81.1c-0.2,0-0.4-0.1-0.5-0.4c0-0.2,0.1-0.3,0.3-0.4c0.2-0.1,0.4,0.1,0.5,0.4C250.9,80.9,250.8,81.1,250.5,81.1z"/>
		<path d="M360.4,102.9c0.2,0,0.3,0.1,0.4,0.3c0.1,0.2-0.2,0.5-0.4,0.5c-0.2,0-0.4-0.3-0.4-0.5C360.1,103,360.2,102.9,360.4,102.9z"
			/>
		<path d="M300.7,86.5c0-0.2,0.1-0.3,0.3-0.3c0.3,0,0.5,0.2,0.5,0.4c0,0.2-0.2,0.3-0.4,0.3C300.9,86.8,300.8,86.7,300.7,86.5z"/>
		<path d="M140.4,66.1c-0.1,0.3-0.3,0.2-0.5,0.2c-0.2,0-0.4-0.1-0.3-0.3c0,0,0-0.1,0-0.1c0.2-0.2,0.6-0.2,0.8,0.1
			C140.4,66,140.3,66.1,140.4,66.1z"/>
		<path d="M126.5,61.9c0,0.3-0.1,0.4-0.3,0.4c-0.2,0.1-0.5-0.1-0.5-0.3c0-0.2,0.1-0.3,0.3-0.3C126.3,61.7,126.5,61.8,126.5,61.9z"/>
		<path d="M310.2,79.4c0.2,0,0.3,0.2,0.3,0.4c0,0.2-0.2,0.4-0.4,0.4c-0.2,0-0.3-0.2-0.3-0.4C309.8,79.5,310,79.3,310.2,79.4z"/>
		<path d="M252.4,84.5c-0.3,0-0.4-0.2-0.4-0.4c0-0.2,0.2-0.4,0.5-0.4c0.2,0,0.3,0.2,0.3,0.3C252.8,84.3,252.7,84.5,252.4,84.5z"/>
		<path d="M358.7,105.2c0.3,0,0.4,0.2,0.4,0.4c0,0.2-0.1,0.3-0.3,0.3c-0.2,0-0.5-0.1-0.4-0.3C358.3,105.4,358.5,105.2,358.7,105.2z"
			/>
		<path d="M384.4,72.3c0.2,0,0.4,0.1,0.4,0.3c0,0.2-0.2,0.5-0.4,0.4c-0.2,0-0.3-0.2-0.3-0.4C384.1,72.5,384.2,72.3,384.4,72.3z"/>
		<path d="M188.7,69.9c0.2,0,0.3,0.2,0.3,0.4c0,0.2-0.2,0.4-0.4,0.4c-0.2,0-0.3-0.2-0.3-0.3C188.3,70.1,188.4,69.9,188.7,69.9z"/>
		<path d="M256.1,81.9c-0.1,0.1-0.1,0.2-0.3,0.2c-0.2,0-0.4-0.2-0.4-0.4c0-0.2,0.1-0.3,0.4-0.3C256,81.5,256.1,81.7,256.1,81.9z"/>
		<path d="M78.7,38.9c0,0.2-0.1,0.3-0.2,0.3c-0.2,0.1-0.4,0-0.5-0.2c-0.1-0.2,0-0.3,0.2-0.4C78.5,38.6,78.7,38.7,78.7,38.9z"/>
		<path d="M94.9,46.5c-0.2,0-0.3-0.1-0.3-0.3c0-0.2,0.1-0.3,0.3-0.3c0.2,0,0.2,0.1,0.2,0.3C95.2,46.3,95.1,46.4,94.9,46.5z"/>
		<path d="M228,80.1c0,0.2-0.1,0.3-0.3,0.3c-0.2,0-0.3-0.1-0.3-0.3c0-0.2,0.1-0.2,0.3-0.3C227.8,79.8,228,79.9,228,80.1z"/>
		<path d="M375.2,79.2c0,0.2,0,0.4-0.3,0.4c-0.2,0-0.3-0.1-0.3-0.3c0-0.2,0.1-0.3,0.3-0.3C375.1,78.9,375.1,79,375.2,79.2z"/>
		<path d="M409.5,90.3c0,0.2-0.2,0.3-0.4,0.3c-0.2,0-0.3-0.2-0.3-0.4c0-0.1,0.1-0.2,0.3-0.2C409.3,90,409.4,90.1,409.5,90.3z"/>
		<path d="M202.4,70.3c-0.1,0.2-0.2,0.3-0.4,0.3c-0.2,0-0.3-0.2-0.3-0.4c0-0.2,0.2-0.3,0.4-0.3C202.4,69.9,202.5,70.1,202.4,70.3z"
			/>
		<path d="M118.6,57.7c0.2,0,0.3,0.1,0.3,0.3c0,0.2-0.1,0.3-0.3,0.4c-0.2,0-0.3-0.1-0.4-0.3C118.3,57.9,118.4,57.8,118.6,57.7z"/>
		<path d="M401.3,63c-0.1,0.2-0.2,0.3-0.4,0.3c-0.2,0-0.2-0.1-0.2-0.3c0-0.2,0.1-0.4,0.3-0.4C401.1,62.6,401.2,62.8,401.3,63z"/>
		<path d="M304.4,76.7c0,0.2-0.1,0.4-0.3,0.4c-0.2,0-0.3-0.1-0.3-0.3c0-0.1,0.1-0.2,0.2-0.3C304.2,76.4,304.4,76.5,304.4,76.7z"/>
		<path d="M185,70.2c0.2,0,0.4,0.1,0.3,0.3c0,0.2-0.2,0.3-0.4,0.3c-0.1,0-0.2-0.1-0.3-0.2C184.7,70.3,184.8,70.2,185,70.2z"/>
		<path d="M387.5,63.9c0,0.2-0.1,0.4-0.3,0.4c-0.2,0-0.3-0.1-0.3-0.3c0-0.2,0.1-0.2,0.3-0.3C387.3,63.6,387.4,63.7,387.5,63.9z"/>
		<path d="M375.5,76.3c0-0.2,0.2-0.3,0.4-0.2c0.1,0,0.3,0.1,0.3,0.3c0,0.2-0.1,0.3-0.3,0.3C375.6,76.6,375.4,76.5,375.5,76.3z"/>
		<path d="M193.9,70.4c0-0.2,0.2-0.3,0.4-0.3c0.1,0,0.3,0.1,0.3,0.3c0,0.2-0.1,0.3-0.3,0.3C194.1,70.8,193.9,70.7,193.9,70.4z"/>
		<path d="M220.9,72.8c0,0.2-0.2,0.3-0.4,0.3c-0.1,0-0.3-0.1-0.3-0.2c0-0.2,0.1-0.3,0.3-0.4C220.7,72.5,220.9,72.6,220.9,72.8z"/>
		<path d="M212.2,71.8c0.2,0,0.3,0.2,0.3,0.4c0,0.1-0.1,0.3-0.2,0.3c-0.2,0-0.4-0.1-0.4-0.3C211.9,72,212,71.9,212.2,71.8z"/>
		<path d="M372.5,75.7c0.2,0,0.3,0.1,0.3,0.3c0,0.2-0.2,0.3-0.4,0.3c-0.1,0-0.3-0.1-0.3-0.2C372.2,75.9,372.3,75.8,372.5,75.7z"/>
		<path d="M384,75.4c0.2,0,0.3,0.1,0.4,0.3c0,0.2,0,0.3-0.2,0.4c-0.2,0.1-0.5-0.2-0.5-0.3C383.7,75.5,383.8,75.4,384,75.4z"/>
		<path d="M219.3,71.1c0,0.2-0.1,0.4-0.3,0.4c-0.2,0-0.3-0.2-0.3-0.4c0-0.1,0.1-0.2,0.3-0.3C219.2,70.7,219.3,70.9,219.3,71.1z"/>
		<path d="M187.8,67c0,0.2-0.1,0.4-0.3,0.4c-0.2,0-0.3-0.2-0.3-0.3c0-0.1,0.1-0.2,0.3-0.3C187.7,66.7,187.8,66.8,187.8,67z"/>
		<path d="M391.7,71.8c0,0.2-0.1,0.4-0.3,0.4c-0.2,0-0.4-0.1-0.4-0.3c0-0.2,0.2-0.3,0.4-0.3C391.6,71.5,391.6,71.6,391.7,71.8z"/>
		<path d="M206.8,68.2c0,0.2-0.2,0.3-0.4,0.3c-0.2,0-0.4-0.1-0.4-0.3c0-0.2,0.2-0.4,0.4-0.4C206.7,67.9,206.8,68,206.8,68.2z"/>
		<path d="M192.6,68.3c-0.1,0.1-0.1,0.3-0.3,0.4c-0.2,0-0.4-0.2-0.5-0.4c0-0.2,0.2-0.4,0.5-0.4C192.4,68,192.6,68.2,192.6,68.3z"/>
		<path d="M330.2,84.9c-0.2-0.1-0.3-0.1-0.4-0.4c0-0.2,0.2-0.3,0.3-0.3c0.2,0,0.4,0.1,0.4,0.3C330.5,84.7,330.4,84.8,330.2,84.9z"/>
		<path d="M263,85c0.2,0,0.3,0.1,0.3,0.3c0,0.2-0.1,0.2-0.2,0.2c-0.2,0-0.4,0-0.4-0.3C262.6,85.1,262.8,85,263,85z"/>
		<path d="M310.1,85.7c-0.1,0.2-0.4,0.2-0.6,0.1c-0.2-0.1-0.2-0.3-0.1-0.4c0.1-0.2,0.3-0.2,0.4-0.1
			C310.1,85.3,310.2,85.5,310.1,85.7z"/>
		<path d="M256.7,85.8c0,0.2-0.1,0.3-0.3,0.3c-0.2,0-0.3-0.1-0.3-0.3c0-0.2,0.1-0.2,0.3-0.3C256.5,85.5,256.7,85.6,256.7,85.8z"/>
		<path d="M315.5,86.1c-0.2,0-0.3-0.2-0.3-0.4c0-0.1,0.2-0.2,0.3-0.2c0.2,0,0.3,0.1,0.3,0.3C315.9,86,315.7,86.1,315.5,86.1z"/>
		<path d="M317.5,85.6c0.2,0,0.3,0.2,0.3,0.4c0,0.1-0.2,0.2-0.3,0.2c-0.2,0-0.3-0.1-0.4-0.3C317.1,85.7,317.3,85.6,317.5,85.6z"/>
		<path d="M403.2,91.7c0.2,0.1,0.3,0.1,0.3,0.3c0,0.2-0.2,0.3-0.4,0.3c-0.1,0-0.3-0.1-0.3-0.3C402.9,91.9,403,91.8,403.2,91.7z"/>
		<path d="M408.4,92.2c0.2,0,0.3,0.2,0.3,0.4c0,0.2-0.2,0.3-0.4,0.3c-0.2,0-0.3-0.2-0.3-0.4C408,92.3,408.2,92.2,408.4,92.2z"/>
		<path d="M394.8,99.2c0,0.2-0.2,0.3-0.4,0.3c-0.2,0-0.3-0.2-0.3-0.4c0-0.2,0.2-0.3,0.4-0.3C394.7,98.9,394.8,99,394.8,99.2z"/>
		<path d="M377.4,99.5c0.2,0,0.3,0.1,0.4,0.3c0,0.2,0,0.3-0.2,0.4c-0.2,0-0.5-0.2-0.5-0.3C377.1,99.7,377.2,99.5,377.4,99.5z"/>
		<path d="M359,100.6c0,0.2-0.2,0.2-0.4,0.2c-0.1,0-0.2-0.1-0.3-0.3c0-0.2,0.1-0.3,0.3-0.3C358.9,100.2,359.1,100.3,359,100.6z"/>
		<path d="M386.5,101.1c-0.1,0.2-0.2,0.3-0.4,0.2c-0.1,0-0.2-0.2-0.2-0.3c0-0.2,0.1-0.3,0.3-0.3
			C386.4,100.7,386.5,100.9,386.5,101.1z"/>
		<path d="M199,69c0,0.2-0.1,0.3-0.3,0.3c-0.2,0-0.3-0.1-0.3-0.3c0-0.1,0.1-0.2,0.2-0.3C198.8,68.7,198.9,68.8,199,69z"/>
		<path d="M376.7,103.3c0.3,0,0.4,0.1,0.4,0.3c0,0.2-0.1,0.3-0.3,0.3c-0.2,0-0.2-0.1-0.2-0.3C376.5,103.5,376.5,103.4,376.7,103.3z"
			/>
		<path d="M363.5,104.4c0,0.2-0.1,0.3-0.3,0.4c-0.2,0-0.3-0.1-0.3-0.3c0-0.2,0-0.4,0.3-0.4C363.4,104.1,363.5,104.2,363.5,104.4z"/>
		<path d="M375.8,104.5c0,0.2-0.1,0.4-0.3,0.4c-0.1,0-0.3-0.1-0.3-0.2c-0.1-0.2,0-0.3,0.2-0.4C375.6,104.2,375.7,104.3,375.8,104.5z
			"/>
		<path d="M373.2,82c0,0.2-0.2,0.3-0.4,0.3c-0.2,0-0.4-0.1-0.3-0.3c0-0.2,0.2-0.3,0.4-0.3C373,81.7,373.1,81.8,373.2,82z"/>
		<path d="M372.5,106.2c0.2,0,0.3,0.1,0.4,0.3c0,0.2-0.2,0.4-0.4,0.4c-0.2,0-0.3-0.2-0.3-0.4C372.2,106.3,372.3,106.2,372.5,106.2z"
			/>
		<path d="M285.6,82.6c0,0.2-0.1,0.3-0.3,0.4c-0.2,0-0.3-0.1-0.3-0.3c0-0.1,0.1-0.2,0.2-0.3C285.4,82.3,285.6,82.4,285.6,82.6z"/>
		<path d="M291.7,81.4c0.2,0,0.3,0.1,0.3,0.3c0,0.2-0.1,0.3-0.3,0.3c-0.1,0-0.3-0.1-0.3-0.2C291.4,81.6,291.5,81.5,291.7,81.4z"/>
		<path d="M214.4,72.2c-0.2-0.1-0.3-0.2-0.2-0.4c0-0.2,0.2-0.3,0.4-0.2c0.1,0,0.2,0.2,0.2,0.3C214.7,72.1,214.6,72.2,214.4,72.2z"/>
		<path d="M194.7,66.8c-0.1,0.2-0.1,0.3-0.4,0.3c-0.1,0-0.2-0.1-0.3-0.3c0-0.2,0.1-0.3,0.3-0.4C194.6,66.4,194.6,66.6,194.7,66.8z"
			/>
		<path d="M100.3,43.6c-0.1,0.2-0.1,0.4-0.3,0.3c-0.1,0-0.2-0.1-0.2-0.3c0-0.2,0.1-0.3,0.3-0.3C100.2,43.4,100.3,43.5,100.3,43.6z"
			/>
		<path d="M382.7,71.1c-0.2-0.1-0.3-0.2-0.3-0.4c0-0.2,0.2-0.3,0.4-0.2c0.1,0,0.2,0.2,0.2,0.3C383,70.9,382.9,71.1,382.7,71.1z"/>
		<path d="M391.2,101.2c-0.1,0.2-0.1,0.3-0.4,0.3c-0.1,0-0.2-0.1-0.3-0.3c0-0.2,0.1-0.3,0.3-0.4C391,100.8,391.1,101,391.2,101.2z"
			/>
		<path d="M185.6,67c0,0.1-0.2,0.2-0.4,0.1c-0.1,0-0.2-0.1-0.2-0.3c0-0.2,0.2-0.3,0.4-0.2C185.5,66.7,185.6,66.7,185.6,67z"/>
		<path d="M391.9,62.3c0.2,0,0.3,0.1,0.3,0.3c0,0.2-0.2,0.3-0.3,0.3c-0.1,0-0.2-0.1-0.3-0.2C391.5,62.3,391.7,62.3,391.9,62.3z"/>
		<path d="M372.6,101.9c0,0.2-0.1,0.3-0.3,0.4c-0.2,0-0.3-0.1-0.3-0.3c0-0.1,0.1-0.2,0.2-0.3C372.4,101.6,372.6,101.7,372.6,101.9z"
			/>
		<path d="M179.9,67.1c0,0.2-0.1,0.3-0.2,0.3c-0.2,0.1-0.3,0-0.4-0.2c0-0.2,0.1-0.2,0.2-0.3C179.7,66.8,179.8,66.9,179.9,67.1z"/>
		<path d="M174.3,67.6c0,0.2-0.2,0.3-0.4,0.2c-0.1,0-0.2-0.2-0.2-0.3c0-0.1,0.1-0.4,0.3-0.3C174.3,67.3,174.3,67.4,174.3,67.6z"/>
		<path d="M89.8,43.4c0.2,0,0.3,0.1,0.3,0.3c0,0.2-0.1,0.3-0.3,0.3c-0.1,0-0.2-0.1-0.3-0.2C89.5,43.6,89.6,43.5,89.8,43.4z"/>
		<path d="M258.1,83.2c0.2,0,0.3,0.1,0.3,0.2c0.1,0.2,0,0.3-0.2,0.4c-0.2,0.1-0.2-0.1-0.3-0.2C257.8,83.4,257.9,83.3,258.1,83.2z"/>
		<path d="M345,78.6c-0.2,0-0.2-0.1-0.3-0.2c0-0.2,0-0.3,0.2-0.4c0.1,0,0.3,0.1,0.3,0.2C345.3,78.5,345.2,78.6,345,78.6z"/>
		<path d="M378.2,74.3c0.2,0,0.4,0.1,0.4,0.3c0,0.2-0.2,0.3-0.4,0.3c-0.2,0-0.3-0.1-0.3-0.3C377.9,74.5,378,74.4,378.2,74.3z"/>
		<path d="M328.4,80.2c0.2,0,0.3,0,0.3,0.2c0.1,0.2,0,0.3-0.2,0.4c-0.1,0.1-0.2,0-0.3-0.2C328.1,80.4,328.2,80.3,328.4,80.2z"/>
		<path d="M370.2,77.8c0,0.2-0.2,0.3-0.4,0.3c-0.1,0-0.2-0.2-0.2-0.3c0-0.2,0.1-0.3,0.3-0.3C370.1,77.5,370.2,77.7,370.2,77.8z"/>
		<path d="M385.1,103.4c0,0.1-0.1,0.3-0.2,0.3c-0.2,0.1-0.5-0.1-0.5-0.3c0-0.2,0.2-0.3,0.4-0.3C385,103.1,385.1,103.2,385.1,103.4z"
			/>
		<path d="M151.2,68.8c-0.1,0-0.3,0-0.3-0.2c0-0.2,0.1-0.3,0.2-0.3c0.1,0,0.3,0.1,0.3,0.2C151.4,68.7,151.3,68.7,151.2,68.8z"/>
		<path d="M390.9,66c-0.3-0.1-0.4-0.2-0.4-0.4c0-0.2,0.2-0.3,0.4-0.2c0.2,0.1,0.3,0.2,0.2,0.4C391,65.9,391,66,390.9,66z"/>
		<path d="M204.5,72.1c0-0.2,0-0.4,0-0.6c0-0.1,0.2-0.2,0.3-0.2c0.2,0.1,0.3,0.2,0.2,0.4C204.8,71.9,204.6,72,204.5,72.1
			C204.4,72,204.5,72.1,204.5,72.1z"/>
		<path d="M189.5,71.5c0,0.2-0.2,0.3-0.3,0.3c-0.1,0-0.2-0.1-0.2-0.2c0-0.2,0.2-0.3,0.3-0.3C189.4,71.2,189.4,71.3,189.5,71.5z"/>
		<path d="M294.3,84.6c0,0.2-0.1,0.3-0.3,0.3c-0.2,0-0.3-0.1-0.3-0.3c0-0.2,0.1-0.2,0.3-0.2C294.3,84.3,294.3,84.4,294.3,84.6z"/>
		<path d="M325.7,84.3c0.1,0,0.2,0.1,0.2,0.3c0,0.2-0.2,0.4-0.4,0.3c-0.1-0.1-0.2-0.2-0.2-0.3C325.5,84.4,325.6,84.3,325.7,84.3z"/>
		<path d="M299.1,79.5c-0.2-0.1-0.3-0.2-0.2-0.4c0-0.1,0.1-0.2,0.3-0.2c0.2,0.1,0.3,0.2,0.2,0.4C299.3,79.4,299.2,79.5,299.1,79.5z"
			/>
		<path d="M369.1,81.7c-0.1,0.3-0.4,0.4-0.6,0.3c-0.1-0.1-0.2-0.3-0.1-0.3c0.1-0.2,0.3-0.2,0.5-0.2C369,81.6,369.1,81.6,369.1,81.7z
			"/>
		<path d="M127.3,57.5c-0.1,0.2-0.2,0.3-0.3,0.3c-0.2,0-0.3-0.1-0.3-0.3c0-0.2,0.1-0.3,0.3-0.3C127.1,57.2,127.2,57.4,127.3,57.5z"
			/>
		<path d="M300.9,83c0,0.2-0.1,0.4-0.3,0.4c-0.2,0-0.4-0.1-0.3-0.3c0-0.1,0.1-0.2,0.2-0.3C300.7,82.6,300.8,82.8,300.9,83z"/>
		<path d="M141.4,62c0.1,0,0.2,0.1,0.3,0.2c0.1,0.1-0.1,0.4-0.3,0.4c-0.1,0-0.3-0.1-0.3-0.2C141,62.2,141.2,62,141.4,62z"/>
		<path d="M166.1,69.7c0,0.2-0.2,0.3-0.3,0.3c-0.1,0-0.2-0.1-0.3-0.2c-0.1-0.2,0.1-0.3,0.3-0.3C165.9,69.4,166,69.5,166.1,69.7z"/>
		<path d="M457,80.5c-0.1,0.2-0.3,0.2-0.4,0.1c-0.2-0.1-0.2-0.3-0.1-0.4c0.1-0.1,0.2-0.1,0.3-0.1C457,80.2,457.1,80.3,457,80.5z"/>
		<path d="M120.3,59.9c-0.2,0-0.2-0.1-0.3-0.2c0-0.2,0-0.3,0.2-0.4c0.1,0,0.3,0.1,0.3,0.2C120.6,59.7,120.5,59.9,120.3,59.9z"/>
		<path d="M396.7,65.8c0,0.2-0.2,0.3-0.4,0.2c-0.1,0-0.2-0.1-0.2-0.3c0-0.1,0.1-0.2,0.2-0.3C396.5,65.5,396.7,65.6,396.7,65.8z"/>
		<path d="M369.5,105.5c0.2,0,0.3,0.1,0.4,0.3c0,0.2-0.1,0.3-0.3,0.4c-0.2,0-0.3-0.1-0.4-0.3C369.2,105.7,369.3,105.5,369.5,105.5z"
			/>
		<path d="M354.7,106.4c0,0.2-0.1,0.3-0.2,0.3c-0.2,0-0.5-0.1-0.5-0.3c0-0.1,0.1-0.2,0.2-0.2C354.4,106.2,354.6,106.2,354.7,106.4z"
			/>
		<path d="M297.1,86.2c-0.1,0.2-0.2,0.3-0.4,0.2c-0.1-0.1-0.2-0.2-0.2-0.3c0.1-0.2,0.2-0.3,0.4-0.2C297.1,86,297.2,86.1,297.1,86.2z
			"/>
		<path d="M113.7,52.4c-0.2,0-0.3-0.1-0.3-0.3c0-0.2,0.2-0.3,0.3-0.3c0.2,0,0.3,0.2,0.3,0.3C114,52.3,113.8,52.4,113.7,52.4z"/>
		<path d="M168.5,69.6c-0.2-0.1-0.4-0.1-0.3-0.3c0-0.2,0.2-0.3,0.4-0.2c0.1,0,0.2,0.1,0.3,0.2C168.9,69.6,168.7,69.6,168.5,69.6z"/>
		<path d="M287.3,87.1c-0.2,0-0.3-0.2-0.3-0.4c0-0.2,0.2-0.3,0.4-0.3c0.2,0,0.3,0.2,0.3,0.4C287.6,87.1,287.5,87.1,287.3,87.1z"/>
		<path d="M204.1,88.6c-0.1,0.2-0.2,0.3-0.4,0.2c-0.1,0-0.3-0.1-0.2-0.3c0.1-0.2,0.2-0.3,0.4-0.2C204,88.4,204.2,88.5,204.1,88.6z"
			/>
		<path d="M205.8,89.2c0,0.2-0.1,0.3-0.3,0.3c-0.2,0-0.3-0.2-0.3-0.4c0-0.1,0.1-0.2,0.3-0.2C205.6,88.9,205.7,89,205.8,89.2z"/>
		<path d="M190.8,89.9c0,0-0.1,0.2-0.3,0.2c-0.1,0-0.2-0.1-0.2-0.3c0-0.2,0.1-0.4,0.3-0.3C190.8,89.5,190.9,89.5,190.8,89.9z"/>
		<path d="M181.9,90.9c-0.2,0-0.4-0.1-0.4-0.3c0-0.2,0.2-0.3,0.4-0.3c0.1,0,0.2,0.1,0.3,0.2C182.2,90.7,182.1,90.8,181.9,90.9z"/>
		<path d="M366.9,79.5c0.2,0,0.3,0.2,0.3,0.3c0,0.1-0.1,0.3-0.2,0.3c-0.2,0.1-0.3,0-0.4-0.2C366.7,79.6,366.7,79.5,366.9,79.5z"/>
		<path d="M477.5,23.9c0,0.2-0.1,0.3-0.3,0.4c-0.2,0-0.4-0.1-0.4-0.3c0-0.1,0.1-0.2,0.3-0.3C477.3,23.7,477.4,23.7,477.5,23.9z"/>
		<path d="M364.8,82.9c0.2,0,0.2,0.1,0.3,0.3c0,0.2-0.1,0.3-0.3,0.3c-0.1,0-0.2-0.1-0.2-0.2C364.4,83,364.6,82.9,364.8,82.9z"/>
		<path d="M397.1,97.5c0,0-0.1,0.1-0.2,0.1c-0.2,0-0.3-0.2-0.3-0.3c0-0.2,0.1-0.2,0.3-0.2C397,97,397.1,97.2,397.1,97.5z"/>
		<path d="M216.6,83.6c0,0.2-0.1,0.3-0.3,0.3c-0.2,0-0.3-0.1-0.3-0.3c0-0.2,0.1-0.2,0.3-0.2C216.4,83.3,216.5,83.4,216.6,83.6z"/>
		<path d="M145.2,65c-0.2,0-0.4,0-0.3-0.3c0-0.1,0.1-0.2,0.3-0.3c0.2,0,0.4,0.1,0.3,0.3C145.4,64.9,145.3,65,145.2,65z"/>
		<path d="M452.1,77.7c0.2,0,0.3,0.1,0.3,0.4c0,0.1-0.1,0.2-0.3,0.2c-0.2,0-0.3-0.1-0.3-0.4C451.8,77.7,452,77.7,452.1,77.7z"/>
		<path d="M380.1,104.2c-0.2,0-0.3-0.2-0.3-0.4c0-0.2,0.2-0.3,0.4-0.3c0.2,0,0.3,0.2,0.3,0.4C380.4,104.1,380.3,104.2,380.1,104.2z"
			/>
		<path d="M360.6,78.7c0.1,0.1,0.2,0.2,0.2,0.3c0,0.1-0.2,0.2-0.2,0.2c-0.1,0-0.2-0.1-0.2-0.2C360.3,78.9,360.5,78.8,360.6,78.7z"/>
		<path d="M398.2,62.3c0.2-0.1,0.3,0.1,0.3,0.2c0.1,0.2,0,0.3-0.2,0.4c-0.1,0-0.2-0.1-0.3-0.2C397.9,62.5,398,62.4,398.2,62.3z"/>
		<path d="M155.5,67.7c0.1,0,0.2,0.1,0.1,0.3c0,0.1-0.1,0.2-0.3,0.2c-0.1,0-0.2-0.1-0.2-0.3C155.2,67.8,155.3,67.7,155.5,67.7z"/>
		<path d="M136.7,63.3c-0.1,0-0.3,0-0.3-0.2c-0.1-0.2,0-0.3,0.2-0.4c0.1-0.1,0.2,0,0.3,0.2C137,63.1,136.9,63.2,136.7,63.3z"/>
		<path d="M76.4,37.2c0.1-0.1,0.2-0.2,0.3-0.3c0.1-0.1,0.3,0.1,0.3,0.3c0,0.1-0.1,0.2-0.3,0.2C76.6,37.4,76.6,37.2,76.4,37.2z"/>
		<path d="M67.1,35.7c0.1,0,0.2,0.1,0.3,0.2c0.1,0.1-0.1,0.4-0.3,0.3c-0.1,0-0.2-0.1-0.3-0.2C66.8,35.8,66.9,35.7,67.1,35.7z"/>
		<path d="M360.8,81.8c0-0.2,0.1-0.3,0.3-0.3c0.1,0,0.2,0.1,0.2,0.3c0,0.2-0.1,0.3-0.3,0.3C360.9,82,360.8,81.9,360.8,81.8z"/>
		<path d="M306.5,85.1c0.1,0,0.2,0.1,0.2,0.3c0,0.1,0,0.3-0.1,0.3c-0.1,0-0.3-0.2-0.3-0.4C306.3,85.1,306.4,85.1,306.5,85.1z"/>
		<path d="M121.3,54.4c0.2,0,0.2,0.1,0.2,0.3c0,0.1-0.1,0.2-0.3,0.2c-0.1,0-0.2-0.1-0.2-0.3C121,54.5,121.1,54.5,121.3,54.4z"/>
		<path d="M377.6,77.5c0,0.2-0.1,0.3-0.2,0.3c-0.2,0-0.3-0.1-0.3-0.3c0-0.2,0.1-0.2,0.3-0.2C377.5,77.2,377.6,77.4,377.6,77.5z"/>
		<path d="M317.5,82.2c0,0.1-0.1,0.2-0.3,0.2c-0.1,0-0.3-0.1-0.3-0.2c0-0.2,0.1-0.3,0.3-0.3C317.4,81.9,317.5,82,317.5,82.2z"/>
		<path d="M274.3,86.6c-0.1-0.1-0.2-0.2-0.2-0.4c0-0.2,0.2-0.4,0.3-0.3c0.1,0,0.2,0.2,0.2,0.3C274.6,86.3,274.4,86.4,274.3,86.6z"/>
		<path d="M267.9,86.6c0,0.1-0.1,0.3-0.2,0.3c-0.2,0.1-0.3-0.1-0.3-0.3c0-0.1,0.1-0.2,0.3-0.2C267.8,86.3,267.9,86.4,267.9,86.6z"/>
		<path d="M346,82.3c-0.1,0.2-0.2,0.3-0.4,0.2c-0.1,0-0.2-0.1-0.3-0.2c0-0.2,0.2-0.3,0.3-0.3C345.8,81.9,346,82.1,346,82.3z"/>
		<path d="M389.3,70.1c0.1,0,0.2,0.1,0.2,0.2c0,0.2-0.1,0.3-0.3,0.3c-0.1,0-0.3-0.1-0.3-0.2C389,70.2,389.1,70.1,389.3,70.1z"/>
		<path d="M199.1,89c0,0.1-0.1,0.2-0.3,0.2c-0.1,0-0.3-0.1-0.3-0.2c0-0.2,0.2-0.2,0.3-0.2C199,88.8,199.1,88.9,199.1,89z"/>
		<path d="M157.1,65.4c-0.1,0.1-0.1,0.3-0.2,0.3c-0.2,0.1-0.3-0.1-0.3-0.3c0-0.1,0.2-0.2,0.2-0.2C156.9,65.2,157,65.3,157.1,65.4z"
			/>
		<path d="M350.2,82.8c0,0.1-0.1,0.2-0.3,0.2c-0.1,0-0.2-0.1-0.2-0.3c0-0.2,0.1-0.2,0.3-0.2C350.1,82.6,350.2,82.7,350.2,82.8z"/>
		<path d="M379.4,101.8c-0.1,0.1-0.2,0.2-0.3,0.2c-0.1,0-0.2-0.1-0.2-0.2c0-0.2,0.2-0.3,0.4-0.2
			C379.2,101.5,379.3,101.6,379.4,101.8z"/>
		<path d="M467.3,27c-0.1,0-0.2-0.1-0.3-0.2c-0.1-0.2,0.1-0.3,0.3-0.3c0.1,0,0.3,0.1,0.2,0.2C467.6,26.8,467.5,26.9,467.3,27z"/>
		<path d="M204.6,87.1c-0.1,0.1-0.2,0.2-0.3,0.2c-0.1,0-0.2-0.2-0.3-0.2c0.1-0.1,0.2-0.2,0.3-0.2C204.4,86.9,204.5,87,204.6,87.1z"
			/>
		<path d="M97.3,44.9c0-0.1,0.1-0.2,0.2-0.2c0.2,0,0.3,0.1,0.2,0.3c0,0.1-0.1,0.2-0.3,0.2C97.4,45.2,97.3,45.1,97.3,44.9z"/>
		<path d="M87.1,41.9c-0.1,0-0.3-0.1-0.3-0.2c0-0.1,0.1-0.2,0.2-0.3c0.1,0,0.2,0.1,0.3,0.2C87.3,41.8,87.2,41.9,87.1,41.9z"/>
		<path d="M375.1,82.4c0.2,0,0.2,0.1,0.2,0.2c0,0.2-0.1,0.3-0.3,0.3c-0.1,0-0.2-0.1-0.2-0.2C374.7,82.4,374.9,82.4,375.1,82.4z"/>
		<path d="M448.4,75.6c0.2,0,0.3,0.1,0.3,0.2c0.1,0.2-0.1,0.3-0.3,0.3c-0.1,0-0.3-0.1-0.2-0.2C448.3,75.8,448.4,75.7,448.4,75.6z"/>
		<path d="M280.6,83.5c-0.1,0-0.1,0.1-0.2,0.1c-0.1,0-0.2-0.1-0.1-0.3c0-0.1,0.2-0.1,0.2-0.1C280.6,83.3,280.6,83.4,280.6,83.5z"/>
		<path d="M312.1,83.6c-0.1,0-0.2-0.1-0.1-0.3c0-0.1,0.2-0.2,0.3-0.1c0.1,0,0.1,0.1,0.1,0.2C312.3,83.6,312.2,83.7,312.1,83.6z"/>
		<path d="M339.5,83.5c0,0-0.1,0.1-0.2,0.1c-0.1-0.1-0.2-0.2-0.1-0.3c0-0.1,0.1-0.1,0.2-0.1C339.5,83.2,339.6,83.2,339.5,83.5z"/>
		<path d="M286.8,83.6c0.1,0,0.3,0,0.3,0.2c0,0.1-0.1,0.2-0.2,0.3c-0.2,0.1-0.2-0.1-0.3-0.2C286.6,83.8,286.7,83.7,286.8,83.6z"/>
		<path d="M235.2,83.6c0.3,0.1,0.4,0.2,0.4,0.3c0,0.2-0.2,0.3-0.4,0.2c-0.1,0-0.2-0.2-0.1-0.3C235.2,83.8,235.2,83.7,235.2,83.6z"/>
		<path d="M474.6,24.6c-0.1,0-0.2-0.1-0.2-0.3c0.1-0.1,0.2-0.2,0.3-0.1c0.1,0,0.1,0.1,0.1,0.2C474.9,24.5,474.8,24.6,474.6,24.6z"/>
		<path d="M265.8,83.8c0.2-0.1,0.2,0.1,0.3,0.2c0,0.1-0.1,0.2-0.1,0.2c-0.1,0-0.3,0-0.3-0.1C265.5,84,265.6,83.9,265.8,83.8z"/>
		<path d="M268.4,84c0,0.1-0.1,0.2-0.3,0.2c-0.1,0-0.2-0.1-0.2-0.3c0-0.1,0.1-0.2,0.3-0.2C268.4,83.8,268.5,83.9,268.4,84z"/>
		<path d="M274.8,84c0-0.2,0.1-0.2,0.2-0.2c0.1,0,0.2,0.1,0.2,0.1c0,0.1,0,0.3-0.1,0.3C275,84.2,274.9,84.1,274.8,84z"/>
		<path d="M335.2,84.2c0,0.2-0.1,0.3-0.2,0.2c-0.1,0-0.2-0.1-0.2-0.3c0-0.1,0.1-0.1,0.2-0.2C335.1,84,335.2,84.1,335.2,84.2z"/>
		<path d="M471.2,25.9c0,0.1-0.1,0.2-0.3,0.2c-0.1-0.1-0.2-0.2-0.1-0.3c0-0.1,0.1-0.1,0.2-0.1C471.1,25.7,471.2,25.7,471.2,25.9z"/>
		<path d="M232.6,84.7c0,0.1-0.2,0.2-0.3,0.1c-0.1,0-0.2-0.2-0.1-0.3c0-0.1,0.1-0.1,0.2-0.1C232.5,84.4,232.6,84.5,232.6,84.7z"/>
		<path d="M540.5,32.9c0,0.1-0.1,0.2-0.1,0.2c-0.2,0-0.2-0.1-0.2-0.3c0,0,0-0.1,0.1-0.1C540.4,32.7,540.5,32.8,540.5,32.9z"/>
		<path d="M160.6,66.6c-0.1,0-0.3-0.1-0.3-0.2c0-0.1,0.1-0.3,0.2-0.3c0.1,0,0.2,0.1,0.3,0.2C160.9,66.6,160.7,66.6,160.6,66.6z"/>
		<path d="M72.5,35.7c0,0.2-0.1,0.2-0.2,0.2c-0.1,0-0.2-0.1-0.2-0.1c0-0.1,0-0.3,0.1-0.3C72.3,35.5,72.4,35.5,72.5,35.7z"/>
		<path d="M434.7,84.3c0.1,0,0.2,0,0.2,0.2c0,0.1-0.1,0.2-0.1,0.2c-0.1,0.1-0.3,0-0.3-0.1C434.5,84.4,434.5,84.3,434.7,84.3z"/>
		<path d="M88.1,39c0.1,0,0.2,0.1,0.2,0.3c0,0.1-0.2,0.2-0.3,0.1c-0.1,0-0.1-0.1-0.1-0.2C87.8,39.1,87.9,39,88.1,39z"/>
		<path d="M239.9,85.6c-0.1-0.1-0.2-0.2-0.2-0.3c-0.1-0.1,0-0.3,0.1-0.3c0.1,0,0.2,0,0.2,0c0.1,0.1,0.2,0.2,0.1,0.3
			C240.1,85.5,240,85.6,239.9,85.6C239.9,85.6,239.9,85.6,239.9,85.6z"/>
		<path d="M94,44.1c0,0.1-0.1,0.2-0.3,0.2c-0.2,0-0.3-0.2-0.2-0.3c0.1-0.1,0.2-0.2,0.3-0.1C93.9,43.9,94,44,94,44.1z"/>
		<path d="M106.9,49.2c-0.1-0.1-0.2-0.2-0.2-0.3c0-0.1,0.2-0.2,0.3-0.1c0.1,0,0.1,0.1,0.1,0.2C107.2,49.1,107.1,49.2,106.9,49.2z"/>
		<path d="M442.9,85c0,0.2-0.1,0.2-0.2,0.3c-0.2,0-0.2-0.1-0.3-0.2c-0.1-0.2,0.1-0.2,0.2-0.2C442.8,84.7,442.9,84.8,442.9,85z"/>
		<path d="M248.2,85.3c0,0.1-0.1,0.2-0.3,0.2c-0.1,0-0.2-0.2-0.2-0.3c0-0.1,0.1-0.1,0.2-0.1C248.1,85.1,248.2,85.2,248.2,85.3z"/>
		<path d="M103.2,50.8c0,0.1-0.1,0.2-0.2,0.2c-0.2,0-0.3-0.2-0.3-0.3c0.1-0.1,0.2-0.2,0.3-0.2C103.1,50.6,103.3,50.7,103.2,50.8z"/>
		<path d="M108.1,52c0,0.1-0.1,0.2-0.3,0.2c-0.1,0-0.2-0.2-0.1-0.3c0-0.1,0.1-0.1,0.2-0.1C108.1,51.8,108.1,51.9,108.1,52z"/>
		<path d="M318.6,85.7c-0.2,0-0.2-0.1-0.2-0.2c0-0.1,0.1-0.3,0.2-0.2c0.1,0,0.3,0.1,0.3,0.2C318.9,85.6,318.7,85.7,318.6,85.7z"/>
		<path d="M112.5,53.6c0.1,0,0.2,0.1,0.2,0.2c0,0.1-0.1,0.2-0.2,0.2c-0.2,0-0.3-0.1-0.3-0.3C112.3,53.7,112.4,53.6,112.5,53.6z"/>
		<path d="M291.5,85.6c0,0.1-0.1,0.2-0.3,0.2c-0.1,0-0.2-0.1-0.2-0.3c0-0.1,0.1-0.2,0.3-0.2C291.5,85.4,291.6,85.4,291.5,85.6z"/>
		<path d="M117.5,55.2c-0.1,0-0.2-0.1-0.1-0.3c0-0.1,0.2-0.2,0.3-0.1c0.1,0,0.1,0.1,0.1,0.2C117.8,55.1,117.7,55.2,117.5,55.2z"/>
		<path d="M214.2,85.6c0.1,0,0.2,0.1,0.2,0.3c0,0.2-0.2,0.3-0.4,0.2c-0.1-0.1-0.2-0.2-0.1-0.3C214,85.7,214.1,85.6,214.2,85.6z"/>
		<path d="M114.8,56.7c0,0.1-0.1,0.2-0.3,0.2c-0.1,0-0.1-0.1-0.1-0.2c0-0.2,0.1-0.2,0.3-0.2C114.8,56.6,114.8,56.7,114.8,56.7z"/>
		<path d="M122.4,57.7c0,0.1-0.1,0.2-0.3,0.2c-0.1,0-0.1-0.2-0.2-0.3c0,0,0.1-0.1,0.2-0.1C122.3,57.4,122.5,57.5,122.4,57.7z"/>
		<path d="M122.5,60.3c0,0.2,0,0.3-0.2,0.3c-0.1,0-0.2,0-0.2-0.1c-0.1-0.1,0-0.3,0.1-0.3C122.3,60.1,122.4,60.2,122.5,60.3z"/>
		<path d="M293.8,86.3c-0.2,0-0.2-0.1-0.3-0.2c-0.1-0.2,0.1-0.2,0.2-0.3c0.2,0,0.2,0.1,0.3,0.2C294,86.2,293.9,86.3,293.8,86.3z"/>
		<path d="M129.8,60.6c-0.1,0-0.2-0.1-0.2-0.2c0-0.1,0-0.3,0.1-0.3c0.1-0.1,0.3,0.1,0.4,0.2C130.1,60.4,130,60.6,129.8,60.6z"/>
		<path d="M206.3,86.1c0.2,0,0.3,0.1,0.3,0.2c0,0.2-0.1,0.2-0.2,0.3c-0.2,0-0.2-0.1-0.3-0.2C206,86.2,206.2,86.2,206.3,86.1z"/>
		<path d="M152.4,64c0-0.2,0.1-0.2,0.2-0.3c0.1,0,0.2,0,0.2,0.1c0,0.1,0,0.3-0.1,0.3C152.6,64.2,152.5,64.2,152.4,64z"/>
		<path d="M151,64.3c0.1,0.2,0,0.3-0.1,0.4c-0.2,0.1-0.3,0-0.4-0.2c0-0.1,0.1-0.3,0.2-0.3C150.8,64.1,150.9,64.2,151,64.3z"/>
		<path d="M184.7,64.7c0,0.2-0.1,0.3-0.2,0.3c-0.1,0.1-0.4-0.1-0.3-0.3c0-0.2,0.1-0.2,0.2-0.2C184.5,64.4,184.6,64.5,184.7,64.7z"/>
		<path d="M166.4,65.5c-0.1,0-0.2-0.1-0.2-0.3c0-0.2,0.2-0.3,0.3-0.3c0.1,0.1,0.2,0.2,0.2,0.3C166.7,65.4,166.5,65.5,166.4,65.5z"/>
		<path d="M209.5,86.7c0.1,0,0.2,0.1,0.2,0.1c0,0.1-0.1,0.2-0.1,0.2c-0.1,0-0.2,0-0.2-0.1C209.4,86.9,209.4,86.8,209.5,86.7z"/>
		<path d="M384.5,65.5c0.1,0,0.3,0,0.3,0.2c0,0.1,0,0.2-0.1,0.2c-0.1,0.1-0.3,0-0.3-0.1C384.3,65.7,384.4,65.6,384.5,65.5z"/>
		<path d="M200.3,88.1c0,0.1-0.1,0.2-0.3,0.2c-0.1,0-0.2-0.1-0.2-0.3c0-0.1,0.1-0.2,0.3-0.2C200.2,87.9,200.4,87.9,200.3,88.1z"/>
		<path d="M194.2,88.5c0,0.1-0.1,0.3-0.2,0.3c-0.1,0-0.2-0.1-0.2-0.3c0-0.2,0.1-0.2,0.2-0.2C194.1,88.3,194.2,88.4,194.2,88.5z"/>
		<path d="M397.3,66.3c0.1,0,0.3,0.1,0.3,0.2c0,0.1-0.1,0.2-0.1,0.2c-0.1,0.1-0.3,0-0.3-0.1C397.1,66.5,397.2,66.4,397.3,66.3z"/>
		<path d="M170.8,66.8c0.1,0.1,0.1,0.1,0.2,0.2c-0.1,0-0.1,0.1-0.2,0.1c0,0-0.1-0.1-0.1-0.1C170.7,66.9,170.7,66.8,170.8,66.8z"/>
		<path d="M166.6,67.2c-0.1,0.1-0.2,0.2-0.3,0.1c-0.1,0-0.1-0.1-0.1-0.2c0-0.1,0.2-0.2,0.3-0.1C166.5,67.1,166.6,67.2,166.6,67.2z"
			/>
		<path d="M161.3,68.2c-0.1,0.1-0.1,0.2-0.2,0.3c-0.1,0.1-0.3-0.1-0.3-0.3c0-0.2,0.1-0.2,0.2-0.2C161.2,67.9,161.3,68,161.3,68.2z"
			/>
		<path d="M415.2,89.1c0,0.2-0.1,0.2-0.2,0.3c-0.1,0-0.2,0-0.2-0.1c-0.1-0.1,0-0.3,0.1-0.3C415,88.9,415.1,89,415.2,89.1z"/>
		<path d="M194.9,89.7c-0.2,0-0.2-0.1-0.2-0.2c0-0.2,0.2-0.3,0.3-0.3c0.1,0.1,0.2,0.2,0.2,0.3C195.1,89.6,195.1,89.7,194.9,89.7z"/>
		<path d="M389.6,68.6c0-0.1-0.1-0.2-0.1-0.3c0-0.1,0.1-0.2,0.3-0.2c0.1,0,0.2,0.1,0.2,0.3C389.9,68.6,389.8,68.6,389.6,68.6z"/>
		<path d="M383,68.2c0.1,0,0.2,0.1,0.2,0.2c0,0.2-0.1,0.3-0.3,0.3c-0.1,0-0.2-0.1-0.2-0.3C382.7,68.3,382.8,68.2,383,68.2z"/>
		<path d="M184.6,69.1c0,0.2-0.1,0.2-0.2,0.3c-0.2,0-0.2-0.1-0.3-0.2c-0.1-0.2,0.1-0.3,0.3-0.3C184.5,68.8,184.6,68.9,184.6,69.1z"
			/>
		<path d="M196.5,69.9c0,0.1-0.1,0.2-0.3,0.2c-0.2,0-0.3-0.2-0.2-0.4c0.1-0.1,0.2-0.2,0.3-0.2C196.5,69.6,196.6,69.8,196.5,69.9z"/>
		<path d="M199.8,90.5c-0.1,0.1-0.2,0.2-0.3,0.2c-0.1,0-0.2-0.2-0.1-0.3c0-0.1,0.1-0.1,0.2-0.1C199.7,90.2,199.8,90.3,199.8,90.5z"
			/>
		<path d="M180.5,91.6c0,0.2-0.1,0.2-0.2,0.3c-0.2,0-0.2-0.1-0.3-0.2c-0.1-0.2,0.1-0.3,0.3-0.3C180.4,91.3,180.5,91.4,180.5,91.6z"
			/>
		<path d="M184.3,92c-0.1,0-0.2-0.1-0.2-0.2c0-0.1,0.1-0.2,0.1-0.2c0.1,0,0.3,0,0.3,0.2C184.6,91.9,184.5,92,184.3,92z"/>
		<path d="M225.3,70.9c-0.1,0.1-0.1,0.2-0.3,0.2c-0.1,0-0.2-0.2-0.1-0.3c0-0.1,0.1-0.1,0.2-0.1C225.2,70.7,225.3,70.8,225.3,70.9z"
			/>
		<path d="M211.3,84.8c0,0.2-0.1,0.2-0.2,0.2c-0.1,0-0.3-0.1-0.3-0.2c0-0.1,0.1-0.2,0.2-0.3C211.2,84.6,211.3,84.7,211.3,84.8z"/>
		<path d="M440.5,73.2c0,0.1-0.1,0.2-0.3,0.2c-0.1,0-0.2-0.1-0.1-0.3c0-0.1,0.1-0.1,0.2-0.1C440.5,73,440.5,73.1,440.5,73.2z"/>
		<path d="M404.9,93.7c0.1,0.2,0,0.2-0.2,0.3c-0.1,0-0.2-0.1-0.3-0.2c0-0.2,0.1-0.2,0.2-0.3C404.9,93.5,404.9,93.7,404.9,93.7z"/>
		<path d="M207.2,94c0,0.3-0.3,0.3-0.4,0.4c-0.1,0.1-0.2,0-0.2-0.1c0,0,0-0.1,0.1-0.1C206.8,94,207,94,207.2,94
			C207.2,94,207.2,94,207.2,94z"/>
		<path d="M383.1,73.5c0-0.2,0.1-0.2,0.2-0.3c0.1,0,0.2,0,0.2,0.1c0.1,0.1,0,0.3-0.1,0.3C383.3,73.6,383.1,73.6,383.1,73.5z"/>
		<path d="M399.5,97.2c-0.1-0.1-0.2-0.2-0.2-0.3c0-0.1,0.2-0.2,0.3-0.1c0.1,0,0.1,0.1,0.1,0.2C399.7,97.2,399.6,97.2,399.5,97.2z"/>
		<path d="M387,74.5c0,0.2-0.1,0.2-0.2,0.3c-0.2,0-0.2-0.1-0.3-0.2c-0.1-0.2,0.1-0.3,0.3-0.3C386.9,74.2,387,74.3,387,74.5z"/>
		<path d="M388.7,98.6c-0.2,0-0.3-0.1-0.2-0.2c0-0.1,0.1-0.2,0.3-0.2c0.1,0,0.1,0.1,0.2,0.2C389,98.6,388.8,98.6,388.7,98.6z"/>
		<path d="M380.2,74.7c0,0.2-0.1,0.2-0.2,0.3c-0.1,0-0.2,0-0.2-0.1c-0.1-0.1,0-0.3,0.1-0.3C380,74.5,380.2,74.6,380.2,74.7z"/>
		<path d="M381,75.5c0.1,0,0.2,0.1,0.3,0.2c0,0.1-0.1,0.2-0.1,0.2c-0.1,0.1-0.3,0-0.3-0.1C380.8,75.7,380.9,75.6,381,75.5z"/>
		<path d="M444.2,75.8c0,0.1-0.1,0.2-0.2,0.2c-0.1,0-0.2-0.1-0.2-0.3c0-0.1,0.1-0.1,0.2-0.1C444.1,75.6,444.2,75.6,444.2,75.8z"/>
		<path d="M320.5,77.4c0,0.1-0.1,0.3-0.2,0.2c-0.1,0-0.2-0.1-0.2-0.3c0-0.1,0.1-0.1,0.2-0.1C320.4,77.2,320.5,77.3,320.5,77.4z"/>
		<path d="M382.5,77.7c0,0.1-0.1,0.2-0.3,0.2c-0.1-0.1-0.2-0.2-0.1-0.3c0-0.1,0.1-0.1,0.2-0.1C382.4,77.5,382.5,77.6,382.5,77.7z"/>
		<path d="M286.2,78.8c0,0.1-0.1,0.2-0.2,0.2c-0.1,0-0.2-0.1-0.2-0.2c0-0.2,0.1-0.2,0.2-0.2C286.1,78.5,286.2,78.6,286.2,78.8z"/>
		<path d="M362.1,101.3c0,0.2-0.1,0.3-0.2,0.3c-0.1,0.1-0.4-0.1-0.3-0.3c0-0.2,0.1-0.2,0.2-0.2C362,101,362.1,101.2,362.1,101.3z"/>
		<path d="M447.9,79c-0.2,0-0.3-0.1-0.3-0.2c0-0.1,0-0.3,0.1-0.3c0.1-0.1,0.3,0.1,0.4,0.2C448.1,78.9,448,79,447.9,79z"/>
		<path d="M380.3,78.9c0.1,0,0.2,0.1,0.2,0.3c0,0.1-0.2,0.2-0.3,0.2c-0.1,0-0.1-0.1-0.1-0.2C380,79,380.1,78.9,380.3,78.9z"/>
		<path d="M365,79.3c0,0.1-0.1,0.3-0.2,0.2c-0.1,0-0.2-0.1-0.2-0.3c0-0.1,0.1-0.1,0.2-0.2C364.9,79.1,365,79.2,365,79.3z"/>
		<path d="M357.1,79.6c-0.1,0.1-0.2,0.2-0.3,0.1c-0.1,0-0.1-0.2-0.1-0.2c0-0.1,0.2-0.2,0.3-0.1C357.1,79.5,357.2,79.5,357.1,79.6z"
			/>
		<path d="M366.7,103.4c-0.2,0-0.2-0.1-0.2-0.3c0-0.2,0.2-0.3,0.3-0.3c0.1,0.1,0.2,0.2,0.2,0.3C366.9,103.4,366.8,103.5,366.7,103.4
			z"/>
		<path d="M377.7,80c0-0.2,0.1-0.3,0.2-0.3c0.1,0,0.2,0,0.2,0.1c0.1,0.1,0,0.3-0.1,0.3C377.9,80.1,377.7,80,377.7,80z"/>
		<path d="M348.4,80.2c0,0.1-0.1,0.2-0.3,0.2c-0.1,0-0.2-0.2-0.1-0.3c0-0.1,0.1-0.1,0.2-0.1C348.3,80,348.4,80,348.4,80.2z"/>
		<path d="M316.4,80.6c-0.2,0-0.2-0.1-0.2-0.2c0-0.2,0.1-0.2,0.3-0.2c0.1,0,0.2,0.1,0.2,0.2C316.6,80.5,316.5,80.6,316.4,80.6z"/>
		<path d="M337.7,80.5c0,0.2-0.1,0.3-0.2,0.2c-0.1,0-0.2-0.1-0.2-0.1c0-0.1,0-0.2,0.2-0.3C337.6,80.2,337.6,80.3,337.7,80.5z"/>
		<path d="M326.6,81c0-0.2,0.1-0.2,0.2-0.2c0.2,0,0.3,0.1,0.3,0.3c0,0.1-0.1,0.2-0.3,0.2C326.7,81.2,326.6,81.2,326.6,81z"/>
		<path d="M353.9,81.4c0,0.1-0.1,0.2-0.2,0.3c-0.2,0.1-0.2-0.1-0.3-0.2c0-0.1,0-0.3,0.2-0.3C353.7,81.2,353.8,81.2,353.9,81.4z"/>
		<path d="M270.6,81.5c-0.1,0.1-0.2,0.2-0.3,0.1c-0.1,0-0.1-0.2-0.1-0.2c0-0.1,0.2-0.2,0.3-0.1C270.6,81.4,270.6,81.5,270.6,81.5z"
			/>
		<path d="M220.3,82.3c0,0.1-0.1,0.2-0.1,0.2c-0.1,0.1-0.2,0-0.3-0.2c0-0.1,0-0.2,0.1-0.2C220.1,82.1,220.3,82.2,220.3,82.3z"/>
		<path d="M224.8,82.6c0,0.1-0.1,0.2-0.1,0.2c-0.1,0-0.3,0-0.3-0.2c0-0.1,0.1-0.2,0.1-0.2C224.6,82.3,224.7,82.4,224.8,82.6z"/>
		<path d="M363.4,106.8c0,0.1-0.1,0.2-0.3,0.2c-0.2,0-0.3-0.2-0.2-0.3c0.1-0.1,0.2-0.1,0.3-0.1C363.3,106.5,363.4,106.7,363.4,106.8
			z"/>
		<path d="M330.2,82.8c0.1,0,0.3,0.1,0.3,0.2c0,0.1-0.1,0.2-0.2,0.3c-0.2,0.1-0.2-0.1-0.3-0.2C330,83,330.1,82.9,330.2,82.8z"/>
		<path d="M355.7,82.7c0.1,0,0.2-0.1,0.3-0.1c0.1,0,0.1,0.2,0.1,0.3c0,0.1-0.1,0.1-0.2,0.1C355.7,83,355.6,82.9,355.7,82.7z"/>
		<path d="M354.8,109.7c0.1,0,0.1,0.1,0.2,0.1c-0.1,0.1-0.1,0.1-0.2,0.2c-0.1,0-0.2,0-0.3,0c-0.1,0-0.2-0.1-0.2-0.1
			c0.1-0.1,0.1-0.1,0.2-0.1C354.7,109.7,354.8,109.7,354.8,109.7z"/>
		<path d="M436.9,82.9c0,0.1-0.1,0.2-0.3,0.2c-0.2,0-0.3-0.2-0.2-0.4c0.1-0.1,0.2-0.2,0.3-0.1C436.9,82.6,437,82.8,436.9,82.9z"/>
		<path d="M195.4,90.7c0.1,0,0.2,0.1,0.3,0.2c0,0.1-0.1,0.2-0.2,0.3c-0.2,0.1-0.2-0.1-0.3-0.2C195.2,90.8,195.2,90.7,195.4,90.7z"/>
		<path d="M189,91.3c-0.1,0-0.1,0.1-0.2,0.1c-0.1,0-0.2-0.2-0.1-0.3c0,0,0.2-0.1,0.2-0.1C189,91.1,189,91.2,189,91.3z"/>
		<path d="M85.7,66.2c-0.1,0-0.2,0.1-0.4,0.1c-0.1,0-0.2,0-0.2-0.1c0,0,0.1-0.1,0.1-0.1C85.4,66,85.6,66,85.7,66.2
			C85.7,66.2,85.7,66.2,85.7,66.2z"/>
		<path d="M103.9,48.4c0,0.1,0.1,0.1,0.1,0.2c0,0.2-0.1,0.2-0.3,0.2c-0.1,0-0.2-0.1-0.1-0.2C103.7,48.4,103.8,48.4,103.9,48.4z"/>
		<path d="M343.5,112.6c0.1,0,0.3-0.1,0.4-0.1c0.1,0,0.2,0,0.2,0.1c0,0.1-0.1,0.1-0.2,0.1C343.7,112.7,343.6,112.6,343.5,112.6
			C343.5,112.6,343.5,112.6,343.5,112.6z"/>
		<path d="M236.4,85c0,0,0.1,0,0.1,0.1c0.2,0.1,0.4,0.1,0.3,0.4c0,0-0.1,0.1-0.1,0.1C236.4,85.6,236.5,85.3,236.4,85
			C236.5,85.1,236.5,85,236.4,85C236.5,85,236.4,85,236.4,85z"/>
		<path d="M277.6,80.5c-0.1-0.1-0.1-0.1-0.2-0.2c0.1,0,0.1-0.1,0.2-0.1c0,0,0.1,0,0.1,0.1C277.6,80.4,277.6,80.5,277.6,80.5z"/>
		<path d="M199.5,70.7c-0.1,0-0.2-0.1-0.1-0.2c0,0,0.1,0,0.1,0c0.1,0,0.2,0,0.1,0.1C199.6,70.7,199.6,70.7,199.5,70.7z"/>
		<path d="M371.3,79c-0.1,0-0.1,0.1-0.2,0.1c-0.1,0-0.2-0.1-0.2-0.2c0,0,0.1-0.1,0.2-0.1C371.3,78.8,371.3,78.9,371.3,79z"/>
		<path d="M187.3,89.9c-0.1,0-0.1,0.1-0.2,0.1c-0.1,0-0.2-0.1-0.2-0.3c0,0,0.2-0.1,0.2-0.1C187.3,89.7,187.3,89.8,187.3,89.9z"/>
		<path d="M321.9,83.2c0,0.1,0,0.2-0.1,0.2c-0.1,0.1-0.3,0-0.3-0.1c0,0,0.1-0.1,0.2-0.2C321.8,83,321.8,83.1,321.9,83.2z"/>
		<path d="M356.8,104c-0.1,0.1-0.2,0.2-0.3,0.1c0,0,0-0.2,0-0.2c0,0,0.1,0,0.2,0C356.8,103.8,356.8,103.9,356.8,104z"/>
		<path d="M69.1,35.1c0-0.1-0.1-0.1-0.1-0.2c0-0.1,0.1-0.2,0.3-0.1c0.1,0,0.1,0.2,0.1,0.2C69.3,35.1,69.2,35.1,69.1,35.1z"/>
		<path d="M323.4,84.5c0.1,0.1,0.2,0.1,0.2,0.2c0,0.1-0.1,0.2-0.3,0.2c-0.1,0-0.1-0.1-0.1-0.2C323.3,84.6,323.3,84.5,323.4,84.5z"/>
		<path d="M352.4,78.4c0,0,0.1,0.1,0.1,0.1c0,0.1-0.1,0.2-0.2,0.1c-0.1-0.1-0.1-0.1,0-0.2C352.4,78.4,352.4,78.4,352.4,78.4z"/>
		<path d="M335.1,82.2C335.1,82.2,335.1,82.2,335.1,82.2c-0.1,0.1-0.2,0-0.2,0c0-0.1,0.1-0.1,0.2-0.1
			C335.1,82.1,335.1,82.1,335.1,82.2z"/>
		<path d="M283.6,87.2c0.1-0.1,0.1-0.1,0.2-0.1c0.2,0,0.2,0.1,0.2,0.3c0,0.1-0.1,0.2-0.2,0.1C283.7,87.3,283.6,87.2,283.6,87.2z"/>
		<path d="M225.9,73.4c0-0.1-0.1-0.1-0.1-0.2c0-0.1,0.2-0.2,0.3-0.1c0.1,0,0.1,0.2,0.1,0.2C226.1,73.3,225.9,73.4,225.9,73.4z"/>
		<path d="M153.3,65.9c-0.1,0-0.1,0-0.2,0c0,0,0-0.1,0-0.1c0,0,0.1,0,0.1-0.1C153.3,65.8,153.3,65.9,153.3,65.9z"/>
		<path d="M413,90.9c0.1,0,0.1-0.1,0.2-0.1c0,0.1,0.1,0.2,0.1,0.2c0,0.1-0.1,0.2-0.2,0.1C413.1,91.1,413.1,91,413,90.9z"/>
		<path d="M130.6,63.3c0-0.1-0.1-0.1-0.1-0.2c0.1,0,0.1,0,0.2,0c0,0,0.1,0.1,0.1,0.1C130.7,63.2,130.7,63.3,130.6,63.3z"/>
		<path d="M67.3,36.9c-0.1,0-0.1,0-0.2,0C67.2,37.1,67.3,37,67.3,36.9C67.3,36.9,67.3,36.9,67.3,36.9z"/>
		<path d="M433.5,85.8c0,0-0.1-0.1-0.1-0.1c0.1,0,0.1-0.1,0.2-0.1c0,0,0.1,0.1,0.1,0.1C433.6,85.8,433.6,85.9,433.5,85.8z"/>
		<path d="M251.5,86.1C251.6,86.2,251.6,86.2,251.5,86.1c0,0.1,0,0.1,0,0.2C251.5,86.3,251.5,86.2,251.5,86.1
			C251.5,86.2,251.5,86.2,251.5,86.1z"/>
		<path d="M98.6,47.4c-0.1,0.1-0.1,0.1-0.2,0.1c0-0.1,0-0.2,0-0.2c0,0,0.1-0.1,0.1-0.1C98.6,47.2,98.6,47.3,98.6,47.4z"/>
		<path d="M280,86c0,0.1,0.1,0.2,0.1,0.2c0,0-0.1,0.1-0.1,0.1c0,0-0.1-0.1-0.1-0.1C279.9,86.1,280,86.1,280,86z"/>
		<path d="M283.2,79.9c0.1,0,0.1,0.1,0.2,0.1c0,0-0.1,0.1-0.1,0.1c-0.1,0-0.2,0-0.2-0.1C283.2,80,283.2,80,283.2,79.9z"/>
		<path d="M304.3,36.2c0,0.1-0.1,0.2-0.2,0.1c0,0,0-0.1,0-0.1C304.1,36.2,304.2,36.1,304.3,36.2C304.3,36.3,304.3,36.2,304.3,36.2z"
			/>
		<path d="M101.5,45.9C101.5,45.9,101.5,45.9,101.5,45.9c0-0.1,0.1-0.1,0.1-0.2c0,0,0,0.1,0.1,0.1C101.6,45.9,101.6,45.9,101.5,45.9
			z"/>
		<path d="M91.7,41.5c0,0,0.1-0.1,0.1-0.1c0.1,0,0.1,0.1,0.2,0.1c0,0-0.1,0.1-0.1,0.1C91.8,41.6,91.7,41.6,91.7,41.5z"/>
		<path d="M61.9,35C61.9,35,62,34.9,61.9,35c0.1-0.1,0.1-0.1,0.2,0c0,0,0,0.1,0,0.1C62,35.1,62,35,61.9,35z"/>
		<path d="M229.2,82c0,0-0.1-0.1-0.1-0.1c0.1,0,0.1,0,0.2,0c0,0,0,0.1,0.1,0.1C229.3,82,229.2,82,229.2,82z"/>
		<path d="M67.8,34.4c-0.1,0-0.1,0.1-0.2,0.1c0,0-0.1-0.1-0.1-0.1c0,0,0.1-0.1,0.1-0.1C67.7,34.4,67.8,34.4,67.8,34.4z"/>
		<path d="M65.4,34.3c0,0,0.1,0,0.1,0.1c0.1,0.1,0,0.2-0.1,0.2C65.3,34.6,65.2,34.5,65.4,34.3C65.3,34.3,65.3,34.3,65.4,34.3z"/>
		<path d="M74.8,38.1c0-0.1-0.1-0.1-0.1-0.2c0.1,0,0.1,0,0.2,0c0,0,0,0.1,0.1,0.1C74.9,38,74.8,38.1,74.8,38.1z"/>
		<path d="M126.5,59.4c0.1,0,0.1,0.1,0.1,0.2c0,0-0.1,0.1-0.1,0.1c0,0-0.1,0-0.1-0.1C126.3,59.4,126.4,59.4,126.5,59.4z"/>
		<path d="M85.7,41.5C85.7,41.5,85.6,41.5,85.7,41.5c0-0.2,0-0.2,0.1-0.1C85.8,41.4,85.8,41.5,85.7,41.5
			C85.8,41.5,85.7,41.5,85.7,41.5z"/>
		<path d="M76.4,64.7c0,0.1,0,0.2-0.1,0.2c-0.1,0-0.2,0-0.1-0.1C76.2,64.7,76.3,64.7,76.4,64.7C76.4,64.7,76.4,64.7,76.4,64.7z"/>
		<path d="M133.8,64c0,0-0.1,0.1-0.1,0.1c0,0-0.1-0.1-0.1-0.1c0,0,0.1-0.1,0.1-0.1C133.7,63.9,133.8,63.9,133.8,64z"/>
		<path d="M110,53.6c0,0.1-0.1,0.1-0.1,0.1c0-0.1,0-0.1,0-0.2c0,0,0.1-0.1,0.1,0C110,53.4,110,53.5,110,53.6z"/>
		<path d="M335.1,78.2c-0.1,0-0.2-0.1-0.2-0.1c0-0.1,0.1-0.1,0.1-0.2c0.1,0,0.1,0.1,0.2,0.1C335.3,78,335.2,78.1,335.1,78.2z"/>
		<path d="M250.3,83.5c0,0,0,0.1-0.1,0.1c-0.1,0.1-0.2,0-0.2-0.1C250.1,83.4,250.1,83.4,250.3,83.5
			C250.3,83.4,250.3,83.5,250.3,83.5z"/>
		<polygon points="272,83.6 272.1,83.5 272.1,83.6 		"/>
		<path d="M401.1,95.4c0.1,0,0.1,0.1,0.2,0.1c0,0.1-0.1,0.1-0.1,0.2c-0.1,0.1-0.2,0-0.2-0.1C401,95.5,401,95.4,401.1,95.4z"/>
		<path d="M110.5,50.8c0,0.1-0.1,0.1-0.1,0.1c0-0.1-0.1-0.1-0.1-0.2c0,0,0.1-0.1,0.1-0.1C110.5,50.7,110.5,50.8,110.5,50.8z"/>
		<path d="M241.1,84.3c-0.1,0-0.1,0-0.2,0c0-0.1,0-0.1,0-0.2c0,0,0.1,0,0.1,0C241,84.2,241.1,84.3,241.1,84.3z"/>
		<path d="M212.8,69.9c0,0,0.1,0.1,0.1,0.1c-0.1,0-0.1,0.1-0.2,0.1c0,0-0.1-0.1-0.1-0.1C212.7,70,212.8,69.9,212.8,69.9z"/>
		<path d="M100.4,48.4c0,0-0.1-0.1-0.1-0.1c0.1,0,0.2-0.1,0.2-0.1c0,0,0.1,0.1,0.1,0.1C100.6,48.3,100.5,48.3,100.4,48.4z"/>
		<polygon points="414.8,62.1 414.9,62.1 414.9,62.2 		"/>
		<path d="M366,35.5C366,35.6,366,35.6,366,35.5C366,35.6,366,35.6,366,35.5C366,35.6,366,35.5,366,35.5z"/>
		<polygon points="386.6,35 386.7,35 386.6,35 		"/>
		<path d="M399.4,33.7c0,0.1,0,0.1,0,0.2c0,0,0,0-0.1-0.1C399.3,33.7,399.4,33.9,399.4,33.7C399.5,33.7,399.4,33.7,399.4,33.7z"/>
		<path d="M345.9,33.9c-0.1,0-0.2,0-0.2-0.1C345.8,33.7,345.9,33.9,345.9,33.9C345.9,34,345.9,33.9,345.9,33.9z"/>
		<path d="M399.8,33.5c0,0.2-0.1,0.3-0.3,0.2c0,0,0,0,0,0C399.6,33.6,399.6,33.5,399.8,33.5C399.8,33.5,399.8,33.5,399.8,33.5z"/>
		<path d="M456.4,49.7L456.4,49.7C456.5,49.8,456.4,49.7,456.4,49.7C456.4,49.7,456.4,49.7,456.4,49.7z"/>
		<path d="M62.8,53.3C62.9,53.2,62.7,53.3,62.8,53.3C62.9,53.2,62.9,53.3,62.8,53.3C62.8,53.3,62.8,53.3,62.8,53.3z"/>
		<path d="M381.1,90.5c0,0.1-0.1,0.2-0.1,0.2C380.8,90.5,381,90.5,381.1,90.5C381.1,90.5,381.1,90.5,381.1,90.5z"/>
		<path d="M428,49.8c0-0.1,0-0.1,0.1-0.2C428.3,49.8,428.1,49.8,428,49.8C428,49.8,428,49.8,428,49.8z"/>
		<path d="M71.1,33.5C71.1,33.6,71.1,33.6,71.1,33.5c0.1,0.1,0,0.2,0,0.2C71,33.7,71,33.7,71.1,33.5C71,33.6,71,33.6,71.1,33.5z"/>
		<path d="M388.4,84.5c0,0.1-0.1,0.2-0.1,0.2C388.2,84.5,388.3,84.5,388.4,84.5C388.4,84.5,388.4,84.5,388.4,84.5z"/>
		<path d="M191.9,70.5C191.9,70.6,191.8,70.6,191.9,70.5c-0.1,0.1-0.2,0-0.2,0C191.8,70.4,191.9,70.4,191.9,70.5z"/>
		<path d="M69.7,56.6L69.7,56.6C69.6,56.5,69.6,56.6,69.7,56.6C69.6,56.6,69.7,56.6,69.7,56.6z"/>
		<path d="M101.9,25.1C101.9,25.1,102,25.1,101.9,25.1c0.1,0.1,0.1,0.2,0.1,0.2C101.9,25.2,101.9,25.1,101.9,25.1
			C101.9,25,101.9,25.1,101.9,25.1z"/>
		<path d="M386.6,67.8C386.6,67.8,386.7,67.8,386.6,67.8c0.2,0.1,0.1,0.1,0,0.2C386.6,67.9,386.6,67.9,386.6,67.8
			C386.5,67.8,386.6,67.8,386.6,67.8z"/>
		<polygon points="192.1,92 192.1,91.9 192.1,92 		"/>
		<polygon points="449.1,80.6 449,80.5 449.1,80.6 		"/>
		<path d="M236.3,83.4C236.3,83.3,236.2,83.3,236.3,83.4c-0.1-0.1,0-0.1,0-0.1C236.3,83.2,236.4,83.3,236.3,83.4
			C236.4,83.3,236.3,83.3,236.3,83.4z"/>
		<path d="M465.3,15.9c-0.6,0-1.3-0.1-2.1-0.3c-0.7-0.2-1.2-0.6-1.5-1.3c-0.3-0.6-0.1-1.1,0.4-1.4c0.5-0.3,1.1-0.6,1.7-0.7
			c1.6-0.4,3.1-0.2,4.5,0.8c0.5,0.4,0.6,0.8,0.4,1.4c-0.2,0.4-0.5,0.7-0.9,1C467.1,15.8,466.3,15.9,465.3,15.9z"/>
	</g>
</g>
<g id="Layer_5">
</g>
<g id="Layer_4">
</g>
<g id="Layer_3">
</g>
</svg>
