<?xml version="1.0" encoding="utf-8"?>
<!-- Generator: Adobe Illustrator 25.0.1, SVG Export Plug-In . SVG Version: 6.00 Build 0)  -->
<svg version="1.1" xmlns="http://www.w3.org/2000/svg" xmlns:xlink="http://www.w3.org/1999/xlink" x="0px" y="0px"
	 viewBox="0 0 566.9 148.7" style="enable-background:new 0 0 566.9 148.7;" xml:space="preserve">
<g id="Layer_1">
</g>
<g id="Layer_13">
</g>
<g id="Layer_12">
</g>
<g id="Layer_11">
</g>
<g id="Layer_10">
</g>
<g id="Layer_9">
</g>
<g id="Layer_8">
</g>
<g id="Layer_7">
</g>
<g id="Layer_6">
</g>
<g id="Layer_5">
</g>
<g id="Layer_4">
	<g>
		<path d="M229.2,68c0,0-0.1-0.1-0.1-0.1c-0.2,0-0.3-0.1-0.3-0.4c0-0.5,0.3-0.9,0.6-1.3c0.4-0.5,0.9-0.9,1.4-1.3
			c0.1-0.1,0.3-0.2,0.3-0.4l0,0c0.3,0,0.4-0.2,0.6-0.4l0,0c0.1,0,0.2-0.1,0.2-0.2l0,0c0.3,0,0.4-0.1,0.6-0.3
			c0.6-0.3,1.2-0.6,1.9-0.7c0.1,0,0.2,0,0.4,0c0.1,0,0.2,0.1,0.2,0.2c0,0.1,0,0.2-0.1,0.2c-0.1,0.1-0.3,0.1-0.4,0.2
			c-0.6,0.2-1.1,0.6-1.6,0.9c-1,0.7-1.9,1.5-2.7,2.3c0.1-0.1,0.1,0,0.1,0c0,0,0,0,0-0.1c0.2,0,0.4-0.1,0.6-0.2
			c0.3-0.2,0.7-0.4,1-0.5c0.2-0.1,0.5-0.2,0.8-0.1c0.1,0,0.2,0.2,0.1,0.3c-0.1,0.3-0.3,0.4-0.6,0.6c-0.5,0.4-1,0.7-1.4,1.1
			c-0.1,0.1-0.2,0.1-0.2,0.3c0,0.1,0.1,0.1,0.2,0.1c0.2,0.1,0.3,0.2,0.1,0.4c-0.1,0.1-0.3,0.3-0.2,0.3c0.4,0.5-0.2,0.6-0.3,0.8
			c-0.2,0.4-0.6,0.7-0.9,1c-0.3,0.2-0.5,0.4-0.7,0.7c-0.1,0-0.2,0.1-0.2,0.2c0,0-0.1,0-0.1,0c0,0,0,0,0,0c0,0,0,0,0-0.1
			c0.1,0,0.2-0.1,0.2-0.2c0.3,0.1,0.5-0.2,0.7-0.3c0.1-0.1,0.2-0.1,0.3-0.1c0.1,0,0.2,0,0.2,0.1c0.1,0.1,0.1,0.2,0.1,0.3
			c-0.1,0.3-0.3,0.5-0.5,0.7c-0.8,0.7-1.6,1.4-2.5,1.9c-0.2,0.1-0.4,0.2-0.5,0.4c0.1,0.1,0.2,0,0.4,0c0.3,0,0.5-0.1,0.8-0.1
			c0.1,0,0.3,0,0.4,0.2c0,0.1,0,0.2-0.1,0.3c-0.2,0.1-0.3,0.2-0.5,0.3c-0.1,0.1-0.3,0.1-0.4,0.2c0.1,0.2,0.2,0.2,0.4,0.2
			c0.3,0,0.6,0,0.8,0.2c-0.4,0.5-0.5,0.6-0.9,0.7c-0.7,0.1-1.4,0.2-2.1,0.1c-0.2,0-0.5,0-0.7,0c-0.9-0.1-1.6,0.2-2.3,0.7
			c-0.5,0.4-1.2,0.5-1.8,0.7c-0.2,0-0.4,0-0.5,0.1c-0.8,0.5-1.7,0.3-2.6,0.2c-0.4,0-0.7-0.1-1,0.2c-0.3,0.2-0.6,0.1-0.9,0
			c-0.4-0.1-0.8-0.2-1.1-0.3c-1.2-0.3-2.4-0.3-3.6,0c0.1,0.3,0.3,0.2,0.5,0.2c0.8,0,1.5,0.2,2.3,0.4c0.5,0.1,0.9,0.3,1.1,0.7
			c-0.3,0.3-0.6,0.4-1.1,0.3c-1.2-0.3-2.4-0.6-3.6-0.4c-0.1,0-0.2,0-0.3,0c-0.1,0-0.2,0-0.2,0.2c0,0.4-0.3,0.6-0.5,0.9
			c-0.3,0.3-0.6,0.5-0.9,0.8c-0.2,0.2-0.5,0.4-0.4,0.8c0,0.2-0.1,0.3-0.2,0.5c-0.2,0.2-0.5,0.3-0.1,0.6c0.1,0.1,0.1,0.3-0.1,0.4
			c-0.2,0.2-0.3,0.4-0.5,0.5c-0.6,0.4-0.9,0.9-1.2,1.5c-0.3,0.5-0.5,1.2-1,1.6c0,0,0,0,0.1,0c0,0,0,0,0,0c0,0,0-0.1-0.1-0.1
			c0.2,0.1,0.3,0.1,0.5,0c0.3-0.2,0.6-0.4,0.9-0.6c0.1-0.1,0.3-0.1,0.4-0.1c0.1,0,0.2,0.2,0.1,0.3c-0.1,0.1-0.2,0.3-0.3,0.4
			c-0.3,0.3-0.7,0.6-1,0.9c-0.4,0.4-0.8,0.8-1.2,1.1c-0.1,0.2,0.1,0.3,0.2,0.4c0.2,0.3,0.3,0.5,0,0.7c-0.2,0.1-0.3,0.3-0.5,0.4
			c-0.5,0.3-1,0.8-1.3,1.3c-0.2,0.4-0.5,0.7-0.7,1.1c-0.1,0.1-0.1,0.2,0,0.4c0.2,0,0.3-0.3,0.6-0.3c0.1,0,0.2,0,0.3,0.1
			c0.1,0.1,0.1,0.2,0.1,0.3c-0.2,0.3-0.3,0.6-0.5,0.8c-0.5,0.7-1.1,1.4-1.5,2.2c0.2,0.1,0.4-0.1,0.6-0.1c0.2-0.1,0.4-0.2,0.6,0
			c0.1,0.1,0,0.4-0.2,0.6c-0.1,0.1-0.2,0.2-0.3,0.3c-0.1,0.1-0.3,0.2-0.4,0.3c-0.5,0.3-0.8,0.7-0.9,1.3c-0.1,0.3-0.4,0.6-0.2,1
			c0.1,0.1-0.1,0.3-0.2,0.4c-0.2,0.2-0.5,0.3-0.7,0.6c-0.1,0.2-0.2,0.4,0,0.7c0.2,0.2,0.1,0.4-0.1,0.5c-0.1,0.1-0.3,0.2-0.3,0.4
			c-0.2,1.5-1.2,2.3-2.4,3.1c-0.3,0.2-0.7,0.4-1,0.7c0.1,0.1,0.2,0.1,0.2,0.1c0.2,0.2,0.3,0.4,0.1,0.6c-0.3,0.3-0.6,0.5-0.9,0.7
			c-0.2,0.2-0.5,0.3-0.4,0.7c0,0.2-0.1,0.3-0.2,0.4c-0.2,0.2-0.5,0.4-0.7,0.5c-0.7,0.5-1.4,1-2,1.6c-0.1,0.1-0.2,0.3,0,0.5
			c0.3,0.2,0.2,0.5,0,0.7c-0.1,0.1-0.1,0.2-0.2,0.3c-0.7,0.7-0.7,1.6-0.5,2.4c0,0.2,0.2,0.2,0.3,0.1c0.1-0.1,0.2-0.2,0.4-0.2
			c0.2,0,0.4,0.2,0.4,0.3c0,0.1,0,0.1,0,0.2c-0.1,0.4-0.1,0.7,0.3,0.9c0.2,0.1,0.2,0.3-0.1,0.5c-0.3,0.2-0.3,0.4-0.3,0.7
			c0.2,1.3,0.7,2.6,1.4,3.7c0.2,0.4,0.4,0.7,0.7,1.1c0.3,0.4,0.4,0.9,0.4,1.5c0,0.1-0.1,0.2-0.2,0.3c0-0.1,0.1-0.1,0,0
			c-0.1,0.1,0.1,0,0,0c0.9,0.9,1.8,1.8,2.6,2.7c1.1,1.2,2,2.6,2.5,4.2c0.1,0.3,0.2,0.6,0.2,1c0.2,0.6,0.4,1.2,0.6,1.8
			c0.5,1.2,1.3,2,2.5,2.6c0.8,0.4,1.6,0.8,2.3,1.1c0.8,0.4,1.5,0.9,2.3,1.4c1.4,1,2.8,1.6,4.5,2c1.5,0.3,3,0.6,4.6,0.7
			c1,0.1,2.1,0.3,3.1,0.6c0.3,0.1,0.5,0.2,0.7,0.3c0.6,0.4,1.2,0.9,1.8,1.4c0.3,0.3,0.7,0.5,1.1,0.6c0.8,0.2,1.5,0.3,2.3,0.5
			c0.1,0,0.3,0.1,0.4,0c0.1,0,0.1-0.2,0-0.2c-0.5-1.2,0.4-3.1,1.9-3.7c0.6-0.3,1.3-0.4,2-0.4c0.1,0,0.3,0,0.4,0
			c0.2,0,0.3-0.2,0.2-0.3c-0.2-0.4-0.5-0.8-0.9-1.1c-0.3-0.2-0.6-0.3-0.9-0.4c-1-0.3-2-0.5-3.1-0.5c-0.3,0-0.5,0-0.8,0
			c-0.9,0.1-1.8-0.2-2.6-0.5c-1-0.4-2.1-0.7-3.2-0.8c-0.6,0-1.2-0.1-1.9-0.2c-0.2,0-0.4-0.1-0.6-0.1c-1.4-0.5-2.7-1.1-3.8-2.1
			c-0.1-0.1-0.3-0.2-0.4-0.4c-0.2-0.2-0.2-0.4,0-0.6c0.1-0.2,0.3-0.1,0.5-0.1c0.2,0.1,0.4,0.2,0.5,0.3c0.9,0.9,2,1.4,3.1,1.9
			c0.6,0.2,1.2,0.3,1.8,0.3c1.6,0,3,0.3,4.4,0.9c0.8,0.4,1.7,0.4,2.5,0.4c1.4-0.1,2.7,0.2,4.1,0.6c1,0.3,1.6,1,2.1,1.9
			c0.7,1.4,1.9,1.9,3.3,2.1c0.5,0,1,0,1.5,0c1.7,0,3.1,0.6,4.2,1.9c0.5,0.6,1.1,1,1.9,1.1c1.2,0.2,2.3,0.1,3.4,0.1
			c0-0.2-0.1-0.2-0.2-0.3c-0.2-0.1-0.4-0.2-0.6-0.3c-0.8-0.4-1.1-1.1-1.3-1.9c0-0.3,0.1-0.6,0.2-0.9c0.3-0.5,0.6-0.9,1.1-1.2
			c0.3-0.2,0.6-0.4,0.8-0.7c-0.6-1.2-1.7-1.6-2.8-1.9c-0.7-0.1-1.4-0.2-2-0.3c-1.7-0.3-3.3-0.9-4.8-1.9c-1-0.7-2.1-1.3-3.2-1.8
			c-1.5-0.6-2.9-1-4.5-1.1c-1.4-0.1-2.7-0.1-4.1-0.2c-1.5-0.1-3-0.3-4.4-0.9c-1-0.4-1.9-1-2.7-1.5c-0.3-0.2-0.5-0.4-0.6-0.6
			c-0.1-0.2-0.1-0.3,0.1-0.5c0.1-0.1,0.3-0.2,0.5-0.1c0.1,0,0.1,0.1,0.2,0.2c1.6,1.2,3.3,2,5.3,2.3c0.9,0.1,1.9,0.2,2.9,0.2
			c1.3,0.1,2.5,0,3.8,0.2c0.7,0.1,1.4,0.2,2,0.3c0.2,0.1,0.5,0.1,0.7,0c0.4-0.2,0.8-0.2,1.1-0.1c1.5,0.1,3,0.2,4.4,0.6
			c1.1,0.3,2.2,0.7,3.2,1.3c0.7,0.4,1.4,0.8,2.2,0.9c0.3,0,0.6,0.1,0.9,0.1c0.8-0.1,1.7-0.1,2.5-0.3c1.1-0.3,2.3-0.2,3.4,0.1
			c0.3,0.1,0.7,0.2,1,0.3c1.1,0.4,2.2,0.7,3.3,0.5c0.5-0.1,1,0,1.4-0.1c0.1,0,0.3,0,0.3-0.1c0.1-0.1-0.1-0.2-0.1-0.3
			c0,0,0,0-0.1-0.1c-1.1-1.1-0.9-2.6,0.4-3.5c0.2-0.1,0.4-0.2,0.6-0.5c-0.6-0.5-1.3-0.8-2-1c-1-0.2-1.9-0.3-2.9,0
			c-0.6,0.2-1.2,0.2-1.8,0.5c0,0-0.1,0-0.2,0.1c-0.2,0-0.3,0-0.4-0.2c-0.1-0.1-0.1-0.2,0-0.3c0.1-0.3,0.3-0.4,0.6-0.6
			c0.2-0.1,0.2-0.3-0.1-0.4c-0.2-0.1-0.5-0.2-0.8-0.2c-0.2,0-0.5,0-0.7,0c-1.3,0-2.4-0.4-3.5-0.9c-0.6-0.3-1.2-0.5-1.8-0.8
			c-0.7-0.3-1.4-0.5-2.1-0.6c-1.3-0.2-2.5-0.4-3.8-0.6c-2.3-0.3-4.5-0.8-6.5-1.8c-0.2-0.1-0.4-0.2-0.6-0.4c-0.1-0.2,0-0.4,0.2-0.5
			c0.3-0.1,0.6,0,0.9,0.1c0.8,0.3,1.7,0.6,2.5,0.9c1.4,0.4,2.8,0.7,4.2,0.8c1.6,0.2,3.1,0.4,4.7,0.8c0.9,0.2,1.8,0.6,2.7,1.1
			c1.2,0.6,2.4,0.9,3.7,0.9c0.6,0,1.2,0.2,1.7,0.4c0.2,0.1,0.3,0.2,0.4,0.3c0.1,0.4,0.4,0.4,0.7,0.3c1.9-0.4,3.6,0,5.2,0.9
			c0.9,0.5,1.7,0.9,2.7,1c0.7,0,1.5,0.2,2.2,0.4c1.6,0.5,2.8,1.4,4,2.5c0.8,0.8,1.4,1.7,2,2.5c0.1,0.2,0.2,0.4,0.3,0.5
			c0.2,0.5-0.1,1-0.7,1c-0.2,0-0.5-0.1-0.7-0.1c-0.7-0.2-1.4-0.5-2.1-0.8c-1.2-0.5-2.4-0.9-3.6-1c-1.1-0.1-2.2-0.2-3.3,0.2
			c-1,0.3-2,0.4-3.1,0.5c-1.5,0.1-3-0.2-4.4-0.7c-0.5-0.2-1-0.3-1.6-0.4c-0.6-0.1-1.2-0.1-1.9,0.1c-0.9,0.2-1.8,0.3-2.7,0.4
			c-1.1,0.1-2.2-0.2-3.2-0.7c-1.3-0.7-2.6-1.2-4.1-1.7c-0.6-0.2-1.3-0.1-2-0.3c0.1,0.3,0.3,0.4,0.5,0.5c0.8,0.5,1.7,1.1,2.5,1.5
			c1.2,0.7,2.5,1,3.9,1.2c0.8,0.1,1.6,0.3,2.4,0.6c0.8,0.3,1.5,0.8,2.1,1.5c0.1,0.2,0.3,0.4,0.5,0.5c0.1,0.1,0.3,0.2,0.5,0.2
			c0.9,0,1.6,0.5,2.4,0.9c1.7,0.9,3,2.3,4.1,4c0.5,0.9,1.1,1.7,1.6,2.6c0.1,0.1,0.1,0.3,0.2,0.4c0.1,0.4-0.2,0.7-0.5,0.6
			c-0.3,0-0.6-0.1-0.9-0.3c-0.7-0.3-1.4-0.7-2.1-1c-1.3-0.6-2.7-1-4.1-1.4c-0.2-0.1-0.4-0.1-0.5,0.1c-0.1,0.2-0.3,0.3-0.5,0.3
			c-1.5,0.3-3,0.4-4.6,0.2c-0.9-0.1-1.7-0.5-2.3-1.2c-0.2-0.2-0.3-0.4-0.5-0.5c-0.9-0.9-1.9-1.2-3.2-1.2c-0.1,0-0.2,0-0.2,0.1
			c-0.1,0.1,0,0.2,0.1,0.2c0.4,0.4,0.7,0.9,1,1.4c0.6,1,1,2,1.4,3c0.1,0.2,0.2,0.4,0.1,0.7c-0.1,0.2-0.3,0.4-0.5,0.4
			c-0.2,0-0.4-0.1-0.6-0.2c-1.1-0.7-2.3-0.9-3.4-1.3c-0.8-0.3-1.6-0.3-2.5-0.4c-0.9-0.1-1.8-0.2-2.7-0.3c-0.1,0-0.2,0-0.4-0.1
			c-0.9-0.4-1.8-0.3-2.7-0.4c-1.2,0-2.2-0.4-3.3-0.7c-0.5-0.1-0.9-0.4-1.3-0.8c-0.5-0.5-1-0.9-1.7-1.1c-1-0.7-2.2-0.7-3.3-0.8
			c-1.4-0.1-2.9-0.3-4.3-0.6c-1.9-0.4-3.7-1.2-5.3-2.4c-0.8-0.6-1.7-1.1-2.5-1.5c-0.6-0.3-1.3-0.6-1.9-0.9c-1.2-0.6-2-1.6-2.6-2.7
			c-0.4-0.8-0.7-1.6-0.9-2.5c-0.3-1.8-1.2-3.2-2.4-4.4c-1-1-2-2-2.9-3c-0.7-0.7-1.3-1.4-1.8-2.2c-0.4-0.7-0.7-1.5-0.9-2.3
			c0-0.2-0.1-0.4-0.3-0.6c-0.6-0.8-1-1.8-1.3-2.7c-0.1-0.3-0.2-0.7-0.1-1c0.1-0.3,0.3-0.4,0.5-0.4c0.2,0.1,0.3,0.2,0.3,0.5
			c0,0.3,0,0.5,0.3,0.8c0-0.4,0-0.7-0.1-1.1c-0.2-0.8-0.1-1.6,0.1-2.4c0-0.1,0.1-0.3,0-0.4c-0.2-0.5,0-0.9,0.3-1.2
			c0.3-0.3,0.4-0.7,0.6-1.1c0.4-1,1.1-1.8,1.8-2.5c0.2-0.3,0.5-0.5,0.6-0.9c0.1-0.3,0.3-0.5,0.6-0.7c0.2-0.1,0.4-0.3,0.7-0.4
			c0.1-0.1,0.3-0.2,0.3-0.3c0-0.6,0.4-1,0.8-1.4c0.2-0.2,0.3-0.3,0.5-0.5c0.1-0.2,0.3-0.3,0.3-0.5c0-0.4,0.2-0.7,0.5-0.9
			c0.4-0.5,0.9-0.9,1.4-1.3c0.1-0.1,0.3-0.2,0.4-0.3c0.1-0.1,0.1-0.2,0.1-0.3c0-0.1-0.2-0.1-0.3,0c-0.2,0-0.5,0.1-0.7,0.1
			c0,0-0.1,0-0.2-0.1c0.2-0.5,0.4-1,1-1.2c0.2-0.1,0.3-0.2,0.5-0.3c0.5-0.3,0.8-0.6,0.7-1.3c-0.1-0.6,0.2-1.1,0.4-1.6
			c0.4-0.9,0.8-1.9,1.3-2.8c0.6-1.2,1.2-2.4,1.8-3.6c0.2-0.3,0.3-0.7,0.3-1.1c0-0.3,0.1-0.6,0.3-0.9c0.3-0.5,0.6-1,1-1.5
			c0.2-0.3,0.4-0.6,0.4-1c0-0.3,0.2-0.6,0.4-0.9c0.1-0.1,0.1-0.2,0.1-0.3c-0.1-0.1-0.3-0.1-0.4-0.1c-2.1,0.4-4.2,0.8-6.3,1.3
			c-2.7,0.6-5.2,1.6-7.8,2.5c-2.9,1.1-5.7,2.1-8.6,3.1c-1.8,0.6-3.5,1.3-5.3,1.9c-1.7,0.6-3.3,1.1-5.1,1.5c-1.5,0.4-3,0.8-4.5,1.2
			c-1.1,0.3-2.2,0.5-3.3,0.7c-1.4,0.3-2.9,0.6-4.3,0.8c-1.9,0.3-3.8,0.6-5.7,0.7c-2.2,0.2-4.4,0.3-6.5,0.3c-2.7,0-5.3-0.1-8-0.4
			c-3.2-0.3-6.3-0.9-9.4-1.4c-2.6-0.4-5-1.2-7.4-2c-1.4-0.5-2.8-1.1-4.2-1.7c-2.7-1.1-5.3-2.1-8.1-3c-2.1-0.7-4.3-1.2-6.4-1.6
			c-1.3-0.3-2.6-0.5-4-0.7c-1.9-0.2-3.8-0.3-5.6-0.3c-1.8,0.1-3.6,0.3-5.4,0.5c-0.9,0.1-1.9,0.2-2.8,0.4c-2.4,0.5-4.7,1.1-7.1,1.6
			c-2,0.4-4,0.8-6,1c-1.2,0.1-2.5,0.2-3.7,0.4c-1.4,0.2-2.9,0-4.3-0.1c-1.6-0.2-3.1-0.5-4.7-0.9c-1.4-0.4-2.7-0.8-4.1-1.3
			c-2.6-0.9-5.2-2.1-7.8-3c-1.5-0.6-3-1.1-4.6-1.6c-1.8-0.6-3.6-1-5.3-1.5c-2.5-0.7-5.1-1.1-7.7-1.4c-1.5-0.2-3.1-0.3-4.6-0.5
			c-1.1-0.1-2.2-0.2-3.3-0.2c-1.1-0.1-2.1-0.2-3.2-0.4c-0.3-0.1-0.6-0.1-0.9-0.2c-0.2-0.1-0.3-0.2-0.4-0.3c-0.4-0.4-0.4-0.7,0-1.1
			c0.2-0.2,0.4-0.3,0.7-0.4c1.5-0.6,3.1-1.2,4.7-1.6c0.8-0.2,1.7-0.4,2.5-0.5c1.4-0.3,2.7-0.3,4.1-0.4c2.5-0.2,5,0.1,7.4,0.5
			c2.7,0.4,5.3,1.3,7.8,2.3c2.2,0.8,4.3,1.7,6.6,2.1c1.9,0.4,3.9,0.7,5.9,0.7c1.8,0,3.7-0.1,5.5-0.2c1.9-0.1,3.9-0.4,5.8-0.8
			c1.7-0.3,3.4-0.7,5.1-1.1c2.2-0.5,4.3-1.2,6.4-1.8c2.4-0.8,4.8-1.5,7.2-2.1c1.5-0.4,3-0.7,4.5-0.9c2.3-0.3,4.6-0.6,7-0.6
			c1.2,0,2.3,0,3.5,0c1.2,0,2.3,0.1,3.5,0.2c1.6,0.1,3.2,0.3,4.7,0.4c1.2,0.1,2.5,0.4,3.7,0.5c1.7,0.2,3.5,0.5,5.2,0.7
			c2.8,0.3,5.6,0.6,8.4,0.7c2.2,0.1,4.3,0.1,6.5,0c1.8-0.1,3.6-0.2,5.4-0.4c1.5-0.1,2.9-0.4,4.4-0.6c1.1-0.1,2.1-0.3,3.2-0.5
			c1.4-0.2,2.9-0.5,4.3-0.8c1.4-0.3,2.8-0.5,4.2-0.8c2.3-0.5,4.6-1,6.9-1.5c2.7-0.6,5.5-1.3,8.2-2.1c1.9-0.6,3.8-1.2,5.7-1.8
			c2.3-0.7,4.5-1.6,6.8-2.4c1.8-0.7,3.6-1.4,5.4-2.1c2.2-0.8,4.4-1.8,6.6-2.7c1.6-0.7,3.1-1.5,4.6-2.2c0.8-0.4,1.6-0.8,2.4-1.2
			c2.4-1.2,4.8-2.5,7.1-3.8c1.5-0.8,3.1-1.6,4.6-2.5c2.2-1.3,4.4-2.5,6.5-3.8c1.7-1.1,3.5-2.2,5.3-3.2c1.1-0.6,2.2-1.4,3.3-2.1
			c1.7-1.1,3.5-2.2,5.2-3.3c0.3-0.2,0.6-0.3,0.9-0.4c0.5-0.1,1-0.4,1.4-0.8c1-1,2.1-1.8,3.3-2.7c0.3-0.2,0.6-0.4,0.9-0.6
			c0.2-0.1,0.4-0.1,0.6,0c0.2,0.1,0.2,0.3,0.3,0.5c0,0,0,0,0,0c-0.1,0-0.2,0.1-0.2,0.2l0,0c-1.7,1.3-3.3,2.7-4.9,4.1
			c-0.3,0.3-0.6,0.5-0.9,0.7c-0.4,0.3-0.8,0.5-1.2,0.6c-0.2,0.1-0.3,0-0.3-0.4c-0.2,0-0.4,0.2-0.6,0.3c-0.8,0.6-1.6,1.1-2.4,1.7
			c-1.6,1.1-3.2,2.1-4.8,3.1c-1.7,1.1-3.4,2.1-5.1,3.2c-1.2,0.8-2.5,1.5-3.8,2.2c-1.5,0.9-3,1.7-4.5,2.6c-1.7,1-3.4,1.9-5.1,2.8
			c-2,1.1-4,2.2-6,3.2c-1.7,0.9-3.5,1.8-5.3,2.5c-2.6,1.1-5.2,2.3-7.9,3.3c-1.3,0.5-2.7,1.1-4,1.6c-2.6,1-5.1,1.9-7.8,2.8
			c-3.1,1-6.2,2-9.4,2.8c-3,0.8-6,1.5-9,2.1c-2,0.4-4,0.9-6,1.2c-1.3,0.2-2.6,0.5-4,0.7c-2,0.3-3.9,0.6-5.8,0.9
			c-1.2,0.2-2.4,0.3-3.7,0.4c-1.6,0.1-3.2,0.3-4.8,0.3c-1.7,0.1-3.4,0.1-5.1,0.1c-2.5,0-5-0.2-7.4-0.5c-2-0.2-4-0.5-6.1-0.7
			c-2.1-0.3-4.1-0.6-6.2-0.8c-2-0.2-4.1-0.4-6.2-0.5c-1.6-0.1-3.1-0.1-4.7-0.1c-2,0-3.9,0.2-5.9,0.5c-2.4,0.3-4.7,0.9-7,1.5
			c-1.3,0.3-2.6,0.8-4,1.2c-2.3,0.7-4.5,1.4-6.8,2c-2.6,0.7-5.2,1.3-7.8,1.7c-2.4,0.3-4.7,0.6-7.1,0.7c-1.7,0.1-3.5,0.1-5.2-0.1
			c-2.2-0.2-4.4-0.7-6.5-1.3c-1.4-0.4-2.7-1-4-1.5c-1.8-0.7-3.6-1.3-5.5-1.7c-1.2-0.3-2.4-0.5-3.6-0.6c-1-0.1-1.9-0.2-2.9-0.3
			c-1-0.1-2.1,0-3.1,0c-2.3,0.1-4.5,0.5-6.6,1c-0.8,0.2-1.7,0.5-2.5,0.8C20,78,19.8,78,19.6,78.2c0.7,0.2,1.3,0.2,2,0.3
			c1.8,0.1,3.6,0.2,5.5,0.4c1.3,0.1,2.5,0.3,3.7,0.4c3.2,0.3,6.2,1.1,9.3,1.9c1.9,0.5,3.8,1.2,5.7,1.8c1.5,0.5,3,1.1,4.4,1.7
			c1.4,0.5,2.7,1.1,4.1,1.6c2.4,0.9,4.8,1.7,7.3,2.2c1.7,0.3,3.4,0.5,5.1,0.6c1,0,2-0.1,3-0.2c1.3-0.1,2.6-0.3,3.8-0.5
			c2.1-0.3,4.2-0.7,6.3-1.2c2.3-0.5,4.6-1.1,6.9-1.4c1.3-0.2,2.7-0.3,4-0.5c1.8-0.2,3.6-0.2,5.4-0.2c1.7,0.1,3.5,0.2,5.2,0.6
			c1.3,0.3,2.7,0.5,4,0.8c2.7,0.6,5.4,1.4,8.1,2.4c1.5,0.6,3.1,1.2,4.6,1.8c1.3,0.5,2.5,1,3.7,1.5c2.2,0.8,4.4,1.5,6.7,2
			c2.2,0.4,4.5,0.8,6.7,1.2c0.8,0.1,1.7,0.2,2.5,0.3c2.5,0.2,5,0.4,7.5,0.5c2.4,0.1,4.8-0.1,7.2-0.2c1,0,2.1-0.1,3.1-0.3
			c1.3-0.2,2.6-0.3,3.9-0.5c1.6-0.3,3.2-0.6,4.8-1c2.7-0.6,5.4-1.4,8.2-2.1c1.9-0.5,3.8-1.2,5.6-1.9c1.9-0.7,3.8-1.4,5.7-2.1
			c1.7-0.6,3.5-1.3,5.2-1.9c2.1-0.7,4.2-1.5,6.3-2.2c2-0.6,4-1,6-1.4c1.3-0.2,2.6-0.5,4-0.7c0.6-0.1,0.6-0.1,0.5-0.9
			c-0.3,0.3-0.6,0.5-1,0.6c-0.2,0.1-0.3,0-0.3-0.3c0-0.3,0.1-0.6,0.3-0.8c0.8-1,1.7-1.9,3-2.4c0.1,0,0.2-0.1,0.3-0.1
			c1.8-1,3.8-1.1,5.8-1c0.5,0,1.1,0.1,1.6,0.2c0.3,0,0.5,0,0.5-0.4c0-0.2,0.3-0.3,0.5-0.3c0.3,0,0.7,0,1,0.1
			c0.9,0.1,1.8,0.3,2.7,0.4c0.6,0.1,1.1-0.1,1.6-0.4c0.7-0.5,1.4-1,2.2-1.3c0.2-0.1,0.3-0.2,0.4-0.3c0.2-0.4,0.5-0.6,0.9-0.8
			c0.4-0.2,0.7-0.4,1.1-0.6c0.2-0.1,0.3-0.4,0.2-0.6c-0.3-0.6-0.1-1.1,0.3-1.6c0.1-0.2,0.3-0.4,0.5-0.5c0.1-0.2,0-0.4,0.1-0.6
			c0.2-0.4,0.3-0.7,0.6-1C228.3,68.7,228.7,68.3,229.2,68c0-0.1,0-0.3,0.1-0.4c0,0,0,0,0.1,0c0,0,0,0,0,0c0,0,0,0,0-0.1
			C229.2,67.7,229.1,67.9,229.2,68z M195.1,104.6c0.1,0,0.2,0,0.2-0.2c0.1,0,0.2,0,0.2-0.2c0.6-0.3,0.6-0.3,0.8-0.8
			c-0.2,0.1-0.4,0.3-0.5,0.4c-0.1,0.1-0.2,0.2-0.2,0.4c-0.1,0-0.2,0-0.2,0.2C195.2,104.5,195.1,104.6,195.1,104.6L195.1,104.6
			L195.1,104.6z M190.8,121C190.8,121,190.8,121,190.8,121C190.8,121,190.8,121,190.8,121C190.8,121,190.8,121,190.8,121
			c0.1,0.2,0.1,0.3,0.2,0.5c0-0.1,0-0.1,0,0c0,0,0,0-0.1,0C191,121.3,190.9,121.1,190.8,121z M235.9,147.1c-0.4-1.1-0.9-2.1-1.6-2.9
			c-0.6-0.7-1.4-1.3-2.3-1.5c-0.7-0.2-1.3-0.5-1.9-0.7c-0.2-0.1-0.3-0.2-0.5-0.2c-0.8,0-1.6,0-2.3,0.2c-0.9,0.3-1.4,0.9-1.6,1.8
			c-0.1,0.3,0,0.6,0.3,0.8c0.2,0.2,0.4,0.3,0.6,0.4c0.8,0.3,1.6,0.5,2.4,0.6c1.7,0.2,3.3,0.4,4.9,1
			C234.6,146.7,235.2,146.8,235.9,147.1z M265.5,136.8c0.1-0.1,0.1-0.2,0.1-0.3c-0.3-0.6-0.7-1.3-1.2-1.8c-1.5-1.5-3.3-2.6-5.5-2.8
			c-0.8-0.1-1.7-0.1-2.5-0.3c-0.1,0-0.2,0-0.2,0.1c-0.2,0.4-0.6,0.6-0.9,0.8c-0.5,0.4-0.7,1.4,0.2,1.8c0.6,0.3,1.2,0.4,1.8,0.4
			c1.2,0,2.4,0.1,3.6,0.4c1,0.2,1.9,0.6,2.9,1C264.3,136.4,264.9,136.6,265.5,136.8z M252.6,146.6c0,0,0.1-0.1,0.1-0.1
			c-0.4-0.7-0.8-1.4-1.3-2.1c-0.8-1.2-1.7-2.1-2.9-2.9c-0.9-0.6-1.8-0.7-2.8-0.9c-0.1,0-0.2,0-0.3,0.1c-0.8,0.2-1.3,0.8-1.8,1.4
			c-0.2,0.3-0.2,0.5,0,0.8c0.3,0.5,0.7,0.8,1.2,1c0.7,0.2,1.5,0.5,2.2,0.7c1.5,0.4,2.8,0.9,4.2,1.5
			C251.7,146.1,252.1,146.3,252.6,146.6z M207.3,80.2c0.1,0,0.2-0.1,0.3-0.2c0,0,0-0.1,0-0.1c-0.1,0-0.2,0-0.2,0
			C207.3,80,207.3,80.1,207.3,80.2C207.2,80.2,207.3,80.2,207.3,80.2z M209.4,78.6C209.4,78.6,209.4,78.6,209.4,78.6
			C209.4,78.6,209.4,78.6,209.4,78.6C209.3,78.6,209.3,78.6,209.4,78.6z"/>
		<path d="M369.1,12.1c0.1-0.1,0.1-0.2,0.1-0.3c0.1-0.4,0.2-0.5,0.6-0.5c0.7,0,1.4,0.1,2.1,0.3c0.5,0.1,0.9,0.3,1.4,0.5
			c0.5,0.2,1,0.4,1.5-0.1c0.2-0.2,0.6-0.2,0.9-0.1c1.2,0.3,2.3,0.1,3.5,0.2c1.9,0,3.7,0.3,5.4,1c0.2,0.1,0.4,0.1,0.6,0.2
			c0.1,0,0.3,0.1,0.4,0c0.4-0.2,0.8-0.1,1.2,0c0.7,0.2,1.5,0.5,2.2,0.8c0.1,0.2,0.3,0.1,0.4,0.2c0,0,0,0,0.1,0c0,0,0,0,0,0
			c0,0-0.1,0-0.1,0c-0.1-0.2-0.2-0.2-0.4-0.2c0-0.1-0.1-0.2-0.1-0.2c-0.1-0.2-0.2-0.3-0.1-0.5c0.1-0.2,0.3-0.2,0.5-0.2
			c0.7,0.1,1.3,0.3,1.9,0.5c0.4,0.2,0.9,0.4,1.4,0.2c0.2-0.1,0.5,0,0.7,0.1c0.5,0.2,0.9,0.4,1.4,0.6c0.5,0.2,1,0.4,1.6,0.3
			c0.5-0.1,1,0,1.4,0.1c0.4,0.1,0.8,0.3,1.3,0.4c0.2,0.1,0.4,0.1,0.4-0.2c0.1-0.3,0.3-0.4,0.6-0.4c0.5,0,0.9,0.1,1.3,0.3
			c0.8,0.3,1.5,0.6,2.2,1c0.1,0.1,0.2,0.1,0.3,0.1c0.1,0,0.2,0,0.2-0.2c-0.1-0.1-0.1-0.3,0-0.4c0.1-0.2,0.3-0.2,0.5-0.1
			c0.2,0,0.4,0,0.6,0.1c0.6,0.2,1.3,0.4,1.8,0.8c0.4,0.3,0.9,0.4,1.3,0.5c0.3,0,0.6,0.1,0.6-0.4c0-0.2,0.2-0.2,0.4-0.2
			c0.2,0,0.3,0.1,0.5,0.2c0.3,0.1,0.6,0.3,0.9,0.5c0.4,0.2,0.8,0.4,1.3,0.4c0.3,0,0.4,0.1,0.6-0.2c0.1-0.2,0.3-0.2,0.6-0.1
			c1,0.2,2,0.5,3,0.7c0.1,0,0.3,0.1,0.4,0.1c0.2,0.1,0.4,0,0.5-0.2c0.2-0.3,0.4-0.4,0.8-0.2c0.2,0.1,0.3,0.2,0.5,0.3
			c0.6,0.4,1.3,0.6,2,0.8c0.3,0.1,0.4,0.1,0.4-0.3c0-0.2,0.1-0.3,0.3-0.3c0.3,0,0.5,0.1,0.7,0.2c0.6,0.4,1.2,0.7,1.8,0.9
			c0.2,0.1,0.3,0.2,0.5,0.1c0,0.2,0.1,0.2,0.2,0.3c0.1,0.1,0.3,0.1,0.4,0.2c0.1,0,0.2,0,0.3,0c0,0,0.1,0,0.1,0c0,0-0.1,0-0.1,0
			c-0.1,0-0.2,0-0.2,0.1c0-0.1,0-0.2,0-0.2c-0.2-0.1-0.3-0.3-0.6-0.2c-0.1-0.2-0.2-0.3-0.3-0.5c-0.1-0.2,0.1-0.5,0.3-0.5
			c0.2,0,0.4,0.1,0.6,0.2c1,0.4,2.1,0.8,3.1,1.2c0.2,0.1,0.4,0.1,0.6,0.2c0.2-0.2,0-0.2,0-0.3c-0.1-0.1-0.2-0.2-0.3-0.4
			c0-0.2,0.1-0.4,0.3-0.4c0.2,0,0.4,0,0.6,0.1c1.2,0.4,2.3,0.9,3.5,1.3c0.3,0.1,0.6,0.1,0.7,0.5c0-0.1,0.1-0.1,0.1,0c0,0,0,0,0,0
			c-0.1,0-0.1,0-0.1,0c0.1-0.1,0.1-0.2,0.2-0.3c0.2-0.1,0.2-0.2,0.1-0.4c-0.2-0.4,0-0.7,0.4-0.6c1.1,0.1,2.1,0.4,3.1,0.9
			c0.2,0.5,0.7,0.4,1.1,0.4c0.3,0,0.6,0,0.9-0.1c0.2,0,0.3-0.1,0.3-0.2c0.1-0.4,0.4-0.4,0.7-0.3c0.4,0.1,0.7,0.2,1,0.2
			c0.2,0,0.2-0.1,0.1-0.2c-0.1-0.2,0-0.3,0.2-0.4c0.3-0.1,0.5-0.2,0.8-0.1c0.7,0.2,1.5,0.1,2.2,0.1c0.3,0,0.5-0.1,0.8-0.2
			c0.3-0.1,0.7-0.2,1.1,0c0,0,0.1,0,0.1,0c0.6,0.1,1.3,0.2,1.9-0.1c0.8-0.4,1.6-0.5,2.4-0.6c1.2-0.2,2.5-0.3,3.7-0.4
			c0.4,0,0.8,0.1,1.2,0c0.4-0.1,0.8,0.1,1.1,0.1c0.1-0.1,0.1-0.1,0.1-0.2c-0.2-0.1-0.4-0.3-0.3-0.5c0.1-0.2,0.3-0.2,0.6-0.2
			c0.4,0,0.8,0,1.2,0.1c0.4,0,0.7,0.1,1.1,0.1c0.2,0,0.3,0,0.4-0.3c0-0.2,0.2-0.3,0.4-0.3c0.6-0.1,1.3,0,1.9,0.1
			c1,0.1,2,0.1,2.9,0.3c0.2,0.1,0.5,0,0.7-0.1c0.2-0.1,0.4-0.1,0.6-0.1c-0.3-0.3-0.7-0.3-1.1-0.4c-0.2,0-0.4-0.1-0.5-0.3
			c0-0.2,0.2-0.3,0.5-0.3c0.7,0,1.4,0.1,2.1,0.3c1,0.2,1.9,0.5,2.8,0.8c0.5,0.2,1.1,0.4,1.6,0.6c0.2,0.1,0.3,0.2,0.5-0.1
			c0.1-0.2,0.2-0.4-0.1-0.5c0,0,0-0.1,0-0.2c0,0,0.1-0.1,0.1-0.1c0.4,0.1,0.8,0.1,1.2,0.3c0.8,0.3,1.6,0.6,2.5,0.8
			c0.2,0.1,0.5,0.2,0.8,0c0.2-0.1,0.4,0,0.5,0.1c0.5,0.3,1,0.6,1.5,0.9c0.3,0.2,0.6,0.4,1.1,0.4c0.4,0,0.9,0.3,1.3,0.4
			c0.5,0.1,1,0.3,1.5,0.6c0.1,0.1,0.2,0.2,0.4,0.1c0.3-0.1,0.5,0,0.7,0.3c0.6,0.8,1.4,1.2,2.2,1.6c0.3,0.2,0.6,0.4,1.1,0.4
			c0.2,0,0.3,0.2,0.4,0.3c0.5,0.4,1,0.8,1.4,1.2c0.2,0.2,0.3,0.2,0.6,0c0.1-0.1,0.1-0.1,0.2-0.2c0.3-0.3,0.4-0.3,0.7,0.1
			c0.1,0.1,0.2,0.3,0.4,0.4c0.3,0.3,0.6,0.6,1,0.7c1.3,0.4,2.5,1.1,3.7,1.7c0.1,0,0.2,0.1,0.2,0.1c0.5-0.1,0.7,0.3,1,0.6
			c0.6,0.5,1.1,1.2,1.8,1.7c0.9,0.7,1.7,1.5,2.5,2.3c0.7,0.6,1.4,1.2,2.1,1.6c0.5,0.3,1.1,0.5,1.6,0.7c0.4,0.2,0.8,0.3,1.3,0.5
			c0.3,0.1,0.6,0.2,0.8,0.4c0.3,0.4,0.8,0.5,1.2,0.7c1.1,0.4,2.1,1,3.1,1.5c1.2,0.6,2.4,0.9,3.7,1.1c0.9,0.2,1.7,0.3,2.6,0.5
			c0.3,0.1,0.6,0.2,0.9,0.4c0.1,0.1,0.3,0.1,0.3,0.3c0.1,0.4,0.5,0.5,0.8,0.7c1.1,0.5,2.2,1,3.3,1.5c1.2,0.6,2.4,1.2,3.5,2
			c0.4,0.3,0.8,0.5,1.1,0.7c0.2,0.1,0.4,0.2,0.4,0.5c0.1,0.4,0.3,0.6,0.6,0.7c1,0.7,1.9,1.4,2.9,2.1c0.7,0.5,1.5,0.9,2.4,1.3
			c1.5,0.6,3.1,1.2,4.5,1.9c2.2,1.1,4.2,2.4,6.1,4c0.6,0.5,1.1,1,1.3,1.8c0.1,0.3,0.1,0.6,0,0.9c-0.3,0.8-0.7,1.4-1.4,1.9
			c-0.7,0.5-1.4,0.9-2.2,1.1c-0.5,0.1-0.9,0.4-1.3,0.8c-0.8,0.8-1.7,1.4-2.6,2c-0.2,0.1-0.4,0.2-0.4,0.5c1,0.3,2,0.5,3,0.8
			c1.6,0.5,3.3,1,4.9,1.5c0.1,0,0.4,0,0.4,0.3l0,0c-0.4,0-0.8-0.2-1.2-0.3c-1.3-0.4-2.7-0.9-4-1.3c-1-0.3-2-0.5-3-0.8
			c-0.4-0.1-0.8-0.1-1.2,0.2c-0.8,0.5-1.5,0.9-2.3,1.3c-0.1,0-0.1,0.1-0.2,0.2c0.7,0.3,1.4,0.7,2.1,1c2,0.9,3.9,1.9,5.8,3
			c0.7,0.4,1.3,0.8,1.9,1.3c0.1,0,0.1,0.1,0.1,0.2l0,0c-0.4-0.1-0.7-0.3-1.1-0.5c-2.4-1.5-4.8-2.7-7.4-3.9c-0.6-0.3-1.2-0.5-1.8-0.8
			c-0.3-0.1-0.5-0.2-0.8,0c-1,0.4-2,0.8-3.1,1.2c0,0.3,0.3,0.4,0.5,0.5c2.3,1.3,4.4,3,6.4,4.7c0.9,0.8,1.8,1.6,2.7,2.4
			c0.4,0.4,0.8,0.7,1.1,1.2l0,0c-0.2,0.1-0.3-0.1-0.5-0.1c-0.7-0.5-1.4-1.1-2-1.7c-1.8-1.6-3.5-3.1-5.5-4.5c-1-0.7-2-1.4-3.1-2
			c-0.3-0.2-0.6-0.3-1-0.1c-1.3,0.4-2.6,0.7-3.9,1c-0.2,0-0.3,0.1-0.5,0.1c-0.1,0.3,0.1,0.4,0.2,0.5c0.5,0.6,1.1,1.3,1.6,1.9
			c0.4,0.4,0.7,0.9,1,1.5c-0.4-0.3-0.6-0.5-0.9-0.8c-0.2-0.3-0.5-0.5-0.7-0.8c-0.5-0.6-1-1.2-1.5-1.8c-0.3-0.3-0.6-0.5-1-0.4
			c-0.9,0.1-1.8,0.2-2.7,0.1c-0.7,0-1.3,0-2-0.1c-1.4-0.2-2.8-0.4-4.1-0.7c-0.7-0.2-1.4-0.3-2.1-0.6c-1.2-0.4-2.4-0.6-3.6-0.9
			c-0.9-0.2-1.8-0.3-2.6-0.5c-0.7-0.2-1.5-0.2-2.3-0.2c-1.3,0-2.6,0.1-3.9,0.1c-1,0-1.9,0.1-2.9,0.1c-2,0-4-0.2-6-0.4
			c-1.6-0.2-3.2-0.6-4.7-1c-0.7-0.2-1.4-0.3-2.1-0.4c-0.1,0-0.2,0-0.4,0c-1.2,0.2-2.5,0.3-3.7,0.6c-0.8,0.2-1.7,0.4-2.5,0.6
			c-1.7,0.3-3.4,0.8-5,1.2c-1.6,0.4-3.2,0.9-4.8,1.3c-1.3,0.4-2.7,0.7-4,1c-0.5,0.1-0.9,0.1-1.4,0.1c-0.9,0-1.7,0.1-2.5,0.5
			c-0.2,0.1-0.4,0.2-0.5,0.1c-0.3-0.2-0.6,0-0.9,0.1c-0.3,0-0.5,0.1-0.9-0.1c-0.4-0.2-0.9-0.2-1.4-0.1c-0.7,0.2-1.4,0.2-2.1,0.2
			c-0.3,0-0.4-0.1-0.4-0.4c0,0,0,0,0,0l0,0c-0.1-0.1-0.3-0.1-0.4,0c-0.1,0.1-0.2,0.2-0.3,0.3c0,0,0,0.1,0,0.2
			c0.4,0.5,0.6,1.1,1.2,1.4c0.1,0.1,0.2,0.2,0.3,0.3c0,0.1,0,0.2,0,0.2c-0.5,0.1-0.2,0.3,0,0.5c0.2,0.2,0.6,0.3,0.9,0.4
			c0.3,0.1,0.6,0.2,0.9,0.4c0,0,0.1,0.1,0.1,0.2c0,0.1-0.1,0.1-0.2,0.1c-0.1,0-0.2-0.1-0.3-0.1c-0.1,0-0.2,0-0.2,0.1
			c0,0.2,0.1,0.2,0.2,0.2c0.4,0,0.8,0.1,1.3,0.1c1,0.1,2,0.1,2.9,0.3c0.3,0.1,0.6,0.1,0.7,0.3c0.2,0.4,0.5,0.5,0.9,0.5
			c0.9,0.1,1.8,0.2,2.8,0.3c0.2,0,0.4,0,0.5-0.2c0.2-0.2,0.4-0.2,0.7-0.2c0.8,0,1.6-0.2,2.3,0.1c0.1,0,0.2,0,0.4,0
			c0.7-0.2,1.5-0.1,2.2-0.2c0.7-0.1,1.3-0.1,1.9,0.4c0.1,0.1,0.3,0.1,0.4,0.1c0.8,0.1,1.6,0.2,2.4,0.5c0.1,0,0.3,0.1,0.4,0.1
			c1.7,0,3.3,0.2,5,0.5c1.1,0.1,2.1,0.3,3.2,0.3c0.5,0,1.1,0,1.6-0.1c1.1-0.1,2.2-0.2,3.3-0.2c1.2,0,2.4,0.1,3.6,0.2
			c0.4,0,0.6,0,0.9-0.2c0.2-0.1,0.4-0.2,0.6-0.3c0.7-0.3,1.5-0.3,2.3-0.1c0.6,0.2,1.3,0.4,1.9,0.6c0.3,0.1,0.5,0.1,0.8,0.1
			c0.2,0,0.5,0,0.7-0.2c0.3-0.3,0.7-0.4,1.1-0.4c1.1-0.2,2.3-0.1,3.4,0.1c1.2,0.2,2.5,0.4,3.7,0.5c0.9,0.1,1.7,0.3,2.6,0.2
			c0.2,0,0.4,0,0.6,0c0.3,0,0.6-0.1,0.8-0.3c0.7-0.6,1.5-0.9,2.4-1.1c1-0.2,2,0,3,0.4c0.4,0.2,0.9,0.3,1.4,0.3
			c0.8,0.1,1.7,0.3,2.4,0.5c1.1,0.4,2.1,0.9,3.1,1.4c0.1,0,0.1,0.1,0.2,0.1c0.2,0.2,0.2,0.5-0.1,0.6c-0.2,0.1-0.5,0.1-0.7,0.1
			c-1.7,0-3.4,0-5,0c-0.2,0-0.5,0-0.7,0c0,0-0.1,0-0.1,0.1c0,0.1,0,0.2,0.1,0.2c0.7,0.3,1.3,0.7,1.9,1.2c0.3,0.3,0.5,0.6,0.7,0.9
			c0.3,0.4,0.1,0.8-0.4,0.8c-0.4,0-0.8,0-1.2,0c-1-0.1-2-0.2-2.9-0.3c-0.4,0-0.9,0-1.3,0c-0.5,0-0.9,0.1-1.3,0.3
			c-0.9,0.4-1.8,0.8-2.6,1.1c-0.6,0.2-1.2,0.4-1.8,0.5c-0.2,0-0.4,0-0.5,0.2c0.1,0.2,0.2,0.2,0.4,0.2c1.4,0.6,2.6,1.4,3.6,2.5
			c0.2,0.2,0.3,0.4,0.5,0.6c0.2,0.4,0,0.7-0.4,0.9c-0.2,0.1-0.4,0.1-0.6,0.1c-0.7-0.1-1.4-0.2-2-0.3c-0.7-0.1-1.5-0.3-2.2-0.4
			c-0.8-0.1-1.5,0-2.1,0.6c-1,0.9-2.3,1.3-3.6,1.5c-0.3,0.1-0.6,0.1-1,0.2c-0.2,0-0.4,0.1-0.5,0c-0.9-0.1-1.9-0.1-2.8-0.5
			c-0.5-0.2-1-0.2-1.6-0.1c-0.3,0.1-0.7,0.1-1,0.3c-1.2,0.4-2.5,0.6-3.7,0.6c-1.3,0.1-2.6-0.2-3.9-0.5c-1.2-0.3-2.3-0.8-3.4-1.3
			c-0.9-0.5-1.9-0.7-2.9-0.6c-1.1,0-2.1,0.1-3.1,0.3c-1.7,0.4-3.4,0.5-5.1,0.4c-1-0.1-2-0.2-2.9-0.6c-1.6-0.8-3.1-0.6-4.7,0
			c-0.1,0-0.2,0.1-0.3,0.1c-1.1,0.1-2.1,0.5-3.3,0.6c-0.6,0.1-1.2,0.1-1.8,0c-0.5-0.1-1-0.2-1.5,0c-0.1,0.1-0.4,0-0.5,0
			c-0.5-0.1-1-0.2-1.5-0.3c-0.5-0.1-1-0.1-1.5-0.1c-1,0.1-2,0-3-0.1c-0.2,0-0.3-0.1-0.5,0c-1,0.3-2,0.1-2.9,0
			c-0.4,0-0.8-0.1-1.2-0.2c-0.6-0.1-1.2-0.2-1.8-0.1c-0.8,0.1-1.6-0.1-2.4-0.2c-0.5-0.1-1-0.3-1.5-0.5c-0.2-0.1-0.3-0.1-0.5-0.1
			c-0.9,0.1-1.8-0.3-2.6-0.6c-1.2-0.4-2.3-0.7-3.5-1.1c-0.1,0-0.2-0.1-0.3-0.1c-0.9,0.2-1.8-0.1-2.6-0.4c-1.3-0.5-2.5-1-3.8-1.5
			c-0.3-0.1-0.4-0.2-0.4-0.5c0-0.1-0.1-0.1-0.2-0.1c0,0-0.1,0.1-0.1,0.1c-0.2,0.2-0.4,0.5-0.7,0.5c-0.2,0-0.3-0.5-0.1-1
			c0.2-0.5,0.5-1,0.7-1.4c0.1-0.1,0.2-0.3,0.4-0.3c0.5-0.1,0.6-0.4,0.8-0.7c0.4-0.6,0.8-1.1,1.3-1.6c0.5-0.5,1.1-1,1.5-1.6
			c0.2-0.4,0.3-0.3,0.8-0.1c-0.1,0.1,0-0.1-0.1,0c0,0,0,0.1,0,0.1c0.1,0,0.1,0,0.1-0.1c0.1,0,0.2,0,0.2-0.1c0.5-0.5,1-0.9,1.6-1.3
			c0.2-0.1,0.3-0.2,0.3-0.4c0-0.3,0.3-0.5,0.5-0.7c0.3-0.3,0.7-0.5,1-0.7c0.2-0.1,0.4-0.2,0.7-0.1c0.2,0.1,0.4,0.1,0.6,0
			c0.4-0.2,0.6-0.5,0.9-0.8c0.3-0.3,0.6-0.6,1.1-0.5c0.2,0,0.3-0.1,0.4-0.2c0.2-0.2,0.5-0.4,0.8-0.6c0.1-0.1,0.1-0.1,0.2-0.1
			c0.2-0.1,0.3-0.2,0.5,0c0.1,0.1,0,0.3,0,0.4c-0.5,0.2-0.8,0.5-1.1,0.9c-0.2,0.3-0.5,0.6-0.8,0.8c-0.4,0.2-0.7,0.5-1.1,0.7
			c-0.3,0.2-0.7,0.6-1.1,0.3c0,0-0.1,0-0.1,0c-0.3,0.2-0.8,0.2-0.9,0.8c0,0.2-0.2,0.3-0.4,0.3c-0.6,0.3-1.1,0.7-1.5,1.1
			c-0.7,0.6-1.4,1.3-2.1,1.9c-0.1,0.1-0.3,0.3-0.4,0.3c-0.3,0-0.4,0.1-0.5,0.2c-0.1,0.1-0.2,0.2-0.3,0.3c-0.4,0.1-0.6,0.4-0.8,0.7
			c-0.4,0.6-0.8,1.1-1,1.8c-0.1,0.3-0.3,0.4-0.5,0.6c-0.5,0.3-0.5,0.4,0.1,0.7c0.2,0.1,0.4,0.2,0.6,0.3c0.2,0.1,0.4,0.2,0.5-0.1
			c0.1-0.1,0.2-0.1,0.3,0c0.2,0.1,0.3,0.2,0.4,0.3c0.2,0.1,0.3,0.3,0.5,0.3c0.2,0.1,0.3,0.3,0.6,0.3c-0.1-0.2-0.2-0.3-0.2-0.4
			c0,0,0-0.1,0-0.2c0,0,0.1-0.1,0.2-0.1c0.2,0,0.3,0.2,0.5,0.3c0.2,0.1,0.2,0,0.3-0.2c0.1-0.3,0.2-0.3,0.4-0.1
			c0.5,0.5,1.1,0.9,1.8,1.2c0.1,0.1,0.2,0.2,0.4,0.1c-0.1-0.3-0.2-0.5-0.3-0.8c0-0.1,0-0.2,0.1-0.2c0.1-0.1,0.2,0,0.2,0
			c0,0,0,0,0.1,0.1c0.2,0.5,0.7,0.8,1.1,1.1c0.2,0.1,0.4,0.2,0.5,0.5c0-0.1,0-0.1,0,0c0,0,0,0-0.1,0c0-0.1,0.1-0.2,0.1-0.2
			c0.1-0.4,0.2-0.4,0.5-0.2c0.1,0.1,0.3,0.3,0.4,0.4c0.6,0.5,1.4,0.9,2.2,1.1c0.1-0.5,0.2-0.5,0.5-0.3c0.5,0.3,1.1,0.6,1.7,0.8
			c0.6,0.2,1.2,0.4,1.9,0.5c-0.3-0.4-0.6-0.4-0.9-0.6c-0.1-0.1-0.1-0.1-0.1-0.2c0-0.1,0.1-0.2,0.2-0.1c0.2,0,0.4,0.2,0.5,0
			c0.2-0.3,0.4-0.1,0.6,0c1.1,0.8,2.5,1,3.8,1.2c0.1,0,0.2,0,0.3-0.1c0,0,0.1,0.1,0.1,0.1c0,0,0.1,0,0.1,0c0-0.1-0.1-0.1-0.2-0.1
			c0-0.1-0.1-0.2-0.2-0.2c-0.2-0.1-0.4-0.3-0.6-0.4c0,0,0-0.1,0-0.2c0,0,0.1-0.1,0.1-0.1c0.2,0,0.5,0,0.7,0.1
			c0.6,0.2,1.1,0.3,1.7,0.5c0.1,0,0.2,0.1,0.3-0.1c0.2-0.3,0.4-0.2,0.6-0.2c0.5,0.1,0.9,0.3,1.4,0.4c0.1,0,0.2,0.1,0.2-0.2
			c-0.1-0.2,0.1-0.3,0.1-0.4c0.1-0.3,0.2-0.4,0.5-0.2c1.1,0.5,2.2,0.8,3.4,1.1c0.1,0,0.1,0,0.2,0c0,0,0,0,0,0
			c-0.1-0.1-0.1,0-0.2,0.1c0.1-0.2-0.1-0.3-0.2-0.4c-0.1-0.1,0-0.2,0.1-0.2c0.1,0,0.2,0,0.3,0c1.3,0.4,2.6,0.5,3.9,0.5
			c1.1,0,2.3-0.2,3.4-0.4c1.1-0.3,2.1-0.6,3.2-0.8c0.6-0.1,1.2-0.2,1.8,0c0.9,0.2,1.8,0.3,2.6,0.7c0.4,0.2,0.8,0.3,1.2,0.3
			c1.3,0.1,2.6,0.1,3.8-0.1c1-0.2,2.1-0.3,3.1-0.5c1.8-0.3,3.5-0.2,5.1,0.7c1.2,0.6,2.4,1,3.6,1.3c1.2,0.3,2.5,0.5,3.7,0.4
			c1-0.1,2-0.2,3-0.6c0.4-0.1,0.8-0.2,1.1-0.3c0.7-0.2,1.4-0.1,2,0.1c1.8,0.6,3.6,0.4,5.4-0.1c0.4-0.1,0.8-0.3,1.2-0.6
			c0.5-0.4,0.9-0.7,1.4-1.1c0.3-0.2,0.3-0.3,0.2-0.6c-0.2-0.4-0.3-0.8-0.1-1.3c0,0-0.1-0.2-0.1-0.2c-0.4-0.1-0.8-0.3-1.2-0.2
			c-0.5,0.1-1.1,0.2-1.5,0.5c-0.6,0.4-1.3,0.6-1.8,1.1c-0.1,0.1-0.2,0.1-0.2,0.1c-0.3-0.4-0.7-0.1-1.1-0.1c-0.8,0-1.7,0.1-2.5,0
			c-2-0.3-4-0.5-5.9-1.2c-0.8-0.2-1.5-0.2-2.2,0.2c-0.6,0.3-1.3,0.4-1.9,0.6c-0.1,0-0.2-0.1-0.2-0.2c0-0.4,0.4-0.4,0.5-0.7
			c-1.6-1-2.8-1.4-3.9-1.5c-1-0.1-2-0.2-3-0.2c-0.9,0.1-1.8,0-2.7,0c-1.1,0-2.1-0.2-3.1-0.4c-0.1,0-0.3-0.1-0.3-0.3
			c1.2,0,2.3,0.1,3.5-0.1c-0.3-0.1-0.7-0.2-1-0.3c-0.3-0.1-0.7-0.1-1-0.3c-0.1-0.1-0.2-0.2-0.1-0.3c0-0.1,0.2-0.1,0.2-0.1
			c0.7,0.1,1.5,0.3,2.2,0.4c1.3,0.2,2.6,0.5,4,0.4c1-0.1,1.9,0,2.8,0.4c0.6,0.3,1.3,0.5,1.9,0.8c0.2,0.1,0.3,0.2,0.5,0.1
			c0.8-0.4,1.6-0.6,2.3-1.1c0.5-0.3,1-0.6,1.5-0.9c0.8-0.4,1.7-0.6,2.6-0.1c0.8,0.4,1.7,0.6,2.7,0.6c1.1,0,2.3,0,3.4,0
			c1,0,2,0.1,3,0.1c0.4,0,0.9,0.1,1.3,0.3c0.8,0.4,1.7,0.2,2.4,0.6c0.1,0,0.2,0,0.3,0c0.9,0,1.7,0,2.6-0.2c1-0.2,1.9-0.7,2.8-1.1
			c0.1,0,0.2-0.1,0.3-0.2c0.3-0.6,0.6-1.1,0.4-1.8c-0.1-0.4-0.3-0.5-0.7-0.6c-0.5,0-1.1,0.1-1.6,0.3c-0.4,0.2-0.9,0.3-1.4,0.3
			c-0.2,0-0.5,0-0.7,0.1c-1.2,0.2-2.4,0.2-3.7,0.2c-0.6,0-1.2-0.1-1.7-0.4c-0.5-0.3-1-0.4-1.6-0.6c-0.8-0.2-1.6-0.4-2.4-0.7
			c-1.1-0.4-2.2-0.7-3.3-1.1c-0.8-0.3-1.4-0.2-2.1,0.2c-0.3,0.2-0.4,0.4-0.6,0.6c-0.3,0.4-0.5,0.4-0.8,0.2c-0.3-0.2-0.5-0.2-0.8-0.1
			c-0.3,0.1-0.7,0.2-1,0.3c-1.1,0.3-2.2,0.3-3.3,0.3c-1.7,0-3.5,0-5.2,0c-2.3,0-4.6,0.1-6.9,0.5c-0.1,0-0.2,0-0.3,0
			c0,0-0.1-0.1-0.1-0.1c0,0,0-0.1,0-0.1c0.1-0.1,0.2-0.1,0.3-0.2c0.5-0.1,0.9-0.2,1.3-0.5c0.4-0.3,0.9-0.4,1.5-0.3
			c0.6,0.1,1.2,0.2,1.8,0.2c1.6,0,3.1,0,4.7,0c1.2,0,2.4-0.2,3.6-0.4c0.2,0,0.4-0.1,0.5-0.3c-0.3,0-0.6,0-0.8,0
			c-1,0.1-1.9,0.1-2.9,0.2c-0.6,0.1-1.2,0-1.8-0.1c-1.6-0.2-3.2-0.4-4.8-0.7c-0.3,0-0.6-0.1-0.8,0.1c-0.1,0.1-0.3,0.1-0.4,0
			c-0.9-0.2-1.8-0.4-2.6-0.6c-0.3-0.1-0.6-0.1-0.9,0c-0.6,0.1-1.3,0.1-2,0.1c-0.7,0-1.4-0.1-2.1,0.1c-0.2,0.1-0.4,0-0.5-0.2
			c-0.1-0.4-0.5-0.4-0.8-0.4c-0.5,0-1,0.1-1.4,0.1c-1,0.1-2,0.1-3,0c-0.4,0-0.8-0.1-1.1-0.2c-0.3-0.1-0.6-0.2-0.9-0.2
			c-0.8-0.1-1.6-0.2-2.4-0.3c-0.3,0-0.4-0.1-0.4-0.5c0-0.2,0-0.3-0.2-0.3c-0.8-0.1-1.7,0-2.5,0c-0.2,0-0.1,0.2,0,0.2
			c0,0,0,0.1,0.1,0.2l0,0c-0.3-0.1-0.5-0.2-0.8-0.3c-0.4-0.1-0.7-0.2-1.1-0.4c-0.5-0.2-0.8-0.6-1-1.2c0.5-0.1,0.9,0.3,1.4,0.3
			c-0.2-0.3-0.5-0.4-0.7-0.6c-0.3-0.2-0.6-0.5-0.9-0.7c-0.2-0.2-0.3-0.4-0.1-0.6c0.1-0.1,0-0.3-0.1-0.4c-0.2-0.3-0.3-0.5-0.3-0.8
			c-0.1-0.5-0.2-0.6-0.7-0.5c-0.1,0-0.2,0.1-0.3,0.1c-0.8,0.4-1.6,0.4-2.4,0.6c-0.2,0.1-0.5,0.1-0.7-0.1c-0.1-0.1-0.2-0.1-0.3,0
			c-0.2,0-0.4,0.2-0.5,0.1c-0.4-0.2-0.6,0-0.9,0.1c-0.1,0.1-0.2,0.1-0.3,0.1c-0.7,0.2-1.6,0.1-2.2,0.5c-0.1,0-0.2,0-0.2-0.1
			c-0.1-0.2-0.2-0.2-0.4-0.1c-0.3,0.2-0.6,0.4-0.9,0.5c-0.7,0.1-1.4,0.4-2.1,0.8c-0.2,0.1-0.3,0.2-0.5,0.1c-0.1,0-0.2,0-0.2-0.1
			c0-0.1,0-0.2,0-0.2c0.3-0.3,0.5-0.6,0.8-0.9c0.2,0,0.3-0.1,0.5-0.2c0.2-0.1,0.3-0.2,0.5-0.1c0.2,0.1,0.3,0,0.4-0.1
			c0.7-0.8,1.7-1.2,2.7-1.6c0.1-0.1,0.4-0.1,0.4,0.1c0.1,0.3,0.3,0.3,0.6,0.1c0.2-0.1,0.4-0.2,0.6-0.2c0.1,0,0.3,0,0.3,0.1
			c0.2,0.4,0.4,0.2,0.7,0.1c0.5-0.3,1.1-0.5,1.6-0.8c0.1-0.1,0.3-0.1,0.4-0.2c0.3-0.1,0.4,0,0.4,0.4c0,0.1,0,0.1,0,0.2
			c-0.2-0.1-0.3,0.1-0.4,0.2c-0.1,0.1,0,0.1,0,0.1c0.2,0,0.4,0,0.3-0.3c0.2-0.2,0.5-0.3,0.7-0.5c0.1-0.1,0.2-0.2,0.3-0.1
			c0.5,0.1,0.9-0.2,1.4-0.4c0.1,0,0.2-0.1,0.3,0c0.1,0,0.2,0,0.3,0.2c0,0.1,0,0.2-0.1,0.2c-0.1,0.1-0.2,0.2-0.3,0.2
			c-0.1,0.1-0.1,0.2-0.1,0.3c-0.4-0.1-0.7,0.1-0.9,0.4c0,0,0,0.1,0,0.1c-0.1,0-0.1-0.1-0.2,0c0.1,0,0.1,0,0.2,0
			c0.4-0.1,0.7-0.2,0.9-0.5c0.4,0,0.7-0.1,1-0.3c0.4-0.3,0.8-0.4,1.2-0.6c0.3-0.1,0.5-0.1,0.7,0.2c0.1,0.2,0.3,0.3,0.5,0.1
			c0.3-0.2,0.5-0.3,0.8-0.4c0.1-0.1,0.3-0.1,0.4-0.1c0.2,0,0.3,0,0.4,0.2c0,0.1,0,0.2-0.1,0.3c-0.2,0.1-0.5,0.3-0.7,0.4
			c-0.1,0.1-0.2,0.1-0.4,0.3c0.8,0,1.4-0.1,2-0.5c0.5-0.3,0.9-0.5,1.4-0.8c0.2-0.1,0.3-0.1,0.5-0.2c0.1,0,0.3,0,0.4,0.1
			c0.1,0.2,0,0.3-0.2,0.4c-0.3,0.2-0.7,0.3-0.9,0.6c-0.1,0-0.1,0-0.2,0c0,0,0,0,0,0.1c0,0,0,0,0.1,0c0.1,0,0.1-0.1,0.1-0.2
			c0.5,0.1,1,0,1.4-0.3c0.5-0.3,1.1-0.6,1.6-0.8c0.5-0.2,1-0.4,1.6-0.4c0.2,0,0.3,0.1,0.4,0.2c0.1,0.1-0.1,0.3,0.1,0.4
			c0.2,0,0.4,0,0.6-0.2c0.3-0.4,0.8-0.7,1.1-1c0.4-0.4,0.9-0.5,1.4-0.6c0.4-0.1,0.6,0.1,0.6,0.6c0,0.1,0,0.2,0,0.3
			c0.9-0.2,1.8-0.4,2.7-0.8c0.3-0.2,0.6-0.3,1-0.4c0.3-0.1,0.5-0.3,0.8,0c0.1,0.1,0.3,0,0.4,0c0.5-0.1,1-0.3,1.5-0.6
			c0.3-0.2,0.5-0.3,0.8-0.2c0.3,0.1,0.6-0.1,0.9-0.2c0.9-0.3,1.7-0.4,2.6-0.6c0.7-0.1,1.4-0.2,2.1-0.2c1.2,0,2.3-0.2,3.5-0.3
			c0.6,0,1.1-0.1,1.7-0.1c0.3,0,0.5,0,0.8,0.1c1.6,0.4,3.1,0.8,4.7,1.1c2.5,0.4,4.9,0.5,7.4,0.4c1.4-0.1,2.8-0.2,4.2-0.2
			c1.1,0,2.2,0.1,3.2,0.1c0.5,0,1,0.1,1.5,0.1c0.8,0,1.6,0.2,2.4,0.3c1.3,0.2,2.6,0.7,3.9,1.1c1.1,0.3,2.2,0.5,3.3,0.7
			c0.2,0,0.4,0.1,0.6,0.1c1.4,0.3,2.8,0.3,4.2,0.2c0.1,0,0.2,0,0.3-0.1c0.1,0,0.1-0.2,0-0.2c-0.3-0.2-0.6-0.5-0.9-0.7
			c-0.1-0.1-0.3-0.2-0.4-0.3c0,0,0-0.1,0-0.2c0.1-0.1-0.1-0.1,0.1-0.1c0.1,0,0.2,0,0.3,0.1c0.5,0.3,1,0.6,1.5,1
			c0.3,0.3,0.6,0.3,1,0.3c1-0.1,2-0.4,3-0.6c0.3-0.1,0.7,0,0.9-0.3c0-0.2-0.2-0.2-0.3-0.3c-0.9-0.5-1.9-0.9-2.9-1.2
			c-0.3-0.1-0.5-0.1-0.8-0.2c-0.1-0.1-0.3-0.1-0.3-0.3c0-0.2,0.2-0.2,0.3-0.1c0.5,0.1,1,0.2,1.5,0.4c1,0.4,2,0.8,2.9,1.3
			c0.3,0.2,0.6,0.2,0.9,0.1c0.9-0.3,1.9-0.6,2.8-1c-0.2-0.2-0.4-0.3-0.6-0.3c-0.3-0.1-0.7-0.2-1-0.2c0,0,0-0.1-0.1-0.1
			c0,0,0,0,0.1-0.1c0.1,0,0.2,0,0.3,0c0.6,0.1,1.3,0.1,1.8,0.4c0.2,0.1,0.4,0.1,0.6,0c0.9-0.4,1.7-0.8,2.6-1.2
			c0.1,0,0.2-0.1,0.1-0.2c0,0-0.1-0.1-0.1-0.1c-0.7-0.1-1.5-0.3-2.2-0.3c-0.3,0-0.5,0-0.8,0c0-0.3,0.2-0.2,0.3-0.3
			c0.7-0.1,1.4,0.1,2.1,0.1c0.3,0,0.7,0.1,1,0.2c0.4,0.1,0.7,0,1.1-0.2c0.9-0.5,1.7-0.9,2.5-1.5c0.2-0.1,0.3-0.3,0.5-0.5
			c-0.6,0-1,0.2-1.4,0.3c-0.9,0.3-1.8,0.6-2.7,0.9c-0.9,0.3-1.7,0.5-2.6,0.4c-0.5,0-0.9-0.1-1.3-0.3c-0.5-0.3-1.1-0.5-1.6-0.8
			c-0.5-0.3-0.9-0.6-1.4-0.8c-0.2-0.1-0.4-0.3-0.4-0.6c0.3-0.2,0.6-0.2,0.9-0.1c0.4,0.1,0.8,0.2,1.1,0.3c1.7,0.6,3.4,0.6,5.1,0.4
			c1.7-0.2,3.4-0.5,5.1-0.8c1-0.2,2-0.5,2.8-1.1c0.5-0.3,0.9-0.6,1.2-1.1c0.3-0.5,0.3-1-0.1-1.5c-0.2-0.3-0.5-0.6-0.8-0.8
			c-2.5-2-5.2-3.6-8.2-4.8c-0.8-0.3-1.7-0.7-2.5-1.1c-1.6-0.7-2.9-1.7-4.3-2.8c-0.6-0.5-1.2-0.9-1.7-1.4c-0.8-0.7-1.6-1.2-2.5-1.7
			c-1.7-0.9-3.4-1.8-5.2-2.6c-1.1-0.5-2.3-0.9-3.4-1.3c-0.7-0.2-1.4-0.4-2.1-0.5c-0.4-0.1-0.8-0.2-1.2-0.4c-0.4-0.2-0.8-0.3-1.3-0.3
			c-0.7,0-1.3-0.3-1.9-0.7c-0.5-0.3-0.9-0.7-1.4-1c-0.4-0.3-0.9-0.6-1.5-0.6c-0.3,0-0.5-0.1-0.5-0.4c-0.1-0.4-0.3-0.5-0.6-0.6
			c-0.8-0.4-1.7-0.8-2.5-1.1c-0.7-0.3-1.3-0.6-1.9-1.1c-1.1-0.9-2.1-1.7-3-2.8c-0.3-0.4-0.7-0.6-1.1-0.9c-0.2-0.1-0.4-0.1-0.6-0.1
			c-0.4,0-0.8-0.2-0.9-0.6c-0.1-0.2-0.2-0.3-0.3-0.4c-0.5-0.4-0.9-0.8-1.4-1.1c-0.1-0.1-0.3-0.2-0.5-0.2c-0.5-0.2-1.1-0.4-1.6-0.6
			c-0.1,0-0.1-0.1-0.2-0.1c-0.6,0.1-1.1-0.3-1.6-0.5c-1.1-0.6-2.2-1.2-3.3-1.8c-1.4-0.7-2.6-1.6-3.9-2.4c-0.2-0.1-0.3-0.2-0.4-0.3
			c-0.3-0.3-0.6-0.5-1-0.4c-0.4,0-0.6-0.1-0.9-0.3c-0.2-0.2-0.4-0.3-0.7-0.4c-0.1-0.1-0.2,0-0.4,0.1c-0.3,0.2-0.7,0.2-1.1,0
			c-1.1-0.5-2.2-1-3.3-1.5c-0.3-0.1-0.6-0.2-0.8-0.3c-0.2-0.1-0.2,0.1-0.1,0.2c0.1,0.2,0,0.3-0.2,0.3c-0.1,0.1-0.3,0.1-0.4,0
			c-0.4-0.2-0.7-0.3-1.1-0.4c-0.6-0.3-1.2-0.4-1.9-0.3c-0.6,0.1-1.2,0.2-1.9-0.1c-0.1,0-0.2,0-0.3,0.1c0,0,0-0.1,0-0.1c0,0,0,0,0,0
			c0,0,0,0,0,0.1c-0.1,0.1-0.2,0.2-0.3,0.1c-0.3,0-0.7,0-1-0.1c-0.3-0.1-0.5-0.1-0.8,0.1c-0.3,0.2-0.8,0.2-1.1,0.1
			c-0.8-0.3-1.6-0.3-2.5-0.3c0,0.1,0,0.1,0,0.2c0.1,0.2,0.5,0.2,0.3,0.5c-0.1,0.2-0.4,0.1-0.6,0.1c-0.4-0.1-0.7-0.1-1,0.1
			c-0.2,0.1-0.4,0-0.6,0.1c-0.3,0-0.7,0-1,0.2c-0.2,0.2-0.5,0.1-0.8,0.1c-0.5,0-1-0.1-1.4-0.1c-0.5-0.1-1.1,0-1.6,0.2
			c-0.5,0.2-1.1,0.3-1.7,0.3c-0.2,0-0.4,0-0.5,0.2c-0.1,0.3-0.3,0.4-0.6,0.4c-0.5,0-1.1,0-1.6,0c-0.2,0-0.4,0-0.5-0.1
			c-0.3-0.1-0.4-0.2-0.4-0.6c0-0.1,0-0.2-0.1-0.2c-0.1,0-0.1,0-0.2,0c-0.1,0.1-0.1,0.2,0,0.3c0.2,0.3,0.1,0.4-0.2,0.6
			c-0.2,0.1-0.5,0.2-0.8,0.2c-0.6,0-1.2,0-1.8-0.2c-0.7-0.1-1.3-0.1-1.9,0.2c-0.4,0.2-0.8,0.3-1.2,0.5c-0.4,0.2-0.8,0.2-1.2,0.1
			c-1.2-0.2-2.4,0-3.7,0c-1.3,0.1-2.6,0.2-3.9,0.1c-1.8-0.1-3.6,0-5.4-0.1c-0.3,0-0.5-0.1-0.8-0.1c-1.2-0.3-2.3-0.5-3.5-0.7
			c-0.2,0-0.4-0.1-0.6,0c-0.1,0-0.2,0.1-0.3,0.1c-0.5,0.1-1-0.4-1.6-0.2c-0.5,0.2-1,0.1-1.5-0.1c-1.3-0.5-2.6-0.6-4-0.7
			c-1.1,0-2.2-0.3-3.3-0.5c-0.3-0.1-0.5-0.2-0.8,0c0,0,0,0,0,0l0,0c0,0.1,0.1,0.1,0.1,0.2c0.1,0.1,0.1,0.3-0.1,0.3
			c-0.3,0.1-0.7,0.1-0.9-0.2c-0.6-0.6-1.4-0.7-2.2-0.9c-0.3-0.1-0.3-0.1-0.4,0.3c0,0.1-0.1,0.2-0.2,0.2c-0.2,0.1-0.5,0-0.7-0.1
			c-0.4-0.2-0.8-0.5-1.1-0.7c-0.6-0.4-0.6-0.4-1.5-0.4c0,0.1,0,0.1,0,0.2c0.1,0.2,0.4,0.4,0.2,0.6c-0.2,0.2-0.4,0-0.6,0
			c-0.4-0.2-0.8-0.3-1.2-0.6c-0.5-0.3-1-0.5-1.5-0.5c-0.3,0-0.6,0-0.9-0.1c-0.2,0-0.5,0-0.7,0.1c-0.3,0.2-0.6,0.1-0.9-0.1
			c-0.5-0.3-1.1-0.5-1.6-0.8c-0.4-0.2-0.7-0.3-1.1-0.3c-0.1,0.3,0.1,0.4,0.1,0.7c-0.4,0.1-0.7,0.1-1.1-0.1c-0.4-0.2-0.8-0.4-1.2-0.7
			c-0.4-0.2-0.8-0.3-1.2-0.2c-0.4,0.1-0.7,0-1-0.1c-0.2-0.1-0.4-0.1-0.6-0.1c-0.4,0-0.8,0-1.2-0.1c-0.2,0-0.4,0-0.6,0.1
			c-0.4,0.2-0.7,0.1-1-0.1c-0.8-0.5-1.7-0.6-2.6-0.7c-0.2,0-0.3,0-0.4,0.2c-0.1,0.3-0.4,0.3-0.6,0.2c-0.3-0.1-0.6-0.2-0.8-0.3
			c-0.5-0.2-1-0.5-1.5-0.7c-0.2-0.1-0.3-0.1-0.4,0.1c-0.2,0.3-0.5,0.4-0.8,0.3c-0.1,0-0.2-0.1-0.2-0.1c-1-0.4-2.1-0.9-3.1-1.3
			c-0.2,0.1-0.1,0.2,0,0.3c0.1,0.4-0.3,0.7-0.6,0.6c-0.3-0.1-0.5-0.3-0.8-0.4c-0.2-0.1-0.5-0.2-0.7-0.3c-0.7-0.3-1.5-0.3-2.1,0.2
			c-0.2,0.1-0.4,0.2-0.6,0.1c-1-0.4-2-0.2-2.9-0.3c-0.2,0-0.3,0-0.4,0.1c-0.3,0.3-0.6,0.2-1,0.1c0,0-0.1,0-0.1,0
			c-0.8-0.5-1.7-0.5-2.5-0.6c-0.3,0-0.6-0.1-0.9,0.1c-0.2,0.1-0.5,0.1-0.7,0c-0.4-0.2-0.9-0.3-1.3-0.3c-0.2,0-0.4,0-0.5,0.2
			c-0.1,0.1-0.2,0.1-0.3,0.1c-0.3,0-0.6-0.1-0.9-0.2c-0.3-0.2-0.7-0.4-1-0.5c-0.4-0.2-0.7-0.3-1.1-0.3c-0.1,0-0.1,0-0.2,0.1
			c-0.3,0.4-0.5,0.5-1,0.3c-0.4-0.2-0.8-0.4-1.2-0.5c-0.5-0.2-1-0.4-1.5-0.3c-0.2,0-0.3,0-0.3,0.2c0.1,0.3-0.1,0.4-0.3,0.4
			c-0.4,0.1-0.7-0.1-1-0.2c-0.4-0.2-0.9-0.3-1.4-0.2c-0.2,0-0.3,0.1-0.4,0.3c-0.1,0.2-0.3,0.3-0.5,0.2c-0.2,0-0.4-0.1-0.5-0.2
			c-0.3-0.2-0.6-0.3-0.9,0.1c-0.1,0.2-0.4,0.2-0.6,0c-0.5-0.4-1-0.4-1.5-0.4c-0.5-0.1-1.1-0.1-1.6-0.2c-0.5-0.1-1-0.2-1.5,0.1
			c-0.3,0.2-0.8,0.1-1.1-0.1c-0.4-0.2-0.8-0.4-1.1-0.5c-0.5-0.2-1-0.4-1.5-0.4c-0.2,0-0.3,0-0.4,0.3c-0.1,0.4-0.3,0.5-0.7,0.4
			c-0.1,0-0.2-0.1-0.2-0.1c-0.6-0.4-1.2-0.3-1.8-0.3c-0.1,0-0.2,0.1-0.2,0.1c0,0.5-0.4,0.4-0.6,0.3c-0.2-0.1-0.4-0.1-0.6-0.2
			c-0.5-0.2-0.5-0.2-1.3-0.1c-0.1,0.2,0.1,0.3,0.1,0.4c0.1,0.3,0,0.3-0.2,0.3c-0.5-0.1-1-0.4-1.5-0.5c-0.1,0-0.1,0-0.1,0.1
			c0.1,0.3,0,0.4-0.2,0.4c-0.5,0-1-0.3-1.4-0.5c-0.2-0.1-0.4-0.1-0.5,0.1c-0.2,0.2-0.4,0.2-0.7,0.2c-0.3-0.1-0.6-0.1-0.9-0.2
			c-0.3-0.1-0.5-0.2-0.9,0c-0.3,0.1-0.6,0-0.9-0.1c-0.6-0.2-1.2-0.3-1.8-0.2c-0.1,0-0.3,0.1-0.3,0.3c0,0.3-0.1,0.4-0.4,0.4
			c-0.5,0-0.9-0.2-1.3-0.3c-0.3-0.1-0.5-0.2-0.8-0.2c-0.1,0-0.2,0-0.2,0.1c0,0.3-0.2,0.3-0.3,0.3c-0.5,0.2-1.1,0.1-1.6,0
			c-0.4-0.1-0.8-0.1-1.1-0.2c-0.9-0.2-1.7-0.1-2.5,0.2c-0.1,0-0.1,0.1-0.1,0.1c0.1,0.1,0.1,0.1,0.2,0.2c0.1,0.1,0.4,0.2,0.3,0.5
			c-0.1,0.2-0.4,0.2-0.6,0.2c-0.3,0-0.6-0.1-0.9-0.1c-0.5-0.1-1-0.3-1.6-0.1c-0.4,0.1-0.8,0-1.2,0c-0.3,0-0.3,0.1-0.2,0.3
			c0.1,0.1-0.1,0.2-0.2,0.2c-0.5,0.2-1,0.1-1.4,0c-0.5-0.1-0.9-0.2-1.4-0.3c-0.5-0.1-1,0-1.5,0c-0.1,0-0.2,0.1-0.3,0.2
			c-0.2,0.3-0.5,0.3-0.9,0.2c-0.4-0.1-0.8-0.2-1.1-0.3c-0.4-0.1-0.9-0.1-1.4,0.1c0.2,0.2,0.4,0.4,0.5,0.5c0,0.1,0,0.1-0.1,0.1
			c-0.4,0.2-0.9,0.2-1.3,0.1c-0.5-0.2-1-0.2-1.6,0.1c-0.4,0.2-0.8,0.2-1.2,0.4c-0.3,0.1-0.6,0.2-1,0.2c-0.5-0.1-1,0.1-1.5,0.1
			c-0.2,0-0.3,0.1-0.5,0.2c-0.3,0.2-0.7,0.3-1,0.2c-0.6-0.1-1.2-0.2-1.8,0c-0.2,0.1-0.4,0-0.6,0c-0.2,0-0.4,0-0.6,0.1
			c0.1,0.1,0.1,0.3,0.2,0.4c-0.3,0.2-0.6,0.3-0.9,0.3c-1.3-0.1-2.5,0-3.7,0.4c-0.3,0.1-0.5,0.1-0.8,0.2c-0.4,0.1-0.7,0.2-1,0.5
			c-0.4,0.4-1,0.5-1.6,0.7c-0.2,0.1-0.5,0.1-0.7,0.2c0,0.2,0.3,0.2,0.4,0.4c0.1,0.2,0.1,0.3-0.1,0.5c-0.2,0.2-0.4,0.2-0.7,0.2
			c-1.2,0-2.4,0.1-3.6,0.1c-1.2,0-2.5,0-3.7,0c-0.6,0-1.1,0-1.7-0.3c-0.2-0.1-0.4-0.1-0.6,0.1c-0.2,0.3-0.5,0.3-0.8,0.4
			c-1.6,0.3-3.2,0.6-4.8,1c-0.7,0.2-1.4,0.1-2,0c-0.1-0.2,0.1-0.3,0.2-0.4c0.6-0.5,1.2-0.7,1.9-0.9c1.4-0.3,2.9-0.6,4.3-0.8
			c0.3,0,0.5-0.1,0.8,0c0.3,0.1,0.6,0.1,0.9-0.1c0.6-0.3,1.2-0.4,1.8-0.4c1.6,0,3.3,0,4.9,0c0.4,0,0.7-0.1,1-0.4
			c0.2-0.2,0.3-0.4,0.6-0.5c0.3-0.1,0.5-0.2,0.5-0.6c0-0.4,0.4-0.5,0.7-0.6c0.6-0.2,1.1-0.3,1.7-0.5c0.6-0.2,1.3-0.1,2-0.2
			c0.2,0,0.4-0.1,0.3-0.4c-0.1-0.3,0.1-0.4,0.3-0.4c0.4,0,0.8-0.1,1.2-0.1c0.5,0,1,0,1.5-0.2c0.2-0.1,0.5-0.1,0.8-0.1
			c0.5,0,1,0,1.5,0c0.2,0,0.3,0,0.4-0.2c0.1-0.4,0.4-0.4,0.7-0.4c0.8,0,1.6,0,2.4,0.2c0.6,0.1,1.3,0.2,1.9,0
			c-0.2-0.2-0.5-0.1-0.7-0.2c-0.1-0.1-0.2-0.2-0.2-0.4c0-0.1,0.1-0.2,0.2-0.3c0.5-0.1,0.9-0.2,1.4-0.1c0.4,0.1,0.9,0.1,1.3,0.2
			c0-0.6,0.1-0.7,0.5-0.7c0.4-0.1,0.7-0.1,1.1,0c0.6,0.1,1.1,0.1,1.7,0.1c0.2,0,0.5,0,0.7-0.1c0.7-0.3,1.5-0.2,2.2-0.2
			c0.4,0,0.8,0.1,1.2,0c0.3,0,0.6,0,0.9,0c0.2,0,0.4,0,0.6-0.2c0.3-0.2,0.7-0.2,1-0.2c0.5,0.1,1,0.1,1.5,0.2c0.2,0,0.4,0,0.6,0
			c0.4-0.2,0.8-0.3,1.3-0.4c0.1,0,0.1,0,0.2-0.1c0.6-0.6,1.4-0.4,2.1-0.5c0.3,0,0.5,0,0.8,0c0.4,0,0.8,0,1.1-0.2
			c0.6-0.2,1.2-0.1,1.8,0c0.7,0.1,1.3,0.1,2,0.1c0.3,0,0.4-0.1,0.4-0.5c0-0.2,0.1-0.3,0.2-0.3c0.6-0.1,1.2-0.1,1.8,0
			c0.7,0.2,1.4,0.3,2.1,0.6c0.2,0.1,0.2,0,0.3-0.2c0.1-0.4,0.3-0.5,0.6-0.4c0.4,0.1,0.8,0.1,1.2,0.1c0.2,0,0.5,0,0.7,0.1
			c0.3,0.1,0.6,0.2,0.9,0.2c0.3,0.1,0.3,0,0.3-0.3c0-0.2,0.1-0.4,0.4-0.3c0.7,0.1,1.3,0.3,2,0.5c0.3,0.1,0.7,0.3,1,0.3
			c0.2,0,0.3,0,0.3-0.3c0-0.4,0.2-0.5,0.5-0.4c0.4,0.1,0.7,0.2,1.1,0.3c0.3,0.1,0.5,0.2,0.8,0.3c0.3,0.1,0.4,0,0.5-0.3
			c0.1-0.2,0.2-0.3,0.5-0.3c0.6,0.1,1.1,0.3,1.6,0.5c0.4,0.1,0.8,0.3,1.2,0.4c0.3,0.1,0.5,0.1,0.7-0.2c0.1-0.3,0.4-0.3,0.7-0.2
			c0.5,0.1,1,0.3,1.4,0.5c0.3,0.2,0.6,0.3,1,0.1c0.2-0.1,0.5,0,0.7,0c0.3,0.1,0.6,0.2,0.8,0.3c0.1,0,0.3,0.1,0.3,0
			c0.3-0.3,0.7-0.2,1,0c0.2,0.1,0.5,0.2,0.7,0.2c0.2,0,0.4,0.1,0.6-0.2c0.2-0.4,0.6-0.3,1-0.3c0.3,0,0.6,0.1,1,0.2
			c0.5,0.1,0.9,0.1,1.3-0.1c0.5-0.3,1-0.2,1.6,0c0.2,0.1,0.5,0.2,0.7,0.2c0.3,0,0.6,0.1,0.8-0.2c0.3-0.3,0.8-0.2,1.1-0.1
			c0.6,0.2,1.2,0.4,1.8,0.6c0.2,0.1,0.4,0.2,0.6,0.2c0.1,0,0.3,0,0.4-0.2c0.1-0.4,0.4-0.4,0.7-0.3c0.8,0.2,1.6,0.5,2.3,0.9
			c0.2,0.1,0.3,0.2,0.5,0.3c0.1,0,0.2,0,0.2-0.2c-0.1-0.4,0-0.5,0.4-0.5c0.1,0,0.2,0,0.3,0C367.3,11.3,368.2,11.6,369.1,12.1
			c0.1,0,0.1,0,0.2,0C369.2,12.1,369.1,12.1,369.1,12.1z M460.3,68.3c0,0,0,0.1-0.1,0.1c0,0,0,0,0,0
			C460.3,68.5,460.3,68.4,460.3,68.3c0.2,0,0.4,0.1,0.6,0c0.1-0.1,0.4,0,0.4-0.2c0.2,0,0.3,0,0.4-0.1c0.1,0,0.1,0,0.2-0.1
			c0,0,0.1,0,0.1-0.1c-0.1,0-0.1,0-0.1,0c0,0-0.1,0.1-0.1,0.1c-0.2,0-0.3-0.1-0.4,0.2c-0.2,0-0.4-0.1-0.4,0.2
			C460.7,68.3,460.5,68.3,460.3,68.3z M442.9,70.4c0.1,0,0.1,0,0.2-0.1c0,0,0.1-0.1,0.1-0.1c-0.1-0.1-0.1,0-0.2,0
			C442.8,70.3,442.8,70.4,442.9,70.4c0,0-0.1,0-0.1,0C442.8,70.4,442.8,70.5,442.9,70.4C442.9,70.5,442.9,70.4,442.9,70.4z
			 M430.8,84.2C430.7,84.1,430.8,84.1,430.8,84.2C430.8,84.2,430.8,84.1,430.8,84.2c0.2,0,0.4,0.4,0.8,0.1
			C431.3,84.2,431.1,83.9,430.8,84.2z M509.8,77.7c0.1,0,0.2,0.1,0.3,0.1c0.7-0.1,1.3,0,1.9,0.3c0.5,0.2,1.1,0.4,1.7,0.2
			c-0.4-0.8-0.1-1.4,0.5-1.9c0.1-0.1,0.3-0.2,0.2-0.4c-0.1-0.1-0.3-0.1-0.4-0.1c-0.4-0.1-0.8,0-1.2,0.1c-0.4,0.1-0.8,0.3-1.3,0.4
			C510.7,76.6,510.1,77,509.8,77.7C509.9,77.7,509.8,77.8,509.8,77.7C509.8,77.8,509.8,77.7,509.8,77.7z M488.1,83.1
			c0,0.1,0.1,0.1,0.2,0.1c0.6,0,1.2,0.1,1.8,0.2c1.3,0.4,2.5,0.7,3.9,0.8c1.5,0.1,3,0.3,4.5,0.1c0.6-0.1,1.1-0.4,1.7-0.3
			c0.1,0,0.2-0.2,0.4-0.3c0.4-0.3,0.9-0.5,1.4-0.6c0.2,0,0.4-0.1,0.6-0.1c-0.2-0.2-0.5-0.3-0.8-0.3c-0.8-0.1-1.6-0.2-2.4-0.2
			c-1.3,0-2.5,0-3.8,0c-1.2,0-2.4-0.1-3.5-0.7c-0.4-0.2-0.7-0.2-1.1-0.1c-0.6,0.1-1.1,0.3-1.6,0.7C488.9,82.5,488.5,82.7,488.1,83.1
			C488.1,83,488.1,83,488.1,83.1z M509.2,77.3c-0.8,0.1-1.6,0.1-2.3,0.1c-0.4,0-0.8-0.1-1.2-0.1c-0.7,0-1.4-0.1-2-0.4
			c-1.4-0.5-2.9-0.5-4.4-0.2c-0.1,0-0.2,0.1-0.3,0.1c-0.1,0-0.2,0-0.2,0.2c0.1,0.2,0.3,0.2,0.5,0.2c1.2,0.3,2.4,0.7,3.7,1
			c2,0.4,4,0.3,6-0.2c0.2,0,0.3-0.2,0.3-0.4C509.2,77.6,509.2,77.5,509.2,77.3z M520.9,78c0-0.1,0-0.1-0.1-0.2
			c-1.6-0.8-3.1-1.4-4.9-1.3c-0.3,0-0.6,0-0.9,0.2c-0.3,0.2-0.5,0.4-0.6,0.8c-0.1,0.4,0,0.7,0.5,0.7c0.7-0.1,1.4-0.1,2.1-0.1
			c1.2,0,2.3,0,3.5,0C520.6,78.1,520.8,78.2,520.9,78z M511.9,80.8c0.2,0,0.4,0,0.5,0c1.3-0.1,2.5,0,3.7,0.1
			c0.4,0.1,0.8,0.1,1.2,0.1c0,0,0.1,0,0.1-0.1c0,0,0-0.1,0-0.2c-0.7-0.6-1.5-1.1-2.5-1.3c-0.8-0.2-1.6-0.1-2.4-0.2
			c-0.2,0-0.3,0.1-0.4,0.3C512,80,512,80.4,511.9,80.8z M509.4,86.9c0-0.1-0.1-0.2-0.1-0.3c-0.1-0.1-0.2-0.3-0.3-0.4
			c-0.9-0.9-2-1.5-3.3-1.8c-0.3-0.1-0.6,0-0.9,0.1c-0.1,0-0.2,0.2-0.1,0.4c0.2,0.2,0.3,0.5,0.3,0.8c0.1,0.2,0.2,0.3,0.4,0.4
			c0.9,0.2,1.8,0.5,2.7,0.6C508.5,86.8,508.9,86.9,509.4,86.9z M429.8,20.2c-0.1-0.2-0.2-0.2-0.4-0.3c-0.1,0-0.2,0-0.3,0.1
			c0,0.1,0.1,0.2,0.2,0.2C429.4,20.3,429.6,20.3,429.8,20.2z"/>
		<path d="M423.2,84.7c-0.1,0.6,0,1.1,0.3,1.6c0.1,0.1,0.1,0.2,0.1,0.3c0.1,0.2,0.1,0.4,0.1,0.6c-0.1,0.2-0.4,0.2-0.5,0.3
			c0.2,0.4,0.3,0.7,0.5,1.1c0.1,0.2,0,0.3-0.2,0.3c-0.1,0-0.3,0-0.4,0c0-0.1,0-0.2-0.1,0c0,0,0.1,0.1,0.1,0c0,0.7,0.3,1.2,0.8,1.6
			c0.4,0.4,0.9,0.8,1.3,1.2c0.1,0.1,0.2,0.2,0,0.4c-0.1,0.1-0.2,0.1,0,0.2c0.3,0.1,0.6,0.2,0.9,0.4c0.3,0.2,0.7,0.4,1,0.7
			c-0.3,0.3-0.7,0-1,0.2c0.3,0.5,0.7,0.7,1.2,0.9c0.6,0.1,1.2,0.3,1.7,0.4c0.5,0.1,1,0.3,1.4,0.6c0.4,0.3,0.8,0.4,1.3,0.5
			c0.2,0,0.3,0.1,0.3,0.3c-0.1,0.3,0.3,0.6,0.1,0.9c0,0,0.1,0.2,0.1,0.2c0.4,0.3,0.8,0.5,1.3,0.6c0.4,0,0.8,0.1,1.2,0
			c1.9-0.2,3.8,0,5.5,0.8c0.3,0.1,0.5,0.2,0.8,0.1c0.4,0,0.8,0,1.2,0.1c1,0.3,2,0.5,3,0.4c0.6,0,1.1,0.2,1.6,0.4
			c1.2,0.4,2.4,0.7,3.7,0.7c0.2,0,0.4-0.1,0.6,0.2c-0.3,0-0.7,0.1-1,0.1c0,0.2,0.1,0.3,0.2,0.4c-0.1,0-0.1,0-0.2,0c0,0-0.1,0-0.1,0
			c0,0,0.1,0,0.1,0c0.1,0,0.1,0,0.2-0.1c1.2-0.2,2.3-0.4,3.5-0.3c0.6,0,1.2,0,1.7,0.4c0.2,0.1,0.5,0.1,0.7,0.1
			c0.3-0.1,0.5-0.2,0.8-0.3c0.1,0,0.2-0.1,0-0.2c-0.2-0.1-0.1-0.2,0-0.2c0.8-0.2,1.6-0.2,2.4-0.1c0.9,0.1,1.7,0.2,2.6,0.2
			c1.2,0.1,2.3,0,3.5-0.2c0.6-0.1,1.2-0.2,1.9-0.1c0.6,0.1,1.2-0.1,1.8-0.2c0.2,0,0.4-0.1,0.5-0.1c0.9-0.1,1.8-0.1,2.8-0.2
			c1.2,0,2.4-0.2,3.5-0.5c0.4-0.1,0.8,0,1.2,0c1.6,0.3,3.2,0.6,4.7,1.1c0.5,0.1,1,0.3,1.5,0.5c1.6,0.6,3.2,0.5,4.9,0.1
			c1-0.3,2-0.6,3-0.8c1.9-0.5,3.8-0.8,5.8-0.8c1,0,1.9,0.1,2.9,0.1c0.4,0,0.8,0,1.1-0.1c0.6-0.2,1.2-0.4,1.9-0.5
			c0.2,0,0.4-0.1,0.6-0.1c0.7-0.1,1.4,0.1,1.9,0.6c0,0,0.1,0.1,0.1,0.1c1.1,0.9,2.4,1.3,3.7,1.6c0.2,0,0.4,0,0.6-0.1
			c0.8-0.5,1.7-0.6,2.6-0.7c0.4,0,0.8,0.1,1.2,0.4c0.4,0.3,0.9,0.3,1.4,0.3c0.8,0,1.6,0,2.3,0.1c1.1,0.2,2.1,0.2,3.2,0.5
			c1.1,0.2,2.1,0.6,3.2,0.8c0.2,0.1,0.4,0.2,0.6,0.4c0.1,0.2,0.1,0.3-0.1,0.5c-0.1,0.1-0.3,0.2-0.5,0.2c-0.4,0.1-0.8,0.1-1.2,0.1
			c-1.4,0-2.9,0-4.3,0c-0.4,0-0.7,0.1-0.9,0.5c-0.1,0.2-0.3,0.3-0.4,0.5c-0.8,0.9-1.8,1.3-2.9,1.4c-0.8,0.1-1.5-0.1-2.3-0.3
			c-0.8-0.2-1.6-0.3-2.5-0.3c-0.3,0-0.5,0-0.8,0.2c0.5,0.2,0.9,0.6,1.4,0.8c0.2,0.1,0.5,0.3,0.7,0.4c0.6,0.2,1.2,0.5,1.8,0.8
			c0.3,0.2,0.5,0.2,0.8,0.1c0.9-0.3,1.9-0.3,2.8,0.1c0.4,0.2,0.8,0.4,1.1,0.7c0.2,0.2,0.5,0.2,0.7,0.2c0.3,0,0.7,0,1-0.1
			c1.2-0.2,2.4-0.1,3.6,0.3c0.7,0.2,1.4,0.4,2.1,0.8c0.2,0.1,0.4,0.2,0.7,0.3c0.2,0.1,0.4,0.2,0.6,0.3c0.2,0.1,0.3,0.3,0.2,0.5
			c-0.1,0.2-0.2,0.3-0.3,0.4c-0.3,0-0.7,0.1-1,0.1c-0.4,0-0.7,0-1.1-0.1c-1.4-0.1-2.9,0.1-4.3,0.3c-0.1,0-0.3,0-0.4,0.1
			c-1.8,1.3-3.7,1.5-5.8,1.1c-1.8-0.4-3.7-0.5-5.5-0.3c-0.4,0-0.7,0.1-1.1,0.1c-0.1,0-0.3,0-0.3,0.1c0,0.2,0.2,0.2,0.3,0.2
			c0.8,0.2,1.5,0.4,2.2,0.8c0.3,0.2,0.6,0.2,1,0.1c0.2,0,0.5-0.1,0.7-0.1c0.9,0,1.7,0.1,2.4,0.7c0.5,0.5,1.1,0.5,1.8,0.4
			c0.8-0.1,1.6-0.2,2.4-0.2c0.7,0,1.4,0.2,2.1,0.3c0.3,0,0.5,0.1,0.7,0.3c0.4,0.4,0.9,0.7,1.3,1c0.3,0.2,0.5,0.4,0.4,0.7
			c-0.1,0.4-0.4,0.5-0.7,0.6c-0.4,0-0.7,0.1-1.1,0.1c-1,0-2,0.1-3.1,0.1c-0.6,0-1.1,0.1-1.6,0.4c-1.1,0.5-2.2,0.9-3.3,1
			c-0.4,0-0.8,0.1-1.1,0.2c-0.2,0-0.4,0.1-0.6,0c-0.6-0.3-1.1-0.1-1.7,0.2c0.8,0.2,1.4,0.5,2.2,0.6c1.7,0.2,3.2,0.8,4.6,1.7
			c0.3,0.2,0.6,0.5,0.8,0.9c0.2,0.3,0,0.5-0.3,0.5c-0.1,0-0.3,0-0.4,0c-0.8-0.2-1.6,0-2.4,0c-0.2,0-0.3,0.1-0.4,0.2
			c-0.1,0.2-0.3,0.4-0.5,0.5c-0.5,0.5-1.1,0.9-1.8,1.1c-1.2,0.4-2.4,0.6-3.6,0.6c-1,0-2-0.2-2.8-0.7c-0.5-0.3-1.1-0.4-1.7-0.4
			c-1,0-2,0.3-3,0.4c-2,0.3-3.9,0.1-5.6-1c-0.5-0.3-1.1-0.6-1.7-0.9c-1.7-0.9-3.5-1.3-5.3-1.5c-1.6-0.2-3.1,0.1-4.7,0.1
			c-1,0-2.1,0-3.1,0c-1.2,0-2.3-0.2-3.4-0.8c-2-1-4.2-1.4-6.5-1.5c-2.4-0.1-4.7-0.2-7.1-0.1c-0.4,0-0.7,0-1.1-0.1
			c-0.4-0.1-0.7-0.2-0.9-0.5c-0.1-0.2-0.3-0.3-0.5-0.3c-2.1-0.3-4.3-0.5-6.4-0.3c-1.5,0.1-3,0.3-4.5,0.5c-1.3,0.2-2.7,0.4-4,0.6
			c-1.1,0.2-2.2,0.4-3.3,0.5c-1.5,0.1-3,0.3-4.5,0.2c-0.8-0.1-1.6-0.1-2.4-0.1c-2.4-0.1-4.7-0.4-7-0.8c-1.8-0.3-3.6-0.7-5.3-1.1
			c-0.9-0.2-1.9-0.4-2.8-0.7c-0.1,0-0.2-0.1-0.3-0.1c-0.1,0-0.2,0-0.2,0.1c0,0.2-0.2,0.3-0.4,0.3c-0.5,0.1-1,0.1-1.5-0.1
			c-1.8-0.5-3.6-1.2-5.3-1.9c-2.4-0.9-4.7-2.1-7.1-3.2c-0.2-0.1-0.4-0.2-0.5-0.2c-0.6,0.2-1-0.2-1.3-0.6c-0.3-0.4-0.7-0.6-1.2-0.8
			c-0.1-0.1-0.3-0.1-0.4-0.1c-0.3,0.1-0.5,0-0.7-0.2c-0.1-0.2-0.2-0.4-0.5-0.5c-0.2-0.1-0.4-0.3-0.6-0.1c-0.3,0.2-0.6,0-0.8-0.2
			c-0.1-0.1-0.3-0.2-0.4-0.4c-0.4-0.6-1-1-1.6-1.3c-0.2-0.1-0.4-0.2-0.5-0.3c-0.1-0.1-0.2-0.1-0.3-0.1c-0.4,0.3-0.6,0.1-0.9-0.1
			c-0.3-0.2-0.6-0.3-0.9-0.3c-1,0-1.9,0-2.9,0c-1.2,0-2.3-0.1-3.5-0.3c-0.5-0.1-1-0.1-1.5,0.1c-0.4,0.2-0.8,0.1-1.2,0.2
			c-0.2,0-0.4,0-0.5,0.1c-0.7,0.5-1.4,0.3-2.1,0.2c-0.3,0-0.6-0.1-0.9-0.2c-0.2-0.1-0.4,0-0.6,0.2c-0.6,0.4-1.3,0.6-2,0.6
			c-1.1,0-2.2-0.1-3.3-0.4c-0.4-0.1-0.8-0.2-1.2-0.1c-1,0.2-1.9,0-2.8-0.2c-0.4-0.1-0.8-0.3-1.2-0.2c0,0,0,0,0,0
			c-0.1-0.2-0.3-0.2-0.5-0.3c-0.2-0.1-0.4-0.2-0.5-0.4c-0.1-0.1,0-0.2,0.1-0.3c0.3-0.1,0.5,0,0.8,0.1c0.9,0.3,1.9,0.5,2.9,0.6
			c0.1,0,0.3,0,0.3-0.1c0-0.5,0.4-0.3,0.6-0.3c0.3,0,0.6,0,0.9,0.1c0.8,0.3,1.6,0.4,2.4,0.6c0.8,0.2,1.6,0.2,2.4,0
			c0.2,0,0.4-0.1,0.6-0.2c-0.5-0.2-0.9-0.3-1.4-0.5c0,0-0.1-0.1-0.1-0.1c0-0.1,0-0.1,0.1-0.1c0.4-0.1,0.8-0.1,1.2,0
			c1,0.3,2.1,0.5,3.2,0.6c0,0,0,0,0.1,0c-0.1-0.2-0.2-0.3-0.4-0.5c0.2-0.2,0.4-0.2,0.6-0.2c0.2,0,0.5,0.1,0.7,0.2
			c0.3,0.1,0.6,0.1,1,0c-0.3-0.3-0.7-0.3-1-0.6c0.3-0.2,0.7-0.2,1-0.1c0.5,0.1,1.1,0.2,1.6,0.3c1.2,0.3,2.5,0.5,3.7,0.6
			c0.7,0.1,1.5,0,2.3,0c-0.1-0.5-0.4-0.9-0.7-1.2c-0.1-0.1-0.2,0-0.3,0.1c-0.3,0.4-0.4,0.4-0.7,0.1c-0.1-0.2-0.3-0.4-0.4-0.6
			c-0.1-0.3-0.3-0.4-0.6-0.5c-0.1,0-0.2-0.1-0.3,0c-0.1,0.1-0.2,0.3-0.5,0.2c-0.2-0.1-0.3-0.2-0.3-0.4c-0.1-0.2-0.2-0.3-0.4-0.4
			c-0.3-0.1-0.4-0.4-0.5-0.7c0-0.1-0.1-0.3-0.2-0.4c-0.1-0.2-0.3-0.3-0.3-0.5c-0.1-0.2-0.1-0.4-0.2-0.6c-0.3,0-0.5,0.3-0.7,0.3
			c-0.1,0-0.2,0-0.2-0.1c0-0.1,0-0.2-0.1-0.2c0,0,0-0.1,0-0.1c0.4-0.4,0.4-0.9,0.5-1.4c0.1-0.5,0.1-1.1,0.2-1.7
			c-0.4,0.2-0.4,0.5-0.6,0.7c-0.1,0.1-0.1,0.1-0.2,0.1c-0.1,0-0.1-0.1-0.1-0.2c0-0.4,0.1-0.8,0.3-1.1c0.1-0.2,0.2-0.5,0.4-0.7
			c0.1-0.2,0.1-0.4,0.1-0.7c0-1.2-0.3-2.3-0.2-3.5c0.1-0.6,0.1-1.2,0.1-1.7c-0.1-0.2-0.2-0.2-0.2-0.1c-0.2,0.1-0.4,0.1-0.6-0.1
			c-0.2-0.2-0.1-0.4,0-0.6c0.5-0.8,0.8-1.7,1.2-2.6c0.1-0.1-0.1-0.2-0.2-0.3c-0.2-0.1-0.4-0.1-0.6-0.1c-0.1,0-0.1-0.1-0.1-0.2
			c0-0.1,0.1-0.2,0.1-0.2c0.1-0.1,0.2-0.1,0.3-0.1c0.5-0.1,0.6-0.2,0.7-0.7c0-0.3,0.1-0.5,0.2-0.8c0,0,0-0.1,0-0.1l0,0.1
			c-0.1-0.1-0.2-0.1-0.3,0c-0.2,0.1-0.5,0.2-0.8,0.2c-0.1,0-0.2-0.1-0.3-0.2c-0.1-0.1,0-0.3,0.1-0.3c1.1-0.5,1.5-1.7,2.3-2.5
			c0.2-0.2,0.3-0.6,0.2-0.9c0.2,0,0.1-0.2,0.1-0.3c0-0.1,0.1,0,0.1,0c0,0.1,0.1,0-0.1,0c0,0.1-0.1,0.2-0.1,0.3
			c-0.2,0-0.4-0.1-0.4-0.4c0-0.2,0.1-0.3,0.2-0.5c0.4-0.5,0.8-1.1,1.3-1.4c0.2-0.1,0.3-0.2,0.3-0.4c0.1-0.7,0.3-1.4,0.7-2
			c0.1-0.1,0.2-0.3,0-0.5c-0.1-0.1-0.1-0.2-0.1-0.3c0.2-0.5,0.1-1.1,0.2-1.6c0.1-0.4,0.2-0.8,0.2-1.3c0-0.5,0.2-0.9,0.4-1.4
			c0.1-0.2,0.3-0.5,0.3-0.7l0,0c0.1,0,0.2-0.1,0.2-0.2l0,0c0.1-0.1,0.1-0.1,0.2-0.2l0,0c0.1-0.1,0.3-0.3,0.4-0.4l0,0
			c0.1-0.1,0.1-0.1,0.2-0.2l0,0c0.1-0.1,0.1-0.1,0.2-0.2l0,0c0.2-0.1,0.3-0.2,0.5-0.3c0.1,0,0.2-0.1,0.3,0.1c0.1,0.1,0.1,0.2,0,0.3
			c-0.2,0.3-0.4,0.6-0.7,0.8c-0.4,0.4-0.7,0.9-1,1.4c-0.1,0.2-0.1,0.4,0,0.6c0,0-0.1-0.1-0.1-0.1c0,0,0.1,0.1,0.1,0.1
			c0.2-0.6,0.7-1,1.1-1.5c0.1-0.1,0.2-0.1,0.3,0c0.1,0.1,0.2,0.2,0.1,0.3c-0.2,0.4-0.3,0.8-0.6,1.1c-0.2,0.3-0.5,0.6-0.6,1
			c0.2,0.2,0.3,0,0.4-0.1c0.3-0.1,0.5-0.3,0.8-0.4c0.1,0,0.3-0.1,0.3,0c0.1,0.2,0,0.3-0.1,0.4c-0.3,0.3-0.6,0.5-1,0.8
			c-0.5,0.3-0.9,0.7-1.3,1.2c-0.1,0.1-0.2,0.2-0.1,0.4c0.4-0.1,0.6-0.4,0.9-0.6c0.1,0,0.2-0.1,0.2,0c0.2,0.7,0.7,0.1,1.1,0.3
			c-0.7,0.8-1.6,1.3-2.4,2c0.2,0.1,0.3-0.1,0.4-0.1c0.1-0.1,0.3-0.2,0.4,0c0.1,0.1,0.1,0.3,0,0.4c-0.2,0.3-0.4,0.6-0.7,0.8
			c-0.3,0.2-0.6,0.5-0.9,0.7c0.3,0.3,0.6,0,0.8,0.2c-0.2,0.4-0.6,0.7-0.9,1.1c0.3,0.1,0.6-0.2,0.8,0.1c0.2,0.4-0.2,0.5-0.4,0.7
			c-0.7,0.5-1.3,1-2,1.5c-0.1,0.1-0.3,0.2-0.2,0.4c-0.1,0-0.2,0-0.2,0.1c-0.1,0.1-0.1,0.2,0,0.3c0.1,0.1,0,0.1,0,0.2
			c-0.1-0.1-0.2-0.1-0.4,0c0,0,0,0,0,0c0.1,0,0.2,0,0.3,0c-0.1-0.2,0.1-0.4,0-0.5c0.1,0.1,0.2,0,0.2-0.1c0.3-0.1,0.4-0.3,0.7-0.4
			c0.2-0.1,0.3-0.2,0.6-0.2c0.1,0,0.1,0,0.2,0c0.1,0.1,0.1,0.2,0,0.2c-0.1,0.3-0.3,0.5-0.5,0.7c-0.4,0.4-0.8,0.8-1.1,1.3
			c-0.1,0.1-0.2,0.3-0.2,0.5c0,0.1,0,0.1,0.1,0.2c0,0,0.1,0,0.1,0c0.2-0.1,0.4-0.2,0.6-0.3c0.5-0.3,0.9-0.5,1.4-0.7
			c0.1-0.1,0.3-0.1,0.4-0.1c0.1,0,0.2,0.1,0.2,0.2c0,0,0,0.1,0,0.2c-0.1,0.2-0.4,0.3-0.6,0.4c-0.7,0.4-1.4,0.8-2.1,1.2
			c-0.1,0.1-0.2,0.2-0.4,0.3c0,0,0,0.1,0,0.1c0,0,0.1,0.1,0.1,0.1c0.2,0,0.3-0.1,0.4-0.1c0.3-0.3,0.8-0.4,1.2-0.6
			c0.2-0.1,0.5-0.2,0.7-0.1c0.1,0,0.1,0.1,0.1,0.2c-0.2,0.3-0.6,0.4-0.9,0.6c-0.3,0.2-0.6,0.2-0.9,0.5c-0.2,0.1-0.4,0.2-0.1,0.5
			c0.1,0.1,0,0.2,0,0.2c-0.1,0.2-0.2,0.4-0.5,0.5c0.1,0,0.1,0,0,0c0,0,0,0,0-0.1c0.2,0.1,0.3,0.1,0.5,0.1c0.3-0.1,0.6-0.2,0.9-0.1
			c-0.1,0.4-0.4,0.5-0.7,0.6c-0.4,0.2-0.9,0.5-1.3,0.7c-0.3,0.2-0.4,0.4-0.2,0.7c0.3,0,0.5-0.3,0.8-0.3c0.1,0,0.2,0,0.3,0
			c-0.2,0.7-1.1,1-1.1,1.8c0.2,0.1,0.2-0.1,0.3-0.2c0.5-0.6,1.2-1.1,2-1.4c0.1,0,0.2-0.1,0.3-0.1c0.1,0,0.2,0.1,0.3,0.2
			c0.1,0.1,0,0.2-0.1,0.3c-0.1,0.1-0.3,0.2-0.5,0.2c-0.7,0.4-1.3,0.9-1.8,1.6c-0.2,0.4-0.5,0.7-0.7,1c0,0,0,0.1,0,0.2
			c0,0,0.1,0,0.1,0c0.1-0.2,0.3-0.4,0.4-0.6c0.4-0.4,0.7-0.8,1.3-1c0.2-0.1,0.3,0,0.4,0.1c0.1,0.1,0,0.2-0.1,0.3
			c-0.1,0.1-0.2,0.2-0.3,0.2c-0.2,0.1-0.3,0.3-0.5,0.4c-0.4,0.3-0.6,0.7-0.8,1.2c-0.1,0.2-0.1,0.3,0.1,0.5c0,0,0,0,0,0l0,0
			c0.2-0.4,0.6-0.6,1-0.7c0.1,0,0.2,0,0.3,0.1c0.1,0.1,0,0.2-0.1,0.3c-0.4,0.3-0.9,0.7-1.2,1.2c-0.1,0.1-0.1,0.3,0,0.4
			c-0.1-0.1-0.2,0-0.3,0.1c0,0,0,0,0,0c0,0,0,0,0,0c0.1,0,0.2-0.1,0.2-0.1c0.1,0,0.2,0,0.3,0.2c0.1,0.2-0.2,0.5,0,0.7
			c0.3-0.2,0.6-0.4,1-0.6c0.1-0.1,0.2,0,0.3,0.1c0.1,0.1,0.1,0.2,0,0.3c0,0.1-0.1,0.1-0.2,0.2c-0.1,0.1-0.3,0.2-0.4,0.4
			c-0.4,0.4-0.6,0.8-0.7,1.4c0.3-0.2,0.4-0.4,0.5-0.5c0.1-0.1,0.2-0.3,0.4-0.3c0.1-0.1,0.2-0.1,0.3,0c0.1,0.1,0.1,0.2,0.1,0.3
			c-0.1,0.2-0.2,0.4-0.5,0.5c0,0.1,0,0.2,0,0.3c0,0,0,0.1,0,0.1c0,0,0-0.1,0-0.1c0-0.1,0-0.2-0.1-0.3c0.2,0,0.3,0,0.5-0.2
			c0.2-0.1,0.3-0.3,0.5-0.4c0.1,0,0.2,0,0.2,0c0.1,0.1,0.2,0.2,0.1,0.3c-0.1,0.1-0.2,0.2-0.3,0.4c-0.4,0.4-0.7,0.9-1,1.4
			c-0.1,0.3-0.2,0.6-0.2,0.9c0,0.2-0.1,0.5,0.2,0.5c0.2,0,0.2-0.2,0.3-0.4c0.2-0.3,0.4-0.6,0.8-0.7c0.2-0.1,0.3,0,0.4,0.1
			c0.1,0.1,0.1,0.2,0,0.3c-0.2,0.3-0.5,0.6-0.6,1c-0.1,0.3,0,0.4,0.5,0.6c0.1-0.3,0.1-0.6,0.2-0.9c0-0.1,0.1-0.3,0.2-0.4
			c0.1-0.1,0.2-0.2,0.3-0.2c0.1,0,0.2,0.1,0.2,0.2c0,0.3,0.1,0.6,0.1,0.9c0.1-0.1,0.2-0.2,0.3-0.3c0.2-0.1,0.3-0.1,0.4,0.1
			c0.2,0.4,0.3,0.8,0.5,1.2c0.1,0.2,0.2,0.4,0.4,0.6c0.2,0.1,0.3,0.1,0.4-0.1c0.1-0.2,0.1-0.3,0.3-0.4c0.1-0.1,0.4-0.1,0.5,0.1
			c0.1,0.1,0.1,0.3,0.1,0.4c0.2,0.6,0.5,1.1,1.1,1.4c0.4,0.2,0.9,0.4,1.2,0.7c0-0.1,0-0.1,0,0c0,0.1,0.1,0-0.1,0
			c0.2-0.3,0-0.5-0.1-0.8c0-0.2-0.1-0.5,0.1-0.7c0.1-0.2,0.4-0.2,0.5,0c0.1,0.1,0.2,0.3,0.2,0.4c0.2,0.4,0.5,0.9,0.7,1.3
			c0.3,0.8,0.9,1.2,1.7,1.5c0.1-0.3,0.2-0.6,0.3-0.8c0-0.1,0.2-0.2,0.3-0.2c0.2,0,0.3,0.1,0.3,0.2c0.1,0.3,0.2,0.7,0.3,1
			c0.1,0.5,0.5,0.8,1,0.9c0.1-0.3,0.2-0.6,0.3-0.9c0.1-0.3,0.4-0.2,0.6,0c0.1,0.1,0.1,0.3,0.1,0.4c0,0.7,0.4,1.2,0.8,1.6
			c0,0,0-0.1,0-0.1l0,0c0.1-0.2,0.1-0.3,0-0.5c-0.1-0.2-0.3-0.4-0.3-0.6c0-0.1,0-0.2,0.1-0.3c0.1-0.1,0.3-0.1,0.4,0
			c0.1,0.1,0.2,0.2,0.3,0.3c0.2,0.2,0.4,0.5,0.6,0.8c0.5,0.7,1.2,1.2,1.9,1.9c0-0.3-0.2-0.5-0.3-0.7c0-0.2,0-0.3,0-0.4
			c0.1-0.1,0.2-0.2,0.3-0.1c0.1,0,0.2,0.1,0.2,0.2c0.6,0.6,1.3,1.1,2.1,1.5c0.9,0.5,1.8,1.1,2.7,1.7c0,0.1,0.1,0.2,0.1,0.1
			c0,0,0-0.1-0.1-0.1c-0.1-0.4-0.4-0.7-0.6-1.1c-0.1-0.2-0.3-0.5-0.2-0.8c0-0.2,0.1-0.3,0.2-0.4c0.2-0.1,0.3,0,0.4,0.1
			c0.2,0.3,0.5,0.6,0.6,0.9c0.3,0.5,0.8,1,1.3,1.4c0.3,0.3,0.6,0.5,0.9,0.8c0.4,0.4,0.9,0.4,1.4,0.7c0.1-0.3-0.1-0.4-0.2-0.5
			c-0.3-0.4-0.6-0.8-0.8-1.3c-0.1-0.2,0-0.4,0.2-0.5c0.2-0.1,0.4-0.1,0.5,0.1c0.2,0.2,0.4,0.4,0.6,0.7c0.5,0.7,1.2,1.4,1.8,2
			c0.1,0.1,0.3,0.1,0.4,0c0.1-0.1,0.2-0.2,0.1-0.3c-0.1-0.2-0.3-0.4-0.4-0.6c-0.2-0.2-0.3-0.4-0.4-0.7c0-0.2,0-0.4,0.2-0.5
			c0.2-0.1,0.3,0,0.4,0.1c0.4,0.4,0.8,0.8,1.2,1.2c0.3,0.3,0.7,0.6,1.1,0.9c0.4,0.3,0.8,0.4,1.3,0.4c0.2-0.2,0-0.3-0.1-0.4
			c0-0.1-0.1-0.3-0.1-0.4c0-0.2,0-0.4,0.2-0.5c0.1-0.1,0.3-0.1,0.4,0c0.2,0.2,0.5,0.4,0.7,0.6c0.6,0.6,1.2,0.9,1.9,1.3
			c0,0,0.1,0,0.2,0c0-0.2-0.2-0.3-0.3-0.4c-0.1-0.1-0.2-0.2-0.3-0.3c-0.1-0.2-0.1-0.3,0.1-0.5c0.1-0.1,0.2-0.2,0.4-0.1
			c0.2,0.1,0.4,0.2,0.6,0.3c0.8,0.4,1.7,0.8,2.4,1.5c0.4,0.3,0.8,0.3,1.4,0.3c-0.5-0.4-0.8-0.6-1.1-0.9c-0.3-0.2-0.5-0.5-0.7-0.9
			c-0.1-0.1-0.1-0.2,0-0.3c0.1-0.1,0.2-0.2,0.4-0.2c0.2,0,0.3,0.1,0.5,0.2c0.7,0.6,1.5,1.1,2.3,1.7c0.1,0.1,0.3,0.2,0.4,0.3
			c0.2,0.4,0.5,0.5,0.9,0.5c2.1,0.2,4.2,0.3,6.3,0.2c2.2-0.1,4.3-0.3,6.4-0.7c2-0.4,4-0.6,6-0.8c1.1-0.1,2.2-0.2,3.3-0.3
			c0.5,0,1.1,0,1.6,0c1.7,0.1,3.4,0.3,5.1,0.5c0.7,0.1,1.5,0.1,2.2,0.4c0.8,0.3,1.5,0.3,2.3,0.3c1.5,0,3,0.1,4.5,0.2
			c1.4,0.1,2.7,0.3,4.1,0.6c0.7,0.2,1.4,0.5,2.1,0.8c1.2,0.6,2.4,0.8,3.7,0.8c1.9,0.1,3.7-0.1,5.6-0.1c2.2-0.1,4.4,0.3,6.4,1.1
			c1,0.4,1.9,0.9,2.9,1.5c1.4,0.8,2.9,1,4.5,0.9c1.1-0.1,2.2-0.2,3.3-0.4c1-0.1,1.9,0.1,2.8,0.6c0.4,0.3,0.9,0.4,1.4,0.4
			c1.8,0.1,3.5-0.1,5-0.9c0.1-0.1,0.2-0.2,0.3-0.3c0,0,0-0.1,0-0.2c0,0-0.1,0-0.2,0c-0.3,0-0.6,0-0.9,0c-0.3,0-0.6-0.1-0.8-0.3
			c-0.6-0.4-0.7-1-0.2-1.5c0.3-0.3,0.5-0.5,0.8-0.7c0.2-0.2,0.2-0.4-0.1-0.5c-0.6-0.2-1.1-0.3-1.7-0.4c-0.3,0-0.6,0-0.9,0.1
			c-0.8,0.4-1.8,0.6-2.3,1.4c0,0.1-0.1,0.1-0.2,0.2c0,0-0.1,0-0.1,0c0,0-0.1-0.1-0.1-0.1c0-0.2,0.1-0.4,0.1-0.5
			c-0.1-0.2-0.4-0.2-0.6-0.2c-1.1-0.3-2.2-0.7-3.2-1c-0.6-0.2-1.1-0.3-1.7-0.5c-0.4-0.1-0.9-0.2-1.3-0.4c-0.9-0.4-1.8-0.3-2.6,0.3
			c-0.3,0.2-0.5,0.6-0.7,0.9c-0.2,0.2-0.2,0.7-0.6,0.6c-0.2-0.3,0.1-0.6,0.1-0.8c0.1-0.4,0.3-0.7,0.6-0.9c0.1-0.1,0.2-0.1,0.2-0.3
			c0,0,0,0-0.1,0c-2.1-0.3-4-1.3-5.9-2.3c-1-0.6-2.2-1-3.3-1.3c-1.2-0.4-2.4-0.6-3.7-0.6c-0.1,0-0.2,0-0.4,0c-0.1,0-0.2-0.1-0.2-0.2
			c0-0.1,0.1-0.2,0.1-0.2c0.3-0.2,0.6-0.2,0.9-0.2c0.8,0,1.5,0.1,2.3,0.3c0.2,0,0.3,0.1,0.5,0.1c0-0.2-0.1-0.3-0.3-0.3
			c-0.6-0.3-1-0.9-1.6-1.1c-0.1,0-0.1-0.1-0.1-0.2c0.1-0.1,0.2-0.2,0.3-0.1c0.2,0.1,0.5,0.2,0.7,0.3c0.8,0.6,1.7,1.2,2.6,1.6
			c0.1,0.1,0.3,0.2,0.3,0.3c0.1,0.2,0.3,0.3,0.5,0.4c0.9,0.4,1.9,0.9,2.8,1.4c0.9,0.4,1.8,0.9,2.7,1.1c0.8,0.6,1.8,0.5,2.7,0.5
			c0.9,0.1,1.8,0,2.7-0.2c0.9-0.3,1.9-0.4,2.9-0.6c0.6-0.1,1.3-0.1,2-0.1c0.7,0,1.3,0.4,1.9,0.7c0.4,0.2,0.8,0.3,1.2,0.4
			c1.1,0.3,2.1,0.3,3.2,0.2c1,0,2.1-0.2,3.1-0.3c0.2,0,0.5-0.1,0.7-0.2c0.1,0,0.2-0.1,0.2-0.1c0.1-0.1-0.1-0.2-0.2-0.3
			c-0.1-0.1-0.2-0.1-0.2-0.2c-0.5-0.5-0.6-0.8-0.3-1.4c0.1-0.2,0.4-0.4,0.3-0.6c-0.1-0.3-0.4-0.4-0.6-0.5c-0.9-0.5-1.8-0.7-2.8-0.5
			c-0.4,0.1-0.7,0.3-1,0.5c-0.1,0.1-0.2,0.1-0.3,0c-0.1-0.1,0-0.2,0-0.3c0.1-0.2,0-0.3-0.1-0.4c-0.2-0.1-0.5-0.2-0.8-0.3
			c-0.9-0.2-1.7-0.5-2.5-0.9c-0.2-0.1-0.4-0.1-0.6-0.2c-0.7-0.1-1.4-0.3-2.1-0.6c-0.5-0.2-1-0.2-1.5-0.1c-0.5,0.1-0.9,0.2-1.4,0.3
			c-0.5,0.1-0.9,0.4-1,1c-0.1,0.4-0.2,0.7-0.6,1c-0.2-0.6,0.3-1.1,0.2-1.6c-0.1,0-0.2-0.1-0.3-0.1c-0.4-0.1-0.8-0.2-1.1-0.5
			c-0.7-0.7-1.5-1-2.4-1.2c-1.6-0.5-3.3-0.9-5-1.2c-1.6-0.2-3.2-0.3-4.7-0.2c-0.4,0-0.9,0-1.3,0c-0.2,0-0.4,0-0.6-0.1
			c0,0-0.1-0.1-0.1-0.1c0-0.1,0-0.2,0.1-0.2c0.1,0,0.2-0.1,0.3-0.1c0.3,0,0.7-0.1,1-0.1c0.4,0,0.9,0,1.3,0c0-0.3-0.1-0.3-0.3-0.4
			c-0.4-0.1-0.7-0.3-1.1-0.4c-0.1,0-0.2-0.2-0.1-0.3c0-0.1,0.2-0.2,0.3-0.2c0.3,0.1,0.5,0.1,0.8,0.2c0.5,0.2,1.1,0.4,1.7,0.6
			c0.8,0.3,1.6,0.4,2.4,0.5c2.1,0.2,4.2,0.8,6.2,1.3c0.6,0.1,1.1,0.4,1.6,0.8c0.2,0.2,0.4,0.3,0.7,0.3c0.5,0.1,1.1,0.2,1.6,0.3
			c0.4,0.1,0.8,0,1.2-0.2c0.7-0.3,1.5-0.2,2.2,0.1c0.3,0.1,0.6,0.2,0.9,0.2c0.9,0,1.8,0,2.7-0.1c0.7-0.1,1.4-0.2,2.1-0.2
			c1.9-0.2,3.8-0.1,5.7,0.5c1.1,0.3,2.1,0.3,3.2,0c0.3-0.1,0.6-0.2,0.9-0.2c0,0,0.1-0.1,0.1-0.1c0,0,0-0.1-0.1-0.1
			c-0.2-0.1-0.5-0.2-0.7-0.4c-0.5-0.5-0.7-1-0.4-1.5c0.1-0.1,0.1-0.3,0.2-0.4c0.1-0.3,0-0.4-0.2-0.5c-0.4-0.2-0.9-0.4-1.3-0.5
			c-1.2-0.4-2.3-0.1-3.3,0.7c-0.2,0.1-0.4,0.3-0.6,0.4c-0.1,0-0.2-0.1-0.2-0.1c0-0.1,0-0.2,0-0.2c0.2-0.2,0.5-0.3,0.7-0.5
			c0.2-0.1,0.2-0.3,0-0.4c-1.2-0.7-2.4-1.3-3.7-1.7c-0.4-0.1-0.9-0.2-1.3-0.3c-0.9-0.2-1.6,0.1-2.3,0.6c-0.2,0.1-0.3,0.4-0.4,0.6
			c-0.1,0.3-0.3,0.5-0.4,0.8c-0.2,0.4-0.2,0.3-0.6,0.1c-0.1-0.1-0.2,0-0.3-0.2c0-0.1,0-0.2,0-0.4c0.2-0.4,0.4-0.8,0.7-1.1
			c0.1-0.1,0.2-0.2,0.4-0.3c-0.6-0.4-1.2-0.5-1.8-0.4c-0.7,0.1-1.4,0.1-2.1,0.1c-0.5,0-1.1,0.1-1.6,0.1c-0.4,0-0.7,0-1.1,0
			c-0.2,0-0.3-0.4-0.6-0.3c-0.2,0.1-0.5,0-0.7,0c-0.2,0-0.5,0-0.7,0c-0.7,0-1.4-0.2-2-0.3c-1.5-0.2-3.1-0.5-4.6-0.4
			c-0.7,0.1-1.4,0.1-2.1,0c-0.2,0-0.5-0.1-0.7-0.2c-0.1,0-0.3-0.2-0.3-0.3c0-0.2,0.2-0.2,0.3-0.2c0.4,0,0.7,0,1.1,0
			c0.3,0,0.6,0,0.9,0c0.1,0,0.2-0.1,0.2-0.1c0-0.1-0.1-0.2-0.2-0.2c-0.5,0-0.9-0.2-1.3-0.5c-0.1,0-0.1-0.1-0.2-0.2c0,0,0-0.1,0-0.2
			c0-0.1,0.1-0.1,0.2-0.1c0.1,0,0.2,0,0.3,0.1c0.4,0.2,0.8,0.3,1.2,0.5c1,0.5,2.2,0.7,3.3,0.8c0.6,0.1,1.3,0.1,1.9,0.2
			c0.9,0.2,1.8,0.3,2.7,0.4c0.6,0.1,1.1,0,1.7-0.1c0.3,0,0.6-0.1,0.9,0.1c0.3,0.2,0.6,0.1,0.9,0.1c0.7,0,1.3-0.1,2-0.2
			c0.9-0.1,1.9,0,2.7,0.4c0.6,0.3,1.2,0.1,1.7-0.2c0.3-0.2,0.7-0.4,1.1-0.4c1,0,2-0.2,2.9-0.3c0.7,0,1.3,0,2,0.2
			c0.5,0.1,0.9,0.2,1.4,0.3c0.9,0.2,1.8,0,2.6-0.3c0.3-0.1,0.5-0.3,0.7-0.5c0.1-0.1,0.2-0.2,0.2-0.3c0-0.2-0.2-0.2-0.4-0.2
			c-0.4,0-0.8-0.1-1.2-0.3c-0.5-0.2-0.8-0.6-0.6-1.1c0-0.1,0-0.2,0-0.4c0-0.7-0.1-0.8-0.9-0.9c-0.4,0-0.7-0.2-1-0.3
			c-0.3-0.1-0.6-0.1-0.9,0c-0.8,0.3-1.5,0.8-2.2,1.2c-0.1,0.1-0.2,0.3-0.4,0.4c-0.1,0-0.2,0.1-0.2,0.1c-0.1,0-0.1-0.2-0.1-0.2
			c0-0.3,0.1-0.4-0.3-0.5c-1-0.3-1.9-0.6-2.8-1.1c-0.2-0.1-0.4-0.1-0.5-0.3c-0.2-0.4-0.6-0.4-1-0.6c-0.1-0.1-0.3,0-0.4,0.1
			c-0.2,0.3-0.5,0.3-0.8,0.3c-0.5-0.1-0.7,0.2-1,0.5c-0.2,0.2-0.3,0.5-0.6,0.7c-0.1,0.1-0.2,0.2-0.4,0.2c0-0.5,0.3-0.9,0.5-1.4
			c-0.1-0.2-0.3-0.2-0.4-0.2c-2.6-0.1-5.3,0.2-7.9,0.6c-1.2,0.2-2.4,0.6-3.6,0.9c-1.3,0.4-2.6,0.7-4,0.6c-0.6,0-1.3-0.1-1.9-0.3
			c-2-0.6-4-1.1-6-1.5c-0.3-0.1-0.5-0.1-0.8-0.1c-0.1,0-0.2,0-0.3,0.1c-0.3,0.4-0.7,0.4-1.1,0.5c-0.7,0.1-1.4,0.2-2.1,0.3
			c-0.9,0.1-1.8,0.4-2.6,0.8c-0.1,0-0.2,0.1-0.2,0.1c-0.2,0-0.3,0-0.4-0.1c-0.1-0.1-0.1-0.2,0-0.3c0.1-0.2,0.4-0.4,0.6-0.5
			c0.3-0.2,0.7-0.4,1.1-0.5c0.2-0.1,0.4-0.1,0.5-0.3c0.2,0,0.3,0.1,0.5-0.1c-0.2-0.1-0.4,0-0.5,0.1c-0.6-0.1-1.2,0.2-1.8,0.2
			c-0.2,0-0.3,0.1-0.4,0.2c-0.3,0.4-0.7,0.5-1.1,0.7c-0.7,0.3-1.4,0.6-2.1,0.9c-0.4,0.2-0.8,0.4-1,0.9c-0.1,0.1-0.2,0.2-0.4,0.2
			c-0.2,0-0.3-0.2-0.3-0.4c0-0.2,0.1-0.3,0.1-0.5c0.1-0.2,0.3-0.3,0.3-0.5c0,0,0.1,0,0.1,0c0,0,0-0.1,0-0.1c-0.1,0-0.1,0-0.1,0.1
			c-0.4-0.1-0.8,0.1-1.2,0.2c-1.1,0.2-2.2,0.6-3.2,1.2c-0.2,0.1-0.4,0.3-0.6,0.1c-0.2-0.2-0.2-0.4-0.1-0.6c0,0,0-0.1,0-0.1
			c-0.6,0.1-1.3,0.1-1.9,0.2c-0.7,0.1-1.5,0.3-2.2,0.4c-0.1,0-0.2,0-0.4,0c-0.1,0-0.2-0.3-0.1-0.4c0.1-0.1,0.2-0.2,0.3-0.2
			c0.4-0.2,0.9-0.4,1.4-0.5c1.2-0.2,2.4-0.4,3.5-0.6c-0.9-0.4-1.5-0.4-2.4-0.2c-1.4,0.3-2.7,0.6-3.9,1.3c0,0-0.1,0-0.1,0
			c-0.2,0.1-0.4,0.1-0.5-0.1c-0.1-0.1-0.1-0.3,0.1-0.5c0.2-0.2,0.4-0.3,0.7-0.5c0-0.2-0.2-0.2-0.3-0.2c-1.9-0.1-3.8,0.1-5.7,0.7
			c-0.2,0.1-0.6,0.3-0.7,0c-0.2-0.3,0.2-0.5,0.4-0.7c0.1,0,0.1-0.1,0.2-0.2c-0.1-0.2-0.3-0.1-0.4-0.1c-1.4,0-2.8,0.1-4.2,0.1
			c-0.3,0-0.5,0-0.8,0c-0.1,0-0.2,0-0.3-0.2c0-0.2,0-0.3,0.1-0.4c0.1-0.1,0.3-0.1,0.4-0.2c0.6-0.2,1.3-0.3,1.9-0.3
			c0.2,0,0.5,0,0.7-0.1c-0.6-0.2-1.2-0.3-1.9-0.2c-1.3,0.2-2.5,0.4-3.6,0.9c-0.1,0-0.1,0-0.2,0c-0.2,0-0.4-0.1-0.4-0.4
			c0-0.1,0-0.2,0-0.3c-1.1,0-2.1-0.2-3.1-0.1c-0.7,0.1-1.4,0-2.1,0.2c-0.1,0-0.2,0-0.3,0c-0.2,0-0.3,0-0.4-0.2
			c-0.1-0.2,0-0.3,0.2-0.4c0.4-0.3,0.8-0.4,1.3-0.5c0.9-0.2,1.8-0.2,2.7-0.2c0.2,0,0.4,0.1,0.6-0.1c-0.6-0.4-1.3-0.6-1.8-0.5
			c-1.1,0.1-2.3,0-3.4-0.1c-1.1-0.1-2.2-0.1-3.3-0.2c-0.8-0.1-1.5-0.1-2.3-0.2c-0.3,0-0.6-0.1-0.9-0.2c-0.1-0.1-0.2-0.2-0.2-0.4
			c0-0.2,0.1-0.3,0.3-0.3c0.4,0,0.9,0,1.3,0c0.5,0,1.1,0,1.6,0c-0.2-0.4-0.5-0.5-0.8-0.5c-0.7-0.1-1.5-0.2-2.2-0.4
			c-0.4-0.1-0.7-0.3-0.9-0.5c-0.1-0.1-0.1-0.2-0.1-0.3c0-0.2,0.1-0.3,0.3-0.3c0.2-0.1,0.5,0.1,0.7,0.1c0-0.2-0.2-0.2-0.3-0.3
			c-0.4-0.1-0.8-0.2-1.2-0.4c-0.3-0.1-0.6-0.2-0.6-0.5c0-0.4-0.4-0.6-0.6-0.8c-0.8-0.6-1.7-1-2.5-1.5c-0.8-0.4-1.6-1-2.2-1.6
			c-0.2-0.2-0.4-0.5-0.6-0.8c-0.1-0.2-0.1-0.4,0.1-0.5c0.1-0.1,0.3-0.1,0.4,0c0.2,0.2,0.4,0.3,0.6,0.5c0.6,0.5,1.3,1,2,1.4
			c0.1,0.1,0.2,0.2,0.3,0.1c0.1-0.1,0-0.3-0.1-0.4c-0.2-0.2-0.4-0.4-0.6-0.6c-1.1-1.1-1.9-2.5-2.3-4c-0.1-0.3-0.1-0.5-0.1-0.8
			c0-0.2,0.1-0.4,0.3-0.4c0.2,0,0.3,0.1,0.4,0.2c0.2,0.4,0.4,0.8,0.6,1.2c0.4,0.9,0.9,1.7,1.6,2.5c0.1,0.1,0.1,0.1,0.2,0.1
			c0.1,0,0.1-0.1,0.1-0.2c0.1-0.2,0-0.4-0.2-0.6c-0.5-0.6-0.9-1.2-1.2-1.9c-0.2-0.5-0.3-1-0.3-1.5c0-0.2,0-0.4,0.1-0.6
			c0-0.1,0.1-0.3,0.3-0.3c0.2,0,0.3,0.1,0.3,0.2c0.1,0.3,0.2,0.6,0.2,0.9c0,0.2,0,0.5,0.2,0.6c0.2,0,0.1-0.2,0.1-0.3
			c0-0.4,0-0.8,0-1.2c0-0.3,0.1-0.6,0.3-0.8c0.1-0.2,0.2-0.4,0.3-0.6c0.1-0.2,0.2-0.4,0.3-0.6c0.2-0.2,0.4-0.3,0.5-0.2
			c0.1,0.2,0.1,0.3,0,0.5C423.4,83.3,423.4,84,423.2,84.7L423.2,84.7z M506.9,119.7c-0.1,0-0.2-0.1-0.2-0.1c-1.1-0.2-2.1-0.5-3-1
			c-0.8-0.4-1.6-0.6-2.5-0.5c-0.9,0-1.8,0.2-2.7,0.4c0,0.2,0.1,0.2,0.3,0.3c1.1,0.4,2.2,0.7,3.3,1.1c0.6,0.2,1.3,0.4,1.9,0.5
			c0.6,0.1,1.2,0.2,1.8-0.2C506,119.8,506.4,119.8,506.9,119.7z M516.6,115.7c-0.6,0.1-1.3,0.1-1.9,0.2c-0.4,0-0.7,0.1-1.1,0.1
			c-0.3,0-0.6,0.4-0.7,0.7c0,0.2,0.2,0.5,0.5,0.6c0.5,0.2,0.9,0.3,1.4,0.1c0.6-0.3,1.3-0.3,1.9-0.3c0.9,0,1.8,0,2.7-0.1
			c0.1,0,0.2,0,0.3,0c0,0,0,0,0.1-0.1c0-0.1,0-0.1,0-0.2c-0.6-0.5-1.3-1-2.1-1C517.3,115.8,516.9,115.8,516.6,115.7z M523.7,110.7
			c-0.1-0.1-0.1-0.1-0.2-0.2c-1.2-0.6-2.5-0.8-3.8-1c-0.2,0-0.4,0-0.6,0c-0.6,0.1-1.1,0.2-1.7,0.2c-0.1,0-0.3,0.1-0.4,0.1
			c-0.4,0.3-0.5,0.7-0.1,1c0.5,0.3,1,0.6,1.6,0.3c0.2-0.1,0.4-0.2,0.6-0.2c1.4-0.2,2.8-0.4,4.3-0.3
			C523.5,110.7,523.6,110.8,523.7,110.7z M522,102.9c-1.9-0.6-3.7-0.8-5.6-1.1c-0.4-0.1-0.9,0-1.3,0.1c-0.3,0.1-0.4,0.2-0.5,0.5
			c0,0.2,0.1,0.4,0.2,0.5c0.6,0.6,1.3,0.6,2,0.4c0.5-0.2,1-0.3,1.5-0.3c0.7,0,1.4-0.1,2.1-0.1C520.9,102.9,521.4,102.9,522,102.9z
			 M510.4,122.9c0.2,0,0.6-0.1,1-0.2c0.8-0.1,1.5-0.2,2.3-0.2c0.1,0,0.2,0,0.2-0.1c0-0.1-0.1-0.2-0.1-0.2c-0.5-0.3-1.1-0.6-1.7-0.8
			c-0.3-0.1-0.6-0.2-0.9-0.1c-0.5,0.1-0.9,0.2-1.4,0.4c-0.3,0.2-0.7,0.3-0.7,0.7c0,0.2,0.5,0.4,1,0.5
			C510.1,122.9,510.2,122.9,510.4,122.9z M440.5,99.8c0.1,0.2,0.2,0.2,0.4,0.3c0.1,0.1,0.2,0,0.3-0.1c0.1-0.1-0.1-0.2-0.2-0.2
			C440.9,99.7,440.7,99.6,440.5,99.8z M466.3,101.6c0,0-0.1-0.1-0.1-0.1c-0.1,0-0.1,0-0.1,0.1c0,0,0,0,0.1,0
			C466.2,101.6,466.2,101.6,466.3,101.6z M392.9,106.8c0,0-0.1-0.1-0.1-0.1c-0.1,0-0.1,0-0.1,0.1c0,0.1,0.1,0.1,0.1,0.1
			C392.8,106.9,392.8,106.8,392.9,106.8z"/>
		<path d="M287.8,109c-0.2,0-0.3,0-0.5,0.1c-0.7,0.3-1.5,0.4-2.3,0.5c-0.4,0.1-0.8,0.1-1.2,0c-0.6-0.2-1.2,0-1.8,0.1
			c-1.3,0.2-2.6,0.3-3.8,0.2c-0.1,0-0.2,0-0.4,0c-0.1,0-0.3,0-0.3,0.1c-0.1,0.4-0.4,0.5-0.8,0.6c-0.6,0.2-1.1,0.4-1.7,0.5
			c-0.4,0.1-0.7,0.1-1-0.1c0-0.2,0.2-0.2,0.2-0.3c0,0,0.1-0.1,0.1-0.2c0,0-0.1-0.1-0.1-0.1c-0.1,0-0.3,0-0.4,0
			c-1.5,0.2-3,0.4-4.5,0.3c-1.8-0.1-3.5-0.4-5.2-0.9c-2.6-0.8-5.2-1.7-7.8-2.6c-0.7-0.2-1.4-0.4-2.1-0.6c-1.4-0.3-2.8-0.6-4.2-0.9
			c-2.4-0.5-4.9-0.7-7.4-0.9c-2.3-0.1-4.5-0.2-6.8-0.1c-3,0.1-5.9,0.2-8.9,0.7c-1.6,0.3-3.2,0.6-4.7,1.3c-1.2,0.5-2.1,1.4-2.8,2.5
			c-0.6,0.9-0.9,1.9-1.3,2.9c-0.2,0.4-0.3,0.9-0.5,1.3c-0.2,0.5-0.1,0.9,0.2,1.2c1.2,1,2.3,2,3.9,2.4c1.2,0.3,2.5,0.5,3.6,1
			c1.2,0.5,2.4,0.9,3.6,1.4c1,0.5,2,0.5,3.1,0.4c1.5-0.2,3-0.2,4.5,0.2c1.3,0.3,2.6,0.3,3.8,0.3c2.1,0,4.2-0.4,6.2-0.7
			c1.2-0.2,2.4-0.5,3.6-0.6c1.4-0.2,2.7-0.1,4.1,0.3c0.9,0.3,1.5,0.9,2,1.7c0,0.1,0.1,0.2,0.1,0.2c0.2,0.3,0.4,0.5,0.8,0.4
			c0.7-0.1,1.5-0.2,2.2-0.3c1.1-0.2,2.3-0.2,3.4,0.2c0.4,0.1,0.8,0.3,1,0.7c0.1,0.2,0.3,0.3,0.4,0.5c0.2,0.2,0.4,0.3,0.7,0.3
			c1.3,0.1,2.5,0.4,3.6,0.9c1.8,0.7,3.5,1.7,5,3.1c0.5,0.4,0.9,0.8,1.4,1.3c0.3,0.2,0.5,0.5,0.7,0.8c0.3,0.4,0,0.9-0.5,0.9
			c-0.4,0-0.7-0.1-1.1-0.1c-1.3-0.3-2.6-0.6-3.9-0.9c-1.7-0.4-3.5-0.7-5.2-0.8c-0.4,0-0.9-0.1-1.3-0.2c-1.1-0.2-2.1-0.8-2.9-1.7
			c-0.6-0.7-0.5-1.4,0.1-2.1c0.5-0.5,1.1-0.8,1.8-1c0.1,0,0.3-0.1,0.4-0.1c0-0.3-0.1-0.4-0.3-0.5c-0.5-0.2-0.9-0.3-1.4-0.3
			c-0.4,0-0.8,0-1.3,0c-0.8,0.1-1.6,0.2-2.4,0.4c-0.9,0.3-1.8,0.6-2.5,1.2c-0.2,0.2-0.5,0.4-0.8,0.4c-0.3,0-0.5-0.1-0.4-0.4
			c0.1-0.4,0.3-0.6,0.6-0.9c0.4-0.3,0.7-0.5,1.1-0.8c-0.1-0.1-0.1-0.2-0.2-0.3c-0.6-1.4-1.7-1.9-3.1-1.9c-1.1-0.1-2.2,0-3.2,0.2
			c-1.9,0.3-3.8,0.7-5.7,1c-1.8,0.3-3.6,0.3-5.5,0.2c-1.2-0.1-2.3-0.3-3.5-0.4c-0.5-0.1-1,0-1.4,0c-0.6,0.1-1.2,0.1-1.8,0.2
			c-0.9,0.1-1.8-0.1-2.7-0.4c-1.3-0.5-2.6-1.1-3.9-1.5c-1.1-0.4-2.2-0.6-3.4-0.9c-1.3-0.4-2.5-1-3.5-1.9c-0.2-0.2-0.4-0.4-0.7-0.6
			c-0.2-0.2-0.4-0.1-0.5,0.2c0-0.4-0.1-0.6-0.1-0.9c0-0.3,0-0.6,0-1c-0.1-0.4,0-0.8,0.3-1.2c0.1-0.1,0.2-0.3,0.2-0.5
			c0.1-0.4,0.3-0.7,0.4-1.1c0.3-0.9,0.8-1.7,1.4-2.3c0.6-0.6,1.2-1.3,1.5-2.1c0.1-0.3,0.3-0.4,0.6-0.5c0.8-0.4,1.6-0.8,2.5-1
			c1.8-0.5,3.6-0.8,5.4-1c1.8-0.2,3.7-0.4,5.5-0.4c1.7-0.1,3.4,0,5,0c0.9,0,1.7,0.1,2.6,0.1c2.3,0.1,4.5,0.3,6.8,0.7
			c2.2,0.3,4.3,0.9,6.5,1.3c0.8,0.2,1.7,0.5,2.5,0.7c2,0.7,4.1,1.4,6.1,2c2,0.6,4,0.9,6,0.9c1.6,0,3.2-0.1,4.8-0.6
			c0.1,0,0.2-0.1,0.3-0.1c1.6,0,3.2-0.5,4.7-1c0.4-0.1,0.9-0.2,1.3-0.3c0.4-0.2,0.7-0.5,1.1-0.7c1.1-0.6,2.3-1.2,3.4-1.8
			c0.2-0.1,0.3-0.2,0.5-0.2c0.2-0.1,0.4-0.1,0.5,0.1c0.1,0.2,0,0.3-0.1,0.4c-0.2,0.2-0.3,0.3-0.5,0.5c-0.6,0.4-1.2,0.8-1.8,1.1
			c-0.5,0.3-1,0.5-1.4,0.7c-0.1,0-0.2,0.1-0.2,0.1c-0.9,0.1-1.6,0.8-2.4,1.1c0.1,0.2,0.2,0.2,0.4,0.2c1.8-0.1,3.6-0.5,5.3-1.2
			c0.1-0.1,0.3-0.1,0.4-0.2c0.2-0.1,0.5-0.2,0.6,0c0.2,0.2-0.1,0.3-0.3,0.5c-0.1,0.1-0.1,0.1-0.1,0.2c0,0,0,0,0,0
			c0.7-0.1,1.3-0.5,1.9-0.8c0.3-0.1,0.5-0.3,0.8-0.1c-0.2,0.6-0.8,0.7-1.2,1l0,0C288,108.9,287.9,109,287.8,109L287.8,109z
			 M273.9,128.8c0,0,0.1-0.1,0.1-0.1c-0.2-0.2-0.4-0.4-0.5-0.6c-0.4-0.3-0.7-0.6-1.1-0.9c-2-1.5-4.2-2.6-6.6-2.9
			c-0.6-0.1-1.2-0.1-1.7-0.4c-0.1-0.1-0.2-0.1-0.3,0c-0.3,0.3-0.6,0.3-0.9,0.5c-0.2,0.1-0.4,0.2-0.6,0.4c-0.4,0.3-0.5,0.7-0.1,1
			c0.6,0.6,1.3,1,2.2,1.2c0.6,0.1,1.2,0.1,1.9,0.2c2.2,0.3,4.4,0.8,6.6,1.3C273,128.6,273.4,128.7,273.9,128.8z"/>
		<path d="M466.9,41.5c-0.9,0.1-1.6,0.5-2.4,1c-0.2,0.1-0.3,0.3-0.6,0.4c-0.1-0.1-0.1-0.2,0-0.3c0.2-0.2,0.3-0.3,0.5-0.5
			c0.9-0.6,1.8-1,2.8-1.1c1.2-0.2,2.4-0.2,3.7,0.1c1,0.2,1.9,0.3,2.9,0.6c0.6,0.2,1.2,0.5,1.6,1.1c0.9,1.2,2.2,1.6,3.6,1.8
			c0.3,0,0.5,0,0.8,0.1c0,0,0.1,0.1,0.1,0.1c0,0-0.1,0.1-0.1,0.1c-0.3,0-0.7,0-1-0.1c-1.7-0.2-1.7-0.2-2.9,0.8
			c-0.1,0-0.1,0.1-0.1,0.2c-0.2,0-0.3,0.2-0.4,0.3c0,0,0,0.1-0.1,0.1c0,0,0.1,0,0.1,0c0-0.1,0-0.1-0.1-0.1c0.3,0,0.4,0,0.4-0.3
			c0,0,0.1,0,0.1,0c0.1,0,0.2,0,0.2,0.1c0.1,0.1,0,0.2,0,0.3c-0.4,0.5-0.9,0.8-1.5,1.1c-0.2,0.1-0.5,0.2-0.7,0.3
			c-0.7,0.4-1.5,0.6-2.3,0.6c-1.3,0.1-2.6,0-3.8-0.2c-1-0.2-1.9-0.6-2.6-1.5c-0.5-0.6-1.1-1.1-1.9-1.3c-0.3-0.1-0.5-0.1-0.8,0
			c-0.3,0.1-0.7,0.2-1.1,0.2c0,0-0.1-0.1-0.1-0.1c0-0.1,0-0.1,0.1-0.1c0.2-0.1,0.4-0.2,0.6-0.2c0.6-0.2,1.2-0.3,1.8-0.5
			c0.4-0.1,0.7-0.4,1-0.7c0.5-0.8,1.2-1.4,1.9-2C466.7,41.7,466.9,41.7,466.9,41.5c0,0,0.1,0,0.1-0.1C467,41.4,467,41.4,466.9,41.5z
			 M468.5,42.3c-0.6,0-1,0.3-1.3,0.6c-0.6,0.5-0.3,1.4,0.3,1.7c0.8,0.3,2,0,2.4-0.8c0.2-0.3,0.1-0.7-0.2-1
			C469.3,42.5,468.9,42.4,468.5,42.3z"/>
		<path d="M420.2,27.5c-0.1,0.3,0,0.5,0,0.7c0.3,1.1,0.4,2.2,0.6,3.4c0.1,0.9,0.3,1.9,0.3,2.9c0,1,0.2,1.9,0.5,2.8
			c0.2,0.7,0.4,1.4,0.5,2.2c0,0.3,0.2,0.6,0.3,0.9c0.6,1.2,1.3,2.4,2.2,3.5c1.3,1.5,2.8,2.4,4.8,2.7c1.7,0.2,3.3,0.4,5,0.5
			c1.5,0.1,3,0.4,4.3,1.2c0.3,0.2,0.4,0.1,0.6-0.1c0.2-0.4,0.4-0.8,0-1.2c-0.1-0.1-0.1-0.3,0-0.4c0.1-0.1,0.3-0.2,0.5-0.1
			c0.6,0.3,0.8,0.6,0.7,1.3c0,0.2-0.1,0.4-0.2,0.6c0,0.1-0.1,0.2,0,0.2c0.2,0.2,0.2,0.4,0,0.6c-0.2,0.3-0.5,0.4-0.9,0.3
			c-0.3,0-0.6-0.2-0.8-0.4c-0.6-0.5-1.3-0.7-2.1-0.8c-0.8-0.1-1.5-0.2-2.3-0.2c-1.2,0-2.4,0-3.6-0.2c-0.9-0.1-1.8-0.4-2.7-0.8
			c-0.5-0.2-1-0.5-1.5-0.7c-2.5-1.1-4.1-3-4.9-5.5c-0.2-0.5-0.3-1-0.4-1.5c-0.2-0.8-0.3-1.6-0.6-2.3c-0.5-1.5-0.6-3.2-0.8-4.8
			c-0.1-0.9-0.1-1.7-0.2-2.6c-0.1-0.7-0.2-1.5-0.6-2.2c-0.2-0.3-0.3-0.6-0.1-0.9c0.1-0.3,0.3-0.5,0.7-0.4c0.4,0.1,0.8,0.1,1.2,0.3
			c0.8,0.3,1.6,0.5,2.4,0.7c0.6,0.1,1.1,0.1,1.7,0.1c0.8-0.1,1.6-0.2,2.4-0.2c2.2-0.2,4.4-0.3,6.5,0.1c0.2,0,0.3,0.1,0.5,0.1
			c1.1,0.3,2.2,0.6,3.3,0.9c1.1,0.3,2.1,0.8,3.2,1.1c0.1,0,0.2,0.1,0.3,0.2c0.1,0.1,0,0.2-0.1,0.3c-0.2,0.1-0.3,0.1-0.5,0
			c-2-0.7-4.1-1.3-6.2-1.6c-2.1-0.3-4.2-0.4-6.3-0.2c-0.8,0.1-1.5,0-2.3-0.1c-1.3-0.2-2.7-0.3-4-0.5
			C421.1,27.4,420.7,27.4,420.2,27.5z"/>
		<path d="M251.8,28.1c0.1-0.1,0.2-0.1,0.2-0.2c0-0.1-0.1-0.1-0.2-0.1c-0.9,0.3-1.7,0.7-2.6,1.1c0.1,0.1,0.2,0.2,0.2,0.2
			c0.1,0.1,0.2,0.3,0.1,0.4c-0.2,0.2-0.4,0.4-0.6,0.5c-0.9,0.6-1.7,1.1-2.6,1.6c-0.8,0.5-1.6,1.1-2.4,1.6c-0.7,0.5-1.4,0.8-2.2,1
			c-0.1,0-0.2,0-0.2-0.2c0,0,0,0,0,0c0.1,0,0.2-0.1,0.2-0.2c0,0,0,0,0,0c0.2-0.1,0.3-0.3,0.4-0.4c0.7-0.8,1.5-1.5,2.4-2
			c0.2-0.1,0.3-0.2,0.5-0.4c0.1-0.1,0.1-0.2-0.1-0.3c-0.1-0.1-0.1-0.1,0-0.2c0.3-0.6,0.7-1,1.2-1.4c1.4-0.8,2.9-1.6,4.4-2.1
			c0.8-0.3,1.6-0.5,2.4-0.7c0.2-0.1,0.4-0.1,0.6,0c0.3,0.3,0.6,0.1,0.9,0c1.4-0.6,2.8-1.2,4.3-1.7c1.2-0.4,2.4-0.7,3.6-1.1
			c0.5-0.1,1-0.3,1.5-0.5c-0.6-0.1-1.1-0.1-1.7,0.1c0.8-0.6,1.5-1.1,2.3-1.5c1.8-0.7,3.6-1.2,5.5-1.7c0.7-0.2,1.4-0.3,2.1-0.3
			c0.2,0,0.4,0,0.6,0.1c0.2,0,0.2,0.2,0.3,0.3c0,0.2-0.1,0.4-0.2,0.4c-0.1,0.1-0.2,0.1-0.3,0.1c-1.8,0.3-3.6,0.8-5.4,1.4
			c-0.8,0.2-1.6,0.6-2.5,0.9c0,0,0,0.1,0,0.1c0.2,0.1,0.4,0.1,0.5,0.4c0,0.3-0.3,0.4-0.5,0.5c-1.1,0.5-2.2,0.8-3.4,1.2
			c-0.7,0.2-1.5,0.5-2.2,0.8c-0.7,0.2-1.4,0.5-2,0.7c-0.9,0.4-1.8,0.8-2.6,1.1c-0.6,0.3-1.3,0.4-1.9,0.5
			C252.1,28.2,251.9,28.2,251.8,28.1L251.8,28.1z"/>
		<path d="M441.6,42.4c-0.3,0.2-0.5,0.3-0.8,0.4c-0.3,0.1-0.6,0.3-0.6,0.7c0,0-0.1,0.1-0.1,0.1c-0.1,0-0.1,0-0.1-0.1
			c-0.1-0.2-0.1-0.4,0.1-0.5c0.3-0.2,0.7-0.4,1-0.6c0.2-0.1,0.3-0.4,0.1-0.5c-0.6-0.7-1-1.6-1.5-2.3c-0.4-0.6-1-0.9-1.6-1
			c-0.9-0.1-1.9-0.1-2.8,0c-0.1,0-0.3,0-0.4,0.2c0,0.3,0.2,0.5,0.4,0.7c0.1,0.1,0.1,0.3,0.2,0.4c0,0.1-0.1,0.2-0.2,0.2
			c-0.2,0-0.4-0.1-0.6-0.3c-0.2-0.3-0.4-0.6-0.4-1c-0.8,0-1.5-0.3-2.3-0.5c-0.5-0.2-1-0.5-1.4-0.9c-0.7-0.7-1.3-1.5-1.5-2.5
			c-0.1-0.3-0.2-0.5-0.3-0.8c-0.8,0.6-0.9,1.4-0.7,2.2c0.1,0.4,0.3,0.8,0.5,1.2c0.7,1.3,1.5,2.4,2.7,3.3c0.4,0.3,0.9,0.5,1.1,1
			c-0.2,0.1-0.3,0-0.4,0c-0.8-0.4-1.5-0.9-2-1.6c-0.3-0.4-0.7-0.7-1-1c-0.7-0.6-1.2-1.3-1.5-2.2c-0.3-1.1-0.2-2.1,0.7-3
			c0.1-0.1,0.1-0.1,0.2-0.2c0.5-0.3,0.4-0.7,0.2-1.2c-0.1-0.2-0.2-0.4-0.4-0.6c-0.1-0.2-0.3-0.2-0.4,0c-0.3,0.8-0.8,1.4-1.4,1.9
			c-0.2,0.2-0.4,0.3-0.5,0.5c-0.1,0.3-0.4,0.5-0.7,0.6c-0.3,0.1-0.4,0.3-0.5,0.5c-0.5,0.9-0.8,1.8-0.8,2.8c0,0.2,0,0.5-0.1,0.7
			c-0.1-0.6-0.2-1.2-0.3-1.8c-0.1-0.8,0.2-1.6,0.6-2.3c0.4-0.6,0.9-1.2,1.5-1.7c0.2-0.2,0.4-0.3,0.5-0.5c0.9-0.9,0.7-2.2-0.5-2.7
			c-0.1-0.1-0.2-0.1-0.3-0.1c-0.5-0.2-0.5-0.2-0.7,0.3c-0.1,0.2-0.2,0.4-0.3,0.5c-0.6,0.7-1.1,1.5-1.7,2.2c0,0-0.1,0.1-0.2,0.1
			c-0.1-0.1-0.1-0.3,0-0.4c0.2-0.6,0.5-1,0.9-1.4c0.3-0.3,0.5-0.6,0.7-0.9c0.1-0.2,0.2-0.4,0.2-0.7c-0.5-0.1-1-0.1-1.5-0.2
			c-0.4-0.1-0.7-0.1-1.1-0.2c-0.3-0.1-0.5-0.2-0.7-0.4c0,0,0-0.1,0-0.2c0,0,0.1-0.1,0.1-0.1c0,0,0.1,0,0.1,0
			c0.9,0.1,1.8,0.3,2.6,0.4c0.6,0.1,1.2,0.2,1.9,0.3c0.6,0.1,1.2,0.3,1.7,0.7c0.7,0.6,1.4,1.2,1.8,1.9c0.3,0.5,0.5,1.1,0.7,1.7
			c0.1,0.4,0.2,0.9,0.4,1.3c0.2,0.6,0.4,1,0.8,1.5c0.5,0.5,1,0.9,1.7,1c0.9,0.2,1.8,0.2,2.7,0.2c0.7,0,1.3,0,2,0
			c0.4,0,0.7,0,1.1,0.1c1,0.2,1.7,0.8,2.2,1.7c0.6,1.1,1.2,2.3,2.1,3.2c0.1,0.1,0.2,0.3,0.2,0.4c0,0.1,0.1,0.2,0,0.2
			c0,0-0.1,0-0.2,0c-0.2-0.1-0.5-0.2-0.7-0.4C441.9,42.6,441.7,42.5,441.6,42.4z"/>
		<path d="M238.5,53.7c0.4-0.1,0.7-0.3,1.1-0.4c0.1,0,0.2,0,0.2,0.1c0.1,0.1,0.1,0.2,0,0.3c-0.1,0.1-0.3,0.2-0.4,0.3
			c-0.6,0.4-1.2,0.7-1.7,1.3c0.2,0.2,0.3,0,0.5,0c0.1,0,0.2-0.1,0.4-0.1c0.2,0,0.3,0,0.4,0.2c0.1,0.2-0.1,0.3-0.2,0.4
			c-0.5,0.3-1,0.5-1.4,0.7c-1,0.5-1.9,1.1-2.7,1.9c0,0-0.1,0.1-0.1,0.1c-0.3,0.2-0.6,0.3-0.7,0.1c-0.1-0.2-0.1-0.5,0.1-0.7
			c0.4-0.4,0.8-0.8,1.3-1.1c0.4-0.2,0.7-0.5,0.9-0.9c0.2-0.5,0.7-0.8,1.1-1.2c-0.3-0.3-0.5,0.1-0.7,0c-0.1,0-0.1-0.1,0-0.1
			c0.3-0.6,0.7-1,1.2-1.4c0.4-0.2,0.7-0.5,1.1-0.8c0.2-0.2,0.5-0.3,0.6-0.6c0.1-0.5,0.5-0.7,0.8-0.9c0.3-0.2,0.7-0.3,0.9-0.6
			c0.2-0.2,0.1-0.6,0.3-0.9c0.1-0.2,0.2-0.5,0.4-0.7c0.8-0.7,1.6-1.4,2.4-2.1c0.1-0.1,0.2-0.2,0.3-0.2c0.2-0.1,0.4,0,0.5,0.3
			c0,0.1,0,0.2,0.1,0.3c0.5,0,1-0.3,1.6-0.4c0.5-0.1,0.5-0.1,1.1,0.2c0,0.5-0.3,0.7-0.8,0.8c-0.2,0.1-0.5,0.1-0.7,0.2
			c-0.1,0-0.2,0.1-0.1,0.2c0.2,0.2,0,0.4-0.1,0.5c-0.2,0.2-0.4,0.3-0.7,0.4c-0.7,0.2-1.3,0.5-2,0.9c-0.1,0.1-0.3,0.1-0.4,0.2
			c-0.4,0.2-0.4,0.6,0,0.8c0,0,0.1,0,0.2,0.1c0.1,0.1,0.1,0.3,0,0.4c-0.1,0.1-0.3,0.1-0.4,0.1c-1.4,0.4-2.7,1-3.8,1.9
			C238.6,53.5,238.4,53.6,238.5,53.7c-0.2-0.1-0.3,0-0.5,0c0,0,0,0,0,0l0-0.1C238.2,53.9,238.3,53.9,238.5,53.7z M237.3,54.5
			C237.3,54.5,237.3,54.5,237.3,54.5C237.3,54.5,237.3,54.5,237.3,54.5C237.3,54.4,237.3,54.5,237.3,54.5z M242.1,50.9L242.1,50.9
			L242.1,50.9L242.1,50.9z"/>
		<path d="M288,108.8c1.5,0,2.9-0.4,4.2-1c0.3-0.1,0.6-0.3,0.9-0.4c0.2,0,0.3-0.1,0.4,0.1c0.1,0.1,0.3,0.1,0.4,0
			c0.9-0.3,1.9-0.6,2.7-1.2c0.4-0.2,0.8-0.4,1.2-0.4c0-0.2-0.1-0.3-0.2-0.4c-0.1-0.1-0.3-0.2-0.4-0.3c-0.1-0.1-0.2-0.2-0.2-0.3
			c0.1-0.2,0.2-0.1,0.4-0.1c0.2,0,0.4,0.1,0.6,0.2c1.3,0.7,2.7,0.8,4.2,0.5c0-0.2-0.2-0.2-0.3-0.3c-0.3-0.1-0.6-0.2-0.7-0.5
			c0,0,0-0.1,0-0.2c0,0,0.1-0.1,0.1-0.1c0.4-0.1,0.7,0.1,1,0.2c0.6,0.3,1.3,0.5,2,0.6c0.7,0.1,1.4,0,2-0.2c0,0,0.1-0.1,0.1-0.1
			c0,0,0-0.1-0.1-0.1c-0.4-0.1-0.9-0.2-1.3-0.4c-0.3-0.1-0.7-0.2-0.9-0.5c-0.1-0.1-0.1-0.1-0.1-0.2c0.1-0.1,0.1-0.1,0.2-0.1
			c0.2-0.1,0.4,0.1,0.6,0.1c0.8,0.3,1.7,0.5,2.5,0.7c0.2,0,0.4,0,0.5,0c0.1-0.2-0.1-0.3-0.2-0.3c-0.1-0.1-0.3-0.2-0.2-0.4
			c0.1-0.1,0.3-0.1,0.5-0.1c0.2,0.1,0.4,0.1,0.6,0.2c1,0.4,2.1,0.4,3.2,0.2c0,0,0,0,0.1-0.1c0-0.2-0.1-0.1-0.2-0.2
			c-0.6-0.1-1.2-0.2-1.7-0.5c-0.1-0.1-0.2-0.1-0.2-0.2c0-0.2,0.2-0.2,0.4-0.2c0.3,0,0.5,0.1,0.8,0.1c0.3,0.1,0.6,0.2,0.9,0.2
			c0.9,0.2,1.7,0.3,2.6,0.2c0.2,0,0.5,0,0.7,0c0.1,0,0.2,0.1,0.2,0.2c0,0.1-0.1,0.2-0.1,0.2c-0.3,0.2-0.6,0.1-0.9,0.1
			c-0.2,0-0.5,0.1-0.7,0.1c-0.2,0.4-0.6,0.5-0.9,0.6c-0.8,0.2-1.5,0.3-2.3,0.3c-0.4,0-0.8,0-1.2,0.1c-0.5,0.1-1,0.1-1.5,0.1
			c-0.3,0-0.5,0-0.5,0.4c0,0.1-0.1,0.2-0.3,0.2c-1.1,0.4-2.2,0.5-3.3,0.2c-0.1,0-0.3-0.1-0.4-0.1c-0.2-0.1-0.3,0-0.4,0.2
			c-0.1,0.2-0.3,0.2-0.4,0.3c-0.7,0.1-1.4,0.2-2.1,0.2c-0.8,0-1.5,0.2-2.3,0.2c-0.2,0-0.3,0.1-0.5,0.2c-1.2,0.7-2.5,1.2-3.8,1.4
			c-0.9,0.1-1.7,0.4-2.6,0.6c-0.7,0.2-1.5,0.3-2.2,0.4c-0.2,0-0.5,0-0.7,0c-0.2,0-0.2-0.2-0.2-0.3c0,0,0,0,0,0
			C287.9,109,288,108.9,288,108.8L288,108.8z"/>
		<path d="M304.8,92.6c0.3-0.7,0.6-1.3,0.9-2c0-0.1,0.2-0.3,0.4-0.2c0.3,0.1,0.4,0,0.5-0.2c0.3-1,0.6-2.1,0.5-3.2c0-0.1,0-0.2,0-0.3
			c0-0.1,0.1-0.2,0.2-0.2c0.1,0,0.2,0,0.3,0.1c0.2,0.1,0.1,0.5,0.4,0.6c0.2-0.1,0.1-0.3,0.2-0.4c0-0.1,0.1-0.2,0.1-0.3
			c0.1-0.1,0.2-0.2,0.4-0.2c0.1,0,0.2,0.1,0.2,0.3c0,0.7-0.1,1.3-0.3,1.9c-0.3,1.1-0.9,2.1-1.7,2.9c-0.1,0.1-0.3,0.3-0.5,0.2
			c-0.2-0.1-0.2,0.1-0.2,0.2c-0.2,0.6-0.6,1-0.9,1.6c-0.1,0.2-0.3,0.4-0.5,0.5c-0.1,0-0.3,0.1-0.3,0c-0.1-0.2-0.2-0.2-0.3,0
			c-0.3,0.5-0.6,0.9-0.9,1.4c-0.2,0.3-0.4,0.5-0.7,0.7c-0.2,0.2-0.4,0.4-0.8,0.3c-0.2-0.1-0.3,0-0.5,0.1c-0.2,0.1-0.4,0.1-0.6,0.1
			c-0.2-0.2,0-0.4,0.1-0.5c0.2-0.4,0.5-0.7,0.8-1c0.5-0.5,0.9-0.9,1.4-1.4c0.4-0.4,0.7-0.8,0.8-1.4c0-0.2,0.1-0.3,0.1-0.5
			c0.1-0.2,0.2-0.3,0.4-0.4c0.2-0.1,0.4,0,0.4,0.2c0,0.2,0.1,0.5,0,0.7C304.7,92.2,304.7,92.4,304.8,92.6
			C304.8,92.6,304.8,92.6,304.8,92.6L304.8,92.6z"/>
		<path d="M323.7,103.1c-0.1-0.1-0.2-0.1-0.3-0.2c-0.1-0.1-0.1-0.2-0.1-0.3c0-0.2,0.2-0.1,0.3-0.2c0.3-0.1,0.5,0.1,0.8,0.2
			c1,0.4,2,0.5,3.1,0.7c-0.2-0.3-0.4-0.3-0.6-0.4c-0.2-0.1-0.4-0.2-0.6-0.3c-0.2-0.1-0.5-0.3-0.5-0.6c0-0.2,0.3-0.2,0.8,0
			c0.3,0.1,0.6,0.2,0.8,0.4c1,0.5,2,0.8,3,1.1c0.4,0.1,0.8,0.1,1.2,0.2c0.1,0,0.2,0.1,0.1,0.2c0,0.1,0,0.1-0.1,0.1
			c-0.3,0.2-0.6,0.2-0.9,0.2c-0.5,0-1-0.2-1.5-0.3c-0.3-0.1-0.6-0.2-0.9,0c-0.1,0.1-0.3,0.1-0.5,0.1c-0.3,0-0.5,0-0.8-0.1
			c-0.6-0.1-1.1,0-1.7,0c-0.8,0.1-1.7,0-2.5-0.1c-0.2,0-0.5-0.1-0.7-0.1c-0.9-0.2-1.9,0-2.8-0.3c-0.1,0-0.3,0-0.4,0
			c-1.2,0.1-2.4,0.1-3.6-0.1c-0.1,0-0.2,0-0.3-0.1c-0.1,0-0.2-0.1-0.2-0.3c0-0.1,0.1-0.2,0.2-0.2c0.2,0,0.4,0,0.6,0
			c0.6,0.1,1.2,0.1,1.9,0.2c0.2,0,0.4,0,0.6,0c-0.1-0.3-0.5-0.3-0.6-0.5c0-0.1-0.1-0.2,0-0.2c0,0,0.1-0.1,0.1-0.1c0.1,0,0.1,0,0.2,0
			c0.7,0.2,1.5,0.1,2.3,0.4c0.2,0.1,0.4,0.2,0.6,0.2c0.2,0.1,0.5,0.1,0.7,0.1c0.3,0,0.5,0,0.8,0.1
			C322.7,103.1,323.2,103.2,323.7,103.1c0,0,0,0.1,0.1,0.1C323.8,103.1,323.8,103.1,323.7,103.1z"/>
		<path d="M232.9,62c0.4-0.2,0.9-0.3,1.3-0.5c0.5-0.1,0.8-0.1,0.8,0.1c0,0.4-0.3,0.4-0.5,0.5c-0.9,0.5-1.7,1-2.5,1.7
			c-0.1,0.1-0.1,0.2-0.2,0.3c0,0,0,0,0,0c-0.1,0-0.2,0.1-0.2,0.2l0,0c-0.3,0-0.5,0.1-0.6,0.4l0,0c-0.1,0-0.2,0-0.3,0
			c-0.2,0-0.3-0.1-0.2-0.2c0.1-0.2,0.2-0.4,0.3-0.6c0.1-0.2,0.2-0.3,0.3-0.4c-0.3-0.3-0.5,0.1-0.7,0.1c0-0.1,0-0.1,0-0.2
			c0.1-0.5,0.4-0.9,0.7-1.2c0.2-0.2,0.5-0.4,0.7-0.7c0.1-0.1,0.3-0.2,0.4-0.4c1.3-1.8,3.1-2.8,5.2-3.5c0.3-0.1,0.5-0.1,0.8-0.1
			c0.1,0,0.2,0.1,0.2,0.2c0,0.1,0,0.2-0.1,0.2c-0.4,0.2-0.7,0.4-1.1,0.6c-0.6,0.3-1.2,0.6-1.8,0.9c-0.2,0.1-0.3,0.1-0.4,0.4
			c0.2,0.1,0.4,0,0.7,0c0.1,0,0.2,0.1,0.2,0.2c0,0.1-0.1,0.2-0.2,0.3c-0.4,0.2-0.9,0.4-1.3,0.6c-0.4,0.2-0.8,0.4-1.3,0.7
			C233.1,61.7,232.9,61.7,232.9,62c-0.3,0-0.4,0.2-0.6,0.3c0.1,0,0,0,0,0c-0.1-0.1,0,0.1,0,0C232.5,62.3,232.7,62.2,232.9,62z"/>
		<path d="M362.9,106.9c-0.4-0.4-0.9-0.4-1.3-0.7c-0.1-0.1-0.3-0.1-0.5-0.2c-0.2-0.2-0.5-0.3-0.5-0.6c0.3-0.2,0.6-0.1,0.8,0
			c0.3,0.1,0.6,0.3,0.9,0.4c1.5,0.7,3,1.2,4.7,1.4c0.7,0.1,1.4,0.2,2.1,0.3c0,0,0,0,0,0c-0.1,0.3-0.3,0.5-0.6,0.5
			c-1.1-0.1-2.3-0.1-3.4-0.4c-0.4-0.1-0.8-0.1-1.2-0.1c-0.9,0-1.9,0-2.8-0.2c-0.4-0.1-0.9-0.2-1.3-0.4c-0.2-0.1-0.3-0.2-0.5-0.1
			c0-0.1,0.1,0,0-0.1c0,0-0.1,0-0.1,0c0,0.1,0,0.1,0.1,0.1c-0.3,0.3-0.6,0.3-1,0.3c-0.7,0-1.4-0.3-2.1-0.5c-1-0.3-1.9-0.8-2.8-1.3
			c-0.3-0.2-0.6-0.4-0.9-0.8c0.6,0.1,1.1,0.1,1.5,0.4c1.2,0.7,2.4,1.1,3.7,1.6c0.3,0.1,0.7,0.2,1.1,0.1c-0.2-0.3-0.5-0.3-0.7-0.5
			c-0.3-0.2-0.6-0.4-0.9-0.6c0,0,0-0.1,0-0.2c0,0,0.1-0.1,0.1-0.1c0.1,0,0.2,0,0.4,0c0.3,0.1,0.5,0.2,0.8,0.3c0.7,0.3,1.5,0.7,2.2,1
			C361.4,106.8,362.2,106.9,362.9,106.9C362.9,106.9,362.9,106.9,362.9,106.9C363,106.9,362.9,106.9,362.9,106.9z"/>
		<path d="M291.8,103.7c0.2-0.7,0.6-1.3,1.1-1.9c0.6-0.8,1.2-1.6,1.7-2.4c0.1-0.2,0.3-0.5,0.6-0.5c0.2,0,0.3-0.2,0.4-0.3
			c0.3-0.7,0.6-1.4,0.8-2.2c0-0.2,0.1-0.5,0.3-0.7c0.1-0.1,0.4-0.1,0.5,0c0.2,0.2,0.2,0.5,0.2,0.8c0,0.4-0.1,0.8-0.2,1.1
			c-0.1,0.3-0.2,0.7-0.2,1c0,0.3-0.1,0.6-0.3,0.9c-0.5,0.8-1.1,1.4-1.8,2c-0.5,0.4-1,0.8-1.4,1.3c-0.3,0.4-0.7,0.7-1.2,0.9
			C292,103.8,291.9,103.8,291.8,103.7z"/>
		<path d="M390.9,71.6c-0.1,0.1-0.2,0.2-0.3,0.2c-0.3,0.1-0.4-0.1-0.4-0.3c0-0.3,0.1-0.5,0.2-0.8c0.1-0.2,0.2-0.5-0.3-0.6
			c-0.1,0-0.2-0.2-0.2-0.4c0-0.5-0.1-1.1,0.2-1.6c0.1-0.2,0.1-0.4,0-0.7c-0.1-0.3-0.1-0.3-0.4-0.1c-0.2,0.1-0.3,0.1-0.4-0.1
			c-0.1-0.2-0.2-0.4-0.2-0.6c0-0.5,0.1-1,0.2-1.5c0-0.1,0-0.2,0.2-0.2c0.1,0,0.3,0,0.3,0.2c0.1,0.5,0.4,0.9,0.6,1.3
			c0.1,0.2,0.2,0.2,0.4,0c0,0,0.1-0.1,0.1-0.2c0.1-0.1,0.2-0.2,0.3-0.1c0.2,0.1,0.2,0.2,0.2,0.4c0,0.2-0.1,0.5-0.2,0.7
			c-0.1,0.3-0.2,0.5-0.2,0.9c0,0.2-0.1,0.3-0.2,0.4c0,0.2,0,0.4-0.2,0.5c0.1,0,0.1,0,0,0c-0.1,0,0,0.1,0,0c0.2-0.1,0.2-0.3,0.1-0.5
			c0.1,0.1,0.2,0.1,0.3,0c0.2-0.2,0.4-0.5,0.7-0.7c0.4-0.4,0.8-0.7,1.3-0.8c0.1,0.2-0.1,0.3-0.2,0.4c-0.3,0.4-0.7,0.8-1.1,1.2
			c-0.1,0.1-0.2,0.3-0.2,0.5c-0.1,0-0.2,0.1-0.3,0.1c0,0.1,0,0.1,0,0c0,0,0,0,0,0c0.1,0,0.2,0,0.3-0.1c0.3,0,0.4-0.2,0.6-0.3
			c0.1-0.1,0.3-0.1,0.4-0.2c0.1,0,0.2-0.1,0.3-0.1c0,0.3-0.1,0.6-0.3,0.7c-0.5,0.4-0.6,0.9-0.5,1.5c0,0,0,0,0,0
			c-0.1,0.1-0.1,0.1-0.2,0.2l0,0c-0.1,0.1-0.1,0.1-0.2,0.2l0,0c-0.2,0.1-0.3,0.2-0.4,0.4l0,0c-0.1,0.1-0.1,0.1-0.2,0.2l0,0
			C391.1,71.5,391,71.6,390.9,71.6L390.9,71.6z"/>
		<path d="M258,129.5c-0.9,0.1-1.7-0.3-2.5-0.6c-0.7-0.3-1.3-0.5-2-0.7c-0.3-0.1-0.6-0.2-0.6-0.6c0-0.2,0.4-0.5,0.8-0.5
			c0.4,0,0.7,0.1,1,0.2c0.6,0.2,1.2,0.4,1.7,0.7c0.9,0.4,1.8,0.3,2.7,0.3c0.2,0,0.4-0.1,0.5-0.3c0.2-0.2,0.4-0.3,0.6-0.3
			c0.6-0.1,1.2-0.1,1.8-0.1c0.2,0,0.3,0.1,0.4,0.3c0.1,0.2-0.1,0.3-0.2,0.4c-0.2,0.1-0.3,0.2-0.5,0.2c-0.6,0.1-1.1,0.4-1.7,0.5
			C259.4,129.4,258.8,129.5,258,129.5z"/>
		<path d="M348.2,105.1c-0.3-0.2-0.6-0.4-0.9-0.5c-0.2-0.1-0.3-0.2-0.4-0.4c0-0.1,0-0.2,0-0.2c0,0,0.1,0,0.2,0
			c0.3,0,0.6,0.2,0.8,0.3c0.6,0.3,1.2,0.6,1.9,0.9c1.1,0.5,2.3,0.8,3.4,1c0.4,0.1,0.8,0.1,1.2,0.2c0.2,0,0.4,0.1,0.6,0.1
			c0.1,0,0.2,0.1,0.2,0.2c0,0.1-0.1,0.1-0.2,0.1c-0.3,0-0.6,0-0.9,0c-0.9-0.1-1.7-0.3-2.6-0.4c-0.5-0.1-1-0.4-1.5-0.5
			c-0.5-0.1-1.1,0-1.6-0.1c-1.7-0.2-3.3-0.9-4.9-1.7c-0.2-0.1-0.4-0.2-0.6-0.3c-0.2-0.1-0.3-0.2-0.4-0.3c-0.1-0.1-0.2-0.2-0.3-0.4
			c0.5-0.1,0.9,0,1.2,0.2c0.9,0.5,1.8,0.9,2.8,1.3C346.7,104.8,347.4,105.2,348.2,105.1C348.2,105.1,348.2,105.1,348.2,105.1z"/>
		<path d="M330.3,102.4c0.3-0.1,0.5-0.1,0.8,0c0.3,0.1,0.7,0.2,1,0.4c1.1,0.4,2.3,0.8,3.5,1.1c0.1-0.2-0.1-0.2-0.2-0.3
			c-0.6-0.3-1.1-0.7-1.7-1c-0.3-0.2-0.6-0.4-0.8-0.9c0.4,0,0.8,0.2,1.2,0.4c0.4,0.3,0.9,0.5,1.3,0.8c1.2,0.7,2.5,1.2,3.8,1.5
			c0.2,0,0.3,0.1,0.5,0.1c0.1,0,0.1,0.1,0.1,0.2c0,0.1-0.1,0.2-0.2,0.2c-0.4,0-0.7,0-1.1-0.1c-0.5-0.1-1-0.3-1.6-0.4
			c-0.2-0.1-0.5-0.2-0.7,0.1c-0.2,0.2-0.5,0.1-0.8,0c-1.5-0.3-3-0.7-4.5-1.3C330.8,103,330.5,102.9,330.3,102.4z"/>
		<path d="M434.1,42.9c0.5-0.2,1.1-0.4,1.6-0.6c0.3-0.1,0.7-0.2,1.1,0.1c-0.1,0.1-0.2,0.1-0.3,0.2c-0.2,0.1-0.5,0.3-0.7,0.3
			c-1.3,0.4-2.4,1.2-3.1,2.4c0,0,0,0-0.1,0.1c-0.2,0.2-0.4,0.3-0.5,0.2c-0.2-0.2-0.1-0.3,0-0.5c0.3-0.4,0.5-0.9,0.6-1.4
			c0.3-0.8,0.9-1.3,1.6-1.7c1.7-1,3.5-1.4,5.4-1.2c0,0,0,0,0.1,0.1c-0.2,0.2-0.5,0.1-0.8,0.2c-0.2,0.1-0.5,0.1-0.7,0.2
			c-1,0.2-1.9,0.6-2.9,0.8c-0.5,0.1-0.9,0.4-1.3,0.7C434.1,42.8,434.1,42.9,434.1,42.9c-0.1,0-0.2,0.1-0.2,0.2c-0.1,0-0.1,0,0,0
			c0.1,0.1,0-0.1,0,0C433.9,43.1,434,43,434.1,42.9z"/>
		<path d="M297.1,98.9c0-0.3,0.1-0.6,0.2-0.8c0.8-1.3,1.5-2.7,2.3-4c0.1-0.2,0.2-0.4,0.3-0.6c0.1-0.2,0.3-0.2,0.5-0.2
			c0.2,0.1,0.4,0.3,0.3,0.5c0,0.2-0.1,0.5-0.2,0.7c-0.5,1.1-1.1,2.2-1.7,3.2c-0.2,0.3-0.4,0.6-0.6,0.9c-0.2,0.3-0.4,0.4-0.7,0.6
			C297.2,99.4,297.1,99.3,297.1,98.9z"/>
		<path d="M441.7,36.9c0,0-0.1,0.1-0.1,0.1c-0.1,0-0.2,0-0.3,0c-0.2-0.1-0.5-0.2-0.7-0.3c-1.1-0.6-2.3-0.8-3.5-0.9
			c-1-0.1-2.1-0.2-3.1-0.5c-0.8-0.2-1.5-0.6-2.2-1c-0.2-0.1-0.5-0.3-0.6-0.5c0,0,0-0.1,0-0.2c0-0.1,0.1-0.1,0.1-0.1
			c0.3,0.2,0.6,0.3,0.9,0.5c0.7,0.4,1.3,0.7,2.1,0.8c0.5,0.1,1,0.2,1.5,0.2c1,0,2,0,3,0.2c0.9,0.1,1.7,0.5,2.5,1
			C441.5,36.5,441.6,36.7,441.7,36.9z"/>
		<path d="M200.9,108c-0.7-1.4-0.5-2.7-0.2-4c0.2-1.1,0.6-2.1,1-3c0.2-0.6,0.5-1.2,0.5-1.8c0-0.1,0.1-0.2,0.1-0.3
			c0.1-0.1,0.3-0.1,0.4,0c0.2,0.2,0.2,0.4,0.1,0.6c-0.1,0.6-0.3,1.2-0.5,1.7c-0.3,0.9-0.7,1.7-0.9,2.6c-0.2,0.9-0.4,1.9-0.4,2.8
			C201,107,201,107.4,200.9,108z"/>
		<path d="M287.6,105.2c0.2-0.6,0.5-1,0.9-1.4c0.7-0.6,1.2-1.4,1.8-2.1c0.1-0.1,0.2-0.3,0.3-0.3c0.3-0.1,0.5-0.1,0.8,0
			c0.1,0,0.3,0.3,0.2,0.4c0,0.2-0.1,0.3-0.2,0.5c-0.3,0.4-0.6,0.8-1,1.1c-0.4,0.4-0.8,0.8-1.2,1.2
			C288.8,105,288.6,105.1,287.6,105.2z"/>
		<path d="M515.6,44.6c-0.8-0.1-1.6-0.2-2.4-0.4c-0.9-0.3-1.8-0.5-2.7-0.7c-1.5-0.3-2.9-0.8-4.4-1.3c-0.1,0-0.2-0.1-0.2-0.2
			c0.1-0.1,0.2-0.1,0.3-0.1c0,0,0.1,0,0.1,0c1.2,0.3,2.4,0.6,3.7,0.8c1,0.2,1.9,0.5,2.9,0.7c0.5,0.1,1,0.3,1.5,0.6
			C514.8,44.2,515.2,44.4,515.6,44.6z"/>
		<path d="M540.5,53.8c-0.7,0-1.2-0.3-1.7-0.5c-2.6-1.2-5.4-1.9-8.2-2.5c-0.1,0-0.2,0-0.4-0.1c-0.3-0.1-0.4-0.2-0.3-0.3
			c0.1-0.1,0.3-0.1,0.4-0.1c1.2,0.1,2.3,0.4,3.5,0.7c1.7,0.4,3.3,1,4.8,1.6c0.2,0.1,0.5,0.2,0.7,0.3
			C539.8,53.2,540.1,53.4,540.5,53.8z"/>
		<path d="M465.9,49.8c0.4-0.1,0.8-0.1,1.2-0.1c1.6,0,3.1-0.1,4.6-0.5c1.3-0.3,2.5-0.8,3.7-1.5c0.5-0.3,0.8-0.7,1.2-1.1
			c0.1-0.1,0.1-0.1,0.2-0.2c0.1-0.1,0.1-0.1,0.2-0.1c0.1,0.1,0.1,0.2,0,0.2c-0.5,0.6-1,1.1-1.7,1.6c-1.1,0.6-2.2,1.1-3.4,1.4
			c-1.7,0.5-3.5,0.6-5.3,0.5C466.4,50.1,466.4,50.1,465.9,49.8z"/>
		<path d="M249.4,45c0,0.1-0.1,0.1-0.1,0.2c-0.2,0.2-0.4,0.4-0.7,0.4c-0.3,0.1-0.6,0.1-0.9,0.2c-0.7,0-1.3,0.2-1.9,0.4
			c-0.1,0-0.3,0.1-0.4,0.1c-0.3,0-0.4-0.4-0.3-0.6c0.2-0.3,0.4-0.4,0.7-0.5c0.9-0.3,1.8-0.4,2.7-0.5c0.3,0,0.5,0.1,0.7,0.3
			C249.4,44.9,249.4,45,249.4,45z"/>
		<path d="M484.2,43c-0.1-0.2,0-0.3,0-0.4c0.2-0.3,0.3-0.6,0.4-0.9c0.2-0.6,0.1-1.2-0.2-1.7c-0.3-0.5-0.7-1-1.1-1.4
			c-0.6-0.6-1.2-1.1-1.7-1.7c0.2-0.2,0.4,0,0.5,0.1c1.1,0.6,2,1.3,2.7,2.3c0.5,0.7,0.6,1.4,0.5,2.2C485,42.2,484.7,42.7,484.2,43z"
			/>
		<path d="M286.1,104.9c-0.2,0-0.3,0-0.4-0.2c-0.1-0.2,0-0.4,0.1-0.5c0.1-0.1,0.2-0.3,0.4-0.4c0.7-0.5,1.4-1,2.1-1.6
			c0.1-0.1,0.2-0.1,0.3-0.2c0.1-0.1,0.3-0.1,0.4,0c0.1,0.1,0.1,0.3,0.1,0.4c-0.1,0.2-0.3,0.5-0.5,0.7c-0.6,0.6-1.3,1.1-1.9,1.6
			C286.5,104.9,286.3,104.9,286.1,104.9z"/>
		<path d="M337.9,102.9c0.4-0.1,0.7,0,1,0.2c0.6,0.3,1.3,0.6,1.9,0.9c0.7,0.4,1.4,0.5,2.1,0.6c0.5,0.1,0.9,0.2,1.4,0.2
			c0.1,0,0.1,0.1,0.1,0.2c0,0-0.1,0.1-0.1,0.1c0,0-0.1,0.1-0.2,0.1c-1.3-0.1-2.5-0.2-3.7-0.7c-0.6-0.3-1.3-0.5-1.9-0.9
			C338.3,103.4,338,103.2,337.9,102.9z"/>
		<path d="M472.3,39.2c-0.7,0-1.3-0.1-2,0c-1.3,0-2.7,0.2-4,0.6c-1.4,0.4-2.6,1.2-3.6,2.3c0,0-0.1,0.1-0.1,0.1
			c-0.1,0.1-0.1,0.1-0.2,0.1c-0.1-0.1,0-0.2,0-0.3c0.2-0.3,0.4-0.5,0.6-0.7c0.8-0.7,1.7-1.3,2.8-1.6c1.6-0.5,3.3-0.7,5-0.7
			c0.5,0,0.9,0.1,1.3,0.2C472.2,39.1,472.3,39.1,472.3,39.2L472.3,39.2z"/>
		<path d="M428,43.4c-0.7-0.5-1.3-1.1-1.8-1.7c-0.3-0.4-0.6-0.8-0.6-1.4c-0.1-0.5-0.2-1-0.3-1.5c-0.1-0.2-0.1-0.5-0.1-0.7
			c0-0.2,0.1-0.4,0.2-0.4c0.2,0.1,0.2,0.2,0.2,0.4c0.1,0.3,0.1,0.6,0.2,1c0.2,1.1,0.7,2,1.4,2.9c0.3,0.4,0.6,0.7,0.8,1
			C428.1,43.1,428.1,43.2,428,43.4L428,43.4z"/>
		<path d="M217.9,128.6c0.1,0,0.2,0.1,0.3,0.1c0.3,0.1,0.6,0.3,0.9,0.5c0.3,0.2,0.6,0.4,1,0.5c0.3,0.1,0.7,0.2,0.9,0.5
			c0.1,0.2,0,0.4-0.2,0.5c-0.2,0.1-0.5,0-0.7-0.1c-0.6-0.3-1.3-0.6-2-0.8c-0.3-0.1-0.5-0.3-0.6-0.5c-0.1-0.1-0.2-0.3-0.1-0.4
			C217.5,128.7,217.6,128.6,217.9,128.6z"/>
		<path d="M210.7,89.4c0.2-1.7,1.1-3,2-4.3c0.1-0.1,0.2-0.2,0.3-0.2c0.1,0,0.2,0,0.2,0c0.1,0,0.1,0.2,0.1,0.2c0,0.1,0,0.2-0.1,0.3
			C212.4,86.7,211.7,88.1,210.7,89.4z"/>
		<path d="M212.9,131.6c0.2,0,0.3,0,0.3,0.1c0.4,0.6,0.8,1.1,1.3,1.6c0.2,0.3,0.5,0.5,0.7,0.8c0.1,0.2,0.3,0.4,0.2,0.6
			c0,0.2-0.4,0.1-0.7-0.2c-0.8-0.6-1.4-1.4-1.9-2.2c-0.1-0.2-0.1-0.4-0.1-0.6C212.8,131.7,212.9,131.6,212.9,131.6z"/>
		<path d="M509.4,52.8c0.9,0.1,1.7,0.3,2.5,0.5c1.1,0.4,2.1,0.8,3.3,0.9c0.1,0,0.2,0.1,0.2,0.1c0.1,0.1,0,0.2,0,0.2
			c-0.1,0.1-0.3,0.1-0.5,0.1c-0.6-0.1-1.1-0.2-1.7-0.4c-1.1-0.4-2.3-0.9-3.4-1.3C509.7,53,509.6,52.9,509.4,52.8z"/>
		<path d="M476.2,48.9c0.1-0.1,0.3-0.2,0.4-0.3c0.7-0.6,1.3-1.2,1.8-2c0.1-0.1,0.2-0.2,0.3-0.3c0,0,0.1,0,0.2,0c0,0,0.1,0.1,0.1,0.1
			C478.6,47.3,477.3,48.5,476.2,48.9z"/>
		<path d="M443,44.3c0,0.1,0,0.1,0,0.1c-0.1,0.1-0.1,0.1-0.2,0.1c-0.8,0.2-1.6,0.5-2.3,0.9c-0.1,0-0.2,0-0.3,0.1c0,0-0.1,0-0.1,0
			c0,0,0-0.1,0-0.1c0-0.1,0.1-0.1,0.1-0.1c0.8-0.5,1.7-0.8,2.6-0.9C442.8,44.2,442.9,44.2,443,44.3z"/>
		<path d="M467.9,53.2c-0.2,0-0.4,0.1-0.6,0.3c-0.3,0.2-0.7,0.5-1,0.7c-0.1,0.1-0.3,0.2-0.4,0.1c0,0,0,0,0-0.1c0,0,0-0.1,0-0.1
			c0.1-0.1,0.3-0.2,0.4-0.3c0.6-0.5,1.2-0.9,1.9-1.4c0,0.2,0,0.3,0.1,0.5l0,0c-0.1,0-0.2,0.1-0.2,0.2l0,0
			C468,53,467.9,53.1,467.9,53.2L467.9,53.2z"/>
		<path d="M440.2,44.3c0.1-0.1,0.2-0.2,0.3-0.2c0.7-0.3,1.5-0.5,2.3-0.5c0,0,0.1,0,0.1,0.1c0,0,0,0.1,0,0.1
			C442.1,44,441.3,44.3,440.2,44.3z"/>
		<path d="M430.8,42.7c-0.9,0.2-1.4-0.2-1.9-0.7c-0.1-0.1-0.1-0.2,0-0.2c0.1,0,0.2-0.1,0.2-0.1C429.7,42,430.3,42.2,430.8,42.7z"/>
		<path d="M468.2,52.8c0.3-0.3,0.7-0.7,1-1c0,0,0.1-0.1,0.2,0c0.1,0,0.1,0.2,0.1,0.2c-0.2,0.3-0.4,0.6-0.7,0.8
			c-0.3,0.4-0.7,0.7-1.2,1c0-0.3,0-0.3,0.3-0.6c0,0,0,0,0,0c0.1-0.1,0.1-0.1,0.2-0.2l0,0C468.1,52.9,468.1,52.9,468.2,52.8
			L468.2,52.8z"/>
		<path d="M219.1,80.1c0,0,0.2,0,0.3,0c0.1,0,0.1,0.1,0.2,0.2c0,0,0,0.1-0.1,0.2c-0.3,0.3-0.7,0.4-1.2,0.4c-0.2,0-0.3-0.1-0.3-0.3
			c0-0.1,0.1-0.2,0.2-0.3C218.4,80.1,218.7,80.1,219.1,80.1z"/>
		<path d="M463.8,54.4c0.4-0.4,0.9-0.6,1.4-1c0.2-0.2,0.5-0.3,0.7-0.4c0,0,0,0,0.1,0.1c0,0,0,0.1,0,0.1c0,0,0,0.1,0,0.1
			c-0.6,0.5-1.2,1-2,1.2C464,54.5,463.9,54.4,463.8,54.4z"/>
		<path d="M439.1,30.5c0.2-0.3,0.4-0.3,0.6-0.3c0.4,0,0.7-0.1,1.1-0.1c0.2,0,0.5-0.2,0.6,0.1c0,0.2-0.3,0.2-0.5,0.2
			c-0.2,0.1-0.3,0.1-0.5,0.1C439.9,30.5,439.6,30.5,439.1,30.5z"/>
		<path d="M431.8,38.3c0.1,0,0.1,0,0.2,0c0.3,0.4,0.6,0.9,0.9,1.3c0,0,0,0.1,0,0.1c0,0,0,0-0.1,0c-0.5,0-1.2-0.7-1.1-1.4
			C431.7,38.4,431.8,38.3,431.8,38.3z"/>
		<path d="M423.5,84.6c-0.1-0.1-0.1-0.2-0.1-0.3c0.2-0.7,0.5-1.4,0.9-2.1C424.3,83.2,424,84.1,423.5,84.6
			C423.5,84.6,423.5,84.6,423.5,84.6z"/>
		<path d="M444.9,32.5c0,0,0,0.1,0,0.1c-0.3,0.2-0.7,0.4-1,0.6c-0.1,0-0.2,0-0.2-0.1c0.1-0.2,0-0.4-0.2-0.4c0,0,0-0.1,0-0.1
			c0,0,0.1-0.1,0.2-0.1C444,32.2,444.5,32.5,444.9,32.5C444.9,32.4,444.9,32.5,444.9,32.5z"/>
		<path d="M461.6,54c0.5-0.4,1-0.5,1.5-0.7c0.2-0.1,0.4-0.3,0.5,0c0.1,0.2-0.2,0.3-0.4,0.4C462.7,53.8,462.3,54.1,461.6,54z"/>
		<path d="M442.4,31.9c0,0-0.1-0.1-0.1-0.1c0-0.1,0-0.1,0.1-0.1c0.6-0.2,1.2-0.3,1.8-0.4c0,0,0.1,0,0.2,0.1c0,0.1-0.1,0.2-0.1,0.2
			C443.6,31.8,443,31.9,442.4,31.9z"/>
		<path d="M249,43.8c0,0-0.1,0-0.2-0.1c-0.1-0.1-0.1-0.2-0.1-0.3c0-0.1,0.1-0.2,0.2-0.2c0.3-0.1,0.6-0.1,0.8,0.1c0,0,0,0.1,0,0.2
			c-0.1,0.3-0.4,0.3-0.6,0.4C249.1,43.8,249.1,43.8,249,43.8z"/>
		<path d="M442.9,30.8c0.3,0.1,0.5,0,0.8-0.1c0.2-0.1,0.5-0.1,0.7,0c0,0.2-0.2,0.2-0.3,0.3c-0.3,0.1-0.6,0.2-1,0.2
			c-0.1,0-0.4,0.2-0.4-0.1C442.7,31.1,442.9,30.9,442.9,30.8L442.9,30.8z"/>
		<path d="M442.9,30.8c-0.3,0.1-0.6,0.1-0.9,0.2c-0.2,0-0.3,0.1-0.6-0.1c0.4-0.3,0.8-0.4,1.2-0.4C442.8,30.6,442.9,30.8,442.9,30.8
			C442.9,30.8,442.9,30.8,442.9,30.8z"/>
		<path d="M441.9,45.7c0,0,0,0.1-0.1,0.1c-0.2,0.1-0.4,0.3-0.7,0.4c-0.1,0.1-0.2,0.1-0.3,0c-0.1-0.2,0.1-0.2,0.2-0.3
			c0.2-0.2,0.5-0.3,0.8-0.4C441.8,45.5,441.9,45.5,441.9,45.7C441.9,45.6,441.9,45.6,441.9,45.7z"/>
		<path d="M545.1,65.9c0.6-0.1,1.1,0.2,1.7,0.4c0.2,0,0.4,0.1,0.5,0.3l0,0C546.5,66.5,545.8,66.3,545.1,65.9
			C545.1,65.9,545.1,65.9,545.1,65.9z"/>
		<path d="M444.7,33.9c0-0.1-0.1-0.2,0-0.3c0.2-0.3,0.5-0.5,0.8-0.7c0,0,0.1,0,0.1,0c0,0,0,0.1,0,0.2
			C445.4,33.4,445.1,33.7,444.7,33.9z"/>
		<path d="M219.9,82.3c0,0,0.1,0.1,0.2,0.1c0,0.1,0,0.2-0.1,0.3c-0.2,0.1-0.4,0.2-0.6,0.1c-0.1,0-0.2-0.1-0.2-0.2
			c0-0.1,0-0.2,0.1-0.2C219.5,82.2,219.7,82.2,219.9,82.3z"/>
		<path d="M441,47.6c0,0-0.1-0.1-0.1-0.1c0.1-0.3,0.3-0.6,0.6-0.7c0,0,0.1,0,0.2,0c0,0,0.1,0.1,0,0.2
			C441.6,47.2,441.4,47.5,441,47.6C441.1,47.6,441,47.6,441,47.6z"/>
		<path d="M547.2,66.7c0.1,0,0.2-0.1,0.3,0c0.5,0.1,1,0.3,1.4,0.6l0,0C548.3,67.1,547.7,66.9,547.2,66.7
			C547.2,66.6,547.2,66.7,547.2,66.7z"/>
		<path d="M445,34.6c-0.2,0,0,0-0.1-0.1c0,0,0-0.1,0-0.1c0.2-0.3,0.5-0.4,0.8-0.4c0,0,0,0,0,0.1c0,0,0,0.1,0,0.1
			C445.6,34.4,445.3,34.5,445,34.6z"/>
		<path d="M424.5,40.8C424.5,40.8,424.5,40.9,424.5,40.8c-0.1,0.1-0.1,0.1-0.1,0.1c-0.2-0.1-0.2-0.2-0.3-0.4c0,0,0-0.1,0-0.1
			c0,0,0.1,0,0.1,0C424.4,40.5,424.5,40.6,424.5,40.8z"/>
		<path d="M458.7,54.2c0,0-0.1,0-0.1-0.1c0,0,0-0.1,0.1-0.1c0,0,0.1-0.1,0.1-0.1c0.1,0,0.3,0,0.3,0.1c0,0.1-0.1,0.2-0.2,0.2
			C458.8,54.2,458.8,54.2,458.7,54.2z"/>
		<path d="M548.8,67.2c0.3-0.1,0.6,0,0.8,0.2c-0.1,0-0.1,0.1-0.2,0.1C549.3,67.4,549,67.4,548.8,67.2
			C548.8,67.2,548.8,67.2,548.8,67.2z"/>
		<path d="M445.6,34.8c-0.1,0.1-0.2,0.2-0.3,0.1c0,0-0.1-0.1,0-0.1c0.1-0.1,0.2-0.1,0.3-0.1C445.6,34.7,445.6,34.8,445.6,34.8z"/>
		<path d="M543.1,70.8c0.1,0,0.2,0,0.2,0c0,0,0,0.1,0.1,0.1c0,0-0.1,0-0.1,0C543.2,70.9,543.1,70.9,543.1,70.8
			C543.1,70.8,543.1,70.8,543.1,70.8z"/>
		<path d="M423.2,84.7c0.1,0,0.2,0,0.4,0c0,0,0,0,0,0C423.4,84.6,423.3,84.6,423.2,84.7C423.2,84.7,423.2,84.7,423.2,84.7z"/>
		<path d="M251.8,28.1C251.8,28.1,251.8,28.1,251.8,28.1C251.8,28.1,251.8,28.1,251.8,28.1C251.8,28.1,251.8,28.1,251.8,28.1z"/>
		<path d="M472.3,39.2c0,0,0.1,0,0.1,0C472.4,39.2,472.4,39.2,472.3,39.2C472.2,39.2,472.4,39.2,472.3,39.2
			C472.3,39.2,472.3,39.2,472.3,39.2z"/>
		<polygon points="428,43.3 428.1,43.3 428,43.4 		"/>
		<path d="M539.7,75.6c0.1,0,0.2,0.1,0.2,0.2l0,0C539.7,75.8,539.7,75.7,539.7,75.6C539.7,75.6,539.7,75.6,539.7,75.6z"/>
		<path d="M539.9,75.8c0.1,0,0.2,0.1,0.2,0.2l0,0C539.9,76,539.9,75.9,539.9,75.8C539.9,75.8,539.9,75.8,539.9,75.8z"/>
		<path d="M540.1,75.9c0.1,0,0.2,0.1,0.2,0.2l0,0C540.1,76.1,540,76.1,540.1,75.9C540.1,75.9,540.1,75.9,540.1,75.9z"/>
		<path d="M540.2,76.2c0.1,0,0.2,0,0.1,0.1C540.2,76.3,540.2,76.2,540.2,76.2C540.2,76.1,540.2,76.2,540.2,76.2z"/>
		<path d="M454.6,75c0.1,0,0.1,0,0.1,0C454.7,74.9,454.7,74.9,454.6,75C454.6,74.9,454.6,74.9,454.6,75C454.6,75,454.6,75,454.6,75z
			"/>
	</g>
</g>
<g id="Layer_3">
</g>
</svg>
