<?xml version="1.0" encoding="utf-8"?>
<!-- Generator: Adobe Illustrator 25.0.1, SVG Export Plug-In . SVG Version: 6.00 Build 0)  -->
<svg version="1.1" xmlns="http://www.w3.org/2000/svg" xmlns:xlink="http://www.w3.org/1999/xlink" x="0px" y="0px"
	 viewBox="0 0 566.9 133.3" style="enable-background:new 0 0 566.9 133.3;" xml:space="preserve">
<g id="Layer_1">
</g>
<g id="Layer_13">
</g>
<g id="Layer_12">
</g>
<g id="Layer_11">
</g>
<g id="Layer_10">
</g>
<g id="Layer_9">
</g>
<g id="Layer_8">
</g>
<g id="Layer_7">
</g>
<g id="Layer_6">
</g>
<g id="Layer_5">
</g>
<g id="Layer_4">
	<g>
		<path d="M89.7,13.1c0.6-0.6,1.4-0.9,2.3-1.1c1.4-0.3,2.9-0.5,4.4-0.5c3.2-0.1,6.4-0.4,9.5-0.5c2.4-0.1,4.8-0.7,7.2-0.5
			c1.1,0.1,2.3,0,3.3,0.8c0.3,0.2,0.6,0.1,1-0.1c1.2-0.7,2.4-1.2,3.6-1.6c0.4-0.1,0.9-0.3,1.2-0.1c0.8,0.5,1.7,0.3,2.6,0.4
			c2.5,0.1,5,0.2,7.5,0.3c2.2,0.1,4,1,5.5,2.6c0.3,0.3,0.4,0.6,1,0.4c1.8-0.7,3.4-0.1,5.1,0.5c2.7,1,5.2,2.4,8,3.1
			c2.1,0.5,4,1.6,5.9,2.7c0.5,0.3,0.8,0.9,1.1,1.4c0.2,0.4,0.4,0.7,1.1,0.6c0.6-0.1,1.3,0,1.9,0.3c0.2,0.1,0.5,0.3,0.8,0.1
			c0.3-0.2,0.6,0,0.9,0.1c2.4,0.9,4.7,1.8,7.2,2.5c1.6,0.5,3.3,0.7,5,0.8c1.2,0.1,2.4,0,3.6,0c0.4,0,0.8,0,1.2-0.1
			c2-0.6,4.1-0.6,6.1,0.1c0.4,0.2,0.8,0.1,1.1-0.2c1.7-1.4,3.8-1.7,5.7-2.7c0.2-0.1,0.6-0.2,0.8-0.1c0.9,0.3,1.6,0,2.4-0.2
			c2.6-0.8,5.1-1.6,7.8-1.9c0.9-0.1,1.7,0.1,2.4,0.4c0.5,0.2,0.8,0.3,1.2-0.1c0.8-0.7,1.8-0.8,2.8-0.7c1.5,0.1,2.9,0.4,4.4,0.5
			c1,0.1,2,0.4,3,0.7c3.5,1,7,1.6,10.4,2.8c0.5,0.2,1.1,0.2,1.6,0.2c1.5-0.1,2.9,0.3,4.4,0.6c0.9,0.2,1.7,0.5,2.4,1.3
			c0.5,0.6,1.2,1.2,1.7,1.8c0.6-0.3,1.2-0.6,1.8-0.8c1.5-0.6,2.9-0.6,4.4,0.2c0.3,0.2,0.8,0.3,1.2,0.4c4.3,0.7,8.5,1.5,12.8,2
			c3.5,0.4,7.1,0.7,10.4,2c0.3,0.1,0.6,0.1,0.8-0.2c0.4-0.5,0.9-0.9,1.5-1.3c0.7-0.4,1.4-0.7,2.2-0.1c0.4,0.3,1,0.2,1.5,0.2
			c2-0.1,4.1-0.2,6.1-0.4c2.4-0.2,4.8-0.4,7.2-0.7c3.6-0.5,7.2-0.8,10.8-1.5c0.3-0.1,0.5-0.1,0.8-0.2c1.4-0.6,2.8-0.5,4,0.5
			c0.5,0.4,0.8,0.4,1.3,0c1.1-0.9,2.4-1.2,3.9-1c0.6,0.1,1,0.6,1.6,0.6c6.7,0.7,13.2,2.4,19.6,4.1c1.7,0.5,3.5,1,5.2,1.6
			c2.4,0.8,4.9,1.6,7.4,2.3c3.1,0.8,6.1,1.7,9.2,2.4c1.3,0.3,2.6,0.3,3.9,0.7c0.2,0,0.4,0.1,0.5,0c1.2-1,2.4-0.3,3.6,0
			c0.4,0.1,0.8,0.2,1.1,0.5c0.9,0.8,1.9,0.7,2.9,0.3c1.6-0.6,3.1-0.8,4.6,0.3c0.3,0.2,0.7,0.1,1.1,0.1c4.3,0,8.6,0.1,12.9-0.1
			c0.6,0,1.2-0.2,1.8-0.2c1.4,0.1,2.8,0.2,4.2,0.4c0.6,0.1,1,0,1.4-0.3c1.2-0.9,2.4-1.3,3.9-0.7c0.2,0.1,0.5,0.1,0.8,0.1
			c2.9-0.3,5.9-0.6,8.8-0.8c1.7-0.1,3.5-0.2,5.3-0.3c1.5,0,2.9,0.5,4.2,1.4c1.4-2.1,3.5-2.5,5.7-2.2c0.9,0.1,1.8,0.3,2.7,0.2
			c1.2-0.1,2.4-0.2,3.6-0.3c2.2-0.1,4.4-0.2,6.6-0.3c1.2-0.1,2.4-0.2,3.6-0.3c1.8-0.2,3.6-0.3,5.3,0.8c0.7-0.7,1.3-1.6,2.2-2.1
			c1.2-0.6,2.4-0.9,3.7-0.3c0.5,0.2,1.1,0.2,1.6,0c3.7-1.1,7.3-2.5,10.8-4.3c3.2-1.7,6.4-3.5,9.6-5.1c3.9-2,8.1-2.8,12.5-1.6
			c2.6,0.7,4.7,2.2,6.6,4c1.8,1.7,3.3,3.7,4.7,5.8c0.8,1.2,1.8,2.3,2.4,3.5c0.5,0.9,1.2,1.5,1.9,2.3c1.3,1.7,2,3.6,2.3,5.7
			c1.5-0.1,3.1-0.1,4.6,0.1c0.2,0,0.4,0,0.7,0.1c3.9,1.7,7.7,3.7,10.5,7c1.5,1.8,2.8,3.9,3.9,6.1c1.2,2.5,2.2,5,2.8,7.6
			c0.8,3.6,1.6,7.2,2,10.9c0.4,3.2,0.5,6.4,0.5,9.7c0,0.9-0.2,1.7-0.3,2.6c-0.2,1.5-1.3,2.3-2,3.5c-0.3,0.5-1.1,0.8-1.8,0.8
			c-2.2,0.1-4.4,0.1-6.5,0.6c-2.4,0.5-4.8,1.1-6.9,2.5c-0.4,0.3-0.9,0.4-1.4,0.5c-1.7,0.3-3.5,0.5-5.2,0c-0.5-0.2-0.9-0.1-1.3,0.4
			c-1.3,1.6-3,2-4.9,1.6c-1-0.2-1.9-0.2-2.9-0.1c-2.1,0.2-4.3,0.2-6.4,0.1c-4.5,0-9.1-0.1-13.6-0.3c-4.4-0.2-8.9-0.2-13.3-0.1
			c-1.7,0-3.4,0-4.9-1c-0.2-0.1-0.3-0.2-0.5,0c-1.4,1.5-3.4,1.5-5.2,1.7c-3.4,0.4-6.7,0.8-10.1,1.6c-3,0.7-6,1.5-9,2.2
			c-2.1,0.5-4.1,1.3-6.2,2c-0.9,0.3-1.8,0.9-2.6,0.8c-1-0.2-1.7,0.4-2.6,0.3c-0.5,0-0.9,0.2-1.1,0.6c-0.5,0.7-1.2,1.1-2,1.4
			c-2.6,1-5.1,2.3-7.6,3.6c-2.4,1.2-4.8,2.3-7.2,3.5c-0.5,0.2-1,0.5-1.5,0.7c-1.5,0.8-3,0.8-4.5-0.1c-0.4-0.2-0.8-0.4-1.3-0.6
			c-0.3,0.6-0.5,1.1-0.7,1.7c-0.5,1.4-1.5,2.2-3,2.6c-4.4,1.2-8.9,1.8-13.5,2c-3.1,0.1-6.3-0.2-9.4-0.2c-0.8,0-1.7-0.2-2.5-0.3
			c-1.7-0.4-3.4-0.4-5-1c-0.3-0.1-0.6-0.1-0.8-0.3c-1.1-1-2.4-0.9-3.8-0.9c-1.9,0.1-3.7-0.7-5.5-1.2c-4-1.1-7.9-2.5-11.8-3.8
			c-2.9-0.9-5.8-1.7-8.7-2.6c-0.9-0.3-1.8-0.7-2.4-1.5c-0.4-0.5-0.8-0.7-1.4-0.4c-0.4,0.2-0.8,0.2-1.2,0.2c-1.9-0.3-3.8-0.5-5.6-1.3
			c-0.3-0.1-0.5-0.2-0.8-0.3c-2.9-0.5-5.6-1.4-8.5-1.8c-1.4-0.2-2.8-0.8-3.9-1.7c-0.5-0.4-0.9-0.4-1.4,0c-0.8,0.6-1.7,1-2.8,1
			c-1.5,0-3,0.1-4.5-0.3c-1.8-0.4-3.7-0.2-5.5-0.2c-1.5,0-3-0.3-4.4-1c-0.4-0.2-0.6-0.2-1,0.1c-0.5,0.6-1.1,0.7-1.8,0.9
			c-1.5,0.3-2.9,0.3-4.4,0c-0.3-0.1-0.6-0.1-1-0.1c-0.4,0-0.8,0-1.1-0.1c-0.6-0.2-1.1-0.7-1.7-0.8c-0.5,0-1.1,0.5-1.7,0.6
			c-1.2,0.3-2.4,0.3-3.6,0.2c-2.5-0.3-5.1-0.1-7.6-0.2c-2.4,0-4.7-0.1-7.1-0.1c-0.6,0-1.1-0.1-1.7,0.1c-0.3,0.1-0.6,0.1-0.8,0
			c-1.3-0.7-2.6-0.6-4-0.3c-1.7,0.3-3.5,0.1-5.2,0c-2.5-0.1-5,0-7.5,0c-0.9,0-1.8,0.2-2.6-0.5c-0.3-0.3-0.9-0.2-1.3-0.3
			c-0.6-0.2-1.1-0.2-1.6,0.2c-0.6,0.5-1.5,0.6-2.4,0.6c-5.2,0-10.5,0-15.7,0c-9.4-0.1-18.7,0-28.1,0c-1.8,0-3.6-0.1-5.3-0.9
			c-0.5-0.2-0.9-0.1-1.4,0.2c-2.7,1.8-5.5,2-8.6,1.1c-1.2-0.4-2.4-0.1-3.6-0.1c-4.7,0.3-9.3,0.8-13.9,1.4c-2,0.2-4,0.5-6,0.9
			c-1.6,0.3-3,0.1-4.5-0.4c-0.6-0.2-0.9-0.2-1.3,0.2c-1.7,1.4-3.7,2.2-6.1,2.2c-1.9,0-3.8,0.7-5.7,1.1c-1.9,0.4-3.9,0.6-5.8,0.8
			c-0.8,0.1-1.7,0-2.4-0.5c-0.5-0.3-1-0.4-1.5,0.2c-0.5,0.5-1.2,0.8-1.8,1.2c-0.3,0.2-0.8,0.3-0.6,0.9c0.1,0.4-0.4,0.4-0.7,0.5
			c-2.6,0.8-5.2,1.4-7.8,2.3c-0.6,0.2-1.1,0.3-1.7,0.6c-1.2,0.6-2.5,1.1-3.9,0.6c-0.4-0.2-0.7,0-1.1,0.4c-1.6,1.6-3.6,2.7-5.8,2.9
			c-1.8,0.1-3.3,0.7-4.9,1.2c-4.7,1.5-9.5,2.8-14.4,3.7c-3.7,0.7-7.5,1-11.3,0.7c-3.3-0.3-5.6-2.2-7.1-5.1c-1.5-2.9-2.2-6-2.3-9.3
			c0-3.9,0.3-7.7,0.8-11.6c0.4-3,0.8-6,1.4-9c0.1-0.6,0.1-1.3,0-1.9c-0.1-1.4,0.2-2.6,1.3-3.5c0.4-0.4,0.5-0.8,0.2-1.3
			c-0.6-1.4-0.8-2.9-0.5-4.5c0.1-0.4,0.1-0.7,0.1-1.1c-0.1-2.5-0.3-4.9-0.7-7.4c-0.3-2.2-0.8-4.4-1.3-6.6c-0.5-1.9-1.1-3.9-2-5.7
			c-0.7-1.3-1.3-2.8-2-4.1c-0.5-0.9-0.9-2-0.7-3.2c0.1-0.4,0-0.7-0.4-0.9c-0.9-0.3-1.4-1.2-2.4-1.3c-0.2,0-0.2-0.1-0.3-0.3
			c-0.5-1-1.3-1.9-1.6-3c-0.5-1.5-1.3-2.9-1.5-4.6c-0.3-2.6-0.3-5.3,0-7.9c0.3-3,1.2-5.9,2.1-8.8c1.3-4,3.4-7.4,6.5-10.3
			c1.9-1.8,4-3.1,6.5-3.9c0.3-0.1,0.7-0.4,0.7,0.3c0,0.4,0.3,0.2,0.5,0.1c1.1-0.2,2.2-0.7,3.4-0.2c0.3,0.2,0.6-0.1,0.8-0.3
			c1-0.9,2.1-1.6,3.5-1.7c1.1-0.1,2.2-0.2,3,0.9c0.2,0.3,0.5,0.3,0.9,0.3c3.7,0.2,7.4,1,11.1,1.4c1.8,0.2,3.6,0.6,5.4,1.2
			C88.4,12.2,88.9,12.9,89.7,13.1z M443,46c0,1.4,0,2.5,0,3.7c-0.2,3.6,0.9,6.8,2.5,9.9c1.1,2,2.7,3.6,4.6,4.8
			c2.5,1.5,5.3,2.4,8.1,3c4.2,0.8,8.1,0.3,11.6-2.1c1.9-1.3,3.8-2.7,5.7-4.2c2.6-2.1,5.6-3.6,8.7-4.7c2.2-0.8,4.4-1.3,6.5-2.3
			c1.9-0.9,3.7-1.9,4.7-3.9c0.8-1.5,1-3.2,1.2-4.9c0.2-1.8-0.5-3.4-1.7-4.7c-0.6-0.7-1.4-1.2-2.1-1.8c-0.5-0.4-1-0.8-0.9-1.6
			c0-0.6-0.3-1-0.7-1.5c-0.3-0.4-0.6-0.8-0.9-1.2c-1.6-2.1-3-4.3-5.1-6c-2.6-2.2-5.6-3.5-9-3.2c-2.7,0.3-5.2,1.1-7.6,2.4
			c-2,1.1-4.1,2.2-6.1,3.3c-4.2,2.3-8.6,4.3-13.2,5.6c-1.5,0.4-3,1-4.6,0.8c-0.3,0-0.5,0-0.6,0.2c-0.9,0.7-1.5,1.6-1.5,2.7
			C442.9,42.3,443,44.3,443,46z M214.9,23.7c-1.4-0.6-2.7-0.3-3.9-0.5c-1.2-0.2-1.7,0.4-1.4,1.6c0.1,0.4,0.3,0.9,0.4,1.3
			c0.7,3.4,0.9,6.8,0.9,10.2c0.1,4.3-0.8,8.5-1.2,12.8c-0.3,2.8-0.8,5.5-1.1,8.3c-0.4,3.5-0.3,6.9,0.4,10.3c0.3,1.8,0.9,3.6,2.1,5
			c0.9,1,1.9,1.9,3.4,1.7c0.8-0.1,1.7,0.1,2.5,0c2.5-0.4,5.1-0.1,7.5,0.4c2.3,0.5,4.5,0.8,6.8,1.2c1.8,0.3,3.6,0.3,5.4-0.1
			c3.2-0.6,6.2-1.6,9.3-2.6c0.4-0.1,0.6-0.4,0.6-0.8c0.2-1.1,0.1-2.2,0-3.3c-0.2-2.2-0.6-4.3-0.9-6.4c-0.1-0.9-0.5-1.7-1.6-2
			c-3.4-0.7-6.2-2.4-8.3-5.2c-1.3-1.7-2.3-3.6-2.2-5.8c0.1-2.2,0.6-4.3,1.3-6.3c0.8-2.3,1.5-4.6,2-7c0.2-1,0.4-1.9-0.1-2.9
			c-0.3-0.5-0.2-1.3,0-1.9c0.3-1,0.1-1.7-0.6-2.4c-0.6-0.6-1.2-1.4-2.1-1.4c-0.8,0-1.6-0.2-2.4-0.3c-2.8-0.4-5.4-1.4-8.2-2
			c-1.8-0.4-3.6-0.8-5.6-1.3c0.6,1.4,0.3,2.4-0.9,3.1c-0.7,0.4-1.5,0.2-2.1-0.6C213.9,25.7,214.2,24.7,214.9,23.7z M365.7,76
			c-2.2,1.2-4.3,2.2-6.6,2.7c-2.6,0.5-5.2,0.6-7.8,0c-3.9-1-7.5-2.9-11-4.8c-2.6-1.4-5.2-2.7-8.1-3.5c-2.6-0.7-5.3-0.9-7.9-0.2
			c-1,0.3-1.9,0.7-2.7,1.4c-1.7,1.6-2.1,3.7-1.9,5.8c0.1,1,0.4,2.1,0.6,3.1c0.9,3.3,1.8,6.6,2.2,10c0.2,1.8,0.5,3.6,1,5.4
			c0.6,2.1,1.4,2.8,3.6,2.9c1.7,0.1,3.5,0.2,5.2,0.4c3.2,0.4,6.2,1.2,9.3,2c4.3,1.1,8.5,2.7,12.9,3.7c3.5,0.7,7.1,1.4,10.7,0.9
			c2.8-0.4,5.3-1.5,7.6-3.1c1.7-1.2,3.4-2.2,5.2-3.1c0.6-0.3,0.8-0.5,0.8-1.1c0-1.6,0.1-3.1,0.2-4.7c0.1-0.9,0.6-1.9,0.2-2.9
			c-0.7,0-1.4,0.3-2.1,0.5c-2.3,0.5-4.2,0-5.7-1.8c-1.2-1.5-2.2-3.1-3.1-4.8C367,82.2,366.1,79.2,365.7,76z M226.3,101
			c-0.2-0.6-0.4-1-0.6-1.3c-0.4-0.9-0.9-1.7-0.9-2.7c0.1-2.5,0.4-5,0.7-7.4c0.4-2.9,0.8-5.8,1-8.8c0-0.7,0-1.4,0-2.1
			c0-0.3-0.1-0.5-0.4-0.6c-2.3-0.4-4.5-1-6.8-1c-1.8,0-3.6,0.1-5.4,0.1c-0.7,0-1.5,0-2.2-0.4c-0.9-0.5-1.7-0.3-2.5-0.1
			c-2.4,0.6-4.8,0.4-7.2,0.3c-2.1-0.1-4.1-0.6-6.2-0.8c-1.3-0.1-2.6-0.3-3.8-0.6c-2.6-0.7-5.2-1.3-7.8-1.7c-3.1-0.5-5.7,0.2-7.8,2.8
			c-0.7,0.9-1.3,1.9-1.8,2.9c-0.8,1.7-1.2,3.5-0.9,5.4c0.4,2.7,1,5.3,1.5,8c0.2,1.5,1.2,3.1,0.4,4.7c0,0.1,0,0.3,0.1,0.4
			c0.4,0.7,0.8,1.3,1.4,1.6c1.5,0.7,3,1.1,4.7,1.1c3.5,0,7.1-0.1,10.6-0.1c7.4,0.1,14.7-0.2,22.1,0.2c1.6,0.1,3.1,0,4.7,0
			C221.6,101,223.9,101,226.3,101z M501.4,46.9c-2,0-2.1,0.1-2.8,1.7c0,0.1-0.1,0.2-0.1,0.3c-1.3,3.4-3.7,5.8-7.1,7.1
			c-2.4,0.9-4.7,1.8-7.1,2.7c-2.3,0.9-4.5,1.7-6,3.9c-0.8,1.1-0.8,2.1-0.4,3.2c0.6,1.4,1.6,2.5,2.6,3.6c1.5,1.5,3.3,2.8,5.1,4
			c3.3,2.3,5.4,5.6,7,9.1c1.3,2.8,2.5,5.5,3.8,8.2c0.3,0.6,0.8,1,1.3,1.4c1.5,1,3.1,1.1,4.8,1c0.6,0,1.3-0.5,1.9-0.5
			c1.1,0.1,2-0.3,2.9-0.7c0.9-0.4,1.9-0.6,2.9-0.9c3.1-1,6.3-1.1,9.4-1.2c1.3,0,1.5-0.2,1.7-1.4c0.5-2.5,0.5-5,0.2-7.5
			c-0.4-3.1-0.7-6.1-1.2-9.2c-0.3-2-0.8-3.9-1.3-5.8c-0.5-2.2-1.3-4.3-2.3-6.3c-1.3-2.7-2.8-5.2-4.9-7.3c-2.1-2.1-4.7-3.5-7.3-4.6
			C503.4,47.3,502.5,46.7,501.4,46.9z M441,57.5c-1.2,1.7-2.8,2.3-4.3,3.1c-1.6,0.8-3.1,1.6-4.9,1.7c-2,0.1-4,0.1-6-0.2
			c-1.4-0.2-2.8-0.3-4.1-0.3c-2.3-0.1-4.6-0.2-6.9,0.1c-1.4,0.2-2.8,0.4-4.2,0.9c-3.9,1.2-6.7,3.8-8.7,7.3c-1.6,3-2.1,6.2-0.7,9.4
			c0.6,1.4,1.2,2.9,1.7,4.4c0.4,1.4,0.9,2.7,1.3,4.1c0.4,1.4,0.5,2.9,0.7,4.3c0.2,1.1,0.5,2.1,1.2,2.9c0.6,0.7,1.2,1.5,1.9,2.2
			c1.3,1.4,3.9,1.6,5.2,0.6c1.3-1.1,2.7-2,3.9-3.3c1.6-1.7,3.4-3.3,5.3-4.6c0.5-0.3,1.1-0.5,1.4-1.1c-0.8-0.8-1.3-1.6-0.8-2.7
			c0.4-0.8,1.2-1.3,2.1-1.3c1.4,0.1,1.9,1.1,2.2,2.2c2.3-1.1,4.7-1.6,7.1-1.8c2.4-0.3,4.8-0.2,7.2-0.6c0.8-0.1,1.6-0.3,2.2-0.8
			c1.1-0.9,2.2-1.8,3.8-1.8c-2.5-5.3-2.4-10.2,1.5-14.8c-1.9-1.2-3.5-2.4-4.8-4C442.7,61.6,442.1,59.6,441,57.5z M388,87.7
			c1.9,0,3.9,0,5.8,0c2.2,0,4-1,5.7-2.1c0.5-0.3,0.8-0.7,0.4-1.4c-0.6-1.2-1-2.5-1.5-3.7c-0.8-2.1-1.4-4.2-0.9-6.5
			c0.1-0.4,0.2-0.8-0.2-1.2c-1.1-0.9-1.6-2.2-2.5-3.3c-2.2-2.6-3-5.8-3.8-9c-0.6-2.3-1-4.7-1.4-7c-0.6-3.5-1.1-7-1-10.5
			c0-0.4-0.1-0.6-0.5-0.6c-1.2,0-2.4,0.2-3.5-0.4c-0.1-0.1-0.3,0-0.4,0c-5,0.4-10.1,0.2-15.1,0.2c-0.8,0-1.7,0.2-2.5-0.5
			c-0.4-0.3-1.2,0-1.7,0.4c-0.4,0.4,0.2,0.8,0.3,1.2c0.1,0.7,0.8,1.1,0.9,1.8c0.1,1.9,0.8,3.8,0.9,5.7c0.2,1.9,0.6,3.8,0.7,5.7
			c0,1.4,0.3,2.7,0.4,4.1c0.2,2.5,0,5,0.2,7.5c0.1,2.4-0.3,4.8-0.1,7.2c0.4,4.3,2,8.2,4.4,11.8c1.1,1.6,2.4,2,4.2,1.6
			c1-0.3,2-0.5,3.1-0.7C382.7,87.5,385.3,87.7,388,87.7z M96.5,114.5c-1-1.2-2.4-2-3.1-3.4c-1.9-3.7-2.5-7.7-3-11.7
			c-0.5-4.5,0.4-8.9,0.5-13.4c0.1-2.1,0.2-2.1-1.9-1.6c-0.1,0-0.2,0-0.3,0.1c-3.2,0.9-6.5,1.8-9.7,2.7c-4.2,1.3-8.5,1.4-12.8,0.3
			c-1.6-0.4-3.2-0.8-4.8-1.2c-1.4-0.4-2.2,0.1-2.8,1.5c-0.6,1.3-0.6,2.7-0.9,4c-0.5,3.2-1,6.5-1.4,9.7c-0.3,2.8-0.6,5.7-0.6,8.5
			c0,0.8,0.2,1.6,0.2,2.3c0,2.3,0.8,4.4,1.9,6.4c0.9,1.8,2.5,2.9,4.6,3.2c2.8,0.4,5.6,0,8.4-0.3c2.7-0.3,5.3-1,7.8-1.6
			c2.1-0.5,4.1-1.1,6.1-1.7c3-0.9,5.9-2.2,9.1-2.5c0.4,0,0.8-0.3,1.1-0.5C95.6,115.2,96,114.8,96.5,114.5z M112.6,36.2
			c-0.7,0-1.2,0-1.7,0.2c-0.9,0.4-1.9,0.5-2.8,0.7c-1.3,0.3-2.6,0.2-3.9,0.4c-2.2,0.2-4.3,0.2-6.5,0.1c-3.5-0.1-7.1-0.8-10.6-0.5
			c-2.4,0.2-4.7,0.5-6.6,2.3c-1.6,1.5-2.7,3.2-3,5.4c-0.1,1-0.2,1.9-0.1,2.9c0.4,3.5,0.3,6.9-0.1,10.4c-0.2,2.3-0.4,4.7-0.3,7
			c0.2,3,2.8,5,5.7,4.3c0.3-0.1,0.6-0.1,0.9-0.2c2.4-0.9,4.9-1.1,7.5-1.2c3.3-0.2,6.7,0.3,9.9,0.9c2.8,0.6,5.6,0.9,8.4,0.7
			c0.8-0.1,1-0.3,1-1c0.1-2.6,0.8-5.1,1.3-7.6c0.7-3.3,2.3-6.4,3-9.8c0.2-1.1,0.6-2.1-0.4-3c-0.1-0.1-0.2-0.3-0.3-0.5
			c-1.1-2.8-1.7-5.7-1.7-8.8C112.6,38.1,112.6,37.2,112.6,36.2z M247.7,61.2c0.9,2.9,1.4,5.7,1.6,8.6c0.2,2.8-0.1,5.5-0.3,8.3
			c-0.2,2.2-0.5,4.4-0.7,6.6c-0.2,2-0.4,4-0.6,6.1c-0.2,2.6,0.3,5,0.9,7.5c0.3,1.2,1.1,1.9,1.8,2.7c0.6,0.7,1.3,0.2,1.9,0.2
			c2-0.1,4,0.2,5.9,0.3c4,0.1,7.9-0.2,11.9,0.3c1.4,0.2,1.6-0.2,1.3-1.6c-0.1-0.7-0.3-1.5,0.1-2c0.7-1,0.6-2.1,0.6-3.2
			c0-1.6,0.1-3.1,0.1-4.7c0-1.3,0.4-2.5,0-3.8c-0.3-0.8-0.3-1.8-0.3-2.7c0-2,0.4-4,0.8-6c0.5-2.4,1.2-4.7,1.8-7.1
			c0.7-2.7,1.8-5.3,2.1-8.1c0.1-0.7-0.1-0.9-0.8-0.9c-1.2,0-2.4-0.2-3.4-1c-0.1-0.1-0.4-0.2-0.5-0.2c-0.8,0.5-1.4-0.1-2-0.4
			c-0.4-0.1-0.8-0.3-1.2-0.3c-2.4-0.3-4.8-0.2-7.1,0.1c-3.3,0.4-6.6,1-9.9,1.2C250.4,60.9,249.1,61,247.7,61.2z M156.5,71.6
			c0-0.3,0-0.4,0-0.5c-2-2.9-2.5-6.2-2.9-9.5c-0.5-3.8,0.2-7.5,1.1-11.2c0.6-2.1,0.9-4.2,1.4-6.3c0.1-0.3,0.1-0.5-0.1-0.8
			c-1.2-1.8-1.6-3.9-1.6-6c0-1.9,0.5-3.8,0.9-5.7c0.2-1,0.5-1.9,0-2.9c-0.2-0.4,0-0.8,0-1.2c0.3-1.4,0.5-2.7,0.7-4.1
			c0.1-0.7-0.2-1.2-0.8-1.6c-0.8-0.6-1.8-0.6-2.7-0.9c-1.8-0.6-3.5-1.6-5.3-2.3c-1.5-0.7-3-1.1-4.5-1.7c-2.7-1.2-3.3-1-3.4,2.2
			c0,1.2,0.1,2.4-0.2,3.6c-0.6,2.3-1.5,4.5-2.5,6.7c-1.2,2.6-1.9,5.4-1.8,8.3c0.1,2.9,0.5,5.8,0.8,8.7c0.5,4.7,1.6,9.3,2.4,14
			c0.7,4,1,8,0.5,12.1c0,0.2,0,0.4,0.3,0.5c1.1-0.6,2.3-1,3.6-1c3.6-0.2,7.1,0,10.7-0.1C154.1,71.8,155.3,71.7,156.5,71.6z
			 M175.7,72.9c0-0.1-0.1-0.2-0.1-0.3c-1.8,0-3.6-0.1-5.3,0c-2.9,0.2-5.9,0.6-8.8,0.7c-1,0-1.9,0.5-2.8,0.6
			c-2.7,0.4-5.4,0.5-8.2,0.5c-2.7,0-5.4-0.1-8.1,0.1c-1.7,0.1-3.2,0.8-4,2.3c-1.2,2.3-1.5,4.7-0.7,7.1c1,2.8,1.1,5.8,1.4,8.7
			c0.2,2.1-0.4,4-0.7,6c-0.2,1.6-0.3,3.1,1.3,4.2c1,0.7,2,0.9,3.2,0.7c1.7-0.2,3.3-0.3,4.9-0.6c4.5-0.8,9.1-1.2,13.6-1.5
			c3.5-0.3,7.1-0.6,10.6-0.2c1,0.1,1.4-0.5,0.9-1.4c-0.6-1.1-1.1-2.2-1-3.5c0.2-1.4-0.2-2.7-0.4-4.1c-0.6-2.9-1.4-5.8-1.3-8.9
			c0.1-1.8,0.6-3.4,1.3-5C172.7,76.2,173.9,74.4,175.7,72.9z M496,94.9c-0.4-0.6-0.6-1-0.9-1.4c-0.9-1.3-1.6-2.7-2.2-4.1
			c-1.2-2.8-2.2-5.6-3.7-8.3c-1.1-2.1-2.5-3.9-4.4-5.3c-1.5-1.2-3-2.4-4.8-3.3c-0.5-0.3-0.9-0.6-1.3-1c-0.8-0.8-1.7-1.6-2.6-2.3
			c-1-0.8-2.2-1.2-3.5-1.4c-1.3-0.2-2.3,0-3.3,0.7c-1.1,0.7-2.3,1.2-3.8,1.7c1.7,0.5,2.2,1.3,1.8,2.5c-0.3,1-1.3,1.4-2.4,1
			c-1.1-0.4-1.3-1.6-0.4-3.3c-1.5,0.2-3,0.4-4.6,0.2c-2.6-0.3-5.2-0.7-7.7-1.7c-0.4-0.2-0.9-0.3-1.2,0.1c-0.8,0.9-1.7,1.9-2,3.1
			c-0.8,3.2-0.7,6.2,1.1,9c1.1,1.6,1.8,3.4,2.5,5.2c0.8,2.3,1.3,4.7,1,7.2c-0.1,1.2,0.2,1.6,1.4,1.6c0.8,0,1.6-0.2,2.3-0.2
			c4.6,0.1,9.1-0.2,13.7,0.2c3.5,0.2,7,0.1,10.5,0.3C486.4,95.6,491.1,95.4,496,94.9z M305.2,52.8c0.2,0.6,0.2,1.1,0.4,1.5
			c0.2,0.9,0.3,1.9,0.2,2.7c-0.1,1-0.1,1.9,0.1,2.8c0.1,0.3,0.2,0.7,0,0.9c-0.5,0.5-0.4,1.1-0.5,1.6c-0.5,2.7-1,5.4-1.7,8.1
			c-0.6,2-1.3,4-1.8,6.1c-0.7,2.8-1.2,5.7-1.5,8.6c-0.3,3-0.3,6,0.6,8.9c0.5,1.6,1.2,3.2,1.7,4.8c0.6,1.9,1.7,3,3.6,3.7
			c0.8,0.3,1.7,0.3,2.6,0.5c3,0.7,6,1.4,9,2.1c1.2,0.3,2.4,0.9,3.7,1.1c0.7,0.1,0.9,0,0.7-0.7c-0.4-1.6-0.3-3.1,0.4-4.6
			c0.3-0.6,0.2-1-0.3-1.5c-0.5-0.6-1-1.3-1.2-2.2c-0.7-2.3-0.9-4.6-1.2-6.9c-0.2-1.7-0.4-3.5-0.9-5.2c-0.6-2-1.1-4-1.6-6
			c-0.5-2.2-0.3-4.3,0.4-6.4c0.7-2,2-3.5,3.8-4.3c1.5-0.7,2.1-1.9,2.2-3.4c0.2-2,0.1-4.1,0-6.1c0-1.1-0.1-2.1,0.2-3.2
			c0.3-1.5,1-2.8,1.8-4.3c-1.3-0.1-2.5-0.6-3.7-0.3c-2,0.5-3.9,1.5-5.8,2.3C312.6,55.1,308.9,55.6,305.2,52.8z M360.4,56.4
			c0.9,0.3,2.1-0.3,3.4-0.4c0.5,0,1.1-0.4,1.5-0.7c0.4-0.3-0.1-0.8-0.1-1.2c0-0.2,0-0.5,0-0.7c-0.3-2.3-0.3-4.6-1.1-6.8
			c-0.6-1.7-1.4-3.3-2.8-4.6c-0.7-0.6-1.5-1.2-2.5-0.9c-0.5,0.2-1,0.1-1.5,0.1c-0.8,0-1.6-0.4-2.4-0.5c-2.9-0.3-5.8-1.2-8.6-1.8
			c-1.2-0.3-2.5-0.7-3.7-1c-2.7-0.8-5.3-1.6-7.9-2.4c-1.7-0.5-3.4-1.1-5.2-1.5c-4.1-1-8.1-2.1-12.3-2.8c-1.9-0.3-3.8-0.8-5.7-0.9
			c-0.9-0.1-1.8-0.1-2.7-0.3c-1.1-0.2-1.4-0.2-1.9,0.6c-0.4,0.5-0.4,1.1-0.3,1.7c0.2,1.6,0,3.2-0.4,4.8c-0.6,2.1-1.1,4.3-1.6,6.4
			c-0.4,1.5-0.2,3,0.4,4.4c1.1,2.7,3.2,4.5,6.9,4.1c1.9-0.2,3.5-1,5.2-1.8c1.3-0.6,2.6-1.2,4-1.6c2.1-0.6,4.2,0.1,6.3,0.4
			c0.5,0.1,0.8,0.1,1.3-0.2c1.9-1.1,3.9-1.4,6.1-0.9c2.1,0.4,4.2,1,6.2,1.8c1.7,0.6,3.4,1.3,5,2.2c2.1,1.2,4.2,2.3,6.6,2.9
			C355,55.6,357.5,56.4,360.4,56.4z M270.6,51.7c0,0.4,0,0.7,0,0.9c-0.1,2.4,1.1,4,2.9,5.4c0.5,0.4,1,0.6,1.7,0.6
			c1.8,0,3.5,0.1,5.3-0.1c2.6-0.3,5.1,0.2,7.6,1c2.3,0.7,4.6,1.4,6.9,2.1c2.1,0.6,4.2,0.5,6.2-0.4c1.4-0.6,2.3-2,2.4-3.5
			c0.1-1.6-0.2-3.2-0.6-4.8c-0.1-0.5-0.3-1.1,0-1.3c0.8-0.6,0.3-1.2,0.1-1.6c-1.1-2.2-1.2-4.5-0.6-6.8c0.5-2.1,1-4.1,1.5-6.2
			c0.3-1.2,0.6-2.3,0-3.5c-0.3-0.5-0.4-1.2-0.4-1.9c0-1.3-1.1-2.1-2.2-1.6c-0.9,0.4-1.8,0.5-2.7,0.7c-3.9,0.9-7.8,1.2-11.8,1.6
			c-3.5,0.4-7.1,0.7-10.6,0.8c-0.7,0-1.5,0-2.2,0.1c-1.8,0.2-2.2,0.7-1.9,2.5c0.1,0.5,0.2,1.1,0.3,1.6c0.1,0.3,0.2,0.6,0.1,1
			c-0.6,2.9-0.7,5.8-1.3,8.7C271,48.6,270.5,50.2,270.6,51.7z M208.5,74c-0.3-0.5-0.4-0.8-0.6-1.1c-0.2-0.3-0.4-0.7-0.5-1.1
			c-2.2-5.6-1.9-11.4-1.1-17.2c0.2-1.8,0.6-3.5,0.9-5.3c0.4-2,0.4-4,0.8-6c0.3-2,0.5-4.1,0.6-6.2c0.1-2.6,0.1-5.3-0.2-7.9
			c-0.1-0.6-0.1-1.2-0.8-1.5c-0.6-0.3-0.8-1.1-1.1-1.7c-0.2-0.5-0.2-1-0.4-1.5c-0.3-0.8-0.7-1.1-1.5-0.9c-2.1,0.4-4.3,0.8-6.3,1.4
			c-1.7,0.5-3.4,1-5.2,1.3c-0.9,0.1-1.7,0.5-2.4,0.9c-0.5,0.3-0.8,0.7-0.8,1.2c-0.1,2-0.6,3.9-0.9,5.9c-0.2,1.5-0.2,3-0.4,4.5
			c-0.4,3.3-0.1,6.5,0.6,9.6c0.7,3.7,1.8,7.3,2.5,11c0.7,4,1.2,8,0.2,12.1c-0.1,0.4-0.1,0.7,0.4,0.8c1.4,0.4,2.7,0.9,4.1,1.1
			c2.1,0.2,4.2,0.7,6.3,0.8C204.4,74.3,206.4,74.4,208.5,74z M92.2,71.2c0.6,1.9,1.1,3.9,1.3,5.9c0.2,1.6,0.5,3.2,0.3,4.8
			c-0.1,1-0.1,2-0.2,3c-0.1,2.4-0.2,4.8-0.4,7.2c-0.3,2.8-0.4,5.6,0.1,8.4c0.4,2.5,1,4.9,2,7.2c0.5,1,1.4,1.7,1.9,2.7
			c0.7,1.3,2,2,3.2,2.7c0.4,0.2,1.1,0.3,1.5,0c1-0.9,2.3-1,3.4-1.3c2.5-0.7,4.9-1.5,7.2-2.7c0.6-0.3,1.1-0.7,1.6-1
			c0.4-0.2,0.7-0.7,0.6-1c-0.3-0.8,0.1-1.4,0-2.2c-0.3-1.8-0.3-3.6-0.1-5.4c0.3-3.1,0.6-6.1,0.8-9.2c0.1-1-0.3-1.7-0.9-2.4
			c-0.5-0.5-0.9-1.1-1.2-1.7c-0.9-2.2-1.7-4.5-2.2-6.8c-0.4-2-0.4-3.9-0.7-5.9c-0.2-1-0.2-1-1.2-0.9c-2.3,0.1-4.5,0.1-6.8-0.3
			c-2.5-0.5-5.1-1-7.7-1.1C94,71.2,93.1,71,92.2,71.2z M52.7,51.8c0.7,1.3,1.2,2.7,1.8,4.1c1.3,2.9,2.4,5.9,3.1,9
			c0.8,3.3,1.4,6.7,1.6,10.1c0.1,2,0.1,4,0,6c0,0.6-0.1,1.2,0.6,1.4c1.1,0.4,2,1.1,3.2,1.4c1.4,0.4,2.9,0.7,4.3,1.1
			c4.4,1.2,8.6,0.7,12.9-0.6c2.6-0.8,5.1-1.8,7.9-2c0.9-0.1,1.7-0.4,2.6-0.5c0.6-0.1,0.7-0.4,0.7-0.9c0-0.8,0-1.7-0.1-2.5
			c-0.1-2.1-0.3-4.2-1.2-6.2c-0.4-0.9-0.4-1-1.4-0.8c-1.4,0.2-2.7,0.5-4,0.9c-4.7,1.6-8.3-0.7-10-4.8c-0.9-2.2-0.7-4.5-0.5-6.7
			c0.2-2.8,0.6-5.6,0.5-8.4c0-1-0.2-1.2-1.1-1.4c-1.2-0.2-2.4-0.4-3.7-0.2c-1.9,0.4-3.9,0.9-5.8,0c-0.3-0.2-0.6,0.1-0.9,0.2
			c-1.7,0.7-3.5,1-5.4,1C56,51.8,54.4,51.8,52.7,51.8z M260.5,32.8c-0.8-0.2-1.3-0.4-1.9-0.4c-4.3-0.4-8.6-1.3-12.8-2
			c-1-0.2-2.1-0.4-3.1-0.5c-1.1-0.1-2.1,0.3-2.7,1.3c-0.1,0.2-0.3,0.4-0.1,0.6c0.9,0.7,0.3,1.5,0.3,2.3c0,2.4-0.6,4.7-1.2,6.9
			c-0.7,2.5-1.6,4.9-2.1,7.4c-0.2,1.3-0.1,2.6,0.5,3.8c1.9,3.7,5,5.7,9.1,6.1c1.9,0.2,3.8,0,5.6-0.2c2.3-0.3,4.7-0.6,7-0.9
			c2.5-0.3,5-0.6,7.5-0.3c0.8,0.1,1.7,0.1,2.6,0.2c-0.1-0.3-0.1-0.5-0.2-0.6c-1.1-1.9-1.1-3.9-0.8-5.9c0.6-3.5,1.3-7,1.8-10.5
			c0.1-0.6,0.2-1.2-0.1-1.8c-0.4-0.9-0.6-1.9-0.7-2.8c-0.1-0.7-0.5-1.1-1.1-1.3c-1.4-0.4-2.9-0.6-4.4-0.7c0.1,1.1,0,2.1-1.1,2.6
			c-0.7,0.3-1.7,0.1-2.2-0.4C259.5,34.8,259.8,33.9,260.5,32.8z M74.5,48.1c-0.3-0.9,0-1.8,0-2.7c-0.1-2.3,0.9-4.3,2.2-6
			c2.5-3.1,5.7-5.1,9.9-4.9c1.4,0.1,1.5,0,1.9-1.4c1-3.9,1-7.8,1.1-11.8c0-0.4-0.2-0.7-0.3-1.1c-0.2-0.9-0.9-1.7-0.9-2.7
			c-0.1-1.6-1-2.7-2.5-3c-1.3-0.3-2.5-0.6-3.8-0.7c-4.3-0.5-8.6-1.4-13-1.7c-0.5,0-1.3,0.1-1.2-0.9c0-0.1-0.1-0.2-0.3-0.2
			c-0.8-0.2-2.4,0.9-2.5,1.7c-0.2,1.3-0.3,2.6-0.3,4c0,2.5-0.1,5-0.2,7.5c-0.3,4.8-1.1,9.5-1.6,14.3c-0.2,2.5-0.1,4.9,0.6,7.2
			c0.7,2.5,1.7,3.1,4.3,2.7c1.7-0.3,3.4-0.8,5.2-0.3C73.4,48.3,73.9,48.4,74.5,48.1z M117.6,51.3c-0.2,0.6-0.1,1.3-0.2,1.9
			c-0.4,2.5-1.5,4.7-2,7.2c-0.5,2.7-1.3,5.3-1.6,8.1c-0.6,5.3,0,10.5,2,15.4c0.9,2.2,2.5,3.6,4.8,4.4c2.6,0.8,5.3,0.9,8,0.6
			c2.3-0.3,4.5-1.1,6.9-1c-0.2-1-0.3-1.8-0.5-2.7c-0.8-3.4-0.9-6.6,0.9-9.8c0.1-0.2,0.2-0.4,0-0.6c-0.3-0.4-0.2-0.9-0.2-1.3
			c-0.1-1.9,0.3-3.8,0-5.8c-0.3-2.3-0.5-4.7-0.9-7c-0.4-2-0.8-4.1-1.1-6.1c-0.1-0.5-0.2-0.7-0.8-0.6c-0.6,0.1-1.2,0.2-1.8,0.2
			c-1,0.1-2,0.1-3-0.1C124.6,53.5,121.3,51.8,117.6,51.3z M326.7,67.1c0.2,0,0.3,0.1,0.5,0.1c2.7-0.2,5.2,0.5,7.7,1.3
			c1.1,0.4,2.3,0.7,3.3,1.3c1.2,0.8,2.5,1.3,3.8,2c2,1.2,4.1,2.1,6.2,3c2.7,1.2,5.6,2,8.6,1.6c3.1-0.4,6-1.4,8.6-3.1
			c0.3-0.2,0.4-0.3,0.4-0.6c0.2-1.7,0.2-3.5,0.2-5.2c0-1.8,0-3.6-0.1-5.4c-0.1-1.5,0-2.9-0.4-4.4c-2.7,1.1-5.5,1.1-8.3,0.9
			c-0.9-0.1-1.7-0.3-2.6-0.5c-2.9-0.5-5.7-1.3-8.3-2.8c-0.6-0.4-1.3-0.8-1.9-1.1c-3.3-1.5-6.6-2.8-10.2-3.4c-1.5-0.2-3-0.2-4.2,0.7
			c-2.3,1.8-3,4.3-2.9,7.1c0,0.6,0.1,1.3,0.1,1.9C327.1,62.8,327,64.9,326.7,67.1z M159,45.2c-0.1,0.5-0.3,0.9-0.3,1.2
			c-0.1,2.7-1,5.3-1.4,8c-0.2,1.6-0.6,3.1-0.6,4.7c0,1.6,0.2,3.3,0.6,4.9c0.4,1.7,0.8,3.4,1.8,4.9c0.4,0.5,0.8,0.9,1.5,0.8
			c1.5-0.1,2.9-0.2,4.4-0.3c2.3-0.1,4.6-0.5,6.9-0.5c1.6,0,3.1,0,4.7,0.2c1.5,0.2,2.8,0.5,4,1.3c0.4,0.2,0.8,0.3,1.2,0.3
			c2-0.1,3.9,0.4,5.9,0.7c0.7,0.1,1,0.1,1-0.6c0-1.2,0.3-2.5,0.3-3.7c0-0.9-0.2-1.8-0.2-2.8c0-1.9-0.4-3.7-0.7-5.5
			c-0.6-2.9-1.5-5.8-2.1-8.7c-0.1-0.6-0.5-0.9-1.1-0.7c-2.7,0.8-5.5,0.6-8.2,0c-2.3-0.5-4.7-0.8-7-1.6c-2.4-0.9-4.8-1.8-7.4-2.2
			C161.2,45.5,160.2,45.6,159,45.2z M115.6,37.9c-0.1,2.7,0.2,5.5,1.2,8.1c0.6,1.5,1.6,2.4,3.1,2.7c2.1,0.4,4,1.3,6.1,1.8
			c2,0.6,4,1,6.1,0.5c0.9-0.2,1-0.2,0.8-1.2c-0.3-2.1-0.6-4.1-0.9-6.2c-0.4-2.6-0.2-5.2-0.3-7.7c0-1.6,0.3-3.1,0.7-4.6
			c0.5-2,1.5-3.9,2.2-5.8c0.5-1.2,1.4-2.5,0.5-3.9c0-0.1,0-0.2,0-0.3c0-1.7,0-3.3,0.1-5c0.1-1.7-0.1-2.2-1.7-2.7
			c-0.8-0.3-1.6-0.1-2.4-0.2c-3.2-0.6-6.4-0.5-9.7-0.5c-1.6,0-2.4,0.5-2.7,2.1c-0.5,2.1-0.9,4.2-1.3,6.3c-0.5,3-1,5.9-1.4,8.9
			C115.8,32.8,115.4,35.3,115.6,37.9z M302.6,63.8c-0.2,0-0.3-0.1-0.3-0.1c-0.2,0-0.4,0-0.5,0.1c-2.6,1-5.1,1-7.7,0.2
			c-1.6-0.5-3.2-0.9-4.8-1.4c-2.9-0.9-5.9-1.8-9.1-1.4c-1.4,0.2-1.2-0.2-1.4,1.3c-0.2,2.1-0.7,4.1-1.1,6.1c-0.7,3.7-2,7.2-2.6,10.9
			c-0.4,2.2-0.5,4.3,0,6.4c0.6,2.2,1.4,3.2,3.7,3.2c2,0,3.9-0.5,5.9-0.8c3.7-0.7,7.5-1.5,11.3-0.5c0.7,0.2,1.1-0.1,1.1-0.9
			c0.1-0.8,0.2-1.6,0.3-2.3c0.3-3,0.8-5.9,1.8-8.8C300.6,71.9,301.8,68,302.6,63.8z M399.8,110.7c3.1-1.3,6-3.1,9.1-4.4
			c1.1-0.5,2-1.2,3.3-0.9c0.7,0.2,1-0.5,0.7-1.3c-0.3-0.7-0.6-1.5-0.5-2.3c0.1-0.4-0.1-0.6-0.5-0.6c-0.2,0-0.5,0-0.7,0
			c-2.5,0.1-4.6-0.8-6.1-2.9c-0.6-0.9-1.4-1.6-2.2-2.5c-0.2,0.3-0.4,0.5-0.5,0.6c-0.8,0.7-1.7,0.9-2.5,0.3c-0.9-0.6-1.2-1.5-0.9-2.5
			c0.3-1,1.1-1.4,2.1-1.4c0.3,0,0.6,0.3,0.9,0.1c-0.2-1.7-0.3-3.4-0.9-5c-0.4,0.2-0.7,0.4-1.1,0.6c-1.7,1-3.5,1.9-5.5,2
			c-2.5,0-5,0.1-7.5,0c-1.4-0.1-2.9,0-4.3,0c-0.9,0-1,0-1,1c-0.1,2.5-0.3,5-0.4,7.4c-0.1,3,1.1,5.3,3.4,7.2c1.9,1.6,4.1,3,5.8,4.9
			c0.6,0.7,1.2,1.2,2.1,1.6c1.1,0.5,2.1,1.1,3.2,0c0.5-0.5,1.4-0.4,2.1-0.9c-1.6-1.1-2-2-1.5-3.1c0.4-0.8,1.4-1.2,2.4-0.9
			C399.7,108,400,108.8,399.8,110.7z M416.9,58.7c0.3,0,0.5,0.1,0.7,0.1c3.4-0.1,6.8,0.4,10.2,0.8c1.8,0.2,3.6,0.3,5.4-0.2
			c2.5-0.7,4.7-2,6.8-3.7c0.3-0.3,0.4-0.5,0.3-0.9c-0.2-1-0.3-2.1-0.3-3.2c0-3.8,0-7.7-0.2-11.5c0-0.6-0.3-0.9-0.7-1
			c-0.3-0.1-0.7-0.2-1.1-0.2c-1.1,0.1-2.2,0.3-3.2-0.2c-0.3-0.1-0.6,0-0.9,0c-2.3,0.2-4.5,0.4-6.8,0.4c-1.5,0-3,0.2-4.5,0.3
			c-1.4,0.1-2.8,0.3-4.3,0.1c-1.1-0.2-2.3,0.2-2.9,1.4c-0.5,1-0.8,2.1-0.5,3.2c0.5,2.1,1,4.2,1.6,6.3
			C417,53.1,417.4,55.8,416.9,58.7z M398.4,69.9c0.4-0.2,0.5-0.5,0.7-0.7c1.3-2.4,3-4.3,5.1-6.1c2.5-2.2,5.5-3.2,8.7-4
			c1.3-0.3,1.5-0.4,1.6-1.6c0.2-2,0.1-3.9-0.4-5.9c-0.7-3-1.7-5.8-1.9-8.9c-0.1-1.7-0.8-2.2-2.5-2.4c-0.6-0.1-1.2,0-1.8,0.2
			c-0.4,0.1-0.9,0.3-1.3,0c-0.6-0.4-1.3-0.3-1.9-0.2c-3.6,0.3-7.3,0.6-10.9,0.9c-0.5,0-1,0.2-1.4,0.5c-0.3,0.2-0.5,0.6-0.3,1
			c0.4,1.1,0.4,2.4,0.4,3.5c0.1,3.1,0.7,6.2,1.1,9.3c0.2,2.1,1,4.1,1.4,6.2C395.3,64.9,396.8,67.4,398.4,69.9z M180.2,46.6
			c0.6,0,1,0,1.3,0c0.5,0,1-0.1,1.5-0.2c2-0.3,2-0.3,1.8-2.4c0-0.1,0-0.3,0-0.4c-0.2-3.8,0-7.6,0.7-11.4c0.2-0.8,0.2-1.6,0.3-2.5
			c0.1-1.1,0-1.2-1.1-1.5c-0.8-0.3-1.6,0-2.4,0.1c-2.5,0.3-5.1,0.2-7.6,0.1c-1.6-0.1-3.3-0.3-4.9-0.8c-3-0.9-5.9-2-8.9-2.8
			c-1-0.3-1.9,0.3-1.6,1.3c0.2,0.7,0,1.4-0.1,2c-0.4,1.8-0.9,3.6-1.3,5.4c-0.3,1.6-0.7,3.3-0.4,4.9c0.5,3,0.9,3.4,3.7,3.7
			c1.2,0.1,2.4,0.2,3.5,0.5c2.8,0.9,5.6,1.9,8.4,2.6C175.6,45.9,178,46.5,180.2,46.6z M46.2,36.3c-0.1,1.3,0.1,2.5,0.2,3.8
			c0.2,2.4,1.4,4.3,2.9,6.1c0.5,0.7,1.3,1,2.2,1.1c0.6,0.1,1.3,0.3,1.9,0.3c0.7,0.1,1.3,0.3,1.6,1c0.2,0.4,0.5,0.6,1,0.6
			c1.8,0,3.5,0,5.2-0.5c0.7-0.2,0.8-0.4,0.5-1.1c-0.5-1.2-0.7-2.6-1-3.9c-0.5-2.6-0.1-5.1,0.2-7.7c0.4-3.5,1-6.9,1.3-10.4
			c0.1-1.6,0.1-3.2,0.4-4.8c0.2-0.9,0.2-1.9-0.1-2.7c-0.6-1.6-0.4-3.1-0.3-4.6c0.1-0.9,0-1-0.9-0.9c-0.5,0.1-1,0.2-1.4,0.5
			c-0.5,0.3-1,0.5-1.6,0.4c-0.9-0.1-1.7,0.4-2.4,0.8c-0.7,0.4-1.2,1.1-1.7,1.6c-1.8,1.6-3.4,3.5-4.4,5.8c-1.2,2.7-2,5.5-2.7,8.4
			C46.4,32.2,45.9,34.2,46.2,36.3z M100.9,35.1c2.4,0,4.7-0.2,7-0.5c1.5-0.2,2.9-0.6,4.3-0.8c0.7-0.1,0.9-0.4,1-1
			c0.3-3.7,0.9-7.4,1.6-11c0.1-0.8,0.5-1.6,0.3-2.3c-0.4-1.6-0.1-3.1,0.3-4.6c0.2-0.7,0-1.1-0.7-1.2c-0.9-0.2-1.8-0.2-2.6-0.1
			c-3,0.6-6,0.5-9.1,0.8c-2.4,0.2-4.8,0.2-7.2,0.3c-0.9,0.1-1.7,0-2.6,0.2c-1.2,0.2-1.3,0.4-1.5,1.5c-0.2,0.8,0.6,0.9,0.6,1.5
			c0,0.8,0.2,1.6,0.2,2.5c0,2.3-0.2,4.6-0.4,6.9c-0.2,2.1-0.5,4.1-1,6.1c-0.3,1.1-0.3,1.2,0.9,1.3C94.9,34.8,97.8,35.1,100.9,35.1z
			 M246.2,76.5c-1.1,0.3-2.2,0.6-3.3,1c-4.1,1.3-8.3,2.2-12.6,1.3c-0.7-0.1-0.8,0-0.8,0.6c0,1.6,0,3.1-0.2,4.7
			c-0.3,2.6-0.5,5.1-0.9,7.7c-0.3,1.6-0.3,3.2-0.3,4.8c0.1,2.1,1.3,3.4,3.3,4c1.2,0.3,2.4,0.5,3.7,0.4c1.9,0,3.8,0,5.7,0
			c1.5,0,3-0.3,4.5,0.3c0.2,0.1,0.7,0.1,0.9-0.4c-0.9-1.2-0.7-2.7-1-4.2c-0.2-1-0.4-2-0.4-3c-0.1-4.6,0.5-9.1,1.1-13.6
			C246,79,246.3,77.8,246.2,76.5z M379.1,102.2c-1.6,0.9-3.1,1.6-4.4,2.6c-2.4,1.7-4.9,3-7.8,3.5c-2.4,0.5-4.8,0.5-7.2,0.3
			c-1.5-0.2-2.9-0.4-4.4-0.6c0.5,1,0.5,2.1,1,2.9c0.6,1.1,0.7,2.3,0.6,3.5c0,0.3,0,0.7,0,1c0.2,1.2,0.8,1.7,2,1.7
			c0.4,0,0.8,0,1.2,0.1c2,0.4,4,0.7,6,0.8c2.1,0.1,4.2,0.3,6.3,0.2c2.8-0.1,5.6-0.2,8.4-0.7c2.1-0.3,4.2-0.8,6.2-1.4
			c0.7-0.2,1.3-1,1.2-1.7c-0.1-1.3-0.5-2.5-1.6-3.4c-0.8-0.6-1.6-1.2-2.4-1.9c-0.7-0.6-1.5-1-2.1-1.7
			C380.8,105.9,379.7,104.3,379.1,102.2z M449,84.5c-1.2,0.5-2.3,1.1-3.4,1.6c-1.2,0.6-2.4,1.1-3.7,1.3c-2.4,0.4-4.8,0.4-7.2,0.6
			c-1.6,0.2-3.1,0.4-4.6,1c-2.1,0.8-4,2-5.9,3.3c-1,0.7-2,1.3-2.9,2.2c-1.8,1.8-3.5,3.5-5.5,5c-0.2,0.2-0.4,0.4-0.6,0.6
			c-0.3,0.4,0.3,2.7,0.7,2.8c0.2,0.1,0.4,0.1,0.5,0c0.6-0.3,1.3-0.3,2-0.5c4.2-1.5,8.4-2.8,12.7-3.9c1.3-0.3,2.6-0.5,4.1-1
			c-0.9-0.4-1.8-0.4-2.2-1.3c-0.5-1-0.4-2.5,0.3-3.3c0.8-0.9,2.3-1.4,3.4-1.1c0.6,0.2,1,0.6,1,1.2c-0.1,0.8-0.2,1.7-0.2,2.5
			c0,0.4-0.3,0.6-0.6,0.9c-0.2,0.2-0.6,0.4-0.6,0.8c0.3-0.1,0.6-0.2,0.8-0.2c3.5-0.7,7.1-1.1,10.6-1.6c0.2,0,0.6-0.1,0.7,0
			c0.6,0.5,1.1,0.2,1.5-0.1c0.4-0.3,0.8-0.7,0.9-1.3C451.1,90.8,450.6,87.6,449,84.5z M118.4,91.3c-0.1,2.6-0.3,5.1-0.6,7.5
			c-0.3,2.5,0.1,5.1,0.3,7.6c0,0.3,0.2,0.5,0.5,0.6c0.4,0.2,0.8,0.3,1.3,0.4c1.2,0,2.5,0,3.7-0.3c2.4-0.4,4.6-1.2,7-1.5
			c1.4-0.2,2.9-0.3,4.3-1.1c1-0.6,1-0.6,0.4-1.6c-0.7-1.3-1.3-2.6-0.2-4c0.1-0.1,0.1-0.3,0.1-0.4c0.1-1.8,0.7-3.4,0.7-5.2
			c-0.1-2.3-0.2-2.5-2.6-2c-0.2,0-0.4,0.1-0.5,0.2c-2.5,0.6-4.9,1-7.5,1C123.1,92.6,120.8,92.1,118.4,91.3z M324.9,101.4
			c0.1,1.1,0.3,2.2,0.3,3.3c0,1.4,0.7,2.6,2,3.4c0.6,0.3,1.2,0.1,1.7,0.3c3,0.9,6.1,1.9,9.1,2.8c3,0.9,6,2,9.1,2.8
			c1.6,0.4,3.3,0.9,4.9,1.4c1.1,0.4,1.7,0.2,1.8-1c0.3-2.3-0.2-4.4-1.1-6.5c-0.3-0.7-0.8-1-1.5-1.2c-2.3-0.6-4.6-1.3-6.9-2
			c-2.8-0.9-5.8-1.6-8.7-2.3C332.1,101.6,328.5,101.7,324.9,101.4z M293,90.4c-2.4,0-4.7,0.4-6.9,0.8c-1.4,0.2-1.6,0.6-1.7,2
			c0,1-0.1,1.9-0.3,2.9c-0.3,1.5,0.1,2.8,0.6,4.2c0.2,0.5,0.6,0.8,1.1,0.9c1,0.3,2.1,0.5,3.1,0.5c3,0,6-0.1,8.9,0.3
			c0.3,0,0.5,0,0.8,0c1-0.2,1.2-0.4,1-1.5c-0.1-0.5-0.3-1-0.5-1.4c-0.2-0.6-0.6-1.1-0.6-1.7c-0.2-2.2-1.2-4.2-1.2-6.5
			c0-0.6-0.3-0.7-0.9-0.7C295.3,90.2,294.1,90.6,293,90.4z M274.6,91c0,2.7,0,5.2,0,7.6c0,0.6,0.1,1.3,0.2,1.9
			c0.1,0.8,0.3,0.8,1.2,0.8c1.1,0,2.2,0,3.3,0.2c0.7,0.1,1.2,0.2,1.7-0.2c0.6-0.5,0.5-1.1,0.3-1.7c-0.3-1.1-0.8-2.4-0.3-3.5
			c0.5-1.3,0.7-2.6,0.9-4C279.4,92.2,277,92.5,274.6,91z M425.8,87.1c0-0.4-0.4-0.9-0.7-0.9c-0.4-0.1-0.9,0.4-1,0.8
			c0,0.4,0.5,0.9,0.9,0.9C425.5,87.8,425.7,87.5,425.8,87.1z M401.6,95.2c0-0.6-0.2-1-0.7-0.9c-0.4,0-0.7,0.3-0.7,0.8
			c0,0.4,0.3,0.7,0.7,0.7C401.4,95.9,401.6,95.6,401.6,95.2z M215.6,25.4c0.1,0.3,0.2,0.6,0.6,0.6c0.3,0,0.6-0.3,0.5-0.7
			c0-0.4-0.2-0.6-0.6-0.6C215.8,24.7,215.6,25,215.6,25.4z M397.4,109.4c0,0.4,0.2,0.7,0.5,0.7c0.4,0,0.6-0.2,0.6-0.6
			c0-0.3-0.2-0.5-0.5-0.6C397.8,108.9,397.5,109.1,397.4,109.4z M261.7,34c-0.3,0.1-0.5,0.2-0.5,0.5c0,0.3,0.2,0.5,0.5,0.5
			c0.3,0,0.6-0.2,0.6-0.6C262.3,34.2,262,34,261.7,34z M465.7,72.3c0.2,0,0.4-0.1,0.5-0.3c0.1-0.2,0-0.4-0.3-0.5
			c-0.3-0.1-0.4,0-0.5,0.3C465.4,72,465.5,72.2,465.7,72.3z"/>
		<path d="M470.5,51.7c-2.4,0-3.9-2.3-3.1-4.3c0.5-1.2,1.3-2.2,2.4-2.9c0.8-0.5,1.5-0.5,2.3,0.1c2.1,1.5,2.3,2.9,0.6,5.8
			C472.1,51.2,471.2,51.6,470.5,51.7z"/>
		<path d="M474.8,34.8c0-1.1,1.1-2.1,2.3-2.1c0.9,0,2.2,1.1,2.1,2.2c-0.1,1.2-1.1,2.2-2.3,2.1C475.8,36.9,474.7,35.8,474.8,34.8z
			 M476.9,35.6c0.4,0,0.8-0.4,0.8-0.7c0-0.4-0.4-0.9-0.8-0.9c-0.4,0.1-0.8,0.3-0.9,0.7C476,35.1,476.5,35.6,476.9,35.6z"/>
		<path d="M454.7,56.1c-1.1,0.1-2.2-1.2-2.2-2.2c0-1.1,1.1-2.1,2.3-2.1c1.2,0,2.1,1,2.1,2.1C456.9,55.1,455.9,56.1,454.7,56.1z
			 M454.8,54.8c0.4,0,0.8-0.5,0.8-0.8c0-0.4-0.5-1-0.9-0.9c-0.4,0.1-0.8,0.4-0.8,0.8C453.8,54.3,454.4,54.8,454.8,54.8z"/>
		<path d="M471.5,58.6c0.1,1.1-1.1,2.3-2.2,2.2c-1.1-0.1-2.1-0.9-2.2-2c-0.1-1.2,0.9-2.2,2-2.3C470.5,56.4,471.5,57.6,471.5,58.6z
			 M470.2,58.7c0-0.4-0.6-0.9-0.9-0.8c-0.4,0.1-0.8,0.4-0.8,0.9c0,0.5,0.3,0.8,0.8,0.8C469.7,59.6,470.2,59.1,470.2,58.7z"/>
		<path d="M456,40.7c0,1.2-0.8,2-2,2c-1.2,0-2.2-0.9-2.1-2c0-1,0.9-2,2.1-2C455.2,38.8,456,39.6,456,40.7z M453.3,40.8
			c0.1,0.4,0.4,0.6,0.7,0.7c0.4,0.1,0.8-0.4,0.7-0.8c-0.1-0.4-0.3-0.7-0.7-0.6C453.6,40.1,453.3,40.4,453.3,40.8z"/>
		<path d="M461,40.7c1,0,1.7,0.8,1.7,1.8c0,0.9-0.7,1.7-1.7,1.7c-1,0-1.8-0.8-1.8-1.7C459.2,41.5,460,40.7,461,40.7z M461.4,42.4
			c0-0.2-0.2-0.4-0.5-0.3c-0.2,0-0.3,0.2-0.3,0.4c0,0.3,0.2,0.4,0.5,0.4C461.2,42.8,461.4,42.6,461.4,42.4z"/>
		<path d="M220.4,48.3c-0.3-2.4,2.6-4.5,4.9-3.3c1,0.6,2.1,2.2,1.7,3.1c-0.6,1.3-1,2.7-2.6,3.3C222.3,52.1,220.1,50.5,220.4,48.3z"
			/>
		<path d="M235.1,66c0-1.2,1-2.2,2.2-2.2c1.1,0,2.1,1.1,2.1,2.1c0,1.1-1.1,2.2-2.2,2.2C236.1,68.2,235.1,67.2,235.1,66z M236.4,66.1
			c0.1,0.4,0.3,0.8,0.8,0.8c0.4,0,0.9-0.5,0.9-0.9c0-0.4-0.6-0.9-1-0.8C236.7,65.3,236.5,65.6,236.4,66.1z"/>
		<path d="M228.9,59.7c-0.1,1.2-0.9,2-2.2,1.9c-1.2-0.1-1.9-0.8-1.8-2.1c0-1.3,0.9-2,2.2-1.9C228.2,57.7,229,58.6,228.9,59.7z
			 M227.6,59.6c-0.1-0.5-0.4-0.7-0.9-0.7c-0.4,0-0.6,0.4-0.6,0.8c0,0.4,0.2,0.6,0.6,0.6C227.2,60.4,227.6,60.1,227.6,59.6z"/>
		<path d="M222.3,64.5c0,0.9-0.8,1.8-1.7,1.8c-0.9,0-1.8-0.8-1.8-1.7c0-0.9,0.8-1.8,1.7-1.8C221.5,62.7,222.3,63.5,222.3,64.5z
			 M220.2,64.5c0,0.2,0.2,0.4,0.4,0.4c0.2,0,0.3-0.1,0.4-0.3c0-0.2,0-0.4-0.2-0.4C220.4,64.1,220.3,64.2,220.2,64.5z"/>
		<path d="M215.9,51.1c-1,0-1.8-0.8-1.8-1.7c0-0.9,0.8-1.7,1.8-1.7c0.9,0,1.7,0.7,1.7,1.6C217.6,50.3,216.9,51.1,215.9,51.1z
			 M215.8,49c-0.2,0.1-0.4,0.2-0.4,0.5c0,0.2,0.2,0.3,0.4,0.3c0.3,0,0.4-0.2,0.4-0.5C216.2,49.1,216,49,215.8,49z"/>
		<path d="M346.4,88c-0.1-0.8,0.4-1.5,0.9-2.1c0.8-0.9,2.1-0.9,2.9,0c1.1,1.2,1.7,2.5,1.1,4.1c-0.4,1-1,1.5-2.1,1.5
			c-1,0-1.9-0.5-2.3-1.4C346.5,89.5,346.3,88.8,346.4,88z"/>
		<path d="M357.7,85.7c1.3,0,2.3,1,2.3,2.2c0,1.3-1.1,2.4-2.4,2.3c-1.3,0-2.2-1-2.2-2.3C355.5,86.6,356.4,85.7,357.7,85.7z
			 M358.8,88c0-0.4-0.5-1-0.9-1c-0.5-0.1-1,0.4-1.1,0.9c-0.1,0.6,0.4,1.1,1,1.1C358.2,89,358.7,88.5,358.8,88z"/>
		<path d="M370.6,95c0,1.1-1.2,2.2-2.3,2.1c-1.2-0.1-2.1-1.1-2-2.3c0.1-1.1,1.1-2.1,2.2-2.1C369.6,92.7,370.7,93.9,370.6,95z
			 M369.3,94.9c0-0.4-0.6-0.9-1-0.8c-0.5,0.1-0.7,0.4-0.7,0.9c0,0.5,0.3,0.8,0.8,0.8C368.8,95.8,369.3,95.3,369.3,94.9z"/>
		<path d="M358.3,104.4c-1.1,0-2.2-1-2.2-2.1c-0.1-1.1,1.1-2.2,2.2-2.2c1.1,0,2.1,1,2.1,2.1C360.4,103.4,359.5,104.4,358.3,104.4z
			 M359.1,102.3c-0.1-0.5-0.3-0.8-0.8-0.8c-0.5,0-0.8,0.3-0.9,0.8c-0.1,0.4,0.5,0.9,0.9,0.9C358.8,103,359.1,102.7,359.1,102.3z"/>
		<path d="M333.8,78.8c0,1.1-1,2.1-2.1,2.2c-1.1,0-2.2-1.1-2.2-2.2c0-1.1,1.1-2.1,2.1-2.2C332.7,76.6,333.8,77.7,333.8,78.8z
			 M331.7,79.6c0.4-0.1,0.7-0.3,0.7-0.8c0-0.5-0.3-0.8-0.8-0.8c-0.4,0-1,0.5-0.8,0.9C330.9,79.3,331.2,79.6,331.7,79.6z"/>
		<path d="M367.6,102.6c0,1.1-0.9,1.9-2,1.8c-1.2,0-1.8-0.8-1.8-2c0-1.1,0.8-1.8,1.9-1.8C366.8,100.7,367.6,101.5,367.6,102.6z
			 M365.8,103.2c0.2-0.1,0.5-0.2,0.5-0.6c0-0.4-0.2-0.6-0.6-0.6c-0.3,0-0.5,0.2-0.5,0.5C365.1,102.9,365.3,103.1,365.8,103.2z"/>
		<path d="M205.4,88.6c0.4,1.8-2,3.3-3.9,3.2c-1.7-0.1-3.2-1.4-3.3-3c-0.1-1.6,1.3-3.5,2.7-3.7C202.8,84.8,205.6,86.4,205.4,88.6z"
			/>
		<path d="M190.3,84.7c0,1.2-0.9,2.2-2.2,2.2c-1.3,0-2.2-0.8-2.2-2.1c0-1.3,0.8-2.2,2.1-2.2C189.3,82.6,190.3,83.5,190.3,84.7z
			 M188.1,85.7c0.4-0.1,0.8-0.3,0.8-0.8c0-0.5-0.3-0.9-0.8-0.9c-0.5,0-0.9,0.2-0.9,0.8C187.2,85.3,187.5,85.6,188.1,85.7z"/>
		<path d="M221.8,89.8c0,1.3-0.9,2.1-2.2,2.1c-1.3,0-2.2-0.9-2.2-2.2c0-1.2,1-2.1,2.2-2.1C220.9,87.6,221.8,88.5,221.8,89.8z
			 M219.6,90.6c0.6-0.1,0.9-0.4,0.8-0.9c0-0.6-0.4-0.8-0.9-0.8c-0.5,0-0.8,0.4-0.8,0.9C218.8,90.4,219.2,90.6,219.6,90.6z"/>
		<path d="M508.1,76.9c-0.3,0-0.7,0.1-0.9-0.1c-1.3-1-2.9-1.9-3.2-3.6c-0.3-1.8,0.4-3.5,2-4.5c1.2-0.8,2.5-0.6,3.6,0.4
			c1.1,1,1.4,2.2,1,3.6c-0.2,0.6-0.1,1.2-0.1,1.8C510.5,75.7,509.3,77.1,508.1,76.9z"/>
		<path d="M494.4,68.6c-1.3,0-2.2-1-2.2-2.3c0-1.3,1-2.3,2.3-2.3c1.3,0,2.4,1.1,2.3,2.4C496.7,67.7,495.7,68.6,494.4,68.6z
			 M494.5,67.3c0.5,0,1-0.5,1-0.9c0-0.5-0.5-1-1.1-1c-0.6,0-0.9,0.4-0.9,1C493.5,66.9,493.9,67.3,494.5,67.3z"/>
		<path d="M491,61.9c-1.1,0-2.1-0.9-2.2-2.1c0-1.2,1-2.2,2.2-2.2c1.1,0,2.1,1.1,2.1,2.2C493.2,60.9,492.1,61.9,491,61.9z
			 M490.9,60.6c0.6-0.1,0.8-0.4,0.9-0.8c0.1-0.3-0.6-0.9-1-0.8c-0.4,0.1-0.8,0.4-0.7,0.9C490.3,60.3,490.6,60.5,490.9,60.6z"/>
		<path d="M500.5,84.6c0-1.2,0.9-2.2,2-2.2c1,0,2.1,1.1,2.1,2.2c0,1.1-1,2.2-2.1,2.2C501.4,86.8,500.5,85.8,500.5,84.6z M502.6,85.5
			c0.3-0.2,0.7-0.3,0.7-0.8c0-0.5-0.3-0.8-0.8-0.8c-0.4,0-0.6,0.3-0.7,0.7C501.8,85,502,85.3,502.6,85.5z"/>
		<path d="M496.6,73.4c0-1.2,0.7-1.9,1.9-1.9c1.1,0,1.9,0.8,1.9,1.9c0,1-1,2-1.9,2C497.5,75.4,496.6,74.4,496.6,73.4z M498.5,72.8
			c-0.3,0.1-0.5,0.2-0.5,0.6c0,0.3,0.2,0.6,0.5,0.6c0.3,0,0.6-0.2,0.7-0.5C499.2,73.1,498.9,72.9,498.5,72.8z"/>
		<path d="M508.8,51.8c0.9,0,1.5,0.5,1.5,1.4c0,0.9-0.5,1.5-1.5,1.4c-0.9,0-1.5-0.6-1.5-1.4C507.3,52.4,507.9,51.8,508.8,51.8z"/>
		<path d="M424.6,73.7c0,0.7-0.5,1.7-1.3,2.7c-1.1,1.3-3.6,0.9-4.4-0.7c-0.7-1.4-0.7-2.7,0-4c0.8-1.3,2.2-2.1,3.5-1.7
			C423.7,70.3,424.7,71.7,424.6,73.7z"/>
		<path d="M437.4,75.8c-1.2,0-2.3-1-2.3-2.3c0-1.3,1.1-2.3,2.4-2.3c1.3,0,2.2,1,2.2,2.3C439.6,74.8,438.6,75.8,437.4,75.8z
			 M436.4,73.5c0,0.5,0.5,1,1,1c0.5,0,0.9-0.5,0.9-1c0-0.6-0.4-1-1-1C436.9,72.6,436.4,73.1,436.4,73.5z"/>
		<path d="M408,75.3c0-1.2,1-2.3,2.1-2.3c1.2,0,2.3,1.1,2.2,2.4c0,1.2-1.1,2.3-2.2,2.3C409,77.7,408,76.6,408,75.3z M410.1,76.3
			c0.5,0,1-0.6,0.9-1c-0.1-0.5-0.4-0.8-0.9-0.9c-0.5-0.1-0.9,0.5-0.8,1C409.3,76,409.6,76.2,410.1,76.3z"/>
		<path d="M413.3,88.5c-1.1,0-2.2-1.2-2.2-2.3c0-1,1.2-2.1,2.2-2.1c1.1,0,2.1,1.1,2.2,2.3C415.6,87.3,414.3,88.5,413.3,88.5z
			 M413.4,87.1c0.4-0.1,0.7-0.3,0.8-0.8c0.1-0.4-0.4-0.9-0.8-0.9c-0.4,0.1-0.8,0.3-0.9,0.8C412.4,86.6,412.9,87.1,413.4,87.1z"/>
		<path d="M379.2,65.3c-0.5,0-0.9,0-1.3-0.5c-1.1-1.3-1.6-2.7-1.1-4.4c0.3-0.9,0.8-1.5,1.7-1.9c1-0.5,1.9-0.4,2.7,0.3
			c0.8,0.7,1.3,2,0.9,2.8c-0.3,0.6-0.4,1.3-0.6,2C381.1,64.8,380.4,65.3,379.2,65.3z"/>
		<path d="M381.9,72.1c0-1.1,1-2.1,2.1-2.2c1.1,0,2.2,1.1,2.2,2.2c0,1.1-1.2,2.2-2.3,2.2C382.8,74.3,381.9,73.2,381.9,72.1z
			 M383.2,72.2c0.1,0.5,0.4,0.7,0.8,0.7c0.5,0,0.7-0.3,0.8-0.8c0.1-0.4-0.5-0.9-0.9-0.8C383.5,71.4,383.2,71.7,383.2,72.2z"/>
		<path d="M373,52.8c-1.2,0-2-0.9-2-2.2c0-1.2,0.8-2.1,1.9-2.1c1.1,0,2.1,0.9,2.1,2.1C375.1,51.8,374.2,52.8,373,52.8z M373.8,50.6
			c-0.1-0.5-0.3-0.8-0.8-0.8c-0.5,0-0.7,0.4-0.7,0.9c0,0.4,0.3,0.7,0.7,0.7C373.4,51.4,373.7,51.1,373.8,50.6z"/>
		<path d="M372.7,79.2c0-1,0.9-2,1.8-2c1,0,1.9,1,1.9,2c0,1.1-1,2.1-2,2.1C373.6,81.2,372.7,80.3,372.7,79.2z M374.5,78.5
			c-0.3,0.1-0.5,0.3-0.5,0.7c0,0.4,0.2,0.7,0.6,0.6c0.4,0,0.6-0.3,0.6-0.6C375.2,78.9,374.9,78.6,374.5,78.5z"/>
		<path d="M382.5,52.7c-0.9,0-1.7-0.8-1.6-1.7c0-0.9,0.8-1.6,1.6-1.6c0.9,0,1.6,0.7,1.6,1.6C384.1,51.9,383.4,52.7,382.5,52.7z"/>
		<path d="M78,105c0,1.1-1.9,3.5-2.9,3.8c-1.1,0.4-2.1,0-2.9-0.9c-1.6-1.7-1.7-4-0.4-5.9c0.7-1,2.1-1.5,3.2-1.1
			C76.9,101.5,77.8,103.1,78,105z"/>
		<path d="M67.4,102.9c-1.3,0-2.5-1.2-2.5-2.5c0-1.3,1.2-2.5,2.5-2.5c1.3,0,2.4,1.1,2.4,2.4C69.8,101.7,68.7,102.9,67.4,102.9z
			 M67.3,101.6c0.6,0,1.1-0.6,1.1-1.2c0-0.5-0.5-1-1.1-1.1c-0.5,0-1.2,0.6-1.2,1.1C66.2,101,66.8,101.6,67.3,101.6z"/>
		<path d="M67.8,114.5c0,1.3-1,2.3-2.3,2.3c-1.3,0-2.4-1.1-2.4-2.4c0-1.2,1.1-2.3,2.3-2.3C66.8,112.1,67.8,113.2,67.8,114.5z
			 M64.5,114.5c0,0.5,0.5,1,1,1c0.6,0,1-0.5,1-1.1c0-0.6-0.5-0.9-1-0.9C65,113.5,64.5,114,64.5,114.5z"/>
		<path d="M83.4,99c-1.2,0-2.2-1-2.2-2.2c0-1.2,1-2.2,2.2-2.2c1.3,0,2.1,0.9,2.1,2.2C85.6,98.1,84.7,99.1,83.4,99z M84.3,96.9
			c0-0.5-0.3-0.9-0.8-0.9c-0.5,0-0.9,0.4-0.9,0.9c0,0.5,0.3,0.8,0.8,0.8C83.9,97.8,84.3,97.4,84.3,96.9z"/>
		<path d="M97,54.9c-2,0-3.6-2.4-2.8-4.3c0-0.1,0.1-0.2,0.1-0.2c0.5-1,1.2-1.9,2.4-1.7c1.1,0.1,2,0.8,2.3,1.9
			c0.1,0.3,0.2,0.5,0.3,0.8C100.1,53.4,99,54.9,97,54.9z"/>
		<path d="M87.1,61.3c-1.2,0-2.2-0.9-2.3-2.1c0-1.2,0.9-2.2,2.1-2.2c1.3,0,2.2,0.9,2.2,2.1C89.2,60.3,88.4,61.3,87.1,61.3z M87,59.9
			c0.5,0,0.9-0.3,0.9-0.9c0-0.5-0.3-0.8-0.7-0.8c-0.5-0.1-0.9,0.3-1,0.8C86.1,59.5,86.6,59.9,87,59.9z"/>
		<path d="M85.1,43.8c0-1.2,0.9-2,2.1-2c1.2,0,1.9,0.8,1.9,2c0,1.2-0.9,2.2-2,2.2C86.2,46,85.1,44.9,85.1,43.8z M86.5,43.8
			c0.1,0.4,0.4,0.8,0.8,0.8c0.4,0,0.6-0.3,0.7-0.7c0-0.4-0.1-0.7-0.6-0.8C86.9,43.1,86.5,43.3,86.5,43.8z"/>
		<path d="M104.2,40.7c0-1.1,0.9-2,1.9-1.9c1,0,1.9,1,1.9,2c0,1.1-1,2.1-2,2C105,42.7,104.2,41.8,104.2,40.7z M105.6,40.8
			c0,0.3,0.2,0.7,0.5,0.7c0.4,0,0.6-0.3,0.6-0.6c0-0.4-0.2-0.6-0.6-0.7C105.7,40.1,105.6,40.4,105.6,40.8z"/>
		<path d="M258.5,79.8c0.2-1.7,0.8-3.6,2.9-4.1c1.3-0.3,2.3,0,3.1,0.9c0.8,0.9,1.2,1.9,1.6,3c0.1,0.5,0.1,1-0.2,1.3
			c-0.6,0.5-0.7,1.1-1,1.7c-0.6,1.2-1.6,1.7-2.8,2c-0.3,0.1-0.6-0.1-0.9-0.3C259.9,83.6,258.6,81.2,258.5,79.8z"/>
		<path d="M256.9,70.7c-1.1,0-2.2-1.2-2.2-2.2c0-1.1,1.1-2.1,2.2-2.1c1.1,0,2.1,1,2.2,2.1C259.1,69.6,258,70.7,256.9,70.7z
			 M256.8,69.4c0.4-0.1,0.8-0.3,0.8-0.8c0.1-0.5-0.3-0.8-0.7-0.9c-0.4-0.1-1,0.4-0.9,0.8C256.1,69,256.4,69.2,256.8,69.4z"/>
		<path d="M262.4,93.2c0-1.1,1.1-2.2,2.1-2.1c1.1,0,2,1,2,2.2c0,1.2-1,2.2-2.1,2.1C263.4,95.4,262.4,94.3,262.4,93.2z M263.8,93.3
			c0.1,0.4,0.4,0.8,0.8,0.8c0.5,0,0.7-0.4,0.6-0.9c0-0.4-0.3-0.7-0.7-0.7C264.1,92.5,263.8,92.8,263.8,93.3z"/>
		<path d="M264.4,69.2c0-1.2,0.9-2.1,2.2-2c1.2,0.1,1.9,0.8,1.9,2.1c0,1.2-0.9,2.1-2,2.1C265.3,71.3,264.4,70.3,264.4,69.2z
			 M267.1,69.2c0-0.4-0.2-0.7-0.7-0.7c-0.5,0-0.8,0.2-0.8,0.8c0,0.4,0.3,0.7,0.7,0.7C266.9,70,267.1,69.7,267.1,69.2z"/>
		<path d="M255.2,93.3c-0.9,0-1.6-0.7-1.6-1.7c0-1,0.7-1.8,1.7-1.8c1,0,1.6,0.7,1.6,1.8C256.8,92.7,256.2,93.3,255.2,93.3z
			 M255.2,92c0.2-0.1,0.3-0.2,0.2-0.4c0-0.2,0-0.4-0.3-0.3c-0.2,0.1-0.3,0.2-0.3,0.4C254.9,91.8,255,92,255.2,92z"/>
		<path d="M148.9,46.7c0,0.5-0.2,1-0.4,1.5c-0.3,0.5-0.7,0.5-1.2,0.4c-0.2,0-0.3,0.1-0.5,0.2c-1,0.3-1.6,0.1-2.3-0.8
			c-1-1.3-1.1-2.5-0.1-3.8c0.9-1.2,2.3-1.2,3.3,0C148.2,44.9,148.8,45.7,148.9,46.7z"/>
		<path d="M144.9,63.8c-1.1,0-2.2-1.1-2.2-2.2c0-1.1,1.2-2.2,2.3-2.1c1.1,0,2.1,1,2.1,2.2C147,62.8,146,63.8,144.9,63.8z
			 M145.7,61.7c0-0.4-0.3-0.9-0.7-0.9c-0.4-0.1-1,0.4-1,0.8c0,0.4,0.5,0.9,0.9,0.9C145.3,62.4,145.6,62.1,145.7,61.7z"/>
		<path d="M140.2,41.8c-1.1,0-2.2-1.1-2.2-2.2c0-1.1,1.1-2.1,2.2-2.1c1.1,0,2.1,1,2.2,2.1C142.3,40.7,141.3,41.8,140.2,41.8z
			 M140.2,40.5c0.4-0.1,0.8-0.3,0.8-0.8c0-0.5-0.3-0.8-0.7-0.8c-0.4-0.1-1,0.5-0.9,0.9C139.4,40.1,139.7,40.4,140.2,40.5z"/>
		<path d="M150.3,29.1c0,1.1-1,2.2-2,2.2c-1.1,0-2-1-2-2.2c0-1.3,0.7-2,1.9-2C149.4,27,150.3,27.8,150.3,29.1z M148.1,29.9
			c0.4-0.1,0.7-0.3,0.8-0.8c0-0.4-0.3-0.7-0.7-0.7c-0.4-0.1-0.7,0.1-0.8,0.6C147.5,29.4,147.7,29.7,148.1,29.9z"/>
		<path d="M150.6,97.4c0,1.5-1,2.5-2.3,2.5c-1.3,0-2.3-1.1-2.3-2.4c0-1.4,1.1-2.5,2.4-2.5C149.5,95,150.9,95.9,150.6,97.4z
			 M149.3,97.4c0-0.7-0.4-1.1-0.9-1.1c-0.6,0-1.1,0.5-1.1,1.2c0,0.6,0.5,1,1.1,1C148.9,98.5,149.3,98.1,149.3,97.4z"/>
		<path d="M161.4,83.9c-1.3-0.1-2.2-1.1-2.1-2.4c0.1-1.3,1.1-2.2,2.4-2.2c1.3,0,2.3,1.1,2.2,2.4C163.8,83,162.7,84,161.4,83.9z
			 M161.5,82.6c0.4,0,1-0.5,1.1-0.9c0.1-0.5-0.5-1.1-1-1.1c-0.5,0-1,0.5-1,1C160.6,82.1,161,82.6,161.5,82.6z"/>
		<path d="M150.9,85.2c0-1.4,0.9-2.2,2.3-2.3c1.2-0.1,2.4,1.2,2.3,2.4c0,1.1-1.1,2.3-2.3,2.2C151.8,87.4,150.9,86.6,150.9,85.2z
			 M153.2,84.2c-0.5,0-0.9,0.5-1,1c0,0.6,0.5,1.1,1,1.1c0.5,0,1-0.5,1-1C154.3,84.7,153.7,84.2,153.2,84.2z"/>
		<path d="M155.9,96.5c0-1.3,1-2.4,2.2-2.4c1.1,0,2.2,1.1,2.2,2.3c0,1.2-1.1,2.4-2.2,2.4C156.9,98.8,155.9,97.7,155.9,96.5z
			 M158,97.4c0.4,0,1-0.5,1-1c0-0.5-0.3-0.9-0.8-0.9c-0.5-0.1-0.8,0.3-0.9,0.8C157.2,96.9,157.5,97.4,158,97.4z"/>
		<path d="M469.1,81.7c0-2.1,1-3.5,2.7-4.6c0,0,0.1-0.1,0.1-0.1c1-0.5,2.4-0.2,3.5,0.9c1,1,1.8,2.1,1.3,3.5
			c-0.2,0.5-0.2,0.9-0.1,1.4c0.4,1.8-0.9,3.5-2.8,3.6C470.8,86.5,469.1,84.8,469.1,81.7z"/>
		<path d="M469.9,91.1c0,1.3-1,2.4-2.3,2.4c-1.2,0-2.3-1.1-2.3-2.3c0-1.3,1.1-2.4,2.4-2.4C468.9,88.9,469.9,89.9,469.9,91.1z
			 M468.6,91.2c0-0.6-0.4-1-0.9-1c-0.6,0-1.1,0.4-1.1,1c0,0.5,0.5,1,1.1,1C468.2,92.1,468.6,91.7,468.6,91.2z"/>
		<path d="M477.2,87.7c0-1.2,1-2.2,2.1-2.2c1.1,0,2.2,1.1,2.2,2.2c0,1.1-1,2.1-2.1,2.2C478.2,89.9,477.2,88.9,477.2,87.7z
			 M480.2,87.7c0-0.4-0.5-0.9-0.9-0.9c-0.5,0-0.8,0.3-0.8,0.8c0,0.5,0.2,0.8,0.7,0.9C479.6,88.6,480.2,88.1,480.2,87.7z"/>
		<path d="M457.1,79.9c-0.9,0-1.8-0.9-1.8-1.8c0-0.9,0.9-1.8,1.9-1.8c0.9,0,1.8,0.9,1.8,1.8C459,79.1,458.1,79.9,457.1,79.9z
			 M457.2,78.5c0.2,0,0.4-0.1,0.4-0.4c0-0.3-0.2-0.5-0.5-0.5c-0.3,0-0.5,0.2-0.5,0.4C456.7,78.3,456.9,78.5,457.2,78.5z"/>
		<path d="M307.7,81.3c0-1.5,0.9-2.5,2.1-3.1c0.6-0.3,1.6,0.1,2,0.8c0.6,1.1,0.3,3.3-0.6,4.1c-0.5,0.5-1.6,0.7-2.3,0.4
			C308,83,307.6,82.3,307.7,81.3z"/>
		<path d="M317.2,104.1c-1.2,0-2.2-1-2.2-2.2c0-1.1,1.1-2.2,2.3-2.1c1.1,0,2.1,1,2.1,2.1C319.3,103.2,318.4,104.1,317.2,104.1z
			 M318,102c0-0.5-0.3-0.8-0.8-0.9c-0.4-0.1-0.9,0.4-1,0.8c0,0.4,0.5,0.9,0.9,0.9C317.6,102.8,317.9,102.5,318,102z"/>
		<path d="M317.3,58.1c0,1.2-0.8,2-1.9,2.1c-1.3,0.1-2.1-0.7-2.1-2c0-1.2,0.7-2,1.9-2.1C316.3,56,317.2,56.8,317.3,58.1z
			 M315.1,58.8c0.5,0,0.8-0.2,0.8-0.7c0-0.4-0.3-0.7-0.7-0.7c-0.5,0-0.7,0.2-0.7,0.7C314.5,58.5,314.7,58.8,315.1,58.8z"/>
		<path d="M314,93.5c0,1.2-0.7,2-1.8,2c-1,0-1.8-0.8-1.8-1.9c0-1.1,0.7-1.9,1.8-1.9C313.3,91.6,314,92.3,314,93.5z M312,94
			c0.5,0.1,0.7-0.1,0.7-0.3c0-0.3,0-0.6-0.3-0.7c-0.3-0.1-0.5,0.1-0.5,0.4C311.8,93.7,311.9,94,312,94z"/>
		<path d="M311.7,64.9c0.9,0,1.5,0.5,1.5,1.4c0,0.9-0.5,1.5-1.5,1.4c-0.9,0-1.5-0.6-1.5-1.4C310.3,65.4,310.9,64.9,311.7,64.9z"/>
		<path d="M339.9,41c0,1.5-0.6,2.3-2,2.7c-2.5,0.7-4.2-1.3-4.3-3.2c-0.1-0.8,0.3-1.3,0.8-1.8c0.4-0.4,0.8-0.7,1.3-1
			c1-0.6,1.5-0.6,2.2,0.4c0.5,0.6,1.3,0.8,1.6,1.6C339.7,40.1,339.9,40.5,339.9,41z"/>
		<path d="M325.6,36c0,1-1,2.2-2,2.2c-1.1,0.1-2.2-1-2.3-2.1c0-1.1,0.9-2.2,2-2.2C324.4,33.8,325.6,34.9,325.6,36z M323.3,36.9
			c0.5,0,0.8-0.3,0.9-0.7c0.1-0.4-0.4-0.9-0.8-0.9c-0.5,0-0.8,0.3-0.8,0.8C322.6,36.5,322.9,36.7,323.3,36.9z"/>
		<path d="M354,45.7c-1.1,0-2.2-1.1-2.1-2.3c0-1.1,1.1-2.1,2.2-2.1c1.1,0,2.2,1.2,2.2,2.3C356.1,44.7,355,45.7,354,45.7z M354,44.4
			c0.5-0.1,0.8-0.4,0.9-0.8c0.1-0.4-0.5-0.9-0.9-0.9c-0.4,0.1-0.8,0.3-0.7,0.8C353.2,44,353.5,44.3,354,44.4z"/>
		<path d="M317.5,45.2c-1.2,0-2-0.7-2-2c0-1.3,0.7-2.1,2-2.2c1.2,0,2.1,0.9,2.1,2.1C319.5,44.3,318.6,45.2,317.5,45.2z M317.5,43.8
			c0.3,0,0.7-0.2,0.6-0.8c0-0.4-0.3-0.6-0.7-0.6c-0.5,0-0.7,0.3-0.7,0.7C316.8,43.5,316.9,43.8,317.5,43.8z"/>
		<path d="M347.3,50.5c-1,0-1.9-0.9-1.9-2c0-1.2,0.8-2.1,1.9-2c1,0,1.9,1,1.8,2C349.2,49.6,348.3,50.5,347.3,50.5z M346.8,48.6
			c0,0.3,0.2,0.6,0.6,0.6c0.3,0,0.6-0.3,0.6-0.7c0-0.4-0.3-0.6-0.6-0.6C346.9,47.9,346.8,48.2,346.8,48.6z"/>
		<path d="M284.3,45.1c0.1-1,0.3-1.8,1.2-2.3c1.1-0.6,2.2-0.3,3.1,0.4c1.2,0.9,1.7,2.3,2.1,3.7c0.2,0.6-0.1,1.2-0.4,1.7
			c-0.1,0.2-0.4,0.5-0.5,0.4c-1.1-0.4-2.2,0.2-3.3-0.4C285,47.7,284.6,46.4,284.3,45.1z"/>
		<path d="M281.7,37.4c0,1-1,2.1-2.1,2.2c-1.1,0.1-2.2-1-2.2-2.2c0-1.1,1-2.1,2.1-2.2C280.5,35.2,281.7,36.3,281.7,37.4z
			 M279.5,38.3c0.5-0.1,0.8-0.4,0.8-0.8c0.1-0.4-0.5-0.9-0.9-0.9c-0.4,0.1-0.7,0.4-0.7,0.8C278.7,37.9,279.1,38.2,279.5,38.3z"/>
		<path d="M282.4,55.3c-1.3,0-2-0.8-2-2.1c0-1.2,0.8-1.9,2-1.9c1.2,0,2,0.8,2,2C284.5,54.5,283.7,55.3,282.4,55.3z M282.4,54
			c0.4-0.1,0.8-0.2,0.8-0.8c0-0.4-0.4-0.7-0.7-0.7c-0.4,0-0.7,0.2-0.7,0.7C281.7,53.6,281.9,53.9,282.4,54z"/>
		<path d="M301.7,54.9c0,1.2-0.7,2-1.9,2.1c-1.3,0.1-2.1-0.7-2.1-2c0-1.3,0.7-2,1.9-2.1C300.8,52.9,301.7,53.6,301.7,54.9z
			 M299,54.9c0,0.5,0.3,0.7,0.7,0.7c0.4,0,0.7-0.2,0.7-0.7c0-0.5-0.4-0.7-0.8-0.7C299.1,54.2,299,54.5,299,54.9z"/>
		<path d="M202.9,45.6c-0.5,1.1-0.8,2.6-2.1,3.4c-1.2,0.8-2.7,0.3-3.5-0.8c-1.3-1.7-0.5-5.4,1.6-6.1c1.3-0.5,2.7-0.1,3.3,1.1
			C202.6,43.9,202.8,44.6,202.9,45.6z"/>
		<path d="M194.8,53.9c1.2,0,2.2,1.1,2.2,2.4c0,1.3-1.1,2.3-2.3,2.3c-1.3-0.1-2.1-1-2-2.5C192.6,54.8,193.6,53.8,194.8,53.9z
			 M195.7,56.2c0-0.5-0.5-1-1-0.9c-0.5,0.1-0.8,0.4-0.8,1c0,0.6,0.3,0.9,0.8,0.9C195.2,57.2,195.7,56.7,195.7,56.2z"/>
		<path d="M202,61.9c0,1.2-1.1,2.2-2.2,2.1c-1.1,0-2.1-1.1-2.1-2.2c0-1.1,1.1-2.2,2.2-2.2C201.1,59.7,202.1,60.7,202,61.9z
			 M199.9,62.7c0.4,0,0.7-0.3,0.8-0.7c0.1-0.4-0.3-1-0.8-0.9c-0.5,0-0.8,0.3-0.9,0.7C198.9,62.1,199.4,62.7,199.9,62.7z"/>
		<path d="M101.5,89.4c0-1.7,0.6-2.6,1.7-3.1c1.1-0.4,2.1-0.1,2.7,0.9c0.5,0.8,0.7,1.8,0.8,2.7c0.1,0.8-0.8,2-1.5,2.3
			c-0.8,0.4-2,0.1-2.6-0.6C101.8,91,101.5,90.1,101.5,89.4z"/>
		<path d="M98.3,78.3c-1.1-0.1-2.1-1.1-2-2.2c0-1.2,1.2-2.2,2.4-2.1c1.1,0.1,2,1.1,1.9,2.3C100.6,77.5,99.5,78.4,98.3,78.3z
			 M98.4,77c0.4,0,0.8-0.4,0.8-0.8c0-0.4-0.4-1-0.8-0.9c-0.4,0-0.8,0.3-0.9,0.8C97.5,76.5,98,77,98.4,77z"/>
		<path d="M97.3,102.9c0-1.3,0.8-2.2,2-2.2c1.1,0,2.1,1,2.1,2.1c0,1.1-0.9,2.1-2,2.1C98.2,105,97.3,104.1,97.3,102.9z M98.6,102.8
			c0,0.5,0.3,0.9,0.7,0.8c0.4,0,0.7-0.4,0.7-0.8c0-0.4-0.3-0.7-0.7-0.7C98.9,102,98.6,102.3,98.6,102.8z"/>
		<path d="M107.1,106.8c-1,0-1.9-1-1.9-2c0.1-1,0.9-1.8,1.9-1.8c1.1,0,1.9,0.9,1.9,2C108.9,106,108.1,106.8,107.1,106.8z M106.5,105
			c0.1,0.3,0.3,0.5,0.6,0.5c0.4,0,0.5-0.3,0.5-0.7c-0.1-0.3-0.3-0.5-0.6-0.4C106.7,104.5,106.5,104.7,106.5,105z"/>
		<path d="M71.2,70.9c0.1,0.9-0.5,1.5-1.3,1.9c-0.9,0.4-1.9,0.6-2.7-0.1c-1.6-1.3-1.6-4,0-5c0.7-0.5,1.5-0.5,2.2-0.1
			C70.5,68.3,71.2,69.5,71.2,70.9z"/>
		<path d="M68.5,82.7c-1.2,0-2.3-1.1-2.3-2.3c0-1.3,1.1-2.4,2.4-2.4c1.3,0,2.3,1.1,2.3,2.4C70.8,81.7,69.8,82.7,68.5,82.7z
			 M69.5,80.3c0-0.6-0.5-0.9-1-0.9c-0.5,0-1,0.5-1,1c0,0.5,0.6,1,1.1,1C69.2,81.3,69.6,80.8,69.5,80.3z"/>
		<path d="M77,77.2c0-1.1,0.7-1.9,1.7-2c0.9,0,1.8,0.8,1.8,1.9c0,1-0.8,1.9-1.7,2C77.8,79.1,77,78.2,77,77.2z M78.7,77.7
			c0.2,0,0.4-0.1,0.5-0.4c0.1-0.3,0-0.5-0.3-0.7c-0.3-0.1-0.4,0-0.5,0.3C78.3,77.2,78.3,77.5,78.7,77.7z"/>
		<path d="M66.4,59.2c0,0.9-0.8,1.8-1.7,1.8c-0.9,0-1.8-0.9-1.8-1.8c0-0.9,0.9-1.8,1.8-1.8C65.6,57.5,66.4,58.3,66.4,59.2z
			 M65.1,59.2c-0.1-0.2-0.1-0.4-0.3-0.4c-0.3,0-0.5,0.2-0.5,0.4c0,0.2,0.2,0.4,0.5,0.4C65,59.6,65,59.4,65.1,59.2z"/>
		<path d="M254.9,47.8c-2,0-3.5-1.5-3.6-3.4c0-1.5,1.6-3.1,3.1-3.1c1.6,0,3.6,1.8,3.6,3.4C258.1,46.4,256.8,47.8,254.9,47.8z"/>
		<path d="M241.3,51.4c0-0.9,1-2.2,2.3-2.1c1.2,0.1,2.1,1.1,2.1,2.3c0,1.1-1,2-2.2,2C242.4,53.7,241.3,52.4,241.3,51.4z M243.6,52.3
			c0.4-0.1,0.7-0.4,0.8-0.8c0-0.4-0.5-1-0.9-0.9c-0.4,0.1-0.8,0.4-0.8,0.8C242.6,51.8,243.2,52.3,243.6,52.3z"/>
		<path d="M259.4,49.4c0-1.1,0.9-2,2-2c1.2,0,2.1,0.9,2,2.1c0,1.1-0.9,1.9-2.1,1.9C260.3,51.4,259.4,50.4,259.4,49.4z M260.7,49.4
			c0.1,0.4,0.4,0.6,0.7,0.7c0.4,0.1,0.8-0.4,0.7-0.8c-0.1-0.4-0.3-0.7-0.7-0.6C261,48.7,260.7,49,260.7,49.4z"/>
		<path d="M246,37c0,1.2-0.7,1.9-1.9,1.9c-1.1,0-2-0.8-1.9-1.9c0-1,0.8-1.8,1.8-1.8C245.2,35.1,245.9,35.8,246,37z M243.5,37.1
			c0.1,0.3,0.3,0.5,0.7,0.5c0.4-0.1,0.5-0.3,0.5-0.7c-0.1-0.3-0.3-0.5-0.6-0.4C243.7,36.5,243.5,36.7,243.5,37.1z"/>
		<path d="M76.7,26.9c0,0.4,0,0.7-0.1,1.1c-0.2,1.1-0.4,1.3-1.5,1.4c-0.1,0-0.3,0-0.4,0.1c-2.5,0.6-4.4-1.3-3.7-3.8
			c0.2-0.7,0.5-1.3,1-1.8c0.5-0.5,1.1-0.8,1.9-0.6C75.4,23.6,76.7,25.3,76.7,26.9z"/>
		<path d="M79.2,34.2c-1.1,0-2.1-1-2.2-2.1c0-1.2,1-2.2,2.2-2.2c1.1,0,2.1,1.1,2.1,2.2C81.3,33.1,80.3,34.1,79.2,34.2z M80,32
			c-0.1-0.4-0.3-0.8-0.8-0.8c-0.5,0-0.8,0.3-0.9,0.7c-0.1,0.4,0.4,1,0.8,0.9C79.6,32.8,79.9,32.5,80,32z"/>
		<path d="M83.2,20.3c-1.1,0-2.2-1-2.2-2.1c-0.1-1.1,1-2.2,2.2-2.2c1.1,0,2.1,1,2.1,2.1C85.3,19.2,84.4,20.2,83.2,20.3z M83.2,18.9
			c0.3,0,0.8-0.4,0.8-0.8c0-0.5-0.3-0.8-0.7-0.9c-0.3-0.1-1,0.5-0.9,0.8C82.4,18.6,82.7,18.9,83.2,18.9z"/>
		<path d="M70.7,40.2c-1.2,0-2.1-0.9-2.1-2.1c0-1.2,0.7-2,1.9-2.1c1.2-0.1,2.1,0.8,2.2,2C72.8,39.2,71.9,40.2,70.7,40.2z M70.7,38.8
			c0.4,0,0.7-0.2,0.7-0.6c0.1-0.5-0.3-0.8-0.7-0.8c-0.5,0-0.7,0.3-0.7,0.7C70,38.5,70.2,38.8,70.7,38.8z"/>
		<path d="M123.2,71c0.1-0.3,0.1-0.8,0.3-1.2c0.4-1.2,1.5-2,2.5-1.8c1.3,0.2,2.3,1.4,2.2,2.8c0,0.5-0.1,1.1-0.1,1.6
			c0,0.9-0.6,1.6-1.4,1.9c-0.7,0.3-1.4,0.1-2.1-0.3C123.7,73.3,123.3,72.3,123.2,71z"/>
		<path d="M126.5,60.3c0.2,1.4-1.2,2.3-2.2,2.3c-1.1,0-2.2-1.1-2.2-2.3c0-1.2,1.1-2.4,2.3-2.3C125.6,58.1,126.7,59.3,126.5,60.3z
			 M123.4,60.5c0.1,0.4,0.4,0.7,0.9,0.7c0.5,0,0.9-0.4,0.8-1c0-0.5-0.3-0.8-0.8-0.8C123.8,59.4,123.4,59.9,123.4,60.5z"/>
		<path d="M118.6,74.9c-1.1,0-2.2-1.1-2.1-2.3c0-1.1,1.1-2.1,2.2-2.1c1.1,0,2.2,1.2,2.2,2.3C120.7,73.9,119.6,74.9,118.6,74.9z
			 M119.5,72.7c-0.1-0.4-0.4-0.8-0.8-0.8c-0.4-0.1-0.9,0.4-0.8,0.9c0.1,0.5,0.4,0.8,0.8,0.7C119.1,73.5,119.3,73.1,119.5,72.7z"/>
		<path d="M127.3,86c-1.1,0-2.1-1-2.2-2.1c-0.1-1.1,1-2.3,2.1-2.3c1.1,0,2.2,1.1,2.2,2.2C129.4,84.9,128.3,86,127.3,86z M127.2,84.6
			c0.4,0,0.9-0.5,0.9-0.8c0-0.4-0.5-0.9-0.9-0.8c-0.4,0.1-0.7,0.4-0.7,0.9C126.5,84.3,126.8,84.6,127.2,84.6z"/>
		<path d="M344.4,65.3c0-1.3,0.6-2.2,1.6-2.3c1.1-0.1,2.6,0.9,2.7,1.9c0.1,0.4,0,0.8-0.3,1.1c-0.2,0.2-0.4,0.3-0.6,0.6
			c-0.4,0.7-1.1,1.1-1.9,0.8c-0.8-0.3-1.3-1-1.5-1.8C344.4,65.5,344.4,65.3,344.4,65.3z"/>
		<path d="M352.7,71.9c0,1.1-1.1,2.1-2.1,2.1c-1.1,0-2.2-1.1-2.2-2.2c0-1.1,1.1-2.1,2.2-2.1C351.6,69.7,352.7,70.8,352.7,71.9z
			 M350.4,72.7c0.4,0,0.8-0.3,0.9-0.8c0-0.5-0.3-0.8-0.7-0.9c-0.4-0.1-1,0.4-0.9,0.8C349.7,72.3,350,72.6,350.4,72.7z"/>
		<path d="M360.2,65c0.2,1.1-0.8,1.9-1.9,1.9c-1.2,0-1.9-0.9-1.9-2.1c0-1.2,0.8-2,2-1.9C359.6,62.9,360.2,63.7,360.2,65z M357.7,65
			c0,0.5,0.3,0.6,0.7,0.6c0.4,0,0.5-0.4,0.5-0.7c0-0.4-0.2-0.7-0.6-0.7C357.8,64.2,357.7,64.5,357.7,65z"/>
		<path d="M331.1,57.6c0-1,0.9-2,1.9-2c1,0,1.9,1,1.9,2.1c0,1-0.9,2-1.9,2C332,59.6,331.1,58.6,331.1,57.6z M333.5,57.4
			c-0.1-0.2-0.2-0.6-0.6-0.5c-0.3,0.1-0.6,0.3-0.5,0.7c0,0.4,0.3,0.6,0.6,0.6C333.4,58.2,333.6,57.9,333.5,57.4z"/>
		<path d="M173.5,64.6c-2.2,0-4-2.4-3.5-4.8c0.3-1.4,0.9-2.6,2.4-3.2c1.6-0.6,2.6-0.2,3.6,1.2c1.1,1.6,0.9,3.2,0.5,4.9
			C176.2,63.9,174.9,64.6,173.5,64.6z"/>
		<path d="M183.3,62.5c-1.1-0.1-2.1-1.2-2-2.2c0.1-1.1,1.2-2.1,2.4-2c1.2,0.1,2.1,1.2,2,2.4C185.6,61.7,184.5,62.6,183.3,62.5z
			 M183.6,61.2c0.4-0.1,0.7-0.3,0.8-0.8c0.1-0.4-0.4-0.9-0.8-0.9c-0.4,0.1-0.8,0.3-0.9,0.7C182.6,60.7,183,61.1,183.6,61.2z"/>
		<path d="M165.3,54.9c0,1.1-1.2,2.2-2.3,2.2c-1.1-0.1-2-1.1-2.1-2.2c-0.1-1.1,1.2-2.1,2.1-2.2C164.1,52.7,165.3,53.8,165.3,54.9z
			 M163,55.7c0.4,0,1-0.4,1-0.8c0-0.5-0.4-0.7-0.8-0.8c-0.4-0.1-0.9,0.3-0.9,0.8C162.3,55.4,162.6,55.6,163,55.7z"/>
		<path d="M123.4,30.6c0-0.6,0-1,0.3-1.4c0.9-1.5,2.5-1.4,3.4,0.1c1,1.6,0.6,3.1-1,3.9c-1,0.5-2,0-2.4-1
			C123.5,31.6,123.3,31.1,123.4,30.6z"/>
		<path d="M122.3,43.1c0-1.4,0.8-2.2,2-2.3c1.3,0,2.3,0.9,2.3,2.2c0,1.3-0.9,2.2-2.2,2.2C123.2,45.2,122.3,44.4,122.3,43.1z
			 M124.4,43.8c0.5,0,0.9-0.3,0.9-0.8c0-0.6-0.3-0.9-0.8-0.9c-0.6,0-0.9,0.3-0.9,0.8C123.6,43.5,123.9,43.8,124.4,43.8z"/>
		<path d="M121.1,28.7c0,1.1-1,2-2,2c-1.2,0-2.1-0.9-2-2.1c0-1.1,0.9-2,2.1-2C120.2,26.7,121.1,27.6,121.1,28.7z M118.3,28.6
			c0,0.4,0.2,0.7,0.6,0.8c0.4,0,0.7-0.2,0.8-0.6c0-0.4-0.2-0.7-0.7-0.7C118.6,27.9,118.4,28.2,118.3,28.6z"/>
		<path d="M126.7,17.8c0-0.9,0.6-1.5,1.4-1.5c0.8,0,1.5,0.7,1.5,1.5c0,0.8-0.7,1.5-1.5,1.5C127.3,19.3,126.7,18.7,126.7,17.8z"/>
		<path d="M288.4,77.8c-1.1,0-2.3-1.2-2.3-2.3c0-1.3,1.3-2.8,2.4-2.8c0.8,0,2.2,1.5,2.2,2.5C290.7,76.4,289.5,77.7,288.4,77.8z"/>
		<path d="M280.8,84.7c-1.1,0-2.2-1-2.2-2.1c0-1.1,1.1-2.2,2.2-2.2c1.1,0,2.1,1,2.1,2.2C282.9,83.7,281.9,84.7,280.8,84.7z
			 M280.8,83.4c0.4-0.1,0.7-0.3,0.7-0.8c0-0.5-0.3-0.8-0.7-0.9c-0.3-0.1-1,0.5-0.9,0.8C280,83,280.3,83.3,280.8,83.4z"/>
		<path d="M291,66.4c0-1,0.9-2,1.8-2c1,0,1.9,1,1.9,2c0,1.1-1,2.1-2,2.1C291.9,68.5,291,67.5,291,66.4z M292.9,67.1
			c0.4-0.1,0.6-0.3,0.6-0.7c0-0.4-0.2-0.6-0.6-0.6c-0.4,0-0.6,0.3-0.6,0.6C292.3,66.8,292.5,67.1,292.9,67.1z"/>
		<path d="M280.4,70c0-1.2,0.6-1.8,1.8-1.8c1,0,1.7,0.7,1.8,1.7c0,1.1-0.8,2-1.8,2C281.1,71.9,280.4,71.2,280.4,70z M282.6,70
			c0-0.3-0.2-0.5-0.5-0.5c-0.2,0-0.4,0.2-0.4,0.5c0,0.3,0.1,0.6,0.4,0.6C282.5,70.6,282.6,70.3,282.6,70z"/>
		<path d="M392.4,100.3c0-0.2,0-0.5,0.1-0.7c0.2-1.3,1.1-2.1,2.3-2.3c1.1-0.3,1.9,0.6,2.5,1.4c0.7,0.9,1,2.1,0.2,3.2
			c-0.1,0.2-0.2,0.3-0.2,0.5c-0.2,0.8-0.6,1.4-1.6,1.4c-1.1,0-2.1-0.2-2.7-1.3C392.5,101.8,392.4,101.1,392.4,100.3z"/>
		<path d="M425,49.1c0-1.9,1-3.1,2.7-3.1c1.6-0.1,3.3,1.1,3.5,3.6c0.1,1.5-1.6,3.1-3.1,3.1C426.3,52.6,425,51.1,425,49.1z"/>
		<path d="M434.6,46.6c-1-0.1-1.8-1.1-1.8-2.1c0.1-1.1,1-1.8,2.1-1.8c1.1,0.1,1.9,1,1.7,2.2C436.5,45.9,435.5,46.7,434.6,46.6z
			 M435.3,44.7c0-0.4-0.1-0.6-0.5-0.6c-0.4,0-0.6,0.2-0.6,0.6c0,0.3,0.2,0.5,0.5,0.5C435,45.3,435.2,45.1,435.3,44.7z"/>
		<path d="M403,55.4c-1.6,0-3.2-1.7-3-3.3c0.1-1,0.4-2,1.2-2.9c0.9-0.9,1.8-1.2,3-1c1.3,0.2,2,1.2,2.1,2.3c0.1,1.1-0.3,2.3-0.9,3.3
			c-0.5,0.8-1.3,1.2-2.1,1.5C403.2,55.5,403.1,55.4,403,55.4z"/>
		<path d="M401.5,63.8c-1.2,0-2.2-1-2.1-2.2c0-1.1,1-2.1,2.1-2.1c1.1,0,2.2,1,2.3,2.2C403.7,62.7,402.6,63.8,401.5,63.8z
			 M402.4,61.6c0-0.4-0.6-0.9-1-0.8c-0.5,0.1-0.7,0.4-0.7,0.9c0,0.5,0.3,0.8,0.8,0.8C401.9,62.5,402.4,61.9,402.4,61.6z"/>
		<path d="M168.8,35.7c0.1-1.5,0.8-2.5,2-3.2c0.9-0.5,2.5-0.1,3.2,1c0.9,1.4,1.5,2.9,0.6,4.7c-0.8,1.5-2.9,2.1-4.2,1
			C169.4,38.2,168.8,37.1,168.8,35.7z"/>
		<path d="M177,38.9c0-1.3,0.7-2.1,2-2.1c1.2,0,2,0.8,2,2c0,1.2-0.8,2.1-2.1,2.1C177.8,40.8,177.1,40.1,177,38.9z M179,39.5
			c0.4-0.1,0.8-0.2,0.8-0.8c0-0.4-0.3-0.7-0.7-0.7c-0.4,0-0.7,0.2-0.7,0.7C178.3,39.2,178.5,39.5,179,39.5z"/>
		<path d="M164.2,34.2c0,1.1-0.9,1.9-2,1.9c-1.1,0-1.8-0.8-1.8-2c0-1.1,0.8-1.9,1.9-1.9C163.4,32.2,164.2,33.1,164.2,34.2z
			 M162.3,34.7c0.3,0,0.6-0.2,0.5-0.6c0-0.4-0.3-0.5-0.6-0.5c-0.3,0-0.5,0.2-0.5,0.5C161.7,34.4,161.9,34.7,162.3,34.7z"/>
		<path d="M54,33.9c-1.2,0-2-0.7-2.3-1.9c-0.4-1.4-0.2-2.6,0.9-3.6c1-0.9,2.2-0.7,2.9,0.4c0.3,0.5,0.6,1.1,0.9,1.7
			C57.2,32.1,55.6,34,54,33.9z"/>
		<path d="M53.1,20.3c0-1.2,0.8-2,2-2c1.2,0,2.1,0.9,2.1,2.1c0,1.2-0.9,2-2,2C53.9,22.4,53.1,21.6,53.1,20.3z M55.2,21.1
			c0.3-0.1,0.7-0.3,0.6-0.8c0-0.4-0.3-0.6-0.8-0.6c-0.5,0-0.6,0.3-0.6,0.7C54.4,20.8,54.6,21.1,55.2,21.1z"/>
		<path d="M57.7,40.4c0,1.2-1,2.1-2.1,2.1c-1.2,0-2-1-2-2.2c0-1.2,0.9-2,2-2.1C56.8,38.2,57.7,39.2,57.7,40.4z M55.7,41.2
			c0.4-0.2,0.8-0.4,0.7-0.9c0-0.5-0.4-0.8-0.8-0.7c-0.5,0-0.7,0.4-0.6,0.9C55,40.9,55.3,41.1,55.7,41.2z"/>
		<path d="M104.1,26.6c-1.5-0.1-2.3-0.8-2.7-2.3c-0.3-1.2-0.1-2.4,0.5-3.4c0.9-1.8,2.7-1.9,4.1-0.5c1.8,1.9,1.2,3.9-0.2,5.6
			C105.3,26.5,104.7,26.7,104.1,26.6z"/>
		<path d="M95.7,29.7c-0.1-1,0.8-2.2,1.9-2.3c1.1-0.1,2.2,0.7,2.4,1.9c0.1,1.1-0.7,2.2-1.8,2.4C97,31.8,95.9,30.9,95.7,29.7z
			 M98.7,29.6c0-0.5-0.3-0.8-0.7-0.9c-0.3-0.1-1,0.5-0.9,0.8c0.1,0.4,0.4,0.8,0.8,0.8C98.4,30.3,98.6,30,98.7,29.6z"/>
		<path d="M94.2,18.7c0-1.1,0.8-2,1.8-2.1c1-0.1,2,1,2,2c0,1-0.9,2-1.9,2C95.3,20.8,94,19.7,94.2,18.7z M96.1,19.4
			c0.3-0.1,0.6-0.3,0.6-0.6c0-0.4-0.2-0.6-0.5-0.7c-0.4-0.1-0.6,0.2-0.6,0.6C95.5,19,95.7,19.2,96.1,19.4z"/>
		<path d="M238.6,83.6c-1.2,0-2.1-0.9-2.1-2.1c0-1.2,0.8-2.1,1.9-2.2c1.1-0.1,2.1,0.9,2.2,2.1C240.6,82.5,239.7,83.6,238.6,83.6z
			 M237.8,81.4c0,0.5,0.2,0.9,0.7,0.8c0.4,0,0.7-0.3,0.7-0.8c0-0.4-0.3-0.7-0.7-0.7C238.1,80.6,237.9,81,237.8,81.4z"/>
		<path d="M239.6,89.8c-0.1,1.1-0.8,1.8-2,1.8c-1.1-0.1-1.9-0.9-1.8-2.1c0.1-1.2,0.9-2,2.1-1.9C239,87.7,239.6,88.5,239.6,89.8z
			 M237.1,89.6c-0.1,0.5,0.2,0.7,0.6,0.7c0.4,0,0.5-0.3,0.5-0.6c0-0.4-0.1-0.7-0.5-0.7C237.4,88.9,237,89.1,237.1,89.6z"/>
		<path d="M368.6,111.9c-0.1-0.9,0.4-1.4,1.2-1.8c0.8-0.4,1.4,0,1.9,0.5c0.7,0.6,1.1,1.4,1,2.3c-0.1,0.9-0.9,1.4-1.7,1.1
			c-0.3-0.1-0.6-0.1-0.9-0.2C369.1,113.5,368.6,112.9,368.6,111.9z"/>
		<path d="M127.7,101.4c-1.1,0-2.3-1.2-2.3-2.3c0-1.1,0.4-2.2,1.4-2.8c0.8-0.5,1.5-0.5,2.3,0c0.7,0.4,1.1,1.3,0.9,2.1
			c-0.1,0.4-0.2,0.8-0.2,1.2C129.6,101,129.1,101.4,127.7,101.4z"/>
		<path d="M122.4,100.3c-1.2,0-2.2-1-2.2-2.2c0-1.1,1.1-2.2,2.2-2.2c1.1,0,2.1,0.9,2.1,2.1C124.5,99.3,123.6,100.2,122.4,100.3z
			 M122.4,99c0.4,0,0.8-0.5,0.8-0.8c0-0.4-0.5-1-0.9-0.9c-0.4,0.1-0.8,0.4-0.8,0.8C121.4,98.5,122,99,122.4,99z"/>
		<path d="M338.6,109.3c0-1,0.8-2,1.8-2.1c0.8-0.1,1.4,0.2,1.9,0.9c0.4,0.5,0.1,1-0.2,1.5c-0.1,0.2-0.3,0.5-0.4,0.7
			c-0.5,0.7-1.1,0.9-1.8,0.7C339.1,110.8,338.6,110.1,338.6,109.3z"/>
		<path d="M292.9,96.1c0-1.2,0.7-1.9,1.9-1.9c1.1,0,1.9,0.8,1.9,1.9c0,1-1,2-2,2C293.8,98.2,292.9,97.2,292.9,96.1z M294.9,95.6
			c-0.4,0-0.6,0.2-0.6,0.6c0,0.3,0.2,0.6,0.5,0.6c0.3,0,0.6-0.2,0.7-0.5C295.5,95.9,295.2,95.7,294.9,95.6z"/>
	</g>
</g>
<g id="Layer_3">
</g>
</svg>
