<?xml version="1.0" encoding="utf-8"?>
<!-- Generator: Adobe Illustrator 25.0.1, SVG Export Plug-In . SVG Version: 6.00 Build 0)  -->
<svg version="1.1" xmlns="http://www.w3.org/2000/svg" xmlns:xlink="http://www.w3.org/1999/xlink" x="0px" y="0px"
	 viewBox="0 0 566.9 145.6" style="enable-background:new 0 0 566.9 145.6;" xml:space="preserve">
<g id="Layer_1">
</g>
<g id="Layer_13">
</g>
<g id="Layer_12">
</g>
<g id="Layer_11">
</g>
<g id="Layer_10">
</g>
<g id="Layer_9">
</g>
<g id="Layer_8">
</g>
<g id="Layer_7">
</g>
<g id="Layer_6">
</g>
<g id="Layer_5">
</g>
<g id="Layer_4">
	<g>
		<path d="M316.5,83.5c-0.3,0-0.6-0.1-0.9-0.2c-0.6-0.3-1.2-0.6-1.9-0.8c-0.6-0.2-1.1-0.2-1.7-0.1c-0.3,0.1-0.6,0-0.9-0.1
			c-0.7-0.2-1.3-0.5-1.9-0.7c-0.1,0-0.2-0.1-0.3-0.2c-0.3-0.4-0.8-0.5-1.2-0.6c-1-0.3-1.9-0.5-2.9-0.7c-0.4-0.1-0.8-0.2-1.2-0.4
			c-1.1-0.4-2.2-0.9-3.4-1.3c-0.9-0.3-1.7-0.7-2.6-1c-0.2-0.1-0.3-0.1-0.5-0.2c-0.5-0.1-0.9-0.3-1.3-0.7c-0.2-0.2-0.5-0.3-0.7-0.3
			c-1.1-0.1-1.9-0.8-2.8-1.2c-0.4-0.2-0.7-0.4-1.1-0.7c-1.1-0.6-2-1.4-3-2.3c-0.2-0.2-0.4-0.5-0.6-0.8c-0.1-0.1-0.2-0.3-0.3-0.4
			c-0.5-0.2-0.6-0.7-0.7-1.1c-0.1-0.5-0.3-0.9-0.4-1.3c-0.1-0.5-0.2-0.9-0.3-1.4c-0.1-0.4-0.2-0.7-0.3-1c-0.1-0.2-0.2-0.3-0.4-0.3
			c-1.4-0.3-2.7-0.6-4.1-0.5c-1.8,0-3.5-0.1-5.3,0c-0.9,0-1.9,0.2-2.8,0.4c-0.3,0.1-0.5,0.2-0.8,0.3c-0.5,0.4-1.1,0.6-1.7,0.7
			c-1.5,0.2-2.9,0.5-4.4,0.6c-1.7,0.1-3.2,0.5-4.9,0.7c-1.8,0.3-3.6,0.5-5.4,0.5c-1.8,0.1-3.5,0.1-5.3,0.2c-1.1,0-2.3,0-3.4,0
			c-2.8,0-5.5-0.2-8.3-0.4c-1.7-0.1-3.4-0.3-5.1-0.4c-1.4-0.1-2.8-0.3-4.2-0.4c-0.7,0-1.3-0.2-2-0.2c-0.6-0.1-1.3-0.2-1.9-0.2
			c-0.7-0.1-1.5-0.2-2.2-0.2c-1.6-0.2-3.1-0.3-4.7-0.5c-1.7-0.2-3.4-0.4-5.1-0.6c-1.4-0.1-2.8-0.3-4.2-0.4c-1.5-0.1-2.9-0.3-4.4-0.4
			c-1.4-0.1-2.9-0.3-4.3-0.4c-1.4-0.1-2.8-0.3-4.2-0.4c-1.7-0.2-3.4-0.3-5.2-0.4c-3.1-0.2-6.2-0.2-9.3-0.2c-1.9,0-3.8,0.1-5.7,0.2
			c-2,0.1-4.1,0.3-6.1,0.5c-2.3,0.3-4.5,0.6-6.8,0.9c-1.2,0.2-2.4,0.4-3.6,0.6c-0.4,0.1-0.9,0.2-1.3,0.3c-0.1,0-0.2,0.1-0.3,0.2
			c-0.1,0.2-0.3,0.2-0.4,0.1c-0.3-0.1-0.6,0-1,0c-0.3,0-0.7,0-1,0c-0.3,0-0.7,0.1-1,0.2c-2.2,0.5-4.4,0.9-6.6,1.2
			c-1.3,0.2-2.7,0.4-4.1,0.6c-1.2,0.2-2.3,0.3-3.5,0.5c-1.6,0.2-3.3,0.3-4.9,0.4c-0.2,0-0.4,0-0.6,0c-0.7,0.2-1.3,0.1-2,0.1
			c-2.3,0-4.5,0-6.8-0.1c-2.1-0.1-4.2-0.2-6.3-0.2c-1.7,0-3.4-0.2-5.1-0.3c-1.3-0.1-2.7-0.3-4-0.6c-0.6-0.1-1.1-0.2-1.7-0.2
			c-0.5,0-1,0-1.4-0.4c-0.1-0.1-0.2-0.1-0.2-0.1c-1-0.2-2.1-0.3-3.1-0.5c-1.2-0.2-2.4-0.4-3.6-0.7c-2.2-0.5-4.4-1.1-6.5-1.8
			c-1.9-0.6-3.9-1.3-5.8-1.9c-0.6-0.2-1.2-0.4-1.8-0.6c-0.8-0.2-1.6-0.5-2.3-0.9c-0.2-0.1-0.5-0.2-0.7-0.3c-2.3-0.8-4.6-1.7-6.9-2.5
			c-1.4-0.5-2.8-1-4.2-1.5c-0.6-0.2-1.2-0.4-1.8-0.5c-1.7-0.4-3.5-0.8-5.2-1.3c-1.8-0.4-3.7-1-5.4-1.6c-1.3-0.5-2.6-0.9-3.9-1.4
			c-1.1-0.5-2.2-0.9-3.3-1.4c-1.2-0.5-2.4-1-3.6-1.5c-1.5-0.6-3-1.1-4.5-1.7c-2-0.7-3.9-1.4-5.9-2c-1.8-0.5-3.6-0.8-5.5-1.1
			c-1.7-0.2-3.4-0.3-5.2-0.3c-0.5,0-0.9,0-1.4-0.1c0.2-0.4,0.4-0.8,0.5-1.2c0-0.1,0.1-0.2,0.2-0.2c0.4-0.2,0.7-0.6,1.2-0.7
			c0.1,0,0.3-0.1,0.4-0.2c0.6-0.5,1.3-0.6,1.9-1c0.1-0.1,0.3-0.1,0.5-0.2c0.7-0.2,1.5-0.4,2.3-0.6c0.1,0,0.3-0.1,0.4-0.1
			c0.8-0.3,1.5-0.5,2.3-0.8c0.5-0.2,1-0.2,1.5-0.3c1.8-0.1,3.5,0,5.3,0c1.8,0,3.6,0,5.4,0c1.7,0,3.4,0.2,5.1,0.3
			c0.3,0,0.5,0.1,0.7,0.4c0.1,0.2,0.3,0.3,0.5,0.3c1.6,0.2,3.2,0.5,4.8,0.7c2,0.2,3.9,0.7,5.9,1c1.3,0.2,2.5,0.5,3.8,0.7
			c1.3,0.3,2.7,0.5,4,0.8c2,0.4,4.1,0.7,6.2,1c0.8,0.1,1.7,0.2,2.5,0.3c1.7,0.2,3.3,0.4,5,0.5c1.7,0.1,3.4,0.2,5.2,0.3
			c2.3,0.1,4.7,0.2,7,0.3c1.9,0,3.8,0,5.8,0c1.6,0,3.3,0,4.9,0c1.7,0,3.3-0.1,5-0.2c2.5-0.1,5.1-0.2,7.6-0.3
			c2.2-0.1,4.3-0.3,6.5-0.5c2.4-0.3,4.7-0.7,7.1-1.2c1.9-0.4,3.8-0.8,5.7-1.3c1.5-0.3,3-0.7,4.5-1.1c1.1-0.2,2.1-0.5,3.2-0.7
			c3.1-0.6,6.1-1.4,9.2-2.2c1.6-0.4,3.2-0.8,4.9-1.1c2.9-0.5,5.9-1,8.8-1.3c2-0.2,4.1-0.3,6.1-0.5c3.5-0.2,6.9-0.1,10.4,0
			c1.5,0,3.1,0.1,4.6,0.2c1.6,0.1,3.2,0.3,4.8,0.4c1.6,0.1,3.3,0.3,4.9,0.4c1.4,0.1,2.8,0.1,4.2,0.3c0.2,0,0.4,0,0.6,0
			c2.5,0,5,0,7.4,0.1c1.7,0,3.4,0.1,5.1,0.2c1.2,0,2.3,0.1,3.5,0c0.9-0.1,1.9,0,2.8-0.1c1.7-0.1,3.4-0.2,5.1-0.3
			c1.1-0.1,2.1-0.4,3.2-0.6c2.1-0.4,4.1-0.9,6.2-1.4c0.7-0.2,1.4-0.4,2.1-0.7c0.5-0.2,1.1-0.5,1.7-0.3c0.2,0,0.4-0.1,0.6-0.2
			c0.2-0.1,0.4-0.3,0.4-0.5c0-0.3-0.3-0.3-0.5-0.4c-0.1,0-0.1-0.1-0.1-0.2c0-0.1,0.1-0.1,0.2-0.1c0.7-0.1,1.4-0.1,2.1-0.2
			c1.5-0.1,3-0.4,4.4-1c0.6-0.2,1.1-0.5,1.6-0.9c0.2-0.1,0.3-0.3,0.5-0.5c0.6-0.8,0.5-0.8-0.4-1c-0.4-0.1-0.8-0.2-1.1-0.5
			c0.1-0.2,0.2-0.2,0.4-0.2c0.6-0.1,1.3,0.1,1.9,0.2c1,0.2,1.9,0.3,2.9,0.5c0.4,0.1,0.8,0.1,1.1-0.1c0.7-0.2,1.4-0.5,2.1-0.7
			c0.5-0.1,0.8-0.4,1-0.8c0.2-0.3,0.1-0.7-0.2-0.9c-0.1,0-0.1-0.1-0.2-0.1c-0.6-0.1-1.1-0.4-1.7-0.6c0.1-0.2,0.2-0.1,0.3-0.1
			c0.3,0,0.5,0,0.8,0c0.4-0.1,0.6,0,1,0.1c0.7,0.2,1.5,0.4,2.3,0.5c0.4,0.1,0.8,0.1,1.2,0.2c0.5,0.1,0.9,0.1,1.4-0.1
			c1.5-0.5,3-0.9,4.6-1.2c0.5-0.1,0.9-0.4,1.2-0.8c0.2-0.2,0.2-0.5,0-0.7c-0.1-0.3-0.4-0.4-0.6-0.5c-0.2-0.1-0.3-0.2-0.5-0.3
			c-0.1-0.1-0.1-0.2-0.1-0.3c0.1-0.1,0.1-0.2,0.3-0.2c0.1,0,0.1,0,0.2,0c0.2,0.1,0.4,0.1,0.6,0.2c1.2,0.7,2.6,0.9,3.9,1.3
			c0.4,0.1,0.7,0,1.1,0c2.1-0.4,4.2-0.7,6.4-1c1.1-0.1,2.2-0.2,3.2-0.3c0.2,0,0.3-0.2,0.1-0.3c-0.6-0.6-1.2-1.2-1.9-1.6
			c-0.3-0.2-0.6-0.4-0.9-0.7c0.6,0,1,0.1,1.4,0.3c1.3,0.5,2.7,1.2,4,1.8c0.4,0.2,0.7,0.2,1.1,0.2c2.1-0.2,4.1-0.3,6.2-0.5
			c0.3,0,0.7,0,1-0.2c-0.1-0.3-0.4-0.4-0.5-0.6c-0.3-0.3-0.6-0.4-0.8-0.9l0,0c0.2-0.1,0.3-0.2,0.5-0.1c0.2,0.1,0.5,0.3,0.7,0.4
			c0.2,0.1,0.3,0.3,0.5,0.4c0.6,0.5,1.2,0.7,2,0.6c1.5-0.2,2.9-0.2,4.4-0.2c0.3,0,0.7,0,1,0c0.2,0,0.4,0.1,0.4-0.1
			c0.1-0.2-0.1-0.2-0.2-0.3c-0.3-0.4-0.7-0.7-1-1.1c-0.2-0.3-0.5-0.5-0.7-0.8c-0.1-0.1-0.1-0.2,0-0.3c0.1-0.1,0.2-0.1,0.3,0
			c0.9,0.6,1.9,1.1,2.7,1.8c0.3,0.2,0.6,0.4,0.8,0.6c0.3,0.3,0.7,0.3,1.1,0.4c2.1,0.1,4.3,0.1,6.4,0.1c0.8,0,1.7,0,2.5,0.1
			c0.3,0,0.6,0,0.9,0c0.1,0,0.3,0,0.3-0.2c0.1-0.2-0.1-0.3-0.3-0.3l0,0c0.2-0.1,0.4-0.1,0.6-0.1c0.3,0.1,0.6,0.2,0.9,0.3
			c0.6,0.3,1.2,0.3,1.9,0.4c1.7,0.1,3.3,0.2,5,0.4c1.7,0.2,3.4,0.3,5.2,0.5c1.1,0.1,2.1,0.2,3.2,0.2c0.3,0,0.6,0,1,0
			c-0.3-0.5-0.8-0.9-1.1-1.4l0,0c0.1-0.1,0.3-0.1,0.4,0c0.5,0.2,0.9,0.5,1.3,0.9c0.6,0.7,0.7,0.7,1.6,0.7c2.3,0.1,4.6,0.1,6.9,0.2
			c0.2,0,0.4,0,0.6,0.1c0.2,0,0.4,0.1,0.5-0.1c0.1-0.2-0.1-0.3-0.2-0.4c-0.3-0.3-0.5-0.5-0.8-0.8c0.5,0.1,1,0.2,1.4,0.3
			c0.1,0,0.2,0.1,0.3,0.2c0.4,0.3,0.9,0.5,1.3,0.7c0.2,0.1,0.5,0.1,0.7,0.1c1.2,0,2.4,0,3.6,0c2.4,0,4.9,0,7.3,0.1
			c0.2,0,0.5,0.1,0.8-0.1c-0.5-0.3-1-0.4-1.4-0.5c-0.1,0-0.3-0.1-0.2-0.3c0.1-0.2,0.2-0.3,0.4-0.3c0.9,0.3,1.9,0.5,2.8,0.9
			c0.4,0.2,0.8,0.3,1.2,0.3c1.8,0,3.7-0.1,5.5-0.1c2.3,0,4.7-0.1,7-0.2c2.1,0,4.2-0.1,6.3-0.3c1-0.1,2.1-0.1,3.1-0.2
			c2-0.2,3.9-0.3,5.9-0.4c3.6-0.2,7.1-0.2,10.7-0.2c1.8,0,3.7,0.1,5.5,0.2c1.2,0.1,2.4,0.3,3.6,0.4c0.6,0.1,1.1,0.1,1.7,0.2
			c1,0.1,2.1,0.3,3.1,0.4c1.3,0.2,2.6,0.3,3.9,0.5c1.9,0.2,3.9,0.4,5.8,0.5c0.3,0,0.5,0,0.8,0c0.1,0,0.2,0,0.3-0.1
			c0.1-0.2-0.1-0.2-0.2-0.3c-0.2-0.1-0.5-0.3-0.7-0.4c-0.1,0-0.1-0.1,0-0.2c0,0,0,0,0.1,0c0.2-0.1,0.4-0.1,0.6,0
			c1.3,0.5,2.7,0.6,4,0.9c0.6,0.2,1.3,0.1,1.9,0.1c0.5,0,1.1-0.1,1.6-0.1c1.3,0,2.7-0.2,4-0.4c1.2-0.2,2.4-0.4,3.6-0.6
			c0.5-0.1,0.9-0.5,0.9-1.1c0-0.4-0.2-0.8-0.5-1c-0.1-0.1-0.2-0.2-0.3-0.3c-0.1-0.1-0.2-0.2-0.2-0.3c0.1-0.2,0.3-0.2,0.4-0.2
			c0.5,0.1,1,0.2,1.6,0.3c0.7,0.2,1.5,0.4,2.2,0.5c1.1,0.3,2.2,0.5,3.3,0.7c0.4,0.1,0.8,0.1,1.2,0c1.4-0.2,2.8-0.5,4.3-0.7
			c1.2-0.2,2.4-0.4,3.6-0.7c2.1-0.6,4.2-1.2,6.1-2.2c1.9-1,3.9-1.8,5.9-2.5c1-0.3,2.1-0.5,3.2-0.6c2.7-0.3,5.5-0.3,8.2-0.3
			c0.5,0,1,0,1.5,0.2c0.2,0.1,0.5,0,0.7,0c0.7-0.2,1.4-0.4,2.2-0.6c1.8-0.5,3.6-0.7,5.4-0.8c1.4-0.1,2.7,0.1,4.1,0.4
			c3,0.6,6,1.4,9,2c1.1,0.3,2.3,0.4,3.5,0.6c2.2,0.3,4.4,0.6,6.5,1.1c0.8,0.2,1.7,0.4,2.5,0.7c3,0.9,5.9,1.8,8.8,2.9
			c2.6,1.1,5.2,2.3,7.6,3.9c1,0.7,1.9,1.5,2.8,2.4c0.5,0.5,1,0.9,1.3,1.5c0.1,0.3,0.4,0.5,0.6,0.7c0.3,0.3,0.5,0.7,0.6,1.1
			c0.4,0.8,0.4,0.8,0.1,1.7c0,0.1,0,0.2-0.1,0.2c-0.1,0.4-0.2,0.7,0,1.2c0.4,0.9,0.3,1.9-0.2,2.7c-0.5,0.9-1.3,1.6-2.1,2.3
			c-0.9,0.8-2,1.4-3.1,1.9c-0.9,0.4-1.7,0.8-2.5,1.2c-1.2,0.5-2.4,1-3.7,1.4c-0.6,0.2-1.3,0.5-2,0.7c-1.4,0.5-2.8,0.8-4.2,1.2
			c-2.3,0.6-4.6,1.3-6.9,2c-1.1,0.3-2.2,0.7-3.3,1.1c-1.4,0.5-2.9,1.1-4.2,1.7c-1.3,0.6-2.6,1.2-3.9,1.8c-1.7,0.8-3.5,1.6-5.3,2.3
			c-1.1,0.5-2.3,0.8-3.4,1.1c-1.2,0.3-2.4,0.6-3.7,0.9c-0.8,0.2-1.7,0.3-2.6,0.4c-1.8,0.3-3.7,0.4-5.6,0.4c-1.9,0-3.7-0.2-5.6-0.4
			c-1.5-0.2-3-0.3-4.5-0.7c-0.1,0-0.3,0-0.4,0c-1.4,0.2-2.7,0.6-4.1,1c-1.9,0.6-3.9,0.9-5.9,0.8c-1.5-0.1-3-0.4-4.5-0.9
			c-0.2-0.1-0.5-0.2-0.7-0.2c-0.2-0.1-0.5-0.1-0.7,0c-0.4,0.2-0.8,0.2-1.2,0.2c-1.7,0.1-3.2,0.6-4.6,1.6c-0.5,0.3-1,0.7-1.4,1
			c-0.8,0.5-1.6,0.9-2.5,1.2c-1.9,0.7-3.9,1.2-6,1.6c-1.3,0.2-2.5,0.4-3.8,0.5c-1.6,0.2-3.3,0.4-4.9,0.6c-1.7,0.2-3.4,0.7-5.1,1.4
			c-1.1,0.4-2.2,0.8-3.3,1.5c-0.6,0-0.9,0.5-1.3,0.9c-0.9,0.8-1.8,1.6-2.7,2.4c-0.1,0.1-0.2,0.1-0.2,0.3c0.4,0.2,0.9,0.2,1.4,0.2
			c1.1,0,2.1,0.3,3.1,0.4c0.4,0.1,0.7,0.2,1.1,0.2c0.9,0.1,1.7,0.4,2.5,0.6c1.6,0.4,3.2,0.8,4.8,1.1c0.2,0,0.4,0.1,0.7,0.1
			c0.2,0,0.3,0,0.5,0.1c0.3,0.1,0.4-0.5,0.7-0.1c0.2,0,0.5,0,0.7,0c0.3,0,0.6,0,0.8,0c0.3,0,0.5,0,0.8,0c0.3,0,0.6,0,0.8,0
			c0.9,0.1,1.7,0.1,2.6,0c0.5,0,0.9-0.1,1.4-0.2c0.3,0,0.6-0.1,0.8-0.1c1.6,0,3.2-0.2,4.8-0.5c0.8-0.2,1.7-0.3,2.6-0.4
			c0.4-0.1,0.9-0.2,1.3-0.3c1.1-0.3,2.2-0.6,3.3-0.9c0.1,0,0.3,0,0.4,0c0.4,0,0.8-0.1,1.1-0.3c0.1-0.1,0.2-0.1,0.3-0.1
			c0.4-0.1,0.8-0.2,1.2-0.4c0.5-0.2,1-0.3,1.5-0.7c0.1-0.1,0.3-0.2,0.5-0.2c0.6,0.1,1.1-0.2,1.6-0.4c0.5-0.2,1-0.2,1.5,0
			c0.5,0.2,0.9,0.2,1.4,0.1c0.7-0.2,1.4-0.3,2.1-0.2c1.7,0,3.2,0.6,4.2,2c0.1,0.2,0.3,0.3,0.4,0.5c0.2,0.2,0,0.5-0.3,0.6
			c-0.2,0-0.4,0-0.6-0.1c-1.7-0.3-3.5-0.3-5.2,0c-0.5,0.1-0.9,0.2-1.3,0.5c-0.1,0-0.1,0.1-0.1,0.2c0,0.1,0.1,0.2,0.2,0.2
			c0.2,0,0.4,0.1,0.7,0.1c0.3,0,0.6,0,0.8,0c1.3-0.1,2.6,0.1,3.7,0.7c0.7,0.4,1.5,0.4,2.3,0.3c0.8-0.1,1.6-0.1,2.3,0.1
			c0.3,0.1,0.7,0.1,0.9,0.3c0.3,0.2,0.7,0.3,1,0.2c1.1-0.1,2.1,0.2,3.1,0.8c0.7,0.4,1.4,0.8,2,1.4c0.7,0.8,1.1,1.7,1.1,2.7
			c0,0.1,0,0.3,0,0.4c0,0.2-0.2,0.3-0.4,0.2c-0.3-0.1-0.5-0.3-0.8-0.5c-0.5-0.3-0.9-0.7-1.4-1c-0.9-0.6-1.9-1-3-1.1
			c-0.7-0.1-1.3,0.1-1.9,0.2c-0.2,0.1-0.3,0.1-0.4,0.3c-0.5,0.5-1.2,0.7-1.9,0.6c-0.7,0-1.4-0.2-2.1-0.6c-0.5-0.3-0.9-0.3-1.4-0.2
			c-0.5,0.2-1.1,0.2-1.7,0.2c-0.3,0-0.7,0-1-0.1c-0.8-0.2-1.6-0.2-2.4-0.2c-0.1,0-0.2,0-0.2,0c0,0.2,0.2,0.2,0.3,0.2
			c0.3,0,0.6,0.1,0.8,0.1c0.6,0,1.3,0.1,1.9,0.1c1.5,0,2.9,0.4,4.1,1.3c0.2,0.1,0.4,0.2,0.6,0.3c1,0.1,1.8,0.5,2.7,0.9
			c0.6,0.3,1.1,0.5,1.7,0.5c0.7,0.1,1.3,0.4,1.8,0.8c0.9,0.7,1.4,1.7,1.6,2.8c0.1,1.1,0.1,2.3-0.3,3.4c0,0.1,0,0.2-0.1,0.2
			c-0.1,0.1-0.1,0.3-0.3,0.4c-0.2,0-0.3-0.2-0.3-0.3c-0.2-0.6-0.5-1.2-0.9-1.7c-0.5-0.7-1.1-1.1-1.9-1.3c-0.6-0.1-1.3-0.2-1.9-0.1
			c-0.6,0.1-1.2,0.1-1.6-0.5c0-0.1-0.2-0.1-0.2-0.1c-0.2,0.1-0.5,0.1-0.7,0.2c-0.1,0-0.2,0.2-0.1,0.3c0.4,0.4,0.7,1,0.9,1.6
			c0.3,1.3,0.2,2.5-0.1,3.7c0,0.1-0.1,0.2-0.2,0.2c-0.1,0-0.2,0-0.2-0.1c-0.1-0.2-0.2-0.4-0.2-0.5c-0.3-0.8-0.9-1.3-1.9-1.5
			c-0.6-0.1-1.2-0.2-1.8-0.2c-0.4,0-0.8-0.2-1.1-0.3c-0.6-0.3-1.1-0.5-1.7-0.8c-0.6-0.3-1.2-0.4-1.8-0.4c-0.7,0-1.4-0.2-2-0.5
			c-0.3-0.1-0.5-0.2-0.7-0.5c-0.2-0.3-0.5-0.4-0.7-0.5c-1.7-0.8-3.4-1.3-5.3-1.6c-1.7-0.3-3.4-0.3-5.1,0.1c-0.6,0.1-1.1,0.4-1.6,0.7
			c-0.2,0.1-0.3,0.2-0.4,0.3c-0.1,0.2-0.1,0.4,0.1,0.5c0.8,0.5,1.2,1.4,1.8,2.1c0.4,0.5,0.8,0.9,1.4,1.2c0.9,0.5,1.6,1.1,2.2,2
			c0.6,0.9,1.2,1.8,1.9,2.6c0.3,0.3,0.5,0.7,0.6,1.2c0,0.2,0.2,0.3,0.2,0.4c0.1,0.2,0.3,0.4,0.4,0.6c0.4,0.6,0.4,1.3,0.2,1.9
			c-0.2,0.8-0.7,1.5-1.4,2c-0.2,0.2-0.5,0-0.5-0.2c0-0.2,0-0.3,0-0.5c0-0.6-0.2-1-0.6-1.4c-0.1-0.1-0.3-0.2-0.5-0.3
			c-1.1-0.1-1.8-0.7-2.4-1.5c-0.6-0.8-1.1-1.6-1.7-2.4c-0.3-0.5-0.7-0.8-1.2-1.2c-0.2-0.2-0.5-0.3-0.7-0.4c-0.4-0.1-0.7-0.2-1.1-0.3
			c-0.8-0.2-1.6-0.4-2.4-0.7c-1-0.4-1.8-1-2.4-1.9c-0.4-0.5-0.7-1.1-1.1-1.6c-0.7-1.2-1.7-2.2-2.8-2.9c-0.7-0.5-1.4-0.9-2.1-1.3
			c-0.1-0.1-0.2-0.1-0.4-0.1c-0.8,0.1-1.5-0.2-2.3-0.4c-1-0.2-2-0.4-2.9-0.7c-0.5-0.1-1-0.1-1.6-0.1c-0.9,0.1-1.7,0.2-2.6,0.3
			c-0.8,0.1-1.5,0.2-2.3,0.4c-1.7,0.4-3.4,0.9-5.1,1.3c-0.2,0.1-0.5,0.1-0.7,0.2c-0.7,0.3-1.5,0.4-2.3,0.4c-1.6,0.1-3.2,0-4.8-0.1
			c-1.2-0.1-2.4-0.5-3.5-1c-1.2-0.5-2.5-1.1-3.7-1.6c0,0-0.1,0-0.1,0c-1.5-0.9-3.3-1.5-4.8-2.3c-1.4-0.7-2.9-1.5-4.3-2.3
			c-0.9-0.5-1.8-1.1-2.7-1.7c-0.4-0.3-0.5-0.5-0.4-1.1c0.1-0.3,0.1-0.6,0.4-0.8c0.3-0.2,0.4-0.5,0.4-0.9c0-0.2,0-0.3,0-0.5
			c0-0.2,0.1-0.3,0.3-0.4c0.5-0.3,0.5-0.4,0.9-1.1c-0.4,0-0.7,0-1.1,0.1c-0.3,0-0.7,0.1-1,0c-0.2-0.1-0.5,0-0.7,0.1
			c-0.3,0.1-0.6,0.2-0.9,0.2c-1.2,0.1-2.5,0.2-3.7,0.3c-1.7,0.1-3.3,0.2-5,0.3c-2.1,0.1-4.3,0.1-6.4,0.1c-2,0-4,0-5.9-0.2
			c-0.2,0-0.4,0-0.7,0c-1.6,0-3.2-0.2-4.8-0.3c-0.8-0.1-1.6-0.1-2.4-0.2c-1.9-0.1-3.8-0.3-5.7-0.5c-0.9-0.1-1.8-0.1-2.8-0.2
			c-1.2-0.1-2.4-0.3-3.7-0.4c-1.8-0.2-3.6-0.5-5.5-0.8c-1.7-0.3-3.4-0.6-5-0.9c-1.8-0.3-3.6-0.7-5.4-1.1c-0.1,0-0.2,0-0.2-0.1
			c-0.8-0.3-1.7-0.3-2.5-0.2c-0.6,0.1-1.3,0.1-1.9,0c-0.7-0.1-1.4-0.2-2.1-0.3c0,0,0,0,0,0c-0.1,0.2,0,0.3,0.1,0.3
			c1.1,0.9,2.2,1.7,3.2,2.6c1.1,0.9,2.2,1.9,3.4,2.9c0.7,0.6,1.5,1.3,2.3,1.9c1.2,0.9,2.3,1.8,3.5,2.8c0.1,0.1,0.1,0.1,0.2,0.2
			c0.7,0.3,1.1,0.9,1.6,1.4c0.3,0.3,0.7,0.6,1,0.9c0.1,0.1,0.2,0.2,0.2,0.2c-0.2,0.4,0.2,0.5,0.4,0.6c0.7,0.4,1.4,0.8,2,1.3
			c0.9,0.7,1.2,1.7,1.1,2.8c-0.1,1-0.4,1.9-0.7,2.8c-0.1,0.3-0.3,0.6-0.5,0.9c-0.3,0.5-0.6,0.9-0.8,1.5c-0.2,0.5-0.6,1-0.6,1.5
			c0,0,0,0.1-0.1,0.1c-1.1,1.3-2.2,2.5-3.8,3.3c-0.4,0.2-0.8,0.5-1.1,0.8c-0.5,0.4-1.1,0.8-1.7,1c-0.7,0.3-1.4,0.5-2.1,0.7
			c-0.3,0.1-0.6,0.2-0.8,0.4c-0.3,0.2-0.7,0.3-1.1,0.5c-0.1,0-0.3,0.1-0.3,0.1c-0.5-0.4-0.7,0.1-0.9,0.4c-0.2,0.3-0.4,0.5-0.7,0.6
			c-0.4,0.3-0.9,0.6-1.4,0.8c-0.7,0.3-1.3,0.7-1.8,1.4c-0.2,0.2-0.4,0.4-0.7,0.3c-0.1-0.1-0.2,0.1-0.3,0.1c-0.6,0.6-1.4,0.8-2.3,1
			c-0.5,0.1-1,0.2-1.6,0.2c-0.3,0-0.4,0.1-0.5,0.3c-0.3,0.5-0.8,0.8-1.2,1.1c-0.3,0.2-0.5,0.3-0.9,0.3c-0.1,0-0.2,0-0.3,0
			c-0.3,0.2-0.7,0.1-1,0.2c0,0.2,0.2,0.2,0.3,0.3c1.2,0.5,2.3,1,3.6,1.4c0.8,0.3,1.6,0.6,2.4,0.8c0.7,0.2,1.4,0.3,2,0.5
			c1.1,0.3,2.2,0.5,3.3,1c0.1,0.1,0.3,0.1,0.5,0.1c0.2,0,0.4,0,0.5,0.1c0.4,0.2,0.9,0.2,1.4,0.3c0.4,0.1,0.8,0.2,1.2,0.1
			c0.2,0,0.5,0,0.7,0.1c0.4,0.3,0.8,0.3,1.2,0.4c0.6,0.1,1.2,0.3,1.6,0.8c0.3,0.4,0.7,0.5,1.1,0.6c1,0.3,1.9,0.7,2.8,1.3
			c1.2,0.7,2,1.7,2.6,3c0.1,0.3,0.3,0.7,0.4,1c0,0.1,0,0.2-0.1,0.3c-0.1,0-0.2,0-0.2,0c-0.2-0.1-0.5-0.3-0.7-0.5
			c-1.5-1.1-3.2-2-5.1-2.5c-0.3-0.1-0.7-0.1-1-0.1c-0.1,0-0.1,0-0.1,0.1c0,0.1,0,0.1,0.1,0.1c0.3,0.3,0.6,0.5,1,0.7
			c0.2,0.1,0.4,0.2,0.6,0.3c1.2,0.6,2.3,1.3,3.1,2.3c0.6,0.7,1.3,1.1,2.1,1.4c0.8,0.4,1.7,0.8,2.4,1.4c0.1,0.1,0.3,0.2,0.4,0.4
			c0.2,0.4,0.6,0.6,1,0.8c0.9,0.4,1.7,1,2.3,1.8c0.3,0.4,0.7,0.7,1,1.1c0.7,0.8,1.2,1.8,1.3,2.9c0.1,0.5,0.1,1-0.1,1.5
			c-0.1,0.2-0.3,0.2-0.4,0.1c-0.2-0.2-0.4-0.4-0.5-0.6c-0.4-0.5-0.7-1.1-1.1-1.6c-0.5-0.7-1.1-1.4-1.8-2c-0.8-0.6-1.6-1.1-2.6-1.3
			c-0.2,0-0.3-0.1-0.5,0c-0.7,0.2-1.3,0-1.8-0.3c-0.8-0.4-1.4-0.9-2-1.6c-0.6-0.7-1.4-0.9-2.2-1c0,0-0.1,0-0.1,0.1
			c0,0,0.1-0.1,0.1-0.2c0,0,0,0,0,0c0,0,0,0.1,0,0.1c0.9,0.6,1.7,1.3,2.3,2.2c0.2,0.3,0.5,0.6,0.9,0.9c0.7,0.4,1.3,1,1.8,1.6
			c0.5,0.6,1.1,1.2,1.8,1.6c0.8,0.5,1.3,1.3,1.8,2.2c0.5,0.9,0.5,1.9,0.4,2.9c-0.1,0.8-0.4,1.6-0.9,2.2c-0.1,0.2-0.2,0.4-0.5,0.3
			c-0.2-0.1-0.2-0.3-0.2-0.5c0-0.5-0.2-1-0.3-1.5c-0.4-1.2-1.2-2.1-2.3-2.8c-0.5-0.3-0.9-0.6-1.4-0.7c-0.4-0.1-0.8-0.4-0.9-0.8
			c-0.1-0.3-0.3-0.5-0.7-0.5c-0.1,0-0.3-0.1-0.4,0c-0.1,0.2,0,0.3,0.1,0.4c0.2,0.4,0.3,0.8,0.3,1.3c0.1,1.1-0.2,2.2-0.8,3.2
			c0,0.1-0.1,0.1-0.2,0.1c-0.1,0-0.2-0.1-0.2-0.1c-0.1-0.2-0.1-0.4-0.1-0.6c-0.1-0.9-0.5-1.5-1.2-2c-0.6-0.4-1.1-0.9-1.8-1.2
			c-0.4-0.2-0.7-0.5-1-0.8c-0.6-0.6-1.1-1.2-1.7-1.8c-0.4-0.4-0.9-0.7-1.4-1c-0.7-0.4-1.3-1-1.9-1.5c0,0-0.1-0.1-0.1-0.1
			c-0.3-0.9-1.1-1.5-1.8-2.1c-1.1-1-2.3-2-3.5-2.8c-0.7-0.5-1.4-0.9-2.1-1.2c-0.3-0.2-0.6-0.3-0.9-0.5c-0.9-0.5-2-0.8-3-0.9
			c-0.7-0.1-1,0-0.7,1c0.2,0.7,0.6,1.2,1,1.7c1.3,1.5,2.1,3.2,2.6,5.1c0.4,1.5,1,2.8,2,4c0.3,0.4,0.6,0.9,0.8,1.4
			c0.2,0.3,0.2,0.6,0.2,1c0,0.6,0.2,1.3,0.3,1.9c0,0.1,0.1,0.2,0.1,0.3c0.2,0.3,0.2,0.6,0.2,0.9c-0.3,0-0.5-0.1-0.7-0.2
			c-1.3-0.3-2.8,0.6-2.6,2.2c0,0.2,0.1,0.3,0.2,0.5c0.1,0.2,0.3,0.2,0.5,0c0.1-0.1,0.1-0.3,0.3-0.2c0.1,0.2,0,0.4,0,0.6
			c0,0.2,0.1,0.4,0.3,0.4c0.2,0,0.3,0,0.5,0c0.2,0.1,0,0.4,0.2,0.5c0.1,0.2,0.3,0.3,0.6,0.3c0.3,0,0.4,0.1,0.3,0.4
			c0,0.2,0.1,0.3,0.2,0.4c0.2,0.1,0.3,0.1,0.5-0.1c0.4-0.5,0.9-0.7,1.4-0.8c0.1,0,0.2-0.1,0.2-0.2c0-0.1-0.1-0.3-0.2-0.4
			c-0.2-0.2-0.5-0.2-0.8-0.1c-0.2,0.1-0.3,0.2-0.5,0.3c0,0-0.1,0-0.1,0c0,0-0.1-0.1,0-0.1c0.1-0.2,0.2-0.4,0.4-0.5
			c0.1-0.1,0.3-0.1,0.4-0.3c0.1-0.1,0.1-0.3-0.1-0.4c-0.1-0.1-0.3-0.1-0.4-0.1c-0.4,0-0.8,0-1.1,0.2c-0.1,0.1-0.3,0.2-0.5,0
			c0.3-0.4,0.7-0.6,1.1-0.6c0.1,0,0.3,0,0.4,0c0.2,0,0.3-0.2,0.3-0.4c-0.1-0.4-0.3-0.6-0.7-0.6c-0.6-0.1-1.2,0.1-1.7,0.4
			c-0.1,0.1-0.2,0.2-0.3,0.1c0-0.3,0.2-0.4,0.4-0.6c0.3-0.2,0.7-0.3,1-0.4c0.4-0.1,0.4-0.1,0.4-0.6c0.7,0.4,1.2,1,1.5,1.7
			c0.3,1,0.9,1.8,1.6,2.5c0.4,0.5,0.7,1,0.9,1.6c0.3,0.8,0.6,1.5,0.9,2.3c0.2,0.4,0.4,0.9,0.5,1.3c0.2,0.9,0.3,1.8,0.2,2.7
			c-0.1,0.9-0.4,1.7-0.7,2.6c0,0.1-0.1,0.1-0.1,0.2c-0.1,0.1-0.4,0.1-0.4,0c-0.1-0.2-0.1-0.5-0.2-0.7c-0.1-0.8-0.5-1.5-1-2.2
			c-0.6-0.7-1.2-1.5-1.8-2.2c-0.5-0.6-0.8-1.3-0.8-2.1c0-0.3-0.1-0.5-0.2-0.7c-0.4-1.2-1.1-2.2-2.2-2.9c-1.1-0.7-2-1.6-2.8-2.6
			c-0.6-0.7-1-1.4-1.3-2.2c-0.2-0.5-0.3-1-0.5-1.5c-0.2-0.5-0.5-1-0.9-1.4c-0.8-1-1.6-2-2.3-3.1c-0.9-1.4-1.7-2.9-2.3-4.5
			c-0.4-1.2-0.7-2.3-1-3.5c-0.2-0.9-0.5-1.7-0.8-2.5c-0.1-0.4-0.4-0.8-0.7-1.2c-0.2-0.3-0.4-0.6-0.6-0.8c-0.1-0.2-0.2-0.4-0.1-0.6
			c0.2-0.3,0.1-0.5-0.1-0.8c-0.1-0.2-0.3-0.5-0.5-0.6c-0.4-0.3-0.8-0.7-1.2-1c-0.4-0.3-0.9-0.7-1.2-1.1c-0.3-0.3-0.6-0.6-0.9-0.8
			c-0.2-0.1-0.3-0.2-0.5-0.3c-0.6,0-1-0.3-1.5-0.6c-0.2-0.1-0.4-0.2-0.6-0.3c-1-0.6-1.5-1.5-1.8-2.6c-0.2-0.8-0.1-1.6,0.3-2.5
			c0.7-1.8,2-3.1,3.5-4.1c0.8-0.5,1.6-1,2.3-1.5c1-0.6,2-1.3,3-2c0.8-0.6,1.3-1.3,1.9-2.1c1.1-1.7,2.3-3.4,3.9-4.7
			c0.3-0.2,0.6-0.5,0.8-0.8C315.4,84.2,315.9,83.8,316.5,83.5C316.5,83.5,316.4,83.5,316.5,83.5C316.6,83.4,316.4,83.4,316.5,83.5z
			 M334.8,117.1c0-0.1,0-0.3,0-0.4c-0.1,0-0.2,0-0.2-0.1c-0.5-0.4-1-0.6-1.5-0.9c-0.1-0.1-0.2-0.1-0.4-0.1c0.1-0.1,0-0.1-0.1-0.1
			c0,0-0.1,0.1-0.1,0.1c0,0.1,0.1,0.1,0.2,0.1c0,0,0,0.1,0.1,0.1c0.5,0.4,1,0.7,1.6,1c0.1,0.1,0.3,0,0.4-0.1
			C334.8,116.8,334.8,116.9,334.8,117.1c0.2,0,0.3,0,0.5,0c0,0.1,0.1,0.2,0.2,0.3c0.2,0,0.3,0,0.5,0c0,0,0,0.1,0,0.1c0,0,0,0,0-0.1
			c-0.2,0-0.3,0-0.5-0.1c0-0.1-0.1-0.2-0.2-0.2C335.1,116.9,334.9,117.1,334.8,117.1z M255.2,29.6c0.9-0.2,1.8-0.5,2.6-0.7
			c0.1,0,0.2-0.1,0.2-0.2c-0.6-0.2-1.3-0.2-1.9-0.4c-0.1,0-0.3,0-0.4,0.1c-0.1,0.4-0.4,0.7-0.6,1C255.1,29.5,255.2,29.6,255.2,29.6
			C255.2,29.6,255.2,29.6,255.2,29.6C255.2,29.6,255.2,29.6,255.2,29.6z M391.2,24.6L391.2,24.6L391.2,24.6
			c-0.1,0.1-0.1,0.3-0.1,0.4c0.2,0.4,0.2,0.8,0.1,1.2c0,0.2,0,0.3,0.3,0.3c0.8,0,1.6-0.1,2.4-0.1c1,0,1.3-0.1,1.2-0.2
			c-0.3-0.3-0.7-0.3-1.1-0.4c-0.1,0-0.2-0.1-0.3-0.1C392.8,25.5,392,25,391.2,24.6C391.2,24.7,391.2,24.6,391.2,24.6z M340.2,119.4
			L340.2,119.4L340.2,119.4c0-0.2,0-0.5,0-0.7c0-0.6,0.2-1.1,0.8-1.5c0.2-0.1,0.4-0.1,0.4-0.4c-0.4-0.2-0.7-0.4-1.1-0.6
			c-0.3-0.2-0.5-0.1-0.7,0.1c-0.1,0.1-0.2,0.3-0.3,0.5c-0.2,0.4-0.2,0.9-0.3,1.4c0,0.1,0,0.1,0,0.2
			C339.3,118.9,339.6,119.3,340.2,119.4z M342.5,25.3C342.5,25.3,342.4,25.4,342.5,25.3C342.4,25.4,342.5,25.3,342.5,25.3
			c-0.7-0.2-1.4-0.6-2.1-1.1c-0.6-0.4-1.1-0.7-1.6-1.1c-0.1-0.1-0.2-0.1-0.3,0.1c0,0.6-0.3,1.2-0.7,1.7c-0.1,0.2-0.1,0.3,0.2,0.3
			c1,0.1,2,0.1,3,0.2c0.3,0,0.6,0,0.8,0.1C342.1,25.5,342.3,25.4,342.5,25.3z M308.5,20.8c0,0-0.1,0-0.1,0.1c0,0,0,0,0,0
			C308.4,20.8,308.4,20.8,308.5,20.8c-0.1,0.2-0.1,0.3,0.1,0.5c0.4,0.5,0.5,1.1,0.3,1.7c0,0.1-0.1,0.2,0.1,0.3c0.1,0,0.3,0,0.4,0
			c0.2,0,0.3,0,0.5,0c0.2,0,0.3,0,0.5,0c0.2,0,0.3,0,0.5,0c0.2,0,0.4,0,0.6,0c0.2,0,0.3,0,0.5,0c0.2,0,0.3,0,0.5,0
			c0.2,0,0.3,0,0.5,0c0.1,0,0.3,0.1,0.4-0.1c-0.1,0-0.2-0.1-0.2-0.1c-1.4-0.5-2.8-1.2-4.1-1.9C308.9,21.1,308.6,21,308.5,20.8z
			 M331.7,114.4C331.7,114.5,331.7,114.5,331.7,114.4C331.7,114.3,331.8,114.5,331.7,114.4c0-0.4,0-0.8,0-1.1c0-0.7,0.2-1.4,0.7-2
			c0,0,0-0.1,0-0.2c-0.2-0.3-0.6-0.4-1-0.6c-0.3-0.2-0.5-0.1-0.8,0c-0.3,0.2-0.5,0.4-0.6,0.7c-0.1,0.4-0.2,0.8-0.2,1.2
			c0,0.3,0,0.7,0.2,0.9c0.3,0.3,0.6,0.8,1.1,1C331.3,114.5,331.5,114.5,331.7,114.4z M356.6,26.2c0,0,0,0.1,0,0.1c0,0,0.1,0,0.1,0
			C356.7,26.2,356.6,26.3,356.6,26.2c-0.3-0.1-0.6-0.2-0.9-0.3c-0.4-0.1-0.8-0.3-1.2-0.4c-1.5-0.7-3.1-1.3-4.6-2.1
			c-0.1-0.1-0.2-0.2-0.4,0c0.2,0.4,0.4,0.8,0.5,1.3c0.1,0.5-0.1,0.9-0.3,1.3c0.2,0,0.3,0,0.4,0c2,0.1,3.9,0.2,5.9,0.3
			C356.3,26.3,356.5,26.3,356.6,26.2z M325.9,137.2C325.9,137.2,325.9,137.2,325.9,137.2c-0.2-0.1-0.3-0.1-0.4,0
			c-0.1,0.1,0,0.2,0,0.3c0.5,0.6,0.8,1.3,1.1,2.1c0.2,0.5,0.3,1,0.4,1.5c0,0.1,0,0.3-0.1,0.3c-0.1,0.1-0.2-0.1-0.2-0.2
			c-0.1-0.3-0.2-0.7-0.3-1c-0.3-1-0.7-1.9-1.4-2.7c-0.2-0.2-0.2-0.2-0.5-0.1c-0.2,0.1-0.4,0.3-0.5,0.4c-0.3,0.2-0.3,0.5-0.3,0.8
			c0.1,0.5,0.3,1,0.7,1.4c0.4,0.5,0.8,1,1.3,1.5c0.6,0.7,1.2,1.5,1.4,2.4c0,0,0.1,0.1,0.1,0.1c0.1,0,0.1-0.1,0.2-0.2
			c0.1-1.2,0.2-2.3-0.2-3.5c-0.1-0.3-0.1-0.5-0.1-0.8c0.1-0.8-0.2-1.5-0.8-2C326.1,137.5,326,137.4,325.9,137.2
			C325.9,137.2,325.9,137.2,325.9,137.2c0.2,0,0.4,0,0.3-0.3c0-0.1-0.1-0.3-0.1-0.4c-0.2-0.5-0.5-0.7-1-0.5
			c-0.3,0.1-0.7,0.2-0.9,0.6c0,0.1-0.3,0.1-0.4,0c-0.1-0.1,0-0.2,0-0.3c0.3-0.3,0.6-0.6,1.1-0.7c0.1,0,0.2-0.1,0.3-0.1
			c0.1,0,0.2-0.1,0.1-0.3c-0.2-0.4-0.5-0.6-0.9-0.4c-0.4,0.1-0.8,0.3-1.1,0.6c-0.5,0.4-0.5,0.9,0,1.3c0.2,0.1,0.2,0.3,0.2,0.5
			c0,0.3,0.1,0.3,0.4,0.1C324.6,136.9,325.2,136.9,325.9,137.2z M445.4,87.3L445.4,87.3c-0.1-0.1-0.1-0.2,0-0.4
			c0.2-0.4,0.5-0.8,0.9-1c0.1-0.1,0.3-0.1,0.4-0.2c0.3-0.2,0.3-0.5,0.2-0.7c-0.2-0.3-0.4-0.4-0.7-0.3c-0.6,0.3-1,0.6-1.4,1.2
			c-0.1,0.2-0.2,0.5-0.5,0.6c-0.1-0.3,0.1-0.6,0.3-0.9c0.2-0.3,0.5-0.6,0.8-0.9c0.1-0.1,0.2-0.2,0.3-0.3c0.2-0.1,0.2-0.3,0.1-0.4
			c-0.1-0.2-0.3-0.2-0.4-0.2c-0.8,0.3-1.4,0.7-1.9,1.4c-0.5,0.8-0.6,1.6-0.3,2.5c0.1,0.2,0.2,0.3,0.3,0.5c0.2,0.1,0.4,0,0.4-0.1
			c0-0.2,0.1-0.3,0.1-0.5c0,0,0.1-0.1,0.1-0.1c0,0,0.1,0,0.1,0.1c0.1,0.2,0,0.4,0.1,0.7c0.1,0.2,0.3,0.3,0.5,0.2
			c0.1,0,0.1-0.1,0.2-0.2c0.2-0.1,0.2-0.1,0.3,0.1c0.1,0.2,0.2,0.3,0.3,0.3c0.1,0,0.2,0,0.3,0c0.3,0,0.3,0,0.5,0.3
			c0.1,0.2,0.4,0.3,0.5,0.1c0.1-0.1,0.1-0.2,0.2-0.3c0.3-0.6,0.7-1.1,1.1-1.5c0.1-0.1,0.1-0.1,0.2-0.2c0.1-0.1,0-0.2-0.1-0.4
			c-0.1-0.1-0.3-0.1-0.5-0.1c-0.2,0.1-0.4,0.3-0.6,0.5c-0.1,0.2-0.2,0.3-0.3,0.5c0,0-0.1,0.1-0.1,0c0,0-0.1-0.1-0.1-0.1
			c0-0.3,0.2-0.6,0.3-0.8c0.1-0.2,0.3-0.4,0.3-0.6c0-0.1-0.1-0.2-0.2-0.2c-0.1,0-0.2,0-0.3,0.1C446.2,86.3,445.7,86.7,445.4,87.3z
			 M439.1,83.6L439.1,83.6c0.4,0.7,0.7,1.5,1.3,2.1c0.1-0.1,0.1-0.1,0.1-0.1c0.6-1.4,1.5-2.4,2.9-3.1c0.1-0.1,0.2-0.1,0.3-0.2
			c0.1-0.2,0.3-0.1,0.5-0.1c0.3,0.1,0.5,0.3,0.8,0.3c0.5-0.7,0.6-0.8,1.3-1.1c0.3-0.1,0.3-0.3,0.3-0.6c-0.1-1.4,0.4-2.5,1.5-3.4
			c0.3-0.3,0.4-0.5,0.3-0.9c-0.1-0.6-0.1-1.1,0.2-1.6c0.1-0.2,0.1-0.4,0.2-0.5c0.1-0.2,0.1-0.3-0.1-0.5c-0.2-0.2-0.1-0.4,0.1-0.6
			c0.1,0,0.2-0.1,0.2-0.1c0.4-0.1,0.4-0.1,0.4-0.6c0-0.5,0-0.9,0.1-1.3c0-0.1,0-0.1,0-0.2c0-0.2,0-0.3-0.3-0.3c-0.1,0-0.1,0-0.2,0
			c-0.5,0-0.7,0.2-0.6,0.7c0,0.1,0,0.2,0,0.2c0,0-0.1,0.1-0.1,0.1c0,0-0.1,0-0.1-0.1c-0.1-0.2-0.1-0.5-0.1-0.8
			c-0.9,0.1-0.9,0.1-1.1,1c0,0,0,0.1,0,0.1c0,0.1-0.1,0.1-0.1,0.1c0,0-0.1-0.1-0.1-0.1c-0.1-0.3,0.1-0.5,0-0.8
			c-0.9,0.1-1.8,0.2-2.8,0.3c-0.9,0.1-1.7,0.3-2.6,0.2c-0.2,0-0.4,0-0.6,0c-0.3,0-0.4,0.1-0.5,0.3c-0.3,0.5-0.6,0.9-0.8,1.5
			c-0.1,0.2-0.1,0.4,0.1,0.6c0.1,0.1,0,0.2-0.1,0.2c-0.3,0-0.4,0.1-0.5,0.3c-0.4,1-0.7,1.9-0.8,3c-0.1,0.4-0.1,0.9-0.2,1.3
			c0,0.1-0.1,0.2-0.2,0.1c0,0-0.1-0.1-0.1-0.1c0-0.1,0-0.2,0-0.3c0-0.8,0.3-1.5,0.4-2.2c0.1-0.7,0.4-1.3,0.6-1.9
			c0.1-0.2,0-0.3-0.2-0.4c-0.1,0-0.2-0.1-0.1-0.2c0-0.1,0.2-0.2,0.3-0.1c0.3,0.1,0.4-0.1,0.5-0.3c0.2-0.5,0.5-0.9,0.7-1.4
			c0.1-0.2,0-0.3-0.2-0.3c-0.7,0-1.4,0-2.2,0c-0.2,0-0.4,0.1-0.6,0.3c-0.2,0.3-0.4,0.5-0.6,0.8c-0.8,1.4-1.6,2.9-1.8,4.6
			c0,0.1-0.1,0.2-0.1,0.2c0,0-0.1,0.1-0.1,0.1c0,0-0.1-0.1-0.1-0.1c-0.1-0.3,0-0.7,0.1-1c0.4-1.5,1-2.8,1.8-4.1
			c0.1-0.2,0.4-0.4,0.3-0.6c-0.1-0.2-0.4-0.1-0.6-0.1c-1.6,0-3.2,0.1-4.8,0.1c-0.3,0-0.5,0.1-0.7,0.3c-0.7,0.5-1.2,1.2-1.5,2.1
			c-0.1,0.4-0.2,0.8-0.3,1.1c0,0.1,0,0.3-0.3,0.2c0-0.1,0-0.2,0-0.3c0.2-0.8,0.3-1.5,0.8-2.2c0.3-0.5,0.7-0.8,1.1-1.2
			c0.2-0.2,0.1-0.4-0.1-0.5c-0.5-0.2-1-0.4-1.5-0.3c-0.5,0.1-0.9,0.5-1.3,0.9c-0.9,0.9-1.5,2.1-1.7,3.4c-0.1,0.4-0.2,0.8-0.2,1.2
			c0,0-0.1,0.1-0.1,0.1c-0.1,0-0.1,0-0.1-0.1c-0.1-0.5,0-1,0.1-1.5c0.3-1.3,0.9-2.4,1.8-3.3c0.2-0.2,0.5-0.4,0.8-0.6
			c0.1-0.1,0.1-0.1,0.1-0.2c0-0.1-0.1-0.1-0.2-0.1c-0.7-0.2-1.5-0.4-2.2-0.7c-0.5-0.1-0.8,0-1.1,0.3c-1.6,1.4-2.5,4.1-2.1,6.2
			c0,0.2,0.1,0.4,0,0.6c-0.3-0.4-0.4-0.9-0.4-1.4c-0.1-2.1,0.6-3.9,2.1-5.4c0.1-0.1,0.3-0.2,0.2-0.4c-0.6-0.3-1.3-0.3-1.9-0.5
			c-0.1,0-0.2,0-0.2,0c-1,0.3-1.9,0.7-2.6,1.6c-0.5,0.7-0.9,1.6-1.1,2.4c-0.3,1.1-0.5,2.3-0.3,3.5c0.1,0.7,0.4,1.3,0.6,1.9
			c0,0.1,0.1,0.2,0,0.4c-0.6-0.6-0.8-1.3-0.9-2c-0.3-2,0.1-3.9,1-5.7c0.4-0.8,0.9-1.4,1.7-1.8c0.1-0.1,0.2-0.1,0.3-0.2
			c0,0,0.1-0.1,0.1-0.1c0,0-0.1-0.1-0.1-0.1c-0.6-0.1-1.2-0.1-1.8-0.1c-0.4,0-0.8,0.1-1.1,0.3c-0.7,0.4-1.4,0.8-2.1,1.2
			c-0.3,0.2-0.5,0.4-0.7,0.7c-0.5,1-0.9,2.1-1.1,3.2c-0.1,0.6-0.2,1.2-0.1,1.8c0.1,0.7,0.1,1.3,0.4,2c0,0.1,0.1,0.2,0,0.3
			c-0.3-0.3-0.3-0.3-0.4-0.7c-0.2-0.7-0.2-1.3-0.2-2c0-1.5,0.3-2.9,0.9-4.2c0.1-0.1,0.2-0.3,0-0.5c-0.3,0.1-0.7,0.3-1.1,0.4
			c-0.2,0.1-0.5,0.2-0.4,0.5c0,0.2-0.1,0.2-0.2,0.3c-0.7,0.8-1.6,1.4-2.7,1.7c-0.4,0.1-0.8,0.1-1.2-0.1c0.2-0.3,0.4-0.5,0.7-0.6
			c0.3-0.1,0.6-0.2,0.9-0.3c0.5-0.2,1-0.4,1.4-0.8c-0.1,0-0.1,0,0,0c0,0,0,0,0,0.1c-0.2-0.1-0.4,0-0.7,0c-1.5,0.5-3.1,0.9-4.6,1.4
			c-0.1,0-0.3,0.1-0.4,0c0.2-0.1,0.3-0.3,0.5-0.4c0.2-0.1,0.3-0.2,0.5-0.3c1.1-0.5,2.1-1,3.3-1.2c0.2,0,0.3-0.1,0.5-0.2
			c2.1-0.8,4.1-1.6,6-2.8c1-0.6,2-1.3,2.9-2c0.9-0.7,1.8-1.5,2.6-2.4c1-0.9,1.8-2.1,2.9-2.9c0.1-0.3,0.5-0.5,0.7-0.6
			c1-0.6,2-1,3-1.4c0.2-0.1,0.3-0.1,0.5-0.1c0.6,0,1.2,0,1.8-0.1c0.2,0,0.3,0.1,0.4,0.4c0,0.2,0,0.3-0.3,0.3c-0.3,0.1-0.7,0.1-1,0.2
			c-0.8,0.1-1.5,0.2-2.3,0.5c-0.3,0.1-0.5,0.2-0.8,0.3c-0.6,0.5-1.1,0.9-1.7,1.4c-0.1,0.1-0.2,0.1-0.1,0.3c0.4-0.2,0.8-0.3,1.2-0.5
			c2-0.8,4.1-1.4,6.2-1.7c1.9-0.3,3.9-0.5,5.8-0.8c2.6-0.3,5.1-1,7.5-1.8c0.7-0.3,1.5-0.6,2.1-1c1-0.6,2-1.2,3.1-1.9
			c-0.5-0.3-1-0.3-1.4-0.4c-0.6-0.2-1.1-0.2-1.7-0.1c-0.3,0-0.7,0.1-1,0.1c-0.2,0-0.3-0.1-0.3-0.2c-0.1-0.5,0.1-0.7,0.5-0.8
			c0.2,0,0.4,0,0.5-0.1c0.4-0.2,0.8-0.2,1.1,0c1.4,0.5,2.9,0.7,4.3,0.9c0.4,0.1,0.8,0,1.3,0.1c0.1,0,0.2,0,0.2-0.1
			c0-0.2-0.2-0.2-0.4-0.3c-0.7-0.3-1.4-0.6-2-1c-0.4-0.2-0.7-0.5-1-0.9c0.7-0.1,1.1-0.1,1.7,0.2c1.2,0.6,2.4,1,3.5,1.5
			c1.6,0.6,3.2,1.1,4.9,1.3c1.7,0.2,3.3,0.1,5-0.2c1.1-0.2,2.1-0.6,3.2-0.9c0.2,0,0.3-0.1,0.4-0.3c-0.7-0.3-1.4-0.6-2.1-0.9
			c-1.2-0.5-2.2-1.1-3.2-1.9c-1-0.8-1.8-1.8-2.1-3.1c-0.2-1-0.3-1.9,0.2-2.8c0.1-0.1,0.1-0.2,0.3-0.2c0.3,0.7,0.5,1.4,0.7,2.1
			c0.2,0.9,0.6,1.7,1.2,2.3c0.5,0.5,1,0.9,1.6,1.3c2.1,1.2,4.4,2,6.8,2.5c2.6,0.5,5.2,0.7,7.8,0.9c1.7,0.1,3.5,0.1,5.2-0.1
			c1.5-0.2,3-0.3,4.5-0.7c0.5-0.1,1.1-0.3,1.6-0.4c2.1-0.4,4.1-1,6.1-1.8c1.9-0.8,3.8-1.7,5.6-2.5c0.7-0.3,1.3-0.6,2-0.9
			c1.3-0.6,2.6-1.1,3.9-1.6c3.3-1.3,6.8-2.1,10.2-3c1.9-0.5,3.9-0.9,5.8-1.6c1-0.4,2-0.7,3-1.1c0.3-0.1,0.6-0.3,0.9-0.4
			c1.2-0.4,2.4-0.9,3.6-1.4c1.6-0.7,3.1-1.7,4.2-3.1c0.3-0.3,0.5-0.7,0.7-1.1c0.2-0.5,0.2-1-0.1-1.5c-0.1-0.1-0.1-0.2-0.3-0.1
			c-0.1,0.1-0.2,0.2-0.3,0.2c-0.7,0.7-1.6,1.1-2.6,1.5c-0.6,0.3-1.3,0.4-1.9,0.7c-1.1,0.4-2.3,0.6-3.4,0.9c-1.5,0.4-2.9,0.6-4.4,0.9
			c-1.5,0.2-2.9,0.4-4.4,0.6c-1.9,0.3-3.8,0.4-5.7,0.6c-1.4,0.1-2.7,0.2-4.1,0.4c-2,0.3-3.9,0.8-5.9,1.2c-0.1,0-0.3,0.1-0.4,0.2
			c-0.2,0.3-0.4,0.3-0.7,0.4c-0.5,0.1-1,0.3-1.4,0.5c-1.4,0.5-2.7,1.1-4.1,1.7c-1.3,0.6-2.7,1.1-4.1,1.5c-1.6,0.4-3.1,0.7-4.7,1
			c-1.7,0.3-3.4,0.5-5.2,0.4c-1.7-0.1-3.4-0.3-5.1-0.5c-1.4-0.2-2.7-0.4-4.1-0.4c-0.7,0-1.5,0-2.2,0c-0.5,0-1-0.2-1.6-0.2
			c-0.6,0-1.2-0.2-1.8-0.3c-0.1,0-0.1-0.1-0.2-0.2c0.5-0.2,1-0.3,1.6-0.3c2.1-0.2,4.2-0.2,6.3,0c1.5,0.2,3.1,0.5,4.6,0.6
			c1.8,0.2,3.5,0.3,5.3,0.1c0.6-0.1,1.1-0.1,1.7-0.2c1.9-0.2,3.9-0.6,5.7-1.1c1.6-0.5,3.1-1.1,4.7-1.8c1-0.4,1.9-0.8,2.9-1.2
			c0.3-0.1,0.5-0.2,0.7-0.4c0.5-0.6,1.1-0.8,1.8-1c0.4-0.1,0.8-0.2,1.2-0.3c3.3-0.9,6.7-1.2,10.1-1.5c0.8-0.1,1.7-0.2,2.5-0.2
			c1.2-0.1,2.4-0.3,3.6-0.4c1.4-0.2,2.8-0.4,4.2-0.6c1.1-0.2,2.2-0.4,3.3-0.7c2-0.5,4-1,5.8-2c0.8-0.5,1.5-1,2.1-1.7
			c0.4-0.5,0.3-0.6,0.1-1.1c0-0.1-0.2-0.2-0.3-0.3c-0.1-0.1-0.2-0.3-0.2-0.4c0.1-0.4-0.1-0.7-0.4-1c-0.5-0.6-1-1.2-1.6-1.7
			c-0.9-0.8-1.8-1.6-2.8-2.3c-1.1-0.7-2.2-1.4-3.4-1.9c-1.6-0.8-3.3-1.5-5-2.1c-2.4-0.9-4.8-1.7-7.3-2.4c-0.9-0.3-1.8-0.6-2.7-0.8
			c-1.9-0.5-3.9-0.7-5.8-1c-1.2-0.2-2.4-0.3-3.6-0.6c-2.5-0.6-5-1.2-7.6-1.8c-1.4-0.3-2.9-0.5-4.4-0.7c-1.4-0.1-2.8,0.1-4.2,0.4
			c-2.2,0.4-4.3,1-6.4,1.8c-1.3,0.5-2.7,1-4,1.4c-0.6,0.2-1.1,0.4-1.7,0.4c-0.2,0-0.4,0-0.6,0c-0.1,0-0.2-0.1-0.2-0.2
			c0-0.1,0-0.2,0.1-0.2c0.2-0.2,0.5-0.3,0.7-0.4c0.8-0.3,1.6-0.5,2.5-0.8c0.2-0.1,0.3-0.1,0.4-0.3c0,0,0,0-0.1,0
			c-1.9,0.1-3.9,0.2-5.9,0.1c-1.4,0-2.8,0.3-4.1,0.8c-1.6,0.7-3.2,1.5-4.9,2.2c-0.5,0.2-0.9,0.5-1.4,0.7c-1.9,0.9-4,1.3-6.1,1.7
			c-1.6,0.3-3.1,0.5-4.7,0.8c-1.1,0.2-2.2,0.4-3.4,0.5c-0.9,0.1-1.8,0.3-2.6,0.5c-2.2,0.7-4.5,1.3-6.7,2c-1.4,0.4-2.8,0.7-4.2,1.1
			c-1.6,0.4-3.2,0.7-4.7,0.9c-0.9,0.1-1.7,0.1-2.6,0.2c-0.9,0.1-1.7,0.4-2.6,0.2c-0.1,0-0.2,0-0.2,0c-1.4,0.1-2.9,0.1-4.3,0.1
			c-2.8,0-5.6-0.2-8.4-0.4c-1.8-0.1-3.5-0.3-5.3-0.2c-2,0-3.9,0.1-5.9,0.1c-0.1,0-0.3,0-0.4,0.1c-0.6,0.3-1.2,0.3-1.9,0.2
			c-0.4-0.1-0.7,0-1.1,0c-1.2,0.1-2.3,0.2-3.5,0.3c-1.6,0.1-3.3,0.2-4.9,0.3c-2.5,0.2-4.9,0.1-7.4,0.1c-3.4,0.1-6.8,0-10.2,0
			c-1.1,0-2.3,0-3.4,0c-0.8,0-1.7,0-2.5,0c-1.2-0.1-2.4-0.1-3.6-0.1c-0.3,0-0.7,0-1,0c-1.2-0.1-2.4-0.1-3.6-0.2
			c-1.9-0.1-3.8-0.1-5.7-0.2c-1.1,0-2.2-0.1-3.3-0.2c-0.2,0-0.5-0.1-0.7,0c-0.3,0.2-0.6,0.2-1,0.1c-0.7-0.1-1.4-0.1-2.1-0.4
			c-0.2-0.1-0.4-0.1-0.7-0.1c-1.4-0.1-2.7-0.2-4.1-0.3c-2.3-0.2-4.5-0.4-6.8-0.5c-2.1-0.2-4.3-0.3-6.4-0.5c-1.5-0.1-3.1-0.3-4.6-0.4
			c-1.5-0.1-2.9-0.2-4.4-0.3c-1.1-0.1-2.2-0.1-3.3-0.2c-1.3-0.1-2.6-0.2-3.9-0.2c-3.1,0-6.2,0-9.3,0c-0.2,0-0.4,0-0.7,0.1
			c-0.5,0.2-1.1,0.3-1.6,0.3c-1,0-2,0-2.9-0.2c-0.3,0-0.6,0-0.9,0c-2.6,0-5.2,0.2-7.8,0.2c-0.7,0-1.3,0.1-1.9,0.5c0,0-0.1,0-0.2,0.1
			c-0.2,0.1-0.4,0-0.4-0.1c-0.1-0.3-0.3-0.3-0.5-0.3c-1,0.1-2,0.1-3,0.2c-1.7,0.2-3.3,0.4-5,0.6c-1.8,0.2-3.5,0.5-5.2,0.9
			c-2.4,0.5-4.7,1-7.1,1.6c-0.6,0.1-1.2,0.2-1.7,0.5c-0.2,0.1-0.4,0.1-0.6,0.2c-0.4,0.1-0.8,0.1-1.2,0.2c-0.5,0.1-1,0.2-1.5,0.3
			c-1.4,0.3-2.6,0.9-4,1.3c-0.4,0.1-0.9,0.2-1.2,0.7c0,0-0.1,0.1-0.1,0.1c-0.7,0.4-1.4,0.8-2.2,1c-1.4,0.5-2.9,0.9-4.3,1.4
			c-0.8,0.2-1.6,0.6-2.4,0.9c-1.4,0.6-2.7,1.2-4.1,1.8c-0.2,0.1-0.5,0.2-0.7,0c-0.2-0.1-0.5-0.1-0.7-0.1c-0.4,0.1-0.8,0.2-1.1,0.2
			c-1,0.2-2.1,0.4-3.1,0.6c-1.3,0.2-2.6,0.4-3.9,0.7c-0.5,0.1-0.9,0.2-1.4,0.3c-0.1,0-0.4,0.1-0.4,0c-0.1-0.3-0.4-0.3-0.6-0.3
			c-1.1,0.1-2.2,0.1-3.3,0.2c-2,0.2-4.1,0.2-6.1,0.1c-2.3,0-4.6-0.1-6.9-0.2c-1.8,0-3.7,0-5.5,0c-0.7,0-1.3,0-2-0.1
			c-1.2-0.1-2.4-0.2-3.7-0.3c-1.6-0.1-3.2-0.2-4.8-0.4c-2.5-0.3-5-0.4-7.5-0.4c-1.4,0-2.9,0-4.3,0c-1.3,0-2.6,0-3.9,0
			c-2,0.1-4.1,0.2-6.1,0.3c-1.8,0.1-3.6,0.3-5.4,0.6c-2,0.3-4,0.6-5.9,0.9c-1.5,0.3-3.1,0.6-4.6,1c-2.3,0.6-4.6,1.2-6.9,1.7
			c-2.1,0.5-4.2,0.9-6.4,1.4c-1.3,0.3-2.5,0.6-3.8,0.9c-2,0.5-3.9,0.9-5.9,1.3c-1.4,0.3-2.8,0.6-4.2,0.8c-1.6,0.2-3.3,0.5-4.9,0.6
			c-2.8,0.3-5.6,0.4-8.3,0.6c-1.6,0.1-3.1,0.1-4.7,0.2c-1.9,0-3.7,0.1-5.6,0.1c-4.9,0-9.7,0.1-14.6-0.2c-1.4-0.1-2.7-0.1-4.1-0.2
			c-0.9-0.1-1.8-0.2-2.8-0.2c-1.5,0-2.9-0.2-4.4-0.4c-1-0.1-2-0.2-3-0.4c-1.3-0.2-2.7-0.4-4-0.6c-1.6-0.2-3.2-0.6-4.8-0.9
			c-2.3-0.5-4.7-0.9-7-1.3c-1.8-0.3-3.5-0.6-5.3-0.9c-2.2-0.3-4.4-0.6-6.5-1c-0.9-0.1-1.8-0.3-2.7-0.3c-2-0.2-3.9-0.3-5.9-0.3
			c-1.1,0-2.2-0.1-3.3-0.1c-0.6,0-1.3,0-1.9,0.1c-1.1,0.2-2.2,0.4-3.4,0.7c-1,0.2-1.9,0.5-2.9,0.7c-0.2,0-0.4,0.1-0.5,0.3
			c0.7,0,1.4,0.1,2.1,0.1c1.8,0.1,3.6,0.5,5.4,0.9c1.1,0.3,2.2,0.7,3.3,1.1c2,0.7,3.9,1.3,5.8,2.1c1.4,0.5,2.8,1,4.2,1.6
			c2.4,0.9,4.7,2,7.1,2.8c2.7,0.9,5.4,1.7,8.1,2.3c3,0.7,5.9,1.5,8.8,2.4c0.5,0.2,1,0.4,1.3,0.9c0.1,0.1,0.2,0.2,0.3,0.2
			c0.5,0,1,0.2,1.5,0.3c1,0.2,1.9,0.5,2.8,1c1.1,0.6,2.3,1.1,3.4,1.5c2.6,0.9,5.3,1.7,7.9,2.5c1,0.3,2.1,0.6,3.1,0.8
			c1.3,0.3,2.6,0.6,3.8,0.9c1.5,0.3,2.9,0.7,4.4,1c2.1,0.4,4.2,0.9,6.3,1.3c1,0.2,1.9,0.4,2.9,0.4c2.9,0,5.9,0,8.8,0
			c3.7,0,7.3,0,11-0.1c3.3-0.1,6.6-0.2,9.9-0.4c0.3,0,0.7-0.1,1-0.1c0.8,0,1.5-0.3,2.2-0.4c1.8-0.2,3.6-0.6,5.4-0.9
			c2.5-0.5,4.9-1.1,7.4-1.5c2.6-0.5,5.2-0.9,7.8-1.2c0.5-0.1,1-0.2,1.5-0.2c1.4-0.1,2.9-0.2,4.3-0.3c2.4-0.1,4.8-0.2,7.3-0.2
			c3.6-0.1,7.1,0,10.7,0.1c1.9,0.1,3.8,0.1,5.7,0.1c1.7,0,3.4,0.2,5,0.6c0.9,0.2,1.8,0.3,2.6,0.4c0.8,0.1,1.6,0.3,2.4,0.3
			c0.7,0.1,1.4,0.1,2.1,0.3c0.3,0.1,0.7,0.1,1,0.2c0.8,0.2,1.6,0.3,2.5,0.4c0.8,0.1,1.7,0.3,2.5,0.4c0.8,0.1,1.5,0.3,2.3,0.4
			c0.9,0.1,1.7,0.4,2.6,0.3c0.1,0,0.2,0,0.2,0.1c0.3,0.1,0.7,0.1,1.1,0.1c0.2,0,0.5,0,0.7,0c0.9,0.2,1.9,0.1,2.8,0.3
			c0,0,0.1,0,0.1,0c0.4,0,0.7,0,1.1,0.1c0.2,0.1,0.4,0.1,0.6,0.1c0.9-0.1,1.7,0.3,2.6,0.1c0,0,0.1,0,0.2,0c0.5,0.2,1,0.1,1.5,0.1
			c0.5,0,1,0.2,1.6,0.1c0.3,0,0.6,0,0.9,0c1.2,0.1,2.3,0.2,3.5,0.3c0.5,0,1,0.1,1.5,0.3c0.4,0.2,0.9,0.3,1.4,0.2
			c0.5-0.1,1-0.1,1.5-0.1c0.4,0,0.7,0,1.1-0.1c0.2,0,0.4-0.1,0.6,0c0.4,0,0.8,0,1.2-0.1c0.2-0.1,0.4-0.1,0.6,0c0.3,0.1,0.6,0,0.9,0
			c0.7-0.2,1.4-0.1,2.2,0c0.5,0,1,0.1,1.5,0.1c0.9-0.1,1.7-0.1,2.6,0c0.6,0.1,1.3-0.2,2,0c0.2,0,0.3,0,0.5-0.1
			c0.9-0.1,1.8,0,2.7-0.2c0.1,0,0.1,0,0.2,0c0.9,0,1.8-0.3,2.7-0.2c0.1,0,0.3-0.1,0.4-0.1c0.2-0.1,0.4-0.1,0.6-0.1
			c0.5,0.1,0.9,0,1.3-0.2c0.2-0.1,0.4-0.1,0.7-0.1c0.5,0,0.9-0.1,1.4-0.2c0.5-0.1,1,0,1.5-0.2c0.1,0,0.1,0,0.2,0
			c0.3-0.1,0.5-0.1,0.8-0.2c0.7-0.1,1.4-0.2,2.1-0.3c0.3-0.1,0.5-0.1,0.8-0.1c0.2,0,0.5-0.1,0.7-0.1c0.3-0.1,0.6-0.1,1-0.2
			c0.7-0.1,1.4-0.3,2-0.7c0.9-0.6,1.9-1.1,2.8-1.6c0.4-0.2,0.8-0.5,1.2-0.6c1.3-0.6,2.6-0.9,4-1.2c0,0,0.1,0,0.1,0.1
			c0,0,0,0.1-0.1,0.1c-0.1,0.1-0.2,0.1-0.3,0.2c-1.3,0.7-2.5,1.3-3.7,2c-0.1,0-0.2,0.1-0.2,0.2c0.1,0,0.3,0.1,0.4,0.1
			c-0.2,0.3-0.5,0.3-0.7,0.4c-0.1,0-0.2,0.1-0.1,0.2c0,0,0.1,0.1,0.1,0.1c0.9-0.1,1.7-0.1,2.6-0.1c0.5,0,0.9-0.1,1.4-0.1
			c1.2,0,2.3,0.1,3.5,0.4c0.5,0.1,0.6,0.1,0.7-0.4c0-0.2,0.2-0.4,0.2-0.5c0.6-1.1,1.4-2.1,2.3-3c0.9-0.8,1.8-1.5,2.8-2.1
			c0.2-0.1,0.4-0.2,0.7-0.1c-0.3,0.2-0.5,0.4-0.8,0.7c-0.2,0.2-0.4,0.5-0.6,0.8c-0.2,0.3-0.5,0.5-0.8,0.7c-1.1,0.8-1.9,1.8-2.6,2.9
			c-0.3,0.5-0.5,1-0.6,1.5c-0.1,0.3,0.1,0.6,0,0.8c-0.3,0.9-0.1,1.8,0.2,2.7c0.4,0.9,0.8,1.8,1.3,2.6c0.5,0.8,1.1,1.5,1.9,2
			c0.6,0.4,1.3,0.8,2,1.2c1.4,0.7,2.7,1.5,4.2,2.1c1.2,0.5,2.3,0.9,3.5,1.4c0.9,0.3,1.8,0.7,2.7,1c1,0.3,2.1,0.7,3.1,1
			c1.8,0.6,3.6,1.2,5.4,1.8c1.3,0.4,2.6,0.9,3.9,1.2c0.6,0.2,1.2,0.5,1.7,0.9c0.1,0.1,0.2,0.2,0.3,0.2c0.5,0,0.9,0.1,1.4-0.1
			c0.4-0.2,0.9-0.4,1.4-0.5c0.8-0.2,1.5-0.5,2.2-0.9c0.7-0.4,1.5-0.7,2.2-0.9c1.8-0.6,3.6-1,5.5-1.1c0.1,0,0.2,0,0.2,0
			c0.1,0,0.3,0.1,0.3,0.3c0,0.1-0.1,0.2-0.2,0.3c-0.3,0.1-0.6,0.2-1,0.2c-1.4,0-2.8,0.4-4.2,0.8c-0.1,0-0.3,0.1-0.3,0.2
			c0,0-0.1,0-0.1,0c0,0,0,0,0,0c0,0,0.1-0.1,0.1-0.1c0.3,0.1,0.6,0,0.9,0c0.5,0,1-0.1,1.5-0.2c1.4-0.1,2.9-0.1,4.3-0.3
			c0.5-0.1,1-0.2,1.6-0.3c0.2,0,0.3,0.1,0.4,0.2c0,0.2,0,0.3-0.2,0.4c-0.1,0-0.1,0.1-0.2,0.1c-0.4,0.1-0.8,0.2-1.1,0.3
			c-1.1,0.1-2.2,0.3-3.3,0.3c-0.9,0-1.8,0.1-2.7,0.2c-1.2,0.2-2.5,0.4-3.7,0.7c-1.6,0.3-3.1,0.9-4.5,1.6c-0.2,0.1-0.6,0.2-0.7,0.5
			c-0.2,0.3-0.4,0.5-0.7,0.7c-0.9,0.7-1.8,1.4-2.5,2.2c-1.1,1.3-2,2.6-2.8,4.2c-0.2,0.3-0.3,0.6-0.6,0.9c-0.1,0.1-0.2,0.2-0.3,0.2
			c-0.3-0.1-0.4,0.1-0.6,0.2c-0.4,0.3-0.8,0.6-1.2,1c-1.2,1-2.6,1.7-3.9,2.6c-0.5,0.3-1,0.7-1.5,1.1c-1,0.8-1.8,1.8-2.2,3.1
			c-0.3,1-0.2,1.9,0.4,2.8c0.5,0.8,1.3,1.2,2.2,1.5c0.1,0,0.3,0.1,0.4,0.1c0.7,0.3,1.3,0.7,1.8,1.3c0.5,0.6,1,1,1.6,1.5
			c0.1,0.1,0.2,0.2,0.3,0.1c0.2-0.2,0.3,0,0.5,0.2c0.2,0.3,0.4,0.7,0.7,0.9c0.3,0.3,0.5,0.5,0.7,0.8c0.1,0.2,0.3,0.4,0.4,0.6
			c0.1,0,0.1,0,0.2,0c1-0.5,2-0.5,3-0.1c0.2,0.1,0.4,0.2,0.5,0.2c0-0.1,0-0.1,0,0c0,0,0,0,0,0c0-0.2-0.1-0.4-0.2-0.5
			c-0.1-0.2-0.3-0.3-0.3-0.6l0,0c0.3,0.1,0.5,0.4,0.7,0.6c0.3,0.4,0.6,0.8,0.9,1.3c0.2-0.2,0.5-0.1,0.7-0.4
			c-0.1-0.1-0.2-0.2-0.3-0.3c-0.1-0.3-0.3-0.5-0.6-0.4c-0.1,0-0.2-0.1-0.1-0.2c0.1-0.2,0-0.4-0.1-0.5c-0.1-0.1-0.3-0.3-0.4-0.4
			c-0.6-0.6-1.2-1.2-1.8-1.9c-0.1-0.1-0.2-0.2-0.2-0.3c0,0,0-0.1,0-0.1c0,0,0.1,0,0.1,0c0.1,0,0.1,0.1,0.2,0.2
			c0.6,0.6,1.2,1.2,1.8,1.9c0.2,0.2,0.3,0.3,0.5,0.4c0.5-0.9,0.1-1,2.1-2c-0.6-0.4-1.1-0.8-1.6-1.2c-1.1-0.9-1.2-0.9-1.4-1.5
			c0.2,0.2,0.4,0.3,0.6,0.4c0.6,0.5,1.2,1,1.8,1.4c0.5,0.4,1,0.8,1.5,1.2c-0.8-0.1-1.5,0.2-2,0.7c-0.3,0.3-0.4,0.7-0.6,1.1
			c-0.1,0.3,0.2,0.4,0.3,0.7c0.2,0.5,0.6,0.8,1,1.2c0.1-0.7,0.3-1.2,0.7-1.7c0.4-0.5,1-0.6,1.6-0.8c-0.1-0.4-0.4-0.5-0.5-0.7
			c-0.2-0.2-0.4-0.3-0.4-0.6c0.1-0.1,0.3-0.2,0.3-0.2c0.4,0.2,0.8,0.3,1,0.7c0,0,0,0,0,0c-0.2,0-0.4,0.1-0.6,0.1c0-0.1,0-0.1,0,0
			c0,0.1,0.1,0-0.1,0c0.3,0.2,0.5,0.5,0.7,0.8c0.1,0.1,0,0.2-0.1,0.3c-0.1,0-0.2,0-0.2,0c-1,0.1-1.7,0.6-2,1.6
			c-0.1,0.3-0.3,0.6-0.3,1c-0.9-0.5-0.9-0.4-1.6,0c-0.1,0-0.2-0.1-0.2-0.2c-0.1-0.2-0.2-0.4-0.4-0.5c-1-0.6-2-1-3.2-0.6
			c-0.2,0.1-0.5,0.1-0.6,0.4c-0.1,0.2,0.1,0.4,0.2,0.5c0.1,0.3,0.1,0.7,0.1,1c0,0.1,0,0.2-0.1,0.2c-0.3,0.1-0.2,0.3-0.1,0.5
			c0.1,0.3,0.2,0.7,0.3,1c0,0.1,0.1,0.2,0.1,0.3c0,0.1,0.1,0.1,0.2,0c0.1-0.1,0.2-0.2,0.3-0.3c0.7-0.8,1.6-1.1,2.6-1
			c0.4,0,0.7,0.1,1.1,0.2c-0.1-0.3-0.2-0.5-0.4-0.7c-0.2-0.3-0.1-0.5,0.1-0.7c0.1,0.5,0.5,0.7,0.8,1.1c0,0,0.2,0,0.2,0
			c0.4-0.3,0.8-0.3,1.2-0.3c0.4,0,0.4,0,0.5-0.4c0.2-1,0.8-1.6,1.7-2c0.1,0,0.3-0.1,0.4-0.1c0.4-0.1,0.4-0.1,0.4-0.5
			c0-0.7,0.3-1.3,0.9-1.7c0.1,0,0.1-0.1,0.2-0.2c0-0.1-0.1-0.2-0.1-0.2c-0.1-0.3,0-0.5,0.3-0.5c0.2,0,0.3,0.2,0.6,0
			c0-0.6,0.3-1.1,0.7-1.6c-0.2-0.2-0.5-0.3-0.7-0.3c-0.3-0.1-0.4-0.1-0.5,0.2c0,0.1,0,0.3-0.2,0.3c-0.2,0-0.1-0.2-0.2-0.4
			c0-0.1,0.1-0.3,0-0.4c-0.2-0.2-0.5-0.3-0.8-0.2c-0.3,0.1-0.3,0.3-0.4,0.5c0,0-0.1,0.1-0.1,0c0,0,0-0.1-0.1-0.1
			c-0.1-0.2,0.2-0.4,0.1-0.7c-0.1-0.1-0.3-0.1-0.4-0.2c-1.1-0.4-2.2-0.9-3.2-1.3c-0.7-0.3-1.2-0.7-2-0.8c-0.2-0.2-0.4-0.1-0.6,0
			c-0.4,0.3-0.7,0.6-1,0.8c-0.3,0.2,0.2,0.5-0.1,0.6c-0.2,0.1-0.5-0.1-0.7,0.1c-0.2,0.3-0.5,0.6-0.7,0.9c-0.4,0.7-0.8,1.3-1.1,2
			c0,0.1-0.1,0.1-0.2,0.1c0-0.1-0.1-0.1,0-0.2c0.1-0.3,0.2-0.7,0.4-1c0.4-0.7,0.8-1.4,1.3-1.9c0.1-0.1,0.2-0.2,0.3-0.3
			c0.1-0.1,0-0.2,0-0.3c-0.1-0.1-0.1-0.2-0.2-0.3c0.2-0.1,0.3,0,0.4,0.1c0.1,0,0.2,0.1,0.3,0c0.3-0.2,0.6-0.4,0.8-0.8
			c-0.3-0.1-0.6,0-0.9,0c-0.4,0.1-0.8,0.2-1.2,0.3c-0.7,0.2-1.4,0.5-2,0.8c-0.5,0.2-1.1,0.4-1.8,0.5c0.1-0.1,0.2-0.2,0.2-0.3
			c0.6-0.5,1.4-0.9,2.1-1.1c1-0.4,2-0.8,3.1-0.9c1.2-0.2,2.4-0.2,3.6,0c0.2,0,0.4,0.1,0.5,0c0.6-0.3,1.2-0.4,1.8-0.7
			c0.5-0.2,0.8-0.6,0.9-1c0.1-0.2,0-0.3-0.1-0.4c-0.2-0.1-0.4-0.1-0.6-0.2c-0.2-0.1-0.4-0.1-0.4-0.2c-0.3-0.4-0.7-0.4-1.1-0.5
			c-1-0.2-2.1-0.3-3.1-0.4c-1.2-0.1-2.4-0.2-3.7,0c-0.2,0-0.4,0-0.7,0c-0.1,0-0.2-0.1-0.2-0.2c0-0.2,0.1-0.2,0.2-0.3
			c0.1,0,0.2,0,0.2-0.1c0.9-0.1,1.8-0.2,2.8-0.1c1.2,0.1,2.4,0.1,3.7,0.3c1,0.2,2.1,0.5,3.1,0.8c0.4,0.2,0.8,0.4,0.9,0.9
			c0,0.2,0.1,0.3,0.3,0.2c0.9-0.1,1.8-0.2,2.6-0.5c0.8-0.3,1.3-0.9,1-2c-0.2-0.7-0.6-1.2-1.2-1.5c-0.4-0.2-0.8-0.4-1-0.8
			c-0.1-0.1-0.3-0.2-0.4-0.2c-0.9-0.5-1.9-0.7-2.9-1c-0.9-0.3-1.9-0.5-2.8-0.7c-0.6-0.1-0.8-0.2-1.2-0.6c0.5-0.2,1.1-0.2,1.6-0.1
			c0.5,0.1,0.9,0.2,1.4,0.3c2,0.5,3.9,1,5.6,2.1c0.8,0.5,1.4,1.1,1.6,2c0.1,0.4,0.2,0.8,0.2,1.2c0.1,0,0.2,0,0.2-0.1
			c0.5-0.5,1.1-0.8,1.7-1.1c0.4-0.2,0.7-0.4,1.1-0.7c0.2-0.1,0.3-0.3,0.5-0.5c0.2-0.3,0.2-0.5,0-0.7c-0.2-0.2-0.5-0.4-0.7-0.6
			c-0.2-0.4-0.6-0.6-1-0.7c-0.6-0.2-1.1-0.4-1.7-0.6c-0.4-0.1-0.7-0.3-1.1-0.4c-0.2-0.1-0.4-0.1-0.5-0.3c0.4-0.1,0.8,0,1.1,0
			c0.2,0,0.4,0.1,0.6,0.2c1.3,0.4,2.6,0.9,3.8,1.7c0.2,0.1,0.4,0.2,0.6,0.1c0.1,0,0.2-0.1,0.3,0c0.4,0.2,0.8,0,1.2-0.1
			c0.4-0.1,0.8-0.2,1.2-0.4c0.9-0.3,1.8-0.6,2.6-1.1c0.3-0.2,0.5-0.3,0.7-0.6c0.2-0.2,0.2-0.5-0.1-0.7c-0.3-0.3-0.7-0.5-1.2-0.6
			c-0.4-0.1-0.8-0.3-1-0.6c-0.1-0.2-0.3-0.2-0.5-0.3c-0.4-0.1-0.7-0.3-1.1-0.4c-0.8-0.3-1.6-0.5-2.5-0.8c-1.3-0.5-2.6-0.9-3.9-1.2
			c-0.9-0.2-1.8-0.4-2.7-0.4c-0.1,0-0.2,0-0.2,0c-0.1,0-0.2-0.1-0.2-0.2c0-0.1,0-0.2,0.1-0.3c0.1-0.1,0.3-0.1,0.4-0.1
			c0.4,0,0.8,0,1.3,0.1c1.9,0.3,3.8,0.8,5.6,1.5c1,0.4,2,0.7,3,1c1.2,0.4,2.5,0.7,3.8,1.1c0.3,0.1,0.6,0.2,0.9,0.2
			c0.5,0.1,1-0.1,1.5-0.3c1-0.5,1.5-1.3,1.8-2.3c0.3-0.9,0.6-1.8,1-2.6c0.2-0.4,0.3-0.8,0.5-1.2c0.2-0.6,0.4-1.2,0.2-1.9
			c-0.1-0.2-0.1-0.5,0.1-0.7c0.3-0.2,0.2-0.4,0-0.6c-0.2-0.2-0.4-0.4-0.7-0.6c-0.5-0.4-1.1-0.7-1.6-1c-1.1-0.5-2.1-1.1-3.2-1.6
			c-0.1-0.1-0.2-0.1-0.4-0.2c-0.2-0.1-0.3-0.2-0.2-0.4c0.1-0.3-0.1-0.5-0.3-0.6c-0.4-0.2-0.7-0.5-1-0.8c-0.4-0.4-0.9-0.8-1.3-1.1
			c-0.1-0.1-0.3-0.2-0.4-0.3c-0.1-0.1-0.2-0.2-0.2-0.3c0-0.1,0.2-0.1,0.3-0.2l0,0.1l0,0c-0.5-0.2-0.9-0.6-1.3-0.9
			c-0.9-0.8-1.8-1.6-2.7-2.3c-0.5-0.4-0.9-0.8-1.4-1.2c-1-0.8-2-1.6-2.9-2.4c-0.8-0.7-1.8-1.3-2.5-2.1c-0.2-0.3-0.5-0.5-0.8-0.7
			c-0.8-0.5-1.6-1-2.4-1.5c-1.4-0.8-2.7-1.7-4.1-2.4c-0.8-0.4-1.6-0.8-2.4-1.1c-0.5-0.2-1.1-0.4-1.6-0.7c-0.7-0.4-1.5-0.8-2.3-1.1
			c-0.4-0.2-0.9-0.2-1.4-0.3c-1.2-0.3-2.4-0.6-3.6-0.8c-0.5-0.1-1-0.2-1.6-0.3c-1.6-0.3-3.1-0.7-4.8-0.6c-0.1,0-0.2,0-0.3-0.1
			c0-0.1,0.1-0.2,0.3-0.3c0.2,0,0.4,0,0.7,0c1,0,2.1,0,3.1,0.2c1.7,0.2,3.3,0.3,5,0.7c1.6,0.4,3.1,0.9,4.7,1.5
			c1.4,0.5,2.7,1.1,4,1.7c0.5,0.2,1.1,0.5,1.6,0.8c1,0.5,1.9,1.1,2.9,1.7c0.5,0.3,1,0.6,1.4,0.9c0.5,0.3,1,0.5,1.4,1
			c0.2,0.2,0.4,0.2,0.6,0.2c1.3,0.2,2.5,0.5,3.8,0.7c0.4,0.1,0.9,0.2,1.3,0c1.3-0.4,2.6-0.8,3.8-1.4c0.8-0.4,1.6-0.9,2.5-1.3
			c0.5-0.2,0.9-0.5,1.6-0.5c-1.3,1.3-3,2-4.5,2.8c0.2,0.5,0.2,0.5,0.6,0.5c0.3,0,0.6-0.1,0.9,0c1.4,0.3,2.9,0.6,4.3,0.9
			c1.4,0.2,2.8,0.6,4.3,0.8c2,0.3,3.9,0.7,5.9,0.9c1.2,0.1,2.4,0.3,3.6,0.4c2,0.2,4,0.3,6,0.5c1.1,0.1,2.2,0.2,3.3,0.2
			c1,0.1,2,0.2,3,0.3c1.4,0.1,2.7,0.1,4.1,0.2c2.1,0.2,4.3,0.2,6.4,0.2c2.5,0,5,0,7.5-0.1c1.6-0.1,3.2-0.2,4.8-0.3
			c2.3-0.2,4.7-0.4,7-0.7c0.5-0.1,0.8-0.2,1.2-0.5c1.2-1.1,2.5-2.2,3.9-3.1c1.7-1.1,3.3-2.4,4.7-3.9c1.2-1.2,2.7-2.3,4.2-3.1
			c1.2-0.6,2.4-1.1,3.6-1.4c2-0.6,3.9-0.7,6-0.6c0.9,0.1,1.8,0.2,2.7,0.4c0.7,0.1,1.3,0.4,1.9,0.7c0.1,0.1,0.3,0.1,0.2,0.3
			c-0.6,0-1.3-0.1-1.9-0.2c-1.2-0.3-2.4-0.4-3.6-0.4c-2.3-0.1-4.4,0.3-6.6,1c-0.1,0-0.1,0.1-0.2,0.2c0.1,0.1,0.2,0.1,0.3,0
			c0.6-0.2,1.2-0.3,1.9-0.4c0.9-0.1,1.7-0.1,2.6-0.1c0.2,0,0.4,0.1,0.6,0.2c0.1,0.1,0.2,0.2,0.1,0.3c0,0.1-0.1,0.2-0.2,0.2
			c-0.1,0-0.3,0-0.4,0c-0.5,0-0.9,0-1.4,0c-1.3,0-2.5,0.2-3.7,0.6c-1.8,0.6-3.4,1.5-4.9,2.6c-0.3,0.3-0.7,0.5-0.9,0.8
			c-1.4,1.5-3,2.9-4.7,4c-0.5,0.3-0.9,0.7-1.2,1.1c-0.3,0.3-0.5,0.5-0.7,0.8c-0.1,0.2-0.3,0.3-0.5,0.4c-0.5,0.2-0.9,0.6-1.4,0.9
			c-0.3,0.2-0.6,0.5-0.7,0.9c-0.1,0.2-0.2,0.3-0.3,0.4c-0.4,0.3-0.7,0.7-1,1.1c-0.3,0.4-0.6,0.7-0.9,1.1c-0.4,0.6-0.5,0.6,0.2,1.1
			c0,0,0,0,0.1,0.1c1.2,0.9,2.5,1.7,3.9,2.3c1.7,0.7,3.3,1.6,4.9,2.5c1.8,1,3.5,2,5.6,2.4c0.1,0,0.1,0,0.2,0.1
			c0.8,0.2,1.7,0.4,2.5,0.6c1.9,0.3,3.9,0.4,5.8,0.3c1.4-0.1,2.8-0.2,4.1-0.5c1.8-0.4,3.5-0.9,5.3-1.3c0.6-0.1,1.1-0.2,1.7-0.1
			c0.1,0,0.3,0.1,0.4,0c0.9-0.1,1.8-0.1,2.7-0.3c0.5-0.1,1,0.1,1.6-0.1c0.1,0,0.2,0.1,0.2,0.1c0.1,0.2,0.2,0.2,0.3,0.2
			c0.5,0.1,0.9,0.2,1.4,0.3c0.6,0.1,1.2,0.2,1.6,0.6c0.6,0.4,1.3,0.7,1.9,1.1c0.9,0.5,1.8,1.1,2.6,1.9
			C438.2,82.7,438.6,83.2,439.1,83.6z M379.2,23.4c0.2,0.1,0.4,0.3,0.6,0.3c1.3,0.4,2.5,1.1,3.7,1.6c1.1,0.5,2.3,1,3.5,1.3
			c0.2,0,0.4,0.1,0.6,0.1c0.8,0,1.5-0.1,2.3-0.1c0.2,0,0.4-0.1,0.5-0.3c0.3-0.5,0.3-0.9,0-1.3c-0.3-0.4-0.7-0.7-1.2-0.9
			c-0.2-0.1-0.4-0.2-0.6-0.3c-0.2-0.1-0.1-0.3-0.1-0.4c0-0.2,0.2-0.2,0.3-0.2c0.7,0.1,1.4,0.4,2.1,0.7c0.9,0.4,1.9,0.7,2.9,1.1
			c1.2,0.5,2.4,0.6,3.6,0.9c0.3,0.1,0.6,0.1,0.8,0.1c1.1-0.1,2.3-0.1,3.4-0.2c0.3,0,0.5-0.1,0.6-0.3c0.3-0.4,0.4-0.7,0.2-1.2
			c-0.1-0.4-0.3-0.7-0.6-1c-0.5-0.5-1.2-0.8-2-0.8c-0.5,0-1.1,0.1-1.6,0c-1.9-0.1-3.9-0.1-5.8-0.1c-2.3,0.1-4.6,0.2-6.9,0.3
			c-0.3,0-0.6,0-0.9-0.1c-0.4-0.2-0.7-0.1-1.1-0.1c-1.4,0.2-2.8,0.6-4.2,0.6C379.3,23.3,379.3,23.3,379.2,23.4z M366.7,23.6
			c0.5,0.5,1,0.7,1.5,0.9c1.6,0.7,3.1,1.3,4.8,1.8c1,0.3,1.9,0.5,2.9,0.5c0.2,0,0.4,0,0.5,0c0.7-0.4,1.3-0.7,1.8-1.3
			c0.1-0.1,0.2-0.3,0.2-0.5c0.1-0.8-0.6-1.7-1.5-1.7c-0.4,0-0.9,0.1-1.3,0.1c-2.4,0-4.8,0.1-7.3,0.1
			C367.8,23.5,367.2,23.5,366.7,23.6z M352.3,23.5c0,0.3,0.3,0.3,0.4,0.4c2.1,1,4.4,1.8,6.6,2.5c0.1,0,0.2,0.1,0.3,0.1
			c0.8,0,1.6,0.1,2.3,0.1c0.9,0.1,1.4-0.4,1.9-0.9c0.3-0.4,0.4-0.8,0.2-1.3c-0.3-0.7-0.4-0.8-1.1-0.8c-2.8,0-5.6,0-8.4-0.1
			c-0.5,0-1,0-1.5,0C352.8,23.4,352.6,23.4,352.3,23.5z M324.1,21.8c0.2,0.1,0.3,0.2,0.4,0.2c2.2,1.1,4.5,1.9,6.9,2.6
			c0.2,0.1,0.4,0.1,0.6,0.1c1.2,0.1,2.4,0.2,3.7,0.3c0.3,0,0.7,0,1,0c0.1,0,0.3,0,0.3-0.1c0.5-0.5,0.9-1,0.9-1.6
			c0-0.2-0.1-0.3-0.3-0.3c-0.8-0.1-1.6-0.1-2.4-0.2c-0.9-0.1-1.9-0.2-2.8-0.2c-1.4-0.1-2.9-0.3-4.3-0.4c-1-0.1-1.9-0.2-2.9-0.4
			C324.8,21.7,324.6,21.7,324.1,21.8z M415.8,26.1c-0.1-0.3-0.1-0.4-0.1-0.6c-0.1-0.7-0.5-1.3-1.2-1.6c-0.2-0.1-0.4-0.2-0.5-0.3
			c-0.1-0.4-0.5-0.5-0.9-0.5c-0.4,0-0.8,0-1.3,0c-2.6,0.1-5.3,0-7.9-0.3c-0.2,0-0.3-0.1-0.5,0c0,0,0,0.1,0,0.1
			c0.2,0.1,0.4,0.2,0.6,0.3c2.2,0.8,4.3,1.6,6.5,2.3c1,0.3,1.9,0.5,2.9,0.5c0.4,0,0.8,0.1,1.2,0.1C415.2,26,415.5,26,415.8,26.1z
			 M477.5,83.9c0.1-0.4,0-0.8,0-1.2c-0.2-1.5-1-2.6-2.4-3.2c-1.1-0.5-2.1-0.3-3.1,0.4c-0.2,0.2-0.5,0.4-0.6,0.7c0,0,0,0.1,0,0.2
			c0,0,0.1,0,0.1,0c0.1,0,0.1,0,0.2,0c0.6-0.2,1.3-0.2,1.9,0c0.2,0.1,0.5,0.2,0.7,0.3c0,0,0,0.1,0,0.1c0,0.1,0,0.1-0.1,0.1
			c-0.1,0-0.2,0-0.2,0c-0.8-0.2-1.7-0.2-2.5,0c-0.3,0.1-0.3,0.1-0.3,0.4c0,0.2,0.1,0.3,0.1,0.5c0.1,0.3,0.2,0.4,0.5,0.4
			c0.4-0.1,0.8-0.1,1.3,0c1.6,0.1,2.9,0.8,3.7,2.3c0.1,0.1,0.1,0.2,0.2,0.4c0,0,0.1,0.1,0.1,0.1c0,0,0.1-0.1,0.1-0.1
			C477.4,84.7,477.5,84.3,477.5,83.9z M343.4,23.2C343.4,23.2,343.4,23.2,343.4,23.2c-0.8,0-1.5,0-2.3,0c-0.2,0-0.4,0-0.7,0.1
			c0,0-0.1,0.1-0.1,0.1c0.1,0.1,0.2,0.2,0.2,0.2c1.4,0.8,2.8,1.5,4.3,2.1c0.1,0,0.3,0.1,0.4,0.1c1.1,0.1,2.2,0.1,3.2,0.2
			c0.3,0,0.5-0.1,0.6-0.3c0.3-0.4,0.3-0.8,0.1-1.3c-0.1-0.2-0.2-0.4-0.3-0.6c-0.1-0.3-0.4-0.4-0.7-0.4
			C346.8,23.3,345.1,23.3,343.4,23.2z M315.6,125.3c0-0.2,0-0.4,0-0.6c0-0.1,0.1-0.3,0.2-0.4c0.4-0.4,0.8-0.8,1.4-0.9
			c0.6-0.2,1.2-0.2,1.8-0.1c0.2,0,0.3,0.1,0.5-0.1c0.1-0.2,0-0.3-0.1-0.5c-0.3-0.5-0.7-1-1.1-1.4c-0.9-0.7-1.9-0.8-3-0.5
			c-0.5,0.2-0.9,0.6-1,1c-0.3,0.7-0.3,1.5-0.3,2.2c0,0.2,0.1,0.4,0.2,0.5c0.3,0.6,0.7,1,1.2,1.5c0.1,0.1,0.2,0.2,0.4,0.1
			c0.2-0.1,0.1-0.2,0.1-0.4C315.6,125.7,315.6,125.5,315.6,125.3z M339.6,124.3c0.6,0,1.1,0.2,1.6,0.5c0.7,0.4,1,0.7,1,1.2
			c-0.1,0-0.2-0.1-0.2-0.1c-0.7-0.6-1.5-1-2.4-1.3c-0.1,0-0.2,0-0.3,0.1c-0.1,0.3,0,0.6,0.1,0.9c0.1,0.2,0.3,0.2,0.5,0.3
			c0.8,0.3,1.4,0.7,2.1,1.2c0.7,0.6,1.3,1.3,1.7,2.3c0.1,0.4,0.3,0.8,0.4,1.2c0,0,0.1,0.1,0.1,0.1c0,0,0.1,0,0.1-0.1
			c0,0,0.1-0.1,0.1-0.1c0.6-1.3,0.8-2.6,0.1-4c-0.7-1.3-1.6-2.4-3.2-2.7c-0.5-0.1-1,0-1.4,0.2C339.7,124,339.7,124.1,339.6,124.3z
			 M318.7,121.2C318.7,121.2,318.8,121.2,318.7,121.2c0-0.7-0.3-1.2-0.4-1.8c0-0.1-0.1-0.1-0.1-0.2c-0.4-0.5-0.8-0.7-1.4-0.8
			c-0.5-0.1-1-0.1-1.5,0c-0.2,0.1-0.5,0.1-0.7,0c-0.4-0.1-0.7,0.1-1,0.3c-0.3,0.2-0.5,0.4-0.7,0.6c-0.3,0.2-0.5,0.6-0.5,0.9
			c-0.2,1.2,0.1,2.2,0.9,3.1c0.1,0.1,0.1,0.1,0.2,0.1c0.1,0,0.1-0.1,0.1-0.2c0-0.2,0-0.5,0.1-0.7c0.1-0.7,0.4-1.3,1.1-1.6
			c0.2-0.1,0.4-0.2,0.5-0.3c0.5-0.3,1.1-0.3,1.6-0.2c0.4,0.1,0.8,0.3,1.2,0.5C318.3,121,318.4,121.2,318.7,121.2z M311.6,21.7
			c0.2,0.2,0.4,0.3,0.6,0.4c0.9,0.3,1.8,0.7,2.7,1c0.7,0.2,1.4,0.5,2.1,0.6c1,0.1,2,0.1,3,0.2c0.2,0,0.3,0,0.5-0.1
			c0.4-0.3,0.8-0.6,1.1-0.9c0.2-0.2,0.2-0.5,0.1-0.8c-0.1-0.3-0.3-0.3-0.5-0.3c-0.2,0-0.4,0-0.7,0c-2.8,0-5.6,0-8.3,0
			C311.9,21.6,311.8,21.5,311.6,21.7z M417.5,23.4c-0.1,0-0.1,0-0.1,0c-0.2,0-0.4-0.1-0.7,0c0.1,0.3,0.4,0.3,0.6,0.4c0,0,0,0,0.1,0
			c2,0.7,4,1.4,6,2c1.1,0.3,2.1,0.5,3.2,0.3c0.4-0.1,0.8,0.1,1.1-0.2c0.3-0.2,0.6-0.5,0.8-0.8c0.1-0.1,0.1-0.2,0.2-0.3
			c0.1-0.1,0-0.3-0.2-0.3c-0.1,0-0.3,0-0.4,0c-1.1,0-2.1,0-3.2-0.1c-1.7-0.2-3.4-0.5-5-0.7C419.1,23.6,418.2,23.5,417.5,23.4z
			 M315.9,126c-0.1,0.5,0,0.9,0.4,1.2c0.1,0.1,0.2,0.3,0.2,0.4c0,0.2,0.2,0.2,0.4,0.1c0.3-0.3,0.5-0.6,0.8-0.9
			c0.7-0.8,1.6-1,2.6-0.8c0.2,0,0.4,0.1,0.6,0.1c0.1,0,0.3-0.1,0.3-0.2c0-0.1,0-0.2,0-0.2c-0.4-0.8-0.9-1.4-1.7-1.8
			c-0.7-0.3-1.4-0.2-2.1,0c-0.6,0.2-0.9,0.5-1,1.1C316,125.3,315.9,125.7,315.9,126z M472.6,74.1c0.2-0.1,0.3-0.1,0.4-0.2
			c0.7-0.2,1.4-0.4,2.2-0.3c0.2,0,0.4,0.1,0.5,0.2c0,0,0,0.1,0,0.1c0,0-0.1,0.1-0.1,0.1c-0.3,0-0.7,0-1,0c-0.6,0-1.2,0.1-1.8,0.3
			c-0.1,0-0.2,0.1-0.2,0.2c0,0.1,0.1,0.2,0.2,0.2c0.2,0.1,0.4,0.1,0.6,0c0.4-0.1,0.8-0.2,1.2-0.3c1-0.1,1.9,0.2,2.8,0.5
			c0.9,0.4,1.7,0.9,2.5,1.5c0.2,0.1,0.3,0.3,0.6,0.3c-0.1-0.5-0.2-1-0.6-1.3c-0.3-0.3-0.6-0.7-0.9-1c-0.3-0.3-0.5-0.5-0.8-0.7
			c-0.9-0.6-1.8-1.1-2.9-1.1c-0.4,0-0.9,0-1.3-0.1c-0.4-0.1-0.8,0.1-1.1,0.3C472.7,73.3,472.6,73.6,472.6,74.1z M316.9,117.8
			c-0.2-0.6-0.5-0.9-0.8-1.3c-0.5-0.7-1.5-1-2.4-0.8c-0.8,0.3-1.5,0.8-1.8,1.6c-0.1,0.2-0.2,0.4-0.3,0.6c-0.3,0.7-0.4,1.4-0.2,2.1
			c0,0.1,0.1,0.2,0.2,0.2c0.1,0,0.2-0.1,0.3-0.2c0.1-0.3,0.2-0.6,0.4-0.8c0.6-0.6,1.2-1.1,2.1-1.4
			C315.1,117.5,316,117.6,316.9,117.8z M310.3,116.1c0,0.7,0.2,1.5,0.5,2.2c0,0,0,0.1,0,0.1c0.1,0,0.1,0.1,0.2,0.1
			c0,0,0.1-0.1,0.1-0.1c0-0.6,0.2-1.1,0.5-1.5c0.6-0.9,1.4-1.5,2.5-1.5c0.3,0,0.5,0,0.8,0c0.3,0,0.4-0.3,0.3-0.5
			c-0.4-0.6-1-1-1.7-1.1c-0.6-0.1-1.2-0.1-1.7,0.2c-0.7,0.3-1.3,0.8-1.4,1.7C310.4,115.7,310.4,115.8,310.3,116.1z M470.3,86.3
			c-0.1-0.6-0.1-1.2-0.3-1.8c-0.1-0.4-0.4-0.8-0.7-1.1c-0.7-0.6-1.5-0.9-2.4-0.9c-0.2,0-0.4,0-0.6,0.1c-0.3,0.1-0.5,0.3-0.6,0.6
			c0,0.2,0,0.3,0.2,0.3c0.2,0,0.4,0.1,0.6,0.1c0.7,0.2,1.3,0.3,1.9,0.9c0.2,0.1,0.5,0.3,0.3,0.5c-0.2,0.3-0.4-0.2-0.6-0.2
			c-0.1,0-0.2-0.2-0.3-0.2c-0.6-0.3-1.2-0.6-1.9-0.6c-0.2,0-0.3,0.1-0.2,0.3c0.1,0.8,0.7,1.2,1.4,1.2c1.1-0.1,1.9,0.4,2.5,1.2
			c0.1,0.1,0.1,0.2,0.2,0.3c0,0,0.1,0,0.1,0c0,0,0.1-0.1,0.1-0.1C470.2,86.7,470.2,86.5,470.3,86.3z M342.2,119.1
			c0.1,0,0.2,0.1,0.3,0.1c0.8,0.1,1.6,0.4,2.2,0.8c0.2,0.1,0.3,0.2,0.4,0.4c0,0,0,0.1,0,0.1c0,0-0.1,0.1-0.1,0
			c-0.2-0.1-0.4-0.3-0.6-0.4c-0.6-0.3-1.2-0.5-1.8-0.7c-0.1,0-0.3,0-0.4,0.1c-0.1,0.1,0,0.3,0.2,0.4c0.2,0.2,0.5,0.2,0.8,0.3
			c0.9,0.3,1.7,0.6,2.4,1.2c0.7,0.6,1.4,1.3,2,2.1c0.4,0.5,0.8,1.1,1.2,1.6c0,0,0.1,0.1,0.2,0c0,0,0.1-0.1,0.1-0.1
			c0.1-0.3,0-0.6-0.1-0.9c-0.5-0.8-0.8-1.7-1.3-2.5c-0.6-0.9-1.3-1.7-2.3-2.2c-0.5-0.3-1-0.5-1.4-0.9c-0.2-0.2-0.5-0.2-0.7-0.2
			C342.7,118.4,342.6,118.5,342.2,119.1z M301.5,21.8c0.1,0.1,0.1,0.1,0.1,0.2c0.6,0.5,1.4,0.9,2.2,1.3c0.2,0.1,0.5,0.1,0.7,0.1
			c1-0.1,1.9-0.1,2.9,0c0.4,0,0.7-0.2,0.8-0.6c0.1-0.3,0-0.7-0.2-1c-0.2-0.3-0.5-0.2-0.8-0.2c-1.7,0-3.3,0-5,0.1
			C302,21.6,301.7,21.6,301.5,21.8z M337.5,127c0-0.7,0-1-0.3-1.5c-0.5-1-1.4-1.7-2.4-2.2c-0.1-0.1-0.3-0.1-0.5-0.1
			c-0.2,0-0.4,0.1-0.4,0.3c-0.1,0.2,0.1,0.3,0.2,0.4c0.8,0.5,1.5,1.1,2,2c0.2,0.3,0.2,0.5,0.1,0.5c-0.2,0-0.3-0.2-0.3-0.3
			c-0.4-0.7-1-1.2-1.6-1.7c-0.1-0.1-0.2-0.1-0.4-0.2c-0.1,0-0.2,0-0.2,0.1c0,0.1,0,0.2,0,0.3c0.1,0.6,0.4,1.1,1.1,1.4
			c0.4,0.2,0.8,0.4,1.1,0.7c0.5,0.5,0.9,1.1,1.1,1.8c0,0.1,0.1,0.2,0.2,0.1c0,0,0.1-0.1,0.1-0.1C337.4,128,337.4,127.4,337.5,127z
			 M364.1,26.6c2.5,0.1,4.8,0.1,7.1,0.2c0,0,0.1,0,0.1,0c0,0,0-0.1,0-0.1c-2.2-0.8-4.3-1.7-6.4-2.7c-0.1,0-0.1-0.1-0.2,0
			C365,25.3,365,25.3,364.1,26.6z M428.9,26c0.4,0,0.7,0,1.1-0.1c1.7-0.2,3.3-0.5,5-0.8c0.1,0,0.3-0.1,0.3-0.2c-2-0.5-4-0.9-6-1.4
			c0,0-0.1,0-0.1,0c0,0,0,0-0.1,0C429.5,24.5,429.6,24.6,428.9,26z M317.5,129.6c0.5-0.4,0.9-0.9,1.4-1c0.6-0.2,1.2-0.4,1.9-0.3
			c0.6,0.1,0.6-0.1,0.6-0.6c0-0.5-0.2-0.8-0.6-1.1c-0.2-0.1-0.4-0.2-0.6-0.3c-0.7-0.2-1.4-0.1-2,0.3c-0.5,0.3-0.7,0.8-1.1,1.3
			c-0.1,0.1-0.1,0.3,0,0.5C317.2,128.8,317.4,129.2,317.5,129.6z M378.1,26.7c0.7,0.1,5.5,0.1,6.4,0c-2-0.8-3.8-1.6-5.5-2.7
			c0,0.1-0.1,0.2-0.1,0.2c0.3,0.9,0.1,1.6-0.6,2.2C378.2,26.4,378.1,26.5,378.1,26.7z M463.3,67.4c0,0.1,0,0.2,0,0.2
			c0.2,0.4,0.2,0.4,0.5,0.3c0.2-0.1,0.5-0.1,0.7-0.1c0.3,0,0.5,0.1,0.5,0.2c-0.1,0.2-0.3,0.2-0.4,0.2c-0.3,0-0.7,0.1-1,0.2
			c-0.2,0.1-0.3,0.4-0.2,0.6c0.1,0.2,0.2,0.1,0.4,0.1c0.1,0,0.1,0,0.2,0c1.7-0.4,3.4-0.4,5.1-0.2c0.1,0,0.2,0,0.3,0
			c0-0.1,0-0.2-0.1-0.3c-0.7-0.7-1.5-1.2-2.5-1.4C465.6,67,464.4,67.1,463.3,67.4z M442.7,87.5c-0.3-1,0-1.7,0.4-2.5
			c0.3-0.4,0.6-0.8,1.1-1c0.1-0.1,0.3-0.1,0.4-0.2c0.2-0.2,0.1-0.5-0.1-0.6c-0.5-0.3-1-0.3-1.4,0c-0.8,0.6-1.6,1.2-2.1,2.1
			c0,0.1-0.1,0.1-0.1,0.2c-0.1,0.4-0.1,0.9,0.3,1.2C441.6,87,442.1,87.3,442.7,87.5z M279.1,24.3c-0.9-0.2-1.7-0.4-2.6-0.7
			c-0.8-0.2-1.7-0.5-2.5-0.8c0,0.6-0.2,1.1-0.6,1.4c-0.3,0.3-0.6,0.6-1,0.8c-0.1,0.1-0.2,0.1-0.3,0.2c-0.1,0.1-0.1,0.1-0.1,0.2
			c0,0.1,0.2,0.2,0.3,0.1c0.1,0,0.2,0,0.2,0c0.8-0.2,1.5-0.3,2.3-0.5c1.2-0.2,2.4-0.4,3.6-0.5C278.6,24.5,278.9,24.5,279.1,24.3z
			 M466.8,80.9c0,0.2,0,0.4,0.1,0.7c0.1,0.2,0.2,0.3,0.3,0.4c0.4,0.1,0.7,0.3,1.1,0.3c0.3,0,0.4-0.1,0.4-0.4c-0.1-0.4,0-0.7,0.1-1.1
			c0.2-0.7,0.4-1.3,0.8-1.9c0.1-0.2,0.1-0.3-0.1-0.4c-0.2-0.2-0.4-0.3-0.7-0.5c-0.1-0.1-0.3-0.1-0.5,0c-0.2,0.1-0.3,0.2-0.5,0.3
			C467.1,78.9,466.8,79.9,466.8,80.9z M461.4,71.2c-0.3-0.1-0.6-0.1-0.8-0.1c-0.5-0.1-0.8,0.1-1.1,0.5c-0.3,0.4-0.4,0.9-0.4,1.3
			c0,0.6,0.1,1.1,0.3,1.6c0,0.1,0.1,0.3,0.2,0.3c0.6,0.2,1.2,0.6,1.8,0.2C460.9,73.3,460.9,72.6,461.4,71.2z M322.2,21.6
			c0.1,1,0.3,1.1-0.5,2c-0.1,0.1-0.2,0.2-0.1,0.4c1.1,0.1,2.2,0.2,3.2,0.3c1.1,0.1,2.2,0.3,3.5,0.2c-0.6-0.3-1.1-0.5-1.6-0.7
			c-0.5-0.2-1-0.4-1.5-0.7c-0.5-0.2-0.9-0.5-1.4-0.7C323.2,22.1,322.8,21.8,322.2,21.6z M336.6,110.3c-0.1,0.1-0.3,0-0.4,0
			c-0.3-0.1-0.6-0.2-0.9-0.4c-0.2-0.1-0.3,0-0.4,0.2c0,0.1-0.1,0.2-0.1,0.3c0.7,0.2,1.3,0.4,2,0.7c0.6,0.3,1.3,0.6,1.9,0.9
			c0.6,0.3,1.1,0.7,1.9,1.1c-0.5-1.1-1.1-1.9-1.9-2.5c-0.8-0.6-1.8-1.1-2.7-1.5c-0.2-0.1-0.4-0.1-0.6-0.1c-0.2,0-0.3,0.1-0.2,0.3
			c0.1,0.2,0.2,0.3,0.4,0.3C335.9,109.8,336.4,109.9,336.6,110.3z M472.7,79c-0.2-0.1-0.4-0.2-0.5-0.3c-0.8-0.5-1.6-0.4-2.3,0.5
			c-0.4,0.6-0.7,1.3-0.8,2c0,0.2,0,0.5,0.1,0.7c0.1,0.2,0.2,0.3,0.4,0.3c0.4-0.1,0.7-0.2,1.1-0.3C471.2,80.1,471.1,80.2,472.7,79z
			 M464.1,71.2c-0.9-0.2-1.4-0.1-2.1,0c-0.2,0-0.3,0.2-0.4,0.3c-0.2,0.3-0.2,0.7-0.2,1c0,0.6,0.1,1.1,0.3,1.6c0.1,0.2,0,0.6,0.3,0.7
			c0.3,0.1,0.6,0,0.9,0c0.3,0,0.3-0.1,0.3-0.3c-0.1-0.9,0-1.7,0.4-2.5C463.7,71.8,463.9,71.5,464.1,71.2z M321.8,129.8
			c0-0.2-0.1-0.3-0.1-0.4c0-0.4-0.3-0.6-0.6-0.7c-0.2-0.1-0.4-0.1-0.6-0.1c-0.7,0.1-1.5,0.2-2.1,0.6c-0.1,0.1-0.2,0.2-0.3,0.3
			c-0.4,0.4-0.4,0.6-0.1,1.1c0.1,0.1,0.2,0.3,0.2,0.4c0.3,0.4,0.6,0.7,1.1,1c-0.1-0.8,0.3-1.2,0.8-1.6
			C320.5,129.9,321.2,130,321.8,129.8z M466.3,81.1c0.1-0.4,0.1-0.7,0.2-1c0.1-0.3,0.2-0.6,0.3-0.9c0.1-0.3,0.3-0.6,0.5-0.9
			c0.2-0.2,0.5-0.4,0.6-0.7c-0.2-0.2-0.5-0.2-0.7-0.3c-0.6-0.2-1-0.1-1.4,0.3c-0.7,0.7-0.9,1.5-0.9,2.5c0,0.1,0.1,0.3,0.2,0.3
			C465.4,80.6,465.8,80.9,466.3,81.1z M338.5,121.4c-0.2-0.3-0.4-0.6-0.6-0.9c-0.1-0.2-0.3-0.3-0.6-0.3c-1,0.1-2,1-2.1,2
			c0,0.2,0,0.4,0.2,0.5c0.3,0.3,0.6,0.6,1,0.9c0.2,0.2,0.4,0.1,0.5-0.2c0.1-0.7,0.5-1.2,1-1.6C338,121.8,338.3,121.6,338.5,121.4z
			 M453.2,96.4c0.1,0,0.2,0,0.2,0c0.8-0.7,0.9-1.6,0.6-2.6c-0.3-0.8-1-1.3-1.6-1.8c-0.3-0.2-0.8,0-0.8,0.4c0,0.2,0,0.4,0.1,0.6
			c0.3,0.6,0.5,1.2,0.9,1.7C452.9,95.1,453.2,95.7,453.2,96.4z M402.9,23.4c0.2,0.4,0.3,0.6,0.3,0.9c0.1,0.2,0,0.5,0.1,0.7
			c0,0.2-0.2,0.4-0.1,0.7c1.7-0.1,3.5-0.1,5.2-0.2c0.1,0,0.1-0.1,0.1-0.2C406.7,24.8,404.9,24.1,402.9,23.4z M297.3,23.4
			c0.4,0,0.7,0,1,0c0.1,0,0.2,0,0.3-0.1c0.2-0.4,0.4-0.7,0.4-1.2c0-0.1-0.1-0.2-0.2-0.2c-0.1,0-0.2,0-0.3,0
			c-1.2,0.1-2.4,0.1-3.6,0.3c-0.5,0.1-1.1,0.1-1.6,0.1c-0.1,0-0.2,0-0.1,0.1c0,0,0.1,0.1,0.1,0.1c0.5,0.2,1,0.3,1.5,0.5
			C295.7,23.3,296.5,23.5,297.3,23.4z M335.1,112.6c-0.6-0.6-1.3-0.8-2-1.1c-0.2-0.1-0.3,0-0.4,0.1c-0.3,0.3-0.5,0.6-0.5,1
			c-0.1,0.7,0,1.3-0.1,2c0,0.1,0.1,0.2,0.1,0.2c0.3,0.2,0.7,0.4,1.1,0.5C333.5,114.1,333.9,113.1,335.1,112.6z M288.3,23.7
			c1.2,0,2.4-0.1,3.5-0.1c0.5,0,0.9,0,1.4,0c0,0,0.1-0.1,0.1-0.1c0,0,0-0.1,0-0.1c0,0,0,0-0.1,0c-1.5-0.5-2.9-1.2-4.3-1.9
			c-0.1-0.1-0.2-0.2-0.4-0.1c0,0.4,0.2,0.7,0.2,1.1C288.6,22.9,288.3,23.2,288.3,23.7z M338.7,124.6c0.1-0.2,0.2-0.3,0.3-0.4
			c0.3-0.6,0.8-0.8,1.4-0.9c0.2,0,0.4,0,0.6-0.1c-0.2-0.5-0.6-0.9-1-1.2c-0.5-0.3-0.9-0.3-1.4,0c-0.6,0.3-0.9,0.8-1.2,1.3
			c-0.1,0.1-0.1,0.3-0.1,0.4c0,0.4,0,0.5,0.4,0.6C338,124.4,338.4,124.5,338.7,124.6z M335.5,118.6c0,0-0.1,0-0.2,0
			c-0.8,0.2-1.5,0.9-1.6,1.7c0,0.1,0,0.2,0.1,0.2c0.3,0.4,0.6,0.8,1,1.1c0.1,0.1,0.2,0,0.2,0c0.1-0.1,0.1-0.2,0.2-0.3
			c0.5-0.7,0.9-1.4,1.9-1.6c0.2,0,0.2-0.2,0-0.3c-0.2-0.2-0.5-0.4-0.7-0.7C336.1,118.7,335.8,118.7,335.5,118.6z M443.5,22.7
			c0.1,0.1,0.2,0.1,0.3,0c1.4-0.4,2.7-0.8,4.1-1.2c0.1,0,0.1-0.1,0.2-0.2c-1.4-0.4-2.7-0.7-4-1.1c0,0-0.1,0-0.2,0.1
			c0.1,0.4,0.1,0.8,0.1,1.2C443.9,21.9,443.5,22.2,443.5,22.7z M450.2,77.6c-0.7-0.4-0.8-0.4-1.4-0.2c-0.6,0.3-1.1,0.8-1.5,1.4
			c-0.3,0.5-0.4,1-0.3,1.6c0,0.4,0.1,0.5,0.6,0.4c0.3-0.1,0.6-0.1,0.9-0.2c0.2,0,0.2-0.1,0.2-0.3c0-0.3,0-0.7,0.1-1
			C449.2,78.7,449.6,78.1,450.2,77.6z M455.6,78.4C455.6,78.3,455.7,78.3,455.6,78.4c0-0.2,0.1-0.4,0-0.6c0-1,0-1.9,0.6-2.7
			c0.1-0.1,0-0.2-0.1-0.3c-0.2-0.1-0.5-0.1-0.6-0.1c-0.7,0.2-1.3,0.6-1.5,1.3c-0.2,0.6-0.1,1.3,0.1,2c0.4,0.3,0.9,0.3,1.3,0.4
			C455.5,78.4,455.6,78.4,455.6,78.4z M465.4,75.1c-0.2-0.4-0.2-0.8-0.3-1.2c-0.1-0.9,0-1.7,0.6-2.5c0,0,0.1-0.1,0.1-0.1
			c0,0,0-0.1,0-0.1c-0.4,0-0.7-0.1-1.1,0.2c-1,0.9-1.2,2.1-1,3.3c0,0.1,0,0.1,0,0.2c0,0.1,0.1,0.1,0.2,0.1
			C464.4,75,464.8,75.2,465.4,75.1z M464.6,76.8c-0.2,0-0.5-0.1-0.7,0.2c-0.5,0.6-0.9,1.2-1,2c0,0.8,0,0.8,0.7,1
			c0.8,0.2,0.8,0.2,0.9-0.5c0.2-0.8,0.4-1.6,1-2.2c0.2-0.2,0.1-0.4-0.2-0.4C465.1,76.8,464.9,76.8,464.6,76.8z M460.4,76.1
			c-0.5-0.2-0.9-0.3-1.2-0.4c-0.1-0.1-0.3,0-0.4,0c-0.2,0.1-0.4,0.3-0.5,0.5c-0.4,0.8-0.5,1.6-0.2,2.5c0,0.1,0.1,0.2,0.2,0.2
			c0.4,0.1,0.7,0.2,1.1,0.1C459.4,78,459.5,77,460.4,76.1z M318.7,113.1c0.3-1,0.9-1.6,1.9-1.8c-0.3-0.8-0.5-0.7-1.1-0.8
			c-0.2,0-0.3,0-0.5,0c-1,0.1-1.7,0.6-1.9,1.7c-0.1,0.3,0,0.4,0.3,0.5C317.8,112.9,318.2,113,318.7,113.1z M336.7,113.3
			c-0.2-0.1-0.3-0.2-0.5-0.3c-0.6-0.3-1.4-0.2-1.7,0.3c-0.4,0.6-0.7,1.2-0.7,1.9c0,0.1,0,0.2,0.1,0.3c0.1,0.1,0.2,0.2,0.3,0.3
			c0.3,0.2,0.6,0.5,1,0.5c0.1-0.3,0.1-0.6,0.1-0.9C335.5,114.7,335.7,113.8,336.7,113.3z M458.3,75.5c-0.3-0.3-0.7-0.3-1-0.4
			c-0.3-0.1-0.5,0-0.6,0.2c-0.1,0.2-0.3,0.4-0.3,0.6c-0.2,0.8-0.3,1.5-0.1,2.3c0,0.2,0.1,0.3,0.3,0.4c0.3,0.1,0.5,0.2,0.8,0.2
			c0.1,0,0.2-0.1,0.2-0.2c-0.1-0.4-0.1-0.8,0-1.2C457.5,76.7,457.8,76.1,458.3,75.5z M416.4,26.1c0.3,0,0.4,0.1,0.6,0.1
			c1.5,0.1,2.9,0.1,4.4,0.2c0.1,0,0.1,0,0.2,0c0,0,0.1,0,0.1,0c0,0,0-0.1,0-0.1c0,0-0.1-0.1-0.2-0.1c-1.7-0.5-3.4-1.1-5.1-1.8
			c-0.1,0-0.2,0-0.3,0C416.3,24.9,416.7,25.4,416.4,26.1z M325.6,114.6c0.1-0.3,0.1-0.5,0.2-0.8c0.1-0.6,0.4-1.1,0.9-1.6
			c0.3-0.3,0.3-0.3,0-0.6c-0.5-0.4-1.1-0.4-1.7-0.2c-0.2,0.1-0.4,0.3-0.5,0.5c-0.1,0.5-0.2,0.9-0.2,1.4c0,0.1,0,0.2,0.1,0.3
			C324.8,113.9,325.1,114.4,325.6,114.6z M333.3,120.2c0.5-0.8,0.9-1.6,1.9-1.9c-0.4-0.5-1-0.6-1.4-0.9c-0.1,0-0.2,0-0.3,0
			c-0.7,0.2-1.2,0.6-1.4,1.4c-0.1,0.3,0,0.6,0.3,0.8C332.6,119.7,332.9,120,333.3,120.2z M466.5,75.2c0.4,0,0.5-0.1,0.4-0.5
			c0-0.1,0-0.2-0.1-0.3c-0.2-0.7-0.1-1.4,0.3-2.1c0.1-0.2,0.2-0.3,0.3-0.5c0.1-0.2,0.1-0.3-0.1-0.4c-0.4-0.2-0.7-0.2-1.1,0.1
			c-0.4,0.3-0.6,0.8-0.7,1.3c-0.1,0.6,0,1.3,0.2,1.9C465.9,75.1,466,75.2,466.5,75.2z M328.8,116.9c0.1-0.1,0.1-0.2,0.2-0.3
			c0.2-0.7,0.6-1.3,1.3-1.6c0.1-0.1,0.1-0.2,0-0.3c-0.2-0.2-0.5-0.4-0.7-0.6c-0.4-0.4-0.8-0.4-1.2,0c-0.5,0.5-0.7,1.2-0.7,1.9
			c0,0.1,0.1,0.3,0.2,0.4C328.1,116.5,328.4,116.8,328.8,116.9z M267.6,26.5c-1.4-0.2-2.8-0.5-4.2-0.8c-0.2,0.1-0.1,0.3-0.2,0.4
			c-0.1,0.2-0.1,0.3-0.2,0.5c-0.1,0.1-0.1,0.2-0.2,0.3c-0.1,0.1-0.2,0.3-0.3,0.4c-0.1,0.1-0.2,0.2-0.1,0.3c0.6-0.1,1.1-0.2,1.7-0.3
			c0.6-0.1,1.2-0.2,1.8-0.4C266.5,26.8,267.1,26.8,267.6,26.5z M449.4,87.6c-0.1-0.1-0.1-0.1-0.2-0.2c-0.2-0.3-0.5-0.2-0.7,0
			c-0.1,0.1-0.1,0.1-0.2,0.2c-0.4,0.4-0.7,0.9-1,1.3c-0.1,0.2-0.1,0.4-0.1,0.6c0,0.4,0.1,0.5,0.5,0.5c0.3,0,0.4,0.2,0.4,0.4
			c0,0.1,0,0.1,0.1,0.2c0,0,0.1,0.1,0.1,0.1c0.1,0,0.2-0.1,0.2-0.1c0.3-0.9,0.8-1.5,1.7-1.9c0.1,0,0.1-0.1,0.2-0.2
			c0.1-0.1,0-0.3-0.1-0.4c-0.3-0.2-0.6-0.1-0.9,0.1c-0.4,0.4-0.7,0.8-0.9,1.3c0,0-0.1,0.1-0.1,0.1c0,0-0.1-0.1-0.1-0.1
			c0-0.1,0-0.2,0-0.2c0.1-0.4,0.4-0.8,0.7-1.1C449.1,88,449.3,87.9,449.4,87.6z M452,78.2c-0.2-0.1-0.3-0.1-0.4-0.2
			c-0.4-0.2-0.9-0.1-1.2,0.1c-0.8,0.5-1.2,1.2-1.1,2.2c0,0.2,0.1,0.3,0.3,0.3c0.4,0,0.8,0,1.2,0c0.2,0,0.3-0.1,0.3-0.3
			c0-0.7,0.3-1.3,0.8-1.8C451.8,78.4,451.9,78.3,452,78.2z M470.8,75.6c0-0.2-0.1-0.4-0.2-0.5c-0.2-0.8-0.2-1.6,0.3-2.3
			c0.1-0.2,0.4-0.3,0.3-0.5c-0.1-0.2-0.4,0-0.6,0c-0.2,0-0.4,0-0.7,0c-0.3,0-0.4,0.1-0.6,0.3c-0.1,0.2-0.2,0.4-0.3,0.6
			c-0.1,0.6-0.1,1.1,0,1.6c0.1,0.3,0.2,0.5,0.4,0.6C470,75.5,470.4,75.7,470.8,75.6z M463.3,76.8c-0.4-0.1-0.8-0.1-1.2-0.2
			c-0.2,0-0.3,0-0.4,0.2c-0.3,0.6-0.7,1.1-0.7,1.8c-0.1,0.8,0,0.8,0.7,0.9c0.2,0,0.3,0.1,0.5,0.1c0.2,0,0.3,0,0.3-0.2
			c0.1-0.8,0.3-1.6,0.8-2.2C463.2,77,463.2,77,463.3,76.8z M280.5,23.8c0.6,0.2,1,0.2,1.5,0.2c0.3,0,0.6,0,0.8,0
			c1.3-0.1,2.6-0.2,3.9-0.3c0.3,0,0.5-0.1,0.7-0.3c0.1-0.2,0.4-0.3,0.3-0.5c-0.1-0.2-0.4-0.1-0.5-0.1c-1.6,0.2-3.3,0.4-4.9,0.6
			C281.7,23.5,281.2,23.7,280.5,23.8z M469.1,72.2c-0.2-0.2-0.4-0.2-0.6-0.3c-0.4-0.1-0.7,0-0.9,0.2c-0.2,0.2-0.3,0.4-0.4,0.7
			c-0.1,0.5-0.1,1,0.1,1.4c0.1,0.5,0.2,0.7,0.9,0.6c0.1,0,0.2,0,0.2,0c0.3,0,0.3-0.1,0.3-0.4c-0.1-0.7,0.1-1.4,0.4-2.1
			C469.1,72.4,469.1,72.3,469.1,72.2z M327.1,115.8c0.2-0.3,0.2-0.6,0.3-0.8c0.2-0.7,0.5-1.2,1.2-1.5c0,0,0-0.1,0.1-0.1
			c-0.3-0.4-0.7-0.5-1-0.8c-0.1-0.1-0.3-0.1-0.4,0c-0.2,0.1-0.4,0.2-0.5,0.4c-0.5,0.6-0.6,1.4-0.5,2.1c0,0.1,0.1,0.2,0.1,0.2
			C326.5,115.4,326.8,115.6,327.1,115.8z M338.2,114.5c-0.2-0.2-0.3-0.4-0.5-0.6c-0.1-0.1-0.2-0.2-0.4-0.2c-0.4,0-0.9,0.1-1.1,0.5
			c-0.4,0.8-0.4,1.6-0.3,2.4c0,0.1,0.1,0.2,0.1,0.2c0.2,0.1,0.4,0.3,0.8,0.3c0.1-0.5,0-1,0.2-1.5
			C337.2,115.2,337.6,114.9,338.2,114.5z M451,74.2c-0.4-0.2-0.7,0-1.1-0.1c-0.2-0.1-0.3,0.1-0.4,0.2c-0.6,0.7-0.8,1.4-0.6,2.3
			c0.1,0.2,0.2,0.3,0.4,0.3c0.4-0.1,0.7-0.2,1.1,0c0-0.5,0-0.9,0.1-1.4C450.6,75,450.8,74.6,451,74.2z M463.1,80.9
			c-0.2-0.2-0.5-0.1-0.7-0.2c-0.4-0.2-0.7,0-0.9,0.2c-0.6,0.6-1,1.4-0.7,2.3c0,0.1,0,0.2,0.1,0.2c0.3,0.2,0.7,0.1,1,0.1
			c0.1,0,0.2-0.1,0.2-0.2c0-0.1,0-0.3,0.1-0.4c0.1-0.7,0.3-1.3,0.9-1.8C463.1,81,463.1,81,463.1,80.9z M452.9,74.3
			c-0.3-0.1-0.6-0.1-0.9-0.2c-0.2,0-0.3,0-0.5,0.1c-0.8,0.6-0.8,1.9-0.5,2.6c0,0.1,0.1,0.1,0.2,0.2c0.3,0.1,0.6,0.3,1,0.2
			C452.1,76.2,452.3,75.2,452.9,74.3z M338.5,117.9c0.1-0.8,0.5-1.4,1-2.1c-0.2-0.2-0.4-0.4-0.6-0.5c-0.6-0.4-1.2-0.3-1.5,0.4
			c-0.2,0.4-0.2,0.9-0.2,1.3c0,0.3,0.2,0.6,0.5,0.6C338,117.7,338.2,117.8,338.5,117.9z M333,116.9c-0.4-0.3-0.7-0.6-1.1-0.8
			c-0.1-0.1-0.2-0.1-0.3,0c-0.7,0.4-1.1,0.9-1.3,1.6c0,0.1,0,0.2,0.1,0.3c0.4,0.3,0.8,0.5,1.2,0.8C332.1,117.7,331.8,118,333,116.9z
			 M322.2,112.7c-0.2-0.4-0.4-0.5-0.6-0.7c-0.6-0.5-2-0.1-2.3,0.7c-0.2,0.6-0.3,0.6,0.3,0.9c0.2,0.1,0.4,0.2,0.5,0.2
			c0.2,0.1,0.3,0.3,0.6,0.3C320.9,113.3,321.5,112.9,322.2,112.7z M473.1,72.4c0,0-0.1-0.1-0.1-0.1c-1.1-0.2-2.1,0.8-2,1.9
			c0,0.4,0.2,0.8,0.4,1.1c0.4,0.6,0.4,0.5,1.1,0.3c0.1,0,0.2-0.1,0.1-0.3c-0.4-0.4-0.5-0.9-0.3-1.5c0.1-0.5,0.3-1,0.8-1.3
			C473,72.5,473,72.4,473.1,72.4z M457.9,70.8c-0.4-0.1-0.7-0.1-1-0.1c-0.1,0-0.3,0.1-0.4,0.2c-0.5,0.6-0.7,1.3-0.7,2.1
			c0.1,0.8,0.2,0.9,0.9,1c0,0,0.1,0,0.1,0c0.1,0,0.2-0.1,0.2-0.2c0-0.1,0-0.2,0-0.3c-0.1-0.7,0-1.3,0.4-1.9
			C457.7,71.4,457.8,71.1,457.9,70.8z M321.1,110.7c0.1-0.2,0.2-0.2,0.2-0.3c0.1-0.6,0.4-1,0.8-1.4c0.2-0.1,0.1-0.3-0.1-0.4
			c-0.2-0.1-0.5-0.2-0.7-0.4c-0.1-0.1-0.3-0.1-0.4-0.1c-0.6,0.1-1,0.5-1.1,1.1c0,0.2,0,0.4,0,0.6c0,0.2,0.1,0.4,0.3,0.4
			C320.4,110.3,320.7,110.4,321.1,110.7z M453.6,78c0.1-0.4,0-0.6,0-0.9c-0.1-0.7,0.1-1.4,0.6-2c0.1-0.1,0.2-0.2,0.3-0.4
			c0.1-0.1,0-0.2-0.1-0.3c-0.7-0.2-1.3,0-1.6,0.7c-0.3,0.7-0.4,1.4-0.2,2.2c0.1,0.2,0.2,0.3,0.4,0.4C453.2,77.8,453.4,77.9,453.6,78
			z M459.3,71c-0.7-0.1-0.7-0.1-1.1,0.3c-0.5,0.6-0.7,1.3-0.6,2.1c0.1,0.8,0.2,0.9,1,1.1c0.2,0,0.2,0,0.2-0.2c0-0.5-0.1-0.9-0.1-1.4
			c0-0.5,0.1-0.9,0.4-1.3C459.2,71.4,459.3,71.2,459.3,71z M465.4,84.8c0-0.3,0-0.5,0-0.8c0-0.6,0-1.1,0.3-1.6
			c0.2-0.3,0.2-0.3-0.1-0.5c-0.4-0.3-0.5-0.3-0.9,0c-0.2,0.2-0.4,0.4-0.6,0.6c-0.4,0.5-0.3,1-0.1,1.5c0,0.1,0.2,0.2,0.3,0.3
			C464.6,84.5,464.9,84.6,465.4,84.8z M324,109.8c-0.3-0.2-0.6-0.4-0.8-0.6c-0.2-0.2-0.4-0.1-0.6,0c-0.6,0.2-0.7,0.7-0.9,1.2
			c-0.1,0.5-0.1,0.9,0.4,1.2c0.2,0.1,0.3,0.3,0.6,0.4C322.8,111.1,323.1,110.3,324,109.8z M330.4,121.8c0.1-0.2,0.2-0.4,0.4-0.6
			c0.2-0.3,0.4-0.5,0.7-0.7c0.1-0.1,0.4,0,0.4-0.2c0.1-0.2-0.2-0.3-0.3-0.4c-0.1-0.1-0.2-0.2-0.3-0.3c-0.2-0.2-0.5-0.2-0.8-0.1
			c-0.2,0.1-0.4,0.2-0.6,0.3c-0.5,0.3-0.5,0.8-0.6,1.2c0,0.4,0.4,0.4,0.6,0.6C330.1,121.8,330.2,121.8,330.4,121.8z M461.6,70
			c0.1,0,0.2,0,0.4,0c0.5-0.1,0.9-0.7,0.9-1.1c0-1.1-0.9-1.8-2-1.6c-0.2,0-0.2,0.2-0.1,0.3c0.4,0.6,0.7,1.3,0.7,2.1
			C461.6,69.7,461.6,69.9,461.6,70z M327.9,111.6c0.1-0.3,0.1-0.5,0.2-0.7c0.1-0.5,0.3-1,0.9-1.3c0.1-0.1,0.4-0.2,0.4-0.4
			c-0.2-0.1-0.3-0.2-0.5-0.3c-0.5-0.4-0.8-0.2-1.1,0.1c-0.1,0.1-0.3,0.2-0.3,0.4c-0.5,0.9-0.7,1.5,0.3,2.1
			C327.7,111.5,327.8,111.5,327.9,111.6z M459.6,69.9c0.4,0,0.8,0.1,1.2,0.1c0.2,0,0.3-0.1,0.3-0.2c0-0.5-0.1-0.9-0.3-1.4
			c-0.4-0.7-1.2-0.9-1.9-0.7c-0.1,0-0.1,0.1-0.2,0.2c-0.1,0.1,0.1,0.1,0.1,0.2c0.4,0.1,0.5,0.4,0.6,0.8
			C459.4,69.2,459.5,69.5,459.6,69.9z M343.1,117.9c-0.7-0.5-1.1-0.6-1.7-0.4c-0.4,0.2-0.7,0.4-0.7,0.9c-0.1,0.4,0,0.8,0.1,1.1
			c0.1,0.5,0.4,0.6,0.8,0.7c0.1,0,0.2-0.1,0.2-0.2c0-0.1-0.1-0.2-0.1-0.3c-0.1-0.4,0-0.8,0.3-1.2c0.2-0.3,0.5-0.5,0.9-0.5
			C342.9,118,343,117.9,343.1,117.9z M457.8,82.1c0-0.3,0-0.6,0.1-0.9c0-0.3,0.2-0.6,0.3-0.9c0.2-0.3,0.1-0.4-0.2-0.4
			c-0.2,0-0.4-0.1-0.7-0.1c-0.3-0.1-0.5,0-0.6,0.3c-0.2,0.2-0.2,0.4-0.2,0.7c0,0.4,0.1,0.8,0.3,1.2
			C456.9,82.2,457.4,82.2,457.8,82.1z M455.4,73.6C455.4,73.6,455.5,73.6,455.4,73.6c0-0.2,0.1-0.3,0.1-0.4c0-0.8,0.2-1.5,0.6-2.2
			c0.2-0.3,0.1-0.4-0.3-0.4c-0.2,0-0.4,0.1-0.6,0.2c-0.7,0.6-1,1.6-0.7,2.5c0.1,0.2,0.2,0.3,0.4,0.3
			C455.1,73.6,455.2,73.7,455.4,73.6z M455.1,79.2c-0.2-0.1-0.3-0.1-0.4-0.1c-0.4-0.3-0.7-0.1-1.1,0.2c-0.5,0.4-0.7,0.9-0.7,1.6
			c0.5,0.1,1.1,0.3,1.7,0.3C454.5,80.5,454.7,79.8,455.1,79.2z M453.1,70.7c-0.4,0-0.7,0-1.1,0c-0.5,0-0.6,0.2-0.7,0.7
			c0,0.5,0.1,1,0.3,1.4c0.1,0.3,0.4,0.5,0.8,0.5c0.3,0,0.4-0.1,0.3-0.4c-0.2-0.6-0.1-1.3,0.2-1.8C453,71,453.1,70.9,453.1,70.7z
			 M333,110.4c0.1,0,0.2,0.1,0.3,0.1c0.7,0.2,1.3-0.3,1.2-0.9c-0.2-1-0.6-1.5-1.4-1.8c-0.1,0-0.2,0-0.2,0c0,0,0,0.1,0,0.1
			c0.3,0.7,0.3,1.4,0.2,2.2C333,110.2,333,110.2,333,110.4z M334.1,122.6c0-0.2-0.1-0.3-0.2-0.4c-0.3-0.4-0.5-0.5-1-0.3
			c-0.1,0-0.2,0.1-0.3,0.1c-0.5,0.2-0.7,1.1-0.4,1.5c0.3,0.3,0.5,0.7,0.9,0.9C333.3,123.7,333.4,122.9,334.1,122.6z M329.2,112.7
			c0.2-0.2,0.2-0.5,0.2-0.8c0.1-0.7,0.2-1.3,0.9-1.6c0,0,0.1-0.1,0.1-0.1c0-0.1,0.1-0.2,0-0.2c-0.2-0.2-0.4-0.3-0.8-0.2
			c-0.7,0.2-1,0.6-1.2,1.3c-0.2,0.7-0.1,1.3,0.6,1.6C329.1,112.6,329.2,112.7,329.2,112.7z M325.4,110.8c-0.1-0.1-0.1-0.2-0.2-0.2
			c-0.1-0.1-0.2-0.1-0.3-0.2c-0.6-0.3-1.1-0.3-1.5,0.4c-0.3,0.4-0.3,0.8-0.3,1.3c0,0.4,0.1,0.7,0.5,0.9c0.2,0.1,0.3,0.1,0.4-0.1
			c0-0.2,0-0.4,0.1-0.6c0.1-0.5,0.4-0.9,0.9-1.2C325,111,325.2,110.9,325.4,110.8z M451.3,93.6c-0.1-0.3-0.2-0.6-0.2-0.9
			c-0.1-0.7,0.1-1.2,0.8-1.4c0.1,0,0.2-0.1,0.3-0.1c0.1-0.1,0.1-0.2,0-0.3c-0.4-0.3-0.8-0.3-1.2,0c-0.5,0.5-0.9,1.1-0.9,1.8
			c0,0.6,0,0.6,0.6,0.8C450.9,93.5,451.1,93.7,451.3,93.6z M460.4,83.2c-0.1-1,0.2-1.8,0.8-2.5c0.1-0.1,0.1-0.1,0.1-0.2
			c0,0,0-0.1,0-0.1c0,0,0-0.1-0.1-0.1c-0.4,0-0.8-0.2-1.1,0.1c-0.7,0.5-0.8,1.2-0.6,2.1C459.7,83,459.9,83.2,460.4,83.2z
			 M330.8,107.3c0.4,0.7,0.4,0.7,0.4,1.5c0,0.1,0,0.3,0,0.4c0,0.1,0,0.2,0.1,0.2c0.4,0.3,0.8,0.5,1.2,0.7c0.2-0.6,0.1-1.1,0-1.7
			c-0.1-0.4-0.5-0.8-0.9-1C331.3,107.3,331.1,107.1,330.8,107.3z M452.6,80.8c0-0.9,0.1-1,0.7-1.8c0.2-0.2,0.1-0.3-0.1-0.4
			c-0.1,0-0.3-0.1-0.4-0.1c-0.1,0-0.3,0-0.4,0.1c-0.4,0.3-0.8,0.7-1,1.1c-0.1,0.3-0.1,0.6,0,0.8c0.1,0.3,0.4,0.2,0.6,0.3
			C452.2,80.8,452.4,80.8,452.6,80.8z M324.9,106.8c-0.4-0.2-0.7-0.4-1.1-0.5c-0.4-0.2-0.7,0-0.7,0.4c0,0.4,0,0.7,0,1.1
			c0,0.5,0.2,0.8,0.7,1.1c0.2,0.1,0.3,0,0.3-0.2c-0.1-0.7,0.2-1.2,0.8-1.6C324.9,107,324.9,106.9,324.9,106.8z M326.7,118.7
			c0.2-0.5,0.3-0.9,0.7-1.2c0.3-0.3,0.3-0.3-0.1-0.6c-0.2-0.2-0.4-0.3-0.7-0.5c-0.1-0.1-0.3-0.1-0.5,0c-0.3,0.1-0.4,0.3-0.4,0.7
			c0,0.7,0,1.3,0.8,1.6C326.6,118.6,326.6,118.7,326.7,118.7z M324.8,115c-0.1-0.1-0.2-0.2-0.3-0.3c-0.5-0.6-1-0.4-1.6-0.2
			c-0.3,0.1-0.3,0.4-0.4,0.7c-0.1,0.2,0.2,0.3,0.3,0.4c0.3,0.3,0.7,0.5,1.1,0.8C324.2,115.6,324.2,115.6,324.8,115z M463.5,83.8
			c0-0.1,0.1-0.3,0.1-0.4c0-0.6,0.2-1,0.6-1.4c0.1-0.1,0.2-0.2,0.3-0.3c0.1-0.1,0.2-0.2,0.1-0.3c-0.1-0.1-0.2-0.2-0.4-0.2
			c-0.4-0.1-0.6,0.1-0.9,0.3c-0.4,0.4-0.6,0.8-0.7,1.4C462.5,83.4,462.4,83.8,463.5,83.8z M326.4,110.4c0.2-0.3,0.2-0.8,0.5-1.1
			c0.3-0.3,0.6-0.6,0.9-1c-0.2-0.1-0.4-0.2-0.5-0.3c-0.1-0.1-0.2-0.1-0.3-0.1c-0.9,0.2-1.4,0.9-1.3,1.9c0,0.1,0.1,0.2,0.1,0.2
			C326,110.2,326.1,110.4,326.4,110.4z M454.6,70.7c-0.9-0.2-1-0.1-1.4,0.6c-0.1,0.2-0.2,0.4-0.2,0.5c-0.1,0.6,0.1,1,0.4,1.5
			c0.1,0.1,0.3,0.1,0.5,0.1c0.1,0,0.1-0.2,0.1-0.3c-0.1-0.8,0.1-1.5,0.6-2.2C454.6,70.9,454.7,70.8,454.6,70.7z M322.2,115.1
			c0.1-0.7,0.6-1,1.2-1.3c-0.2-0.3-0.4-0.5-0.7-0.6c-0.7-0.3-1.6,0.3-1.6,1c0,0.1,0,0.2,0.1,0.2C321.5,114.7,321.8,115,322.2,115.1z
			 M330.4,119.1c-0.2-0.3-0.5-0.3-0.7-0.5c-0.1-0.1-0.3-0.1-0.5,0c-0.4,0.1-0.7,0.3-0.8,0.7c-0.1,0.5-0.2,0.9,0.1,1.4
			c0,0,0.1,0.1,0.1,0.1c0.2,0.2,0.3,0.2,0.4,0c0.2-0.6,0.5-1,1-1.3C330.1,119.2,330.2,119.2,330.4,119.1z M451,70.8
			c-0.7,0-0.9,0.1-1,0.6c-0.1,0.5-0.1,0.9,0,1.4c0.1,0.3,0.2,0.4,0.6,0.5c0.1,0,0.3,0,0.4,0c0.2,0,0.2-0.1,0.2-0.3
			c0-0.1-0.1-0.2-0.1-0.3C450.9,72.1,450.8,71.5,451,70.8z M331.6,122.8c0.1-0.2,0.1-0.3,0.2-0.4c0.2-0.6,0.6-0.9,1.2-1
			c0.1,0,0.1-0.2,0.1-0.3c-0.5-0.6-1.5-0.5-1.9,0.1c-0.2,0.3-0.4,0.6-0.3,0.9c0,0.3,0.3,0.4,0.5,0.5
			C331.4,122.7,331.5,122.7,331.6,122.8z M302.1,23.2c-1-0.8-1.9-1.3-2.3-1.4c0,0.5-0.2,1-0.4,1.5C300.2,23.4,301,23.4,302.1,23.2z
			 M326.4,107.7c-0.2-0.2-0.4-0.3-0.7-0.5c-0.1-0.1-0.2-0.1-0.3,0c-0.8,0.3-1.2,1.4-0.7,2.1c0,0.1,0.1,0.1,0.2,0.2
			c0.2,0.1,0.3,0.1,0.4-0.1C325.3,108.6,325.7,108.1,326.4,107.7C326.3,107.7,326.4,107.7,326.4,107.7z M459.7,78.5
			c0,0.2,0,0.4,0.1,0.6c0.1,0.1,0.3,0.2,0.4,0.2c0.1,0,0.2-0.1,0.2-0.2c0-0.6,0.3-1.2,0.5-1.7c0.1-0.2,0.2-0.4,0.3-0.6
			c0-0.1,0.1-0.1,0-0.2c-0.1-0.1-0.2-0.1-0.3-0.1c-0.2,0-0.4,0.1-0.5,0.3C460,77.1,459.8,77.8,459.7,78.5z M449.1,91.9
			c0.3-1,0.8-2,1.6-2.6c0.1,0,0.1-0.1,0-0.2c-0.1-0.1-0.1-0.1-0.2-0.1c-0.1,0-0.3,0-0.4,0.1c-0.6,0.3-1,0.8-1.3,1.4
			C448.6,90.9,448.5,91.4,449.1,91.9z M456.1,81.6c-0.1-0.3-0.2-0.7-0.1-1c0.1-0.3,0.2-0.7,0.3-1c-0.3-0.1-0.5-0.1-0.7-0.2
			c0,0-0.1,0-0.2,0.1c-0.2,0.1-0.3,0.3-0.4,0.5c-0.2,0.4-0.1,1.2,0.2,1.5c0,0,0,0,0.1,0C455.6,81.5,455.8,81.7,456.1,81.6z
			 M459.8,80.2c-0.3-0.1-0.5-0.2-0.8-0.1c-0.3,0.1-0.5,0.4-0.6,0.6c-0.2,0.5-0.1,0.9,0,1.4c0.1,0.4,0.3,0.5,0.7,0.5
			c0-0.4,0-0.8,0.1-1.2C459.2,80.9,459.5,80.6,459.8,80.2z M322.6,108c0-0.1,0-0.2,0-0.3c0-0.6,0-1.2,0.2-1.7c0,0,0-0.1,0-0.2
			c-0.1-0.2-0.6-0.3-0.7-0.2c-0.5,0.3-0.7,1.2-0.5,1.7c0,0.1,0.1,0.2,0.1,0.2C322.1,107.8,322.3,108,322.6,108z M329.8,117.6
			c0.2-0.7,0.7-1.2,1.2-1.6c0,0,0,0,0.1-0.1c0.1-0.1,0.2-0.2,0.1-0.3c-0.1-0.1-0.2-0.2-0.3-0.2c-0.4-0.1-0.8,0-1.1,0.4
			c-0.3,0.3-0.4,0.6-0.5,1C329.2,117.3,329.2,117.3,329.8,117.6z M325.4,117.5c-0.2-0.7,0.3-1.2,0.7-1.6c-0.2-0.2-0.3-0.3-0.5-0.4
			c-0.2-0.1-0.4-0.1-0.5,0c-0.4,0.2-0.5,0.4-0.5,0.8C324.5,116.9,324.8,117.2,325.4,117.5z M449.5,92.1c0,0.1,0,0.3,0.1,0.4
			c0,0,0.1,0.1,0.1,0.1c0,0,0.1,0,0.1,0c0.1-0.1,0.1-0.2,0.1-0.3c0.3-0.8,0.7-1.6,1.5-2c0,0,0,0,0.1,0c0.1-0.1,0.1-0.3,0-0.4
			c-0.2-0.1-0.4-0.1-0.6,0c-0.5,0.3-0.8,0.8-1.1,1.3C449.6,91.5,449.4,91.7,449.5,92.1z M327.7,119.7c0.4-1,0.4-1,1.2-1.6
			c0-0.2-0.2-0.2-0.3-0.3c-0.5-0.3-1.1-0.1-1.3,0.5c-0.1,0.2,0,0.5-0.1,0.7C327.2,119.3,327.4,119.5,327.7,119.7z M459,69.8
			c0.1-0.3-0.1-0.5-0.1-0.8c0-0.1-0.1-0.2-0.1-0.2c-0.4-0.2-0.7-0.4-1.1-0.4c-0.2,0-0.2,0.2-0.2,0.3c0.2,0.3,0.4,0.5,0.5,0.9
			c0,0.3,0.3,0.4,0.5,0.4C458.6,69.9,458.8,70,459,69.8z M330.7,108.5c0-0.4,0-0.5-0.3-0.8c-0.2-0.2-0.4-0.3-0.5-0.5
			c-0.1-0.1-0.2-0.1-0.3-0.1c-0.2,0.1-0.1,0.2,0,0.4c0.1,0.3,0.2,0.5,0.2,0.8c0,0.2,0.1,0.3,0.2,0.4c0.1,0.1,0.3,0.2,0.4,0.3
			c0.2,0.1,0.3,0,0.3-0.2C330.6,108.7,330.7,108.6,330.7,108.5z M456.6,69.8C456.6,69.8,456.6,69.8,456.6,69.8c0.2,0,0.4,0,0.6,0
			c0.2,0,0.3-0.2,0.2-0.3c-0.4-0.6-1.3-0.8-1.8-0.2c-0.1,0.1-0.1,0.1,0,0.2c0.1,0.1,0.2,0.4,0.4,0.3
			C456.2,69.7,456.4,69.8,456.6,69.8z M327.8,106.7c0,0-0.2,0-0.2,0.1c-0.1,0.1,0,0.3,0,0.4c0,0.1,0.1,0.1,0.2,0.2
			c0.4,0.2,0.8,0.5,1.2,0.7c0,0,0.1,0,0.1,0c0,0,0.1-0.1,0.1-0.1C329,107.3,328.5,106.8,327.8,106.7z M452.7,69.8c0.7,0,1.3,0,1.9,0
			c0,0,0.1,0,0.1,0c0,0,0.1-0.1,0.1-0.1c0-0.1-0.1-0.2-0.1-0.2c-0.1-0.1-0.3-0.1-0.5-0.1c-0.2,0.1-0.5,0.1-0.7,0.2
			C453.3,69.6,453,69.5,452.7,69.8z M325.5,106.2c0.3,0.2,0.7,0.3,1,0.5c0,0,0.1,0,0.1,0c0,0,0-0.1,0-0.1
			C326.4,106.2,326,106.2,325.5,106.2z M248.1,32c-0.3-0.1-0.5-0.1-0.8,0c-0.1,0-0.2,0.2-0.2,0.3c0,0.1,0.2,0.1,0.3,0.1
			C247.7,32.3,247.9,32.2,248.1,32z M438.5,24.2c-0.3-0.1-0.4-0.1-0.6,0C438,24.3,438.2,24.3,438.5,24.2z M416.1,23.3
			C416.1,23.3,416.1,23.3,416.1,23.3c0.1,0,0.1,0.1,0.1,0C416.2,23.3,416.2,23.3,416.1,23.3C416.1,23.3,416.1,23.3,416.1,23.3z
			 M314.5,101.9C314.5,101.9,314.5,101.9,314.5,101.9C314.4,102,314.5,102,314.5,101.9C314.6,102,314.6,102,314.5,101.9
			C314.6,102,314.5,101.9,314.5,101.9z M408,56.3C408,56.3,408,56.3,408,56.3C408,56.3,408,56.2,408,56.3
			C408,56.3,408,56.3,408,56.3C408,56.3,408,56.3,408,56.3z M407.5,56.5L407.5,56.5L407.5,56.5L407.5,56.5z M324.9,105.8
			L324.9,105.8L324.9,105.8L324.9,105.8z"/>
		<polygon points="340.5,88.6 340.5,88.6 340.5,88.6 		"/>
		<path d="M336.1,20.4c0,0,0-0.1,0-0.1C336.1,20.4,336.2,20.4,336.1,20.4C336.1,20.4,336.1,20.4,336.1,20.4
			C336.1,20.5,336.1,20.4,336.1,20.4z"/>
		<path d="M297.2,19.2c-0.1,0-0.1,0-0.1-0.1C297.2,19.1,297.2,19.1,297.2,19.2C297.2,19.2,297.2,19.2,297.2,19.2z"/>
		<path d="M319.7,20.1C319.7,20.1,319.7,20.1,319.7,20.1C319.7,20.1,319.7,20.1,319.7,20.1C319.7,20.1,319.7,20.1,319.7,20.1z"/>
		<path d="M486.4,26.7c-0.4,0.6-0.7,1.3-1.2,1.9l0,0c-0.1-0.3,0-0.6,0.1-0.9c0.8-1.4,1.8-2.6,3.3-3.3c0.3-0.1,0.6-0.3,0.9-0.3
			c1.9-0.3,3.8-0.2,5.4,1c0.3,0.2,0.6,0.4,0.9,0.5c0.7,0.3,1.4,0.7,2,1.3c0.3,0.3,0.5,0.6,0.6,1c-0.7-0.3-0.9-1-1.6-1.2
			c-0.1,0.1,0,0.2,0,0.3c0.4,0.7,0.8,1.3,1.3,1.8c0.3,0.2,0.3,0.5,0.3,0.8c0,0.1-0.1,0.2-0.2,0.1c-0.3-0.1-0.5-0.2-0.8-0.3
			c-0.3-0.1-0.4-0.1-0.5,0.2c-0.3,0.7-0.8,1.3-1.4,1.7c-0.4,0.3-0.7,0.6-1.1,0.9c-0.8,0.5-1.6,0.8-2.5,0.8c-1.3,0-2.6-0.1-3.7-0.7
			c-1-0.5-1.7-1.2-2.2-2.1c-0.1-0.1-0.1-0.3-0.1-0.4c0-0.5-0.1-1,0.1-1.5c0.2-0.4,0.3-0.8,0.4-1.3C486.5,27,486.5,26.8,486.4,26.7
			c0,0,0.1,0.1,0.1,0C486.5,26.7,486.4,26.7,486.4,26.7z M490.8,24.9c-0.9,0-1.7,0.3-2.3,1c-0.3,0.3-0.5,0.7-0.7,1.1
			c-0.2,0.4-0.4,0.8-0.5,1.1c-0.2,0.3-0.6,0.6-0.5,0.9c0.1,0.3,0.4,0.6,0.6,0.9c0.3,0.4,0.6,0.8,0.9,1.1c0.2,0.2,0.3,0.3,0.5,0.4
			c1.5,0.7,2.9,0.9,4.4,0.2c0.5-0.2,0.9-0.4,1.4-0.6c0.3-0.1,0.5-0.3,0.7-0.6c0.2-0.4,0.5-0.8,0.6-1.2c0.2-0.6,0.3-1.1,0.1-1.7
			c-0.1-0.3-0.3-0.6-0.6-0.8c-0.7-0.4-1.4-0.8-2.1-1.2C492.4,25.1,491.6,24.9,490.8,24.9z"/>
		<path d="M439.1,83.6c-0.1-0.2,0-0.4,0.1-0.6c0.6-0.9,1.4-1.6,2.5-1.8c0.3-0.1,0.6-0.1,1-0.2c-0.3-0.4-0.8-0.5-1-0.9
			c0.2-0.2,0.4,0,0.6,0.1c0.5,0.2,0.9,0.5,1.3,0.9c0.3,0.3,0.3,0.3,0.6,0c0.1-0.1,0.3-0.2,0.3-0.3c-0.1-0.2-0.3-0.2-0.4-0.4
			c-0.2-0.2-0.4-0.2-0.6-0.1c-0.1,0.1-0.2,0-0.2-0.1c0.1-0.2,0-0.3-0.2-0.4c-0.6-0.3-1.1-0.5-1.7-0.8c-0.5-0.2-0.9-0.4-1.4-0.6
			c0,0-0.1-0.2-0.1-0.2c0-0.1,0.1-0.1,0.2-0.1c0.6,0.3,1.2,0.5,1.8,0.8c0.4,0.1,0.7,0.4,1.1,0.4c0.2-0.6,0.1-1.2,0.4-1.8
			c0.3-0.5,0.7-1,1.1-1.5c-0.1-0.2-0.3-0.2-0.5-0.2c-0.9-0.1-1.8-0.3-2.7-0.7c-0.2-0.1-0.4-0.1-0.4-0.3c0.2-0.1,0.4,0,0.7,0.1
			c0.9,0.3,1.8,0.5,2.8,0.6c0.3,0,0.5,0.3,0.8,0.3c0.2,0,0.3,0.1,0.4-0.2c0-0.1,0.1-0.2,0.2-0.2c0.4,0,0.8-0.1,1.2,0.2
			c-0.1,0.2-0.4,0.1-0.5,0.2c0.1,0.2,0.4,0.3,0.6,0.4c0.3,0.2,0.3,0.4,0,0.6c-0.2,0.1-0.5,0.3-0.7,0.5c-0.6,0.7-1.1,1.5-1,2.5
			c0,0.3-0.1,0.5-0.4,0.6c0.1-0.1,0.1-0.2,0.1-0.4c-0.1-1.3,0.4-2.4,1.4-3.3c0.1-0.1,0.3-0.1,0.2-0.3c-0.3-0.2-0.7-0.3-1.1-0.4
			c-0.3-0.1-0.5,0-0.7,0.2c-0.9,0.7-1.4,1.6-1.4,2.8c0,0.2,0.1,0.4,0.3,0.6c0.4,0.4,0.9,0.6,1.3,0.9c0.1,0,0.2,0.1,0.2,0.1
			c0.1,0.1,0.2,0.1,0.2,0.3c-0.1,0.2-0.2,0.1-0.3,0.1c-0.1-0.1-0.2-0.1-0.4,0c-0.5,0.3-0.5,0.3-0.8,1c0,0-0.1,0-0.1,0
			c-0.4-0.5-0.9-0.6-1.6-0.5c-0.8,0.1-1.6,0.3-2.2,0.9C439.8,82.7,439.3,83.1,439.1,83.6C439,83.6,439.1,83.6,439.1,83.6z"/>
		<path d="M398.5,58.2c0-0.1,0-0.2,0-0.3c0.3-0.5,0.6-0.9,1-1.3c1.5-1.4,3.2-2.5,5-3.5c1.2-0.6,2.4-1.1,3.6-1.5
			c2.3-0.8,4.7-1.3,7-1.8c0.8-0.2,1.6-0.3,2.4-0.6c0.1,0,0.3-0.1,0.3,0.1c0.1,0.2,0,0.3-0.2,0.3c-0.2,0.2-0.5,0.2-0.8,0.3
			c-0.9,0.2-1.7,0.4-2.6,0.6c-1.4,0.3-2.7,0.6-4.1,1c-2.8,0.8-5.6,1.8-8,3.5c-0.5,0.3-0.9,0.6-1.4,0.9c-0.6,0.4-1.2,0.9-1.7,1.5
			C399,57.8,398.8,58.1,398.5,58.2C398.4,58.2,398.5,58.2,398.5,58.2z"/>
		<path d="M501.5,17.9c-1.5,0-2.9-0.2-4.3-0.6c-1.1-0.4-2.2-0.5-3.2-0.8c-0.9-0.2-1.7-0.3-2.6-0.4c-1.8-0.1-3.5-0.1-5.3,0.1
			c-0.4,0-0.9,0.1-1.3,0.1c-0.1,0-0.2-0.1-0.2-0.2c0-0.1,0-0.2,0.1-0.3c0.1-0.1,0.3-0.1,0.4-0.1c1.2-0.2,2.4-0.3,3.7-0.3
			c1.1,0,2.3,0,3.4,0.1c1.8,0.3,3.7,0.6,5.5,1.2c1.1,0.3,2.1,0.7,3.2,1C501,17.9,501.2,17.9,501.5,17.9z"/>
		<path d="M330.4,60.9c0.3-0.3,0.4-0.4,0.6-0.4c1.1-0.5,2-1.2,2.8-2c1.7-1.7,2.8-3.6,3.4-5.9c0.1-0.5,0.2-1,0.5-1.4
			c0.2,0.5,0.3,1,0.1,1.5c-0.3,1.4-0.8,2.8-1.7,4c-0.5,0.6-0.9,1.3-1.4,1.9c-0.5,0.6-1.1,1-1.7,1.5c-0.2,0.2-0.5,0.4-0.8,0.5
			C331.8,60.6,331.2,60.7,330.4,60.9z"/>
		<path d="M323.6,58.4C323.5,58.3,323.5,58.3,323.6,58.4c0.7-0.9,1.3-1.9,2-2.7c0.6-0.7,0.8-1.5,0.8-2.5c0-0.9-0.1-1.8-0.4-2.7
			c-0.1-0.5-0.2-1-0.4-1.4c-0.1-0.2-0.2-0.4-0.3-0.6c0-0.1-0.1-0.2,0-0.2c0.1,0,0.2,0,0.2,0c0,0,0.1,0.1,0.1,0.1
			c0.2,0.2,0.4,0.4,0.5,0.7c0.7,1.7,1.1,3.5,0.7,5.4c-0.1,0.7-0.4,1.3-0.9,1.8c-0.4,0.5-0.9,1.1-1.5,1.4c-0.2,0.2-0.4,0.3-0.6,0.6
			C323.9,58.3,323.8,58.4,323.6,58.4z"/>
		<path d="M421,51.5c1,0.3,1.7,0.7,2.5,1.1c0.9,0.5,1.8,1.1,2.7,1.7c1.2,0.7,2.5,1.4,3.8,1.8c0.3,0.1,0.5,0.2,0.8,0.3
			c0,0,0.1,0.1,0.1,0.1c0,0,0,0.1-0.1,0.1c-0.3,0.1-0.6,0.2-1,0.1c-1.2-0.4-2.3-0.8-3.3-1.5c-1-0.6-2-1.2-3-1.9
			C422.6,52.9,421.8,52.4,421,51.5z"/>
		<path d="M429.8,53.3c-0.7-0.2-1.3-0.5-1.9-1c-0.9-0.7-1.8-1.5-2.5-2.3c-1.2-1.3-2.4-2.6-3.4-4.1c-0.2-0.3-0.4-0.5-0.5-0.9
			c0-0.1,0-0.2,0.1-0.2c0.1,0,0.2,0,0.2,0c0.2,0.2,0.4,0.4,0.5,0.6c1,1.3,2,2.5,3.1,3.7c0.8,0.9,1.7,1.7,2.7,2.5
			C428.7,52.2,429.3,52.6,429.8,53.3z"/>
		<path d="M506.1,26.3c-1.3,0.2-2.4,0-3.5-0.2c-1.4-0.2-2.6-0.7-3.9-1.2c-1.2-0.6-2.5-1-3.8-1.3c-0.3-0.1-0.7-0.1-1-0.1
			c-0.1,0-0.3,0-0.4-0.1c-0.1-0.1-0.2-0.2-0.1-0.3c0-0.1,0.1-0.2,0.2-0.2c0.2-0.1,0.5-0.1,0.7,0c1.5,0.3,2.8,0.7,4.2,1.4
			c1.3,0.7,2.6,1.2,4,1.4c0.9,0.1,1.8,0.2,2.6,0.3c0.1,0,0.3,0.1,0.4,0.1C505.7,26.2,505.8,26.3,506.1,26.3z"/>
		<path d="M531.9,27.9c0.3,0,0.7,0.1,1,0.2c0.4,0.2,0.7,0.5,1.1,0.6c0.2,0,0.3,0.2,0.3,0.3c0.2,0.5-0.1,0.9-0.6,0.9
			c-0.8-0.1-1.4-0.4-2-0.9c-0.2-0.2-0.3-0.3-0.5-0.4c-0.2-0.1-0.1-0.2-0.1-0.4C531.3,27.9,531.6,27.8,531.9,27.9z"/>
		<path d="M459.9,52.1c-0.7,0-1.3,0-1.9-0.2c-0.8-0.2-1.6-0.6-2.4-0.9c-0.7-0.3-1.2-0.8-1.7-1.4c-0.1-0.1-0.2-0.3-0.1-0.4
			c0.2-0.2,0.3,0,0.4,0.1c0.1,0.1,0.2,0.1,0.3,0.2c0.9,0.8,2,1.3,3.1,1.7C458.4,51.3,459.1,51.6,459.9,52.1z"/>
		<path d="M503.7,29.1c0,0.2-0.2,0.2-0.3,0.3c-1.5,0.8-2.8,1.7-4.1,2.6c-0.7,0.5-1.4,0.9-2,1.3c-0.6,0.4-1.4,0.6-2.2,0.8
			c0.2-0.4,0.4-0.4,0.7-0.5c0.7-0.3,1.5-0.7,2.2-1.1c1-0.5,1.9-1.1,2.8-1.7c0.8-0.6,1.6-1,2.4-1.5C503.3,29.1,503.5,29.1,503.7,29.1
			L503.7,29.1z"/>
		<path d="M446,73.1c-0.4-0.3-0.9-0.3-1.4-0.3c-0.2,0-0.4,0-0.7-0.1c0,0-0.1,0-0.1-0.1c0-0.1,0.1-0.2,0.1-0.2c0.2,0,0.4-0.1,0.7,0
			c1.1,0.1,2.2,0.2,3.3,0.4c0.1,0,0.2,0,0.2,0.1c0.1,0.1,0.2,0.2,0.1,0.3c-0.6,0.5-0.7,1.2-0.6,1.9c0,0.1,0,0.3,0,0.4
			c0,0,0,0.1-0.1,0.1c-0.1,0-0.2,0-0.2-0.1c-0.2-0.6-0.2-1.3,0.2-1.9c0,0,0.1-0.1,0.1-0.1c0-0.1,0-0.2-0.1-0.3
			C447,73.1,446.5,73,446,73.1L446,73.1z"/>
		<path d="M317.8,105.4c-0.4-0.3-0.8-0.6-1.3-0.9c-0.3-0.1-0.5-0.3-0.7-0.6c0.5,0.1,0.8,0.3,1.2,0.5c0.9,0.5,1.7,1.1,2.6,1.6
			c0.1,0.1,0.3,0.2,0.4,0.3c0.1,0.1,0.1,0.2-0.1,0.3c-0.6,0.1-0.8,0.5-0.9,1.1c0,0.2-0.1,0.4-0.2,0.5c0,0,0,0-0.1,0c0,0-0.1,0-0.1,0
			c0-0.5,0-1,0.3-1.4c0.1-0.1,0.2-0.2,0.4-0.4C318.9,106,318.3,105.7,317.8,105.4L317.8,105.4z"/>
		<path d="M431.7,75.8c-0.1-0.1-0.2-0.1-0.2-0.2c0-0.2-0.1-0.4,0-0.6c0.1-0.9,0.4-1.7,0.8-2.4c0-0.1,0.1-0.1,0.2-0.2
			c0,0,0.1-0.1,0.1,0c0,0,0.1,0.1,0.1,0.1c0,0.1,0,0.2-0.1,0.2C432.1,73.7,431.7,74.7,431.7,75.8z"/>
		<path d="M440.3,79.9c0,0,0,0.1-0.1,0.1c-0.1,0-0.2,0.1-0.2,0.1c-0.8,0-1.5,0.4-2.1,0.9c0,0-0.1,0.1-0.1,0.1c-0.1,0-0.2,0.1-0.2,0
			c-0.1-0.1,0-0.2,0.1-0.3c0.1-0.1,0.2-0.2,0.3-0.3c0.5-0.4,1.1-0.7,1.8-0.8c0.2,0,0.3-0.1,0.5,0C440.2,79.8,440.2,79.8,440.3,79.9z
			"/>
		<path d="M440.8,72.9c0,0.1,0,0.1,0,0.2c-0.5,1.1-0.6,2.3-0.6,3.5c0,0.1,0,0.3-0.1,0.4c0,0,0,0-0.1,0c-0.1-0.1-0.2-0.3-0.2-0.5
			c0-0.8,0.1-1.7,0.3-2.5C440.3,73.6,440.3,73.2,440.8,72.9L440.8,72.9z"/>
		<path d="M311.5,105.9c-0.2-0.2-0.1-0.4-0.1-0.5c0.3-0.8,0.6-1.6,1.1-2.3c0.1-0.1,0.1-0.1,0.6-0.2
			C312.2,103.8,311.9,104.9,311.5,105.9z"/>
		<path d="M309.1,108.1c-0.2,0-0.4,0.1-0.6,0.1c-0.1,0-0.2,0-0.3-0.1c0-0.2,0.1-0.1,0.2-0.2c0.8-0.2,1.6-0.1,2.3,0.2
			c0.1,0,0.1,0.1,0.2,0.1c0,0,0.1,0.1,0,0.1c0,0-0.1,0.1-0.1,0.1c-0.4-0.2-0.8-0.3-1.3-0.4C309.5,108.1,309.3,108.1,309.1,108.1z"/>
		<path d="M474.4,40.4c-0.4,0.3-0.9,0.4-1.4,0.4c-0.1,0-0.2-0.1-0.2-0.2c0-0.1,0.1-0.2,0.2-0.2c0.2,0,0.4-0.1,0.7-0.1
			C473.9,40.3,474.2,40.3,474.4,40.4z"/>
		<path d="M446,73.1c0,0.1,0,0.1,0,0.2c-0.3,0.4-0.5,0.8-0.5,1.3c0,0.1-0.1,0.1-0.1,0.1c0,0-0.1-0.1-0.1-0.1c0-0.6,0.2-1.1,0.6-1.5
			C445.8,73.1,445.9,73.1,446,73.1C446,73.1,446,73.1,446,73.1z"/>
		<path d="M315.4,48.6c0.1-0.1,0.1-0.1,0.2-0.1c0.5,0.4,0.9,0.7,1.3,1.2c0,0,0,0.1,0,0.2c0,0,0,0,0,0c-0.5-0.3-0.9-0.6-1.2-1
			C315.6,48.8,315.5,48.7,315.4,48.6C315.4,48.6,315.4,48.6,315.4,48.6z"/>
		<path d="M481.8,41.7c0,0-0.1,0.1-0.1,0.1c-0.1,0-0.2,0-0.2,0c-0.3-0.1-0.4-0.4-0.4-0.7c0,0,0-0.1,0.1-0.1c0.1-0.1,0.2-0.1,0.3,0
			C481.6,41.1,481.8,41.4,481.8,41.7z"/>
		<path d="M317.8,105.4c0,0.1,0,0.2-0.1,0.3c-0.3,0.1-0.5,0.4-0.6,0.7c0,0.1-0.1,0.2-0.2,0.1c0,0-0.1-0.2,0-0.2
			C316.9,105.8,317.2,105.4,317.8,105.4C317.8,105.4,317.8,105.4,317.8,105.4z"/>
		<path d="M478,41.4c0,0.1-0.1,0.2-0.2,0.2c-0.1,0-0.3-0.1-0.3-0.3c0-0.1,0.1-0.3,0.2-0.3C477.9,41,478,41.2,478,41.4z"/>
		<path d="M503.7,29.1c0.3-0.3,0.6-0.4,1-0.4C504.4,28.9,504.1,29.1,503.7,29.1C503.7,29.1,503.7,29.1,503.7,29.1z"/>
		<path d="M485.6,29.1c0,0.1,0,0.2-0.1,0.2c0,0-0.1,0.1-0.1,0.1c-0.1,0-0.1-0.1-0.1-0.2c0-0.1,0-0.2,0-0.2c0-0.1,0.1-0.2,0.1-0.2
			C485.7,28.9,485.6,29,485.6,29.1z"/>
		<path d="M440.8,72.9C440.8,72.9,440.8,72.9,440.8,72.9C440.9,72.9,440.9,72.9,440.8,72.9C440.8,72.9,440.8,72.9,440.8,72.9
			C440.8,72.9,440.8,72.9,440.8,72.9z"/>
		<path d="M318.1,108.1c0,0,0.1,0,0.1,0c0,0,0,0-0.1,0.1C318.1,108.1,318.1,108.1,318.1,108.1L318.1,108.1z"/>
		<path d="M312.3,109.2C312.2,109.3,312.2,109.2,312.3,109.2C312.2,109.2,312.2,109.2,312.3,109.2
			C312.2,109.2,312.2,109.2,312.3,109.2L312.3,109.2z"/>
		<path d="M312.2,109.3c0.1,0,0.2,0.1,0.2,0.2c0,0,0,0,0,0C312.3,109.4,312.2,109.4,312.2,109.3
			C312.3,109.2,312.2,109.3,312.2,109.3z"/>
		<path d="M315.1,48.4C315.2,48.3,315.2,48.5,315.1,48.4C315.2,48.3,315.1,48.3,315.1,48.4L315.1,48.4z"/>
		<path d="M485.2,28.5C485.2,28.5,485.2,28.5,485.2,28.5C485.2,28.5,485.2,28.5,485.2,28.5z"/>
		<path d="M398.2,58.3c0,0,0,0.1,0,0.1C398.1,58.4,398.2,58.4,398.2,58.3C398.3,58.4,398.2,58.3,398.2,58.3z"/>
		<path d="M398.3,58.4c0-0.1,0.1-0.2,0.2-0.1c0,0,0,0,0,0C398.4,58.3,398.4,58.4,398.3,58.4C398.2,58.3,398.3,58.4,398.3,58.4z"/>
		<path d="M316.9,49.9C316.9,49.9,316.9,49.9,316.9,49.9C317,49.9,317,49.9,316.9,49.9C316.9,49.9,316.9,49.9,316.9,49.9z"/>
		<path d="M315.1,48.4c0,0.1,0.2,0.2,0.2,0.3c0,0,0,0,0,0C315.4,48.5,315.3,48.4,315.1,48.4C315.1,48.4,315.1,48.4,315.1,48.4z"/>
		<path d="M445.4,87.3c0,0-0.1,0-0.1,0C445.3,87.1,445.4,87.3,445.4,87.3C445.4,87.3,445.4,87.3,445.4,87.3z"/>
		<path d="M491.2,26.4c0.7,0,1.2,0.4,1.5,1c0.2,0.3,0.2,0.6,0.1,0.9c-0.2,0.4-0.4,0.8-0.8,1.1c-0.5,0.3-0.9,0.3-1.4,0
			c-0.4-0.3-0.7-0.7-0.8-1.1C489.4,27.2,490.1,26.3,491.2,26.4z"/>
	</g>
</g>
<g id="Layer_3">
</g>
</svg>
