<?xml version="1.0" encoding="utf-8"?>
<!-- Generator: Adobe Illustrator 25.0.1, SVG Export Plug-In . SVG Version: 6.00 Build 0)  -->
<svg version="1.1" xmlns="http://www.w3.org/2000/svg" xmlns:xlink="http://www.w3.org/1999/xlink" x="0px" y="0px"
	 viewBox="0 0 566.9 167" style="enable-background:new 0 0 566.9 167;" xml:space="preserve">
<g id="Layer_1">
</g>
<g id="Layer_13">
</g>
<g id="Layer_12">
</g>
<g id="Layer_11">
</g>
<g id="Layer_10">
	<g>
		<path d="M70.2,128.8c-2.6-0.4-5.2-1.1-7.8-1.8c-2.1-0.6-4.3-1.2-6.4-2c-3.1-1.1-6.2-2.2-9.3-3.4c-3.3-1.3-6.6-2.7-9.4-4.9
			c-3.7-2.9-6.9-6.3-9.9-9.9c-1.3-1.6-2.7-3.3-3.4-5.3c-1.3-3.5-2.5-7.1-4.1-10.5c-0.7-1.5-1.5-3.1-1.5-4.8c0-0.5,0.2-1,0.1-1.6
			c-0.7-3.4-0.6-6.7-0.3-10.2c0.4-5.5,1.6-10.8,3-16.1c0.8-3.1,1.8-6.1,3.6-8.8c1.2-1.8,2.2-3.6,3.7-5.2c2.1-2.2,4.6-3.9,7.1-5.6
			c3.6-2.4,7.4-4.1,11.5-5.5c2.8-0.9,5.7-1.3,8.5-2c5.7-1.4,11.5-2.1,17.3-2.3c4-0.1,8-0.5,12-0.2c2.6,0.2,5.2,0.3,7.8,0.5
			c6.3,0.4,12.5,1.7,18.8,2.4c4.3,0.5,8.6,1,12.9,1.2c2,0.1,3.9,0.1,5.9,0.3c3.6,0.4,7.3,0.3,10.9,0.6c2.8,0.2,5.5,0.1,8.3,0.3
			c4.6,0.3,9.3,0.1,13.9,0.3c3.1,0.2,6.2,0,9.3,0c2.2,0.1,4.4,0.1,6.6,0c5.5-0.2,11-0.5,16.4-0.6c4-0.1,8,0,12-0.3
			c2.4-0.2,4.8-0.2,7.2-0.5c4.1-0.5,8.3-0.7,12.4-1c3.6-0.3,7.1-0.7,10.6-1.1c3.9-0.5,7.8-1.2,11.6-2c5.1-1,10.2-1.4,15.3-2.1
			c5.5-0.7,11.1-0.9,16.7-1.4c1.9-0.2,3.8-0.1,5.7-0.4c2-0.2,4-0.4,6-0.4c4.2-0.1,8.3-0.4,12.4-0.9c4.6-0.5,9.2-1.3,13.7-2
			c4.1-0.6,8.2-1.4,12.3-1.8c3.4-0.4,6.9-0.9,10.3-1.3c3.2-0.4,6.3-0.8,9.5-1.1c4-0.3,8.1-0.6,12.1-0.9c4.4-0.3,8.7-0.5,13.1-0.7
			c5.4-0.3,10.9-0.5,16.3-0.4c1.8,0,3.5,0.2,5.3,0.4c4.9,0.5,9.7,1.5,14.4,2.5c4.9,1,9.7,2.4,14.4,4c3.4,1.1,6.8,2.1,10.1,3.3
			c4.9,1.7,9.5,3.9,14.2,6.1c3.3,1.5,6.6,2.8,9.9,4.3c4.7,2,9.3,4.5,14.1,6.4c1.1,0.4,2.2,0.7,3.3,1.1c2.6,1.1,5.3,1.9,8,2.7
			c2.4,0.6,4.7,1.2,7.1,1.7c3.4,0.8,6.9,1.3,10.3,1.8c3.6,0.5,7.2,0.8,10.8,1c3.7,0.2,7.3,0.4,11,0.5c1.6,0,3.2,0.1,4.9,0.7
			c2.8,1,5.2,2.4,7.1,4.7c1.8,2.2,3.6,4.5,4.9,7c1.6,3.2,2.7,6.6,3.7,10c0.6,1.8,0.8,3.8,1.2,5.7c0.8,3.5,0.8,7,1,10.4
			c0.2,2.7-0.2,5.3-0.5,7.9c-0.6,5.2-1.9,10.2-3.7,15.1c-1.2,3.1-3,5.8-5.1,8.2c-3.4,4-7.6,7-12.3,9.5c-4.7,2.4-9.6,3.9-14.7,5.3
			c-3.1,0.9-6.2,1.5-9.3,2.1c-2.8,0.5-5.7,0.9-8.5,1.1c-4.8,0.3-9.6,0.4-14.4,0.5c-6,0.1-12-0.1-18-1.2c-5.3-0.9-10.6-1.3-16-1.7
			c-3.3-0.2-6.7-0.2-10-0.5c-3.1-0.3-6.3-0.3-9.4-0.1c-5.1,0.4-10.3,0.8-15.3,1.7c-6,1-12,2.3-17.9,3.9c-5.6,1.5-11.1,3.1-16.8,4.3
			c-6.1,1.4-12.3,2.7-18.5,3.7c-5.8,0.9-11.7,1.6-17.6,1.9c-3.6,0.2-7.1,0.2-10.7,0c-2.2-0.1-4.5-0.1-6.7-0.5
			c-2.5-0.4-4.9-0.8-7.4-1.1c-3.6-0.5-7.1-1.2-10.6-1.9c-3.2-0.6-6.3-1.4-9.5-2.1c-5-1-9.9-2.3-14.8-4c-6.5-2.3-13.1-4.2-19.7-6.1
			c-4.4-1.3-8.8-2.4-13.2-3.5c-8.5-2.1-16.9-4.4-25.5-5.9c-3.5-0.6-7.1-1.4-10.7-1.9c-4.7-0.7-9.5-1.4-14.2-1.6
			c-5.4-0.3-10.8-0.5-16.3-0.7c-2.6-0.1-5.1,0-7.7-0.2c-5.1-0.4-10.1-0.1-15.2-0.2c-2.4-0.1-4.9,0.2-7.3,0.3c-3,0.1-5.9,0.3-8.9,0.7
			c-3.8,0.5-7.7,1.1-11.5,1.7c-3.2,0.5-6.4,0.8-9.6,1.4c-3.1,0.5-6.2,0.7-9.3,1c-1.8,0.2-3.7,0.3-5.6,0.5
			c-5.4,0.7-10.7,1.4-16.1,1.9c-3.1,0.3-6.1,0.5-9.2,0.6C77.5,129.8,73.9,129.3,70.2,128.8z M388.3,137.8c0.2-0.3,0.5-0.7,1-0.6
			c0.9,0.3,0.6,1.1,0.7,1.9c9.8-2.8,19.5-4.9,29.5-5.8c10-0.8,20-0.3,30.1,0.5c0-0.6-0.4-1.5,0.6-1.5c1,0,0.7,0.8,0.7,1.5
			c3.9,0.5,7.7,0.8,11.6,1.4c2.5,0.4,4.9,0.7,7.4,1c3.6,0.4,7.2,0.3,10.9,0.2c0.9,0,1.8,0,2.7-0.1c3.6-0.1,7.3-0.1,10.9-0.4
			c3.2-0.3,6.4-0.7,9.6-1.3c5.5-1,11-2.5,16.3-4.4c3.4-1.2,6.7-2.7,9.7-4.7c3.3-2.1,6.1-4.7,8.5-7.8c1.8-2.4,3.2-4.9,4.2-7.6
			c0.9-2.4,1.6-4.9,2.1-7.5c0.5-2.9,0.9-5.9,1.1-8.8c0.2-2,0.2-3.9-0.1-5.9c-0.2-1.6-0.2-3.2-0.3-4.8c-0.2-2.1-0.8-4.1-1.2-6.1
			c-0.5-3-1.7-5.9-2.7-8.8c-1.4-4-3.8-7.5-6.7-10.6c-1.8-1.8-4.1-2.8-6.5-3.5c-0.6-0.2-1.3,0-1.9,0c-3.4-0.1-6.8-0.2-10.2-0.4
			c-4.7-0.3-9.4-0.6-14.1-1.3c-2.4-0.4-4.7-0.7-7.1-1.2c-4.3-0.8-8.6-1.8-12.8-3.2c-3.2-1.1-6.5-2.1-9.6-3.5
			c-1.6-0.7-3.2-1.4-4.8-2.2c-5.9-2.9-12-5.5-18-8.2c-3.9-1.7-7.7-3.5-11.7-5.1c-3.1-1.2-6.3-2.3-9.4-3.3
			c-5.4-1.7-10.7-3.5-16.2-4.6c-5.7-1.2-11.5-2.4-17.3-2.8c-4-0.3-8.1-0.2-12.1,0c-4,0.2-8,0.2-12,0.5c-4,0.2-8,0.5-11.9,0.7
			c-3,0.2-6,0.5-9.1,0.7c-2.5,0.2-5,0.4-7.4,0.9c-2,0.4-4.1,0.4-6.2,0.7c-3.4,0.5-6.8,0.8-10.1,1.4c-2.5,0.5-4.9,0.8-7.4,1.2
			c-3.4,0.5-6.8,1.1-10.3,1.5c-1.4,0.2-2.7,0.5-4.1,0.4c-1.1,0-2.2,0.3-3.3,0.4c-4,0.3-8.1,0.4-12.1,0.6c-3.9,0.3-7.7,0.7-11.6,0.9
			c-4,0.2-8.1,0.6-12.1,1c-5.2,0.6-10.5,1.2-15.7,2.1c-3,0.5-6,1.1-9,1.6c-4.6,0.7-9.2,1.3-13.8,1.6c-4.6,0.3-9.2,0.8-13.8,1.2
			c-5.6,0.5-11.3,0.6-16.9,0.8c-4,0.1-8,0.2-12,0.4c-4.1,0.2-8.2,0.3-12.3,0.1c-2.7-0.1-5.4,0-8.2,0c-5-0.1-9.9-0.1-14.9-0.4
			c-2.8-0.1-5.6-0.1-8.5-0.3c-4.6-0.3-9.1-0.4-13.7-0.8c-2.7-0.2-5.3-0.3-8-0.5c-2.2-0.2-4.3-0.5-6.5-0.7
			c-5.7-0.6-11.4-1.6-17.1-2.3c-2.3-0.3-4.6-0.3-6.8-0.5c-1.9-0.1-3.7-0.3-5.6-0.3c-2.9,0-5.9,0-8.8,0.2c-2.7,0.2-5.3,0.3-8,0.5
			c-1.4,0.1-2.8,0.3-4.3,0.6c-2.7,0.5-5.4,0.9-8.1,1.5c-3.8,0.8-7.5,1.7-11.1,3.3c-3.6,1.6-6.9,3.6-10,6c-2.6,2-4.6,4.5-6.4,7.3
			c-1.5,2.4-2.4,5.1-3.2,7.8c-1.1,3.7-1.9,7.4-2.6,11.2c-0.3,1.4-0.4,2.8-0.5,4.3c-0.1,1.5-0.4,3.1-0.4,4.6c0,1.5,0.2,3.1,0.3,4.6
			c0,0.5,0.2,0.8,0.5,1.1c0.7,0.6,1,1.5,1.3,2.3c0.7,2.1,1.5,4.3,2.5,6.3c0.3,0.6,0.4,1.3,0.6,2c0.8,2.2,1.6,4.5,2.4,6.7
			c0.6,1.5,1.7,2.7,2.7,3.9c2.3,2.7,4.9,5.3,7.5,7.7c2.1,1.9,4.5,3.4,7.1,4.5c1.3,0.6,2.6,1.5,4.2,1.3c0.1,0,0.3,0.1,0.4,0.2
			c2,1.8,4.7,1.9,7,2.9c0.4,0.2,0.6,0,0.9-0.2c0.6-0.4,1.1-0.1,1.3,0.4c0.2,0.7,0.7,0.8,1.3,1c3.7,1,7.4,2.3,11.3,2.8
			c4.6,0.6,9.3,1.1,14,0.7c2.8-0.3,5.6-0.7,8.4-0.9c4.3-0.4,8.6-1,12.8-1.6c1.9-0.3,3.8-0.3,5.7-0.5c3.2-0.4,6.3-0.5,9.5-1.1
			c3.2-0.6,6.4-0.9,9.6-1.4c3.8-0.6,7.7-1.1,11.5-1.7c2.6-0.4,5.2-0.5,7.8-0.6c3.2-0.2,6.5-0.4,9.7-0.3c3.4,0,6.8,0,10.2,0.1
			c4.6,0.1,9.1,0.2,13.7,0.3c4.7,0.2,9.5,0.4,14.2,0.6c4.1,0.3,8.2,0.8,12.3,1.4c5.4,0.7,10.8,1.9,16.2,2.9c7.8,1.4,15.3,3.7,23,5.5
			c2.4,0.6,4.9,1.1,7.2,1.8c3.5,1.1,7.1,1.9,10.6,3c2.3,0.7,4.6,1.4,6.9,2c2.4,0.7,4.8,1.5,7.1,2.3c4.2,1.4,8.5,2.6,12.9,3.7
			c2.3,0.6,4.6,0.9,6.9,1.4c2.3,0.6,4.6,1.1,7,1.6c4.2,0.9,8.5,1.4,12.7,2.1c4.6,0.8,9.3,0.9,14,1c3,0.1,6,0,8.9-0.3
			c0.4,0,0.8,0,1-0.4c0.4-0.8,0.6-0.7,0.9,0c0.2,0.4,0.5,0.3,0.8,0.2c2.9-0.4,5.9-0.7,8.8-1.2c3.6-0.5,7.1-1.1,10.7-1.8
			c3.9-0.7,7.7-1.7,11.5-2.5c3.8-0.9,7.5-2,11.2-3c0.1,0,0.2-0.1,0.2-0.2C388.5,138.9,387.9,138.5,388.3,137.8z"/>
		<path d="M443.1,67.6c-0.6,2.1-1.4,4.2-1.8,6.4c-0.8,4.1-1.4,8.3-2,12.4c-0.4,3-0.7,6-0.5,9.1c0.2,4.9,0.8,9.7,2.7,14.3
			c0.7,1.6,1.3,3.1,1.8,4.8c0.2,0.6,0.5,1,1,1.4c0.4,0.3,0.9,0.6,1.3,0.3c0.4-0.3,0.5-0.8,0.4-1.3c-0.3-1-0.7-1.9-1-2.8
			c-1.6-4-2.9-8.1-3.4-12.4c-0.3-2.7-0.2-5.3-0.5-8c-0.2-1.3,0.1-2.6,0.3-4c0.4-3,0.7-6,1.2-9c0.8-4.5,1.7-9,3.4-13.2
			c0.5-1.3,1.3-2.4,1.9-3.6c-0.2-0.5-0.6-0.5-0.8-0.3c-0.7,0.4-1.3,0.8-1.8,1.5c-0.8,1.2-1.1,2.6-1.9,3.8
			C443.2,67.2,443.2,67.4,443.1,67.6z"/>
		<path d="M500.2,84.3c-0.1,1-0.2,2.2-0.5,3.4c-0.4,1.7-0.4,3.5-0.4,5.3c0,0.6,0,1.3,0,1.9c-0.4,6.5,1.6,12.5,4.5,18.2
			c0.6,1.3,1.4,2.5,2.1,3.7c0.5,0.7,1.3,1,1.9,0.7c0.6-0.3,0.8-1.2,0.4-2c-0.7-1.4-1.5-2.7-2.2-4c-1.8-3.3-2.9-6.8-3.8-10.5
			c-0.3-1.2-0.3-2.4-0.4-3.6c-0.1-3.9,0-7.8,0.5-11.6c0.5-3.6,1.2-7.2,2.4-10.7c0.4-1.2,0.8-2.4,1.2-3.6c0.1-0.2,0.2-0.4,0.2-0.6
			c0.1-0.4,0.2-0.9-0.2-1.2c-0.5-0.3-0.8,0.2-1,0.5c-1.4,1.5-2.1,3.3-2.8,5.1c-0.7,2.2-1.6,4.3-1.8,6.6
			C500.5,82.7,499.8,83.3,500.2,84.3z"/>
		<path d="M488,113.5c0-1.2-0.3-2.1-0.9-3c-2.1-3.2-3.3-6.8-4.6-10.4c-1.4-3.9-2.1-8-2.5-12.1c-0.4-3.8,0.3-7.5,0.9-11.2
			c0.6-3.8,1.9-7.4,3-11c0.2-0.6,0.6-1.3-0.2-1.5c-0.7-0.3-1,0.5-1.2,1c-1.7,3.2-2.8,6.6-3.6,10.2c-0.6,2.8-1.2,5.6-1.3,8.5
			c-0.2,3.5,0.2,7,0.8,10.5c0.9,5,2.8,9.6,4.7,14.2c0.6,1.4,1.6,2.7,2.6,3.8C486.3,112.9,487.1,113.3,488,113.5z"/>
		<path d="M460.3,88.8c0.2,4.3,0.5,8.4,1.7,12.2c1.6,5.1,4.1,9.8,8.1,13.5c0.4,0.4,0.8,0.8,1.5,0.8c0.7-0.1,1.1-0.7,0.8-1.3
			c-0.2-0.3-0.5-0.6-0.7-0.8c-2.6-2.6-4.8-5.5-6.2-9c-1.3-3.2-2.4-6.6-2.5-10.1c-0.1-2.4-0.3-4.9-0.2-7.3c0-1,0.3-2,0.5-3
			c0.5-2.7,1.3-5.3,1.9-8c0.2-0.8,0.5-1.5,0.9-2.2c0.2-0.3,0.2-0.7-0.1-1c-0.3-0.2-0.6,0-0.8,0.2c-0.9,0.9-1.8,1.9-2.2,3.1
			c-1.1,3.1-1.6,6.3-2.3,9.4C460.4,86.5,460.4,87.8,460.3,88.8z"/>
		<path d="M467.7,85.5c0,0.9,0.7,1.6,1.5,1.6c0.8,0,1.4-0.6,1.5-1.4c0-0.9-0.9-1.8-1.8-1.8C468.3,84.1,467.7,84.8,467.7,85.5z"/>
		<path d="M51.2,108.6c0,0.7,0.1,1.2,0.5,1.7c0.3,0.3,0.7,0.8,1.2,0.6c0.5-0.2,0.7-0.7,0.7-1.2c0-0.4-0.1-0.9-0.2-1.4
			c-0.2-0.7-0.6-1.1-1.4-1C51.3,107.4,51.2,108,51.2,108.6z"/>
		<path d="M455.1,82.9c0.7-0.6,0.9-1.4,1.1-2.2c0.2-0.6-0.2-1-0.6-1.3c-0.4-0.3-0.9-0.3-1.3,0c-0.5,0.4-0.7,0.8-0.5,1.4
			C454.1,81.5,454.4,82.4,455.1,82.9z"/>
		<path d="M192.6,111c0.7-0.1,1-0.4,1-0.9c-0.1-0.9-0.5-1.7-1.3-2.2c-0.4-0.3-0.8-0.2-1.1,0.2c-0.5,0.7,0,1.3,0.2,2
			C191.5,110.5,192.1,110.8,192.6,111z"/>
		<path d="M125.9,107c0,0.6,0.7,1.3,1.4,1.2c0.8,0,1.4-0.7,1.4-1.4c0-0.8-0.5-1.4-1.2-1.3C126.7,105.5,125.9,106.4,125.9,107z"/>
		<path d="M28,71.2c0-0.7-0.6-1.4-1.3-1.3c-0.7,0-1.4,0.6-1.3,1.3c0,0.6,0.6,1.2,1.2,1.3C27.3,72.5,28,71.9,28,71.2z"/>
		<path d="M76.4,119.2c0.7,0,1.3-0.7,1.2-1.4c-0.1-0.7-0.6-1.2-1.3-1.2c-0.7,0-1.4,0.7-1.3,1.3C75.1,118.6,75.7,119.2,76.4,119.2z"
			/>
		<path d="M42.8,105c0-0.7-0.5-1.5-1.1-1.5c-0.5-0.1-1,0.5-1,1.2c-0.1,0.9,0.5,1.7,1,1.7C42.4,106.3,42.8,105.8,42.8,105z"/>
		<path d="M471.2,132.7c0,0,0.4-0.2,0.5-0.6c0.2-0.4,0-0.7-0.3-1c-0.4-0.3-0.7-0.7-1.1-0.9c-0.5-0.3-1.2,0.1-1.3,0.7
			C469,131.7,470.1,132.7,471.2,132.7z"/>
		<path d="M433.7,81.4c-0.1,0.5,0.1,0.9,0.5,1.3c0.3,0.3,0.6,0.5,1,0.3c0.4-0.2,0.6-0.6,0.6-1c0-0.5-0.7-1.5-1.3-1.7
			C434.1,80.1,433.7,80.6,433.7,81.4z"/>
		<path d="M484.1,128.7c0.5,0,1.3-0.6,1.4-1.1c0.1-0.6-0.5-1.2-1.2-1.3c-0.7-0.1-1.2,0.4-1.3,1.1C483,128,483.5,128.7,484.1,128.7z"
			/>
		<path d="M251.3,117.8c0.5,0,1.2-0.8,1.2-1.3c0-0.5-0.8-1.2-1.3-1.2c-0.5,0-1.1,0.6-1.1,1.2C250.1,117.2,250.7,117.9,251.3,117.8z"
			/>
		<path d="M354.6,137.4c0.6,0,1.2-0.7,1.2-1.3c0-0.6-0.7-1.2-1.3-1.1c-0.6,0.1-1.2,0.8-1.1,1.4C353.5,136.8,354.1,137.4,354.6,137.4
			z"/>
		<path d="M96.5,113.2c0.8,0,1.5-0.7,1.5-1.3c-0.1-0.7-0.6-0.9-1.3-0.9c-0.8,0-1.4,0.6-1.4,1.2C95.3,112.7,95.8,113.2,96.5,113.2z"
			/>
		<path d="M86.1,121.8c0.5,0,1.1-0.7,1.2-1.3c0-0.7-0.5-1.3-1.1-1.3c-0.7,0.1-1,0.5-1,1.2C85.1,121.3,85.5,121.8,86.1,121.8z"/>
		<path d="M498,103.8c0-0.6-0.6-1.2-1.2-1.2c-0.5,0-1.1,0.6-1.2,1.1c-0.1,0.5,0.6,1.3,1.1,1.3C497.3,105.1,498,104.4,498,103.8z"/>
		<path d="M529.9,65.6c0-0.5-0.7-1.2-1.3-1.1c-0.6,0-1.1,0.5-1.1,1.1c0,0.6,0.5,1.3,1.1,1.3C529.3,66.8,529.9,66.1,529.9,65.6z"/>
		<path d="M495.8,92.8c0,0.7,0.6,1.2,1.2,1.2c0.6,0,1.2-0.7,1.2-1.3c0-0.6-0.7-1.1-1.3-1.1C496.3,91.7,495.8,92.2,495.8,92.8z"/>
		<path d="M524.6,103.4c0-0.5-0.5-1.1-1-1.2c-0.7-0.1-1.3,0.5-1.3,1.1c0,0.5,0.5,1.2,1,1.3C523.8,104.6,524.6,104,524.6,103.4z"/>
		<path d="M522.5,81.8c0,0.5,0.5,1.2,1,1.2c0.6,0.1,1.4-0.6,1.4-1.2c0-0.5-0.6-1.1-1.1-1.1C523.2,80.7,522.6,81.2,522.5,81.8z"/>
		<path d="M115.1,108.1c0,0.6,0.7,1.2,1.3,1.2c0.5,0,1.1-0.7,1.1-1.2c0-0.6-0.6-1.2-1.3-1.2C115.6,107,115.1,107.6,115.1,108.1z"/>
		<path d="M522.1,124.9c0.6,0,1.1-0.4,1.1-1.1c0-0.5-0.5-1.1-1-1.2c-0.5-0.1-1.2,0.5-1.2,1C520.9,124.2,521.5,124.9,522.1,124.9z"/>
		<path d="M64.3,119c0-0.5-0.6-1.1-1.1-1.2c-0.6,0-1.2,0.5-1.2,1c0,0.6,0.5,1.2,1,1.3C63.5,120.2,64.2,119.6,64.3,119z"/>
		<path d="M173.2,107.3c0.6-0.1,1.3-0.9,1.2-1.5c-0.1-0.6-0.4-0.8-1-0.7c-0.8,0.1-1.3,0.5-1.2,1.2
			C172.2,106.8,172.7,107.3,173.2,107.3z"/>
		<path d="M443.1,67.6c0.1-0.2,0.1-0.4,0.2-0.6c-0.1-0.4-0.1-0.8-0.4-1c-0.4-0.3-0.7-0.6-1.3-0.3c-0.5,0.3-0.6,0.7-0.5,1.2
			c0.1,0.5,0.4,0.9,1,0.8C442.4,67.7,442.8,67.6,443.1,67.6z"/>
		<path d="M530.3,96.5c0-0.5-0.7-1.2-1.2-1c-0.5,0.1-1,0.4-0.9,1.1c0,0.7,0.4,1.2,1,1.1C529.8,97.7,530.3,97.1,530.3,96.5z"/>
		<path d="M522.3,112.4c0.7-0.5,1-1.2,1-2c0-0.6-0.5-1-1-0.9c-0.6,0.1-0.8,0.5-0.6,1C521.8,111.2,521.7,111.9,522.3,112.4z"/>
		<path d="M535.5,68.9c0.3,0,0.5-0.1,0.6-0.3c0.5-0.7,0-2-0.8-2.2c-0.1,0-0.4,0-0.4,0.1c-0.4,0.4-0.6,0.8-0.4,1.4
			C534.7,68.4,535,68.8,535.5,68.9z"/>
		<path d="M34.7,101.8c-0.1-0.6-0.5-0.9-1.1-0.9c-0.6,0-1,0.4-1,1c0,0.6,0.4,1,1,1C34.1,103,34.7,102.3,34.7,101.8z"/>
		<path d="M208.1,110c0.6,0,1.3-0.6,1.2-1.1c-0.1-0.6-0.5-0.9-1.1-0.9c-0.6,0-1,0.3-1,1C207.2,109.5,207.5,109.9,208.1,110z"/>
		<path d="M150.3,114.8c0.5-0.1,0.9-0.5,1-1c0.1-0.5-0.6-1.1-1.2-1c-0.6,0.1-0.9,0.5-0.9,1.1C149.2,114.3,149.8,114.8,150.3,114.8z"
			/>
		<path d="M460.4,128.1c0-0.5-0.7-1-1.3-0.9c-0.5,0.1-0.8,0.4-0.8,1c0,0.6,0.4,1,1,1C459.8,129.2,460.5,128.5,460.4,128.1z"/>
		<path d="M377.2,125.9c-0.1-0.6-0.5-1-1.1-1c-0.6,0-1,0.3-1,0.9c0,0.6,0.5,1.2,1.1,1.1C376.7,126.9,377,126.4,377.2,125.9z"/>
		<path d="M424.8,131c0.5,0,1.2-0.7,1.1-1.1c-0.1-0.6-0.5-0.9-1-1c-0.5,0-1,0.5-1,1C423.9,130.4,424.4,131,424.8,131z"/>
		<path d="M534.4,114.1c-0.1-0.6-0.6-0.9-1.1-0.9c-0.5-0.1-1,0.5-1,1c0,0.6,0.3,1,0.9,1.1C533.7,115.4,534.4,114.6,534.4,114.1z"/>
		<path d="M529.6,79.4c0,0.6,0.6,1.2,1.1,1.1c0.6-0.1,1-0.5,0.9-1.1c0-0.6-0.4-0.9-1-0.9C530.1,78.5,529.6,78.9,529.6,79.4z"/>
		<path d="M439.7,128.7c0.5,0,1.2-0.8,1.2-1.2c-0.1-0.6-0.6-0.9-1.1-0.9c-0.5-0.1-1,0.5-1,1C438.8,128.3,439.2,128.6,439.7,128.7z"
			/>
		<path d="M134.5,115.1c0.5-0.1,0.9-0.5,0.9-1.1c0-0.6-0.4-0.9-1.1-0.9c-0.6,0-1,0.5-1,1C133.4,114.6,133.9,115.1,134.5,115.1z"/>
		<path d="M435,104.9c0,0.5,0.6,1.2,1,1.2c0.7,0,0.8-0.6,0.9-1.1c0.1-0.6-0.3-1-0.8-1.1C435.6,103.8,435,104.4,435,104.9z"/>
		<path d="M43.2,111.2c0.5-0.1,0.9-0.5,0.9-1.1c0.1-0.5-0.4-1-1-1c-0.6,0-1,0.4-1,1C42.1,110.7,42.6,111.3,43.2,111.2z"/>
		<path d="M520.3,92.4c0,0.5,0.5,0.9,1,0.9c0.6,0,0.9-0.3,0.9-0.8c0.1-0.5-0.4-1-0.9-1.1C520.9,91.4,520.3,91.9,520.3,92.4z"/>
		<path d="M438.8,71.1c0-0.1,0-0.3-0.1-0.5c-0.1-0.5-0.3-0.9-0.9-0.9c-0.5,0-0.7,0.7-0.6,1.3c0.1,0.2,0.2,0.5,0.4,0.7
			c0.2,0.2,0.4,0.6,0.7,0.5C438.8,72,438.8,71.6,438.8,71.1z"/>
		<path d="M495.3,129.1c0.6,0,0.9-0.5,0.8-1.1c-0.1-0.6-0.5-0.9-1-0.8c-0.5,0.1-0.9,0.4-0.9,0.9
			C494.2,128.7,494.7,129.1,495.3,129.1z"/>
		<path d="M236.8,117.2c0.1,0.5,0.4,0.8,1,0.8c0.6,0,0.9-0.3,0.8-0.9c0-0.6-0.3-0.9-0.9-1C237.2,116,236.8,116.6,236.8,117.2z"/>
		<path d="M538.1,84.4c0-0.6-0.5-1.1-1-1c-0.5,0.1-0.8,0.4-0.9,1c-0.1,0.5,0.4,1,1,0.9C537.8,85.3,538.1,85,538.1,84.4z"/>
		<path d="M33.4,79.1c0.1,0.5,0.3,0.9,0.9,0.8c0.6,0,0.9-0.3,0.8-0.9c0-0.5-0.6-1.1-1-1C33.7,78.1,33.4,78.5,33.4,79.1z"/>
		<path d="M124.7,115.3c0.5,0,1.1-0.6,1-1c-0.1-0.5-0.4-0.9-0.9-0.9c-0.5,0-0.8,0.4-0.8,0.9C123.9,114.9,124.2,115.3,124.7,115.3z"
			/>
		<path d="M521.8,70.9c0,0.6,0.2,1,0.8,1c0.5,0,0.9-0.3,1-0.8c0.1-0.5-0.5-1.2-0.9-1.1C522.2,70.1,521.8,70.4,521.8,70.9z"/>
		<path d="M37.6,92.9c0.6-0.1,1-0.4,1-0.9c0-0.5-0.3-0.9-0.8-0.9c-0.5,0-0.9,0.3-0.9,0.8C36.8,92.5,37.1,92.8,37.6,92.9z"/>
		<path d="M139.6,104.8c0.4,0,0.8-0.2,0.8-0.8c0-0.6-0.3-0.9-0.9-0.9c-0.5,0-0.9,0.2-0.9,0.8C138.7,104.5,138.9,104.8,139.6,104.8z"
			/>
		<path d="M295.3,139.1c0.6-0.1,0.9-0.3,0.9-0.9c0-0.6-0.4-0.8-0.9-0.8c-0.5,0-0.8,0.3-0.8,0.8C294.5,138.8,294.8,139.1,295.3,139.1
			z"/>
		<path d="M273.7,134.5c0.1,0.4,0.3,0.8,0.8,0.9c0.4,0.1,1.1-0.6,1-1.1c-0.1-0.5-0.5-0.7-0.9-0.7C274,133.7,273.7,134,273.7,134.5z"
			/>
		<path d="M97.2,119.6c0.5-0.1,0.9-0.4,0.9-0.9c0-0.6-0.5-0.8-1-0.7c-0.5,0-0.8,0.3-0.7,0.8C96.5,119.2,96.7,119.5,97.2,119.6z"/>
		<path d="M287.4,135.2c0.5-0.1,0.9-0.4,1-0.9c0.1-0.5-0.3-0.8-0.8-0.8c-0.5,0-1,0.2-0.9,0.8C286.7,134.8,286.9,135.2,287.4,135.2z"
			/>
		<path d="M373.8,140.6c0.4-0.1,0.8-0.4,0.9-0.9c0-0.5-0.4-0.8-0.8-0.8c-0.5-0.1-0.8,0.2-0.9,0.7C372.9,140,373.2,140.4,373.8,140.6
			z"/>
		<path d="M537.6,76.3c0.6,0,0.9-0.4,1-0.9c0.1-0.5-0.3-0.8-0.8-0.8c-0.4,0-0.9,0.1-0.9,0.6C536.8,75.8,537.1,76.2,537.6,76.3z"/>
		<path d="M532.9,105.1c0.5-0.1,0.8-0.4,0.8-0.8c0-0.5-0.3-0.8-0.8-0.8c-0.5,0-0.8,0.3-0.8,0.8C532,104.8,532.4,105,532.9,105.1z"/>
		<path d="M537,96.3c0.1,0.4,0.4,0.8,0.9,0.7c0.5,0,0.8-0.4,0.7-0.9c-0.1-0.4-0.3-0.8-0.9-0.7C537.3,95.5,537.1,95.9,537,96.3z"/>
		<path d="M29.2,85.1c-0.1-0.5-0.4-0.9-0.9-0.9c-0.5,0-0.9,0.2-0.8,0.9c0.1,0.5,0.3,0.8,0.8,0.8C28.9,85.9,29.1,85.5,29.2,85.1z"/>
		<path d="M140.9,110.4c0.1,0.5,0.4,0.7,0.8,0.7c0.5,0,0.7-0.3,0.7-0.8c0-0.5-0.3-0.8-0.8-0.8C141.2,109.6,141,109.9,140.9,110.4z"
			/>
		<path d="M168,114.7c0.5,0,0.8-0.3,0.8-0.8c0-0.4-0.2-0.7-0.7-0.8c-0.5,0-0.8,0.3-0.9,0.7C167.1,114.4,167.5,114.6,168,114.7z"/>
		<path d="M155.6,115.5c0,0.4,0.2,0.7,0.6,0.8c0.5,0,0.8-0.3,0.8-0.7c0-0.4-0.2-0.7-0.7-0.8C155.9,114.7,155.7,115,155.6,115.5z"/>
		<path d="M232,120c0.5-0.1,0.8-0.4,0.8-0.9c0-0.5-0.3-0.8-0.8-0.8c-0.4,0.1-0.8,0.4-0.8,0.9C231.3,119.8,231.7,119.8,232,120z"/>
		<path d="M526.5,113.9c-0.1-0.5-0.3-0.8-0.8-0.8c-0.4,0-0.6,0.3-0.6,0.7c0,0.4,0.2,0.7,0.6,0.7
			C526.1,114.7,526.3,114.3,526.5,113.9z"/>
		<path d="M318.3,140.9c0-0.5-0.3-0.9-0.7-0.8c-0.4,0-0.8,0.3-0.8,0.9c0,0.6,0.4,0.7,0.9,0.7C318.1,141.7,318.3,141.4,318.3,140.9z"
			/>
		<path d="M112,114c0-0.5-0.2-0.9-0.7-0.9c-0.4,0-0.7,0.3-0.7,0.7c0,0.5,0.2,0.8,0.7,0.9C111.7,114.7,112,114.4,112,114z"/>
		<path d="M205.8,119.6c0.6-0.1,0.7-0.4,0.7-0.8c0-0.5-0.3-0.8-0.8-0.7c-0.4,0.1-0.8,0.4-0.7,0.9
			C205.1,119.5,205.5,119.5,205.8,119.6z"/>
		<path d="M118.9,119.6c0.4,0,0.7-0.1,0.8-0.6c0.1-0.5-0.1-0.9-0.6-1c-0.4-0.1-0.9,0.4-0.9,0.9C118.2,119.4,118.5,119.5,118.9,119.6
			z"/>
		<path d="M337.5,142.8c0.4-0.1,0.7-0.3,0.7-0.7c0-0.5-0.2-0.8-0.7-0.8c-0.4,0-0.7,0.3-0.7,0.7C336.7,142.5,337,142.8,337.5,142.8z"
			/>
		<path d="M173.5,115c0.4,0,0.7-0.2,0.7-0.7c0-0.5-0.2-0.8-0.7-0.8c-0.4,0-0.7,0.3-0.7,0.7C172.7,114.6,173,114.9,173.5,115z"/>
		<path d="M243.4,119.7c0.1,0.4,0.2,0.7,0.7,0.7c0.4,0,0.7-0.4,0.7-0.7c0-0.4-0.3-0.7-0.7-0.7C243.7,119,243.4,119.2,243.4,119.7z"
			/>
		<path d="M473.7,102.1c0,0.5,0.2,0.8,0.7,0.8c0.5,0,0.8-0.3,0.8-0.8c0-0.4-0.3-0.6-0.8-0.6C474,101.5,473.8,101.8,473.7,102.1z"/>
		<path d="M218.9,117.1c0.1,0.4,0.3,0.7,0.7,0.7c0.3,0,0.6-0.3,0.6-0.6c0-0.4-0.1-0.8-0.6-0.8C219.2,116.4,219,116.8,218.9,117.1z"
			/>
		<path d="M179.6,115.4c-0.4,0.1-0.7,0.4-0.7,0.7c0,0.4,0.3,0.7,0.7,0.7c0.4,0,0.7-0.3,0.7-0.7C180.3,115.7,180,115.5,179.6,115.4z"
			/>
		<path d="M265.4,124.7c0-0.4-0.2-0.7-0.6-0.7c-0.4,0-0.7,0.2-0.7,0.7c0,0.3,0.2,0.6,0.6,0.6C265.1,125.3,265.4,125.2,265.4,124.7z"
			/>
		<path d="M225.7,120.5c0-0.5-0.3-0.7-0.7-0.7c-0.5,0-0.6,0.4-0.6,0.8c0,0.3,0.2,0.6,0.6,0.5C225.5,121.1,225.7,120.9,225.7,120.5z"
			/>
		<path d="M305.3,137.7c0,0.3,0.1,0.6,0.5,0.7c0.4,0,0.7-0.2,0.7-0.5c0.1-0.4-0.2-0.7-0.6-0.8C305.6,137.1,305.4,137.4,305.3,137.7z
			"/>
		<path d="M163.6,103.6c0.5-0.1,0.7-0.4,0.7-0.8c-0.1-0.4-0.4-0.6-0.8-0.6c-0.3,0.1-0.5,0.3-0.5,0.7
			C162.9,103.3,163.2,103.5,163.6,103.6z"/>
		<path d="M254.8,127.2c0.4,0,0.6-0.2,0.6-0.6c0-0.4-0.2-0.7-0.7-0.7c-0.5,0-0.6,0.3-0.6,0.8C254.2,127,254.5,127.2,254.8,127.2z"/>
		<path d="M28.5,96.2c0.5,0,0.7-0.3,0.7-0.7c0-0.3-0.2-0.6-0.6-0.6c-0.4,0-0.7,0.2-0.8,0.6C27.8,95.9,28.1,96.1,28.5,96.2z"/>
		<path d="M162.2,116.2c0-0.2-0.1-0.4-0.4-0.4c-0.5,0-0.8,0.2-0.8,0.7c0,0.3,0.2,0.6,0.6,0.6C162,117,162,116.6,162.2,116.2z"/>
		<path d="M104.4,104.5c0.5,0,0.6-0.2,0.6-0.6c0-0.4-0.2-0.7-0.5-0.6c-0.4,0-0.7,0.3-0.7,0.7C103.8,104.4,104.1,104.5,104.4,104.5z"
			/>
		<path d="M543.3,97.1c0.3,0,0.5-0.1,0.5-0.5c0-0.3,0-0.7-0.4-0.7c-0.4-0.1-0.7,0.1-0.8,0.6C542.6,96.8,542.8,97,543.3,97.1z"/>
		<path d="M435,95.5c0,0.4,0.3,0.6,0.6,0.6c0.4,0,0.6-0.3,0.5-0.7c-0.1-0.3-0.4-0.5-0.7-0.5C435,95,435,95.3,435,95.5z"/>
		<path d="M214.6,114.8c-0.4,0.1-0.5,0.4-0.5,0.7c0,0.4,0.2,0.5,0.6,0.5c0.4,0,0.5-0.3,0.5-0.6C215.1,115.1,214.9,114.9,214.6,114.8
			z"/>
		<path d="M200.7,104.5c0.3,0,0.6-0.1,0.6-0.4c0.1-0.4-0.2-0.6-0.5-0.6c-0.3,0-0.5,0-0.6,0.4C200.1,104.2,200.3,104.5,200.7,104.5z"
			/>
		<path d="M151.7,111.9c0.3,0,0.5-0.1,0.6-0.4c0.1-0.4-0.1-0.6-0.5-0.6c-0.3,0-0.5,0-0.6,0.4C151.1,111.6,151.3,111.8,151.7,111.9z"
			/>
		<path d="M184.8,113.5c0.3,0,0.5-0.1,0.5-0.4c0-0.4-0.1-0.6-0.5-0.6c-0.3,0-0.5,0.1-0.6,0.4C184.3,113.2,184.5,113.4,184.8,113.5z"
			/>
		<path d="M327,141.5c0.4,0.1,0.6-0.1,0.6-0.4c0-0.2,0-0.4-0.3-0.5c-0.3,0-0.5,0.1-0.6,0.4C326.7,141.3,326.9,141.5,327,141.5z"/>
		<path d="M250.6,127.6c0,0.2,0.1,0.4,0.3,0.4c0.3,0,0.4-0.2,0.4-0.4c0-0.1-0.1-0.3-0.2-0.4C250.9,127.2,250.7,127.4,250.6,127.6z"
			/>
		<path d="M528,85.4c0,0.3,0.2,0.5,0.5,0.4c0.3,0,0.3-0.3,0.3-0.4c0-0.2,0-0.4-0.3-0.4C528.2,84.9,528,85.1,528,85.4z"/>
		<path d="M517.1,124c0.2,0,0.3-0.1,0.3-0.3c0-0.3-0.2-0.3-0.4-0.4c-0.2,0-0.3,0.2-0.3,0.3C516.7,123.9,516.8,124,517.1,124z"/>
		<path d="M241.4,118.9c0.1-0.4,0.3-0.7,0.4-1.2C240.9,117.8,241.2,118.4,241.4,118.9z"/>
	</g>
</g>
<g id="Layer_9">
</g>
<g id="Layer_8">
</g>
<g id="Layer_7">
</g>
<g id="Layer_6">
</g>
<g id="Layer_5">
</g>
<g id="Layer_4">
</g>
<g id="Layer_3">
</g>
</svg>
